<?xml version="1.0" encoding="UTF-8" standalone="no"?>
<!DOCTYPE svg PUBLIC "-//W3C//DTD SVG 1.1//EN"
 "http://www.w3.org/Graphics/SVG/1.1/DTD/svg11.dtd">
<!-- Generated by graphviz version 2.41.20190410.0829 (20190410.0829)
 -->
<!-- Title: admin.pl Pages: 1 -->
<svg width="1144pt" height="436pt"
 viewBox="72.00 72.00 1072.00 364.00" xmlns="http://www.w3.org/2000/svg" xmlns:xlink="http://www.w3.org/1999/xlink">
<g id="graph0" class="graph" transform="scale(1 1) rotate(0) translate(76 360)">
<title>admin.pl</title>
<polygon fill="white" stroke="transparent" points="-4,4 -4,-288 996,-288 996,4 -4,4"/>
<text text-anchor="start" x="8" y="-16" font-family="Courier,monospace" font-size="10.00" fill="#8b8989">ClioPatria &#45; an RDF application platform</text>
<text text-anchor="start" x="8" y="-6" font-family="Courier,monospace" font-size="10.00" fill="#8b8989">Generated on 2019/04/17, 13:04</text>
<g id="clust1" class="cluster">
<title>cluster_file_/Users/pmoura/ClioPatria/applications/admin.pl</title>
<g id="a_clust1"><a xlink:href="https://github.com/ClioPatria/ClioPatria/tree/add57aa2039eed4033cf96e96c293b2052e88f41/applications/admin.pl" xlink:title="https://github.com/ClioPatria/ClioPatria/tree/add57aa2039eed4033cf96e96c293b2052e88f41/applications/admin.pl">
<path fill="snow" stroke="#8b8989" d="M20,-36C20,-36 972,-36 972,-36 978,-36 984,-42 984,-48 984,-48 984,-264 984,-264 984,-270 978,-276 972,-276 972,-276 20,-276 20,-276 14,-276 8,-270 8,-264 8,-264 8,-48 8,-48 8,-42 14,-36 20,-36"/>
<text text-anchor="middle" x="40" y="-264" font-family="Courier,monospace" font-size="10.00" fill="#8b8989">admin.pl</text>
</a>
</g>
</g>
<g id="clust2" class="cluster">
<title>cluster_other</title>
<g id="a_clust2"><a xlink:title="(external entities)">
<path fill="white" stroke="#8b8989" d="M30,-46C30,-46 962,-46 962,-46 968,-46 974,-52 974,-58 974,-58 974,-108 974,-108 974,-114 968,-120 962,-120 962,-120 30,-120 30,-120 24,-120 18,-114 18,-108 18,-108 18,-58 18,-58 18,-52 24,-46 30,-46"/>
<text text-anchor="middle" x="83.01" y="-108" font-family="Courier,monospace" font-size="10.00" fill="#8b8989">(external entities)</text>
</a>
</g>
</g>
<!-- cpa_admin -->
<g id="node1" class="node">
<title>cpa_admin</title>
<g id="a_node1"><a xlink:title="module">
<polygon fill="gainsboro" stroke="black" points="575,-248 437,-248 437,-252 425,-252 425,-191 575,-191 575,-248"/>
<polyline fill="none" stroke="black" points="425,-248 437,-248 "/>
<g id="a_node1_0"><a xlink:href="cpa_admin_module_xref_diagram.svg" xlink:title="Zoom">
<image xlink:href="zoom.png" width="11px" height="11px" preserveAspectRatio="xMinYMin meet" x="433" y="-243.5"/>
</a>
</g>
<text text-anchor="start" x="435.8" y="-224.3" font-family="Courier,monospace" font-size="9.00"> </text>
<text text-anchor="start" x="473.3" y="-223.7" font-family="Courier,monospace" font-size="11.00">cpa_admin</text>
<text text-anchor="start" x="561.8" y="-224.3" font-family="Courier,monospace" font-size="9.00"> </text>
<text text-anchor="start" x="435.8" y="-214.3" font-family="Courier,monospace" font-size="9.00"> </text>
<text text-anchor="start" x="490.4" y="-214.9" font-family="Courier,monospace" font-size="7.00">module</text>
<text text-anchor="start" x="561.8" y="-214.3" font-family="Courier,monospace" font-size="9.00"> </text>
<text text-anchor="start" x="435.8" y="-205.3" font-family="Courier,monospace" font-size="9.00"> </text>
<text text-anchor="start" x="435.8" y="-196.3" font-family="Courier,monospace" font-size="9.00"> </text>
<text text-anchor="start" x="443.59" y="-196.3" font-family="Courier,monospace" font-size="9.00">change_password_form/3</text>
<text text-anchor="start" x="561.8" y="-196.3" font-family="Courier,monospace" font-size="9.00"> </text>
</a>
</g>
</g>
<!-- http_dispatch -->
<g id="node2" class="node">
<title>http_dispatch</title>
<g id="a_node2"><a xlink:title="module">
<polygon fill="gainsboro" stroke="black" stroke-dasharray="5,2" points="139.5,-92 40.5,-92 40.5,-96 28.5,-96 28.5,-56 139.5,-56 139.5,-92"/>
<polyline fill="none" stroke="black" stroke-dasharray="5,2" points="28.5,-92 40.5,-92 "/>
<text text-anchor="start" x="36.8" y="-75.8" font-family="Courier,monospace" font-size="9.00"> </text>
<text text-anchor="start" x="41.59" y="-75.2" font-family="Courier,monospace" font-size="11.00">http_dispatch</text>
<text text-anchor="start" x="126.8" y="-75.8" font-family="Courier,monospace" font-size="9.00"> </text>
<text text-anchor="start" x="36.8" y="-65.8" font-family="Courier,monospace" font-size="9.00"> </text>
<text text-anchor="start" x="71.9" y="-66.4" font-family="Courier,monospace" font-size="7.00">module</text>
<text text-anchor="start" x="126.8" y="-65.8" font-family="Courier,monospace" font-size="9.00"> </text>
</a>
</g>
</g>
<!-- cpa_admin&#45;&gt;http_dispatch -->
<g id="edge1" class="edge">
<title>cpa_admin&#45;&gt;http_dispatch</title>
<path fill="none" stroke="black" d="M424.7,-206.79C351.22,-193.25 237.84,-166.59 149,-120 137.6,-114.02 125.84,-106.39 115.5,-99.11"/>
<polygon fill="black" stroke="black" points="115.43,-99.06 108.22,-98.79 105.71,-92.03 115.43,-99.06"/>
<g id="a_edge1&#45;label"><a xlink:title="use_module">
<text text-anchor="middle" x="229" y="-138.8" font-family="Courier,monospace" font-size="9.00">use_module</text>
</a>
</g>
</g>
<!-- settings -->
<g id="node3" class="node">
<title>settings</title>
<g id="a_node3"><a xlink:title="module">
<polygon fill="gainsboro" stroke="black" stroke-dasharray="5,2" points="236,-92 170,-92 170,-96 158,-96 158,-56 236,-56 236,-92"/>
<polyline fill="none" stroke="black" stroke-dasharray="5,2" points="158,-92 170,-92 "/>
<text text-anchor="start" x="165.8" y="-75.8" font-family="Courier,monospace" font-size="9.00"> </text>
<text text-anchor="start" x="170.6" y="-75.2" font-family="Courier,monospace" font-size="11.00">settings</text>
<text text-anchor="start" x="222.8" y="-75.8" font-family="Courier,monospace" font-size="9.00"> </text>
<text text-anchor="start" x="165.8" y="-65.8" font-family="Courier,monospace" font-size="9.00"> </text>
<text text-anchor="start" x="184.4" y="-66.4" font-family="Courier,monospace" font-size="7.00">module</text>
<text text-anchor="start" x="222.8" y="-65.8" font-family="Courier,monospace" font-size="9.00"> </text>
</a>
</g>
</g>
<!-- cpa_admin&#45;&gt;settings -->
<g id="edge2" class="edge">
<title>cpa_admin&#45;&gt;settings</title>
<path fill="none" stroke="black" d="M424.94,-199.12C371.79,-183.17 300.39,-157.13 245,-120 236.91,-114.58 228.89,-107.78 221.78,-101.12"/>
<polygon fill="black" stroke="black" points="221.31,-100.66 214.23,-99.32 212.74,-92.26 221.31,-100.66"/>
<g id="a_edge2&#45;label"><a xlink:title="use_module">
<text text-anchor="middle" x="310" y="-138.8" font-family="Courier,monospace" font-size="9.00">use_module</text>
</a>
</g>
</g>
<!-- user_db -->
<g id="node4" class="node">
<title>user_db</title>
<g id="a_node4"><a xlink:title="module">
<polygon fill="gainsboro" stroke="black" stroke-dasharray="5,2" points="326,-92 266,-92 266,-96 254,-96 254,-56 326,-56 326,-92"/>
<polyline fill="none" stroke="black" stroke-dasharray="5,2" points="254,-92 266,-92 "/>
<text text-anchor="start" x="261.8" y="-75.8" font-family="Courier,monospace" font-size="9.00"> </text>
<text text-anchor="start" x="266.9" y="-75.2" font-family="Courier,monospace" font-size="11.00">user_db</text>
<text text-anchor="start" x="312.8" y="-75.8" font-family="Courier,monospace" font-size="9.00"> </text>
<text text-anchor="start" x="261.8" y="-65.8" font-family="Courier,monospace" font-size="9.00"> </text>
<text text-anchor="start" x="277.4" y="-66.4" font-family="Courier,monospace" font-size="7.00">module</text>
<text text-anchor="start" x="312.8" y="-65.8" font-family="Courier,monospace" font-size="9.00"> </text>
</a>
</g>
</g>
<!-- cpa_admin&#45;&gt;user_db -->
<g id="edge3" class="edge">
<title>cpa_admin&#45;&gt;user_db</title>
<path fill="none" stroke="black" d="M446.14,-190.88C412.77,-172.69 369.79,-147.27 335,-120 327.71,-114.28 320.36,-107.48 313.78,-100.92"/>
<polygon fill="black" stroke="black" points="313.72,-100.86 306.67,-99.34 305.36,-92.25 313.72,-100.86"/>
<g id="a_edge3&#45;label"><a xlink:title="use_module">
<text text-anchor="middle" x="396" y="-138.8" font-family="Courier,monospace" font-size="9.00">use_module</text>
</a>
</g>
</g>
<!-- html_write -->
<g id="node5" class="node">
<title>html_write</title>
<g id="a_node5"><a xlink:title="module">
<polygon fill="gainsboro" stroke="black" stroke-dasharray="5,2" points="436,-92 356,-92 356,-96 344,-96 344,-56 436,-56 436,-92"/>
<polyline fill="none" stroke="black" stroke-dasharray="5,2" points="344,-92 356,-92 "/>
<text text-anchor="start" x="351.8" y="-75.8" font-family="Courier,monospace" font-size="9.00"> </text>
<text text-anchor="start" x="356.99" y="-75.2" font-family="Courier,monospace" font-size="11.00">html_write</text>
<text text-anchor="start" x="422.8" y="-75.8" font-family="Courier,monospace" font-size="9.00"> </text>
<text text-anchor="start" x="351.8" y="-65.8" font-family="Courier,monospace" font-size="9.00"> </text>
<text text-anchor="start" x="377.4" y="-66.4" font-family="Courier,monospace" font-size="7.00">module</text>
<text text-anchor="start" x="422.8" y="-65.8" font-family="Courier,monospace" font-size="9.00"> </text>
</a>
</g>
</g>
<!-- cpa_admin&#45;&gt;html_write -->
<g id="edge4" class="edge">
<title>cpa_admin&#45;&gt;html_write</title>
<path fill="none" stroke="black" d="M477.41,-190.83C466.56,-177.41 453.46,-160.98 441.99,-146 431,-131.64 419.06,-115.38 409.39,-102.05"/>
<polygon fill="black" stroke="black" points="409.22,-101.81 402.46,-99.28 402.19,-92.08 409.22,-101.81"/>
<g id="a_edge4&#45;label"><a xlink:title="use_module">
<text text-anchor="middle" x="468" y="-138.8" font-family="Courier,monospace" font-size="9.00">use_module</text>
</a>
</g>
</g>
<!-- swi_option -->
<g id="node6" class="node">
<title>swi_option</title>
<g id="a_node6"><a xlink:title="module">
<polygon fill="gainsboro" stroke="black" stroke-dasharray="5,2" points="546,-92 466,-92 466,-96 454,-96 454,-56 546,-56 546,-92"/>
<polyline fill="none" stroke="black" stroke-dasharray="5,2" points="454,-92 466,-92 "/>
<text text-anchor="start" x="461.8" y="-75.8" font-family="Courier,monospace" font-size="9.00"> </text>
<text text-anchor="start" x="466.99" y="-75.2" font-family="Courier,monospace" font-size="11.00">swi_option</text>
<text text-anchor="start" x="532.8" y="-75.8" font-family="Courier,monospace" font-size="9.00"> </text>
<text text-anchor="start" x="461.8" y="-65.8" font-family="Courier,monospace" font-size="9.00"> </text>
<text text-anchor="start" x="487.4" y="-66.4" font-family="Courier,monospace" font-size="7.00">module</text>
<text text-anchor="start" x="532.8" y="-65.8" font-family="Courier,monospace" font-size="9.00"> </text>
</a>
</g>
</g>
<!-- cpa_admin&#45;&gt;swi_option -->
<g id="edge5" class="edge">
<title>cpa_admin&#45;&gt;swi_option</title>
<path fill="none" stroke="black" d="M500,-190.83C500,-166 500,-129.68 500,-104.34"/>
<polygon fill="black" stroke="black" points="500,-104.22 496,-98.22 500,-92.22 500,-104.22"/>
<g id="a_edge5&#45;label"><a xlink:title="use_module">
<text text-anchor="middle" x="527" y="-138.8" font-family="Courier,monospace" font-size="9.00">use_module</text>
</a>
</g>
</g>
<!-- http_parameters -->
<g id="node7" class="node">
<title>http_parameters</title>
<g id="a_node7"><a xlink:title="module">
<polygon fill="gainsboro" stroke="black" stroke-dasharray="5,2" points="689.5,-92 576.5,-92 576.5,-96 564.5,-96 564.5,-56 689.5,-56 689.5,-92"/>
<polyline fill="none" stroke="black" stroke-dasharray="5,2" points="564.5,-92 576.5,-92 "/>
<text text-anchor="start" x="572.8" y="-75.8" font-family="Courier,monospace" font-size="9.00"> </text>
<text text-anchor="start" x="577.99" y="-75.2" font-family="Courier,monospace" font-size="11.00">http_parameters</text>
<text text-anchor="start" x="676.8" y="-75.8" font-family="Courier,monospace" font-size="9.00"> </text>
<text text-anchor="start" x="572.8" y="-65.8" font-family="Courier,monospace" font-size="9.00"> </text>
<text text-anchor="start" x="614.9" y="-66.4" font-family="Courier,monospace" font-size="7.00">module</text>
<text text-anchor="start" x="676.8" y="-65.8" font-family="Courier,monospace" font-size="9.00"> </text>
</a>
</g>
</g>
<!-- cpa_admin&#45;&gt;http_parameters -->
<g id="edge6" class="edge">
<title>cpa_admin&#45;&gt;http_parameters</title>
<path fill="none" stroke="black" d="M524.49,-190.83C547.37,-164.98 581.28,-126.66 603.75,-101.27"/>
<polygon fill="black" stroke="black" points="603.81,-101.21 604.79,-94.06 611.76,-92.22 603.81,-101.21"/>
<g id="a_edge6&#45;label"><a xlink:title="use_module">
<text text-anchor="middle" x="598" y="-138.8" font-family="Courier,monospace" font-size="9.00">use_module</text>
</a>
</g>
</g>
<!-- uri -->
<g id="node8" class="node">
<title>uri</title>
<g id="a_node8"><a xlink:title="module">
<polygon fill="gainsboro" stroke="black" stroke-dasharray="5,2" points="762,-92 720,-92 720,-96 708,-96 708,-56 762,-56 762,-92"/>
<polyline fill="none" stroke="black" stroke-dasharray="5,2" points="708,-92 720,-92 "/>
<text text-anchor="start" x="717.8" y="-75.8" font-family="Courier,monospace" font-size="9.00"> </text>
<text text-anchor="start" x="725.6" y="-75.2" font-family="Courier,monospace" font-size="11.00">uri</text>
<text text-anchor="start" x="747.8" y="-75.8" font-family="Courier,monospace" font-size="9.00"> </text>
<text text-anchor="start" x="717.8" y="-65.8" font-family="Courier,monospace" font-size="9.00"> </text>
<text text-anchor="start" x="722.9" y="-66.4" font-family="Courier,monospace" font-size="7.00">module</text>
<text text-anchor="start" x="747.8" y="-65.8" font-family="Courier,monospace" font-size="9.00"> </text>
</a>
</g>
</g>
<!-- cpa_admin&#45;&gt;uri -->
<g id="edge7" class="edge">
<title>cpa_admin&#45;&gt;uri</title>
<path fill="none" stroke="black" d="M574.46,-190.85C613.91,-174.02 661.77,-149.98 699,-120 705.34,-114.89 711.29,-108.49 716.45,-102.12"/>
<polygon fill="black" stroke="black" points="716.61,-101.91 717.05,-94.71 723.86,-92.35 716.61,-101.91"/>
<g id="a_edge7&#45;label"><a xlink:title="use_module">
<text text-anchor="middle" x="701" y="-138.8" font-family="Courier,monospace" font-size="9.00">use_module</text>
</a>
</g>
</g>
<!-- url -->
<g id="node9" class="node">
<title>url</title>
<g id="a_node9"><a xlink:title="module">
<polygon fill="gainsboro" stroke="black" stroke-dasharray="5,2" points="834,-92 792,-92 792,-96 780,-96 780,-56 834,-56 834,-92"/>
<polyline fill="none" stroke="black" stroke-dasharray="5,2" points="780,-92 792,-92 "/>
<text text-anchor="start" x="789.8" y="-75.8" font-family="Courier,monospace" font-size="9.00"> </text>
<text text-anchor="start" x="797.6" y="-75.2" font-family="Courier,monospace" font-size="11.00">url</text>
<text text-anchor="start" x="819.8" y="-75.8" font-family="Courier,monospace" font-size="9.00"> </text>
<text text-anchor="start" x="789.8" y="-65.8" font-family="Courier,monospace" font-size="9.00"> </text>
<text text-anchor="start" x="794.9" y="-66.4" font-family="Courier,monospace" font-size="7.00">module</text>
<text text-anchor="start" x="819.8" y="-65.8" font-family="Courier,monospace" font-size="9.00"> </text>
</a>
</g>
</g>
<!-- cpa_admin&#45;&gt;url -->
<g id="edge8" class="edge">
<title>cpa_admin&#45;&gt;url</title>
<path fill="none" stroke="black" d="M575.18,-200.84C621.62,-188.53 681.73,-170 732,-146 750.8,-137.02 755.64,-134.08 771,-120 776.9,-114.59 782.64,-108.16 787.73,-101.88"/>
<polygon fill="black" stroke="black" points="787.79,-101.8 788.3,-94.6 795.13,-92.3 787.79,-101.8"/>
<g id="a_edge8&#45;label"><a xlink:title="use_module">
<text text-anchor="middle" x="776" y="-138.8" font-family="Courier,monospace" font-size="9.00">use_module</text>
</a>
</g>
</g>
<!-- http_settings -->
<g id="node10" class="node">
<title>http_settings</title>
<g id="a_node10"><a xlink:title="module">
<polygon fill="gainsboro" stroke="black" stroke-dasharray="5,2" points="963.5,-92 864.5,-92 864.5,-96 852.5,-96 852.5,-56 963.5,-56 963.5,-92"/>
<polyline fill="none" stroke="black" stroke-dasharray="5,2" points="852.5,-92 864.5,-92 "/>
<text text-anchor="start" x="860.8" y="-75.8" font-family="Courier,monospace" font-size="9.00"> </text>
<text text-anchor="start" x="865.59" y="-75.2" font-family="Courier,monospace" font-size="11.00">http_settings</text>
<text text-anchor="start" x="950.8" y="-75.8" font-family="Courier,monospace" font-size="9.00"> </text>
<text text-anchor="start" x="860.8" y="-65.8" font-family="Courier,monospace" font-size="9.00"> </text>
<text text-anchor="start" x="895.9" y="-66.4" font-family="Courier,monospace" font-size="7.00">module</text>
<text text-anchor="start" x="950.8" y="-65.8" font-family="Courier,monospace" font-size="9.00"> </text>
</a>
</g>
</g>
<!-- cpa_admin&#45;&gt;http_settings -->
<g id="edge9" class="edge">
<title>cpa_admin&#45;&gt;http_settings</title>
<path fill="none" stroke="black" d="M575.14,-208.92C638.93,-198.9 731.82,-179.78 807,-146 833.3,-134.18 859.86,-115.17 879.13,-99.8"/>
<polygon fill="black" stroke="black" points="879.21,-99.73 881.33,-92.84 888.51,-92.15 879.21,-99.73"/>
<g id="a_edge9&#45;label"><a xlink:title="use_module">
<text text-anchor="middle" x="848" y="-138.8" font-family="Courier,monospace" font-size="9.00">use_module</text>
</a>
</g>
</g>
</g>
</svg>
