<?xml version="1.0" encoding="UTF-8" standalone="no"?>
<!DOCTYPE svg PUBLIC "-//W3C//DTD SVG 1.1//EN"
 "http://www.w3.org/Graphics/SVG/1.1/DTD/svg11.dtd">
<!-- Generated by graphviz version 2.41.20190410.0829 (20190410.0829)
 -->
<!-- Title: basics.pl Pages: 1 -->
<svg width="902pt" height="517pt"
 viewBox="72.00 72.00 830.00 445.00" xmlns="http://www.w3.org/2000/svg" xmlns:xlink="http://www.w3.org/1999/xlink">
<g id="graph0" class="graph" transform="scale(1 1) rotate(0) translate(76 441)">
<title>basics.pl</title>
<polygon fill="white" stroke="transparent" points="-4,4 -4,-369 754,-369 754,4 -4,4"/>
<text text-anchor="start" x="8" y="-16" font-family="Courier,monospace" font-size="10.00" fill="#8b8989">ClioPatria &#45; an RDF application platform</text>
<text text-anchor="start" x="8" y="-6" font-family="Courier,monospace" font-size="10.00" fill="#8b8989">Generated on 2019/04/17, 13:04</text>
<g id="clust1" class="cluster">
<title>cluster_file_/Users/pmoura/ClioPatria/components/basics.pl</title>
<g id="a_clust1"><a xlink:href="https://github.com/ClioPatria/ClioPatria/tree/add57aa2039eed4033cf96e96c293b2052e88f41/components/basics.pl" xlink:title="https://github.com/ClioPatria/ClioPatria/tree/add57aa2039eed4033cf96e96c293b2052e88f41/components/basics.pl">
<path fill="snow" stroke="#8b8989" d="M20,-36C20,-36 730,-36 730,-36 736,-36 742,-42 742,-48 742,-48 742,-345 742,-345 742,-351 736,-357 730,-357 730,-357 20,-357 20,-357 14,-357 8,-351 8,-345 8,-345 8,-48 8,-48 8,-42 14,-36 20,-36"/>
<text text-anchor="middle" x="43" y="-345" font-family="Courier,monospace" font-size="10.00" fill="#8b8989">basics.pl</text>
</a>
</g>
</g>
<g id="clust2" class="cluster">
<title>cluster_other</title>
<g id="a_clust2"><a xlink:title="(external entities)">
<path fill="white" stroke="#8b8989" d="M30,-46C30,-46 720,-46 720,-46 726,-46 732,-52 732,-58 732,-58 732,-108 732,-108 732,-114 726,-120 720,-120 720,-120 30,-120 30,-120 24,-120 18,-114 18,-108 18,-108 18,-58 18,-58 18,-52 24,-46 30,-46"/>
<text text-anchor="middle" x="83.01" y="-108" font-family="Courier,monospace" font-size="10.00" fill="#8b8989">(external entities)</text>
</a>
</g>
</g>
<!-- html_basics -->
<g id="node1" class="node">
<title>html_basics</title>
<g id="a_node1"><a xlink:title="module">
<polygon fill="gainsboro" stroke="black" points="521.5,-329 356.5,-329 356.5,-333 344.5,-333 344.5,-191 521.5,-191 521.5,-329"/>
<polyline fill="none" stroke="black" points="344.5,-329 356.5,-329 "/>
<g id="a_node1_0"><a xlink:href="html_basics_module_xref_diagram.svg" xlink:title="Zoom">
<image xlink:href="zoom.png" width="11px" height="11px" preserveAspectRatio="xMinYMin meet" x="353" y="-325"/>
</a>
</g>
<text text-anchor="start" x="355.8" y="-305.8" font-family="Courier,monospace" font-size="9.00"> </text>
<text text-anchor="start" x="400.19" y="-305.2" font-family="Courier,monospace" font-size="11.00">html_basics</text>
<text text-anchor="start" x="508.8" y="-305.8" font-family="Courier,monospace" font-size="9.00"> </text>
<text text-anchor="start" x="355.8" y="-295.8" font-family="Courier,monospace" font-size="9.00"> </text>
<text text-anchor="start" x="423.9" y="-296.4" font-family="Courier,monospace" font-size="7.00">module</text>
<text text-anchor="start" x="508.8" y="-295.8" font-family="Courier,monospace" font-size="9.00"> </text>
<text text-anchor="start" x="355.8" y="-286.8" font-family="Courier,monospace" font-size="9.00"> </text>
<text text-anchor="start" x="355.8" y="-277.8" font-family="Courier,monospace" font-size="9.00"> </text>
<text text-anchor="start" x="428.4" y="-277.8" font-family="Courier,monospace" font-size="9.00">n/4</text>
<text text-anchor="start" x="508.8" y="-277.8" font-family="Courier,monospace" font-size="9.00"> </text>
<text text-anchor="start" x="355.8" y="-268.8" font-family="Courier,monospace" font-size="9.00"> </text>
<text text-anchor="start" x="387.89" y="-268.8" font-family="Courier,monospace" font-size="9.00">insert_html_file/3</text>
<text text-anchor="start" x="508.8" y="-268.8" font-family="Courier,monospace" font-size="9.00"> </text>
<text text-anchor="start" x="355.8" y="-259.8" font-family="Courier,monospace" font-size="9.00"> </text>
<text text-anchor="start" x="425.7" y="-259.8" font-family="Courier,monospace" font-size="9.00">nc/4</text>
<text text-anchor="start" x="508.8" y="-259.8" font-family="Courier,monospace" font-size="9.00"> </text>
<text text-anchor="start" x="355.8" y="-250.8" font-family="Courier,monospace" font-size="9.00"> </text>
<text text-anchor="start" x="398.69" y="-250.8" font-family="Courier,monospace" font-size="9.00">odd_even_row/5</text>
<text text-anchor="start" x="508.8" y="-250.8" font-family="Courier,monospace" font-size="9.00"> </text>
<text text-anchor="start" x="355.8" y="-241.8" font-family="Courier,monospace" font-size="9.00"> </text>
<text text-anchor="start" x="412.2" y="-241.8" font-family="Courier,monospace" font-size="9.00">sort_th/5</text>
<text text-anchor="start" x="508.8" y="-241.8" font-family="Courier,monospace" font-size="9.00"> </text>
<text text-anchor="start" x="355.8" y="-232.8" font-family="Courier,monospace" font-size="9.00"> </text>
<text text-anchor="start" x="425.7" y="-232.8" font-family="Courier,monospace" font-size="9.00">nc/5</text>
<text text-anchor="start" x="508.8" y="-232.8" font-family="Courier,monospace" font-size="9.00"> </text>
<text text-anchor="start" x="355.8" y="-223.8" font-family="Courier,monospace" font-size="9.00"> </text>
<text text-anchor="start" x="401.39" y="-223.8" font-family="Courier,monospace" font-size="9.00">form_submit/3</text>
<text text-anchor="start" x="508.8" y="-223.8" font-family="Courier,monospace" font-size="9.00"> </text>
<text text-anchor="start" x="355.8" y="-214.8" font-family="Courier,monospace" font-size="9.00"> </text>
<text text-anchor="start" x="414.9" y="-214.8" font-family="Courier,monospace" font-size="9.00">hidden/4</text>
<text text-anchor="start" x="508.8" y="-214.8" font-family="Courier,monospace" font-size="9.00"> </text>
<text text-anchor="start" x="355.8" y="-205.8" font-family="Courier,monospace" font-size="9.00"> </text>
<text text-anchor="start" x="404.09" y="-205.8" font-family="Courier,monospace" font-size="9.00">form_input/4</text>
<text text-anchor="start" x="508.8" y="-205.8" font-family="Courier,monospace" font-size="9.00"> </text>
<text text-anchor="start" x="355.8" y="-196.8" font-family="Courier,monospace" font-size="9.00"> </text>
<text text-anchor="start" x="363.59" y="-196.8" font-family="Courier,monospace" font-size="9.00">html_write:html_meta_head/3</text>
<text text-anchor="start" x="508.8" y="-196.8" font-family="Courier,monospace" font-size="9.00"> </text>
</a>
</g>
</g>
<!-- html_write -->
<g id="node2" class="node">
<title>html_write</title>
<g id="a_node2"><a xlink:title="module">
<polygon fill="gainsboro" stroke="black" stroke-dasharray="5,2" points="120,-92 40,-92 40,-96 28,-96 28,-56 120,-56 120,-92"/>
<polyline fill="none" stroke="black" stroke-dasharray="5,2" points="28,-92 40,-92 "/>
<text text-anchor="start" x="35.8" y="-75.8" font-family="Courier,monospace" font-size="9.00"> </text>
<text text-anchor="start" x="40.99" y="-75.2" font-family="Courier,monospace" font-size="11.00">html_write</text>
<text text-anchor="start" x="106.8" y="-75.8" font-family="Courier,monospace" font-size="9.00"> </text>
<text text-anchor="start" x="35.8" y="-65.8" font-family="Courier,monospace" font-size="9.00"> </text>
<text text-anchor="start" x="61.4" y="-66.4" font-family="Courier,monospace" font-size="7.00">module</text>
<text text-anchor="start" x="106.8" y="-65.8" font-family="Courier,monospace" font-size="9.00"> </text>
</a>
</g>
</g>
<!-- html_basics&#45;&gt;html_write -->
<g id="edge1" class="edge">
<title>html_basics&#45;&gt;html_write</title>
<path fill="none" stroke="black" d="M344.45,-225.58C282.11,-200.38 197.83,-162.89 129,-120 119.06,-113.81 108.93,-106.02 100.11,-98.67"/>
<polygon fill="black" stroke="black" points="94.71,-89.44 100.03,-98.6 90.16,-94.76 94.71,-89.44"/>
<g id="a_edge1&#45;label"><a xlink:title="provides">
<text text-anchor="middle" x="189.6" y="-138.8" font-family="Courier,monospace" font-size="9.00">provides</text>
</a>
</g>
</g>
<!-- swi_option -->
<g id="node3" class="node">
<title>swi_option</title>
<g id="a_node3"><a xlink:title="module">
<polygon fill="gainsboro" stroke="black" stroke-dasharray="5,2" points="230,-92 150,-92 150,-96 138,-96 138,-56 230,-56 230,-92"/>
<polyline fill="none" stroke="black" stroke-dasharray="5,2" points="138,-92 150,-92 "/>
<text text-anchor="start" x="145.8" y="-75.8" font-family="Courier,monospace" font-size="9.00"> </text>
<text text-anchor="start" x="150.99" y="-75.2" font-family="Courier,monospace" font-size="11.00">swi_option</text>
<text text-anchor="start" x="216.8" y="-75.8" font-family="Courier,monospace" font-size="9.00"> </text>
<text text-anchor="start" x="145.8" y="-65.8" font-family="Courier,monospace" font-size="9.00"> </text>
<text text-anchor="start" x="171.4" y="-66.4" font-family="Courier,monospace" font-size="7.00">module</text>
<text text-anchor="start" x="216.8" y="-65.8" font-family="Courier,monospace" font-size="9.00"> </text>
</a>
</g>
</g>
<!-- html_basics&#45;&gt;swi_option -->
<g id="edge2" class="edge">
<title>html_basics&#45;&gt;swi_option</title>
<path fill="none" stroke="black" d="M344.37,-196.65C311.33,-173.02 273.68,-145.63 240,-120 231.51,-113.54 222.44,-106.37 214.13,-99.69"/>
<polygon fill="black" stroke="black" points="214.13,-99.69 206.95,-99.03 204.8,-92.15 214.13,-99.69"/>
<g id="a_edge2&#45;label"><a xlink:title="use_module">
<text text-anchor="middle" x="298" y="-138.8" font-family="Courier,monospace" font-size="9.00">use_module</text>
</a>
</g>
</g>
<!-- httpd_wrapper -->
<g id="node4" class="node">
<title>httpd_wrapper</title>
<g id="a_node4"><a xlink:title="module">
<polygon fill="gainsboro" stroke="black" stroke-dasharray="5,2" points="359.5,-92 260.5,-92 260.5,-96 248.5,-96 248.5,-56 359.5,-56 359.5,-92"/>
<polyline fill="none" stroke="black" stroke-dasharray="5,2" points="248.5,-92 260.5,-92 "/>
<text text-anchor="start" x="256.8" y="-75.8" font-family="Courier,monospace" font-size="9.00"> </text>
<text text-anchor="start" x="261.59" y="-75.2" font-family="Courier,monospace" font-size="11.00">httpd_wrapper</text>
<text text-anchor="start" x="346.8" y="-75.8" font-family="Courier,monospace" font-size="9.00"> </text>
<text text-anchor="start" x="256.8" y="-65.8" font-family="Courier,monospace" font-size="9.00"> </text>
<text text-anchor="start" x="291.9" y="-66.4" font-family="Courier,monospace" font-size="7.00">module</text>
<text text-anchor="start" x="346.8" y="-65.8" font-family="Courier,monospace" font-size="9.00"> </text>
</a>
</g>
</g>
<!-- html_basics&#45;&gt;httpd_wrapper -->
<g id="edge3" class="edge">
<title>html_basics&#45;&gt;httpd_wrapper</title>
<path fill="none" stroke="black" d="M385.15,-190.75C363.51,-159.88 339.19,-125.19 322.86,-101.91"/>
<polygon fill="black" stroke="black" points="322.85,-101.89 316.13,-99.27 315.96,-92.06 322.85,-101.89"/>
<g id="a_edge3&#45;label"><a xlink:title="use_module">
<text text-anchor="middle" x="380" y="-138.8" font-family="Courier,monospace" font-size="9.00">use_module</text>
</a>
</g>
</g>
<!-- http_dispatch -->
<g id="node5" class="node">
<title>http_dispatch</title>
<g id="a_node5"><a xlink:title="module">
<polygon fill="gainsboro" stroke="black" stroke-dasharray="5,2" points="488.5,-92 389.5,-92 389.5,-96 377.5,-96 377.5,-56 488.5,-56 488.5,-92"/>
<polyline fill="none" stroke="black" stroke-dasharray="5,2" points="377.5,-92 389.5,-92 "/>
<text text-anchor="start" x="385.8" y="-75.8" font-family="Courier,monospace" font-size="9.00"> </text>
<text text-anchor="start" x="390.59" y="-75.2" font-family="Courier,monospace" font-size="11.00">http_dispatch</text>
<text text-anchor="start" x="475.8" y="-75.8" font-family="Courier,monospace" font-size="9.00"> </text>
<text text-anchor="start" x="385.8" y="-65.8" font-family="Courier,monospace" font-size="9.00"> </text>
<text text-anchor="start" x="420.9" y="-66.4" font-family="Courier,monospace" font-size="7.00">module</text>
<text text-anchor="start" x="475.8" y="-65.8" font-family="Courier,monospace" font-size="9.00"> </text>
</a>
</g>
</g>
<!-- html_basics&#45;&gt;http_dispatch -->
<g id="edge4" class="edge">
<title>html_basics&#45;&gt;http_dispatch</title>
<path fill="none" stroke="black" d="M433,-190.75C433,-160.86 433,-127.37 433,-104.14"/>
<polygon fill="black" stroke="black" points="433,-104.06 429,-98.06 433,-92.06 433,-104.06"/>
<g id="a_edge4&#45;label"><a xlink:title="use_module">
<text text-anchor="middle" x="460" y="-138.8" font-family="Courier,monospace" font-size="9.00">use_module</text>
</a>
</g>
</g>
<!-- sgml -->
<g id="node6" class="node">
<title>sgml</title>
<g id="a_node6"><a xlink:title="module">
<polygon fill="gainsboro" stroke="black" stroke-dasharray="5,2" points="561,-92 519,-92 519,-96 507,-96 507,-56 561,-56 561,-92"/>
<polyline fill="none" stroke="black" stroke-dasharray="5,2" points="507,-92 519,-92 "/>
<text text-anchor="start" x="515.8" y="-75.8" font-family="Courier,monospace" font-size="9.00"> </text>
<text text-anchor="start" x="520.8" y="-75.2" font-family="Courier,monospace" font-size="11.00">sgml</text>
<text text-anchor="start" x="546.8" y="-75.8" font-family="Courier,monospace" font-size="9.00"> </text>
<text text-anchor="start" x="515.8" y="-65.8" font-family="Courier,monospace" font-size="9.00"> </text>
<text text-anchor="start" x="521.4" y="-66.4" font-family="Courier,monospace" font-size="7.00">module</text>
<text text-anchor="start" x="546.8" y="-65.8" font-family="Courier,monospace" font-size="9.00"> </text>
</a>
</g>
</g>
<!-- html_basics&#45;&gt;sgml -->
<g id="edge5" class="edge">
<title>html_basics&#45;&gt;sgml</title>
<path fill="none" stroke="black" d="M470.47,-190.75C487.18,-160.3 505.94,-126.13 518.71,-102.86"/>
<polygon fill="black" stroke="black" points="518.86,-102.58 518.24,-95.4 524.63,-92.06 518.86,-102.58"/>
<g id="a_edge5&#45;label"><a xlink:title="use_module">
<text text-anchor="middle" x="525" y="-138.8" font-family="Courier,monospace" font-size="9.00">use_module</text>
</a>
</g>
</g>
<!-- occurs -->
<g id="node7" class="node">
<title>occurs</title>
<g id="a_node7"><a xlink:title="module">
<polygon fill="gainsboro" stroke="black" stroke-dasharray="5,2" points="644.5,-92 591.5,-92 591.5,-96 579.5,-96 579.5,-56 644.5,-56 644.5,-92"/>
<polyline fill="none" stroke="black" stroke-dasharray="5,2" points="579.5,-92 591.5,-92 "/>
<text text-anchor="start" x="587.8" y="-75.8" font-family="Courier,monospace" font-size="9.00"> </text>
<text text-anchor="start" x="592.7" y="-75.2" font-family="Courier,monospace" font-size="11.00">occurs</text>
<text text-anchor="start" x="631.8" y="-75.8" font-family="Courier,monospace" font-size="9.00"> </text>
<text text-anchor="start" x="587.8" y="-65.8" font-family="Courier,monospace" font-size="9.00"> </text>
<text text-anchor="start" x="599.9" y="-66.4" font-family="Courier,monospace" font-size="7.00">module</text>
<text text-anchor="start" x="631.8" y="-65.8" font-family="Courier,monospace" font-size="9.00"> </text>
</a>
</g>
</g>
<!-- html_basics&#45;&gt;occurs -->
<g id="edge6" class="edge">
<title>html_basics&#45;&gt;occurs</title>
<path fill="none" stroke="black" d="M510.93,-190.9C526.3,-176.51 542,-161.1 556,-146 568.85,-132.15 581.99,-115.63 592.31,-102.02"/>
<polygon fill="black" stroke="black" points="592.42,-101.87 592.81,-94.67 599.6,-92.26 592.42,-101.87"/>
<g id="a_edge6&#45;label"><a xlink:title="use_module">
<text text-anchor="middle" x="589" y="-138.8" font-family="Courier,monospace" font-size="9.00">use_module</text>
</a>
</g>
</g>
<!-- lists -->
<g id="node8" class="node">
<title>lists</title>
<g id="a_node8"><a xlink:title="module">
<polygon fill="gainsboro" stroke="black" stroke-dasharray="5,2" points="721.5,-92 674.5,-92 674.5,-96 662.5,-96 662.5,-56 721.5,-56 721.5,-92"/>
<polyline fill="none" stroke="black" stroke-dasharray="5,2" points="662.5,-92 674.5,-92 "/>
<text text-anchor="start" x="670.8" y="-75.8" font-family="Courier,monospace" font-size="9.00"> </text>
<text text-anchor="start" x="676" y="-75.2" font-family="Courier,monospace" font-size="11.00">lists</text>
<text text-anchor="start" x="708.8" y="-75.8" font-family="Courier,monospace" font-size="9.00"> </text>
<text text-anchor="start" x="670.8" y="-65.8" font-family="Courier,monospace" font-size="9.00"> </text>
<text text-anchor="start" x="679.9" y="-66.4" font-family="Courier,monospace" font-size="7.00">module</text>
<text text-anchor="start" x="708.8" y="-65.8" font-family="Courier,monospace" font-size="9.00"> </text>
</a>
</g>
</g>
<!-- html_basics&#45;&gt;lists -->
<g id="edge7" class="edge">
<title>html_basics&#45;&gt;lists</title>
<path fill="none" stroke="black" d="M521.58,-214.15C564.45,-189.86 614.95,-157.21 654,-120 659.93,-114.35 665.86,-107.84 671.22,-101.55"/>
<polygon fill="black" stroke="black" points="671.46,-101.27 672.19,-94.09 679.09,-92.01 671.46,-101.27"/>
<g id="a_edge7&#45;label"><a xlink:title="use_module">
<text text-anchor="middle" x="659" y="-138.8" font-family="Courier,monospace" font-size="9.00">use_module</text>
</a>
</g>
</g>
</g>
</svg>
