<?xml version="1.0" encoding="UTF-8" standalone="no"?>
<!DOCTYPE svg PUBLIC "-//W3C//DTD SVG 1.1//EN"
 "http://www.w3.org/Graphics/SVG/1.1/DTD/svg11.dtd">
<!-- Generated by graphviz version 2.41.20190410.0829 (20190410.0829)
 -->
<!-- Title: bundle.pl Pages: 1 -->
<svg width="473pt" height="453pt"
 viewBox="72.00 72.00 401.00 381.00" xmlns="http://www.w3.org/2000/svg" xmlns:xlink="http://www.w3.org/1999/xlink">
<g id="graph0" class="graph" transform="scale(1 1) rotate(0) translate(76 377)">
<title>bundle.pl</title>
<polygon fill="white" stroke="transparent" points="-4,4 -4,-305 325,-305 325,4 -4,4"/>
<text text-anchor="start" x="8" y="-16" font-family="Courier,monospace" font-size="10.00" fill="#8b8989">ClioPatria &#45; an RDF application platform</text>
<text text-anchor="start" x="8" y="-6" font-family="Courier,monospace" font-size="10.00" fill="#8b8989">Generated on 2019/04/17, 13:04</text>
<g id="clust1" class="cluster">
<title>cluster_file_/Users/pmoura/ClioPatria/lib/bundle.pl</title>
<g id="a_clust1"><a xlink:href="https://github.com/ClioPatria/ClioPatria/tree/add57aa2039eed4033cf96e96c293b2052e88f41/lib/bundle.pl" xlink:title="https://github.com/ClioPatria/ClioPatria/tree/add57aa2039eed4033cf96e96c293b2052e88f41/lib/bundle.pl">
<path fill="snow" stroke="#8b8989" d="M20,-36C20,-36 301,-36 301,-36 307,-36 313,-42 313,-48 313,-48 313,-281 313,-281 313,-287 307,-293 301,-293 301,-293 20,-293 20,-293 14,-293 8,-287 8,-281 8,-281 8,-48 8,-48 8,-42 14,-36 20,-36"/>
<text text-anchor="middle" x="43" y="-281" font-family="Courier,monospace" font-size="10.00" fill="#8b8989">bundle.pl</text>
</a>
</g>
</g>
<!-- bundle -->
<g id="node1" class="node">
<title>bundle</title>
<g id="a_node1"><a xlink:title="module">
<polygon fill="gainsboro" stroke="black" points="302.5,-265 93.5,-265 93.5,-269 81.5,-269 81.5,-181 302.5,-181 302.5,-265"/>
<polyline fill="none" stroke="black" points="81.5,-265 93.5,-265 "/>
<g id="a_node1_0"><a xlink:href="bundle_module_xref_diagram.svg" xlink:title="Zoom">
<image xlink:href="zoom.png" width="11px" height="11px" preserveAspectRatio="xMinYMin meet" x="90" y="-261"/>
</a>
</g>
<text text-anchor="start" x="92.8" y="-241.8" font-family="Courier,monospace" font-size="9.00"> </text>
<text text-anchor="start" x="175.7" y="-241.2" font-family="Courier,monospace" font-size="11.00">bundle</text>
<text text-anchor="start" x="289.8" y="-241.8" font-family="Courier,monospace" font-size="9.00"> </text>
<text text-anchor="start" x="92.8" y="-231.8" font-family="Courier,monospace" font-size="9.00"> </text>
<text text-anchor="start" x="182.9" y="-232.4" font-family="Courier,monospace" font-size="7.00">module</text>
<text text-anchor="start" x="289.8" y="-231.8" font-family="Courier,monospace" font-size="9.00"> </text>
<text text-anchor="start" x="92.8" y="-222.8" font-family="Courier,monospace" font-size="9.00"> </text>
<text text-anchor="start" x="92.8" y="-213.8" font-family="Courier,monospace" font-size="9.00"> </text>
<text text-anchor="start" x="163.09" y="-213.8" font-family="Courier,monospace" font-size="9.00">use_bundle/1</text>
<text text-anchor="start" x="289.8" y="-213.8" font-family="Courier,monospace" font-size="9.00"> </text>
<text text-anchor="start" x="92.8" y="-204.8" font-family="Courier,monospace" font-size="9.00"> </text>
<text text-anchor="start" x="133.39" y="-204.8" font-family="Courier,monospace" font-size="9.00">user:file_search_path/2</text>
<text text-anchor="start" x="289.8" y="-204.8" font-family="Courier,monospace" font-size="9.00"> </text>
<text text-anchor="start" x="92.8" y="-195.8" font-family="Courier,monospace" font-size="9.00"> </text>
<text text-anchor="start" x="133.39" y="-195.8" font-family="Courier,monospace" font-size="9.00">system:term_expansion/2</text>
<text text-anchor="start" x="289.8" y="-195.8" font-family="Courier,monospace" font-size="9.00"> </text>
<text text-anchor="start" x="92.8" y="-186.8" font-family="Courier,monospace" font-size="9.00"> </text>
<text text-anchor="start" x="100.98" y="-186.8" font-family="Courier,monospace" font-size="9.00">emacs_prolog_colours:goal_colours/2</text>
<text text-anchor="start" x="289.8" y="-186.8" font-family="Courier,monospace" font-size="9.00"> </text>
</a>
</g>
</g>
<!-- emacs_prolog_colours -->
<g id="node2" class="node">
<title>emacs_prolog_colours</title>
<ellipse fill="white" stroke="black" cx="88" cy="-64" rx="70.19" ry="18"/>
<text text-anchor="middle" x="88" y="-61.3" font-family="Courier,monospace" font-size="9.00">emacs_prolog_colours</text>
</g>
<!-- bundle&#45;&gt;emacs_prolog_colours -->
<g id="edge1" class="edge">
<title>bundle&#45;&gt;emacs_prolog_colours</title>
<path fill="none" stroke="black" d="M164.68,-180.75C145.7,-152.11 121.02,-114.85 104.86,-90.45"/>
<polygon fill="black" stroke="black" points="102.23,-80.14 104.83,-90.41 96.39,-84.01 102.23,-80.14"/>
<g id="a_edge1&#45;label"><a xlink:title="provides">
<text text-anchor="middle" x="154.6" y="-128.8" font-family="Courier,monospace" font-size="9.00">provides</text>
</a>
</g>
</g>
<!-- system -->
<g id="node3" class="node">
<title>system</title>
<ellipse fill="white" stroke="black" cx="204" cy="-64" rx="27.41" ry="18"/>
<text text-anchor="middle" x="204" y="-61.3" font-family="Courier,monospace" font-size="9.00">system</text>
</g>
<!-- bundle&#45;&gt;system -->
<g id="edge2" class="edge">
<title>bundle&#45;&gt;system</title>
<path fill="none" stroke="black" d="M191.48,-180.78C191.61,-164.06 192.19,-144.58 193.79,-127 194.84,-115.51 196.77,-102.94 198.66,-92.13"/>
<polygon fill="black" stroke="black" points="203.96,-82.65 198.71,-91.86 197.08,-81.39 203.96,-82.65"/>
<g id="a_edge2&#45;label"><a xlink:title="provides">
<text text-anchor="middle" x="214.6" y="-128.8" font-family="Courier,monospace" font-size="9.00">provides</text>
</a>
</g>
</g>
<!-- user -->
<g id="node4" class="node">
<title>user</title>
<ellipse fill="white" stroke="black" cx="276" cy="-64" rx="27" ry="18"/>
<text text-anchor="middle" x="276" y="-61.3" font-family="Courier,monospace" font-size="9.00">user</text>
</g>
<!-- bundle&#45;&gt;user -->
<g id="edge3" class="edge">
<title>bundle&#45;&gt;user</title>
<path fill="none" stroke="black" d="M214.07,-180.75C229.43,-152.04 249.43,-114.67 262.48,-90.27"/>
<polygon fill="black" stroke="black" points="270.37,-82.94 262.57,-90.11 264.2,-79.64 270.37,-82.94"/>
<g id="a_edge3&#45;label"><a xlink:title="provides">
<text text-anchor="middle" x="262.6" y="-128.8" font-family="Courier,monospace" font-size="9.00">provides</text>
</a>
</g>
</g>
</g>
</svg>
