<?xml version="1.0" encoding="UTF-8" standalone="no"?>
<!DOCTYPE svg PUBLIC "-//W3C//DTD SVG 1.1//EN"
 "http://www.w3.org/Graphics/SVG/1.1/DTD/svg11.dtd">
<!-- Generated by graphviz version 2.41.20190410.0829 (20190410.0829)
 -->
<!-- Title: bundle_module Pages: 1 -->
<svg width="959pt" height="288pt"
 viewBox="72.00 72.00 887.00 216.00" xmlns="http://www.w3.org/2000/svg" xmlns:xlink="http://www.w3.org/1999/xlink">
<g id="graph0" class="graph" transform="scale(1 1) rotate(0) translate(76 212)">
<title>bundle_module</title>
<polygon fill="white" stroke="transparent" points="-4,4 -4,-140 811,-140 811,4 -4,4"/>
<text text-anchor="start" x="8" y="-26" font-family="Courier,monospace" font-size="10.00" fill="dimgray">ClioPatria &#45; an RDF application platform</text>
<text text-anchor="start" x="8" y="-16" font-family="Courier,monospace" font-size="10.00" fill="dimgray">Cross&#45;referencing diagram for module bundle</text>
<text text-anchor="start" x="8" y="-6" font-family="Courier,monospace" font-size="10.00" fill="dimgray">Generated on 2019/04/30, 22:01</text>
<g id="clust1" class="cluster">
<title>cluster_bundle_module</title>
<g id="a_clust1"><a xlink:title="bundle">
<path fill="snow" stroke="dimgray" d="M20,-46C20,-46 787,-46 787,-46 793,-46 799,-52 799,-58 799,-58 799,-116 799,-116 799,-122 793,-128 787,-128 787,-128 20,-128 20,-128 14,-128 8,-122 8,-116 8,-116 8,-58 8,-58 8,-52 14,-46 20,-46"/>
<g id="a_clust1_0"><a xlink:href="https://github.com/ClioPatria/ClioPatria/tree/add57aa2039eed4033cf96e96c293b2052e88f41/lib/bundle.pl" xlink:title="https://github.com/ClioPatria/ClioPatria/tree/add57aa2039eed4033cf96e96c293b2052e88f41/lib/bundle.pl">
<text text-anchor="start" x="20" y="-112" font-family="Courier,monospace" font-size="10.00" fill="dimgray">bundle</text>
</a>
</g>
</a>
</g>
</g>
<!-- use_bundle/1 -->
<g id="node1" class="node">
<title>use_bundle/1</title>
<g id="a_node1"><a xlink:href="https://github.com/ClioPatria/ClioPatria/tree/add57aa2039eed4033cf96e96c293b2052e88f41/lib/bundle.pl#L62" xlink:title="https://github.com/ClioPatria/ClioPatria/tree/add57aa2039eed4033cf96e96c293b2052e88f41/lib/bundle.pl#L62">
<polygon fill="springgreen" stroke="black" points="788.5,-92 683.5,-92 683.5,-56 788.5,-56 788.5,-92"/>
<text text-anchor="start" x="691.8" y="-75.8" font-family="Courier,monospace" font-size="9.00"> </text>
<text text-anchor="start" x="696.89" y="-75.2" font-family="Courier,monospace" font-size="11.00">use_bundle/1</text>
<text text-anchor="start" x="775.8" y="-75.8" font-family="Courier,monospace" font-size="9.00"> </text>
<text text-anchor="start" x="691.8" y="-65.8" font-family="Courier,monospace" font-size="9.00"> </text>
<text text-anchor="start" x="719.7" y="-66.4" font-family="Courier,monospace" font-size="7.00">exported</text>
<text text-anchor="start" x="775.8" y="-65.8" font-family="Courier,monospace" font-size="9.00"> </text>
</a>
</g>
</g>
<!-- user:file_search_path/2 -->
<g id="node2" class="node">
<title>user:file_search_path/2</title>
<g id="a_node2"><a xlink:href="https://github.com/ClioPatria/ClioPatria/tree/add57aa2039eed4033cf96e96c293b2052e88f41/lib/bundle.pl#L55" xlink:title="https://github.com/ClioPatria/ClioPatria/tree/add57aa2039eed4033cf96e96c293b2052e88f41/lib/bundle.pl#L55">
<polygon fill="skyblue" stroke="black" points="665.5,-92 488.5,-92 488.5,-56 665.5,-56 665.5,-92"/>
<text text-anchor="start" x="496.8" y="-75.8" font-family="Courier,monospace" font-size="9.00"> </text>
<text text-anchor="start" x="501.59" y="-75.2" font-family="Courier,monospace" font-size="11.00">user:file_search_path/2</text>
<text text-anchor="start" x="652.8" y="-75.8" font-family="Courier,monospace" font-size="9.00"> </text>
<text text-anchor="start" x="496.8" y="-65.8" font-family="Courier,monospace" font-size="9.00"> </text>
<text text-anchor="start" x="558.6" y="-66.4" font-family="Courier,monospace" font-size="7.00">multifile</text>
<text text-anchor="start" x="652.8" y="-65.8" font-family="Courier,monospace" font-size="9.00"> </text>
</a>
</g>
</g>
<!-- system:term_expansion/2 -->
<g id="node3" class="node">
<title>system:term_expansion/2</title>
<g id="a_node3"><a xlink:href="https://github.com/ClioPatria/ClioPatria/tree/add57aa2039eed4033cf96e96c293b2052e88f41/lib/bundle.pl#L65" xlink:title="https://github.com/ClioPatria/ClioPatria/tree/add57aa2039eed4033cf96e96c293b2052e88f41/lib/bundle.pl#L65">
<polygon fill="skyblue" stroke="black" points="470.5,-92 293.5,-92 293.5,-56 470.5,-56 470.5,-92"/>
<text text-anchor="start" x="301.8" y="-75.8" font-family="Courier,monospace" font-size="9.00"> </text>
<text text-anchor="start" x="306.59" y="-75.2" font-family="Courier,monospace" font-size="11.00">system:term_expansion/2</text>
<text text-anchor="start" x="457.8" y="-75.8" font-family="Courier,monospace" font-size="9.00"> </text>
<text text-anchor="start" x="301.8" y="-65.8" font-family="Courier,monospace" font-size="9.00"> </text>
<text text-anchor="start" x="363.6" y="-66.4" font-family="Courier,monospace" font-size="7.00">multifile</text>
<text text-anchor="start" x="457.8" y="-65.8" font-family="Courier,monospace" font-size="9.00"> </text>
</a>
</g>
</g>
<!-- emacs_prolog_colours:goal_colours/2 -->
<g id="node4" class="node">
<title>emacs_prolog_colours:goal_colours/2</title>
<g id="a_node4"><a xlink:href="https://github.com/ClioPatria/ClioPatria/tree/add57aa2039eed4033cf96e96c293b2052e88f41/lib/bundle.pl#L69" xlink:title="https://github.com/ClioPatria/ClioPatria/tree/add57aa2039eed4033cf96e96c293b2052e88f41/lib/bundle.pl#L69">
<polygon fill="skyblue" stroke="black" points="275.5,-92 18.5,-92 18.5,-56 275.5,-56 275.5,-92"/>
<text text-anchor="start" x="26.8" y="-75.8" font-family="Courier,monospace" font-size="9.00"> </text>
<text text-anchor="start" x="31.98" y="-75.2" font-family="Courier,monospace" font-size="11.00">emacs_prolog_colours:goal_colours/2</text>
<text text-anchor="start" x="262.8" y="-75.8" font-family="Courier,monospace" font-size="9.00"> </text>
<text text-anchor="start" x="26.8" y="-65.8" font-family="Courier,monospace" font-size="9.00"> </text>
<text text-anchor="start" x="128.6" y="-66.4" font-family="Courier,monospace" font-size="7.00">multifile</text>
<text text-anchor="start" x="262.8" y="-65.8" font-family="Courier,monospace" font-size="9.00"> </text>
</a>
</g>
</g>
</g>
</svg>
