<?xml version="1.0" encoding="UTF-8" standalone="no"?>
<!DOCTYPE svg PUBLIC "-//W3C//DTD SVG 1.1//EN"
 "http://www.w3.org/Graphics/SVG/1.1/DTD/svg11.dtd">
<!-- Generated by graphviz version 2.41.20190410.0829 (20190410.0829)
 -->
<!-- Title: conf_d.pl Pages: 1 -->
<svg width="1204pt" height="490pt"
 viewBox="72.00 72.00 1132.00 418.00" xmlns="http://www.w3.org/2000/svg" xmlns:xlink="http://www.w3.org/1999/xlink">
<g id="graph0" class="graph" transform="scale(1 1) rotate(0) translate(76 414)">
<title>conf_d.pl</title>
<polygon fill="white" stroke="transparent" points="-4,4 -4,-342 1056,-342 1056,4 -4,4"/>
<text text-anchor="start" x="8" y="-16" font-family="Courier,monospace" font-size="10.00" fill="#8b8989">ClioPatria &#45; an RDF application platform</text>
<text text-anchor="start" x="8" y="-6" font-family="Courier,monospace" font-size="10.00" fill="#8b8989">Generated on 2019/04/17, 13:04</text>
<g id="clust1" class="cluster">
<title>cluster_file_/Users/pmoura/ClioPatria/lib/conf_d.pl</title>
<g id="a_clust1"><a xlink:href="https://github.com/ClioPatria/ClioPatria/tree/add57aa2039eed4033cf96e96c293b2052e88f41/lib/conf_d.pl" xlink:title="https://github.com/ClioPatria/ClioPatria/tree/add57aa2039eed4033cf96e96c293b2052e88f41/lib/conf_d.pl">
<path fill="snow" stroke="#8b8989" d="M20,-36C20,-36 1032,-36 1032,-36 1038,-36 1044,-42 1044,-48 1044,-48 1044,-318 1044,-318 1044,-324 1038,-330 1032,-330 1032,-330 20,-330 20,-330 14,-330 8,-324 8,-318 8,-318 8,-48 8,-48 8,-42 14,-36 20,-36"/>
<text text-anchor="middle" x="43" y="-318" font-family="Courier,monospace" font-size="10.00" fill="#8b8989">conf_d.pl</text>
</a>
</g>
</g>
<g id="clust2" class="cluster">
<title>cluster_other</title>
<g id="a_clust2"><a xlink:title="(external entities)">
<path fill="white" stroke="#8b8989" d="M30,-46C30,-46 958,-46 958,-46 964,-46 970,-52 970,-58 970,-58 970,-108 970,-108 970,-114 964,-120 958,-120 958,-120 30,-120 30,-120 24,-120 18,-114 18,-108 18,-108 18,-58 18,-58 18,-52 24,-46 30,-46"/>
<text text-anchor="middle" x="83.01" y="-108" font-family="Courier,monospace" font-size="10.00" fill="#8b8989">(external entities)</text>
</a>
</g>
</g>
<!-- conf_d -->
<g id="node1" class="node">
<title>conf_d</title>
<g id="a_node1"><a xlink:title="module">
<polygon fill="gainsboro" stroke="black" points="615,-302 477,-302 477,-306 465,-306 465,-191 615,-191 615,-302"/>
<polyline fill="none" stroke="black" points="465,-302 477,-302 "/>
<g id="a_node1_0"><a xlink:href="conf_d_module_xref_diagram.svg" xlink:title="Zoom">
<image xlink:href="zoom.png" width="11px" height="11px" preserveAspectRatio="xMinYMin meet" x="473" y="-297.5"/>
</a>
</g>
<text text-anchor="start" x="475.8" y="-278.3" font-family="Courier,monospace" font-size="9.00"> </text>
<text text-anchor="start" x="523.2" y="-277.7" font-family="Courier,monospace" font-size="11.00">conf_d</text>
<text text-anchor="start" x="601.8" y="-278.3" font-family="Courier,monospace" font-size="9.00"> </text>
<text text-anchor="start" x="475.8" y="-268.3" font-family="Courier,monospace" font-size="9.00"> </text>
<text text-anchor="start" x="530.4" y="-268.9" font-family="Courier,monospace" font-size="7.00">module</text>
<text text-anchor="start" x="601.8" y="-268.3" font-family="Courier,monospace" font-size="9.00"> </text>
<text text-anchor="start" x="475.8" y="-259.3" font-family="Courier,monospace" font-size="9.00"> </text>
<text text-anchor="start" x="475.8" y="-250.3" font-family="Courier,monospace" font-size="9.00"> </text>
<text text-anchor="start" x="507.89" y="-250.3" font-family="Courier,monospace" font-size="9.00">load_conf_d/2</text>
<text text-anchor="start" x="601.8" y="-250.3" font-family="Courier,monospace" font-size="9.00"> </text>
<text text-anchor="start" x="475.8" y="-241.3" font-family="Courier,monospace" font-size="9.00"> </text>
<text text-anchor="start" x="499.79" y="-241.3" font-family="Courier,monospace" font-size="9.00">conf_d_enabled/1</text>
<text text-anchor="start" x="601.8" y="-241.3" font-family="Courier,monospace" font-size="9.00"> </text>
<text text-anchor="start" x="475.8" y="-232.3" font-family="Courier,monospace" font-size="9.00"> </text>
<text text-anchor="start" x="502.49" y="-232.3" font-family="Courier,monospace" font-size="9.00">conf_d_reload/0</text>
<text text-anchor="start" x="601.8" y="-232.3" font-family="Courier,monospace" font-size="9.00"> </text>
<text text-anchor="start" x="475.8" y="-223.3" font-family="Courier,monospace" font-size="9.00"> </text>
<text text-anchor="start" x="483.59" y="-223.3" font-family="Courier,monospace" font-size="9.00">conf_d_configuration/3</text>
<text text-anchor="start" x="601.8" y="-223.3" font-family="Courier,monospace" font-size="9.00"> </text>
<text text-anchor="start" x="475.8" y="-214.3" font-family="Courier,monospace" font-size="9.00"> </text>
<text text-anchor="start" x="499.79" y="-214.3" font-family="Courier,monospace" font-size="9.00">conf_d_members/3</text>
<text text-anchor="start" x="601.8" y="-214.3" font-family="Courier,monospace" font-size="9.00"> </text>
<text text-anchor="start" x="475.8" y="-205.3" font-family="Courier,monospace" font-size="9.00"> </text>
<text text-anchor="start" x="488.99" y="-205.3" font-family="Courier,monospace" font-size="9.00">conf_d_member_data/3</text>
<text text-anchor="start" x="601.8" y="-205.3" font-family="Courier,monospace" font-size="9.00"> </text>
<text text-anchor="start" x="475.8" y="-196.3" font-family="Courier,monospace" font-size="9.00"> </text>
<text text-anchor="start" x="499.79" y="-196.3" font-family="Courier,monospace" font-size="9.00">prolog:message/3</text>
<text text-anchor="start" x="601.8" y="-196.3" font-family="Courier,monospace" font-size="9.00"> </text>
</a>
</g>
</g>
<!-- prolog_dialect -->
<g id="node2" class="node">
<title>prolog_dialect</title>
<g id="a_node2"><a xlink:title="module">
<polygon fill="gainsboro" stroke="black" stroke-dasharray="5,2" points="146,-92 40,-92 40,-96 28,-96 28,-56 146,-56 146,-92"/>
<polyline fill="none" stroke="black" stroke-dasharray="5,2" points="28,-92 40,-92 "/>
<text text-anchor="start" x="35.8" y="-75.8" font-family="Courier,monospace" font-size="9.00"> </text>
<text text-anchor="start" x="40.79" y="-75.2" font-family="Courier,monospace" font-size="11.00">prolog_dialect</text>
<text text-anchor="start" x="132.8" y="-75.8" font-family="Courier,monospace" font-size="9.00"> </text>
<text text-anchor="start" x="35.8" y="-65.8" font-family="Courier,monospace" font-size="9.00"> </text>
<text text-anchor="start" x="74.4" y="-66.4" font-family="Courier,monospace" font-size="7.00">module</text>
<text text-anchor="start" x="132.8" y="-65.8" font-family="Courier,monospace" font-size="9.00"> </text>
</a>
</g>
</g>
<!-- conf_d&#45;&gt;prolog_dialect -->
<g id="edge2" class="edge">
<title>conf_d&#45;&gt;prolog_dialect</title>
<path fill="none" stroke="black" d="M464.98,-227.48C385.67,-206.97 258.03,-169.75 155,-120 142.83,-114.12 130.28,-106.37 119.32,-98.96"/>
<polygon fill="black" stroke="black" points="119.22,-98.89 112.01,-98.74 109.37,-92.03 119.22,-98.89"/>
<g id="a_edge2&#45;label"><a xlink:title="use_module">
<text text-anchor="middle" x="232" y="-138.8" font-family="Courier,monospace" font-size="9.00">use_module</text>
</a>
</g>
</g>
<!-- swi_option -->
<g id="node3" class="node">
<title>swi_option</title>
<g id="a_node3"><a xlink:title="module">
<polygon fill="gainsboro" stroke="black" stroke-dasharray="5,2" points="256,-92 176,-92 176,-96 164,-96 164,-56 256,-56 256,-92"/>
<polyline fill="none" stroke="black" stroke-dasharray="5,2" points="164,-92 176,-92 "/>
<text text-anchor="start" x="171.8" y="-75.8" font-family="Courier,monospace" font-size="9.00"> </text>
<text text-anchor="start" x="176.99" y="-75.2" font-family="Courier,monospace" font-size="11.00">swi_option</text>
<text text-anchor="start" x="242.8" y="-75.8" font-family="Courier,monospace" font-size="9.00"> </text>
<text text-anchor="start" x="171.8" y="-65.8" font-family="Courier,monospace" font-size="9.00"> </text>
<text text-anchor="start" x="197.4" y="-66.4" font-family="Courier,monospace" font-size="7.00">module</text>
<text text-anchor="start" x="242.8" y="-65.8" font-family="Courier,monospace" font-size="9.00"> </text>
</a>
</g>
</g>
<!-- conf_d&#45;&gt;swi_option -->
<g id="edge3" class="edge">
<title>conf_d&#45;&gt;swi_option</title>
<path fill="none" stroke="black" d="M464.77,-219.78C407.34,-198.14 327.83,-163.74 266,-120 257.14,-113.74 247.84,-106.53 239.42,-99.76"/>
<polygon fill="black" stroke="black" points="239.31,-99.66 232.13,-98.97 230.02,-92.07 239.31,-99.66"/>
<g id="a_edge3&#45;label"><a xlink:title="use_module">
<text text-anchor="middle" x="327" y="-138.8" font-family="Courier,monospace" font-size="9.00">use_module</text>
</a>
</g>
</g>
<!-- lists -->
<g id="node4" class="node">
<title>lists</title>
<g id="a_node4"><a xlink:title="module">
<polygon fill="gainsboro" stroke="black" stroke-dasharray="5,2" points="333.5,-92 286.5,-92 286.5,-96 274.5,-96 274.5,-56 333.5,-56 333.5,-92"/>
<polyline fill="none" stroke="black" stroke-dasharray="5,2" points="274.5,-92 286.5,-92 "/>
<text text-anchor="start" x="282.8" y="-75.8" font-family="Courier,monospace" font-size="9.00"> </text>
<text text-anchor="start" x="288" y="-75.2" font-family="Courier,monospace" font-size="11.00">lists</text>
<text text-anchor="start" x="320.8" y="-75.8" font-family="Courier,monospace" font-size="9.00"> </text>
<text text-anchor="start" x="282.8" y="-65.8" font-family="Courier,monospace" font-size="9.00"> </text>
<text text-anchor="start" x="291.9" y="-66.4" font-family="Courier,monospace" font-size="7.00">module</text>
<text text-anchor="start" x="320.8" y="-65.8" font-family="Courier,monospace" font-size="9.00"> </text>
</a>
</g>
</g>
<!-- conf_d&#45;&gt;lists -->
<g id="edge4" class="edge">
<title>conf_d&#45;&gt;lists</title>
<path fill="none" stroke="black" d="M464.67,-206.48C425.85,-184.24 379.18,-154.04 343,-120 337.07,-114.42 331.1,-108.02 325.67,-101.82"/>
<polygon fill="black" stroke="black" points="325.44,-101.56 318.51,-99.57 317.67,-92.41 325.44,-101.56"/>
<g id="a_edge4&#45;label"><a xlink:title="use_module">
<text text-anchor="middle" x="398" y="-138.8" font-family="Courier,monospace" font-size="9.00">use_module</text>
</a>
</g>
</g>
<!-- apply -->
<g id="node5" class="node">
<title>apply</title>
<g id="a_node5"><a xlink:title="module">
<polygon fill="gainsboro" stroke="black" stroke-dasharray="5,2" points="410.5,-92 363.5,-92 363.5,-96 351.5,-96 351.5,-56 410.5,-56 410.5,-92"/>
<polyline fill="none" stroke="black" stroke-dasharray="5,2" points="351.5,-92 363.5,-92 "/>
<text text-anchor="start" x="359.8" y="-75.8" font-family="Courier,monospace" font-size="9.00"> </text>
<text text-anchor="start" x="365" y="-75.2" font-family="Courier,monospace" font-size="11.00">apply</text>
<text text-anchor="start" x="397.8" y="-75.8" font-family="Courier,monospace" font-size="9.00"> </text>
<text text-anchor="start" x="359.8" y="-65.8" font-family="Courier,monospace" font-size="9.00"> </text>
<text text-anchor="start" x="368.9" y="-66.4" font-family="Courier,monospace" font-size="7.00">module</text>
<text text-anchor="start" x="397.8" y="-65.8" font-family="Courier,monospace" font-size="9.00"> </text>
</a>
</g>
</g>
<!-- conf_d&#45;&gt;apply -->
<g id="edge5" class="edge">
<title>conf_d&#45;&gt;apply</title>
<path fill="none" stroke="black" d="M486.54,-190.76C465.55,-168.97 441.41,-143.52 420,-120 414.61,-114.08 408.91,-107.62 403.59,-101.5"/>
<polygon fill="black" stroke="black" points="403.46,-101.35 396.51,-99.42 395.62,-92.27 403.46,-101.35"/>
<g id="a_edge5&#45;label"><a xlink:title="use_module">
<text text-anchor="middle" x="469" y="-138.8" font-family="Courier,monospace" font-size="9.00">use_module</text>
</a>
</g>
</g>
<!-- prolog_version -->
<g id="node6" class="node">
<title>prolog_version</title>
<g id="a_node6"><a xlink:title="module">
<polygon fill="gainsboro" stroke="black" stroke-dasharray="5,2" points="547,-92 441,-92 441,-96 429,-96 429,-56 547,-56 547,-92"/>
<polyline fill="none" stroke="black" stroke-dasharray="5,2" points="429,-92 441,-92 "/>
<text text-anchor="start" x="436.8" y="-75.8" font-family="Courier,monospace" font-size="9.00"> </text>
<text text-anchor="start" x="441.79" y="-75.2" font-family="Courier,monospace" font-size="11.00">prolog_version</text>
<text text-anchor="start" x="533.8" y="-75.8" font-family="Courier,monospace" font-size="9.00"> </text>
<text text-anchor="start" x="436.8" y="-65.8" font-family="Courier,monospace" font-size="9.00"> </text>
<text text-anchor="start" x="475.4" y="-66.4" font-family="Courier,monospace" font-size="7.00">module</text>
<text text-anchor="start" x="533.8" y="-65.8" font-family="Courier,monospace" font-size="9.00"> </text>
</a>
</g>
</g>
<!-- conf_d&#45;&gt;prolog_version -->
<g id="edge6" class="edge">
<title>conf_d&#45;&gt;prolog_version</title>
<path fill="none" stroke="black" d="M523.26,-190.61C514.45,-161.73 504.01,-127.5 496.79,-103.82"/>
<polygon fill="black" stroke="black" points="496.74,-103.64 491.16,-99.07 493.24,-92.17 496.74,-103.64"/>
<g id="a_edge6&#45;label"><a xlink:title="use_module">
<text text-anchor="middle" x="536" y="-138.8" font-family="Courier,monospace" font-size="9.00">use_module</text>
</a>
</g>
</g>
<!-- ordsets -->
<g id="node7" class="node">
<title>ordsets</title>
<g id="a_node7"><a xlink:title="module">
<polygon fill="gainsboro" stroke="black" stroke-dasharray="5,2" points="637,-92 577,-92 577,-96 565,-96 565,-56 637,-56 637,-92"/>
<polyline fill="none" stroke="black" stroke-dasharray="5,2" points="565,-92 577,-92 "/>
<text text-anchor="start" x="572.8" y="-75.8" font-family="Courier,monospace" font-size="9.00"> </text>
<text text-anchor="start" x="577.9" y="-75.2" font-family="Courier,monospace" font-size="11.00">ordsets</text>
<text text-anchor="start" x="623.8" y="-75.8" font-family="Courier,monospace" font-size="9.00"> </text>
<text text-anchor="start" x="572.8" y="-65.8" font-family="Courier,monospace" font-size="9.00"> </text>
<text text-anchor="start" x="588.4" y="-66.4" font-family="Courier,monospace" font-size="7.00">module</text>
<text text-anchor="start" x="623.8" y="-65.8" font-family="Courier,monospace" font-size="9.00"> </text>
</a>
</g>
</g>
<!-- conf_d&#45;&gt;ordsets -->
<g id="edge7" class="edge">
<title>conf_d&#45;&gt;ordsets</title>
<path fill="none" stroke="black" d="M559.64,-190.61C570.02,-161.6 582.33,-127.19 590.81,-103.49"/>
<polygon fill="black" stroke="black" points="590.82,-103.46 589.07,-96.47 594.86,-92.17 590.82,-103.46"/>
<g id="a_edge7&#45;label"><a xlink:title="use_module">
<text text-anchor="middle" x="604" y="-138.8" font-family="Courier,monospace" font-size="9.00">use_module</text>
</a>
</g>
</g>
<!-- prolog_xref -->
<g id="node8" class="node">
<title>prolog_xref</title>
<g id="a_node8"><a xlink:title="module">
<polygon fill="gainsboro" stroke="black" stroke-dasharray="5,2" points="753,-92 667,-92 667,-96 655,-96 655,-56 753,-56 753,-92"/>
<polyline fill="none" stroke="black" stroke-dasharray="5,2" points="655,-92 667,-92 "/>
<text text-anchor="start" x="662.8" y="-75.8" font-family="Courier,monospace" font-size="9.00"> </text>
<text text-anchor="start" x="667.69" y="-75.2" font-family="Courier,monospace" font-size="11.00">prolog_xref</text>
<text text-anchor="start" x="739.8" y="-75.8" font-family="Courier,monospace" font-size="9.00"> </text>
<text text-anchor="start" x="662.8" y="-65.8" font-family="Courier,monospace" font-size="9.00"> </text>
<text text-anchor="start" x="691.4" y="-66.4" font-family="Courier,monospace" font-size="7.00">module</text>
<text text-anchor="start" x="739.8" y="-65.8" font-family="Courier,monospace" font-size="9.00"> </text>
</a>
</g>
</g>
<!-- conf_d&#45;&gt;prolog_xref -->
<g id="edge8" class="edge">
<title>conf_d&#45;&gt;prolog_xref</title>
<path fill="none" stroke="black" d="M592.79,-190.61C621.73,-160.53 656.24,-124.65 679.06,-100.93"/>
<polygon fill="black" stroke="black" points="679.17,-100.81 680.45,-93.72 687.49,-92.17 679.17,-100.81"/>
<g id="a_edge8&#45;label"><a xlink:title="use_module">
<text text-anchor="middle" x="668" y="-138.8" font-family="Courier,monospace" font-size="9.00">use_module</text>
</a>
</g>
</g>
<!-- pldoc_process -->
<g id="node9" class="node">
<title>pldoc_process</title>
<g id="a_node9"><a xlink:title="module">
<polygon fill="gainsboro" stroke="black" stroke-dasharray="5,2" points="882.5,-92 783.5,-92 783.5,-96 771.5,-96 771.5,-56 882.5,-56 882.5,-92"/>
<polyline fill="none" stroke="black" stroke-dasharray="5,2" points="771.5,-92 783.5,-92 "/>
<text text-anchor="start" x="779.8" y="-75.8" font-family="Courier,monospace" font-size="9.00"> </text>
<text text-anchor="start" x="784.59" y="-75.2" font-family="Courier,monospace" font-size="11.00">pldoc_process</text>
<text text-anchor="start" x="869.8" y="-75.8" font-family="Courier,monospace" font-size="9.00"> </text>
<text text-anchor="start" x="779.8" y="-65.8" font-family="Courier,monospace" font-size="9.00"> </text>
<text text-anchor="start" x="814.9" y="-66.4" font-family="Courier,monospace" font-size="7.00">module</text>
<text text-anchor="start" x="869.8" y="-65.8" font-family="Courier,monospace" font-size="9.00"> </text>
</a>
</g>
</g>
<!-- conf_d&#45;&gt;pldoc_process -->
<g id="edge9" class="edge">
<title>conf_d&#45;&gt;pldoc_process</title>
<path fill="none" stroke="black" d="M615.24,-205.19C658.7,-181.36 714.08,-150.05 762,-120 772.36,-113.51 783.37,-106.08 793.34,-99.17"/>
<polygon fill="black" stroke="black" points="793.45,-99.09 796.06,-92.37 803.27,-92.2 793.45,-99.09"/>
<g id="a_edge9&#45;label"><a xlink:title="use_module">
<text text-anchor="middle" x="759" y="-138.8" font-family="Courier,monospace" font-size="9.00">use_module</text>
</a>
</g>
</g>
<!-- pairs -->
<g id="node10" class="node">
<title>pairs</title>
<g id="a_node10"><a xlink:title="module">
<polygon fill="gainsboro" stroke="black" stroke-dasharray="5,2" points="959.5,-92 912.5,-92 912.5,-96 900.5,-96 900.5,-56 959.5,-56 959.5,-92"/>
<polyline fill="none" stroke="black" stroke-dasharray="5,2" points="900.5,-92 912.5,-92 "/>
<text text-anchor="start" x="908.8" y="-75.8" font-family="Courier,monospace" font-size="9.00"> </text>
<text text-anchor="start" x="914" y="-75.2" font-family="Courier,monospace" font-size="11.00">pairs</text>
<text text-anchor="start" x="946.8" y="-75.8" font-family="Courier,monospace" font-size="9.00"> </text>
<text text-anchor="start" x="908.8" y="-65.8" font-family="Courier,monospace" font-size="9.00"> </text>
<text text-anchor="start" x="917.9" y="-66.4" font-family="Courier,monospace" font-size="7.00">module</text>
<text text-anchor="start" x="946.8" y="-65.8" font-family="Courier,monospace" font-size="9.00"> </text>
</a>
</g>
</g>
<!-- conf_d&#45;&gt;pairs -->
<g id="edge10" class="edge">
<title>conf_d&#45;&gt;pairs</title>
<path fill="none" stroke="black" d="M615.03,-230.82C690.15,-213.48 806.55,-179.22 892,-120 899.11,-115.07 905.68,-108.48 911.28,-101.87"/>
<polygon fill="black" stroke="black" points="911.34,-101.79 911.9,-94.6 918.75,-92.35 911.34,-101.79"/>
<g id="a_edge10&#45;label"><a xlink:title="use_module">
<text text-anchor="middle" x="884" y="-138.8" font-family="Courier,monospace" font-size="9.00">use_module</text>
</a>
</g>
</g>
<!-- prolog -->
<g id="node11" class="node">
<title>prolog</title>
<ellipse fill="white" stroke="black" cx="1007" cy="-74" rx="27.41" ry="18"/>
<text text-anchor="middle" x="1007" y="-71.3" font-family="Courier,monospace" font-size="9.00">prolog</text>
</g>
<!-- conf_d&#45;&gt;prolog -->
<g id="edge1" class="edge">
<title>conf_d&#45;&gt;prolog</title>
<path fill="none" stroke="black" d="M615.03,-229.22C691.48,-211.8 812.98,-181.77 915,-146 942.04,-136.52 951.66,-137.94 974,-120 980.9,-114.46 987.09,-107.13 992.18,-100.01"/>
<polygon fill="black" stroke="black" points="1000.94,-93.18 992.48,-99.56 995.11,-89.3 1000.94,-93.18"/>
<g id="a_edge1&#45;label"><a xlink:title="provides">
<text text-anchor="middle" x="964.6" y="-138.8" font-family="Courier,monospace" font-size="9.00">provides</text>
</a>
</g>
</g>
</g>
</svg>
