<?xml version="1.0" encoding="UTF-8" standalone="no"?>
<!DOCTYPE svg PUBLIC "-//W3C//DTD SVG 1.1//EN"
 "http://www.w3.org/Graphics/SVG/1.1/DTD/svg11.dtd">
<!-- Generated by graphviz version 2.41.20190410.0829 (20190410.0829)
 -->
<!-- Title: cp_jquery.pl Pages: 1 -->
<svg width="408pt" height="418pt"
 viewBox="72.00 72.00 336.04 346.00" xmlns="http://www.w3.org/2000/svg" xmlns:xlink="http://www.w3.org/1999/xlink">
<g id="graph0" class="graph" transform="scale(1 1) rotate(0) translate(76 342)">
<title>cp_jquery.pl</title>
<polygon fill="white" stroke="transparent" points="-4,4 -4,-270 260.04,-270 260.04,4 -4,4"/>
<text text-anchor="start" x="8" y="-16" font-family="Courier,monospace" font-size="10.00" fill="#8b8989">ClioPatria &#45; an RDF application platform</text>
<text text-anchor="start" x="8" y="-6" font-family="Courier,monospace" font-size="10.00" fill="#8b8989">Generated on 2019/04/17, 13:04</text>
<g id="clust1" class="cluster">
<title>cluster_file_/Users/pmoura/ClioPatria/lib/http/cp_jquery.pl</title>
<g id="a_clust1"><a xlink:href="https://github.com/ClioPatria/ClioPatria/tree/add57aa2039eed4033cf96e96c293b2052e88f41/lib/http/cp_jquery.pl" xlink:title="https://github.com/ClioPatria/ClioPatria/tree/add57aa2039eed4033cf96e96c293b2052e88f41/lib/http/cp_jquery.pl">
<path fill="snow" stroke="#8b8989" d="M65.02,-36C65.02,-36 191.02,-36 191.02,-36 197.02,-36 203.02,-42 203.02,-48 203.02,-48 203.02,-246 203.02,-246 203.02,-252 197.02,-258 191.02,-258 191.02,-258 65.02,-258 65.02,-258 59.02,-258 53.02,-252 53.02,-246 53.02,-246 53.02,-48 53.02,-48 53.02,-42 59.02,-36 65.02,-36"/>
<text text-anchor="middle" x="97.03" y="-246" font-family="Courier,monospace" font-size="10.00" fill="#8b8989">cp_jquery.pl</text>
</a>
</g>
</g>
<g id="clust2" class="cluster">
<title>cluster_other</title>
<g id="a_clust2"><a xlink:title="(external entities)">
<path fill="white" stroke="#8b8989" d="M75.02,-46C75.02,-46 181.02,-46 181.02,-46 187.02,-46 193.02,-52 193.02,-58 193.02,-58 193.02,-108 193.02,-108 193.02,-114 187.02,-120 181.02,-120 181.02,-120 75.02,-120 75.02,-120 69.02,-120 63.02,-114 63.02,-108 63.02,-108 63.02,-58 63.02,-58 63.02,-52 69.02,-46 75.02,-46"/>
<text text-anchor="middle" x="128.03" y="-108" font-family="Courier,monospace" font-size="10.00" fill="#8b8989">(external entities)</text>
</a>
</g>
</g>
<!-- cp_jquery -->
<g id="node1" class="node">
<title>cp_jquery</title>
<g id="a_node1"><a xlink:title="module">
<polygon fill="gainsboro" stroke="black" points="170.52,-230 91.52,-230 91.52,-234 79.52,-234 79.52,-191 170.52,-191 170.52,-230"/>
<polyline fill="none" stroke="black" points="79.52,-230 91.52,-230 "/>
<g id="a_node1_0"><a xlink:href="cp_jquery_module_xref_diagram.svg" xlink:title="Zoom">
<image xlink:href="zoom.png" width="11px" height="11px" preserveAspectRatio="xMinYMin meet" x="88.0195" y="-225.5"/>
</a>
</g>
<text text-anchor="start" x="90.82" y="-206.3" font-family="Courier,monospace" font-size="9.00"> </text>
<text text-anchor="start" x="98.81" y="-205.7" font-family="Courier,monospace" font-size="11.00">cp_jquery</text>
<text text-anchor="start" x="157.82" y="-206.3" font-family="Courier,monospace" font-size="9.00"> </text>
<text text-anchor="start" x="90.82" y="-196.3" font-family="Courier,monospace" font-size="9.00"> </text>
<text text-anchor="start" x="115.92" y="-196.9" font-family="Courier,monospace" font-size="7.00">module</text>
<text text-anchor="start" x="157.82" y="-196.3" font-family="Courier,monospace" font-size="9.00"> </text>
</a>
</g>
</g>
<!-- settings -->
<g id="node2" class="node">
<title>settings</title>
<g id="a_node2"><a xlink:title="module">
<polygon fill="gainsboro" stroke="black" stroke-dasharray="5,2" points="164.02,-92 98.02,-92 98.02,-96 86.02,-96 86.02,-56 164.02,-56 164.02,-92"/>
<polyline fill="none" stroke="black" stroke-dasharray="5,2" points="86.02,-92 98.02,-92 "/>
<text text-anchor="start" x="93.82" y="-75.8" font-family="Courier,monospace" font-size="9.00"> </text>
<text text-anchor="start" x="98.62" y="-75.2" font-family="Courier,monospace" font-size="11.00">settings</text>
<text text-anchor="start" x="150.82" y="-75.8" font-family="Courier,monospace" font-size="9.00"> </text>
<text text-anchor="start" x="93.82" y="-65.8" font-family="Courier,monospace" font-size="9.00"> </text>
<text text-anchor="start" x="112.42" y="-66.4" font-family="Courier,monospace" font-size="7.00">module</text>
<text text-anchor="start" x="150.82" y="-65.8" font-family="Courier,monospace" font-size="9.00"> </text>
</a>
</g>
</g>
<!-- cp_jquery&#45;&gt;settings -->
<g id="edge1" class="edge">
<title>cp_jquery&#45;&gt;settings</title>
<path fill="none" stroke="black" d="M125.02,-190.8C125.02,-168.45 125.02,-130.77 125.02,-104.48"/>
<polygon fill="black" stroke="black" points="125.02,-104.27 121.02,-98.27 125.02,-92.27 125.02,-104.27"/>
<g id="a_edge1&#45;label"><a xlink:title="use_module">
<text text-anchor="middle" x="152.02" y="-138.8" font-family="Courier,monospace" font-size="9.00">use_module</text>
</a>
</g>
</g>
</g>
</svg>
