<?xml version="1.0" encoding="UTF-8" standalone="no"?>
<!DOCTYPE svg PUBLIC "-//W3C//DTD SVG 1.1//EN"
 "http://www.w3.org/Graphics/SVG/1.1/DTD/svg11.dtd">
<!-- Generated by graphviz version 2.41.20190410.0829 (20190410.0829)
 -->
<!-- Title: cp_jquery_module Pages: 1 -->
<svg width="444pt" height="405pt"
 viewBox="72.00 72.00 372.04 333.00" xmlns="http://www.w3.org/2000/svg" xmlns:xlink="http://www.w3.org/1999/xlink">
<g id="graph0" class="graph" transform="scale(1 1) rotate(0) translate(76 329)">
<title>cp_jquery_module</title>
<polygon fill="white" stroke="transparent" points="-4,4 -4,-257 296.04,-257 296.04,4 -4,4"/>
<text text-anchor="start" x="8" y="-26" font-family="Courier,monospace" font-size="10.00" fill="dimgray">ClioPatria &#45; an RDF application platform</text>
<text text-anchor="start" x="8" y="-16" font-family="Courier,monospace" font-size="10.00" fill="dimgray">Cross&#45;referencing diagram for module cp_jquery</text>
<text text-anchor="start" x="8" y="-6" font-family="Courier,monospace" font-size="10.00" fill="dimgray">Generated on 2019/04/30, 22:01</text>
<g id="clust1" class="cluster">
<title>cluster_cp_jquery_module</title>
<g id="a_clust1"><a xlink:title="cp_jquery">
<path fill="snow" stroke="dimgray" d="M62.02,-46C62.02,-46 230.02,-46 230.02,-46 236.02,-46 242.02,-52 242.02,-58 242.02,-58 242.02,-233 242.02,-233 242.02,-239 236.02,-245 230.02,-245 230.02,-245 62.02,-245 62.02,-245 56.02,-245 50.02,-239 50.02,-233 50.02,-233 50.02,-58 50.02,-58 50.02,-52 56.02,-46 62.02,-46"/>
<g id="a_clust1_0"><a xlink:href="https://github.com/ClioPatria/ClioPatria/tree/add57aa2039eed4033cf96e96c293b2052e88f41/lib/http/cp_jquery.pl" xlink:title="https://github.com/ClioPatria/ClioPatria/tree/add57aa2039eed4033cf96e96c293b2052e88f41/lib/http/cp_jquery.pl">
<text text-anchor="start" x="62.02" y="-229" font-family="Courier,monospace" font-size="10.00" fill="dimgray">cp_jquery</text>
</a>
</g>
</a>
</g>
</g>
<!-- (:&#45;)/1 -->
<g id="node1" class="node">
<title>(:&#45;)/1</title>
<g id="a_node1"><a xlink:href="https://github.com/ClioPatria/ClioPatria/tree/add57aa2039eed4033cf96e96c293b2052e88f41/lib/http/cp_jquery.pl" xlink:title="https://github.com/ClioPatria/ClioPatria/tree/add57aa2039eed4033cf96e96c293b2052e88f41/lib/http/cp_jquery.pl">
<polygon fill="bisque" stroke="black" points="178.52,-209 113.52,-209 113.52,-173 178.52,-173 178.52,-209"/>
<text text-anchor="start" x="121.82" y="-192.8" font-family="Courier,monospace" font-size="9.00"> </text>
<text text-anchor="start" x="126.72" y="-192.2" font-family="Courier,monospace" font-size="11.00">(:&#45;)/1</text>
<text text-anchor="start" x="165.82" y="-192.8" font-family="Courier,monospace" font-size="9.00"> </text>
<text text-anchor="start" x="121.82" y="-182.8" font-family="Courier,monospace" font-size="9.00"> </text>
<text text-anchor="start" x="127.62" y="-183.4" font-family="Courier,monospace" font-size="7.00">directive</text>
<text text-anchor="start" x="165.82" y="-182.8" font-family="Courier,monospace" font-size="9.00"> </text>
</a>
</g>
</g>
<!-- settings:set_setting/2 -->
<g id="node2" class="node">
<title>settings:set_setting/2</title>
<g id="a_node2"><a xlink:href="https://github.com/SWI-Prolog/swipl-devel/tree/master/library/settings.pl#L377" xlink:title="https://github.com/SWI&#45;Prolog/swipl&#45;devel/tree/master/library/settings.pl#L377">
<polygon fill="beige" stroke="black" stroke-dasharray="5,2" points="231.52,-92 60.52,-92 60.52,-56 231.52,-56 231.52,-92"/>
<text text-anchor="start" x="68.82" y="-75.8" font-family="Courier,monospace" font-size="9.00"> </text>
<text text-anchor="start" x="73.91" y="-75.2" font-family="Courier,monospace" font-size="11.00">settings:set_setting/2</text>
<text text-anchor="start" x="218.82" y="-75.8" font-family="Courier,monospace" font-size="9.00"> </text>
<text text-anchor="start" x="68.82" y="-65.8" font-family="Courier,monospace" font-size="9.00"> </text>
<text text-anchor="start" x="129.72" y="-66.4" font-family="Courier,monospace" font-size="7.00">external</text>
<text text-anchor="start" x="218.82" y="-65.8" font-family="Courier,monospace" font-size="9.00"> </text>
</a>
</g>
</g>
<!-- (:&#45;)/1&#45;&gt;settings:set_setting/2 -->
<g id="edge1" class="edge">
<title>(:&#45;)/1&#45;&gt;settings:set_setting/2</title>
<g id="a_edge1"><a xlink:href="https://github.com/ClioPatria/ClioPatria/tree/add57aa2039eed4033cf96e96c293b2052e88f41/lib/http/cp_jquery.pl" xlink:title="calls">
<path fill="none" stroke="black" d="M146.02,-172.53C146.02,-153.94 146.02,-124.24 146.02,-102.5"/>
<polygon fill="black" stroke="black" points="149.52,-102.25 146.02,-92.25 142.52,-102.25 149.52,-102.25"/>
</a>
</g>
<g id="a_edge1&#45;label"><a xlink:href="https://github.com/ClioPatria/ClioPatria/tree/add57aa2039eed4033cf96e96c293b2052e88f41/lib/http/cp_jquery.pl" xlink:title="https://github.com/ClioPatria/ClioPatria/tree/add57aa2039eed4033cf96e96c293b2052e88f41/lib/http/cp_jquery.pl">
<text text-anchor="start" x="146.02" y="-129.8" font-family="Courier,monospace" font-size="9.00">calls</text>
</a>
</g>
</g>
</g>
</svg>
