<?xml version="1.0" encoding="UTF-8" standalone="no"?>
<!DOCTYPE svg PUBLIC "-//W3C//DTD SVG 1.1//EN"
 "http://www.w3.org/Graphics/SVG/1.1/DTD/svg11.dtd">
<!-- Generated by graphviz version 2.41.20190410.0829 (20190410.0829)
 -->
<!-- Title: cpack.pl Pages: 1 -->
<svg width="1893pt" height="562pt"
 viewBox="72.00 72.00 1821.00 490.00" xmlns="http://www.w3.org/2000/svg" xmlns:xlink="http://www.w3.org/1999/xlink">
<g id="graph0" class="graph" transform="scale(1 1) rotate(0) translate(76 486)">
<title>cpack.pl</title>
<polygon fill="white" stroke="transparent" points="-4,4 -4,-414 1745,-414 1745,4 -4,4"/>
<text text-anchor="start" x="8" y="-16" font-family="Courier,monospace" font-size="10.00" fill="#8b8989">ClioPatria &#45; an RDF application platform</text>
<text text-anchor="start" x="8" y="-6" font-family="Courier,monospace" font-size="10.00" fill="#8b8989">Generated on 2019/04/17, 13:04</text>
<g id="clust1" class="cluster">
<title>cluster_file_/Users/pmoura/ClioPatria/lib/cpack/cpack.pl</title>
<g id="a_clust1"><a xlink:href="https://github.com/ClioPatria/ClioPatria/tree/add57aa2039eed4033cf96e96c293b2052e88f41/lib/cpack/cpack.pl" xlink:title="https://github.com/ClioPatria/ClioPatria/tree/add57aa2039eed4033cf96e96c293b2052e88f41/lib/cpack/cpack.pl">
<path fill="snow" stroke="#8b8989" d="M20,-36C20,-36 1721,-36 1721,-36 1727,-36 1733,-42 1733,-48 1733,-48 1733,-390 1733,-390 1733,-396 1727,-402 1721,-402 1721,-402 20,-402 20,-402 14,-402 8,-396 8,-390 8,-390 8,-48 8,-48 8,-42 14,-36 20,-36"/>
<text text-anchor="middle" x="40" y="-390" font-family="Courier,monospace" font-size="10.00" fill="#8b8989">cpack.pl</text>
</a>
</g>
</g>
<g id="clust2" class="cluster">
<title>cluster_other</title>
<g id="a_clust2"><a xlink:title="(external entities)">
<path fill="white" stroke="#8b8989" d="M30,-46C30,-46 1575,-46 1575,-46 1581,-46 1587,-52 1587,-58 1587,-58 1587,-108 1587,-108 1587,-114 1581,-120 1575,-120 1575,-120 30,-120 30,-120 24,-120 18,-114 18,-108 18,-108 18,-58 18,-58 18,-52 24,-46 30,-46"/>
<text text-anchor="middle" x="83.01" y="-108" font-family="Courier,monospace" font-size="10.00" fill="#8b8989">(external entities)</text>
</a>
</g>
</g>
<!-- cpack -->
<g id="node1" class="node">
<title>cpack</title>
<g id="a_node1"><a xlink:title="module">
<polygon fill="gainsboro" stroke="black" points="990,-374 798,-374 798,-378 786,-378 786,-191 990,-191 990,-374"/>
<polyline fill="none" stroke="black" points="786,-374 798,-374 "/>
<g id="a_node1_0"><a xlink:href="cpack_module_xref_diagram.svg" xlink:title="Zoom">
<image xlink:href="zoom.png" width="11px" height="11px" preserveAspectRatio="xMinYMin meet" x="794" y="-369.5"/>
</a>
</g>
<text text-anchor="start" x="796.8" y="-350.3" font-family="Courier,monospace" font-size="9.00"> </text>
<text text-anchor="start" x="874.5" y="-349.7" font-family="Courier,monospace" font-size="11.00">cpack</text>
<text text-anchor="start" x="976.8" y="-350.3" font-family="Courier,monospace" font-size="9.00"> </text>
<text text-anchor="start" x="796.8" y="-340.3" font-family="Courier,monospace" font-size="9.00"> </text>
<text text-anchor="start" x="878.4" y="-340.9" font-family="Courier,monospace" font-size="7.00">module</text>
<text text-anchor="start" x="976.8" y="-340.3" font-family="Courier,monospace" font-size="9.00"> </text>
<text text-anchor="start" x="796.8" y="-331.3" font-family="Courier,monospace" font-size="9.00"> </text>
<text text-anchor="start" x="796.8" y="-322.3" font-family="Courier,monospace" font-size="9.00"> </text>
<text text-anchor="start" x="847.79" y="-322.3" font-family="Courier,monospace" font-size="9.00">cpack_property/2</text>
<text text-anchor="start" x="976.8" y="-322.3" font-family="Courier,monospace" font-size="9.00"> </text>
<text text-anchor="start" x="796.8" y="-313.3" font-family="Courier,monospace" font-size="9.00"> </text>
<text text-anchor="start" x="845.09" y="-313.3" font-family="Courier,monospace" font-size="9.00">cpack_configure/1</text>
<text text-anchor="start" x="976.8" y="-313.3" font-family="Courier,monospace" font-size="9.00"> </text>
<text text-anchor="start" x="796.8" y="-304.3" font-family="Courier,monospace" font-size="9.00"> </text>
<text text-anchor="start" x="847.79" y="-304.3" font-family="Courier,monospace" font-size="9.00">cpack_register/3</text>
<text text-anchor="start" x="976.8" y="-304.3" font-family="Courier,monospace" font-size="9.00"> </text>
<text text-anchor="start" x="796.8" y="-295.3" font-family="Courier,monospace" font-size="9.00"> </text>
<text text-anchor="start" x="850.49" y="-295.3" font-family="Courier,monospace" font-size="9.00">cpack_add_dir/2</text>
<text text-anchor="start" x="976.8" y="-295.3" font-family="Courier,monospace" font-size="9.00"> </text>
<text text-anchor="start" x="796.8" y="-286.3" font-family="Courier,monospace" font-size="9.00"> </text>
<text text-anchor="start" x="850.49" y="-286.3" font-family="Courier,monospace" font-size="9.00">current_cpack/1</text>
<text text-anchor="start" x="976.8" y="-286.3" font-family="Courier,monospace" font-size="9.00"> </text>
<text text-anchor="start" x="796.8" y="-277.3" font-family="Courier,monospace" font-size="9.00"> </text>
<text text-anchor="start" x="850.49" y="-277.3" font-family="Courier,monospace" font-size="9.00">cpack_upgrade/1</text>
<text text-anchor="start" x="976.8" y="-277.3" font-family="Courier,monospace" font-size="9.00"> </text>
<text text-anchor="start" x="796.8" y="-268.3" font-family="Courier,monospace" font-size="9.00"> </text>
<text text-anchor="start" x="853.19" y="-268.3" font-family="Courier,monospace" font-size="9.00">cpack_remove/1</text>
<text text-anchor="start" x="976.8" y="-268.3" font-family="Courier,monospace" font-size="9.00"> </text>
<text text-anchor="start" x="796.8" y="-259.3" font-family="Courier,monospace" font-size="9.00"> </text>
<text text-anchor="start" x="853.19" y="-259.3" font-family="Courier,monospace" font-size="9.00">cpack_remove/2</text>
<text text-anchor="start" x="976.8" y="-259.3" font-family="Courier,monospace" font-size="9.00"> </text>
<text text-anchor="start" x="796.8" y="-250.3" font-family="Courier,monospace" font-size="9.00"> </text>
<text text-anchor="start" x="853.19" y="-250.3" font-family="Courier,monospace" font-size="9.00">cpack_create/3</text>
<text text-anchor="start" x="976.8" y="-250.3" font-family="Courier,monospace" font-size="9.00"> </text>
<text text-anchor="start" x="796.8" y="-241.3" font-family="Courier,monospace" font-size="9.00"> </text>
<text text-anchor="start" x="850.49" y="-241.3" font-family="Courier,monospace" font-size="9.00">cpack_install/1</text>
<text text-anchor="start" x="976.8" y="-241.3" font-family="Courier,monospace" font-size="9.00"> </text>
<text text-anchor="start" x="796.8" y="-232.3" font-family="Courier,monospace" font-size="9.00"> </text>
<text text-anchor="start" x="850.49" y="-232.3" font-family="Courier,monospace" font-size="9.00">cpack_upgrade/0</text>
<text text-anchor="start" x="976.8" y="-232.3" font-family="Courier,monospace" font-size="9.00"> </text>
<text text-anchor="start" x="796.8" y="-223.3" font-family="Courier,monospace" font-size="9.00"> </text>
<text text-anchor="start" x="834.29" y="-223.3" font-family="Courier,monospace" font-size="9.00">user:term_expansion/2</text>
<text text-anchor="start" x="976.8" y="-223.3" font-family="Courier,monospace" font-size="9.00"> </text>
<text text-anchor="start" x="796.8" y="-214.3" font-family="Courier,monospace" font-size="9.00"> </text>
<text text-anchor="start" x="804.59" y="-214.3" font-family="Courier,monospace" font-size="9.00">prolog_version:git_module_hook/3</text>
<text text-anchor="start" x="976.8" y="-214.3" font-family="Courier,monospace" font-size="9.00"> </text>
<text text-anchor="start" x="796.8" y="-205.3" font-family="Courier,monospace" font-size="9.00"> </text>
<text text-anchor="start" x="847.79" y="-205.3" font-family="Courier,monospace" font-size="9.00">prolog:message/3</text>
<text text-anchor="start" x="976.8" y="-205.3" font-family="Courier,monospace" font-size="9.00"> </text>
<text text-anchor="start" x="796.8" y="-196.3" font-family="Courier,monospace" font-size="9.00"> </text>
<text text-anchor="start" x="831.59" y="-196.3" font-family="Courier,monospace" font-size="9.00">prolog:error_message/3</text>
<text text-anchor="start" x="976.8" y="-196.3" font-family="Courier,monospace" font-size="9.00"> </text>
</a>
</g>
</g>
<!-- prolog_version -->
<g id="node2" class="node">
<title>prolog_version</title>
<g id="a_node2"><a xlink:title="module">
<polygon fill="gainsboro" stroke="black" stroke-dasharray="5,2" points="146,-92 40,-92 40,-96 28,-96 28,-56 146,-56 146,-92"/>
<polyline fill="none" stroke="black" stroke-dasharray="5,2" points="28,-92 40,-92 "/>
<text text-anchor="start" x="35.8" y="-75.8" font-family="Courier,monospace" font-size="9.00"> </text>
<text text-anchor="start" x="40.79" y="-75.2" font-family="Courier,monospace" font-size="11.00">prolog_version</text>
<text text-anchor="start" x="132.8" y="-75.8" font-family="Courier,monospace" font-size="9.00"> </text>
<text text-anchor="start" x="35.8" y="-65.8" font-family="Courier,monospace" font-size="9.00"> </text>
<text text-anchor="start" x="74.4" y="-66.4" font-family="Courier,monospace" font-size="7.00">module</text>
<text text-anchor="start" x="132.8" y="-65.8" font-family="Courier,monospace" font-size="9.00"> </text>
</a>
</g>
</g>
<!-- cpack&#45;&gt;prolog_version -->
<g id="edge2" class="edge">
<title>cpack&#45;&gt;prolog_version</title>
<path fill="none" stroke="black" d="M785.81,-264.76C655.56,-242.45 423.96,-199.48 229.79,-146 195.86,-136.65 186.54,-135.61 155,-120 142.36,-113.75 129.26,-105.54 117.98,-97.86"/>
<polygon fill="black" stroke="black" points="111.74,-89.25 117.94,-97.84 107.74,-95 111.74,-89.25"/>
<g id="a_edge2&#45;label"><a xlink:title="provides">
<text text-anchor="middle" x="250.6" y="-138.8" font-family="Courier,monospace" font-size="9.00">provides</text>
</a>
</g>
</g>
<!-- settings -->
<g id="node3" class="node">
<title>settings</title>
<g id="a_node3"><a xlink:title="module">
<polygon fill="gainsboro" stroke="black" stroke-dasharray="5,2" points="242,-92 176,-92 176,-96 164,-96 164,-56 242,-56 242,-92"/>
<polyline fill="none" stroke="black" stroke-dasharray="5,2" points="164,-92 176,-92 "/>
<text text-anchor="start" x="171.8" y="-75.8" font-family="Courier,monospace" font-size="9.00"> </text>
<text text-anchor="start" x="176.6" y="-75.2" font-family="Courier,monospace" font-size="11.00">settings</text>
<text text-anchor="start" x="228.8" y="-75.8" font-family="Courier,monospace" font-size="9.00"> </text>
<text text-anchor="start" x="171.8" y="-65.8" font-family="Courier,monospace" font-size="9.00"> </text>
<text text-anchor="start" x="190.4" y="-66.4" font-family="Courier,monospace" font-size="7.00">module</text>
<text text-anchor="start" x="228.8" y="-65.8" font-family="Courier,monospace" font-size="9.00"> </text>
</a>
</g>
</g>
<!-- cpack&#45;&gt;settings -->
<g id="edge4" class="edge">
<title>cpack&#45;&gt;settings</title>
<path fill="none" stroke="black" d="M785.92,-267.58C665.88,-249.08 462.06,-210.92 296.99,-146 275.5,-137.55 270.61,-133.67 252,-120 244.19,-114.27 236.24,-107.46 229.08,-100.9"/>
<polygon fill="black" stroke="black" points="228.61,-100.46 221.51,-99.25 219.89,-92.23 228.61,-100.46"/>
<g id="a_edge4&#45;label"><a xlink:title="use_module">
<text text-anchor="middle" x="323" y="-138.8" font-family="Courier,monospace" font-size="9.00">use_module</text>
</a>
</g>
</g>
<!-- rdf_db -->
<g id="node4" class="node">
<title>rdf_db</title>
<g id="a_node4"><a xlink:title="module">
<polygon fill="gainsboro" stroke="black" stroke-dasharray="5,2" points="325.5,-92 272.5,-92 272.5,-96 260.5,-96 260.5,-56 325.5,-56 325.5,-92"/>
<polyline fill="none" stroke="black" stroke-dasharray="5,2" points="260.5,-92 272.5,-92 "/>
<text text-anchor="start" x="268.8" y="-75.8" font-family="Courier,monospace" font-size="9.00"> </text>
<text text-anchor="start" x="273.7" y="-75.2" font-family="Courier,monospace" font-size="11.00">rdf_db</text>
<text text-anchor="start" x="312.8" y="-75.8" font-family="Courier,monospace" font-size="9.00"> </text>
<text text-anchor="start" x="268.8" y="-65.8" font-family="Courier,monospace" font-size="9.00"> </text>
<text text-anchor="start" x="280.9" y="-66.4" font-family="Courier,monospace" font-size="7.00">module</text>
<text text-anchor="start" x="312.8" y="-65.8" font-family="Courier,monospace" font-size="9.00"> </text>
</a>
</g>
</g>
<!-- cpack&#45;&gt;rdf_db -->
<g id="edge5" class="edge">
<title>cpack&#45;&gt;rdf_db</title>
<path fill="none" stroke="black" d="M785.67,-266.63C678.19,-248.34 506.18,-211.36 369.99,-146 348.27,-135.58 328.41,-116.92 314.3,-101.35"/>
<polygon fill="black" stroke="black" points="314.17,-101.21 307.22,-99.31 306.3,-92.15 314.17,-101.21"/>
<g id="a_edge5&#45;label"><a xlink:title="use_module">
<text text-anchor="middle" x="396" y="-138.8" font-family="Courier,monospace" font-size="9.00">use_module</text>
</a>
</g>
</g>
<!-- uri -->
<g id="node5" class="node">
<title>uri</title>
<g id="a_node5"><a xlink:title="module">
<polygon fill="gainsboro" stroke="black" stroke-dasharray="5,2" points="398,-92 356,-92 356,-96 344,-96 344,-56 398,-56 398,-92"/>
<polyline fill="none" stroke="black" stroke-dasharray="5,2" points="344,-92 356,-92 "/>
<text text-anchor="start" x="353.8" y="-75.8" font-family="Courier,monospace" font-size="9.00"> </text>
<text text-anchor="start" x="361.6" y="-75.2" font-family="Courier,monospace" font-size="11.00">uri</text>
<text text-anchor="start" x="383.8" y="-75.8" font-family="Courier,monospace" font-size="9.00"> </text>
<text text-anchor="start" x="353.8" y="-65.8" font-family="Courier,monospace" font-size="9.00"> </text>
<text text-anchor="start" x="358.9" y="-66.4" font-family="Courier,monospace" font-size="7.00">module</text>
<text text-anchor="start" x="383.8" y="-65.8" font-family="Courier,monospace" font-size="9.00"> </text>
</a>
</g>
</g>
<!-- cpack&#45;&gt;uri -->
<g id="edge6" class="edge">
<title>cpack&#45;&gt;uri</title>
<path fill="none" stroke="black" d="M785.7,-259.12C694.05,-236.99 557.31,-198.79 445.99,-146 427.17,-137.08 422.35,-134.08 407,-120 401.1,-114.59 395.36,-108.16 390.27,-101.88"/>
<polygon fill="black" stroke="black" points="390.21,-101.79 383.37,-99.49 382.87,-92.3 390.21,-101.79"/>
<g id="a_edge6&#45;label"><a xlink:title="use_module">
<text text-anchor="middle" x="472" y="-138.8" font-family="Courier,monospace" font-size="9.00">use_module</text>
</a>
</g>
</g>
<!-- rdfs -->
<g id="node6" class="node">
<title>rdfs</title>
<g id="a_node6"><a xlink:title="module">
<polygon fill="gainsboro" stroke="black" stroke-dasharray="5,2" points="470,-92 428,-92 428,-96 416,-96 416,-56 470,-56 470,-92"/>
<polyline fill="none" stroke="black" stroke-dasharray="5,2" points="416,-92 428,-92 "/>
<text text-anchor="start" x="424.8" y="-75.8" font-family="Courier,monospace" font-size="9.00"> </text>
<text text-anchor="start" x="429.8" y="-75.2" font-family="Courier,monospace" font-size="11.00">rdfs</text>
<text text-anchor="start" x="455.8" y="-75.8" font-family="Courier,monospace" font-size="9.00"> </text>
<text text-anchor="start" x="424.8" y="-65.8" font-family="Courier,monospace" font-size="9.00"> </text>
<text text-anchor="start" x="430.4" y="-66.4" font-family="Courier,monospace" font-size="7.00">module</text>
<text text-anchor="start" x="455.8" y="-65.8" font-family="Courier,monospace" font-size="9.00"> </text>
</a>
</g>
</g>
<!-- cpack&#45;&gt;rdfs -->
<g id="edge7" class="edge">
<title>cpack&#45;&gt;rdfs</title>
<path fill="none" stroke="black" d="M785.96,-249.38C711.56,-224.59 609.13,-187.58 522.99,-146 502.88,-136.29 496.89,-134.61 480,-120 473.78,-114.61 467.77,-108.11 462.47,-101.73"/>
<polygon fill="black" stroke="black" points="462.23,-101.43 455.38,-99.2 454.8,-92.01 462.23,-101.43"/>
<g id="a_edge7&#45;label"><a xlink:title="use_module">
<text text-anchor="middle" x="549" y="-138.8" font-family="Courier,monospace" font-size="9.00">use_module</text>
</a>
</g>
</g>
<!-- apply -->
<g id="node7" class="node">
<title>apply</title>
<g id="a_node7"><a xlink:title="module">
<polygon fill="gainsboro" stroke="black" stroke-dasharray="5,2" points="547.5,-92 500.5,-92 500.5,-96 488.5,-96 488.5,-56 547.5,-56 547.5,-92"/>
<polyline fill="none" stroke="black" stroke-dasharray="5,2" points="488.5,-92 500.5,-92 "/>
<text text-anchor="start" x="496.8" y="-75.8" font-family="Courier,monospace" font-size="9.00"> </text>
<text text-anchor="start" x="502" y="-75.2" font-family="Courier,monospace" font-size="11.00">apply</text>
<text text-anchor="start" x="534.8" y="-75.8" font-family="Courier,monospace" font-size="9.00"> </text>
<text text-anchor="start" x="496.8" y="-65.8" font-family="Courier,monospace" font-size="9.00"> </text>
<text text-anchor="start" x="505.9" y="-66.4" font-family="Courier,monospace" font-size="7.00">module</text>
<text text-anchor="start" x="534.8" y="-65.8" font-family="Courier,monospace" font-size="9.00"> </text>
</a>
</g>
</g>
<!-- cpack&#45;&gt;apply -->
<g id="edge8" class="edge">
<title>cpack&#45;&gt;apply</title>
<path fill="none" stroke="black" d="M785.7,-244.16C717.02,-216.19 626.71,-173.58 557,-120 550.17,-114.75 543.66,-108.15 537.97,-101.64"/>
<polygon fill="black" stroke="black" points="537.93,-101.59 531.03,-99.5 530.31,-92.32 537.93,-101.59"/>
<g id="a_edge8&#45;label"><a xlink:title="use_module">
<text text-anchor="middle" x="616" y="-138.8" font-family="Courier,monospace" font-size="9.00">use_module</text>
</a>
</g>
</g>
<!-- http_open -->
<g id="node8" class="node">
<title>http_open</title>
<g id="a_node8"><a xlink:title="module">
<polygon fill="gainsboro" stroke="black" stroke-dasharray="5,2" points="650.5,-92 577.5,-92 577.5,-96 565.5,-96 565.5,-56 650.5,-56 650.5,-92"/>
<polyline fill="none" stroke="black" stroke-dasharray="5,2" points="565.5,-92 577.5,-92 "/>
<text text-anchor="start" x="573.8" y="-75.8" font-family="Courier,monospace" font-size="9.00"> </text>
<text text-anchor="start" x="578.8" y="-75.2" font-family="Courier,monospace" font-size="11.00">http_open</text>
<text text-anchor="start" x="637.8" y="-75.8" font-family="Courier,monospace" font-size="9.00"> </text>
<text text-anchor="start" x="573.8" y="-65.8" font-family="Courier,monospace" font-size="9.00"> </text>
<text text-anchor="start" x="595.9" y="-66.4" font-family="Courier,monospace" font-size="7.00">module</text>
<text text-anchor="start" x="637.8" y="-65.8" font-family="Courier,monospace" font-size="9.00"> </text>
</a>
</g>
</g>
<!-- cpack&#45;&gt;http_open -->
<g id="edge9" class="edge">
<title>cpack&#45;&gt;http_open</title>
<path fill="none" stroke="black" d="M785.73,-213.86C745.55,-186.06 699.64,-152.75 660,-120 652.36,-113.69 644.21,-106.75 636.69,-100.24"/>
<polygon fill="black" stroke="black" points="636.63,-100.18 629.47,-99.27 627.57,-92.31 636.63,-100.18"/>
<g id="a_edge9&#45;label"><a xlink:title="use_module">
<text text-anchor="middle" x="716" y="-138.8" font-family="Courier,monospace" font-size="9.00">use_module</text>
</a>
</g>
</g>
<!-- error -->
<g id="node9" class="node">
<title>error</title>
<g id="a_node9"><a xlink:title="module">
<polygon fill="gainsboro" stroke="black" stroke-dasharray="5,2" points="727.5,-92 680.5,-92 680.5,-96 668.5,-96 668.5,-56 727.5,-56 727.5,-92"/>
<polyline fill="none" stroke="black" stroke-dasharray="5,2" points="668.5,-92 680.5,-92 "/>
<text text-anchor="start" x="676.8" y="-75.8" font-family="Courier,monospace" font-size="9.00"> </text>
<text text-anchor="start" x="682" y="-75.2" font-family="Courier,monospace" font-size="11.00">error</text>
<text text-anchor="start" x="714.8" y="-75.8" font-family="Courier,monospace" font-size="9.00"> </text>
<text text-anchor="start" x="676.8" y="-65.8" font-family="Courier,monospace" font-size="9.00"> </text>
<text text-anchor="start" x="685.9" y="-66.4" font-family="Courier,monospace" font-size="7.00">module</text>
<text text-anchor="start" x="714.8" y="-65.8" font-family="Courier,monospace" font-size="9.00"> </text>
</a>
</g>
</g>
<!-- cpack&#45;&gt;error -->
<g id="edge10" class="edge">
<title>cpack&#45;&gt;error</title>
<path fill="none" stroke="black" d="M801.51,-190.78C787.55,-175.89 773.31,-160.57 759.99,-146 749.58,-134.61 747.16,-131.61 737,-120 731.73,-113.98 726.08,-107.48 720.76,-101.35"/>
<polygon fill="black" stroke="black" points="720.63,-101.2 713.68,-99.28 712.78,-92.13 720.63,-101.2"/>
<g id="a_edge10&#45;label"><a xlink:title="use_module">
<text text-anchor="middle" x="786" y="-138.8" font-family="Courier,monospace" font-size="9.00">use_module</text>
</a>
</g>
</g>
<!-- files_ex -->
<g id="node10" class="node">
<title>files_ex</title>
<g id="a_node10"><a xlink:title="module">
<polygon fill="gainsboro" stroke="black" stroke-dasharray="5,2" points="824,-92 758,-92 758,-96 746,-96 746,-56 824,-56 824,-92"/>
<polyline fill="none" stroke="black" stroke-dasharray="5,2" points="746,-92 758,-92 "/>
<text text-anchor="start" x="753.8" y="-75.8" font-family="Courier,monospace" font-size="9.00"> </text>
<text text-anchor="start" x="758.6" y="-75.2" font-family="Courier,monospace" font-size="11.00">files_ex</text>
<text text-anchor="start" x="810.8" y="-75.8" font-family="Courier,monospace" font-size="9.00"> </text>
<text text-anchor="start" x="753.8" y="-65.8" font-family="Courier,monospace" font-size="9.00"> </text>
<text text-anchor="start" x="772.4" y="-66.4" font-family="Courier,monospace" font-size="7.00">module</text>
<text text-anchor="start" x="810.8" y="-65.8" font-family="Courier,monospace" font-size="9.00"> </text>
</a>
</g>
</g>
<!-- cpack&#45;&gt;files_ex -->
<g id="edge11" class="edge">
<title>cpack&#45;&gt;files_ex</title>
<path fill="none" stroke="black" d="M842.82,-190.93C826.99,-159.18 810.35,-125.81 799,-103.07"/>
<polygon fill="black" stroke="black" points="798.94,-102.95 792.68,-99.37 793.59,-92.21 798.94,-102.95"/>
<g id="a_edge11&#45;label"><a xlink:title="use_module">
<text text-anchor="middle" x="845" y="-138.8" font-family="Courier,monospace" font-size="9.00">use_module</text>
</a>
</g>
</g>
<!-- swi_option -->
<g id="node11" class="node">
<title>swi_option</title>
<g id="a_node11"><a xlink:title="module">
<polygon fill="gainsboro" stroke="black" stroke-dasharray="5,2" points="934,-92 854,-92 854,-96 842,-96 842,-56 934,-56 934,-92"/>
<polyline fill="none" stroke="black" stroke-dasharray="5,2" points="842,-92 854,-92 "/>
<text text-anchor="start" x="849.8" y="-75.8" font-family="Courier,monospace" font-size="9.00"> </text>
<text text-anchor="start" x="854.99" y="-75.2" font-family="Courier,monospace" font-size="11.00">swi_option</text>
<text text-anchor="start" x="920.8" y="-75.8" font-family="Courier,monospace" font-size="9.00"> </text>
<text text-anchor="start" x="849.8" y="-65.8" font-family="Courier,monospace" font-size="9.00"> </text>
<text text-anchor="start" x="875.4" y="-66.4" font-family="Courier,monospace" font-size="7.00">module</text>
<text text-anchor="start" x="920.8" y="-65.8" font-family="Courier,monospace" font-size="9.00"> </text>
</a>
</g>
</g>
<!-- cpack&#45;&gt;swi_option -->
<g id="edge12" class="edge">
<title>cpack&#45;&gt;swi_option</title>
<path fill="none" stroke="black" d="M888,-190.93C888,-159.76 888,-127.04 888,-104.33"/>
<polygon fill="black" stroke="black" points="888,-104.21 884,-98.21 888,-92.21 888,-104.21"/>
<g id="a_edge12&#45;label"><a xlink:title="use_module">
<text text-anchor="middle" x="915" y="-138.8" font-family="Courier,monospace" font-size="9.00">use_module</text>
</a>
</g>
</g>
<!-- clio_git -->
<g id="node12" class="node">
<title>clio_git</title>
<g id="a_node12"><a xlink:title="module">
<polygon fill="gainsboro" stroke="black" stroke-dasharray="5,2" points="1030,-92 964,-92 964,-96 952,-96 952,-56 1030,-56 1030,-92"/>
<polyline fill="none" stroke="black" stroke-dasharray="5,2" points="952,-92 964,-92 "/>
<text text-anchor="start" x="959.8" y="-75.8" font-family="Courier,monospace" font-size="9.00"> </text>
<text text-anchor="start" x="964.6" y="-75.2" font-family="Courier,monospace" font-size="11.00">clio_git</text>
<text text-anchor="start" x="1016.8" y="-75.8" font-family="Courier,monospace" font-size="9.00"> </text>
<text text-anchor="start" x="959.8" y="-65.8" font-family="Courier,monospace" font-size="9.00"> </text>
<text text-anchor="start" x="978.4" y="-66.4" font-family="Courier,monospace" font-size="7.00">module</text>
<text text-anchor="start" x="1016.8" y="-65.8" font-family="Courier,monospace" font-size="9.00"> </text>
</a>
</g>
</g>
<!-- cpack&#45;&gt;clio_git -->
<g id="edge13" class="edge">
<title>cpack&#45;&gt;clio_git</title>
<path fill="none" stroke="black" d="M933.18,-190.93C949.01,-159.18 965.65,-125.81 977,-103.07"/>
<polygon fill="black" stroke="black" points="977.06,-102.95 976.16,-95.8 982.41,-92.21 977.06,-102.95"/>
<g id="a_edge13&#45;label"><a xlink:title="use_module">
<text text-anchor="middle" x="984" y="-138.8" font-family="Courier,monospace" font-size="9.00">use_module</text>
</a>
</g>
</g>
<!-- lists -->
<g id="node13" class="node">
<title>lists</title>
<g id="a_node13"><a xlink:title="module">
<polygon fill="gainsboro" stroke="black" stroke-dasharray="5,2" points="1107.5,-92 1060.5,-92 1060.5,-96 1048.5,-96 1048.5,-56 1107.5,-56 1107.5,-92"/>
<polyline fill="none" stroke="black" stroke-dasharray="5,2" points="1048.5,-92 1060.5,-92 "/>
<text text-anchor="start" x="1056.8" y="-75.8" font-family="Courier,monospace" font-size="9.00"> </text>
<text text-anchor="start" x="1062" y="-75.2" font-family="Courier,monospace" font-size="11.00">lists</text>
<text text-anchor="start" x="1094.8" y="-75.8" font-family="Courier,monospace" font-size="9.00"> </text>
<text text-anchor="start" x="1056.8" y="-65.8" font-family="Courier,monospace" font-size="9.00"> </text>
<text text-anchor="start" x="1065.9" y="-66.4" font-family="Courier,monospace" font-size="7.00">module</text>
<text text-anchor="start" x="1094.8" y="-65.8" font-family="Courier,monospace" font-size="9.00"> </text>
</a>
</g>
</g>
<!-- cpack&#45;&gt;lists -->
<g id="edge14" class="edge">
<title>cpack&#45;&gt;lists</title>
<path fill="none" stroke="black" d="M974.16,-190.76C995.54,-167.85 1018.27,-143.17 1039,-120 1044.34,-114.03 1050.01,-107.56 1055.34,-101.43"/>
<polygon fill="black" stroke="black" points="1055.46,-101.28 1056.36,-94.13 1063.31,-92.2 1055.46,-101.28"/>
<g id="a_edge14&#45;label"><a xlink:title="use_module">
<text text-anchor="middle" x="1049" y="-138.8" font-family="Courier,monospace" font-size="9.00">use_module</text>
</a>
</g>
</g>
<!-- conf_d -->
<g id="node14" class="node">
<title>conf_d</title>
<g id="a_node14"><a xlink:title="module">
<polygon fill="gainsboro" stroke="black" stroke-dasharray="5,2" points="1190.5,-92 1137.5,-92 1137.5,-96 1125.5,-96 1125.5,-56 1190.5,-56 1190.5,-92"/>
<polyline fill="none" stroke="black" stroke-dasharray="5,2" points="1125.5,-92 1137.5,-92 "/>
<text text-anchor="start" x="1133.8" y="-75.8" font-family="Courier,monospace" font-size="9.00"> </text>
<text text-anchor="start" x="1138.7" y="-75.2" font-family="Courier,monospace" font-size="11.00">conf_d</text>
<text text-anchor="start" x="1177.8" y="-75.8" font-family="Courier,monospace" font-size="9.00"> </text>
<text text-anchor="start" x="1133.8" y="-65.8" font-family="Courier,monospace" font-size="9.00"> </text>
<text text-anchor="start" x="1145.9" y="-66.4" font-family="Courier,monospace" font-size="7.00">module</text>
<text text-anchor="start" x="1177.8" y="-65.8" font-family="Courier,monospace" font-size="9.00"> </text>
</a>
</g>
</g>
<!-- cpack&#45;&gt;conf_d -->
<g id="edge15" class="edge">
<title>cpack&#45;&gt;conf_d</title>
<path fill="none" stroke="black" d="M990.19,-216.45C1031.13,-188.62 1077.79,-154.6 1117,-120 1123.5,-114.27 1130.03,-107.59 1135.92,-101.17"/>
<polygon fill="black" stroke="black" points="1136.04,-101.04 1137.03,-93.9 1144.01,-92.07 1136.04,-101.04"/>
<g id="a_edge15&#45;label"><a xlink:title="use_module">
<text text-anchor="middle" x="1120" y="-138.8" font-family="Courier,monospace" font-size="9.00">use_module</text>
</a>
</g>
</g>
<!-- setup -->
<g id="node15" class="node">
<title>setup</title>
<g id="a_node15"><a xlink:title="module">
<polygon fill="gainsboro" stroke="black" stroke-dasharray="5,2" points="1267.5,-92 1220.5,-92 1220.5,-96 1208.5,-96 1208.5,-56 1267.5,-56 1267.5,-92"/>
<polyline fill="none" stroke="black" stroke-dasharray="5,2" points="1208.5,-92 1220.5,-92 "/>
<text text-anchor="start" x="1216.8" y="-75.8" font-family="Courier,monospace" font-size="9.00"> </text>
<text text-anchor="start" x="1222" y="-75.2" font-family="Courier,monospace" font-size="11.00">setup</text>
<text text-anchor="start" x="1254.8" y="-75.8" font-family="Courier,monospace" font-size="9.00"> </text>
<text text-anchor="start" x="1216.8" y="-65.8" font-family="Courier,monospace" font-size="9.00"> </text>
<text text-anchor="start" x="1225.9" y="-66.4" font-family="Courier,monospace" font-size="7.00">module</text>
<text text-anchor="start" x="1254.8" y="-65.8" font-family="Courier,monospace" font-size="9.00"> </text>
</a>
</g>
</g>
<!-- cpack&#45;&gt;setup -->
<g id="edge16" class="edge">
<title>cpack&#45;&gt;setup</title>
<path fill="none" stroke="black" d="M990.05,-241.22C1054.19,-213 1136.5,-171.21 1200,-120 1206.48,-114.78 1212.68,-108.33 1218.12,-101.96"/>
<polygon fill="black" stroke="black" points="1218.45,-101.55 1219.1,-94.37 1225.98,-92.21 1218.45,-101.55"/>
<g id="a_edge16&#45;label"><a xlink:title="use_module">
<text text-anchor="middle" x="1204" y="-138.8" font-family="Courier,monospace" font-size="9.00">use_module</text>
</a>
</g>
</g>
<!-- read_util -->
<g id="node16" class="node">
<title>read_util</title>
<g id="a_node16"><a xlink:title="module">
<polygon fill="gainsboro" stroke="black" stroke-dasharray="5,2" points="1370.5,-92 1297.5,-92 1297.5,-96 1285.5,-96 1285.5,-56 1370.5,-56 1370.5,-92"/>
<polyline fill="none" stroke="black" stroke-dasharray="5,2" points="1285.5,-92 1297.5,-92 "/>
<text text-anchor="start" x="1293.8" y="-75.8" font-family="Courier,monospace" font-size="9.00"> </text>
<text text-anchor="start" x="1298.8" y="-75.2" font-family="Courier,monospace" font-size="11.00">read_util</text>
<text text-anchor="start" x="1357.8" y="-75.8" font-family="Courier,monospace" font-size="9.00"> </text>
<text text-anchor="start" x="1293.8" y="-65.8" font-family="Courier,monospace" font-size="9.00"> </text>
<text text-anchor="start" x="1315.9" y="-66.4" font-family="Courier,monospace" font-size="7.00">module</text>
<text text-anchor="start" x="1357.8" y="-65.8" font-family="Courier,monospace" font-size="9.00"> </text>
</a>
</g>
</g>
<!-- cpack&#45;&gt;read_util -->
<g id="edge17" class="edge">
<title>cpack&#45;&gt;read_util</title>
<path fill="none" stroke="black" d="M990.32,-247.1C1060.56,-222.14 1155.16,-185.89 1235,-146 1254.64,-136.19 1259.37,-133.09 1277,-120 1285.13,-113.96 1293.54,-106.92 1301.13,-100.22"/>
<polygon fill="black" stroke="black" points="1301.31,-100.06 1303.08,-93.07 1310.22,-92.02 1301.31,-100.06"/>
<g id="a_edge17&#45;label"><a xlink:title="use_module">
<text text-anchor="middle" x="1278" y="-138.8" font-family="Courier,monospace" font-size="9.00">use_module</text>
</a>
</g>
</g>
<!-- process -->
<g id="node17" class="node">
<title>process</title>
<g id="a_node17"><a xlink:title="module">
<polygon fill="gainsboro" stroke="black" stroke-dasharray="5,2" points="1461,-92 1401,-92 1401,-96 1389,-96 1389,-56 1461,-56 1461,-92"/>
<polyline fill="none" stroke="black" stroke-dasharray="5,2" points="1389,-92 1401,-92 "/>
<text text-anchor="start" x="1396.8" y="-75.8" font-family="Courier,monospace" font-size="9.00"> </text>
<text text-anchor="start" x="1401.9" y="-75.2" font-family="Courier,monospace" font-size="11.00">process</text>
<text text-anchor="start" x="1447.8" y="-75.8" font-family="Courier,monospace" font-size="9.00"> </text>
<text text-anchor="start" x="1396.8" y="-65.8" font-family="Courier,monospace" font-size="9.00"> </text>
<text text-anchor="start" x="1412.4" y="-66.4" font-family="Courier,monospace" font-size="7.00">module</text>
<text text-anchor="start" x="1447.8" y="-65.8" font-family="Courier,monospace" font-size="9.00"> </text>
</a>
</g>
</g>
<!-- cpack&#45;&gt;process -->
<g id="edge18" class="edge">
<title>cpack&#45;&gt;process</title>
<path fill="none" stroke="black" d="M990.03,-249.91C1075.52,-223.14 1200.63,-183.27 1309,-146 1340.78,-135.07 1351.68,-138.08 1380,-120 1388.07,-114.85 1395.83,-108.03 1402.56,-101.27"/>
<polygon fill="black" stroke="black" points="1402.83,-100.98 1404.03,-93.87 1411.05,-92.23 1402.83,-100.98"/>
<g id="a_edge18&#45;label"><a xlink:title="use_module">
<text text-anchor="middle" x="1367" y="-138.8" font-family="Courier,monospace" font-size="9.00">use_module</text>
</a>
</g>
</g>
<!-- rdf_library -->
<g id="node18" class="node">
<title>rdf_library</title>
<g id="a_node18"><a xlink:title="module">
<polygon fill="gainsboro" stroke="black" stroke-dasharray="5,2" points="1577,-92 1491,-92 1491,-96 1479,-96 1479,-56 1577,-56 1577,-92"/>
<polyline fill="none" stroke="black" stroke-dasharray="5,2" points="1479,-92 1491,-92 "/>
<text text-anchor="start" x="1486.8" y="-75.8" font-family="Courier,monospace" font-size="9.00"> </text>
<text text-anchor="start" x="1491.69" y="-75.2" font-family="Courier,monospace" font-size="11.00">rdf_library</text>
<text text-anchor="start" x="1563.8" y="-75.8" font-family="Courier,monospace" font-size="9.00"> </text>
<text text-anchor="start" x="1486.8" y="-65.8" font-family="Courier,monospace" font-size="9.00"> </text>
<text text-anchor="start" x="1515.4" y="-66.4" font-family="Courier,monospace" font-size="7.00">module</text>
<text text-anchor="start" x="1563.8" y="-65.8" font-family="Courier,monospace" font-size="9.00"> </text>
</a>
</g>
</g>
<!-- cpack&#45;&gt;rdf_library -->
<g id="edge19" class="edge">
<title>cpack&#45;&gt;rdf_library</title>
<path fill="none" stroke="black" d="M990.35,-257.09C1093.86,-231.74 1258.1,-189.75 1398,-146 1430.47,-135.84 1440.19,-136.41 1470,-120 1480.33,-114.31 1490.77,-106.86 1499.89,-99.66"/>
<polygon fill="black" stroke="black" points="1499.92,-99.64 1502.03,-92.74 1509.2,-92.04 1499.92,-99.64"/>
<g id="a_edge19&#45;label"><a xlink:title="use_module">
<text text-anchor="middle" x="1455" y="-138.8" font-family="Courier,monospace" font-size="9.00">use_module</text>
</a>
</g>
</g>
<!-- prolog -->
<g id="node19" class="node">
<title>prolog</title>
<ellipse fill="white" stroke="black" cx="1624" cy="-74" rx="27.41" ry="18"/>
<text text-anchor="middle" x="1624" y="-71.3" font-family="Courier,monospace" font-size="9.00">prolog</text>
</g>
<!-- cpack&#45;&gt;prolog -->
<g id="edge1" class="edge">
<title>cpack&#45;&gt;prolog</title>
<path fill="none" stroke="black" d="M990.25,-258.98C1109.43,-232.58 1312.24,-187.19 1486,-146 1532.78,-134.91 1551.06,-146.76 1591,-120 1598.64,-114.88 1605.14,-107.38 1610.31,-99.96"/>
<polygon fill="black" stroke="black" points="1618.7,-93.32 1610.37,-99.87 1612.8,-89.55 1618.7,-93.32"/>
<g id="a_edge1&#45;label"><a xlink:title="provides">
<text text-anchor="middle" x="1573.6" y="-138.8" font-family="Courier,monospace" font-size="9.00">provides</text>
</a>
</g>
</g>
<!-- user -->
<g id="node20" class="node">
<title>user</title>
<ellipse fill="white" stroke="black" cx="1696" cy="-74" rx="27" ry="18"/>
<text text-anchor="middle" x="1696" y="-71.3" font-family="Courier,monospace" font-size="9.00">user</text>
</g>
<!-- cpack&#45;&gt;user -->
<g id="edge3" class="edge">
<title>cpack&#45;&gt;user</title>
<path fill="none" stroke="black" d="M990.03,-269.07C1129.62,-250.48 1386.98,-210.57 1599,-146 1627.19,-137.41 1636.53,-137.82 1660,-120 1667.56,-114.26 1674.46,-106.59 1680.15,-99.22"/>
<polygon fill="black" stroke="black" points="1689.08,-92.88 1680.37,-98.92 1683.41,-88.77 1689.08,-92.88"/>
<g id="a_edge3&#45;label"><a xlink:title="provides">
<text text-anchor="middle" x="1650.6" y="-138.8" font-family="Courier,monospace" font-size="9.00">provides</text>
</a>
</g>
</g>
</g>
</svg>
