<?xml version="1.0" encoding="UTF-8" standalone="no"?>
<!DOCTYPE svg PUBLIC "-//W3C//DTD SVG 1.1//EN"
 "http://www.w3.org/Graphics/SVG/1.1/DTD/svg11.dtd">
<!-- Generated by graphviz version 2.41.20190410.0829 (20190410.0829)
 -->
<!-- Title: export.pl Pages: 1 -->
<svg width="980pt" height="418pt"
 viewBox="72.00 72.00 908.00 346.00" xmlns="http://www.w3.org/2000/svg" xmlns:xlink="http://www.w3.org/1999/xlink">
<g id="graph0" class="graph" transform="scale(1 1) rotate(0) translate(76 342)">
<title>export.pl</title>
<polygon fill="white" stroke="transparent" points="-4,4 -4,-270 832,-270 832,4 -4,4"/>
<text text-anchor="start" x="8" y="-16" font-family="Courier,monospace" font-size="10.00" fill="#8b8989">ClioPatria &#45; an RDF application platform</text>
<text text-anchor="start" x="8" y="-6" font-family="Courier,monospace" font-size="10.00" fill="#8b8989">Generated on 2019/04/17, 13:04</text>
<g id="clust1" class="cluster">
<title>cluster_file_/Users/pmoura/ClioPatria/api/export.pl</title>
<g id="a_clust1"><a xlink:href="https://github.com/ClioPatria/ClioPatria/tree/add57aa2039eed4033cf96e96c293b2052e88f41/api/export.pl" xlink:title="https://github.com/ClioPatria/ClioPatria/tree/add57aa2039eed4033cf96e96c293b2052e88f41/api/export.pl">
<path fill="snow" stroke="#8b8989" d="M20,-36C20,-36 808,-36 808,-36 814,-36 820,-42 820,-48 820,-48 820,-246 820,-246 820,-252 814,-258 808,-258 808,-258 20,-258 20,-258 14,-258 8,-252 8,-246 8,-246 8,-48 8,-48 8,-42 14,-36 20,-36"/>
<text text-anchor="middle" x="43" y="-246" font-family="Courier,monospace" font-size="10.00" fill="#8b8989">export.pl</text>
</a>
</g>
</g>
<g id="clust2" class="cluster">
<title>cluster_other</title>
<g id="a_clust2"><a xlink:title="(external entities)">
<path fill="white" stroke="#8b8989" d="M30,-46C30,-46 798,-46 798,-46 804,-46 810,-52 810,-58 810,-58 810,-108 810,-108 810,-114 804,-120 798,-120 798,-120 30,-120 30,-120 24,-120 18,-114 18,-108 18,-108 18,-58 18,-58 18,-52 24,-46 30,-46"/>
<text text-anchor="middle" x="83.01" y="-108" font-family="Courier,monospace" font-size="10.00" fill="#8b8989">(external entities)</text>
</a>
</g>
</g>
<!-- api_export -->
<g id="node1" class="node">
<title>api_export</title>
<g id="a_node1"><a xlink:title="module">
<polygon fill="gainsboro" stroke="black" points="506,-230 420,-230 420,-234 408,-234 408,-191 506,-191 506,-230"/>
<polyline fill="none" stroke="black" points="408,-230 420,-230 "/>
<g id="a_node1_0"><a xlink:href="api_export_module_xref_diagram.svg" xlink:title="Zoom">
<image xlink:href="zoom.png" width="11px" height="11px" preserveAspectRatio="xMinYMin meet" x="416" y="-225.5"/>
</a>
</g>
<text text-anchor="start" x="418.8" y="-206.3" font-family="Courier,monospace" font-size="9.00"> </text>
<text text-anchor="start" x="426.99" y="-205.7" font-family="Courier,monospace" font-size="11.00">api_export</text>
<text text-anchor="start" x="492.8" y="-206.3" font-family="Courier,monospace" font-size="9.00"> </text>
<text text-anchor="start" x="418.8" y="-196.3" font-family="Courier,monospace" font-size="9.00"> </text>
<text text-anchor="start" x="447.4" y="-196.9" font-family="Courier,monospace" font-size="7.00">module</text>
<text text-anchor="start" x="492.8" y="-196.3" font-family="Courier,monospace" font-size="9.00"> </text>
</a>
</g>
</g>
<!-- http_dispatch -->
<g id="node2" class="node">
<title>http_dispatch</title>
<g id="a_node2"><a xlink:title="module">
<polygon fill="gainsboro" stroke="black" stroke-dasharray="5,2" points="139.5,-92 40.5,-92 40.5,-96 28.5,-96 28.5,-56 139.5,-56 139.5,-92"/>
<polyline fill="none" stroke="black" stroke-dasharray="5,2" points="28.5,-92 40.5,-92 "/>
<text text-anchor="start" x="36.8" y="-75.8" font-family="Courier,monospace" font-size="9.00"> </text>
<text text-anchor="start" x="41.59" y="-75.2" font-family="Courier,monospace" font-size="11.00">http_dispatch</text>
<text text-anchor="start" x="126.8" y="-75.8" font-family="Courier,monospace" font-size="9.00"> </text>
<text text-anchor="start" x="36.8" y="-65.8" font-family="Courier,monospace" font-size="9.00"> </text>
<text text-anchor="start" x="71.9" y="-66.4" font-family="Courier,monospace" font-size="7.00">module</text>
<text text-anchor="start" x="126.8" y="-65.8" font-family="Courier,monospace" font-size="9.00"> </text>
</a>
</g>
</g>
<!-- api_export&#45;&gt;http_dispatch -->
<g id="edge1" class="edge">
<title>api_export&#45;&gt;http_dispatch</title>
<path fill="none" stroke="black" d="M407.76,-200.32C345.43,-187.56 235.73,-161.28 149,-120 137.2,-114.38 125.18,-106.72 114.74,-99.3"/>
<polygon fill="black" stroke="black" points="114.56,-99.17 107.35,-98.84 104.89,-92.06 114.56,-99.17"/>
<g id="a_edge1&#45;label"><a xlink:title="use_module">
<text text-anchor="middle" x="232" y="-138.8" font-family="Courier,monospace" font-size="9.00">use_module</text>
</a>
</g>
</g>
<!-- http_parameters -->
<g id="node3" class="node">
<title>http_parameters</title>
<g id="a_node3"><a xlink:title="module">
<polygon fill="gainsboro" stroke="black" stroke-dasharray="5,2" points="282.5,-92 169.5,-92 169.5,-96 157.5,-96 157.5,-56 282.5,-56 282.5,-92"/>
<polyline fill="none" stroke="black" stroke-dasharray="5,2" points="157.5,-92 169.5,-92 "/>
<text text-anchor="start" x="165.8" y="-75.8" font-family="Courier,monospace" font-size="9.00"> </text>
<text text-anchor="start" x="170.99" y="-75.2" font-family="Courier,monospace" font-size="11.00">http_parameters</text>
<text text-anchor="start" x="269.8" y="-75.8" font-family="Courier,monospace" font-size="9.00"> </text>
<text text-anchor="start" x="165.8" y="-65.8" font-family="Courier,monospace" font-size="9.00"> </text>
<text text-anchor="start" x="207.9" y="-66.4" font-family="Courier,monospace" font-size="7.00">module</text>
<text text-anchor="start" x="269.8" y="-65.8" font-family="Courier,monospace" font-size="9.00"> </text>
</a>
</g>
</g>
<!-- api_export&#45;&gt;http_parameters -->
<g id="edge2" class="edge">
<title>api_export&#45;&gt;http_parameters</title>
<path fill="none" stroke="black" d="M419.18,-190.93C394.64,-178.65 362.12,-161.93 333.99,-146 314.89,-135.18 310.64,-131.59 292,-120 280.81,-113.04 268.65,-105.45 257.57,-98.52"/>
<polygon fill="black" stroke="black" points="257.51,-98.48 250.3,-98.69 247.33,-92.12 257.51,-98.48"/>
<g id="a_edge2&#45;label"><a xlink:title="use_module">
<text text-anchor="middle" x="360" y="-138.8" font-family="Courier,monospace" font-size="9.00">use_module</text>
</a>
</g>
</g>
<!-- user_db -->
<g id="node4" class="node">
<title>user_db</title>
<g id="a_node4"><a xlink:title="module">
<polygon fill="gainsboro" stroke="black" stroke-dasharray="5,2" points="373,-92 313,-92 313,-96 301,-96 301,-56 373,-56 373,-92"/>
<polyline fill="none" stroke="black" stroke-dasharray="5,2" points="301,-92 313,-92 "/>
<text text-anchor="start" x="308.8" y="-75.8" font-family="Courier,monospace" font-size="9.00"> </text>
<text text-anchor="start" x="313.9" y="-75.2" font-family="Courier,monospace" font-size="11.00">user_db</text>
<text text-anchor="start" x="359.8" y="-75.8" font-family="Courier,monospace" font-size="9.00"> </text>
<text text-anchor="start" x="308.8" y="-65.8" font-family="Courier,monospace" font-size="9.00"> </text>
<text text-anchor="start" x="324.4" y="-66.4" font-family="Courier,monospace" font-size="7.00">module</text>
<text text-anchor="start" x="359.8" y="-65.8" font-family="Courier,monospace" font-size="9.00"> </text>
</a>
</g>
</g>
<!-- api_export&#45;&gt;user_db -->
<g id="edge3" class="edge">
<title>api_export&#45;&gt;user_db</title>
<path fill="none" stroke="black" d="M439.88,-190.98C428.27,-178.37 412.62,-161.26 398.99,-146 385.83,-131.27 371.3,-114.64 359.62,-101.19"/>
<polygon fill="black" stroke="black" points="359.53,-101.09 352.58,-99.18 351.67,-92.02 359.53,-101.09"/>
<g id="a_edge3&#45;label"><a xlink:title="use_module">
<text text-anchor="middle" x="425" y="-138.8" font-family="Courier,monospace" font-size="9.00">use_module</text>
</a>
</g>
</g>
<!-- rdf_turtle_write -->
<g id="node5" class="node">
<title>rdf_turtle_write</title>
<g id="a_node5"><a xlink:title="module">
<polygon fill="gainsboro" stroke="black" stroke-dasharray="5,2" points="522.5,-92 403.5,-92 403.5,-96 391.5,-96 391.5,-56 522.5,-56 522.5,-92"/>
<polyline fill="none" stroke="black" stroke-dasharray="5,2" points="391.5,-92 403.5,-92 "/>
<text text-anchor="start" x="399.8" y="-75.8" font-family="Courier,monospace" font-size="9.00"> </text>
<text text-anchor="start" x="404.69" y="-75.2" font-family="Courier,monospace" font-size="11.00">rdf_turtle_write</text>
<text text-anchor="start" x="509.8" y="-75.8" font-family="Courier,monospace" font-size="9.00"> </text>
<text text-anchor="start" x="399.8" y="-65.8" font-family="Courier,monospace" font-size="9.00"> </text>
<text text-anchor="start" x="444.9" y="-66.4" font-family="Courier,monospace" font-size="7.00">module</text>
<text text-anchor="start" x="509.8" y="-65.8" font-family="Courier,monospace" font-size="9.00"> </text>
</a>
</g>
</g>
<!-- api_export&#45;&gt;rdf_turtle_write -->
<g id="edge4" class="edge">
<title>api_export&#45;&gt;rdf_turtle_write</title>
<path fill="none" stroke="black" d="M457,-190.8C457,-168.45 457,-130.77 457,-104.48"/>
<polygon fill="black" stroke="black" points="457,-104.27 453,-98.27 457,-92.27 457,-104.27"/>
<g id="a_edge4&#45;label"><a xlink:title="use_module">
<text text-anchor="middle" x="484" y="-138.8" font-family="Courier,monospace" font-size="9.00">use_module</text>
</a>
</g>
</g>
<!-- rdf_db -->
<g id="node6" class="node">
<title>rdf_db</title>
<g id="a_node6"><a xlink:title="module">
<polygon fill="gainsboro" stroke="black" stroke-dasharray="5,2" points="605.5,-92 552.5,-92 552.5,-96 540.5,-96 540.5,-56 605.5,-56 605.5,-92"/>
<polyline fill="none" stroke="black" stroke-dasharray="5,2" points="540.5,-92 552.5,-92 "/>
<text text-anchor="start" x="548.8" y="-75.8" font-family="Courier,monospace" font-size="9.00"> </text>
<text text-anchor="start" x="553.7" y="-75.2" font-family="Courier,monospace" font-size="11.00">rdf_db</text>
<text text-anchor="start" x="592.8" y="-75.8" font-family="Courier,monospace" font-size="9.00"> </text>
<text text-anchor="start" x="548.8" y="-65.8" font-family="Courier,monospace" font-size="9.00"> </text>
<text text-anchor="start" x="560.9" y="-66.4" font-family="Courier,monospace" font-size="7.00">module</text>
<text text-anchor="start" x="592.8" y="-65.8" font-family="Courier,monospace" font-size="9.00"> </text>
</a>
</g>
</g>
<!-- api_export&#45;&gt;rdf_db -->
<g id="edge5" class="edge">
<title>api_export&#45;&gt;rdf_db</title>
<path fill="none" stroke="black" d="M474.53,-190.85C486.19,-178.33 501.72,-161.37 515,-146 527.44,-131.6 540.91,-115.17 551.73,-101.74"/>
<polygon fill="black" stroke="black" points="551.92,-101.51 552.56,-94.32 559.43,-92.15 551.92,-101.51"/>
<g id="a_edge5&#45;label"><a xlink:title="use_module">
<text text-anchor="middle" x="548" y="-138.8" font-family="Courier,monospace" font-size="9.00">use_module</text>
</a>
</g>
</g>
<!-- rdf_schema -->
<g id="node7" class="node">
<title>rdf_schema</title>
<g id="a_node7"><a xlink:title="module">
<polygon fill="gainsboro" stroke="black" stroke-dasharray="5,2" points="716,-92 636,-92 636,-96 624,-96 624,-56 716,-56 716,-92"/>
<polyline fill="none" stroke="black" stroke-dasharray="5,2" points="624,-92 636,-92 "/>
<text text-anchor="start" x="631.8" y="-75.8" font-family="Courier,monospace" font-size="9.00"> </text>
<text text-anchor="start" x="636.99" y="-75.2" font-family="Courier,monospace" font-size="11.00">rdf_schema</text>
<text text-anchor="start" x="702.8" y="-75.8" font-family="Courier,monospace" font-size="9.00"> </text>
<text text-anchor="start" x="631.8" y="-65.8" font-family="Courier,monospace" font-size="9.00"> </text>
<text text-anchor="start" x="657.4" y="-66.4" font-family="Courier,monospace" font-size="7.00">module</text>
<text text-anchor="start" x="702.8" y="-65.8" font-family="Courier,monospace" font-size="9.00"> </text>
</a>
</g>
</g>
<!-- api_export&#45;&gt;rdf_schema -->
<g id="edge6" class="edge">
<title>api_export&#45;&gt;rdf_schema</title>
<path fill="none" stroke="black" d="M496.26,-190.88C520.58,-178.91 552.17,-162.55 579,-146 595.8,-135.64 599.36,-132.03 615,-120 623.27,-113.64 632.09,-106.56 640.18,-99.95"/>
<polygon fill="black" stroke="black" points="640.34,-99.81 642.43,-92.91 649.6,-92.18 640.34,-99.81"/>
<g id="a_edge6&#45;label"><a xlink:title="use_module">
<text text-anchor="middle" x="619" y="-138.8" font-family="Courier,monospace" font-size="9.00">use_module</text>
</a>
</g>
</g>
<!-- rdf_io -->
<g id="node8" class="node">
<title>rdf_io</title>
<g id="a_node8"><a xlink:title="module">
<polygon fill="gainsboro" stroke="black" stroke-dasharray="5,2" points="799.5,-92 746.5,-92 746.5,-96 734.5,-96 734.5,-56 799.5,-56 799.5,-92"/>
<polyline fill="none" stroke="black" stroke-dasharray="5,2" points="734.5,-92 746.5,-92 "/>
<text text-anchor="start" x="742.8" y="-75.8" font-family="Courier,monospace" font-size="9.00"> </text>
<text text-anchor="start" x="747.7" y="-75.2" font-family="Courier,monospace" font-size="11.00">rdf_io</text>
<text text-anchor="start" x="786.8" y="-75.8" font-family="Courier,monospace" font-size="9.00"> </text>
<text text-anchor="start" x="742.8" y="-65.8" font-family="Courier,monospace" font-size="9.00"> </text>
<text text-anchor="start" x="754.9" y="-66.4" font-family="Courier,monospace" font-size="7.00">module</text>
<text text-anchor="start" x="786.8" y="-65.8" font-family="Courier,monospace" font-size="9.00"> </text>
</a>
</g>
</g>
<!-- api_export&#45;&gt;rdf_io -->
<g id="edge7" class="edge">
<title>api_export&#45;&gt;rdf_io</title>
<path fill="none" stroke="black" d="M506.25,-200.87C562.65,-189.3 656.13,-164.81 725,-120 732.76,-114.95 740.08,-108.17 746.36,-101.4"/>
<polygon fill="black" stroke="black" points="746.36,-101.4 747.28,-94.25 754.24,-92.35 746.36,-101.4"/>
<g id="a_edge7&#45;label"><a xlink:title="use_module">
<text text-anchor="middle" x="718" y="-138.8" font-family="Courier,monospace" font-size="9.00">use_module</text>
</a>
</g>
</g>
</g>
</svg>
