<?xml version="1.0" encoding="UTF-8" standalone="no"?>
<!DOCTYPE svg PUBLIC "-//W3C//DTD SVG 1.1//EN"
 "http://www.w3.org/Graphics/SVG/1.1/DTD/svg11.dtd">
<!-- Generated by graphviz version 2.41.20190410.0829 (20190410.0829)
 -->
<!-- Title: foo Pages: 1 -->
<svg width="2559pt" height="415pt"
 viewBox="72.00 72.00 2487.00 343.00" xmlns="http://www.w3.org/2000/svg" xmlns:xlink="http://www.w3.org/1999/xlink">
<g id="graph0" class="graph" transform="scale(1 1) rotate(0) translate(76 339)">
<title>foo</title>
<polygon fill="white" stroke="transparent" points="-4,4 -4,-267 2411,-267 2411,4 -4,4"/>
<text text-anchor="start" x="8" y="-16" font-family="Courier,monospace" font-size="10.00" fill="#8b8989">Directory load diagram</text>
<text text-anchor="start" x="8" y="-6" font-family="Courier,monospace" font-size="10.00" fill="#8b8989">Generated on 2019/04/18, 18:39</text>
<g id="clust1" class="cluster">
<title>cluster_directory_foo</title>
<g id="a_clust1"><a xlink:href="/Users/pmoura/ClioPatria/" xlink:title="/Users/pmoura/ClioPatria/">
<path fill="#eee9e9" stroke="#8b8989" d="M20,-36C20,-36 2387,-36 2387,-36 2393,-36 2399,-42 2399,-48 2399,-48 2399,-243 2399,-243 2399,-249 2393,-255 2387,-255 2387,-255 20,-255 20,-255 14,-255 8,-249 8,-243 8,-243 8,-48 8,-48 8,-42 14,-36 20,-36"/>
<text text-anchor="middle" x="91.01" y="-243" font-family="Courier,monospace" font-size="10.00" fill="#8b8989">/Users/pmoura/ClioPatria/</text>
</a>
</g>
</g>
<g id="clust2" class="cluster">
<title>cluster_other</title>
<g id="a_clust2"><a xlink:title="(external directories)">
<path fill="white" stroke="#8b8989" d="M30,-46C30,-46 2377,-46 2377,-46 2383,-46 2389,-52 2389,-58 2389,-58 2389,-108 2389,-108 2389,-114 2383,-120 2377,-120 2377,-120 30,-120 30,-120 24,-120 18,-114 18,-108 18,-108 18,-58 18,-58 18,-52 24,-46 30,-46"/>
<text text-anchor="middle" x="92.01" y="-108" font-family="Courier,monospace" font-size="10.00" fill="#8b8989">(external directories)</text>
</a>
</g>
</g>
<!-- /Users/pmoura/ClioPatria/ -->
<g id="node1" class="node">
<title>/Users/pmoura/ClioPatria/</title>
<g id="a_node1"><a xlink:href="/Users/pmoura/ClioPatria/" xlink:title="/Users/pmoura/ClioPatria/">
<polygon fill="lightyellow" stroke="black" points="1302.5,-227 1115.5,-227 1111.5,-223 1111.5,-191 1298.5,-191 1302.5,-195 1302.5,-227"/>
<polyline fill="none" stroke="black" points="1298.5,-223 1111.5,-223 "/>
<polyline fill="none" stroke="black" points="1298.5,-223 1298.5,-191 "/>
<polyline fill="none" stroke="black" points="1298.5,-223 1302.5,-227 "/>
<text text-anchor="start" x="1119.8" y="-210.8" font-family="Courier,monospace" font-size="9.00"> </text>
<text text-anchor="start" x="1124.99" y="-210.2" font-family="Courier,monospace" font-size="11.00">/Users/pmoura/ClioPatria/</text>
<text text-anchor="start" x="1289.8" y="-210.8" font-family="Courier,monospace" font-size="9.00"> </text>
<text text-anchor="start" x="1119.8" y="-200.8" font-family="Courier,monospace" font-size="9.00"> </text>
<text text-anchor="start" x="1188.6" y="-201.4" font-family="Courier,monospace" font-size="7.00">directory</text>
<text text-anchor="start" x="1289.8" y="-200.8" font-family="Courier,monospace" font-size="9.00"> </text>
</a>
</g>
</g>
<!-- /Users/pmoura/ClioPatria/lib/cpack/ -->
<g id="node2" class="node">
<title>/Users/pmoura/ClioPatria/lib/cpack/</title>
<g id="a_node2"><a xlink:href="/Users/pmoura/ClioPatria/lib/cpack/" xlink:title="/Users/pmoura/ClioPatria/lib/cpack/">
<polygon fill="lightyellow" stroke="black" stroke-dasharray="5,2" points="285.5,-92 32.5,-92 28.5,-88 28.5,-56 281.5,-56 285.5,-60 285.5,-92"/>
<polyline fill="none" stroke="black" stroke-dasharray="5,2" points="281.5,-88 28.5,-88 "/>
<polyline fill="none" stroke="black" stroke-dasharray="5,2" points="281.5,-88 281.5,-56 "/>
<polyline fill="none" stroke="black" stroke-dasharray="5,2" points="281.5,-88 285.5,-92 "/>
<text text-anchor="start" x="36.8" y="-75.8" font-family="Courier,monospace" font-size="9.00"> </text>
<text text-anchor="start" x="41.98" y="-75.2" font-family="Courier,monospace" font-size="11.00">/Users/pmoura/ClioPatria/lib/cpack/</text>
<text text-anchor="start" x="272.8" y="-75.8" font-family="Courier,monospace" font-size="9.00"> </text>
<text text-anchor="start" x="36.8" y="-65.8" font-family="Courier,monospace" font-size="9.00"> </text>
<text text-anchor="start" x="138.6" y="-66.4" font-family="Courier,monospace" font-size="7.00">directory</text>
<text text-anchor="start" x="272.8" y="-65.8" font-family="Courier,monospace" font-size="9.00"> </text>
</a>
</g>
</g>
<!-- /Users/pmoura/ClioPatria/&#45;&gt;/Users/pmoura/ClioPatria/lib/cpack/ -->
<g id="edge1" class="edge">
<title>/Users/pmoura/ClioPatria/&#45;&gt;/Users/pmoura/ClioPatria/lib/cpack/</title>
<g id="a_edge1"><a xlink:href="/Users/pmoura/ClioPatria/" xlink:title="loads">
<path fill="none" stroke="black" d="M1111.44,-205.65C944.25,-200.01 588.52,-181.25 295,-120 266.69,-114.09 236.03,-104.44 210.81,-95.58"/>
<polygon fill="black" stroke="black" points="211.67,-92.17 201.08,-92.11 209.32,-98.77 211.67,-92.17"/>
</a>
</g>
<g id="a_edge1&#45;label"><a xlink:href="/Users/pmoura/ClioPatria/" xlink:title="/Users/pmoura/ClioPatria/">
<text text-anchor="start" x="417" y="-138.8" font-family="Courier,monospace" font-size="9.00">loads</text>
</a>
</g>
</g>
<!-- /Users/pmoura/lib/swipl/library/ -->
<g id="node3" class="node">
<title>/Users/pmoura/lib/swipl/library/</title>
<g id="a_node3"><a xlink:href="/Users/pmoura/lib/swipl/library/" xlink:title="/Users/pmoura/lib/swipl/library/">
<polygon fill="lightyellow" stroke="black" stroke-dasharray="5,2" points="540.5,-92 307.5,-92 303.5,-88 303.5,-56 536.5,-56 540.5,-60 540.5,-92"/>
<polyline fill="none" stroke="black" stroke-dasharray="5,2" points="536.5,-88 303.5,-88 "/>
<polyline fill="none" stroke="black" stroke-dasharray="5,2" points="536.5,-88 536.5,-56 "/>
<polyline fill="none" stroke="black" stroke-dasharray="5,2" points="536.5,-88 540.5,-92 "/>
<text text-anchor="start" x="311.8" y="-75.8" font-family="Courier,monospace" font-size="9.00"> </text>
<text text-anchor="start" x="316.88" y="-75.2" font-family="Courier,monospace" font-size="11.00">/Users/pmoura/lib/swipl/library/</text>
<text text-anchor="start" x="527.8" y="-75.8" font-family="Courier,monospace" font-size="9.00"> </text>
<text text-anchor="start" x="311.8" y="-65.8" font-family="Courier,monospace" font-size="9.00"> </text>
<text text-anchor="start" x="403.6" y="-66.4" font-family="Courier,monospace" font-size="7.00">directory</text>
<text text-anchor="start" x="527.8" y="-65.8" font-family="Courier,monospace" font-size="9.00"> </text>
</a>
</g>
</g>
<!-- /Users/pmoura/ClioPatria/&#45;&gt;/Users/pmoura/lib/swipl/library/ -->
<g id="edge2" class="edge">
<title>/Users/pmoura/ClioPatria/&#45;&gt;/Users/pmoura/lib/swipl/library/</title>
<g id="a_edge2"><a xlink:href="/Users/pmoura/ClioPatria/" xlink:title="loads">
<path fill="none" stroke="black" d="M1111.49,-201.38C982.62,-191.04 746.53,-167.18 550,-120 524.25,-113.82 496.42,-104.39 473.32,-95.75"/>
<polygon fill="black" stroke="black" points="474.31,-92.39 463.72,-92.11 471.83,-98.93 474.31,-92.39"/>
</a>
</g>
<g id="a_edge2&#45;label"><a xlink:href="/Users/pmoura/ClioPatria/" xlink:title="/Users/pmoura/ClioPatria/">
<text text-anchor="start" x="655" y="-138.8" font-family="Courier,monospace" font-size="9.00">loads</text>
</a>
</g>
</g>
<!-- /Users/pmoura/ClioPatria/lib/ -->
<g id="node4" class="node">
<title>/Users/pmoura/ClioPatria/lib/</title>
<g id="a_node4"><a xlink:href="/Users/pmoura/ClioPatria/lib/" xlink:title="/Users/pmoura/ClioPatria/lib/">
<polygon fill="lightyellow" stroke="black" stroke-dasharray="5,2" points="775.5,-92 562.5,-92 558.5,-88 558.5,-56 771.5,-56 775.5,-60 775.5,-92"/>
<polyline fill="none" stroke="black" stroke-dasharray="5,2" points="771.5,-88 558.5,-88 "/>
<polyline fill="none" stroke="black" stroke-dasharray="5,2" points="771.5,-88 771.5,-56 "/>
<polyline fill="none" stroke="black" stroke-dasharray="5,2" points="771.5,-88 775.5,-92 "/>
<text text-anchor="start" x="566.8" y="-75.8" font-family="Courier,monospace" font-size="9.00"> </text>
<text text-anchor="start" x="571.78" y="-75.2" font-family="Courier,monospace" font-size="11.00">/Users/pmoura/ClioPatria/lib/</text>
<text text-anchor="start" x="762.8" y="-75.8" font-family="Courier,monospace" font-size="9.00"> </text>
<text text-anchor="start" x="566.8" y="-65.8" font-family="Courier,monospace" font-size="9.00"> </text>
<text text-anchor="start" x="648.6" y="-66.4" font-family="Courier,monospace" font-size="7.00">directory</text>
<text text-anchor="start" x="762.8" y="-65.8" font-family="Courier,monospace" font-size="9.00"> </text>
</a>
</g>
</g>
<!-- /Users/pmoura/ClioPatria/&#45;&gt;/Users/pmoura/ClioPatria/lib/ -->
<g id="edge3" class="edge">
<title>/Users/pmoura/ClioPatria/&#45;&gt;/Users/pmoura/ClioPatria/lib/</title>
<g id="a_edge3"><a xlink:href="/Users/pmoura/ClioPatria/" xlink:title="loads">
<path fill="none" stroke="black" d="M1111.24,-192.51C1025.01,-177.5 895.25,-152.29 785,-120 762.01,-113.27 737.15,-104.08 716.2,-95.77"/>
<polygon fill="black" stroke="black" points="717.46,-92.5 706.87,-92.02 714.85,-98.99 717.46,-92.5"/>
</a>
</g>
<g id="a_edge3&#45;label"><a xlink:href="/Users/pmoura/ClioPatria/" xlink:title="/Users/pmoura/ClioPatria/">
<text text-anchor="start" x="876" y="-138.8" font-family="Courier,monospace" font-size="9.00">loads</text>
</a>
</g>
</g>
<!-- /Users/pmoura/lib/swipl/library/semweb/ -->
<g id="node5" class="node">
<title>/Users/pmoura/lib/swipl/library/semweb/</title>
<g id="a_node5"><a xlink:href="/Users/pmoura/lib/swipl/library/semweb/" xlink:title="/Users/pmoura/lib/swipl/library/semweb/">
<polygon fill="lightyellow" stroke="black" stroke-dasharray="5,2" points="1076.5,-92 797.5,-92 793.5,-88 793.5,-56 1072.5,-56 1076.5,-60 1076.5,-92"/>
<polyline fill="none" stroke="black" stroke-dasharray="5,2" points="1072.5,-88 793.5,-88 "/>
<polyline fill="none" stroke="black" stroke-dasharray="5,2" points="1072.5,-88 1072.5,-56 "/>
<polyline fill="none" stroke="black" stroke-dasharray="5,2" points="1072.5,-88 1076.5,-92 "/>
<text text-anchor="start" x="801.8" y="-75.8" font-family="Courier,monospace" font-size="9.00"> </text>
<text text-anchor="start" x="806.78" y="-75.2" font-family="Courier,monospace" font-size="11.00">/Users/pmoura/lib/swipl/library/semweb/</text>
<text text-anchor="start" x="1063.8" y="-75.8" font-family="Courier,monospace" font-size="9.00"> </text>
<text text-anchor="start" x="801.8" y="-65.8" font-family="Courier,monospace" font-size="9.00"> </text>
<text text-anchor="start" x="916.6" y="-66.4" font-family="Courier,monospace" font-size="7.00">directory</text>
<text text-anchor="start" x="1063.8" y="-65.8" font-family="Courier,monospace" font-size="9.00"> </text>
</a>
</g>
</g>
<!-- /Users/pmoura/ClioPatria/&#45;&gt;/Users/pmoura/lib/swipl/library/semweb/ -->
<g id="edge4" class="edge">
<title>/Users/pmoura/ClioPatria/&#45;&gt;/Users/pmoura/lib/swipl/library/semweb/</title>
<g id="a_edge4"><a xlink:href="/Users/pmoura/ClioPatria/" xlink:title="loads">
<path fill="none" stroke="black" d="M1172,-190.88C1122.73,-166.79 1032.94,-122.89 979.15,-96.59"/>
<polygon fill="black" stroke="black" points="980.39,-93.3 969.87,-92.05 977.31,-99.59 980.39,-93.3"/>
</a>
</g>
<g id="a_edge4&#45;label"><a xlink:href="/Users/pmoura/ClioPatria/" xlink:title="/Users/pmoura/ClioPatria/">
<text text-anchor="start" x="1079" y="-138.8" font-family="Courier,monospace" font-size="9.00">loads</text>
</a>
</g>
</g>
<!-- /Users/pmoura/ClioPatria/skin/ -->
<g id="node6" class="node">
<title>/Users/pmoura/ClioPatria/skin/</title>
<g id="a_node6"><a xlink:href="/Users/pmoura/ClioPatria/skin/" xlink:title="/Users/pmoura/ClioPatria/skin/">
<polygon fill="lightyellow" stroke="black" stroke-dasharray="5,2" points="1319,-92 1099,-92 1095,-88 1095,-56 1315,-56 1319,-60 1319,-92"/>
<polyline fill="none" stroke="black" stroke-dasharray="5,2" points="1315,-88 1095,-88 "/>
<polyline fill="none" stroke="black" stroke-dasharray="5,2" points="1315,-88 1315,-56 "/>
<polyline fill="none" stroke="black" stroke-dasharray="5,2" points="1315,-88 1319,-92 "/>
<text text-anchor="start" x="1102.8" y="-75.8" font-family="Courier,monospace" font-size="9.00"> </text>
<text text-anchor="start" x="1107.98" y="-75.2" font-family="Courier,monospace" font-size="11.00">/Users/pmoura/ClioPatria/skin/</text>
<text text-anchor="start" x="1305.8" y="-75.8" font-family="Courier,monospace" font-size="9.00"> </text>
<text text-anchor="start" x="1102.8" y="-65.8" font-family="Courier,monospace" font-size="9.00"> </text>
<text text-anchor="start" x="1188.1" y="-66.4" font-family="Courier,monospace" font-size="7.00">directory</text>
<text text-anchor="start" x="1305.8" y="-65.8" font-family="Courier,monospace" font-size="9.00"> </text>
</a>
</g>
</g>
<!-- /Users/pmoura/ClioPatria/&#45;&gt;/Users/pmoura/ClioPatria/skin/ -->
<g id="edge5" class="edge">
<title>/Users/pmoura/ClioPatria/&#45;&gt;/Users/pmoura/ClioPatria/skin/</title>
<g id="a_edge5"><a xlink:href="/Users/pmoura/ClioPatria/" xlink:title="loads">
<path fill="none" stroke="black" d="M1207,-190.88C1207,-168.44 1207,-128.8 1207,-102.21"/>
<polygon fill="black" stroke="black" points="1210.5,-102.05 1207,-92.05 1203.5,-102.05 1210.5,-102.05"/>
</a>
</g>
<g id="a_edge5&#45;label"><a xlink:href="/Users/pmoura/ClioPatria/" xlink:title="/Users/pmoura/ClioPatria/">
<text text-anchor="start" x="1207" y="-138.8" font-family="Courier,monospace" font-size="9.00">loads</text>
</a>
</g>
</g>
<!-- /Users/pmoura/lib/swipl/library/http/ -->
<g id="node7" class="node">
<title>/Users/pmoura/lib/swipl/library/http/</title>
<g id="a_node7"><a xlink:href="/Users/pmoura/lib/swipl/library/http/" xlink:title="/Users/pmoura/lib/swipl/library/http/">
<polygon fill="lightyellow" stroke="black" stroke-dasharray="5,2" points="1607,-92 1341,-92 1337,-88 1337,-56 1603,-56 1607,-60 1607,-92"/>
<polyline fill="none" stroke="black" stroke-dasharray="5,2" points="1603,-88 1337,-88 "/>
<polyline fill="none" stroke="black" stroke-dasharray="5,2" points="1603,-88 1603,-56 "/>
<polyline fill="none" stroke="black" stroke-dasharray="5,2" points="1603,-88 1607,-92 "/>
<text text-anchor="start" x="1344.8" y="-75.8" font-family="Courier,monospace" font-size="9.00"> </text>
<text text-anchor="start" x="1349.88" y="-75.2" font-family="Courier,monospace" font-size="11.00">/Users/pmoura/lib/swipl/library/http/</text>
<text text-anchor="start" x="1593.8" y="-75.8" font-family="Courier,monospace" font-size="9.00"> </text>
<text text-anchor="start" x="1344.8" y="-65.8" font-family="Courier,monospace" font-size="9.00"> </text>
<text text-anchor="start" x="1453.1" y="-66.4" font-family="Courier,monospace" font-size="7.00">directory</text>
<text text-anchor="start" x="1593.8" y="-65.8" font-family="Courier,monospace" font-size="9.00"> </text>
</a>
</g>
</g>
<!-- /Users/pmoura/ClioPatria/&#45;&gt;/Users/pmoura/lib/swipl/library/http/ -->
<g id="edge6" class="edge">
<title>/Users/pmoura/ClioPatria/&#45;&gt;/Users/pmoura/lib/swipl/library/http/</title>
<g id="a_edge6"><a xlink:href="/Users/pmoura/ClioPatria/" xlink:title="loads">
<path fill="none" stroke="black" d="M1241.1,-190.88C1289.1,-166.79 1376.58,-122.89 1428.98,-96.59"/>
<polygon fill="black" stroke="black" points="1430.66,-99.66 1438.03,-92.05 1427.52,-93.41 1430.66,-99.66"/>
</a>
</g>
<g id="a_edge6&#45;label"><a xlink:href="/Users/pmoura/ClioPatria/" xlink:title="/Users/pmoura/ClioPatria/">
<text text-anchor="start" x="1347" y="-138.8" font-family="Courier,monospace" font-size="9.00">loads</text>
</a>
</g>
</g>
<!-- /Users/pmoura/ClioPatria/user/ -->
<g id="node8" class="node">
<title>/Users/pmoura/ClioPatria/user/</title>
<g id="a_node8"><a xlink:href="/Users/pmoura/ClioPatria/user/" xlink:title="/Users/pmoura/ClioPatria/user/">
<polygon fill="lightyellow" stroke="black" stroke-dasharray="5,2" points="1849,-92 1629,-92 1625,-88 1625,-56 1845,-56 1849,-60 1849,-92"/>
<polyline fill="none" stroke="black" stroke-dasharray="5,2" points="1845,-88 1625,-88 "/>
<polyline fill="none" stroke="black" stroke-dasharray="5,2" points="1845,-88 1845,-56 "/>
<polyline fill="none" stroke="black" stroke-dasharray="5,2" points="1845,-88 1849,-92 "/>
<text text-anchor="start" x="1632.8" y="-75.8" font-family="Courier,monospace" font-size="9.00"> </text>
<text text-anchor="start" x="1637.98" y="-75.2" font-family="Courier,monospace" font-size="11.00">/Users/pmoura/ClioPatria/user/</text>
<text text-anchor="start" x="1835.8" y="-75.8" font-family="Courier,monospace" font-size="9.00"> </text>
<text text-anchor="start" x="1632.8" y="-65.8" font-family="Courier,monospace" font-size="9.00"> </text>
<text text-anchor="start" x="1718.1" y="-66.4" font-family="Courier,monospace" font-size="7.00">directory</text>
<text text-anchor="start" x="1835.8" y="-65.8" font-family="Courier,monospace" font-size="9.00"> </text>
</a>
</g>
</g>
<!-- /Users/pmoura/ClioPatria/&#45;&gt;/Users/pmoura/ClioPatria/user/ -->
<g id="edge7" class="edge">
<title>/Users/pmoura/ClioPatria/&#45;&gt;/Users/pmoura/ClioPatria/user/</title>
<g id="a_edge7"><a xlink:href="/Users/pmoura/ClioPatria/" xlink:title="loads">
<path fill="none" stroke="black" d="M1302.6,-191.47C1386.11,-176.07 1510.2,-150.88 1616,-120 1639.42,-113.17 1664.79,-104.01 1686.23,-95.74"/>
<polygon fill="black" stroke="black" points="1687.73,-98.91 1695.78,-92.02 1685.19,-92.39 1687.73,-98.91"/>
</a>
</g>
<g id="a_edge7&#45;label"><a xlink:href="/Users/pmoura/ClioPatria/" xlink:title="/Users/pmoura/ClioPatria/">
<text text-anchor="start" x="1549" y="-138.8" font-family="Courier,monospace" font-size="9.00">loads</text>
</a>
</g>
</g>
<!-- /Users/pmoura/ClioPatria/api/ -->
<g id="node9" class="node">
<title>/Users/pmoura/ClioPatria/api/</title>
<g id="a_node9"><a xlink:href="/Users/pmoura/ClioPatria/api/" xlink:title="/Users/pmoura/ClioPatria/api/">
<polygon fill="lightyellow" stroke="black" stroke-dasharray="5,2" points="2084.5,-92 1871.5,-92 1867.5,-88 1867.5,-56 2080.5,-56 2084.5,-60 2084.5,-92"/>
<polyline fill="none" stroke="black" stroke-dasharray="5,2" points="2080.5,-88 1867.5,-88 "/>
<polyline fill="none" stroke="black" stroke-dasharray="5,2" points="2080.5,-88 2080.5,-56 "/>
<polyline fill="none" stroke="black" stroke-dasharray="5,2" points="2080.5,-88 2084.5,-92 "/>
<text text-anchor="start" x="1875.8" y="-75.8" font-family="Courier,monospace" font-size="9.00"> </text>
<text text-anchor="start" x="1880.78" y="-75.2" font-family="Courier,monospace" font-size="11.00">/Users/pmoura/ClioPatria/api/</text>
<text text-anchor="start" x="2071.8" y="-75.8" font-family="Courier,monospace" font-size="9.00"> </text>
<text text-anchor="start" x="1875.8" y="-65.8" font-family="Courier,monospace" font-size="9.00"> </text>
<text text-anchor="start" x="1957.6" y="-66.4" font-family="Courier,monospace" font-size="7.00">directory</text>
<text text-anchor="start" x="2071.8" y="-65.8" font-family="Courier,monospace" font-size="9.00"> </text>
</a>
</g>
</g>
<!-- /Users/pmoura/ClioPatria/&#45;&gt;/Users/pmoura/ClioPatria/api/ -->
<g id="edge8" class="edge">
<title>/Users/pmoura/ClioPatria/&#45;&gt;/Users/pmoura/ClioPatria/api/</title>
<g id="a_edge8"><a xlink:href="/Users/pmoura/ClioPatria/" xlink:title="loads">
<path fill="none" stroke="black" d="M1302.64,-201.98C1430.73,-192.36 1664.31,-169.32 1858,-120 1881.77,-113.95 1907.3,-104.59 1928.51,-95.98"/>
<polygon fill="black" stroke="black" points="1930.02,-99.14 1937.93,-92.08 1927.35,-92.67 1930.02,-99.14"/>
</a>
</g>
<g id="a_edge8&#45;label"><a xlink:href="/Users/pmoura/ClioPatria/" xlink:title="/Users/pmoura/ClioPatria/">
<text text-anchor="start" x="1771" y="-138.8" font-family="Courier,monospace" font-size="9.00">loads</text>
</a>
</g>
</g>
<!-- /Users/pmoura/ClioPatria/applications/ -->
<g id="node10" class="node">
<title>/Users/pmoura/ClioPatria/applications/</title>
<g id="a_node10"><a xlink:href="/Users/pmoura/ClioPatria/applications/" xlink:title="/Users/pmoura/ClioPatria/applications/">
<polygon fill="lightyellow" stroke="black" stroke-dasharray="5,2" points="2379,-92 2107,-92 2103,-88 2103,-56 2375,-56 2379,-60 2379,-92"/>
<polyline fill="none" stroke="black" stroke-dasharray="5,2" points="2375,-88 2103,-88 "/>
<polyline fill="none" stroke="black" stroke-dasharray="5,2" points="2375,-88 2375,-56 "/>
<polyline fill="none" stroke="black" stroke-dasharray="5,2" points="2375,-88 2379,-92 "/>
<text text-anchor="start" x="2110.8" y="-75.8" font-family="Courier,monospace" font-size="9.00"> </text>
<text text-anchor="start" x="2115.58" y="-75.2" font-family="Courier,monospace" font-size="11.00">/Users/pmoura/ClioPatria/applications/</text>
<text text-anchor="start" x="2365.8" y="-75.8" font-family="Courier,monospace" font-size="9.00"> </text>
<text text-anchor="start" x="2110.8" y="-65.8" font-family="Courier,monospace" font-size="9.00"> </text>
<text text-anchor="start" x="2222.1" y="-66.4" font-family="Courier,monospace" font-size="7.00">directory</text>
<text text-anchor="start" x="2365.8" y="-65.8" font-family="Courier,monospace" font-size="9.00"> </text>
</a>
</g>
</g>
<!-- /Users/pmoura/ClioPatria/&#45;&gt;/Users/pmoura/ClioPatria/applications/ -->
<g id="edge9" class="edge">
<title>/Users/pmoura/ClioPatria/&#45;&gt;/Users/pmoura/ClioPatria/applications/</title>
<g id="a_edge9"><a xlink:href="/Users/pmoura/ClioPatria/" xlink:title="loads">
<path fill="none" stroke="black" d="M1302.76,-204.71C1466.39,-197.72 1809.7,-177.03 2094,-120 2124.3,-113.92 2157.26,-104.14 2184.28,-95.24"/>
<polygon fill="black" stroke="black" points="2185.57,-98.5 2193.95,-92.01 2183.35,-91.86 2185.57,-98.5"/>
</a>
</g>
<g id="a_edge9&#45;label"><a xlink:href="/Users/pmoura/ClioPatria/" xlink:title="/Users/pmoura/ClioPatria/">
<text text-anchor="start" x="1998" y="-138.8" font-family="Courier,monospace" font-size="9.00">loads</text>
</a>
</g>
</g>
</g>
</svg>
