<?xml version="1.0" encoding="UTF-8" standalone="no"?>
<!DOCTYPE svg PUBLIC "-//W3C//DTD SVG 1.1//EN"
 "http://www.w3.org/Graphics/SVG/1.1/DTD/svg11.dtd">
<!-- Generated by graphviz version 2.41.20190410.0829 (20190410.0829)
 -->
<!-- Title: git.pl Pages: 1 -->
<svg width="954pt" height="589pt"
 viewBox="72.00 72.00 882.00 517.00" xmlns="http://www.w3.org/2000/svg" xmlns:xlink="http://www.w3.org/1999/xlink">
<g id="graph0" class="graph" transform="scale(1 1) rotate(0) translate(76 513)">
<title>git.pl</title>
<polygon fill="white" stroke="transparent" points="-4,4 -4,-441 806,-441 806,4 -4,4"/>
<text text-anchor="start" x="8" y="-16" font-family="Courier,monospace" font-size="10.00" fill="#8b8989">ClioPatria &#45; an RDF application platform</text>
<text text-anchor="start" x="8" y="-6" font-family="Courier,monospace" font-size="10.00" fill="#8b8989">Generated on 2019/04/17, 13:04</text>
<g id="clust1" class="cluster">
<title>cluster_file_/Users/pmoura/ClioPatria/lib/git.pl</title>
<g id="a_clust1"><a xlink:href="https://github.com/ClioPatria/ClioPatria/tree/add57aa2039eed4033cf96e96c293b2052e88f41/lib/git.pl" xlink:title="https://github.com/ClioPatria/ClioPatria/tree/add57aa2039eed4033cf96e96c293b2052e88f41/lib/git.pl">
<path fill="snow" stroke="#8b8989" d="M20,-36C20,-36 782,-36 782,-36 788,-36 794,-42 794,-48 794,-48 794,-417 794,-417 794,-423 788,-429 782,-429 782,-429 20,-429 20,-429 14,-429 8,-423 8,-417 8,-417 8,-48 8,-48 8,-42 14,-36 20,-36"/>
<text text-anchor="middle" x="34" y="-417" font-family="Courier,monospace" font-size="10.00" fill="#8b8989">git.pl</text>
</a>
</g>
</g>
<g id="clust2" class="cluster">
<title>cluster_other</title>
<g id="a_clust2"><a xlink:title="(external entities)">
<path fill="white" stroke="#8b8989" d="M30,-46C30,-46 708,-46 708,-46 714,-46 720,-52 720,-58 720,-58 720,-108 720,-108 720,-114 714,-120 708,-120 708,-120 30,-120 30,-120 24,-120 18,-114 18,-108 18,-108 18,-58 18,-58 18,-52 24,-46 30,-46"/>
<text text-anchor="middle" x="83.01" y="-108" font-family="Courier,monospace" font-size="10.00" fill="#8b8989">(external entities)</text>
</a>
</g>
</g>
<!-- clio_git -->
<g id="node1" class="node">
<title>clio_git</title>
<g id="a_node1"><a xlink:title="module">
<polygon fill="gainsboro" stroke="black" points="525.5,-401 392.5,-401 392.5,-405 380.5,-405 380.5,-191 525.5,-191 525.5,-401"/>
<polyline fill="none" stroke="black" points="380.5,-401 392.5,-401 "/>
<g id="a_node1_0"><a xlink:href="clio_git_module_xref_diagram.svg" xlink:title="Zoom">
<image xlink:href="zoom.png" width="11px" height="11px" preserveAspectRatio="xMinYMin meet" x="389" y="-397"/>
</a>
</g>
<text text-anchor="start" x="391.8" y="-377.8" font-family="Courier,monospace" font-size="9.00"> </text>
<text text-anchor="start" x="430.1" y="-377.2" font-family="Courier,monospace" font-size="11.00">clio_git</text>
<text text-anchor="start" x="512.8" y="-377.8" font-family="Courier,monospace" font-size="9.00"> </text>
<text text-anchor="start" x="391.8" y="-367.8" font-family="Courier,monospace" font-size="9.00"> </text>
<text text-anchor="start" x="443.9" y="-368.4" font-family="Courier,monospace" font-size="7.00">module</text>
<text text-anchor="start" x="512.8" y="-367.8" font-family="Courier,monospace" font-size="9.00"> </text>
<text text-anchor="start" x="391.8" y="-358.8" font-family="Courier,monospace" font-size="9.00"> </text>
<text text-anchor="start" x="391.8" y="-349.8" font-family="Courier,monospace" font-size="9.00"> </text>
<text text-anchor="start" x="415.99" y="-349.8" font-family="Courier,monospace" font-size="9.00">git_open_file/4</text>
<text text-anchor="start" x="512.8" y="-349.8" font-family="Courier,monospace" font-size="9.00"> </text>
<text text-anchor="start" x="391.8" y="-340.8" font-family="Courier,monospace" font-size="9.00"> </text>
<text text-anchor="start" x="413.29" y="-340.8" font-family="Courier,monospace" font-size="9.00">git_remote_url/3</text>
<text text-anchor="start" x="512.8" y="-340.8" font-family="Courier,monospace" font-size="9.00"> </text>
<text text-anchor="start" x="391.8" y="-331.8" font-family="Courier,monospace" font-size="9.00"> </text>
<text text-anchor="start" x="421.39" y="-331.8" font-family="Courier,monospace" font-size="9.00">git_ls_tree/2</text>
<text text-anchor="start" x="512.8" y="-331.8" font-family="Courier,monospace" font-size="9.00"> </text>
<text text-anchor="start" x="391.8" y="-322.8" font-family="Courier,monospace" font-size="9.00"> </text>
<text text-anchor="start" x="429.5" y="-322.8" font-family="Courier,monospace" font-size="9.00">git_hash/2</text>
<text text-anchor="start" x="512.8" y="-322.8" font-family="Courier,monospace" font-size="9.00"> </text>
<text text-anchor="start" x="391.8" y="-313.8" font-family="Courier,monospace" font-size="9.00"> </text>
<text text-anchor="start" x="418.69" y="-313.8" font-family="Courier,monospace" font-size="9.00">git_describe/2</text>
<text text-anchor="start" x="512.8" y="-313.8" font-family="Courier,monospace" font-size="9.00"> </text>
<text text-anchor="start" x="391.8" y="-304.8" font-family="Courier,monospace" font-size="9.00"> </text>
<text text-anchor="start" x="415.99" y="-304.8" font-family="Courier,monospace" font-size="9.00">git_ls_remote/3</text>
<text text-anchor="start" x="512.8" y="-304.8" font-family="Courier,monospace" font-size="9.00"> </text>
<text text-anchor="start" x="391.8" y="-295.8" font-family="Courier,monospace" font-size="9.00"> </text>
<text text-anchor="start" x="402.49" y="-295.8" font-family="Courier,monospace" font-size="9.00">git_process_output/3</text>
<text text-anchor="start" x="512.8" y="-295.8" font-family="Courier,monospace" font-size="9.00"> </text>
<text text-anchor="start" x="391.8" y="-286.8" font-family="Courier,monospace" font-size="9.00"> </text>
<text text-anchor="start" x="407.89" y="-286.8" font-family="Courier,monospace" font-size="9.00">is_git_directory/1</text>
<text text-anchor="start" x="512.8" y="-286.8" font-family="Courier,monospace" font-size="9.00"> </text>
<text text-anchor="start" x="391.8" y="-277.8" font-family="Courier,monospace" font-size="9.00"> </text>
<text text-anchor="start" x="443" y="-277.8" font-family="Courier,monospace" font-size="9.00">git/2</text>
<text text-anchor="start" x="512.8" y="-277.8" font-family="Courier,monospace" font-size="9.00"> </text>
<text text-anchor="start" x="391.8" y="-268.8" font-family="Courier,monospace" font-size="9.00"> </text>
<text text-anchor="start" x="399.79" y="-268.8" font-family="Courier,monospace" font-size="9.00">git_remote_branches/2</text>
<text text-anchor="start" x="512.8" y="-268.8" font-family="Courier,monospace" font-size="9.00"> </text>
<text text-anchor="start" x="391.8" y="-259.8" font-family="Courier,monospace" font-size="9.00"> </text>
<text text-anchor="start" x="418.69" y="-259.8" font-family="Courier,monospace" font-size="9.00">git_branches/2</text>
<text text-anchor="start" x="512.8" y="-259.8" font-family="Courier,monospace" font-size="9.00"> </text>
<text text-anchor="start" x="391.8" y="-250.8" font-family="Courier,monospace" font-size="9.00"> </text>
<text text-anchor="start" x="410.59" y="-250.8" font-family="Courier,monospace" font-size="9.00">git_commit_data/3</text>
<text text-anchor="start" x="512.8" y="-250.8" font-family="Courier,monospace" font-size="9.00"> </text>
<text text-anchor="start" x="391.8" y="-241.8" font-family="Courier,monospace" font-size="9.00"> </text>
<text text-anchor="start" x="418.69" y="-241.8" font-family="Courier,monospace" font-size="9.00">git_shortlog/3</text>
<text text-anchor="start" x="512.8" y="-241.8" font-family="Courier,monospace" font-size="9.00"> </text>
<text text-anchor="start" x="391.8" y="-232.8" font-family="Courier,monospace" font-size="9.00"> </text>
<text text-anchor="start" x="418.69" y="-232.8" font-family="Courier,monospace" font-size="9.00">git_log_data/3</text>
<text text-anchor="start" x="512.8" y="-232.8" font-family="Courier,monospace" font-size="9.00"> </text>
<text text-anchor="start" x="391.8" y="-223.8" font-family="Courier,monospace" font-size="9.00"> </text>
<text text-anchor="start" x="402.49" y="-223.8" font-family="Courier,monospace" font-size="9.00">git_tags_on_branch/3</text>
<text text-anchor="start" x="512.8" y="-223.8" font-family="Courier,monospace" font-size="9.00"> </text>
<text text-anchor="start" x="391.8" y="-214.8" font-family="Courier,monospace" font-size="9.00"> </text>
<text text-anchor="start" x="402.49" y="-214.8" font-family="Courier,monospace" font-size="9.00">git_default_branch/2</text>
<text text-anchor="start" x="512.8" y="-214.8" font-family="Courier,monospace" font-size="9.00"> </text>
<text text-anchor="start" x="391.8" y="-205.8" font-family="Courier,monospace" font-size="9.00"> </text>
<text text-anchor="start" x="429.5" y="-205.8" font-family="Courier,monospace" font-size="9.00">git_show/4</text>
<text text-anchor="start" x="512.8" y="-205.8" font-family="Courier,monospace" font-size="9.00"> </text>
<text text-anchor="start" x="391.8" y="-196.8" font-family="Courier,monospace" font-size="9.00"> </text>
<text text-anchor="start" x="413.29" y="-196.8" font-family="Courier,monospace" font-size="9.00">prolog:message/3</text>
<text text-anchor="start" x="512.8" y="-196.8" font-family="Courier,monospace" font-size="9.00"> </text>
</a>
</g>
</g>
<!-- prolog_dialect -->
<g id="node2" class="node">
<title>prolog_dialect</title>
<g id="a_node2"><a xlink:title="module">
<polygon fill="gainsboro" stroke="black" stroke-dasharray="5,2" points="146,-92 40,-92 40,-96 28,-96 28,-56 146,-56 146,-92"/>
<polyline fill="none" stroke="black" stroke-dasharray="5,2" points="28,-92 40,-92 "/>
<text text-anchor="start" x="35.8" y="-75.8" font-family="Courier,monospace" font-size="9.00"> </text>
<text text-anchor="start" x="40.79" y="-75.2" font-family="Courier,monospace" font-size="11.00">prolog_dialect</text>
<text text-anchor="start" x="132.8" y="-75.8" font-family="Courier,monospace" font-size="9.00"> </text>
<text text-anchor="start" x="35.8" y="-65.8" font-family="Courier,monospace" font-size="9.00"> </text>
<text text-anchor="start" x="74.4" y="-66.4" font-family="Courier,monospace" font-size="7.00">module</text>
<text text-anchor="start" x="132.8" y="-65.8" font-family="Courier,monospace" font-size="9.00"> </text>
</a>
</g>
</g>
<!-- clio_git&#45;&gt;prolog_dialect -->
<g id="edge2" class="edge">
<title>clio_git&#45;&gt;prolog_dialect</title>
<path fill="none" stroke="black" d="M380.39,-253.81C319.65,-219.01 230.97,-167.4 155,-120 144.28,-113.31 132.77,-105.82 122.32,-98.89"/>
<polygon fill="black" stroke="black" points="122.28,-98.87 115.07,-98.86 112.3,-92.21 122.28,-98.87"/>
<g id="a_edge2&#45;label"><a xlink:title="use_module">
<text text-anchor="middle" x="222" y="-138.8" font-family="Courier,monospace" font-size="9.00">use_module</text>
</a>
</g>
</g>
<!-- swi_option -->
<g id="node3" class="node">
<title>swi_option</title>
<g id="a_node3"><a xlink:title="module">
<polygon fill="gainsboro" stroke="black" stroke-dasharray="5,2" points="256,-92 176,-92 176,-96 164,-96 164,-56 256,-56 256,-92"/>
<polyline fill="none" stroke="black" stroke-dasharray="5,2" points="164,-92 176,-92 "/>
<text text-anchor="start" x="171.8" y="-75.8" font-family="Courier,monospace" font-size="9.00"> </text>
<text text-anchor="start" x="176.99" y="-75.2" font-family="Courier,monospace" font-size="11.00">swi_option</text>
<text text-anchor="start" x="242.8" y="-75.8" font-family="Courier,monospace" font-size="9.00"> </text>
<text text-anchor="start" x="171.8" y="-65.8" font-family="Courier,monospace" font-size="9.00"> </text>
<text text-anchor="start" x="197.4" y="-66.4" font-family="Courier,monospace" font-size="7.00">module</text>
<text text-anchor="start" x="242.8" y="-65.8" font-family="Courier,monospace" font-size="9.00"> </text>
</a>
</g>
</g>
<!-- clio_git&#45;&gt;swi_option -->
<g id="edge3" class="edge">
<title>clio_git&#45;&gt;swi_option</title>
<path fill="none" stroke="black" d="M380.42,-229.29C332.48,-185.89 272.35,-131.45 237.83,-100.2"/>
<polygon fill="black" stroke="black" points="237.71,-100.08 230.57,-99.02 228.81,-92.03 237.71,-100.08"/>
<g id="a_edge3&#45;label"><a xlink:title="use_module">
<text text-anchor="middle" x="308" y="-138.8" font-family="Courier,monospace" font-size="9.00">use_module</text>
</a>
</g>
</g>
<!-- process -->
<g id="node4" class="node">
<title>process</title>
<g id="a_node4"><a xlink:title="module">
<polygon fill="gainsboro" stroke="black" stroke-dasharray="5,2" points="346,-92 286,-92 286,-96 274,-96 274,-56 346,-56 346,-92"/>
<polyline fill="none" stroke="black" stroke-dasharray="5,2" points="274,-92 286,-92 "/>
<text text-anchor="start" x="281.8" y="-75.8" font-family="Courier,monospace" font-size="9.00"> </text>
<text text-anchor="start" x="286.9" y="-75.2" font-family="Courier,monospace" font-size="11.00">process</text>
<text text-anchor="start" x="332.8" y="-75.8" font-family="Courier,monospace" font-size="9.00"> </text>
<text text-anchor="start" x="281.8" y="-65.8" font-family="Courier,monospace" font-size="9.00"> </text>
<text text-anchor="start" x="297.4" y="-66.4" font-family="Courier,monospace" font-size="7.00">module</text>
<text text-anchor="start" x="332.8" y="-65.8" font-family="Courier,monospace" font-size="9.00"> </text>
</a>
</g>
</g>
<!-- clio_git&#45;&gt;process -->
<g id="edge4" class="edge">
<title>clio_git&#45;&gt;process</title>
<path fill="none" stroke="black" d="M385.27,-190.8C364.05,-158.16 342.39,-124.83 327.79,-102.37"/>
<polygon fill="black" stroke="black" points="327.76,-102.32 321.13,-99.47 321.22,-92.26 327.76,-102.32"/>
<g id="a_edge4&#45;label"><a xlink:title="use_module">
<text text-anchor="middle" x="379" y="-138.8" font-family="Courier,monospace" font-size="9.00">use_module</text>
</a>
</g>
</g>
<!-- read_util -->
<g id="node5" class="node">
<title>read_util</title>
<g id="a_node5"><a xlink:title="module">
<polygon fill="gainsboro" stroke="black" stroke-dasharray="5,2" points="449.5,-92 376.5,-92 376.5,-96 364.5,-96 364.5,-56 449.5,-56 449.5,-92"/>
<polyline fill="none" stroke="black" stroke-dasharray="5,2" points="364.5,-92 376.5,-92 "/>
<text text-anchor="start" x="372.8" y="-75.8" font-family="Courier,monospace" font-size="9.00"> </text>
<text text-anchor="start" x="377.8" y="-75.2" font-family="Courier,monospace" font-size="11.00">read_util</text>
<text text-anchor="start" x="436.8" y="-75.8" font-family="Courier,monospace" font-size="9.00"> </text>
<text text-anchor="start" x="372.8" y="-65.8" font-family="Courier,monospace" font-size="9.00"> </text>
<text text-anchor="start" x="394.9" y="-66.4" font-family="Courier,monospace" font-size="7.00">module</text>
<text text-anchor="start" x="436.8" y="-65.8" font-family="Courier,monospace" font-size="9.00"> </text>
</a>
</g>
</g>
<!-- clio_git&#45;&gt;read_util -->
<g id="edge5" class="edge">
<title>clio_git&#45;&gt;read_util</title>
<path fill="none" stroke="black" d="M431.21,-190.8C424.57,-159.05 417.8,-126.65 413.11,-104.23"/>
<polygon fill="black" stroke="black" points="413.06,-104 407.92,-98.95 410.61,-92.26 413.06,-104"/>
<g id="a_edge5&#45;label"><a xlink:title="use_module">
<text text-anchor="middle" x="447" y="-138.8" font-family="Courier,monospace" font-size="9.00">use_module</text>
</a>
</g>
</g>
<!-- dcg_basics -->
<g id="node6" class="node">
<title>dcg_basics</title>
<g id="a_node6"><a xlink:title="module">
<polygon fill="gainsboro" stroke="black" stroke-dasharray="5,2" points="560,-92 480,-92 480,-96 468,-96 468,-56 560,-56 560,-92"/>
<polyline fill="none" stroke="black" stroke-dasharray="5,2" points="468,-92 480,-92 "/>
<text text-anchor="start" x="475.8" y="-75.8" font-family="Courier,monospace" font-size="9.00"> </text>
<text text-anchor="start" x="480.99" y="-75.2" font-family="Courier,monospace" font-size="11.00">dcg_basics</text>
<text text-anchor="start" x="546.8" y="-75.8" font-family="Courier,monospace" font-size="9.00"> </text>
<text text-anchor="start" x="475.8" y="-65.8" font-family="Courier,monospace" font-size="9.00"> </text>
<text text-anchor="start" x="501.4" y="-66.4" font-family="Courier,monospace" font-size="7.00">module</text>
<text text-anchor="start" x="546.8" y="-65.8" font-family="Courier,monospace" font-size="9.00"> </text>
</a>
</g>
</g>
<!-- clio_git&#45;&gt;dcg_basics -->
<g id="edge6" class="edge">
<title>clio_git&#45;&gt;dcg_basics</title>
<path fill="none" stroke="black" d="M481.89,-190.8C490.74,-158.9 499.76,-126.35 505.98,-103.91"/>
<polygon fill="black" stroke="black" points="506.01,-103.82 503.76,-96.97 509.21,-92.26 506.01,-103.82"/>
<g id="a_edge6&#45;label"><a xlink:title="use_module">
<text text-anchor="middle" x="522" y="-138.8" font-family="Courier,monospace" font-size="9.00">use_module</text>
</a>
</g>
</g>
<!-- git -->
<g id="node7" class="node">
<title>git</title>
<g id="a_node7"><a xlink:title="module">
<polygon fill="gainsboro" stroke="black" stroke-dasharray="5,2" points="632,-92 590,-92 590,-96 578,-96 578,-56 632,-56 632,-92"/>
<polyline fill="none" stroke="black" stroke-dasharray="5,2" points="578,-92 590,-92 "/>
<text text-anchor="start" x="587.8" y="-75.8" font-family="Courier,monospace" font-size="9.00"> </text>
<text text-anchor="start" x="595.6" y="-75.2" font-family="Courier,monospace" font-size="11.00">git</text>
<text text-anchor="start" x="617.8" y="-75.8" font-family="Courier,monospace" font-size="9.00"> </text>
<text text-anchor="start" x="587.8" y="-65.8" font-family="Courier,monospace" font-size="9.00"> </text>
<text text-anchor="start" x="592.9" y="-66.4" font-family="Courier,monospace" font-size="7.00">module</text>
<text text-anchor="start" x="617.8" y="-65.8" font-family="Courier,monospace" font-size="9.00"> </text>
</a>
</g>
</g>
<!-- clio_git&#45;&gt;git -->
<g id="edge7" class="edge">
<title>clio_git&#45;&gt;git</title>
<path fill="none" stroke="black" d="M524.99,-190.8C547.55,-158.16 570.57,-124.83 586.09,-102.37"/>
<polygon fill="black" stroke="black" points="586.25,-102.13 586.37,-94.92 593.08,-92.26 586.25,-102.13"/>
<g id="a_edge7&#45;label"><a xlink:title="use_module">
<text text-anchor="middle" x="587" y="-138.8" font-family="Courier,monospace" font-size="9.00">use_module</text>
</a>
</g>
</g>
<!-- lists -->
<g id="node8" class="node">
<title>lists</title>
<g id="a_node8"><a xlink:title="module">
<polygon fill="gainsboro" stroke="black" stroke-dasharray="5,2" points="709.5,-92 662.5,-92 662.5,-96 650.5,-96 650.5,-56 709.5,-56 709.5,-92"/>
<polyline fill="none" stroke="black" stroke-dasharray="5,2" points="650.5,-92 662.5,-92 "/>
<text text-anchor="start" x="658.8" y="-75.8" font-family="Courier,monospace" font-size="9.00"> </text>
<text text-anchor="start" x="664" y="-75.2" font-family="Courier,monospace" font-size="11.00">lists</text>
<text text-anchor="start" x="696.8" y="-75.8" font-family="Courier,monospace" font-size="9.00"> </text>
<text text-anchor="start" x="658.8" y="-65.8" font-family="Courier,monospace" font-size="9.00"> </text>
<text text-anchor="start" x="667.9" y="-66.4" font-family="Courier,monospace" font-size="7.00">module</text>
<text text-anchor="start" x="696.8" y="-65.8" font-family="Courier,monospace" font-size="9.00"> </text>
</a>
</g>
</g>
<!-- clio_git&#45;&gt;lists -->
<g id="edge8" class="edge">
<title>clio_git&#45;&gt;lists</title>
<path fill="none" stroke="black" d="M525.68,-232.52C555.04,-206.49 588.81,-175.49 618,-146 628.85,-135.04 630.84,-131.61 641,-120 646.27,-113.98 651.93,-107.48 657.24,-101.35"/>
<polygon fill="black" stroke="black" points="657.37,-101.2 658.27,-94.05 665.23,-92.13 657.37,-101.2"/>
<g id="a_edge8&#45;label"><a xlink:title="use_module">
<text text-anchor="middle" x="653" y="-138.8" font-family="Courier,monospace" font-size="9.00">use_module</text>
</a>
</g>
</g>
<!-- prolog -->
<g id="node9" class="node">
<title>prolog</title>
<ellipse fill="white" stroke="black" cx="757" cy="-74" rx="27.41" ry="18"/>
<text text-anchor="middle" x="757" y="-71.3" font-family="Courier,monospace" font-size="9.00">prolog</text>
</g>
<!-- clio_git&#45;&gt;prolog -->
<g id="edge1" class="edge">
<title>clio_git&#45;&gt;prolog</title>
<path fill="none" stroke="black" d="M525.72,-257.76C583.42,-226.03 664.07,-176.65 724,-120 730.34,-114.01 736.3,-106.67 741.36,-99.67"/>
<polygon fill="black" stroke="black" points="750.14,-93.1 741.59,-99.35 744.38,-89.13 750.14,-93.1"/>
<g id="a_edge1&#45;label"><a xlink:title="provides">
<text text-anchor="middle" x="725.6" y="-138.8" font-family="Courier,monospace" font-size="9.00">provides</text>
</a>
</g>
</g>
</g>
</svg>
