<?xml version="1.0" encoding="UTF-8" standalone="no"?>
<!DOCTYPE svg PUBLIC "-//W3C//DTD SVG 1.1//EN"
 "http://www.w3.org/Graphics/SVG/1.1/DTD/svg11.dtd">
<!-- Generated by graphviz version 2.41.20190410.0829 (20190410.0829)
 -->
<!-- Title: graphviz.pl Pages: 1 -->
<svg width="1635pt" height="454pt"
 viewBox="72.00 72.00 1563.00 382.00" xmlns="http://www.w3.org/2000/svg" xmlns:xlink="http://www.w3.org/1999/xlink">
<g id="graph0" class="graph" transform="scale(1 1) rotate(0) translate(76 378)">
<title>graphviz.pl</title>
<polygon fill="white" stroke="transparent" points="-4,4 -4,-306 1487,-306 1487,4 -4,4"/>
<text text-anchor="start" x="8" y="-16" font-family="Courier,monospace" font-size="10.00" fill="#8b8989">ClioPatria &#45; an RDF application platform</text>
<text text-anchor="start" x="8" y="-6" font-family="Courier,monospace" font-size="10.00" fill="#8b8989">Generated on 2019/04/17, 13:04</text>
<g id="clust1" class="cluster">
<title>cluster_file_/Users/pmoura/ClioPatria/components/graphviz.pl</title>
<g id="a_clust1"><a xlink:href="https://github.com/ClioPatria/ClioPatria/tree/add57aa2039eed4033cf96e96c293b2052e88f41/components/graphviz.pl" xlink:title="https://github.com/ClioPatria/ClioPatria/tree/add57aa2039eed4033cf96e96c293b2052e88f41/components/graphviz.pl">
<path fill="snow" stroke="#8b8989" d="M20,-36C20,-36 1463,-36 1463,-36 1469,-36 1475,-42 1475,-48 1475,-48 1475,-282 1475,-282 1475,-288 1469,-294 1463,-294 1463,-294 20,-294 20,-294 14,-294 8,-288 8,-282 8,-282 8,-48 8,-48 8,-42 14,-36 20,-36"/>
<text text-anchor="middle" x="49.01" y="-282" font-family="Courier,monospace" font-size="10.00" fill="#8b8989">graphviz.pl</text>
</a>
</g>
</g>
<g id="clust2" class="cluster">
<title>cluster_other</title>
<g id="a_clust2"><a xlink:title="(external entities)">
<path fill="white" stroke="#8b8989" d="M30,-46C30,-46 1453,-46 1453,-46 1459,-46 1465,-52 1465,-58 1465,-58 1465,-108 1465,-108 1465,-114 1459,-120 1453,-120 1453,-120 30,-120 30,-120 24,-120 18,-114 18,-108 18,-108 18,-58 18,-58 18,-52 24,-46 30,-46"/>
<text text-anchor="middle" x="83.01" y="-108" font-family="Courier,monospace" font-size="10.00" fill="#8b8989">(external entities)</text>
</a>
</g>
</g>
<!-- cp_graphviz -->
<g id="node1" class="node">
<title>cp_graphviz</title>
<g id="a_node1"><a xlink:title="module">
<polygon fill="gainsboro" stroke="black" points="814.5,-266 659.5,-266 659.5,-270 647.5,-270 647.5,-191 814.5,-191 814.5,-266"/>
<polyline fill="none" stroke="black" points="647.5,-266 659.5,-266 "/>
<g id="a_node1_0"><a xlink:href="cp_graphviz_module_xref_diagram.svg" xlink:title="Zoom">
<image xlink:href="zoom.png" width="11px" height="11px" preserveAspectRatio="xMinYMin meet" x="656" y="-261.5"/>
</a>
</g>
<text text-anchor="start" x="658.8" y="-242.3" font-family="Courier,monospace" font-size="9.00"> </text>
<text text-anchor="start" x="698.19" y="-241.7" font-family="Courier,monospace" font-size="11.00">cp_graphviz</text>
<text text-anchor="start" x="801.8" y="-242.3" font-family="Courier,monospace" font-size="9.00"> </text>
<text text-anchor="start" x="658.8" y="-232.3" font-family="Courier,monospace" font-size="9.00"> </text>
<text text-anchor="start" x="721.9" y="-232.9" font-family="Courier,monospace" font-size="7.00">module</text>
<text text-anchor="start" x="801.8" y="-232.3" font-family="Courier,monospace" font-size="9.00"> </text>
<text text-anchor="start" x="658.8" y="-223.3" font-family="Courier,monospace" font-size="9.00"> </text>
<text text-anchor="start" x="658.8" y="-214.3" font-family="Courier,monospace" font-size="9.00"> </text>
<text text-anchor="start" x="691.29" y="-214.3" font-family="Courier,monospace" font-size="9.00">graphviz_graph/4</text>
<text text-anchor="start" x="801.8" y="-214.3" font-family="Courier,monospace" font-size="9.00"> </text>
<text text-anchor="start" x="658.8" y="-205.3" font-family="Courier,monospace" font-size="9.00"> </text>
<text text-anchor="start" x="675.09" y="-205.3" font-family="Courier,monospace" font-size="9.00">reply_graphviz_graph/3</text>
<text text-anchor="start" x="801.8" y="-205.3" font-family="Courier,monospace" font-size="9.00"> </text>
<text text-anchor="start" x="658.8" y="-196.3" font-family="Courier,monospace" font-size="9.00"> </text>
<text text-anchor="start" x="666.99" y="-196.3" font-family="Courier,monospace" font-size="9.00">html_head:html_resource/3</text>
<text text-anchor="start" x="801.8" y="-196.3" font-family="Courier,monospace" font-size="9.00"> </text>
</a>
</g>
</g>
<!-- html_head -->
<g id="node2" class="node">
<title>html_head</title>
<g id="a_node2"><a xlink:title="module">
<polygon fill="gainsboro" stroke="black" stroke-dasharray="5,2" points="113.5,-92 40.5,-92 40.5,-96 28.5,-96 28.5,-56 113.5,-56 113.5,-92"/>
<polyline fill="none" stroke="black" stroke-dasharray="5,2" points="28.5,-92 40.5,-92 "/>
<text text-anchor="start" x="36.8" y="-75.8" font-family="Courier,monospace" font-size="9.00"> </text>
<text text-anchor="start" x="41.8" y="-75.2" font-family="Courier,monospace" font-size="11.00">html_head</text>
<text text-anchor="start" x="100.8" y="-75.8" font-family="Courier,monospace" font-size="9.00"> </text>
<text text-anchor="start" x="36.8" y="-65.8" font-family="Courier,monospace" font-size="9.00"> </text>
<text text-anchor="start" x="58.9" y="-66.4" font-family="Courier,monospace" font-size="7.00">module</text>
<text text-anchor="start" x="100.8" y="-65.8" font-family="Courier,monospace" font-size="9.00"> </text>
</a>
</g>
</g>
<!-- cp_graphviz&#45;&gt;html_head -->
<g id="edge1" class="edge">
<title>cp_graphviz&#45;&gt;html_head</title>
<path fill="none" stroke="black" d="M647.18,-216.67C545.88,-202.98 370.49,-177.39 221.79,-146 177.37,-136.62 163.16,-141.18 123,-120 112.65,-114.54 102.61,-106.67 94.15,-99.03"/>
<polygon fill="black" stroke="black" points="89.26,-89.61 94.14,-99.02 84.46,-94.7 89.26,-89.61"/>
<g id="a_edge1&#45;label"><a xlink:title="provides">
<text text-anchor="middle" x="242.6" y="-138.8" font-family="Courier,monospace" font-size="9.00">provides</text>
</a>
</g>
</g>
<!-- settings -->
<g id="node3" class="node">
<title>settings</title>
<g id="a_node3"><a xlink:title="module">
<polygon fill="gainsboro" stroke="black" stroke-dasharray="5,2" points="210,-92 144,-92 144,-96 132,-96 132,-56 210,-56 210,-92"/>
<polyline fill="none" stroke="black" stroke-dasharray="5,2" points="132,-92 144,-92 "/>
<text text-anchor="start" x="139.8" y="-75.8" font-family="Courier,monospace" font-size="9.00"> </text>
<text text-anchor="start" x="144.6" y="-75.2" font-family="Courier,monospace" font-size="11.00">settings</text>
<text text-anchor="start" x="196.8" y="-75.8" font-family="Courier,monospace" font-size="9.00"> </text>
<text text-anchor="start" x="139.8" y="-65.8" font-family="Courier,monospace" font-size="9.00"> </text>
<text text-anchor="start" x="158.4" y="-66.4" font-family="Courier,monospace" font-size="7.00">module</text>
<text text-anchor="start" x="196.8" y="-65.8" font-family="Courier,monospace" font-size="9.00"> </text>
</a>
</g>
</g>
<!-- cp_graphviz&#45;&gt;settings -->
<g id="edge2" class="edge">
<title>cp_graphviz&#45;&gt;settings</title>
<path fill="none" stroke="black" d="M647.12,-211.25C565.88,-195.33 439.28,-170.02 329.99,-146 280.93,-135.22 264.38,-143.53 220,-120 210.71,-115.08 201.84,-107.97 194.25,-100.85"/>
<polygon fill="black" stroke="black" points="194.19,-100.79 187.12,-99.38 185.7,-92.31 194.19,-100.79"/>
<g id="a_edge2&#45;label"><a xlink:title="use_module">
<text text-anchor="middle" x="356" y="-138.8" font-family="Courier,monospace" font-size="9.00">use_module</text>
</a>
</g>
</g>
<!-- http_dispatch -->
<g id="node4" class="node">
<title>http_dispatch</title>
<g id="a_node4"><a xlink:title="module">
<polygon fill="gainsboro" stroke="black" stroke-dasharray="5,2" points="339.5,-92 240.5,-92 240.5,-96 228.5,-96 228.5,-56 339.5,-56 339.5,-92"/>
<polyline fill="none" stroke="black" stroke-dasharray="5,2" points="228.5,-92 240.5,-92 "/>
<text text-anchor="start" x="236.8" y="-75.8" font-family="Courier,monospace" font-size="9.00"> </text>
<text text-anchor="start" x="241.59" y="-75.2" font-family="Courier,monospace" font-size="11.00">http_dispatch</text>
<text text-anchor="start" x="326.8" y="-75.8" font-family="Courier,monospace" font-size="9.00"> </text>
<text text-anchor="start" x="236.8" y="-65.8" font-family="Courier,monospace" font-size="9.00"> </text>
<text text-anchor="start" x="271.9" y="-66.4" font-family="Courier,monospace" font-size="7.00">module</text>
<text text-anchor="start" x="326.8" y="-65.8" font-family="Courier,monospace" font-size="9.00"> </text>
</a>
</g>
</g>
<!-- cp_graphviz&#45;&gt;http_dispatch -->
<g id="edge3" class="edge">
<title>cp_graphviz&#45;&gt;http_dispatch</title>
<path fill="none" stroke="black" d="M647.13,-212.72C567.63,-196.69 446.26,-166.93 349,-120 337.32,-114.36 325.4,-106.76 315.02,-99.4"/>
<polygon fill="black" stroke="black" points="314.89,-99.31 307.69,-98.99 305.21,-92.21 314.89,-99.31"/>
<g id="a_edge3&#45;label"><a xlink:title="use_module">
<text text-anchor="middle" x="435" y="-138.8" font-family="Courier,monospace" font-size="9.00">use_module</text>
</a>
</g>
</g>
<!-- swi_option -->
<g id="node5" class="node">
<title>swi_option</title>
<g id="a_node5"><a xlink:title="module">
<polygon fill="gainsboro" stroke="black" stroke-dasharray="5,2" points="450,-92 370,-92 370,-96 358,-96 358,-56 450,-56 450,-92"/>
<polyline fill="none" stroke="black" stroke-dasharray="5,2" points="358,-92 370,-92 "/>
<text text-anchor="start" x="365.8" y="-75.8" font-family="Courier,monospace" font-size="9.00"> </text>
<text text-anchor="start" x="370.99" y="-75.2" font-family="Courier,monospace" font-size="11.00">swi_option</text>
<text text-anchor="start" x="436.8" y="-75.8" font-family="Courier,monospace" font-size="9.00"> </text>
<text text-anchor="start" x="365.8" y="-65.8" font-family="Courier,monospace" font-size="9.00"> </text>
<text text-anchor="start" x="391.4" y="-66.4" font-family="Courier,monospace" font-size="7.00">module</text>
<text text-anchor="start" x="436.8" y="-65.8" font-family="Courier,monospace" font-size="9.00"> </text>
</a>
</g>
</g>
<!-- cp_graphviz&#45;&gt;swi_option -->
<g id="edge4" class="edge">
<title>cp_graphviz&#45;&gt;swi_option</title>
<path fill="none" stroke="black" d="M647.29,-201.94C591.86,-183.23 518.65,-155.04 459,-120 449.52,-114.43 439.97,-107.29 431.56,-100.34"/>
<polygon fill="black" stroke="black" points="431.38,-100.18 424.22,-99.32 422.27,-92.37 431.38,-100.18"/>
<g id="a_edge4&#45;label"><a xlink:title="use_module">
<text text-anchor="middle" x="528" y="-138.8" font-family="Courier,monospace" font-size="9.00">use_module</text>
</a>
</g>
</g>
<!-- html_write -->
<g id="node6" class="node">
<title>html_write</title>
<g id="a_node6"><a xlink:title="module">
<polygon fill="gainsboro" stroke="black" stroke-dasharray="5,2" points="560,-92 480,-92 480,-96 468,-96 468,-56 560,-56 560,-92"/>
<polyline fill="none" stroke="black" stroke-dasharray="5,2" points="468,-92 480,-92 "/>
<text text-anchor="start" x="475.8" y="-75.8" font-family="Courier,monospace" font-size="9.00"> </text>
<text text-anchor="start" x="480.99" y="-75.2" font-family="Courier,monospace" font-size="11.00">html_write</text>
<text text-anchor="start" x="546.8" y="-75.8" font-family="Courier,monospace" font-size="9.00"> </text>
<text text-anchor="start" x="475.8" y="-65.8" font-family="Courier,monospace" font-size="9.00"> </text>
<text text-anchor="start" x="501.4" y="-66.4" font-family="Courier,monospace" font-size="7.00">module</text>
<text text-anchor="start" x="546.8" y="-65.8" font-family="Courier,monospace" font-size="9.00"> </text>
</a>
</g>
</g>
<!-- cp_graphviz&#45;&gt;html_write -->
<g id="edge5" class="edge">
<title>cp_graphviz&#45;&gt;html_write</title>
<path fill="none" stroke="black" d="M671.96,-190.8C650.36,-177.06 625.87,-161.12 603.99,-146 588.05,-134.98 584.28,-131.92 569,-120 560.77,-113.58 551.97,-106.49 543.88,-99.87"/>
<polygon fill="black" stroke="black" points="543.72,-99.74 536.54,-99.01 534.45,-92.11 543.72,-99.74"/>
<g id="a_edge5&#45;label"><a xlink:title="use_module">
<text text-anchor="middle" x="630" y="-138.8" font-family="Courier,monospace" font-size="9.00">use_module</text>
</a>
</g>
</g>
<!-- process -->
<g id="node7" class="node">
<title>process</title>
<g id="a_node7"><a xlink:title="module">
<polygon fill="gainsboro" stroke="black" stroke-dasharray="5,2" points="650,-92 590,-92 590,-96 578,-96 578,-56 650,-56 650,-92"/>
<polyline fill="none" stroke="black" stroke-dasharray="5,2" points="578,-92 590,-92 "/>
<text text-anchor="start" x="585.8" y="-75.8" font-family="Courier,monospace" font-size="9.00"> </text>
<text text-anchor="start" x="590.9" y="-75.2" font-family="Courier,monospace" font-size="11.00">process</text>
<text text-anchor="start" x="636.8" y="-75.8" font-family="Courier,monospace" font-size="9.00"> </text>
<text text-anchor="start" x="585.8" y="-65.8" font-family="Courier,monospace" font-size="9.00"> </text>
<text text-anchor="start" x="601.4" y="-66.4" font-family="Courier,monospace" font-size="7.00">module</text>
<text text-anchor="start" x="636.8" y="-65.8" font-family="Courier,monospace" font-size="9.00"> </text>
</a>
</g>
</g>
<!-- cp_graphviz&#45;&gt;process -->
<g id="edge6" class="edge">
<title>cp_graphviz&#45;&gt;process</title>
<path fill="none" stroke="black" d="M702.98,-190.97C681.92,-163.52 653.55,-126.55 634.56,-101.8"/>
<polygon fill="black" stroke="black" points="634.35,-101.52 627.52,-99.2 627.04,-92 634.35,-101.52"/>
<g id="a_edge6&#45;label"><a xlink:title="use_module">
<text text-anchor="middle" x="692" y="-138.8" font-family="Courier,monospace" font-size="9.00">use_module</text>
</a>
</g>
</g>
<!-- http_parameters -->
<g id="node8" class="node">
<title>http_parameters</title>
<g id="a_node8"><a xlink:title="module">
<polygon fill="gainsboro" stroke="black" stroke-dasharray="5,2" points="793.5,-92 680.5,-92 680.5,-96 668.5,-96 668.5,-56 793.5,-56 793.5,-92"/>
<polyline fill="none" stroke="black" stroke-dasharray="5,2" points="668.5,-92 680.5,-92 "/>
<text text-anchor="start" x="676.8" y="-75.8" font-family="Courier,monospace" font-size="9.00"> </text>
<text text-anchor="start" x="681.99" y="-75.2" font-family="Courier,monospace" font-size="11.00">http_parameters</text>
<text text-anchor="start" x="780.8" y="-75.8" font-family="Courier,monospace" font-size="9.00"> </text>
<text text-anchor="start" x="676.8" y="-65.8" font-family="Courier,monospace" font-size="9.00"> </text>
<text text-anchor="start" x="718.9" y="-66.4" font-family="Courier,monospace" font-size="7.00">module</text>
<text text-anchor="start" x="780.8" y="-65.8" font-family="Courier,monospace" font-size="9.00"> </text>
</a>
</g>
</g>
<!-- cp_graphviz&#45;&gt;http_parameters -->
<g id="edge7" class="edge">
<title>cp_graphviz&#45;&gt;http_parameters</title>
<path fill="none" stroke="black" d="M731,-190.97C731,-164.38 731,-128.85 731,-104.15"/>
<polygon fill="black" stroke="black" points="731,-104 727,-98 731,-92 731,-104"/>
<g id="a_edge7&#45;label"><a xlink:title="use_module">
<text text-anchor="middle" x="758" y="-138.8" font-family="Courier,monospace" font-size="9.00">use_module</text>
</a>
</g>
</g>
<!-- httpd_wrapper -->
<g id="node9" class="node">
<title>httpd_wrapper</title>
<g id="a_node9"><a xlink:title="module">
<polygon fill="gainsboro" stroke="black" stroke-dasharray="5,2" points="922.5,-92 823.5,-92 823.5,-96 811.5,-96 811.5,-56 922.5,-56 922.5,-92"/>
<polyline fill="none" stroke="black" stroke-dasharray="5,2" points="811.5,-92 823.5,-92 "/>
<text text-anchor="start" x="819.8" y="-75.8" font-family="Courier,monospace" font-size="9.00"> </text>
<text text-anchor="start" x="824.59" y="-75.2" font-family="Courier,monospace" font-size="11.00">httpd_wrapper</text>
<text text-anchor="start" x="909.8" y="-75.8" font-family="Courier,monospace" font-size="9.00"> </text>
<text text-anchor="start" x="819.8" y="-65.8" font-family="Courier,monospace" font-size="9.00"> </text>
<text text-anchor="start" x="854.9" y="-66.4" font-family="Courier,monospace" font-size="7.00">module</text>
<text text-anchor="start" x="909.8" y="-65.8" font-family="Courier,monospace" font-size="9.00"> </text>
</a>
</g>
</g>
<!-- cp_graphviz&#45;&gt;httpd_wrapper -->
<g id="edge8" class="edge">
<title>cp_graphviz&#45;&gt;httpd_wrapper</title>
<path fill="none" stroke="black" d="M763.58,-190.97C788.27,-163.28 821.62,-125.89 843.69,-101.14"/>
<polygon fill="black" stroke="black" points="843.85,-100.96 844.86,-93.82 851.84,-92 843.85,-100.96"/>
<g id="a_edge8&#45;label"><a xlink:title="use_module">
<text text-anchor="middle" x="838" y="-138.8" font-family="Courier,monospace" font-size="9.00">use_module</text>
</a>
</g>
</g>
<!-- prolog_debug -->
<g id="node10" class="node">
<title>prolog_debug</title>
<g id="a_node10"><a xlink:title="module">
<polygon fill="gainsboro" stroke="black" stroke-dasharray="5,2" points="1045.5,-92 952.5,-92 952.5,-96 940.5,-96 940.5,-56 1045.5,-56 1045.5,-92"/>
<polyline fill="none" stroke="black" stroke-dasharray="5,2" points="940.5,-92 952.5,-92 "/>
<text text-anchor="start" x="948.8" y="-75.8" font-family="Courier,monospace" font-size="9.00"> </text>
<text text-anchor="start" x="953.89" y="-75.2" font-family="Courier,monospace" font-size="11.00">prolog_debug</text>
<text text-anchor="start" x="1032.8" y="-75.8" font-family="Courier,monospace" font-size="9.00"> </text>
<text text-anchor="start" x="948.8" y="-65.8" font-family="Courier,monospace" font-size="9.00"> </text>
<text text-anchor="start" x="980.9" y="-66.4" font-family="Courier,monospace" font-size="7.00">module</text>
<text text-anchor="start" x="1032.8" y="-65.8" font-family="Courier,monospace" font-size="9.00"> </text>
</a>
</g>
</g>
<!-- cp_graphviz&#45;&gt;prolog_debug -->
<g id="edge9" class="edge">
<title>cp_graphviz&#45;&gt;prolog_debug</title>
<path fill="none" stroke="black" d="M805.49,-190.92C844.01,-171.2 891.35,-145.68 932,-120 941.97,-113.7 952.43,-106.3 961.82,-99.34"/>
<polygon fill="black" stroke="black" points="961.93,-99.26 964.32,-92.45 971.51,-92.03 961.93,-99.26"/>
<g id="a_edge9&#45;label"><a xlink:title="use_module">
<text text-anchor="middle" x="927" y="-138.8" font-family="Courier,monospace" font-size="9.00">use_module</text>
</a>
</g>
</g>
<!-- sgml -->
<g id="node11" class="node">
<title>sgml</title>
<g id="a_node11"><a xlink:title="module">
<polygon fill="gainsboro" stroke="black" stroke-dasharray="5,2" points="1118,-92 1076,-92 1076,-96 1064,-96 1064,-56 1118,-56 1118,-92"/>
<polyline fill="none" stroke="black" stroke-dasharray="5,2" points="1064,-92 1076,-92 "/>
<text text-anchor="start" x="1072.8" y="-75.8" font-family="Courier,monospace" font-size="9.00"> </text>
<text text-anchor="start" x="1077.8" y="-75.2" font-family="Courier,monospace" font-size="11.00">sgml</text>
<text text-anchor="start" x="1103.8" y="-75.8" font-family="Courier,monospace" font-size="9.00"> </text>
<text text-anchor="start" x="1072.8" y="-65.8" font-family="Courier,monospace" font-size="9.00"> </text>
<text text-anchor="start" x="1078.4" y="-66.4" font-family="Courier,monospace" font-size="7.00">module</text>
<text text-anchor="start" x="1103.8" y="-65.8" font-family="Courier,monospace" font-size="9.00"> </text>
</a>
</g>
</g>
<!-- cp_graphviz&#45;&gt;sgml -->
<g id="edge10" class="edge">
<title>cp_graphviz&#45;&gt;sgml</title>
<path fill="none" stroke="black" d="M814.81,-213.45C884,-198.78 982.29,-170.63 1055,-120 1061.9,-115.2 1068.14,-108.7 1073.42,-102.14"/>
<polygon fill="black" stroke="black" points="1073.77,-101.68 1074.1,-94.47 1080.88,-92.01 1073.77,-101.68"/>
<g id="a_edge10&#45;label"><a xlink:title="use_module">
<text text-anchor="middle" x="1050" y="-138.8" font-family="Courier,monospace" font-size="9.00">use_module</text>
</a>
</g>
</g>
<!-- sgml_write -->
<g id="node12" class="node">
<title>sgml_write</title>
<g id="a_node12"><a xlink:title="module">
<polygon fill="gainsboro" stroke="black" stroke-dasharray="5,2" points="1228,-92 1148,-92 1148,-96 1136,-96 1136,-56 1228,-56 1228,-92"/>
<polyline fill="none" stroke="black" stroke-dasharray="5,2" points="1136,-92 1148,-92 "/>
<text text-anchor="start" x="1143.8" y="-75.8" font-family="Courier,monospace" font-size="9.00"> </text>
<text text-anchor="start" x="1148.99" y="-75.2" font-family="Courier,monospace" font-size="11.00">sgml_write</text>
<text text-anchor="start" x="1214.8" y="-75.8" font-family="Courier,monospace" font-size="9.00"> </text>
<text text-anchor="start" x="1143.8" y="-65.8" font-family="Courier,monospace" font-size="9.00"> </text>
<text text-anchor="start" x="1169.4" y="-66.4" font-family="Courier,monospace" font-size="7.00">module</text>
<text text-anchor="start" x="1214.8" y="-65.8" font-family="Courier,monospace" font-size="9.00"> </text>
</a>
</g>
</g>
<!-- cp_graphviz&#45;&gt;sgml_write -->
<g id="edge11" class="edge">
<title>cp_graphviz&#45;&gt;sgml_write</title>
<path fill="none" stroke="black" d="M814.68,-214.94C886.87,-202.49 993.08,-180.27 1081,-146 1108.21,-135.4 1135.07,-115.97 1154.24,-100.11"/>
<polygon fill="black" stroke="black" points="1154.38,-99.99 1156.36,-93.05 1163.52,-92.21 1154.38,-99.99"/>
<g id="a_edge11&#45;label"><a xlink:title="use_module">
<text text-anchor="middle" x="1126" y="-138.8" font-family="Courier,monospace" font-size="9.00">use_module</text>
</a>
</g>
</g>
<!-- http_path -->
<g id="node13" class="node">
<title>http_path</title>
<g id="a_node13"><a xlink:title="module">
<polygon fill="gainsboro" stroke="black" stroke-dasharray="5,2" points="1331.5,-92 1258.5,-92 1258.5,-96 1246.5,-96 1246.5,-56 1331.5,-56 1331.5,-92"/>
<polyline fill="none" stroke="black" stroke-dasharray="5,2" points="1246.5,-92 1258.5,-92 "/>
<text text-anchor="start" x="1254.8" y="-75.8" font-family="Courier,monospace" font-size="9.00"> </text>
<text text-anchor="start" x="1259.8" y="-75.2" font-family="Courier,monospace" font-size="11.00">http_path</text>
<text text-anchor="start" x="1318.8" y="-75.8" font-family="Courier,monospace" font-size="9.00"> </text>
<text text-anchor="start" x="1254.8" y="-65.8" font-family="Courier,monospace" font-size="9.00"> </text>
<text text-anchor="start" x="1276.9" y="-66.4" font-family="Courier,monospace" font-size="7.00">module</text>
<text text-anchor="start" x="1318.8" y="-65.8" font-family="Courier,monospace" font-size="9.00"> </text>
</a>
</g>
</g>
<!-- cp_graphviz&#45;&gt;http_path -->
<g id="edge12" class="edge">
<title>cp_graphviz&#45;&gt;http_path</title>
<path fill="none" stroke="black" d="M814.54,-214.7C900.93,-200.71 1039.4,-176.23 1157,-146 1193.21,-136.69 1204.44,-138.37 1237,-120 1246.31,-114.74 1255.48,-107.66 1263.45,-100.66"/>
<polygon fill="black" stroke="black" points="1263.7,-100.44 1265.4,-93.43 1272.53,-92.31 1263.7,-100.44"/>
<g id="a_edge12&#45;label"><a xlink:title="use_module">
<text text-anchor="middle" x="1222" y="-138.8" font-family="Courier,monospace" font-size="9.00">use_module</text>
</a>
</g>
</g>
<!-- rdf_graphviz -->
<g id="node14" class="node">
<title>rdf_graphviz</title>
<g id="a_node14"><a xlink:title="module">
<polygon fill="gainsboro" stroke="black" stroke-dasharray="5,2" points="1454.5,-92 1361.5,-92 1361.5,-96 1349.5,-96 1349.5,-56 1454.5,-56 1454.5,-92"/>
<polyline fill="none" stroke="black" stroke-dasharray="5,2" points="1349.5,-92 1361.5,-92 "/>
<text text-anchor="start" x="1357.8" y="-75.8" font-family="Courier,monospace" font-size="9.00"> </text>
<text text-anchor="start" x="1362.89" y="-75.2" font-family="Courier,monospace" font-size="11.00">rdf_graphviz</text>
<text text-anchor="start" x="1441.8" y="-75.8" font-family="Courier,monospace" font-size="9.00"> </text>
<text text-anchor="start" x="1357.8" y="-65.8" font-family="Courier,monospace" font-size="9.00"> </text>
<text text-anchor="start" x="1389.9" y="-66.4" font-family="Courier,monospace" font-size="7.00">module</text>
<text text-anchor="start" x="1441.8" y="-65.8" font-family="Courier,monospace" font-size="9.00"> </text>
</a>
</g>
</g>
<!-- cp_graphviz&#45;&gt;rdf_graphviz -->
<g id="edge13" class="edge">
<title>cp_graphviz&#45;&gt;rdf_graphviz</title>
<path fill="none" stroke="black" d="M814.82,-217.89C918.47,-205.2 1099.97,-180.39 1253,-146 1292.79,-137.06 1304.48,-138.16 1341,-120 1352.11,-114.48 1363.3,-106.92 1373.02,-99.58"/>
<polygon fill="black" stroke="black" points="1373.11,-99.51 1375.35,-92.66 1382.54,-92.1 1373.11,-99.51"/>
<g id="a_edge13&#45;label"><a xlink:title="use_module">
<text text-anchor="middle" x="1322" y="-138.8" font-family="Courier,monospace" font-size="9.00">use_module</text>
</a>
</g>
</g>
</g>
</svg>
