<?xml version="1.0" encoding="UTF-8" standalone="no"?>
<!DOCTYPE svg PUBLIC "-//W3C//DTD SVG 1.1//EN"
 "http://www.w3.org/Graphics/SVG/1.1/DTD/svg11.dtd">
<!-- Generated by graphviz version 2.41.20190410.0829 (20190410.0829)
 -->
<!-- Title: hooks.pl Pages: 1 -->
<svg width="408pt" height="273pt"
 viewBox="72.00 72.00 336.04 201.00" xmlns="http://www.w3.org/2000/svg" xmlns:xlink="http://www.w3.org/1999/xlink">
<g id="graph0" class="graph" transform="scale(1 1) rotate(0) translate(76 197)">
<title>hooks.pl</title>
<polygon fill="white" stroke="transparent" points="-4,4 -4,-125 260.04,-125 260.04,4 -4,4"/>
<text text-anchor="start" x="8" y="-16" font-family="Courier,monospace" font-size="10.00" fill="#8b8989">ClioPatria &#45; an RDF application platform</text>
<text text-anchor="start" x="8" y="-6" font-family="Courier,monospace" font-size="10.00" fill="#8b8989">Generated on 2019/04/17, 13:04</text>
<g id="clust1" class="cluster">
<title>cluster_file_/Users/pmoura/ClioPatria/hooks.pl</title>
<g id="a_clust1"><a xlink:href="https://github.com/ClioPatria/ClioPatria/tree/add57aa2039eed4033cf96e96c293b2052e88f41/hooks.pl" xlink:title="https://github.com/ClioPatria/ClioPatria/tree/add57aa2039eed4033cf96e96c293b2052e88f41/hooks.pl">
<path fill="snow" stroke="#8b8989" d="M81.02,-36C81.02,-36 175.02,-36 175.02,-36 181.02,-36 187.02,-42 187.02,-48 187.02,-48 187.02,-101 187.02,-101 187.02,-107 181.02,-113 175.02,-113 175.02,-113 81.02,-113 81.02,-113 75.02,-113 69.02,-107 69.02,-101 69.02,-101 69.02,-48 69.02,-48 69.02,-42 75.02,-36 81.02,-36"/>
<text text-anchor="middle" x="101.02" y="-101" font-family="Courier,monospace" font-size="10.00" fill="#8b8989">hooks.pl</text>
</a>
</g>
</g>
<!-- cliopatria -->
<g id="node1" class="node">
<title>cliopatria</title>
<g id="a_node1"><a xlink:title="module">
<polygon fill="gainsboro" stroke="black" points="177.02,-85 91.02,-85 91.02,-89 79.02,-89 79.02,-46 177.02,-46 177.02,-85"/>
<polyline fill="none" stroke="black" points="79.02,-85 91.02,-85 "/>
<g id="a_node1_0"><a xlink:href="cliopatria_module_xref_diagram.svg" xlink:title="Zoom">
<image xlink:href="zoom.png" width="11px" height="11px" preserveAspectRatio="xMinYMin meet" x="87.0195" y="-80.5"/>
</a>
</g>
<text text-anchor="start" x="89.82" y="-61.3" font-family="Courier,monospace" font-size="9.00"> </text>
<text text-anchor="start" x="98.01" y="-60.7" font-family="Courier,monospace" font-size="11.00">cliopatria</text>
<text text-anchor="start" x="163.82" y="-61.3" font-family="Courier,monospace" font-size="9.00"> </text>
<text text-anchor="start" x="89.82" y="-51.3" font-family="Courier,monospace" font-size="9.00"> </text>
<text text-anchor="start" x="118.42" y="-51.9" font-family="Courier,monospace" font-size="7.00">module</text>
<text text-anchor="start" x="163.82" y="-51.3" font-family="Courier,monospace" font-size="9.00"> </text>
</a>
</g>
</g>
</g>
</svg>
