<?xml version="1.0" encoding="UTF-8" standalone="no"?>
<!DOCTYPE svg PUBLIC "-//W3C//DTD SVG 1.1//EN"
 "http://www.w3.org/Graphics/SVG/1.1/DTD/svg11.dtd">
<!-- Generated by graphviz version 2.41.20190410.0829 (20190410.0829)
 -->
<!-- Title: http_request_value.pl Pages: 1 -->
<svg width="532pt" height="436pt"
 viewBox="72.00 72.00 460.00 364.00" xmlns="http://www.w3.org/2000/svg" xmlns:xlink="http://www.w3.org/1999/xlink">
<g id="graph0" class="graph" transform="scale(1 1) rotate(0) translate(76 360)">
<title>http_request_value.pl</title>
<polygon fill="white" stroke="transparent" points="-4,4 -4,-288 384,-288 384,4 -4,4"/>
<text text-anchor="start" x="8" y="-16" font-family="Courier,monospace" font-size="10.00" fill="#8b8989">ClioPatria &#45; an RDF application platform</text>
<text text-anchor="start" x="8" y="-6" font-family="Courier,monospace" font-size="10.00" fill="#8b8989">Generated on 2019/04/17, 13:04</text>
<g id="clust1" class="cluster">
<title>cluster_file_/Users/pmoura/ClioPatria/lib/http/http_request_value.pl</title>
<g id="a_clust1"><a xlink:href="https://github.com/ClioPatria/ClioPatria/tree/add57aa2039eed4033cf96e96c293b2052e88f41/lib/http/http_request_value.pl" xlink:title="https://github.com/ClioPatria/ClioPatria/tree/add57aa2039eed4033cf96e96c293b2052e88f41/lib/http/http_request_value.pl">
<path fill="snow" stroke="#8b8989" d="M20,-36C20,-36 360,-36 360,-36 366,-36 372,-42 372,-48 372,-48 372,-264 372,-264 372,-270 366,-276 360,-276 360,-276 20,-276 20,-276 14,-276 8,-270 8,-264 8,-264 8,-48 8,-48 8,-42 14,-36 20,-36"/>
<text text-anchor="middle" x="79.01" y="-264" font-family="Courier,monospace" font-size="10.00" fill="#8b8989">http_request_value.pl</text>
</a>
</g>
</g>
<g id="clust2" class="cluster">
<title>cluster_other</title>
<g id="a_clust2"><a xlink:title="(external entities)">
<path fill="white" stroke="#8b8989" d="M30,-46C30,-46 350,-46 350,-46 356,-46 362,-52 362,-58 362,-58 362,-108 362,-108 362,-114 356,-120 350,-120 350,-120 30,-120 30,-120 24,-120 18,-114 18,-108 18,-108 18,-58 18,-58 18,-52 24,-46 30,-46"/>
<text text-anchor="middle" x="83.01" y="-108" font-family="Courier,monospace" font-size="10.00" fill="#8b8989">(external entities)</text>
</a>
</g>
</g>
<!-- http_request_value -->
<g id="node1" class="node">
<title>http_request_value</title>
<g id="a_node1"><a xlink:title="module">
<polygon fill="gainsboro" stroke="black" points="256.5,-248 101.5,-248 101.5,-252 89.5,-252 89.5,-191 256.5,-191 256.5,-248"/>
<polyline fill="none" stroke="black" points="89.5,-248 101.5,-248 "/>
<g id="a_node1_0"><a xlink:href="http_request_value_module_xref_diagram.svg" xlink:title="Zoom">
<image xlink:href="zoom.png" width="11px" height="11px" preserveAspectRatio="xMinYMin meet" x="98" y="-243.5"/>
</a>
</g>
<text text-anchor="start" x="100.8" y="-224.3" font-family="Courier,monospace" font-size="9.00"> </text>
<text text-anchor="start" x="117.09" y="-223.7" font-family="Courier,monospace" font-size="11.00">http_request_value</text>
<text text-anchor="start" x="243.8" y="-224.3" font-family="Courier,monospace" font-size="9.00"> </text>
<text text-anchor="start" x="100.8" y="-214.3" font-family="Courier,monospace" font-size="9.00"> </text>
<text text-anchor="start" x="163.9" y="-214.9" font-family="Courier,monospace" font-size="7.00">module</text>
<text text-anchor="start" x="243.8" y="-214.3" font-family="Courier,monospace" font-size="9.00"> </text>
<text text-anchor="start" x="100.8" y="-205.3" font-family="Courier,monospace" font-size="9.00"> </text>
<text text-anchor="start" x="100.8" y="-196.3" font-family="Courier,monospace" font-size="9.00"> </text>
<text text-anchor="start" x="108.99" y="-196.3" font-family="Courier,monospace" font-size="9.00">http_parse_header_value/3</text>
<text text-anchor="start" x="243.8" y="-196.3" font-family="Courier,monospace" font-size="9.00"> </text>
</a>
</g>
</g>
<!-- error -->
<g id="node2" class="node">
<title>error</title>
<g id="a_node2"><a xlink:title="module">
<polygon fill="gainsboro" stroke="black" stroke-dasharray="5,2" points="87.5,-92 40.5,-92 40.5,-96 28.5,-96 28.5,-56 87.5,-56 87.5,-92"/>
<polyline fill="none" stroke="black" stroke-dasharray="5,2" points="28.5,-92 40.5,-92 "/>
<text text-anchor="start" x="36.8" y="-75.8" font-family="Courier,monospace" font-size="9.00"> </text>
<text text-anchor="start" x="42" y="-75.2" font-family="Courier,monospace" font-size="11.00">error</text>
<text text-anchor="start" x="74.8" y="-75.8" font-family="Courier,monospace" font-size="9.00"> </text>
<text text-anchor="start" x="36.8" y="-65.8" font-family="Courier,monospace" font-size="9.00"> </text>
<text text-anchor="start" x="45.9" y="-66.4" font-family="Courier,monospace" font-size="7.00">module</text>
<text text-anchor="start" x="74.8" y="-65.8" font-family="Courier,monospace" font-size="9.00"> </text>
</a>
</g>
</g>
<!-- http_request_value&#45;&gt;error -->
<g id="edge1" class="edge">
<title>http_request_value&#45;&gt;error</title>
<path fill="none" stroke="black" d="M123.1,-190.89C105.89,-179.12 87.96,-163.92 75.99,-146 67.75,-133.66 63.29,-117.81 60.87,-104.22"/>
<polygon fill="black" stroke="black" points="60.83,-103.95 56.01,-98.58 59.11,-92.08 60.83,-103.95"/>
<g id="a_edge1&#45;label"><a xlink:title="use_module">
<text text-anchor="middle" x="103" y="-138.8" font-family="Courier,monospace" font-size="9.00">use_module</text>
</a>
</g>
</g>
<!-- pairs -->
<g id="node3" class="node">
<title>pairs</title>
<g id="a_node3"><a xlink:title="module">
<polygon fill="gainsboro" stroke="black" stroke-dasharray="5,2" points="164.5,-92 117.5,-92 117.5,-96 105.5,-96 105.5,-56 164.5,-56 164.5,-92"/>
<polyline fill="none" stroke="black" stroke-dasharray="5,2" points="105.5,-92 117.5,-92 "/>
<text text-anchor="start" x="113.8" y="-75.8" font-family="Courier,monospace" font-size="9.00"> </text>
<text text-anchor="start" x="119" y="-75.2" font-family="Courier,monospace" font-size="11.00">pairs</text>
<text text-anchor="start" x="151.8" y="-75.8" font-family="Courier,monospace" font-size="9.00"> </text>
<text text-anchor="start" x="113.8" y="-65.8" font-family="Courier,monospace" font-size="9.00"> </text>
<text text-anchor="start" x="122.9" y="-66.4" font-family="Courier,monospace" font-size="7.00">module</text>
<text text-anchor="start" x="151.8" y="-65.8" font-family="Courier,monospace" font-size="9.00"> </text>
</a>
</g>
</g>
<!-- http_request_value&#45;&gt;pairs -->
<g id="edge2" class="edge">
<title>http_request_value&#45;&gt;pairs</title>
<path fill="none" stroke="black" d="M155.05,-190.76C147.63,-177.72 139.87,-161.64 135.99,-146 132.65,-132.54 132.06,-117.2 132.44,-104.23"/>
<polygon fill="black" stroke="black" points="132.44,-104.19 128.77,-97.98 133.08,-92.21 132.44,-104.19"/>
<g id="a_edge2&#45;label"><a xlink:title="use_module">
<text text-anchor="middle" x="162" y="-138.8" font-family="Courier,monospace" font-size="9.00">use_module</text>
</a>
</g>
</g>
<!-- lists -->
<g id="node4" class="node">
<title>lists</title>
<g id="a_node4"><a xlink:title="module">
<polygon fill="gainsboro" stroke="black" stroke-dasharray="5,2" points="241.5,-92 194.5,-92 194.5,-96 182.5,-96 182.5,-56 241.5,-56 241.5,-92"/>
<polyline fill="none" stroke="black" stroke-dasharray="5,2" points="182.5,-92 194.5,-92 "/>
<text text-anchor="start" x="190.8" y="-75.8" font-family="Courier,monospace" font-size="9.00"> </text>
<text text-anchor="start" x="196" y="-75.2" font-family="Courier,monospace" font-size="11.00">lists</text>
<text text-anchor="start" x="228.8" y="-75.8" font-family="Courier,monospace" font-size="9.00"> </text>
<text text-anchor="start" x="190.8" y="-65.8" font-family="Courier,monospace" font-size="9.00"> </text>
<text text-anchor="start" x="199.9" y="-66.4" font-family="Courier,monospace" font-size="7.00">module</text>
<text text-anchor="start" x="228.8" y="-65.8" font-family="Courier,monospace" font-size="9.00"> </text>
</a>
</g>
</g>
<!-- http_request_value&#45;&gt;lists -->
<g id="edge3" class="edge">
<title>http_request_value&#45;&gt;lists</title>
<path fill="none" stroke="black" d="M180.52,-190.83C187.3,-165.89 197.23,-129.34 204.12,-104"/>
<polygon fill="black" stroke="black" points="204.17,-103.8 201.89,-96.96 207.32,-92.22 204.17,-103.8"/>
<g id="a_edge3&#45;label"><a xlink:title="use_module">
<text text-anchor="middle" x="221" y="-138.8" font-family="Courier,monospace" font-size="9.00">use_module</text>
</a>
</g>
</g>
<!-- dcg_basics -->
<g id="node5" class="node">
<title>dcg_basics</title>
<g id="a_node5"><a xlink:title="module">
<polygon fill="gainsboro" stroke="black" stroke-dasharray="5,2" points="352,-92 272,-92 272,-96 260,-96 260,-56 352,-56 352,-92"/>
<polyline fill="none" stroke="black" stroke-dasharray="5,2" points="260,-92 272,-92 "/>
<text text-anchor="start" x="267.8" y="-75.8" font-family="Courier,monospace" font-size="9.00"> </text>
<text text-anchor="start" x="272.99" y="-75.2" font-family="Courier,monospace" font-size="11.00">dcg_basics</text>
<text text-anchor="start" x="338.8" y="-75.8" font-family="Courier,monospace" font-size="9.00"> </text>
<text text-anchor="start" x="267.8" y="-65.8" font-family="Courier,monospace" font-size="9.00"> </text>
<text text-anchor="start" x="293.4" y="-66.4" font-family="Courier,monospace" font-size="7.00">module</text>
<text text-anchor="start" x="338.8" y="-65.8" font-family="Courier,monospace" font-size="9.00"> </text>
</a>
</g>
</g>
<!-- http_request_value&#45;&gt;dcg_basics -->
<g id="edge4" class="edge">
<title>http_request_value&#45;&gt;dcg_basics</title>
<path fill="none" stroke="black" d="M205.76,-190.8C220.47,-177.77 237.7,-161.68 252,-146 264.64,-132.14 277.41,-115.5 287.35,-101.81"/>
<polygon fill="black" stroke="black" points="287.38,-101.78 287.61,-94.57 294.36,-92.02 287.38,-101.78"/>
<g id="a_edge4&#45;label"><a xlink:title="use_module">
<text text-anchor="middle" x="285" y="-138.8" font-family="Courier,monospace" font-size="9.00">use_module</text>
</a>
</g>
</g>
</g>
</svg>
