<?xml version="1.0" encoding="UTF-8" standalone="no"?>
<!DOCTYPE svg PUBLIC "-//W3C//DTD SVG 1.1//EN"
 "http://www.w3.org/Graphics/SVG/1.1/DTD/svg11.dtd">
<!-- Generated by graphviz version 2.41.20190410.0829 (20190410.0829)
 -->
<!-- Title: http_settings.pl Pages: 1 -->
<svg width="928pt" height="445pt"
 viewBox="72.00 72.00 856.00 373.00" xmlns="http://www.w3.org/2000/svg" xmlns:xlink="http://www.w3.org/1999/xlink">
<g id="graph0" class="graph" transform="scale(1 1) rotate(0) translate(76 369)">
<title>http_settings.pl</title>
<polygon fill="white" stroke="transparent" points="-4,4 -4,-297 780,-297 780,4 -4,4"/>
<text text-anchor="start" x="8" y="-16" font-family="Courier,monospace" font-size="10.00" fill="#8b8989">ClioPatria &#45; an RDF application platform</text>
<text text-anchor="start" x="8" y="-6" font-family="Courier,monospace" font-size="10.00" fill="#8b8989">Generated on 2019/04/17, 13:04</text>
<g id="clust1" class="cluster">
<title>cluster_file_/Users/pmoura/ClioPatria/lib/http_settings.pl</title>
<g id="a_clust1"><a xlink:href="https://github.com/ClioPatria/ClioPatria/tree/add57aa2039eed4033cf96e96c293b2052e88f41/lib/http_settings.pl" xlink:title="https://github.com/ClioPatria/ClioPatria/tree/add57aa2039eed4033cf96e96c293b2052e88f41/lib/http_settings.pl">
<path fill="snow" stroke="#8b8989" d="M20,-36C20,-36 756,-36 756,-36 762,-36 768,-42 768,-48 768,-48 768,-273 768,-273 768,-279 762,-285 756,-285 756,-285 20,-285 20,-285 14,-285 8,-279 8,-273 8,-273 8,-48 8,-48 8,-42 14,-36 20,-36"/>
<text text-anchor="middle" x="64.01" y="-273" font-family="Courier,monospace" font-size="10.00" fill="#8b8989">http_settings.pl</text>
</a>
</g>
</g>
<g id="clust2" class="cluster">
<title>cluster_other</title>
<g id="a_clust2"><a xlink:title="(external entities)">
<path fill="white" stroke="#8b8989" d="M30,-46C30,-46 746,-46 746,-46 752,-46 758,-52 758,-58 758,-58 758,-108 758,-108 758,-114 752,-120 746,-120 746,-120 30,-120 30,-120 24,-120 18,-114 18,-108 18,-108 18,-58 18,-58 18,-52 24,-46 30,-46"/>
<text text-anchor="middle" x="83.01" y="-108" font-family="Courier,monospace" font-size="10.00" fill="#8b8989">(external entities)</text>
</a>
</g>
</g>
<!-- http_settings -->
<g id="node1" class="node">
<title>http_settings</title>
<g id="a_node1"><a xlink:title="module">
<polygon fill="gainsboro" stroke="black" points="430.5,-257 297.5,-257 297.5,-261 285.5,-261 285.5,-191 430.5,-191 430.5,-257"/>
<polyline fill="none" stroke="black" points="285.5,-257 297.5,-257 "/>
<g id="a_node1_0"><a xlink:href="http_settings_module_xref_diagram.svg" xlink:title="Zoom">
<image xlink:href="zoom.png" width="11px" height="11px" preserveAspectRatio="xMinYMin meet" x="294" y="-253"/>
</a>
</g>
<text text-anchor="start" x="296.8" y="-233.8" font-family="Courier,monospace" font-size="9.00"> </text>
<text text-anchor="start" x="318.59" y="-233.2" font-family="Courier,monospace" font-size="11.00">http_settings</text>
<text text-anchor="start" x="417.8" y="-233.8" font-family="Courier,monospace" font-size="9.00"> </text>
<text text-anchor="start" x="296.8" y="-223.8" font-family="Courier,monospace" font-size="9.00"> </text>
<text text-anchor="start" x="348.9" y="-224.4" font-family="Courier,monospace" font-size="7.00">module</text>
<text text-anchor="start" x="417.8" y="-223.8" font-family="Courier,monospace" font-size="9.00"> </text>
<text text-anchor="start" x="296.8" y="-214.8" font-family="Courier,monospace" font-size="9.00"> </text>
<text text-anchor="start" x="296.8" y="-205.8" font-family="Courier,monospace" font-size="9.00"> </text>
<text text-anchor="start" x="304.79" y="-205.8" font-family="Courier,monospace" font-size="9.00">http_apply_settings/4</text>
<text text-anchor="start" x="417.8" y="-205.8" font-family="Courier,monospace" font-size="9.00"> </text>
<text text-anchor="start" x="296.8" y="-196.8" font-family="Courier,monospace" font-size="9.00"> </text>
<text text-anchor="start" x="307.49" y="-196.8" font-family="Courier,monospace" font-size="9.00">http_show_settings/3</text>
<text text-anchor="start" x="417.8" y="-196.8" font-family="Courier,monospace" font-size="9.00"> </text>
</a>
</g>
</g>
<!-- settings -->
<g id="node2" class="node">
<title>settings</title>
<g id="a_node2"><a xlink:title="module">
<polygon fill="gainsboro" stroke="black" stroke-dasharray="5,2" points="106,-92 40,-92 40,-96 28,-96 28,-56 106,-56 106,-92"/>
<polyline fill="none" stroke="black" stroke-dasharray="5,2" points="28,-92 40,-92 "/>
<text text-anchor="start" x="35.8" y="-75.8" font-family="Courier,monospace" font-size="9.00"> </text>
<text text-anchor="start" x="40.6" y="-75.2" font-family="Courier,monospace" font-size="11.00">settings</text>
<text text-anchor="start" x="92.8" y="-75.8" font-family="Courier,monospace" font-size="9.00"> </text>
<text text-anchor="start" x="35.8" y="-65.8" font-family="Courier,monospace" font-size="9.00"> </text>
<text text-anchor="start" x="54.4" y="-66.4" font-family="Courier,monospace" font-size="7.00">module</text>
<text text-anchor="start" x="92.8" y="-65.8" font-family="Courier,monospace" font-size="9.00"> </text>
</a>
</g>
</g>
<!-- http_settings&#45;&gt;settings -->
<g id="edge1" class="edge">
<title>http_settings&#45;&gt;settings</title>
<path fill="none" stroke="black" d="M285.47,-202.34C234.73,-185.56 167.14,-158.35 116,-120 108.25,-114.19 100.32,-107.35 93.16,-100.79"/>
<polygon fill="black" stroke="black" points="92.69,-100.36 85.58,-99.16 83.95,-92.13 92.69,-100.36"/>
<g id="a_edge1&#45;label"><a xlink:title="use_module">
<text text-anchor="middle" x="178" y="-138.8" font-family="Courier,monospace" font-size="9.00">use_module</text>
</a>
</g>
</g>
<!-- pairs -->
<g id="node3" class="node">
<title>pairs</title>
<g id="a_node3"><a xlink:title="module">
<polygon fill="gainsboro" stroke="black" stroke-dasharray="5,2" points="183.5,-92 136.5,-92 136.5,-96 124.5,-96 124.5,-56 183.5,-56 183.5,-92"/>
<polyline fill="none" stroke="black" stroke-dasharray="5,2" points="124.5,-92 136.5,-92 "/>
<text text-anchor="start" x="132.8" y="-75.8" font-family="Courier,monospace" font-size="9.00"> </text>
<text text-anchor="start" x="138" y="-75.2" font-family="Courier,monospace" font-size="11.00">pairs</text>
<text text-anchor="start" x="170.8" y="-75.8" font-family="Courier,monospace" font-size="9.00"> </text>
<text text-anchor="start" x="132.8" y="-65.8" font-family="Courier,monospace" font-size="9.00"> </text>
<text text-anchor="start" x="141.9" y="-66.4" font-family="Courier,monospace" font-size="7.00">module</text>
<text text-anchor="start" x="170.8" y="-65.8" font-family="Courier,monospace" font-size="9.00"> </text>
</a>
</g>
</g>
<!-- http_settings&#45;&gt;pairs -->
<g id="edge2" class="edge">
<title>http_settings&#45;&gt;pairs</title>
<path fill="none" stroke="black" d="M297.02,-190.79C264.53,-172.23 224.83,-147.21 193,-120 186.71,-114.62 180.54,-108.21 175.03,-101.93"/>
<polygon fill="black" stroke="black" points="174.7,-101.54 167.78,-99.51 166.99,-92.34 174.7,-101.54"/>
<g id="a_edge2&#45;label"><a xlink:title="use_module">
<text text-anchor="middle" x="249" y="-138.8" font-family="Courier,monospace" font-size="9.00">use_module</text>
</a>
</g>
</g>
<!-- swi_option -->
<g id="node4" class="node">
<title>swi_option</title>
<g id="a_node4"><a xlink:title="module">
<polygon fill="gainsboro" stroke="black" stroke-dasharray="5,2" points="294,-92 214,-92 214,-96 202,-96 202,-56 294,-56 294,-92"/>
<polyline fill="none" stroke="black" stroke-dasharray="5,2" points="202,-92 214,-92 "/>
<text text-anchor="start" x="209.8" y="-75.8" font-family="Courier,monospace" font-size="9.00"> </text>
<text text-anchor="start" x="214.99" y="-75.2" font-family="Courier,monospace" font-size="11.00">swi_option</text>
<text text-anchor="start" x="280.8" y="-75.8" font-family="Courier,monospace" font-size="9.00"> </text>
<text text-anchor="start" x="209.8" y="-65.8" font-family="Courier,monospace" font-size="9.00"> </text>
<text text-anchor="start" x="235.4" y="-66.4" font-family="Courier,monospace" font-size="7.00">module</text>
<text text-anchor="start" x="280.8" y="-65.8" font-family="Courier,monospace" font-size="9.00"> </text>
</a>
</g>
</g>
<!-- http_settings&#45;&gt;swi_option -->
<g id="edge3" class="edge">
<title>http_settings&#45;&gt;swi_option</title>
<path fill="none" stroke="black" d="M333.63,-190.85C323.22,-177.07 310.97,-160.78 299.99,-146 289.28,-131.58 277.44,-115.43 267.77,-102.18"/>
<polygon fill="black" stroke="black" points="267.61,-101.96 260.84,-99.47 260.54,-92.26 267.61,-101.96"/>
<g id="a_edge3&#45;label"><a xlink:title="use_module">
<text text-anchor="middle" x="326" y="-138.8" font-family="Courier,monospace" font-size="9.00">use_module</text>
</a>
</g>
</g>
<!-- html_write -->
<g id="node5" class="node">
<title>html_write</title>
<g id="a_node5"><a xlink:title="module">
<polygon fill="gainsboro" stroke="black" stroke-dasharray="5,2" points="404,-92 324,-92 324,-96 312,-96 312,-56 404,-56 404,-92"/>
<polyline fill="none" stroke="black" stroke-dasharray="5,2" points="312,-92 324,-92 "/>
<text text-anchor="start" x="319.8" y="-75.8" font-family="Courier,monospace" font-size="9.00"> </text>
<text text-anchor="start" x="324.99" y="-75.2" font-family="Courier,monospace" font-size="11.00">html_write</text>
<text text-anchor="start" x="390.8" y="-75.8" font-family="Courier,monospace" font-size="9.00"> </text>
<text text-anchor="start" x="319.8" y="-65.8" font-family="Courier,monospace" font-size="9.00"> </text>
<text text-anchor="start" x="345.4" y="-66.4" font-family="Courier,monospace" font-size="7.00">module</text>
<text text-anchor="start" x="390.8" y="-65.8" font-family="Courier,monospace" font-size="9.00"> </text>
</a>
</g>
</g>
<!-- http_settings&#45;&gt;html_write -->
<g id="edge4" class="edge">
<title>http_settings&#45;&gt;html_write</title>
<path fill="none" stroke="black" d="M358,-190.89C358,-165.23 358,-129.56 358,-104.59"/>
<polygon fill="black" stroke="black" points="358,-104.29 354,-98.29 358,-92.29 358,-104.29"/>
<g id="a_edge4&#45;label"><a xlink:title="use_module">
<text text-anchor="middle" x="385" y="-138.8" font-family="Courier,monospace" font-size="9.00">use_module</text>
</a>
</g>
</g>
<!-- prolog_debug -->
<g id="node6" class="node">
<title>prolog_debug</title>
<g id="a_node6"><a xlink:title="module">
<polygon fill="gainsboro" stroke="black" stroke-dasharray="5,2" points="527.5,-92 434.5,-92 434.5,-96 422.5,-96 422.5,-56 527.5,-56 527.5,-92"/>
<polyline fill="none" stroke="black" stroke-dasharray="5,2" points="422.5,-92 434.5,-92 "/>
<text text-anchor="start" x="430.8" y="-75.8" font-family="Courier,monospace" font-size="9.00"> </text>
<text text-anchor="start" x="435.89" y="-75.2" font-family="Courier,monospace" font-size="11.00">prolog_debug</text>
<text text-anchor="start" x="514.8" y="-75.8" font-family="Courier,monospace" font-size="9.00"> </text>
<text text-anchor="start" x="430.8" y="-65.8" font-family="Courier,monospace" font-size="9.00"> </text>
<text text-anchor="start" x="462.9" y="-66.4" font-family="Courier,monospace" font-size="7.00">module</text>
<text text-anchor="start" x="514.8" y="-65.8" font-family="Courier,monospace" font-size="9.00"> </text>
</a>
</g>
</g>
<!-- http_settings&#45;&gt;prolog_debug -->
<g id="edge5" class="edge">
<title>http_settings&#45;&gt;prolog_debug</title>
<path fill="none" stroke="black" d="M383.39,-190.89C404.42,-164.29 433.96,-126.92 453.75,-101.88"/>
<polygon fill="black" stroke="black" points="453.89,-101.7 454.47,-94.52 461.33,-92.29 453.89,-101.7"/>
<g id="a_edge5&#45;label"><a xlink:title="use_module">
<text text-anchor="middle" x="450" y="-138.8" font-family="Courier,monospace" font-size="9.00">use_module</text>
</a>
</g>
</g>
<!-- http_parameters -->
<g id="node7" class="node">
<title>http_parameters</title>
<g id="a_node7"><a xlink:title="module">
<polygon fill="gainsboro" stroke="black" stroke-dasharray="5,2" points="670.5,-92 557.5,-92 557.5,-96 545.5,-96 545.5,-56 670.5,-56 670.5,-92"/>
<polyline fill="none" stroke="black" stroke-dasharray="5,2" points="545.5,-92 557.5,-92 "/>
<text text-anchor="start" x="553.8" y="-75.8" font-family="Courier,monospace" font-size="9.00"> </text>
<text text-anchor="start" x="558.99" y="-75.2" font-family="Courier,monospace" font-size="11.00">http_parameters</text>
<text text-anchor="start" x="657.8" y="-75.8" font-family="Courier,monospace" font-size="9.00"> </text>
<text text-anchor="start" x="553.8" y="-65.8" font-family="Courier,monospace" font-size="9.00"> </text>
<text text-anchor="start" x="595.9" y="-66.4" font-family="Courier,monospace" font-size="7.00">module</text>
<text text-anchor="start" x="657.8" y="-65.8" font-family="Courier,monospace" font-size="9.00"> </text>
</a>
</g>
</g>
<!-- http_settings&#45;&gt;http_parameters -->
<g id="edge6" class="edge">
<title>http_settings&#45;&gt;http_parameters</title>
<path fill="none" stroke="black" d="M415.2,-190.91C450.52,-170.89 496.65,-144.38 537,-120 548.26,-113.19 560.4,-105.6 571.4,-98.62"/>
<polygon fill="black" stroke="black" points="571.42,-98.61 574.32,-92.01 581.53,-92.15 571.42,-98.61"/>
<g id="a_edge6&#45;label"><a xlink:title="use_module">
<text text-anchor="middle" x="534" y="-138.8" font-family="Courier,monospace" font-size="9.00">use_module</text>
</a>
</g>
</g>
<!-- lists -->
<g id="node8" class="node">
<title>lists</title>
<g id="a_node8"><a xlink:title="module">
<polygon fill="gainsboro" stroke="black" stroke-dasharray="5,2" points="747.5,-92 700.5,-92 700.5,-96 688.5,-96 688.5,-56 747.5,-56 747.5,-92"/>
<polyline fill="none" stroke="black" stroke-dasharray="5,2" points="688.5,-92 700.5,-92 "/>
<text text-anchor="start" x="696.8" y="-75.8" font-family="Courier,monospace" font-size="9.00"> </text>
<text text-anchor="start" x="702" y="-75.2" font-family="Courier,monospace" font-size="11.00">lists</text>
<text text-anchor="start" x="734.8" y="-75.8" font-family="Courier,monospace" font-size="9.00"> </text>
<text text-anchor="start" x="696.8" y="-65.8" font-family="Courier,monospace" font-size="9.00"> </text>
<text text-anchor="start" x="705.9" y="-66.4" font-family="Courier,monospace" font-size="7.00">module</text>
<text text-anchor="start" x="734.8" y="-65.8" font-family="Courier,monospace" font-size="9.00"> </text>
</a>
</g>
</g>
<!-- http_settings&#45;&gt;lists -->
<g id="edge7" class="edge">
<title>http_settings&#45;&gt;lists</title>
<path fill="none" stroke="black" d="M430.53,-211.75C499.32,-198.45 603.29,-171.32 680,-120 687.31,-115.11 694,-108.43 699.65,-101.71"/>
<polygon fill="black" stroke="black" points="699.8,-101.52 700.32,-94.33 707.16,-92.04 699.8,-101.52"/>
<g id="a_edge7&#45;label"><a xlink:title="use_module">
<text text-anchor="middle" x="675" y="-138.8" font-family="Courier,monospace" font-size="9.00">use_module</text>
</a>
</g>
</g>
</g>
</svg>
