<?xml version="1.0" encoding="UTF-8" standalone="no"?>
<!DOCTYPE svg PUBLIC "-//W3C//DTD SVG 1.1//EN"
 "http://www.w3.org/Graphics/SVG/1.1/DTD/svg11.dtd">
<!-- Generated by graphviz version 2.41.20190410.0829 (20190410.0829)
 -->
<!-- Title: jena_properties.pl Pages: 1 -->
<svg width="669pt" height="445pt"
 viewBox="72.00 72.00 597.00 373.00" xmlns="http://www.w3.org/2000/svg" xmlns:xlink="http://www.w3.org/1999/xlink">
<g id="graph0" class="graph" transform="scale(1 1) rotate(0) translate(76 369)">
<title>jena_properties.pl</title>
<polygon fill="white" stroke="transparent" points="-4,4 -4,-297 521,-297 521,4 -4,4"/>
<text text-anchor="start" x="8" y="-16" font-family="Courier,monospace" font-size="10.00" fill="#8b8989">ClioPatria &#45; an RDF application platform</text>
<text text-anchor="start" x="8" y="-6" font-family="Courier,monospace" font-size="10.00" fill="#8b8989">Generated on 2019/04/17, 13:04</text>
<g id="clust1" class="cluster">
<title>cluster_file_/Users/pmoura/ClioPatria/rdfql/jena_properties.pl</title>
<g id="a_clust1"><a xlink:href="https://github.com/ClioPatria/ClioPatria/tree/add57aa2039eed4033cf96e96c293b2052e88f41/rdfql/jena_properties.pl" xlink:title="https://github.com/ClioPatria/ClioPatria/tree/add57aa2039eed4033cf96e96c293b2052e88f41/rdfql/jena_properties.pl">
<path fill="snow" stroke="#8b8989" d="M20,-36C20,-36 497,-36 497,-36 503,-36 509,-42 509,-48 509,-48 509,-273 509,-273 509,-279 503,-285 497,-285 497,-285 20,-285 20,-285 14,-285 8,-279 8,-273 8,-273 8,-48 8,-48 8,-42 14,-36 20,-36"/>
<text text-anchor="middle" x="70.01" y="-273" font-family="Courier,monospace" font-size="10.00" fill="#8b8989">jena_properties.pl</text>
</a>
</g>
</g>
<g id="clust2" class="cluster">
<title>cluster_other</title>
<g id="a_clust2"><a xlink:title="(external entities)">
<path fill="white" stroke="#8b8989" d="M30,-46C30,-46 487,-46 487,-46 493,-46 499,-52 499,-58 499,-58 499,-108 499,-108 499,-114 493,-120 487,-120 487,-120 30,-120 30,-120 24,-120 18,-114 18,-108 18,-108 18,-58 18,-58 18,-52 24,-46 30,-46"/>
<text text-anchor="middle" x="83.01" y="-108" font-family="Courier,monospace" font-size="10.00" fill="#8b8989">(external entities)</text>
</a>
</g>
</g>
<!-- jena_properties -->
<g id="node1" class="node">
<title>jena_properties</title>
<g id="a_node1"><a xlink:title="module">
<polygon fill="gainsboro" stroke="black" points="367,-257 153,-257 153,-261 141,-261 141,-191 367,-191 367,-257"/>
<polyline fill="none" stroke="black" points="141,-257 153,-257 "/>
<g id="a_node1_0"><a xlink:href="jena_properties_module_xref_diagram.svg" xlink:title="Zoom">
<image xlink:href="zoom.png" width="11px" height="11px" preserveAspectRatio="xMinYMin meet" x="149" y="-253"/>
</a>
</g>
<text text-anchor="start" x="151.8" y="-233.8" font-family="Courier,monospace" font-size="9.00"> </text>
<text text-anchor="start" x="207.49" y="-233.2" font-family="Courier,monospace" font-size="11.00">jena_properties</text>
<text text-anchor="start" x="353.8" y="-233.8" font-family="Courier,monospace" font-size="9.00"> </text>
<text text-anchor="start" x="151.8" y="-223.8" font-family="Courier,monospace" font-size="9.00"> </text>
<text text-anchor="start" x="244.4" y="-224.4" font-family="Courier,monospace" font-size="7.00">module</text>
<text text-anchor="start" x="353.8" y="-223.8" font-family="Courier,monospace" font-size="9.00"> </text>
<text text-anchor="start" x="151.8" y="-214.8" font-family="Courier,monospace" font-size="9.00"> </text>
<text text-anchor="start" x="151.8" y="-205.8" font-family="Courier,monospace" font-size="9.00"> </text>
<text text-anchor="start" x="181.39" y="-205.8" font-family="Courier,monospace" font-size="9.00">sparql:functional_property/2</text>
<text text-anchor="start" x="353.8" y="-205.8" font-family="Courier,monospace" font-size="9.00"> </text>
<text text-anchor="start" x="151.8" y="-196.8" font-family="Courier,monospace" font-size="9.00"> </text>
<text text-anchor="start" x="159.78" y="-196.8" font-family="Courier,monospace" font-size="9.00">sparql:current_functional_property/3</text>
<text text-anchor="start" x="353.8" y="-196.8" font-family="Courier,monospace" font-size="9.00"> </text>
</a>
</g>
</g>
<!-- sparql -->
<g id="node2" class="node">
<title>sparql</title>
<g id="a_node2"><a xlink:title="module">
<polygon fill="gainsboro" stroke="black" stroke-dasharray="5,2" points="93.5,-92 40.5,-92 40.5,-96 28.5,-96 28.5,-56 93.5,-56 93.5,-92"/>
<polyline fill="none" stroke="black" stroke-dasharray="5,2" points="28.5,-92 40.5,-92 "/>
<text text-anchor="start" x="36.8" y="-75.8" font-family="Courier,monospace" font-size="9.00"> </text>
<text text-anchor="start" x="41.7" y="-75.2" font-family="Courier,monospace" font-size="11.00">sparql</text>
<text text-anchor="start" x="80.8" y="-75.8" font-family="Courier,monospace" font-size="9.00"> </text>
<text text-anchor="start" x="36.8" y="-65.8" font-family="Courier,monospace" font-size="9.00"> </text>
<text text-anchor="start" x="48.9" y="-66.4" font-family="Courier,monospace" font-size="7.00">module</text>
<text text-anchor="start" x="80.8" y="-65.8" font-family="Courier,monospace" font-size="9.00"> </text>
</a>
</g>
</g>
<!-- jena_properties&#45;&gt;sparql -->
<g id="edge1" class="edge">
<title>jena_properties&#45;&gt;sparql</title>
<path fill="none" stroke="black" d="M200.06,-190.86C169.95,-171.86 132.48,-146.4 102,-120 94.99,-113.93 87.98,-106.74 81.78,-99.91"/>
<polygon fill="black" stroke="black" points="77.55,-89.83 81.54,-99.64 72.3,-94.46 77.55,-89.83"/>
<g id="a_edge1&#45;label"><a xlink:title="provides">
<text text-anchor="middle" x="154.6" y="-138.8" font-family="Courier,monospace" font-size="9.00">provides</text>
</a>
</g>
</g>
<!-- rdf_db -->
<g id="node3" class="node">
<title>rdf_db</title>
<g id="a_node3"><a xlink:title="module">
<polygon fill="gainsboro" stroke="black" stroke-dasharray="5,2" points="176.5,-92 123.5,-92 123.5,-96 111.5,-96 111.5,-56 176.5,-56 176.5,-92"/>
<polyline fill="none" stroke="black" stroke-dasharray="5,2" points="111.5,-92 123.5,-92 "/>
<text text-anchor="start" x="119.8" y="-75.8" font-family="Courier,monospace" font-size="9.00"> </text>
<text text-anchor="start" x="124.7" y="-75.2" font-family="Courier,monospace" font-size="11.00">rdf_db</text>
<text text-anchor="start" x="163.8" y="-75.8" font-family="Courier,monospace" font-size="9.00"> </text>
<text text-anchor="start" x="119.8" y="-65.8" font-family="Courier,monospace" font-size="9.00"> </text>
<text text-anchor="start" x="131.9" y="-66.4" font-family="Courier,monospace" font-size="7.00">module</text>
<text text-anchor="start" x="163.8" y="-65.8" font-family="Courier,monospace" font-size="9.00"> </text>
</a>
</g>
</g>
<!-- jena_properties&#45;&gt;rdf_db -->
<g id="edge2" class="edge">
<title>jena_properties&#45;&gt;rdf_db</title>
<path fill="none" stroke="black" d="M229.63,-190.85C219.22,-177.07 206.97,-160.78 195.99,-146 185.28,-131.58 173.44,-115.43 163.77,-102.18"/>
<polygon fill="black" stroke="black" points="163.61,-101.96 156.84,-99.47 156.54,-92.26 163.61,-101.96"/>
<g id="a_edge2&#45;label"><a xlink:title="use_module">
<text text-anchor="middle" x="222" y="-138.8" font-family="Courier,monospace" font-size="9.00">use_module</text>
</a>
</g>
</g>
<!-- sparql_runtime -->
<g id="node4" class="node">
<title>sparql_runtime</title>
<g id="a_node4"><a xlink:title="module">
<polygon fill="gainsboro" stroke="black" stroke-dasharray="5,2" points="313,-92 207,-92 207,-96 195,-96 195,-56 313,-56 313,-92"/>
<polyline fill="none" stroke="black" stroke-dasharray="5,2" points="195,-92 207,-92 "/>
<text text-anchor="start" x="202.8" y="-75.8" font-family="Courier,monospace" font-size="9.00"> </text>
<text text-anchor="start" x="207.79" y="-75.2" font-family="Courier,monospace" font-size="11.00">sparql_runtime</text>
<text text-anchor="start" x="299.8" y="-75.8" font-family="Courier,monospace" font-size="9.00"> </text>
<text text-anchor="start" x="202.8" y="-65.8" font-family="Courier,monospace" font-size="9.00"> </text>
<text text-anchor="start" x="241.4" y="-66.4" font-family="Courier,monospace" font-size="7.00">module</text>
<text text-anchor="start" x="299.8" y="-65.8" font-family="Courier,monospace" font-size="9.00"> </text>
</a>
</g>
</g>
<!-- jena_properties&#45;&gt;sparql_runtime -->
<g id="edge3" class="edge">
<title>jena_properties&#45;&gt;sparql_runtime</title>
<path fill="none" stroke="black" d="M254,-190.89C254,-165.23 254,-129.56 254,-104.59"/>
<polygon fill="black" stroke="black" points="254,-104.29 250,-98.29 254,-92.29 254,-104.29"/>
<g id="a_edge3&#45;label"><a xlink:title="use_module">
<text text-anchor="middle" x="281" y="-138.8" font-family="Courier,monospace" font-size="9.00">use_module</text>
</a>
</g>
</g>
<!-- rdfs -->
<g id="node5" class="node">
<title>rdfs</title>
<g id="a_node5"><a xlink:title="module">
<polygon fill="gainsboro" stroke="black" stroke-dasharray="5,2" points="385,-92 343,-92 343,-96 331,-96 331,-56 385,-56 385,-92"/>
<polyline fill="none" stroke="black" stroke-dasharray="5,2" points="331,-92 343,-92 "/>
<text text-anchor="start" x="339.8" y="-75.8" font-family="Courier,monospace" font-size="9.00"> </text>
<text text-anchor="start" x="344.8" y="-75.2" font-family="Courier,monospace" font-size="11.00">rdfs</text>
<text text-anchor="start" x="370.8" y="-75.8" font-family="Courier,monospace" font-size="9.00"> </text>
<text text-anchor="start" x="339.8" y="-65.8" font-family="Courier,monospace" font-size="9.00"> </text>
<text text-anchor="start" x="345.4" y="-66.4" font-family="Courier,monospace" font-size="7.00">module</text>
<text text-anchor="start" x="370.8" y="-65.8" font-family="Courier,monospace" font-size="9.00"> </text>
</a>
</g>
</g>
<!-- jena_properties&#45;&gt;rdfs -->
<g id="edge4" class="edge">
<title>jena_properties&#45;&gt;rdfs</title>
<path fill="none" stroke="black" d="M279.07,-190.78C289.48,-177.13 301.55,-160.95 312,-146 321.86,-131.89 332.34,-115.83 340.79,-102.55"/>
<polygon fill="black" stroke="black" points="340.95,-102.29 340.78,-95.09 347.36,-92.15 340.95,-102.29"/>
<g id="a_edge4&#45;label"><a xlink:title="use_module">
<text text-anchor="middle" x="344" y="-138.8" font-family="Courier,monospace" font-size="9.00">use_module</text>
</a>
</g>
</g>
<!-- aggregate -->
<g id="node6" class="node">
<title>aggregate</title>
<g id="a_node6"><a xlink:title="module">
<polygon fill="gainsboro" stroke="black" stroke-dasharray="5,2" points="488.5,-92 415.5,-92 415.5,-96 403.5,-96 403.5,-56 488.5,-56 488.5,-92"/>
<polyline fill="none" stroke="black" stroke-dasharray="5,2" points="403.5,-92 415.5,-92 "/>
<text text-anchor="start" x="411.8" y="-75.8" font-family="Courier,monospace" font-size="9.00"> </text>
<text text-anchor="start" x="416.8" y="-75.2" font-family="Courier,monospace" font-size="11.00">aggregate</text>
<text text-anchor="start" x="475.8" y="-75.8" font-family="Courier,monospace" font-size="9.00"> </text>
<text text-anchor="start" x="411.8" y="-65.8" font-family="Courier,monospace" font-size="9.00"> </text>
<text text-anchor="start" x="433.9" y="-66.4" font-family="Courier,monospace" font-size="7.00">module</text>
<text text-anchor="start" x="475.8" y="-65.8" font-family="Courier,monospace" font-size="9.00"> </text>
</a>
</g>
</g>
<!-- jena_properties&#45;&gt;aggregate -->
<g id="edge5" class="edge">
<title>jena_properties&#45;&gt;aggregate</title>
<path fill="none" stroke="black" d="M309.95,-190.94C331.04,-177.95 354.8,-162.2 375,-146 391.9,-132.44 409.13,-115.31 422.39,-101.27"/>
<polygon fill="black" stroke="black" points="422.71,-100.92 423.86,-93.8 430.87,-92.13 422.71,-100.92"/>
<g id="a_edge5&#45;label"><a xlink:title="use_module">
<text text-anchor="middle" x="412" y="-138.8" font-family="Courier,monospace" font-size="9.00">use_module</text>
</a>
</g>
</g>
</g>
</svg>
