<?xml version="1.0" encoding="UTF-8" standalone="no"?>
<!DOCTYPE svg PUBLIC "-//W3C//DTD SVG 1.1//EN"
 "http://www.w3.org/Graphics/SVG/1.1/DTD/svg11.dtd">
<!-- Generated by graphviz version 2.41.20190410.0829 (20190410.0829)
 -->
<!-- Title: journal.pl Pages: 1 -->
<svg width="774pt" height="418pt"
 viewBox="72.00 72.00 702.00 346.00" xmlns="http://www.w3.org/2000/svg" xmlns:xlink="http://www.w3.org/1999/xlink">
<g id="graph0" class="graph" transform="scale(1 1) rotate(0) translate(76 342)">
<title>journal.pl</title>
<polygon fill="white" stroke="transparent" points="-4,4 -4,-270 626,-270 626,4 -4,4"/>
<text text-anchor="start" x="8" y="-16" font-family="Courier,monospace" font-size="10.00" fill="#8b8989">ClioPatria &#45; an RDF application platform</text>
<text text-anchor="start" x="8" y="-6" font-family="Courier,monospace" font-size="10.00" fill="#8b8989">Generated on 2019/04/17, 13:04</text>
<g id="clust1" class="cluster">
<title>cluster_file_/Users/pmoura/ClioPatria/api/journal.pl</title>
<g id="a_clust1"><a xlink:href="https://github.com/ClioPatria/ClioPatria/tree/add57aa2039eed4033cf96e96c293b2052e88f41/api/journal.pl" xlink:title="https://github.com/ClioPatria/ClioPatria/tree/add57aa2039eed4033cf96e96c293b2052e88f41/api/journal.pl">
<path fill="snow" stroke="#8b8989" d="M20,-36C20,-36 602,-36 602,-36 608,-36 614,-42 614,-48 614,-48 614,-246 614,-246 614,-252 608,-258 602,-258 602,-258 20,-258 20,-258 14,-258 8,-252 8,-246 8,-246 8,-48 8,-48 8,-42 14,-36 20,-36"/>
<text text-anchor="middle" x="46" y="-246" font-family="Courier,monospace" font-size="10.00" fill="#8b8989">journal.pl</text>
</a>
</g>
</g>
<g id="clust2" class="cluster">
<title>cluster_other</title>
<g id="a_clust2"><a xlink:title="(external entities)">
<path fill="white" stroke="#8b8989" d="M30,-46C30,-46 592,-46 592,-46 598,-46 604,-52 604,-58 604,-58 604,-108 604,-108 604,-114 598,-120 592,-120 592,-120 30,-120 30,-120 24,-120 18,-114 18,-108 18,-108 18,-58 18,-58 18,-52 24,-46 30,-46"/>
<text text-anchor="middle" x="83.01" y="-108" font-family="Courier,monospace" font-size="10.00" fill="#8b8989">(external entities)</text>
</a>
</g>
</g>
<!-- api_journal -->
<g id="node1" class="node">
<title>api_journal</title>
<g id="a_node1"><a xlink:title="module">
<polygon fill="gainsboro" stroke="black" points="363,-230 271,-230 271,-234 259,-234 259,-191 363,-191 363,-230"/>
<polyline fill="none" stroke="black" points="259,-230 271,-230 "/>
<g id="a_node1_0"><a xlink:href="api_journal_module_xref_diagram.svg" xlink:title="Zoom">
<image xlink:href="zoom.png" width="11px" height="11px" preserveAspectRatio="xMinYMin meet" x="267" y="-225.5"/>
</a>
</g>
<text text-anchor="start" x="269.8" y="-206.3" font-family="Courier,monospace" font-size="9.00"> </text>
<text text-anchor="start" x="277.69" y="-205.7" font-family="Courier,monospace" font-size="11.00">api_journal</text>
<text text-anchor="start" x="349.8" y="-206.3" font-family="Courier,monospace" font-size="9.00"> </text>
<text text-anchor="start" x="269.8" y="-196.3" font-family="Courier,monospace" font-size="9.00"> </text>
<text text-anchor="start" x="301.4" y="-196.9" font-family="Courier,monospace" font-size="7.00">module</text>
<text text-anchor="start" x="349.8" y="-196.3" font-family="Courier,monospace" font-size="9.00"> </text>
</a>
</g>
</g>
<!-- http_dispatch -->
<g id="node2" class="node">
<title>http_dispatch</title>
<g id="a_node2"><a xlink:title="module">
<polygon fill="gainsboro" stroke="black" stroke-dasharray="5,2" points="139.5,-92 40.5,-92 40.5,-96 28.5,-96 28.5,-56 139.5,-56 139.5,-92"/>
<polyline fill="none" stroke="black" stroke-dasharray="5,2" points="28.5,-92 40.5,-92 "/>
<text text-anchor="start" x="36.8" y="-75.8" font-family="Courier,monospace" font-size="9.00"> </text>
<text text-anchor="start" x="41.59" y="-75.2" font-family="Courier,monospace" font-size="11.00">http_dispatch</text>
<text text-anchor="start" x="126.8" y="-75.8" font-family="Courier,monospace" font-size="9.00"> </text>
<text text-anchor="start" x="36.8" y="-65.8" font-family="Courier,monospace" font-size="9.00"> </text>
<text text-anchor="start" x="71.9" y="-66.4" font-family="Courier,monospace" font-size="7.00">module</text>
<text text-anchor="start" x="126.8" y="-65.8" font-family="Courier,monospace" font-size="9.00"> </text>
</a>
</g>
</g>
<!-- api_journal&#45;&gt;http_dispatch -->
<g id="edge1" class="edge">
<title>api_journal&#45;&gt;http_dispatch</title>
<path fill="none" stroke="black" d="M272.45,-190.98C247.9,-178.85 215.64,-162.28 187.99,-146 170.04,-135.43 166.23,-131.71 149,-120 139.16,-113.32 128.54,-106 118.78,-99.25"/>
<polygon fill="black" stroke="black" points="118.48,-99.04 111.27,-98.9 108.62,-92.2 118.48,-99.04"/>
<g id="a_edge1&#45;label"><a xlink:title="use_module">
<text text-anchor="middle" x="214" y="-138.8" font-family="Courier,monospace" font-size="9.00">use_module</text>
</a>
</g>
</g>
<!-- user_db -->
<g id="node3" class="node">
<title>user_db</title>
<g id="a_node3"><a xlink:title="module">
<polygon fill="gainsboro" stroke="black" stroke-dasharray="5,2" points="230,-92 170,-92 170,-96 158,-96 158,-56 230,-56 230,-92"/>
<polyline fill="none" stroke="black" stroke-dasharray="5,2" points="158,-92 170,-92 "/>
<text text-anchor="start" x="165.8" y="-75.8" font-family="Courier,monospace" font-size="9.00"> </text>
<text text-anchor="start" x="170.9" y="-75.2" font-family="Courier,monospace" font-size="11.00">user_db</text>
<text text-anchor="start" x="216.8" y="-75.8" font-family="Courier,monospace" font-size="9.00"> </text>
<text text-anchor="start" x="165.8" y="-65.8" font-family="Courier,monospace" font-size="9.00"> </text>
<text text-anchor="start" x="181.4" y="-66.4" font-family="Courier,monospace" font-size="7.00">module</text>
<text text-anchor="start" x="216.8" y="-65.8" font-family="Courier,monospace" font-size="9.00"> </text>
</a>
</g>
</g>
<!-- api_journal&#45;&gt;user_db -->
<g id="edge2" class="edge">
<title>api_journal&#45;&gt;user_db</title>
<path fill="none" stroke="black" d="M293.51,-190.82C281.87,-178.27 266.33,-161.31 252.99,-146 240.41,-131.56 226.71,-115.12 215.69,-101.71"/>
<polygon fill="black" stroke="black" points="215.44,-101.4 208.55,-99.29 207.84,-92.12 215.44,-101.4"/>
<g id="a_edge2&#45;label"><a xlink:title="use_module">
<text text-anchor="middle" x="279" y="-138.8" font-family="Courier,monospace" font-size="9.00">use_module</text>
</a>
</g>
</g>
<!-- rdf_persistency -->
<g id="node4" class="node">
<title>rdf_persistency</title>
<g id="a_node4"><a xlink:title="module">
<polygon fill="gainsboro" stroke="black" stroke-dasharray="5,2" points="373.5,-92 260.5,-92 260.5,-96 248.5,-96 248.5,-56 373.5,-56 373.5,-92"/>
<polyline fill="none" stroke="black" stroke-dasharray="5,2" points="248.5,-92 260.5,-92 "/>
<text text-anchor="start" x="256.8" y="-75.8" font-family="Courier,monospace" font-size="9.00"> </text>
<text text-anchor="start" x="261.99" y="-75.2" font-family="Courier,monospace" font-size="11.00">rdf_persistency</text>
<text text-anchor="start" x="360.8" y="-75.8" font-family="Courier,monospace" font-size="9.00"> </text>
<text text-anchor="start" x="256.8" y="-65.8" font-family="Courier,monospace" font-size="9.00"> </text>
<text text-anchor="start" x="298.9" y="-66.4" font-family="Courier,monospace" font-size="7.00">module</text>
<text text-anchor="start" x="360.8" y="-65.8" font-family="Courier,monospace" font-size="9.00"> </text>
</a>
</g>
</g>
<!-- api_journal&#45;&gt;rdf_persistency -->
<g id="edge3" class="edge">
<title>api_journal&#45;&gt;rdf_persistency</title>
<path fill="none" stroke="black" d="M311,-190.8C311,-168.45 311,-130.77 311,-104.48"/>
<polygon fill="black" stroke="black" points="311,-104.27 307,-98.27 311,-92.27 311,-104.27"/>
<g id="a_edge3&#45;label"><a xlink:title="use_module">
<text text-anchor="middle" x="338" y="-138.8" font-family="Courier,monospace" font-size="9.00">use_module</text>
</a>
</g>
</g>
<!-- http_parameters -->
<g id="node5" class="node">
<title>http_parameters</title>
<g id="a_node5"><a xlink:title="module">
<polygon fill="gainsboro" stroke="black" stroke-dasharray="5,2" points="516.5,-92 403.5,-92 403.5,-96 391.5,-96 391.5,-56 516.5,-56 516.5,-92"/>
<polyline fill="none" stroke="black" stroke-dasharray="5,2" points="391.5,-92 403.5,-92 "/>
<text text-anchor="start" x="399.8" y="-75.8" font-family="Courier,monospace" font-size="9.00"> </text>
<text text-anchor="start" x="404.99" y="-75.2" font-family="Courier,monospace" font-size="11.00">http_parameters</text>
<text text-anchor="start" x="503.8" y="-75.8" font-family="Courier,monospace" font-size="9.00"> </text>
<text text-anchor="start" x="399.8" y="-65.8" font-family="Courier,monospace" font-size="9.00"> </text>
<text text-anchor="start" x="441.9" y="-66.4" font-family="Courier,monospace" font-size="7.00">module</text>
<text text-anchor="start" x="503.8" y="-65.8" font-family="Courier,monospace" font-size="9.00"> </text>
</a>
</g>
</g>
<!-- api_journal&#45;&gt;http_parameters -->
<g id="edge4" class="edge">
<title>api_journal&#45;&gt;http_parameters</title>
<path fill="none" stroke="black" d="M330.88,-190.8C355.84,-167.32 398.77,-126.95 426.77,-100.61"/>
<polygon fill="black" stroke="black" points="426.9,-100.49 428.53,-93.46 435.64,-92.27 426.9,-100.49"/>
<g id="a_edge4&#45;label"><a xlink:title="use_module">
<text text-anchor="middle" x="413" y="-138.8" font-family="Courier,monospace" font-size="9.00">use_module</text>
</a>
</g>
</g>
<!-- error -->
<g id="node6" class="node">
<title>error</title>
<g id="a_node6"><a xlink:title="module">
<polygon fill="gainsboro" stroke="black" stroke-dasharray="5,2" points="593.5,-92 546.5,-92 546.5,-96 534.5,-96 534.5,-56 593.5,-56 593.5,-92"/>
<polyline fill="none" stroke="black" stroke-dasharray="5,2" points="534.5,-92 546.5,-92 "/>
<text text-anchor="start" x="542.8" y="-75.8" font-family="Courier,monospace" font-size="9.00"> </text>
<text text-anchor="start" x="548" y="-75.2" font-family="Courier,monospace" font-size="11.00">error</text>
<text text-anchor="start" x="580.8" y="-75.8" font-family="Courier,monospace" font-size="9.00"> </text>
<text text-anchor="start" x="542.8" y="-65.8" font-family="Courier,monospace" font-size="9.00"> </text>
<text text-anchor="start" x="551.9" y="-66.4" font-family="Courier,monospace" font-size="7.00">module</text>
<text text-anchor="start" x="580.8" y="-65.8" font-family="Courier,monospace" font-size="9.00"> </text>
</a>
</g>
</g>
<!-- api_journal&#45;&gt;error -->
<g id="edge5" class="edge">
<title>api_journal&#45;&gt;error</title>
<path fill="none" stroke="black" d="M363.17,-195.44C409.04,-181.38 476.09,-156.54 526,-120 532.98,-114.89 539.5,-108.23 545.1,-101.62"/>
<polygon fill="black" stroke="black" points="545.16,-101.55 545.74,-94.37 552.6,-92.14 545.16,-101.55"/>
<g id="a_edge5&#45;label"><a xlink:title="use_module">
<text text-anchor="middle" x="526" y="-138.8" font-family="Courier,monospace" font-size="9.00">use_module</text>
</a>
</g>
</g>
</g>
</svg>
