<?xml version="1.0" encoding="UTF-8" standalone="no"?>
<!DOCTYPE svg PUBLIC "-//W3C//DTD SVG 1.1//EN"
 "http://www.w3.org/Graphics/SVG/1.1/DTD/svg11.dtd">
<!-- Generated by graphviz version 2.41.20190410.0829 (20190410.0829)
 -->
<!-- Title: json.pl Pages: 1 -->
<svg width="941pt" height="418pt"
 viewBox="72.00 72.00 869.00 346.00" xmlns="http://www.w3.org/2000/svg" xmlns:xlink="http://www.w3.org/1999/xlink">
<g id="graph0" class="graph" transform="scale(1 1) rotate(0) translate(76 342)">
<title>json.pl</title>
<polygon fill="white" stroke="transparent" points="-4,4 -4,-270 793,-270 793,4 -4,4"/>
<text text-anchor="start" x="8" y="-16" font-family="Courier,monospace" font-size="10.00" fill="#8b8989">ClioPatria &#45; an RDF application platform</text>
<text text-anchor="start" x="8" y="-6" font-family="Courier,monospace" font-size="10.00" fill="#8b8989">Generated on 2019/04/17, 13:04</text>
<g id="clust1" class="cluster">
<title>cluster_file_/Users/pmoura/ClioPatria/api/json.pl</title>
<g id="a_clust1"><a xlink:href="https://github.com/ClioPatria/ClioPatria/tree/add57aa2039eed4033cf96e96c293b2052e88f41/api/json.pl" xlink:title="https://github.com/ClioPatria/ClioPatria/tree/add57aa2039eed4033cf96e96c293b2052e88f41/api/json.pl">
<path fill="snow" stroke="#8b8989" d="M20,-36C20,-36 769,-36 769,-36 775,-36 781,-42 781,-48 781,-48 781,-246 781,-246 781,-252 775,-258 769,-258 769,-258 20,-258 20,-258 14,-258 8,-252 8,-246 8,-246 8,-48 8,-48 8,-42 14,-36 20,-36"/>
<text text-anchor="middle" x="37" y="-246" font-family="Courier,monospace" font-size="10.00" fill="#8b8989">json.pl</text>
</a>
</g>
</g>
<g id="clust2" class="cluster">
<title>cluster_other</title>
<g id="a_clust2"><a xlink:title="(external entities)">
<path fill="white" stroke="#8b8989" d="M30,-46C30,-46 759,-46 759,-46 765,-46 771,-52 771,-58 771,-58 771,-108 771,-108 771,-114 765,-120 759,-120 759,-120 30,-120 30,-120 24,-120 18,-114 18,-108 18,-108 18,-58 18,-58 18,-52 24,-46 30,-46"/>
<text text-anchor="middle" x="83.01" y="-108" font-family="Courier,monospace" font-size="10.00" fill="#8b8989">(external entities)</text>
</a>
</g>
</g>
<!-- api_json -->
<g id="node1" class="node">
<title>api_json</title>
<g id="a_node1"><a xlink:title="module">
<polygon fill="gainsboro" stroke="black" points="498,-230 426,-230 426,-234 414,-234 414,-191 498,-191 498,-230"/>
<polyline fill="none" stroke="black" points="414,-230 426,-230 "/>
<g id="a_node1_0"><a xlink:href="api_json_module_xref_diagram.svg" xlink:title="Zoom">
<image xlink:href="zoom.png" width="11px" height="11px" preserveAspectRatio="xMinYMin meet" x="422" y="-225.5"/>
</a>
</g>
<text text-anchor="start" x="424.8" y="-206.3" font-family="Courier,monospace" font-size="9.00"> </text>
<text text-anchor="start" x="432.6" y="-205.7" font-family="Courier,monospace" font-size="11.00">api_json</text>
<text text-anchor="start" x="484.8" y="-206.3" font-family="Courier,monospace" font-size="9.00"> </text>
<text text-anchor="start" x="424.8" y="-196.3" font-family="Courier,monospace" font-size="9.00"> </text>
<text text-anchor="start" x="446.4" y="-196.9" font-family="Courier,monospace" font-size="7.00">module</text>
<text text-anchor="start" x="484.8" y="-196.3" font-family="Courier,monospace" font-size="9.00"> </text>
</a>
</g>
</g>
<!-- http_dispatch -->
<g id="node2" class="node">
<title>http_dispatch</title>
<g id="a_node2"><a xlink:title="module">
<polygon fill="gainsboro" stroke="black" stroke-dasharray="5,2" points="139.5,-92 40.5,-92 40.5,-96 28.5,-96 28.5,-56 139.5,-56 139.5,-92"/>
<polyline fill="none" stroke="black" stroke-dasharray="5,2" points="28.5,-92 40.5,-92 "/>
<text text-anchor="start" x="36.8" y="-75.8" font-family="Courier,monospace" font-size="9.00"> </text>
<text text-anchor="start" x="41.59" y="-75.2" font-family="Courier,monospace" font-size="11.00">http_dispatch</text>
<text text-anchor="start" x="126.8" y="-75.8" font-family="Courier,monospace" font-size="9.00"> </text>
<text text-anchor="start" x="36.8" y="-65.8" font-family="Courier,monospace" font-size="9.00"> </text>
<text text-anchor="start" x="71.9" y="-66.4" font-family="Courier,monospace" font-size="7.00">module</text>
<text text-anchor="start" x="126.8" y="-65.8" font-family="Courier,monospace" font-size="9.00"> </text>
</a>
</g>
</g>
<!-- api_json&#45;&gt;http_dispatch -->
<g id="edge1" class="edge">
<title>api_json&#45;&gt;http_dispatch</title>
<path fill="none" stroke="black" d="M413.99,-201.73C353.38,-189.54 238.84,-162.8 149,-120 137.2,-114.38 125.18,-106.71 114.74,-99.3"/>
<polygon fill="black" stroke="black" points="114.56,-99.16 107.36,-98.83 104.89,-92.05 114.56,-99.16"/>
<g id="a_edge1&#45;label"><a xlink:title="use_module">
<text text-anchor="middle" x="232" y="-138.8" font-family="Courier,monospace" font-size="9.00">use_module</text>
</a>
</g>
</g>
<!-- http_parameters -->
<g id="node3" class="node">
<title>http_parameters</title>
<g id="a_node3"><a xlink:title="module">
<polygon fill="gainsboro" stroke="black" stroke-dasharray="5,2" points="282.5,-92 169.5,-92 169.5,-96 157.5,-96 157.5,-56 282.5,-56 282.5,-92"/>
<polyline fill="none" stroke="black" stroke-dasharray="5,2" points="157.5,-92 169.5,-92 "/>
<text text-anchor="start" x="165.8" y="-75.8" font-family="Courier,monospace" font-size="9.00"> </text>
<text text-anchor="start" x="170.99" y="-75.2" font-family="Courier,monospace" font-size="11.00">http_parameters</text>
<text text-anchor="start" x="269.8" y="-75.8" font-family="Courier,monospace" font-size="9.00"> </text>
<text text-anchor="start" x="165.8" y="-65.8" font-family="Courier,monospace" font-size="9.00"> </text>
<text text-anchor="start" x="207.9" y="-66.4" font-family="Courier,monospace" font-size="7.00">module</text>
<text text-anchor="start" x="269.8" y="-65.8" font-family="Courier,monospace" font-size="9.00"> </text>
</a>
</g>
</g>
<!-- api_json&#45;&gt;http_parameters -->
<g id="edge2" class="edge">
<title>api_json&#45;&gt;http_parameters</title>
<path fill="none" stroke="black" d="M418.5,-190.9C394.17,-178.6 361.91,-161.88 333.99,-146 314.91,-135.15 310.64,-131.59 292,-120 280.81,-113.04 268.65,-105.45 257.57,-98.52"/>
<polygon fill="black" stroke="black" points="257.51,-98.48 250.3,-98.69 247.33,-92.12 257.51,-98.48"/>
<g id="a_edge2&#45;label"><a xlink:title="use_module">
<text text-anchor="middle" x="360" y="-138.8" font-family="Courier,monospace" font-size="9.00">use_module</text>
</a>
</g>
</g>
<!-- rdf_describe -->
<g id="node4" class="node">
<title>rdf_describe</title>
<g id="a_node4"><a xlink:title="module">
<polygon fill="gainsboro" stroke="black" stroke-dasharray="5,2" points="405.5,-92 312.5,-92 312.5,-96 300.5,-96 300.5,-56 405.5,-56 405.5,-92"/>
<polyline fill="none" stroke="black" stroke-dasharray="5,2" points="300.5,-92 312.5,-92 "/>
<text text-anchor="start" x="308.8" y="-75.8" font-family="Courier,monospace" font-size="9.00"> </text>
<text text-anchor="start" x="313.89" y="-75.2" font-family="Courier,monospace" font-size="11.00">rdf_describe</text>
<text text-anchor="start" x="392.8" y="-75.8" font-family="Courier,monospace" font-size="9.00"> </text>
<text text-anchor="start" x="308.8" y="-65.8" font-family="Courier,monospace" font-size="9.00"> </text>
<text text-anchor="start" x="340.9" y="-66.4" font-family="Courier,monospace" font-size="7.00">module</text>
<text text-anchor="start" x="392.8" y="-65.8" font-family="Courier,monospace" font-size="9.00"> </text>
</a>
</g>
</g>
<!-- api_json&#45;&gt;rdf_describe -->
<g id="edge3" class="edge">
<title>api_json&#45;&gt;rdf_describe</title>
<path fill="none" stroke="black" d="M437.31,-190.81C425.46,-178.55 410.14,-161.9 397.99,-146 387.54,-132.32 377.17,-116.17 369.02,-102.74"/>
<polygon fill="black" stroke="black" points="368.88,-102.51 362.38,-99.4 362.75,-92.2 368.88,-102.51"/>
<g id="a_edge3&#45;label"><a xlink:title="use_module">
<text text-anchor="middle" x="424" y="-138.8" font-family="Courier,monospace" font-size="9.00">use_module</text>
</a>
</g>
</g>
<!-- rdf_db -->
<g id="node5" class="node">
<title>rdf_db</title>
<g id="a_node5"><a xlink:title="module">
<polygon fill="gainsboro" stroke="black" stroke-dasharray="5,2" points="488.5,-92 435.5,-92 435.5,-96 423.5,-96 423.5,-56 488.5,-56 488.5,-92"/>
<polyline fill="none" stroke="black" stroke-dasharray="5,2" points="423.5,-92 435.5,-92 "/>
<text text-anchor="start" x="431.8" y="-75.8" font-family="Courier,monospace" font-size="9.00"> </text>
<text text-anchor="start" x="436.7" y="-75.2" font-family="Courier,monospace" font-size="11.00">rdf_db</text>
<text text-anchor="start" x="475.8" y="-75.8" font-family="Courier,monospace" font-size="9.00"> </text>
<text text-anchor="start" x="431.8" y="-65.8" font-family="Courier,monospace" font-size="9.00"> </text>
<text text-anchor="start" x="443.9" y="-66.4" font-family="Courier,monospace" font-size="7.00">module</text>
<text text-anchor="start" x="475.8" y="-65.8" font-family="Courier,monospace" font-size="9.00"> </text>
</a>
</g>
</g>
<!-- api_json&#45;&gt;rdf_db -->
<g id="edge4" class="edge">
<title>api_json&#45;&gt;rdf_db</title>
<path fill="none" stroke="black" d="M456,-190.8C456,-168.45 456,-130.77 456,-104.48"/>
<polygon fill="black" stroke="black" points="456,-104.27 452,-98.27 456,-92.27 456,-104.27"/>
<g id="a_edge4&#45;label"><a xlink:title="use_module">
<text text-anchor="middle" x="483" y="-138.8" font-family="Courier,monospace" font-size="9.00">use_module</text>
</a>
</g>
</g>
<!-- rdf_json -->
<g id="node6" class="node">
<title>rdf_json</title>
<g id="a_node6"><a xlink:title="module">
<polygon fill="gainsboro" stroke="black" stroke-dasharray="5,2" points="585,-92 519,-92 519,-96 507,-96 507,-56 585,-56 585,-92"/>
<polyline fill="none" stroke="black" stroke-dasharray="5,2" points="507,-92 519,-92 "/>
<text text-anchor="start" x="514.8" y="-75.8" font-family="Courier,monospace" font-size="9.00"> </text>
<text text-anchor="start" x="519.6" y="-75.2" font-family="Courier,monospace" font-size="11.00">rdf_json</text>
<text text-anchor="start" x="571.8" y="-75.8" font-family="Courier,monospace" font-size="9.00"> </text>
<text text-anchor="start" x="514.8" y="-65.8" font-family="Courier,monospace" font-size="9.00"> </text>
<text text-anchor="start" x="533.4" y="-66.4" font-family="Courier,monospace" font-size="7.00">module</text>
<text text-anchor="start" x="571.8" y="-65.8" font-family="Courier,monospace" font-size="9.00"> </text>
</a>
</g>
</g>
<!-- api_json&#45;&gt;rdf_json -->
<g id="edge5" class="edge">
<title>api_json&#45;&gt;rdf_json</title>
<path fill="none" stroke="black" d="M476.02,-190.83C488.09,-178.83 503.17,-162.47 514,-146 522.65,-132.85 530.04,-116.99 535.54,-103.59"/>
<polygon fill="black" stroke="black" points="535.66,-103.3 534.12,-96.26 540.04,-92.13 535.66,-103.3"/>
<g id="a_edge5&#45;label"><a xlink:title="use_module">
<text text-anchor="middle" x="545" y="-138.8" font-family="Courier,monospace" font-size="9.00">use_module</text>
</a>
</g>
</g>
<!-- http_json -->
<g id="node7" class="node">
<title>http_json</title>
<g id="a_node7"><a xlink:title="module">
<polygon fill="gainsboro" stroke="black" stroke-dasharray="5,2" points="688.5,-92 615.5,-92 615.5,-96 603.5,-96 603.5,-56 688.5,-56 688.5,-92"/>
<polyline fill="none" stroke="black" stroke-dasharray="5,2" points="603.5,-92 615.5,-92 "/>
<text text-anchor="start" x="611.8" y="-75.8" font-family="Courier,monospace" font-size="9.00"> </text>
<text text-anchor="start" x="616.8" y="-75.2" font-family="Courier,monospace" font-size="11.00">http_json</text>
<text text-anchor="start" x="675.8" y="-75.8" font-family="Courier,monospace" font-size="9.00"> </text>
<text text-anchor="start" x="611.8" y="-65.8" font-family="Courier,monospace" font-size="9.00"> </text>
<text text-anchor="start" x="633.9" y="-66.4" font-family="Courier,monospace" font-size="7.00">module</text>
<text text-anchor="start" x="675.8" y="-65.8" font-family="Courier,monospace" font-size="9.00"> </text>
</a>
</g>
</g>
<!-- api_json&#45;&gt;http_json -->
<g id="edge6" class="edge">
<title>api_json&#45;&gt;http_json</title>
<path fill="none" stroke="black" d="M498.13,-191.12C522.03,-179.76 551.89,-163.94 576,-146 593.38,-133.07 610.49,-115.82 623.45,-101.56"/>
<polygon fill="black" stroke="black" points="623.74,-101.23 624.73,-94.09 631.7,-92.25 623.74,-101.23"/>
<g id="a_edge6&#45;label"><a xlink:title="use_module">
<text text-anchor="middle" x="613" y="-138.8" font-family="Courier,monospace" font-size="9.00">use_module</text>
</a>
</g>
</g>
<!-- sgml -->
<g id="node8" class="node">
<title>sgml</title>
<g id="a_node8"><a xlink:title="module">
<polygon fill="gainsboro" stroke="black" stroke-dasharray="5,2" points="761,-92 719,-92 719,-96 707,-96 707,-56 761,-56 761,-92"/>
<polyline fill="none" stroke="black" stroke-dasharray="5,2" points="707,-92 719,-92 "/>
<text text-anchor="start" x="715.8" y="-75.8" font-family="Courier,monospace" font-size="9.00"> </text>
<text text-anchor="start" x="720.8" y="-75.2" font-family="Courier,monospace" font-size="11.00">sgml</text>
<text text-anchor="start" x="746.8" y="-75.8" font-family="Courier,monospace" font-size="9.00"> </text>
<text text-anchor="start" x="715.8" y="-65.8" font-family="Courier,monospace" font-size="9.00"> </text>
<text text-anchor="start" x="721.4" y="-66.4" font-family="Courier,monospace" font-size="7.00">module</text>
<text text-anchor="start" x="746.8" y="-65.8" font-family="Courier,monospace" font-size="9.00"> </text>
</a>
</g>
</g>
<!-- api_json&#45;&gt;sgml -->
<g id="edge7" class="edge">
<title>api_json&#45;&gt;sgml</title>
<path fill="none" stroke="black" d="M498.05,-202.32C549.71,-191.76 637.9,-167.85 698,-120 704.37,-114.93 710.33,-108.53 715.49,-102.17"/>
<polygon fill="black" stroke="black" points="715.65,-101.96 716.09,-94.76 722.9,-92.39 715.65,-101.96"/>
<g id="a_edge7&#45;label"><a xlink:title="use_module">
<text text-anchor="middle" x="696" y="-138.8" font-family="Courier,monospace" font-size="9.00">use_module</text>
</a>
</g>
</g>
</g>
</svg>
