<?xml version="1.0" encoding="UTF-8" standalone="no"?>
<!DOCTYPE svg PUBLIC "-//W3C//DTD SVG 1.1//EN"
 "http://www.w3.org/Graphics/SVG/1.1/DTD/svg11.dtd">
<!-- Generated by graphviz version 2.41.20190410.0829 (20190410.0829)
 -->
<!-- Title: label.pl Pages: 1 -->
<svg width="1277pt" height="463pt"
 viewBox="72.00 72.00 1205.00 391.00" xmlns="http://www.w3.org/2000/svg" xmlns:xlink="http://www.w3.org/1999/xlink">
<g id="graph0" class="graph" transform="scale(1 1) rotate(0) translate(76 387)">
<title>label.pl</title>
<polygon fill="white" stroke="transparent" points="-4,4 -4,-315 1129,-315 1129,4 -4,4"/>
<text text-anchor="start" x="8" y="-16" font-family="Courier,monospace" font-size="10.00" fill="#8b8989">ClioPatria &#45; an RDF application platform</text>
<text text-anchor="start" x="8" y="-6" font-family="Courier,monospace" font-size="10.00" fill="#8b8989">Generated on 2019/04/17, 13:04</text>
<g id="clust1" class="cluster">
<title>cluster_file_/Users/pmoura/ClioPatria/components/label.pl</title>
<g id="a_clust1"><a xlink:href="https://github.com/ClioPatria/ClioPatria/tree/add57aa2039eed4033cf96e96c293b2052e88f41/components/label.pl" xlink:title="https://github.com/ClioPatria/ClioPatria/tree/add57aa2039eed4033cf96e96c293b2052e88f41/components/label.pl">
<path fill="snow" stroke="#8b8989" d="M20,-36C20,-36 1105,-36 1105,-36 1111,-36 1117,-42 1117,-48 1117,-48 1117,-291 1117,-291 1117,-297 1111,-303 1105,-303 1105,-303 20,-303 20,-303 14,-303 8,-297 8,-291 8,-291 8,-48 8,-48 8,-42 14,-36 20,-36"/>
<text text-anchor="middle" x="40" y="-291" font-family="Courier,monospace" font-size="10.00" fill="#8b8989">label.pl</text>
</a>
</g>
</g>
<g id="clust2" class="cluster">
<title>cluster_other</title>
<g id="a_clust2"><a xlink:title="(external entities)">
<path fill="white" stroke="#8b8989" d="M30,-46C30,-46 1095,-46 1095,-46 1101,-46 1107,-52 1107,-58 1107,-58 1107,-108 1107,-108 1107,-114 1101,-120 1095,-120 1095,-120 30,-120 30,-120 24,-120 18,-114 18,-108 18,-108 18,-58 18,-58 18,-52 24,-46 30,-46"/>
<text text-anchor="middle" x="83.01" y="-108" font-family="Courier,monospace" font-size="10.00" fill="#8b8989">(external entities)</text>
</a>
</g>
</g>
<!-- cp_label -->
<g id="node1" class="node">
<title>cp_label</title>
<g id="a_node1"><a xlink:title="module">
<polygon fill="gainsboro" stroke="black" points="593.5,-275 492.5,-275 492.5,-279 480.5,-279 480.5,-191 593.5,-191 593.5,-275"/>
<polyline fill="none" stroke="black" points="480.5,-275 492.5,-275 "/>
<g id="a_node1_0"><a xlink:href="cp_label_module_xref_diagram.svg" xlink:title="Zoom">
<image xlink:href="zoom.png" width="11px" height="11px" preserveAspectRatio="xMinYMin meet" x="489" y="-271"/>
</a>
</g>
<text text-anchor="start" x="491.8" y="-251.8" font-family="Courier,monospace" font-size="9.00"> </text>
<text text-anchor="start" x="514.1" y="-251.2" font-family="Courier,monospace" font-size="11.00">cp_label</text>
<text text-anchor="start" x="580.8" y="-251.8" font-family="Courier,monospace" font-size="9.00"> </text>
<text text-anchor="start" x="491.8" y="-241.8" font-family="Courier,monospace" font-size="9.00"> </text>
<text text-anchor="start" x="527.9" y="-242.4" font-family="Courier,monospace" font-size="7.00">module</text>
<text text-anchor="start" x="580.8" y="-241.8" font-family="Courier,monospace" font-size="9.00"> </text>
<text text-anchor="start" x="491.8" y="-232.8" font-family="Courier,monospace" font-size="9.00"> </text>
<text text-anchor="start" x="491.8" y="-223.8" font-family="Courier,monospace" font-size="9.00"> </text>
<text text-anchor="start" x="502.69" y="-223.8" font-family="Courier,monospace" font-size="9.00">turtle_label/3</text>
<text text-anchor="start" x="580.8" y="-223.8" font-family="Courier,monospace" font-size="9.00"> </text>
<text text-anchor="start" x="491.8" y="-214.8" font-family="Courier,monospace" font-size="9.00"> </text>
<text text-anchor="start" x="513.5" y="-214.8" font-family="Courier,monospace" font-size="9.00">rdf_link/3</text>
<text text-anchor="start" x="580.8" y="-214.8" font-family="Courier,monospace" font-size="9.00"> </text>
<text text-anchor="start" x="491.8" y="-205.8" font-family="Courier,monospace" font-size="9.00"> </text>
<text text-anchor="start" x="499.99" y="-205.8" font-family="Courier,monospace" font-size="9.00">resource_link/2</text>
<text text-anchor="start" x="580.8" y="-205.8" font-family="Courier,monospace" font-size="9.00"> </text>
<text text-anchor="start" x="491.8" y="-196.8" font-family="Courier,monospace" font-size="9.00"> </text>
<text text-anchor="start" x="513.5" y="-196.8" font-family="Courier,monospace" font-size="9.00">rdf_link/4</text>
<text text-anchor="start" x="580.8" y="-196.8" font-family="Courier,monospace" font-size="9.00"> </text>
</a>
</g>
</g>
<!-- prolog_dialect -->
<g id="node2" class="node">
<title>prolog_dialect</title>
<g id="a_node2"><a xlink:title="module">
<polygon fill="gainsboro" stroke="black" stroke-dasharray="5,2" points="146,-92 40,-92 40,-96 28,-96 28,-56 146,-56 146,-92"/>
<polyline fill="none" stroke="black" stroke-dasharray="5,2" points="28,-92 40,-92 "/>
<text text-anchor="start" x="35.8" y="-75.8" font-family="Courier,monospace" font-size="9.00"> </text>
<text text-anchor="start" x="40.79" y="-75.2" font-family="Courier,monospace" font-size="11.00">prolog_dialect</text>
<text text-anchor="start" x="132.8" y="-75.8" font-family="Courier,monospace" font-size="9.00"> </text>
<text text-anchor="start" x="35.8" y="-65.8" font-family="Courier,monospace" font-size="9.00"> </text>
<text text-anchor="start" x="74.4" y="-66.4" font-family="Courier,monospace" font-size="7.00">module</text>
<text text-anchor="start" x="132.8" y="-65.8" font-family="Courier,monospace" font-size="9.00"> </text>
</a>
</g>
</g>
<!-- cp_label&#45;&gt;prolog_dialect -->
<g id="edge1" class="edge">
<title>cp_label&#45;&gt;prolog_dialect</title>
<path fill="none" stroke="black" d="M480.26,-223.59C402.94,-210.36 262,-179.76 156,-120 144.6,-113.57 132.54,-105.99 121.74,-98.9"/>
<polygon fill="black" stroke="black" points="121.42,-98.69 114.21,-98.69 111.43,-92.04 121.42,-98.69"/>
<g id="a_edge1&#45;label"><a xlink:title="use_module">
<text text-anchor="middle" x="231" y="-138.8" font-family="Courier,monospace" font-size="9.00">use_module</text>
</a>
</g>
</g>
<!-- rdf_db -->
<g id="node3" class="node">
<title>rdf_db</title>
<g id="a_node3"><a xlink:title="module">
<polygon fill="gainsboro" stroke="black" stroke-dasharray="5,2" points="229.5,-92 176.5,-92 176.5,-96 164.5,-96 164.5,-56 229.5,-56 229.5,-92"/>
<polyline fill="none" stroke="black" stroke-dasharray="5,2" points="164.5,-92 176.5,-92 "/>
<text text-anchor="start" x="172.8" y="-75.8" font-family="Courier,monospace" font-size="9.00"> </text>
<text text-anchor="start" x="177.7" y="-75.2" font-family="Courier,monospace" font-size="11.00">rdf_db</text>
<text text-anchor="start" x="216.8" y="-75.8" font-family="Courier,monospace" font-size="9.00"> </text>
<text text-anchor="start" x="172.8" y="-65.8" font-family="Courier,monospace" font-size="9.00"> </text>
<text text-anchor="start" x="184.9" y="-66.4" font-family="Courier,monospace" font-size="7.00">module</text>
<text text-anchor="start" x="216.8" y="-65.8" font-family="Courier,monospace" font-size="9.00"> </text>
</a>
</g>
</g>
<!-- cp_label&#45;&gt;rdf_db -->
<g id="edge2" class="edge">
<title>cp_label&#45;&gt;rdf_db</title>
<path fill="none" stroke="black" d="M480.34,-219.13C417.5,-203.02 314.99,-171.16 239,-120 231.5,-114.95 224.36,-108.32 218.17,-101.7"/>
<polygon fill="black" stroke="black" points="217.76,-101.23 210.8,-99.36 209.85,-92.21 217.76,-101.23"/>
<g id="a_edge2&#45;label"><a xlink:title="use_module">
<text text-anchor="middle" x="302" y="-138.8" font-family="Courier,monospace" font-size="9.00">use_module</text>
</a>
</g>
</g>
<!-- html_write -->
<g id="node4" class="node">
<title>html_write</title>
<g id="a_node4"><a xlink:title="module">
<polygon fill="gainsboro" stroke="black" stroke-dasharray="5,2" points="340,-92 260,-92 260,-96 248,-96 248,-56 340,-56 340,-92"/>
<polyline fill="none" stroke="black" stroke-dasharray="5,2" points="248,-92 260,-92 "/>
<text text-anchor="start" x="255.8" y="-75.8" font-family="Courier,monospace" font-size="9.00"> </text>
<text text-anchor="start" x="260.99" y="-75.2" font-family="Courier,monospace" font-size="11.00">html_write</text>
<text text-anchor="start" x="326.8" y="-75.8" font-family="Courier,monospace" font-size="9.00"> </text>
<text text-anchor="start" x="255.8" y="-65.8" font-family="Courier,monospace" font-size="9.00"> </text>
<text text-anchor="start" x="281.4" y="-66.4" font-family="Courier,monospace" font-size="7.00">module</text>
<text text-anchor="start" x="326.8" y="-65.8" font-family="Courier,monospace" font-size="9.00"> </text>
</a>
</g>
</g>
<!-- cp_label&#45;&gt;html_write -->
<g id="edge3" class="edge">
<title>cp_label&#45;&gt;html_write</title>
<path fill="none" stroke="black" d="M480.16,-204.86C449.07,-189.13 410.4,-168.11 377.99,-146 358.01,-132.36 337.23,-114.83 321.34,-100.6"/>
<polygon fill="black" stroke="black" points="321.01,-100.3 313.88,-99.23 312.13,-92.24 321.01,-100.3"/>
<g id="a_edge3&#45;label"><a xlink:title="use_module">
<text text-anchor="middle" x="404" y="-138.8" font-family="Courier,monospace" font-size="9.00">use_module</text>
</a>
</g>
</g>
<!-- rdf_label -->
<g id="node5" class="node">
<title>rdf_label</title>
<g id="a_node5"><a xlink:title="module">
<polygon fill="gainsboro" stroke="black" stroke-dasharray="5,2" points="443.5,-92 370.5,-92 370.5,-96 358.5,-96 358.5,-56 443.5,-56 443.5,-92"/>
<polyline fill="none" stroke="black" stroke-dasharray="5,2" points="358.5,-92 370.5,-92 "/>
<text text-anchor="start" x="366.8" y="-75.8" font-family="Courier,monospace" font-size="9.00"> </text>
<text text-anchor="start" x="371.8" y="-75.2" font-family="Courier,monospace" font-size="11.00">rdf_label</text>
<text text-anchor="start" x="430.8" y="-75.8" font-family="Courier,monospace" font-size="9.00"> </text>
<text text-anchor="start" x="366.8" y="-65.8" font-family="Courier,monospace" font-size="9.00"> </text>
<text text-anchor="start" x="388.9" y="-66.4" font-family="Courier,monospace" font-size="7.00">module</text>
<text text-anchor="start" x="430.8" y="-65.8" font-family="Courier,monospace" font-size="9.00"> </text>
</a>
</g>
</g>
<!-- cp_label&#45;&gt;rdf_label -->
<g id="edge4" class="edge">
<title>cp_label&#45;&gt;rdf_label</title>
<path fill="none" stroke="black" d="M486.48,-190.79C471.57,-177.35 455.82,-161.8 442.99,-146 432.27,-132.8 422.46,-116.57 415.02,-102.96"/>
<polygon fill="black" stroke="black" points="414.98,-102.87 408.64,-99.44 409.37,-92.27 414.98,-102.87"/>
<g id="a_edge4&#45;label"><a xlink:title="use_module">
<text text-anchor="middle" x="469" y="-138.8" font-family="Courier,monospace" font-size="9.00">use_module</text>
</a>
</g>
</g>
<!-- rdf11 -->
<g id="node6" class="node">
<title>rdf11</title>
<g id="a_node6"><a xlink:title="module">
<polygon fill="gainsboro" stroke="black" stroke-dasharray="5,2" points="520.5,-92 473.5,-92 473.5,-96 461.5,-96 461.5,-56 520.5,-56 520.5,-92"/>
<polyline fill="none" stroke="black" stroke-dasharray="5,2" points="461.5,-92 473.5,-92 "/>
<text text-anchor="start" x="469.8" y="-75.8" font-family="Courier,monospace" font-size="9.00"> </text>
<text text-anchor="start" x="475" y="-75.2" font-family="Courier,monospace" font-size="11.00">rdf11</text>
<text text-anchor="start" x="507.8" y="-75.8" font-family="Courier,monospace" font-size="9.00"> </text>
<text text-anchor="start" x="469.8" y="-65.8" font-family="Courier,monospace" font-size="9.00"> </text>
<text text-anchor="start" x="478.9" y="-66.4" font-family="Courier,monospace" font-size="7.00">module</text>
<text text-anchor="start" x="507.8" y="-65.8" font-family="Courier,monospace" font-size="9.00"> </text>
</a>
</g>
</g>
<!-- cp_label&#45;&gt;rdf11 -->
<g id="edge5" class="edge">
<title>cp_label&#45;&gt;rdf11</title>
<path fill="none" stroke="black" d="M519.47,-190.97C513.94,-176.9 508.18,-160.94 503.99,-146 500.18,-132.43 497.21,-117.07 495.08,-104.12"/>
<polygon fill="black" stroke="black" points="495.06,-103.99 490.19,-98.67 493.22,-92.13 495.06,-103.99"/>
<g id="a_edge5&#45;label"><a xlink:title="use_module">
<text text-anchor="middle" x="530" y="-138.8" font-family="Courier,monospace" font-size="9.00">use_module</text>
</a>
</g>
</g>
<!-- swi_option -->
<g id="node7" class="node">
<title>swi_option</title>
<g id="a_node7"><a xlink:title="module">
<polygon fill="gainsboro" stroke="black" stroke-dasharray="5,2" points="631,-92 551,-92 551,-96 539,-96 539,-56 631,-56 631,-92"/>
<polyline fill="none" stroke="black" stroke-dasharray="5,2" points="539,-92 551,-92 "/>
<text text-anchor="start" x="546.8" y="-75.8" font-family="Courier,monospace" font-size="9.00"> </text>
<text text-anchor="start" x="551.99" y="-75.2" font-family="Courier,monospace" font-size="11.00">swi_option</text>
<text text-anchor="start" x="617.8" y="-75.8" font-family="Courier,monospace" font-size="9.00"> </text>
<text text-anchor="start" x="546.8" y="-65.8" font-family="Courier,monospace" font-size="9.00"> </text>
<text text-anchor="start" x="572.4" y="-66.4" font-family="Courier,monospace" font-size="7.00">module</text>
<text text-anchor="start" x="617.8" y="-65.8" font-family="Courier,monospace" font-size="9.00"> </text>
</a>
</g>
</g>
<!-- cp_label&#45;&gt;swi_option -->
<g id="edge6" class="edge">
<title>cp_label&#45;&gt;swi_option</title>
<path fill="none" stroke="black" d="M549.61,-190.75C557.98,-163.36 568.77,-128.1 576.22,-103.73"/>
<polygon fill="black" stroke="black" points="576.27,-103.55 574.2,-96.65 579.78,-92.08 576.27,-103.55"/>
<g id="a_edge6&#45;label"><a xlink:title="use_module">
<text text-anchor="middle" x="592" y="-138.8" font-family="Courier,monospace" font-size="9.00">use_module</text>
</a>
</g>
</g>
<!-- cliopatria -->
<g id="node8" class="node">
<title>cliopatria</title>
<g id="a_node8"><a xlink:title="module">
<polygon fill="gainsboro" stroke="black" stroke-dasharray="5,2" points="741,-92 661,-92 661,-96 649,-96 649,-56 741,-56 741,-92"/>
<polyline fill="none" stroke="black" stroke-dasharray="5,2" points="649,-92 661,-92 "/>
<text text-anchor="start" x="656.8" y="-75.8" font-family="Courier,monospace" font-size="9.00"> </text>
<text text-anchor="start" x="661.99" y="-75.2" font-family="Courier,monospace" font-size="11.00">cliopatria</text>
<text text-anchor="start" x="727.8" y="-75.8" font-family="Courier,monospace" font-size="9.00"> </text>
<text text-anchor="start" x="656.8" y="-65.8" font-family="Courier,monospace" font-size="9.00"> </text>
<text text-anchor="start" x="682.4" y="-66.4" font-family="Courier,monospace" font-size="7.00">module</text>
<text text-anchor="start" x="727.8" y="-65.8" font-family="Courier,monospace" font-size="9.00"> </text>
</a>
</g>
</g>
<!-- cp_label&#45;&gt;cliopatria -->
<g id="edge7" class="edge">
<title>cp_label&#45;&gt;cliopatria</title>
<path fill="none" stroke="black" d="M578.51,-190.75C607.21,-162.23 644.51,-125.17 669.07,-100.77"/>
<polygon fill="black" stroke="black" points="669.3,-100.54 670.74,-93.47 677.81,-92.08 669.3,-100.54"/>
<g id="a_edge7&#45;label"><a xlink:title="use_module">
<text text-anchor="middle" x="657" y="-138.8" font-family="Courier,monospace" font-size="9.00">use_module</text>
</a>
</g>
</g>
<!-- aggregate -->
<g id="node9" class="node">
<title>aggregate</title>
<g id="a_node9"><a xlink:title="module">
<polygon fill="gainsboro" stroke="black" stroke-dasharray="5,2" points="844.5,-92 771.5,-92 771.5,-96 759.5,-96 759.5,-56 844.5,-56 844.5,-92"/>
<polyline fill="none" stroke="black" stroke-dasharray="5,2" points="759.5,-92 771.5,-92 "/>
<text text-anchor="start" x="767.8" y="-75.8" font-family="Courier,monospace" font-size="9.00"> </text>
<text text-anchor="start" x="772.8" y="-75.2" font-family="Courier,monospace" font-size="11.00">aggregate</text>
<text text-anchor="start" x="831.8" y="-75.8" font-family="Courier,monospace" font-size="9.00"> </text>
<text text-anchor="start" x="767.8" y="-65.8" font-family="Courier,monospace" font-size="9.00"> </text>
<text text-anchor="start" x="789.9" y="-66.4" font-family="Courier,monospace" font-size="7.00">module</text>
<text text-anchor="start" x="831.8" y="-65.8" font-family="Courier,monospace" font-size="9.00"> </text>
</a>
</g>
</g>
<!-- cp_label&#45;&gt;aggregate -->
<g id="edge8" class="edge">
<title>cp_label&#45;&gt;aggregate</title>
<path fill="none" stroke="black" d="M593.73,-206.56C637.84,-185.76 699.78,-154.26 750,-120 758.55,-114.16 767.28,-107.12 775.08,-100.35"/>
<polygon fill="black" stroke="black" points="775.11,-100.32 776.92,-93.34 784.06,-92.33 775.11,-100.32"/>
<g id="a_edge8&#45;label"><a xlink:title="use_module">
<text text-anchor="middle" x="749" y="-138.8" font-family="Courier,monospace" font-size="9.00">use_module</text>
</a>
</g>
</g>
<!-- http_dispatch -->
<g id="node10" class="node">
<title>http_dispatch</title>
<g id="a_node10"><a xlink:title="module">
<polygon fill="gainsboro" stroke="black" stroke-dasharray="5,2" points="973.5,-92 874.5,-92 874.5,-96 862.5,-96 862.5,-56 973.5,-56 973.5,-92"/>
<polyline fill="none" stroke="black" stroke-dasharray="5,2" points="862.5,-92 874.5,-92 "/>
<text text-anchor="start" x="870.8" y="-75.8" font-family="Courier,monospace" font-size="9.00"> </text>
<text text-anchor="start" x="875.59" y="-75.2" font-family="Courier,monospace" font-size="11.00">http_dispatch</text>
<text text-anchor="start" x="960.8" y="-75.8" font-family="Courier,monospace" font-size="9.00"> </text>
<text text-anchor="start" x="870.8" y="-65.8" font-family="Courier,monospace" font-size="9.00"> </text>
<text text-anchor="start" x="905.9" y="-66.4" font-family="Courier,monospace" font-size="7.00">module</text>
<text text-anchor="start" x="960.8" y="-65.8" font-family="Courier,monospace" font-size="9.00"> </text>
</a>
</g>
</g>
<!-- cp_label&#45;&gt;http_dispatch -->
<g id="edge9" class="edge">
<title>cp_label&#45;&gt;http_dispatch</title>
<path fill="none" stroke="black" d="M593.6,-217.09C658.54,-198.83 767.24,-164.75 854,-120 865.2,-114.22 876.69,-106.72 886.78,-99.51"/>
<polygon fill="black" stroke="black" points="887.07,-99.3 889.53,-92.52 896.73,-92.18 887.07,-99.3"/>
<g id="a_edge9&#45;label"><a xlink:title="use_module">
<text text-anchor="middle" x="839" y="-138.8" font-family="Courier,monospace" font-size="9.00">use_module</text>
</a>
</g>
</g>
<!-- prolog_debug -->
<g id="node11" class="node">
<title>prolog_debug</title>
<g id="a_node11"><a xlink:title="module">
<polygon fill="gainsboro" stroke="black" stroke-dasharray="5,2" points="1096.5,-92 1003.5,-92 1003.5,-96 991.5,-96 991.5,-56 1096.5,-56 1096.5,-92"/>
<polyline fill="none" stroke="black" stroke-dasharray="5,2" points="991.5,-92 1003.5,-92 "/>
<text text-anchor="start" x="999.8" y="-75.8" font-family="Courier,monospace" font-size="9.00"> </text>
<text text-anchor="start" x="1004.89" y="-75.2" font-family="Courier,monospace" font-size="11.00">prolog_debug</text>
<text text-anchor="start" x="1083.8" y="-75.8" font-family="Courier,monospace" font-size="9.00"> </text>
<text text-anchor="start" x="999.8" y="-65.8" font-family="Courier,monospace" font-size="9.00"> </text>
<text text-anchor="start" x="1031.9" y="-66.4" font-family="Courier,monospace" font-size="7.00">module</text>
<text text-anchor="start" x="1083.8" y="-65.8" font-family="Courier,monospace" font-size="9.00"> </text>
</a>
</g>
</g>
<!-- cp_label&#45;&gt;prolog_debug -->
<g id="edge10" class="edge">
<title>cp_label&#45;&gt;prolog_debug</title>
<path fill="none" stroke="black" d="M593.6,-224.98C680.67,-212.62 851.23,-182.17 983,-120 994.31,-114.67 1005.62,-107.09 1015.38,-99.68"/>
<polygon fill="black" stroke="black" points="1015.52,-99.57 1017.74,-92.7 1024.93,-92.11 1015.52,-99.57"/>
<g id="a_edge10&#45;label"><a xlink:title="use_module">
<text text-anchor="middle" x="964" y="-138.8" font-family="Courier,monospace" font-size="9.00">use_module</text>
</a>
</g>
</g>
</g>
</svg>
