<?xml version="1.0" encoding="UTF-8" standalone="no"?>
<!DOCTYPE svg PUBLIC "-//W3C//DTD SVG 1.1//EN"
 "http://www.w3.org/Graphics/SVG/1.1/DTD/svg11.dtd">
<!-- Generated by graphviz version 2.41.20190410.0829 (20190410.0829)
 -->
<!-- Title: lod_crawler.pl Pages: 1 -->
<svg width="969pt" height="445pt"
 viewBox="72.00 72.00 897.00 373.00" xmlns="http://www.w3.org/2000/svg" xmlns:xlink="http://www.w3.org/1999/xlink">
<g id="graph0" class="graph" transform="scale(1 1) rotate(0) translate(76 369)">
<title>lod_crawler.pl</title>
<polygon fill="white" stroke="transparent" points="-4,4 -4,-297 821,-297 821,4 -4,4"/>
<text text-anchor="start" x="8" y="-16" font-family="Courier,monospace" font-size="10.00" fill="#8b8989">ClioPatria &#45; an RDF application platform</text>
<text text-anchor="start" x="8" y="-6" font-family="Courier,monospace" font-size="10.00" fill="#8b8989">Generated on 2019/04/17, 13:04</text>
<g id="clust1" class="cluster">
<title>cluster_file_/Users/pmoura/ClioPatria/api/lod_crawler.pl</title>
<g id="a_clust1"><a xlink:href="https://github.com/ClioPatria/ClioPatria/tree/add57aa2039eed4033cf96e96c293b2052e88f41/api/lod_crawler.pl" xlink:title="https://github.com/ClioPatria/ClioPatria/tree/add57aa2039eed4033cf96e96c293b2052e88f41/api/lod_crawler.pl">
<path fill="snow" stroke="#8b8989" d="M20,-36C20,-36 797,-36 797,-36 803,-36 809,-42 809,-48 809,-48 809,-273 809,-273 809,-279 803,-285 797,-285 797,-285 20,-285 20,-285 14,-285 8,-279 8,-273 8,-273 8,-48 8,-48 8,-42 14,-36 20,-36"/>
<text text-anchor="middle" x="58.01" y="-273" font-family="Courier,monospace" font-size="10.00" fill="#8b8989">lod_crawler.pl</text>
</a>
</g>
</g>
<g id="clust2" class="cluster">
<title>cluster_other</title>
<g id="a_clust2"><a xlink:title="(external entities)">
<path fill="white" stroke="#8b8989" d="M30,-46C30,-46 787,-46 787,-46 793,-46 799,-52 799,-58 799,-58 799,-108 799,-108 799,-114 793,-120 787,-120 787,-120 30,-120 30,-120 24,-120 18,-114 18,-108 18,-108 18,-58 18,-58 18,-52 24,-46 30,-46"/>
<text text-anchor="middle" x="83.01" y="-108" font-family="Courier,monospace" font-size="10.00" fill="#8b8989">(external entities)</text>
</a>
</g>
</g>
<!-- api_lod_crawler -->
<g id="node1" class="node">
<title>api_lod_crawler</title>
<g id="a_node1"><a xlink:title="module">
<polygon fill="gainsboro" stroke="black" points="561.5,-257 358.5,-257 358.5,-261 346.5,-261 346.5,-191 561.5,-191 561.5,-257"/>
<polyline fill="none" stroke="black" points="346.5,-257 358.5,-257 "/>
<g id="a_node1_0"><a xlink:href="api_lod_crawler_module_xref_diagram.svg" xlink:title="Zoom">
<image xlink:href="zoom.png" width="11px" height="11px" preserveAspectRatio="xMinYMin meet" x="355" y="-253"/>
</a>
</g>
<text text-anchor="start" x="357.8" y="-233.8" font-family="Courier,monospace" font-size="9.00"> </text>
<text text-anchor="start" x="407.99" y="-233.2" font-family="Courier,monospace" font-size="11.00">api_lod_crawler</text>
<text text-anchor="start" x="548.8" y="-233.8" font-family="Courier,monospace" font-size="9.00"> </text>
<text text-anchor="start" x="357.8" y="-223.8" font-family="Courier,monospace" font-size="9.00"> </text>
<text text-anchor="start" x="444.9" y="-224.4" font-family="Courier,monospace" font-size="7.00">module</text>
<text text-anchor="start" x="548.8" y="-223.8" font-family="Courier,monospace" font-size="9.00"> </text>
<text text-anchor="start" x="357.8" y="-214.8" font-family="Courier,monospace" font-size="9.00"> </text>
<text text-anchor="start" x="357.8" y="-205.8" font-family="Courier,monospace" font-size="9.00"> </text>
<text text-anchor="start" x="416.99" y="-205.8" font-family="Courier,monospace" font-size="9.00">lod_uri_graph/2</text>
<text text-anchor="start" x="548.8" y="-205.8" font-family="Courier,monospace" font-size="9.00"> </text>
<text text-anchor="start" x="357.8" y="-196.8" font-family="Courier,monospace" font-size="9.00"> </text>
<text text-anchor="start" x="365.69" y="-196.8" font-family="Courier,monospace" font-size="9.00">rdf_http_plugin:rdf_content_type/2</text>
<text text-anchor="start" x="548.8" y="-196.8" font-family="Courier,monospace" font-size="9.00"> </text>
</a>
</g>
</g>
<!-- rdf_http_plugin -->
<g id="node2" class="node">
<title>rdf_http_plugin</title>
<g id="a_node2"><a xlink:title="module">
<polygon fill="gainsboro" stroke="black" stroke-dasharray="5,2" points="153.5,-92 40.5,-92 40.5,-96 28.5,-96 28.5,-56 153.5,-56 153.5,-92"/>
<polyline fill="none" stroke="black" stroke-dasharray="5,2" points="28.5,-92 40.5,-92 "/>
<text text-anchor="start" x="36.8" y="-75.8" font-family="Courier,monospace" font-size="9.00"> </text>
<text text-anchor="start" x="41.99" y="-75.2" font-family="Courier,monospace" font-size="11.00">rdf_http_plugin</text>
<text text-anchor="start" x="140.8" y="-75.8" font-family="Courier,monospace" font-size="9.00"> </text>
<text text-anchor="start" x="36.8" y="-65.8" font-family="Courier,monospace" font-size="9.00"> </text>
<text text-anchor="start" x="78.9" y="-66.4" font-family="Courier,monospace" font-size="7.00">module</text>
<text text-anchor="start" x="140.8" y="-65.8" font-family="Courier,monospace" font-size="9.00"> </text>
</a>
</g>
</g>
<!-- api_lod_crawler&#45;&gt;rdf_http_plugin -->
<g id="edge1" class="edge">
<title>api_lod_crawler&#45;&gt;rdf_http_plugin</title>
<path fill="none" stroke="black" d="M346.34,-191.12C290.46,-173.03 221.77,-148.35 163,-120 149.65,-113.56 135.67,-105.23 123.62,-97.5"/>
<polygon fill="black" stroke="black" points="117.14,-89.07 123.6,-97.48 113.31,-94.93 117.14,-89.07"/>
<g id="a_edge1&#45;label"><a xlink:title="provides">
<text text-anchor="middle" x="237.6" y="-138.8" font-family="Courier,monospace" font-size="9.00">provides</text>
</a>
</g>
</g>
<!-- http_dispatch -->
<g id="node3" class="node">
<title>http_dispatch</title>
<g id="a_node3"><a xlink:title="module">
<polygon fill="gainsboro" stroke="black" stroke-dasharray="5,2" points="282.5,-92 183.5,-92 183.5,-96 171.5,-96 171.5,-56 282.5,-56 282.5,-92"/>
<polyline fill="none" stroke="black" stroke-dasharray="5,2" points="171.5,-92 183.5,-92 "/>
<text text-anchor="start" x="179.8" y="-75.8" font-family="Courier,monospace" font-size="9.00"> </text>
<text text-anchor="start" x="184.59" y="-75.2" font-family="Courier,monospace" font-size="11.00">http_dispatch</text>
<text text-anchor="start" x="269.8" y="-75.8" font-family="Courier,monospace" font-size="9.00"> </text>
<text text-anchor="start" x="179.8" y="-65.8" font-family="Courier,monospace" font-size="9.00"> </text>
<text text-anchor="start" x="214.9" y="-66.4" font-family="Courier,monospace" font-size="7.00">module</text>
<text text-anchor="start" x="269.8" y="-65.8" font-family="Courier,monospace" font-size="9.00"> </text>
</a>
</g>
</g>
<!-- api_lod_crawler&#45;&gt;http_dispatch -->
<g id="edge2" class="edge">
<title>api_lod_crawler&#45;&gt;http_dispatch</title>
<path fill="none" stroke="black" d="M401.18,-190.92C379.04,-177.29 353.13,-161.09 329.99,-146 312.85,-134.82 308.85,-131.6 292,-120 282.2,-113.26 271.59,-105.92 261.84,-99.17"/>
<polygon fill="black" stroke="black" points="261.53,-98.96 254.32,-98.83 251.67,-92.13 261.53,-98.96"/>
<g id="a_edge2&#45;label"><a xlink:title="use_module">
<text text-anchor="middle" x="356" y="-138.8" font-family="Courier,monospace" font-size="9.00">use_module</text>
</a>
</g>
</g>
<!-- user_db -->
<g id="node4" class="node">
<title>user_db</title>
<g id="a_node4"><a xlink:title="module">
<polygon fill="gainsboro" stroke="black" stroke-dasharray="5,2" points="373,-92 313,-92 313,-96 301,-96 301,-56 373,-56 373,-92"/>
<polyline fill="none" stroke="black" stroke-dasharray="5,2" points="301,-92 313,-92 "/>
<text text-anchor="start" x="308.8" y="-75.8" font-family="Courier,monospace" font-size="9.00"> </text>
<text text-anchor="start" x="313.9" y="-75.2" font-family="Courier,monospace" font-size="11.00">user_db</text>
<text text-anchor="start" x="359.8" y="-75.8" font-family="Courier,monospace" font-size="9.00"> </text>
<text text-anchor="start" x="308.8" y="-65.8" font-family="Courier,monospace" font-size="9.00"> </text>
<text text-anchor="start" x="324.4" y="-66.4" font-family="Courier,monospace" font-size="7.00">module</text>
<text text-anchor="start" x="359.8" y="-65.8" font-family="Courier,monospace" font-size="9.00"> </text>
</a>
</g>
</g>
<!-- api_lod_crawler&#45;&gt;user_db -->
<g id="edge3" class="edge">
<title>api_lod_crawler&#45;&gt;user_db</title>
<path fill="none" stroke="black" d="M428.61,-190.89C407.58,-164.29 378.04,-126.92 358.25,-101.88"/>
<polygon fill="black" stroke="black" points="358.11,-101.7 351.25,-99.48 350.67,-92.29 358.11,-101.7"/>
<g id="a_edge3&#45;label"><a xlink:title="use_module">
<text text-anchor="middle" x="418" y="-138.8" font-family="Courier,monospace" font-size="9.00">use_module</text>
</a>
</g>
</g>
<!-- http_parameters -->
<g id="node5" class="node">
<title>http_parameters</title>
<g id="a_node5"><a xlink:title="module">
<polygon fill="gainsboro" stroke="black" stroke-dasharray="5,2" points="516.5,-92 403.5,-92 403.5,-96 391.5,-96 391.5,-56 516.5,-56 516.5,-92"/>
<polyline fill="none" stroke="black" stroke-dasharray="5,2" points="391.5,-92 403.5,-92 "/>
<text text-anchor="start" x="399.8" y="-75.8" font-family="Courier,monospace" font-size="9.00"> </text>
<text text-anchor="start" x="404.99" y="-75.2" font-family="Courier,monospace" font-size="11.00">http_parameters</text>
<text text-anchor="start" x="503.8" y="-75.8" font-family="Courier,monospace" font-size="9.00"> </text>
<text text-anchor="start" x="399.8" y="-65.8" font-family="Courier,monospace" font-size="9.00"> </text>
<text text-anchor="start" x="441.9" y="-66.4" font-family="Courier,monospace" font-size="7.00">module</text>
<text text-anchor="start" x="503.8" y="-65.8" font-family="Courier,monospace" font-size="9.00"> </text>
</a>
</g>
</g>
<!-- api_lod_crawler&#45;&gt;http_parameters -->
<g id="edge4" class="edge">
<title>api_lod_crawler&#45;&gt;http_parameters</title>
<path fill="none" stroke="black" d="M454,-190.89C454,-165.23 454,-129.56 454,-104.59"/>
<polygon fill="black" stroke="black" points="454,-104.29 450,-98.29 454,-92.29 454,-104.29"/>
<g id="a_edge4&#45;label"><a xlink:title="use_module">
<text text-anchor="middle" x="481" y="-138.8" font-family="Courier,monospace" font-size="9.00">use_module</text>
</a>
</g>
</g>
<!-- cp_messages -->
<g id="node6" class="node">
<title>cp_messages</title>
<g id="a_node6"><a xlink:title="module">
<polygon fill="gainsboro" stroke="black" stroke-dasharray="5,2" points="633,-92 547,-92 547,-96 535,-96 535,-56 633,-56 633,-92"/>
<polyline fill="none" stroke="black" stroke-dasharray="5,2" points="535,-92 547,-92 "/>
<text text-anchor="start" x="542.8" y="-75.8" font-family="Courier,monospace" font-size="9.00"> </text>
<text text-anchor="start" x="547.69" y="-75.2" font-family="Courier,monospace" font-size="11.00">cp_messages</text>
<text text-anchor="start" x="619.8" y="-75.8" font-family="Courier,monospace" font-size="9.00"> </text>
<text text-anchor="start" x="542.8" y="-65.8" font-family="Courier,monospace" font-size="9.00"> </text>
<text text-anchor="start" x="571.4" y="-66.4" font-family="Courier,monospace" font-size="7.00">module</text>
<text text-anchor="start" x="619.8" y="-65.8" font-family="Courier,monospace" font-size="9.00"> </text>
</a>
</g>
</g>
<!-- api_lod_crawler&#45;&gt;cp_messages -->
<g id="edge5" class="edge">
<title>api_lod_crawler&#45;&gt;cp_messages</title>
<path fill="none" stroke="black" d="M482.21,-190.89C505.68,-164.17 538.69,-126.59 560.68,-101.54"/>
<polygon fill="black" stroke="black" points="560.89,-101.31 561.85,-94.16 568.81,-92.29 560.89,-101.31"/>
<g id="a_edge5&#45;label"><a xlink:title="use_module">
<text text-anchor="middle" x="553" y="-138.8" font-family="Courier,monospace" font-size="9.00">use_module</text>
</a>
</g>
</g>
<!-- rdf_db -->
<g id="node7" class="node">
<title>rdf_db</title>
<g id="a_node7"><a xlink:title="module">
<polygon fill="gainsboro" stroke="black" stroke-dasharray="5,2" points="716.5,-92 663.5,-92 663.5,-96 651.5,-96 651.5,-56 716.5,-56 716.5,-92"/>
<polyline fill="none" stroke="black" stroke-dasharray="5,2" points="651.5,-92 663.5,-92 "/>
<text text-anchor="start" x="659.8" y="-75.8" font-family="Courier,monospace" font-size="9.00"> </text>
<text text-anchor="start" x="664.7" y="-75.2" font-family="Courier,monospace" font-size="11.00">rdf_db</text>
<text text-anchor="start" x="703.8" y="-75.8" font-family="Courier,monospace" font-size="9.00"> </text>
<text text-anchor="start" x="659.8" y="-65.8" font-family="Courier,monospace" font-size="9.00"> </text>
<text text-anchor="start" x="671.9" y="-66.4" font-family="Courier,monospace" font-size="7.00">module</text>
<text text-anchor="start" x="703.8" y="-65.8" font-family="Courier,monospace" font-size="9.00"> </text>
</a>
</g>
</g>
<!-- api_lod_crawler&#45;&gt;rdf_db -->
<g id="edge6" class="edge">
<title>api_lod_crawler&#45;&gt;rdf_db</title>
<path fill="none" stroke="black" d="M525.13,-190.78C561.77,-172.56 606.15,-147.86 642,-120 649.03,-114.54 655.93,-107.86 662.05,-101.35"/>
<polygon fill="black" stroke="black" points="662.35,-101.01 663.38,-93.87 670.36,-92.07 662.35,-101.01"/>
<g id="a_edge6&#45;label"><a xlink:title="use_module">
<text text-anchor="middle" x="645" y="-138.8" font-family="Courier,monospace" font-size="9.00">use_module</text>
</a>
</g>
</g>
<!-- uri -->
<g id="node8" class="node">
<title>uri</title>
<g id="a_node8"><a xlink:title="module">
<polygon fill="gainsboro" stroke="black" stroke-dasharray="5,2" points="789,-92 747,-92 747,-96 735,-96 735,-56 789,-56 789,-92"/>
<polyline fill="none" stroke="black" stroke-dasharray="5,2" points="735,-92 747,-92 "/>
<text text-anchor="start" x="744.8" y="-75.8" font-family="Courier,monospace" font-size="9.00"> </text>
<text text-anchor="start" x="752.6" y="-75.2" font-family="Courier,monospace" font-size="11.00">uri</text>
<text text-anchor="start" x="774.8" y="-75.8" font-family="Courier,monospace" font-size="9.00"> </text>
<text text-anchor="start" x="744.8" y="-65.8" font-family="Courier,monospace" font-size="9.00"> </text>
<text text-anchor="start" x="749.9" y="-66.4" font-family="Courier,monospace" font-size="7.00">module</text>
<text text-anchor="start" x="774.8" y="-65.8" font-family="Courier,monospace" font-size="9.00"> </text>
</a>
</g>
</g>
<!-- api_lod_crawler&#45;&gt;uri -->
<g id="edge7" class="edge">
<title>api_lod_crawler&#45;&gt;uri</title>
<path fill="none" stroke="black" d="M561.76,-199.64C615.44,-183.92 678.79,-158.79 726,-120 732.29,-114.83 738.22,-108.4 743.38,-102.04"/>
<polygon fill="black" stroke="black" points="743.54,-101.83 743.99,-94.63 750.8,-92.27 743.54,-101.83"/>
<g id="a_edge7&#45;label"><a xlink:title="use_module">
<text text-anchor="middle" x="727" y="-138.8" font-family="Courier,monospace" font-size="9.00">use_module</text>
</a>
</g>
</g>
</g>
</svg>
