<?xml version="1.0" encoding="UTF-8" standalone="no"?>
<!DOCTYPE svg PUBLIC "-//W3C//DTD SVG 1.1//EN"
 "http://www.w3.org/Graphics/SVG/1.1/DTD/svg11.dtd">
<!-- Generated by graphviz version 2.41.20190410.0829 (20190410.0829)
 -->
<!-- Title: menu.pl Pages: 1 -->
<svg width="1108pt" height="436pt"
 viewBox="72.00 72.00 1036.00 364.00" xmlns="http://www.w3.org/2000/svg" xmlns:xlink="http://www.w3.org/1999/xlink">
<g id="graph0" class="graph" transform="scale(1 1) rotate(0) translate(76 360)">
<title>menu.pl</title>
<polygon fill="white" stroke="transparent" points="-4,4 -4,-288 960,-288 960,4 -4,4"/>
<text text-anchor="start" x="8" y="-16" font-family="Courier,monospace" font-size="10.00" fill="#8b8989">ClioPatria &#45; an RDF application platform</text>
<text text-anchor="start" x="8" y="-6" font-family="Courier,monospace" font-size="10.00" fill="#8b8989">Generated on 2019/04/17, 13:04</text>
<g id="clust1" class="cluster">
<title>cluster_file_/Users/pmoura/ClioPatria/components/menu.pl</title>
<g id="a_clust1"><a xlink:href="https://github.com/ClioPatria/ClioPatria/tree/add57aa2039eed4033cf96e96c293b2052e88f41/components/menu.pl" xlink:title="https://github.com/ClioPatria/ClioPatria/tree/add57aa2039eed4033cf96e96c293b2052e88f41/components/menu.pl">
<path fill="snow" stroke="#8b8989" d="M20,-36C20,-36 936,-36 936,-36 942,-36 948,-42 948,-48 948,-48 948,-264 948,-264 948,-270 942,-276 936,-276 936,-276 20,-276 20,-276 14,-276 8,-270 8,-264 8,-264 8,-48 8,-48 8,-42 14,-36 20,-36"/>
<text text-anchor="middle" x="37" y="-264" font-family="Courier,monospace" font-size="10.00" fill="#8b8989">menu.pl</text>
</a>
</g>
</g>
<g id="clust2" class="cluster">
<title>cluster_other</title>
<g id="a_clust2"><a xlink:title="(external entities)">
<path fill="white" stroke="#8b8989" d="M30,-46C30,-46 862,-46 862,-46 868,-46 874,-52 874,-58 874,-58 874,-108 874,-108 874,-114 868,-120 862,-120 862,-120 30,-120 30,-120 24,-120 18,-114 18,-108 18,-108 18,-58 18,-58 18,-52 24,-46 30,-46"/>
<text text-anchor="middle" x="83.01" y="-108" font-family="Courier,monospace" font-size="10.00" fill="#8b8989">(external entities)</text>
</a>
</g>
</g>
<!-- cp_menu -->
<g id="node1" class="node">
<title>cp_menu</title>
<g id="a_node1"><a xlink:title="module">
<polygon fill="gainsboro" stroke="black" points="574,-248 506,-248 506,-252 494,-252 494,-191 574,-191 574,-248"/>
<polyline fill="none" stroke="black" points="494,-248 506,-248 "/>
<g id="a_node1_0"><a xlink:href="cp_menu_module_xref_diagram.svg" xlink:title="Zoom">
<image xlink:href="zoom.png" width="11px" height="11px" preserveAspectRatio="xMinYMin meet" x="502" y="-243.5"/>
</a>
</g>
<text text-anchor="start" x="504.8" y="-224.3" font-family="Courier,monospace" font-size="9.00"> </text>
<text text-anchor="start" x="513.9" y="-223.7" font-family="Courier,monospace" font-size="11.00">cp_menu</text>
<text text-anchor="start" x="560.8" y="-224.3" font-family="Courier,monospace" font-size="9.00"> </text>
<text text-anchor="start" x="504.8" y="-214.3" font-family="Courier,monospace" font-size="9.00"> </text>
<text text-anchor="start" x="524.4" y="-214.9" font-family="Courier,monospace" font-size="7.00">module</text>
<text text-anchor="start" x="560.8" y="-214.3" font-family="Courier,monospace" font-size="9.00"> </text>
<text text-anchor="start" x="504.8" y="-205.3" font-family="Courier,monospace" font-size="9.00"> </text>
<text text-anchor="start" x="504.8" y="-196.3" font-family="Courier,monospace" font-size="9.00"> </text>
<text text-anchor="start" x="512.7" y="-196.3" font-family="Courier,monospace" font-size="9.00">cp_menu/2</text>
<text text-anchor="start" x="560.8" y="-196.3" font-family="Courier,monospace" font-size="9.00"> </text>
</a>
</g>
</g>
<!-- pairs -->
<g id="node2" class="node">
<title>pairs</title>
<g id="a_node2"><a xlink:title="module">
<polygon fill="gainsboro" stroke="black" stroke-dasharray="5,2" points="87.5,-92 40.5,-92 40.5,-96 28.5,-96 28.5,-56 87.5,-56 87.5,-92"/>
<polyline fill="none" stroke="black" stroke-dasharray="5,2" points="28.5,-92 40.5,-92 "/>
<text text-anchor="start" x="36.8" y="-75.8" font-family="Courier,monospace" font-size="9.00"> </text>
<text text-anchor="start" x="42" y="-75.2" font-family="Courier,monospace" font-size="11.00">pairs</text>
<text text-anchor="start" x="74.8" y="-75.8" font-family="Courier,monospace" font-size="9.00"> </text>
<text text-anchor="start" x="36.8" y="-65.8" font-family="Courier,monospace" font-size="9.00"> </text>
<text text-anchor="start" x="45.9" y="-66.4" font-family="Courier,monospace" font-size="7.00">module</text>
<text text-anchor="start" x="74.8" y="-65.8" font-family="Courier,monospace" font-size="9.00"> </text>
</a>
</g>
</g>
<!-- cp_menu&#45;&gt;pairs -->
<g id="edge1" class="edge">
<title>cp_menu&#45;&gt;pairs</title>
<path fill="none" stroke="black" d="M493.85,-211.35C428.52,-199.45 295.3,-174.11 183.99,-146 144.87,-136.12 130.9,-141.9 97,-120 89.53,-115.18 82.68,-108.51 76.87,-101.79"/>
<polygon fill="black" stroke="black" points="76.64,-101.5 69.77,-99.3 69.16,-92.11 76.64,-101.5"/>
<g id="a_edge1&#45;label"><a xlink:title="use_module">
<text text-anchor="middle" x="210" y="-138.8" font-family="Courier,monospace" font-size="9.00">use_module</text>
</a>
</g>
</g>
<!-- html_head -->
<g id="node3" class="node">
<title>html_head</title>
<g id="a_node3"><a xlink:title="module">
<polygon fill="gainsboro" stroke="black" stroke-dasharray="5,2" points="190.5,-92 117.5,-92 117.5,-96 105.5,-96 105.5,-56 190.5,-56 190.5,-92"/>
<polyline fill="none" stroke="black" stroke-dasharray="5,2" points="105.5,-92 117.5,-92 "/>
<text text-anchor="start" x="113.8" y="-75.8" font-family="Courier,monospace" font-size="9.00"> </text>
<text text-anchor="start" x="118.8" y="-75.2" font-family="Courier,monospace" font-size="11.00">html_head</text>
<text text-anchor="start" x="177.8" y="-75.8" font-family="Courier,monospace" font-size="9.00"> </text>
<text text-anchor="start" x="113.8" y="-65.8" font-family="Courier,monospace" font-size="9.00"> </text>
<text text-anchor="start" x="135.9" y="-66.4" font-family="Courier,monospace" font-size="7.00">module</text>
<text text-anchor="start" x="177.8" y="-65.8" font-family="Courier,monospace" font-size="9.00"> </text>
</a>
</g>
</g>
<!-- cp_menu&#45;&gt;html_head -->
<g id="edge2" class="edge">
<title>cp_menu&#45;&gt;html_head</title>
<path fill="none" stroke="black" d="M493.8,-212.39C428.81,-201.29 298.05,-173.81 200,-120 190.62,-114.85 181.44,-107.8 173.47,-100.8"/>
<polygon fill="black" stroke="black" points="173.22,-100.57 166.1,-99.44 164.41,-92.43 173.22,-100.57"/>
<g id="a_edge2&#45;label"><a xlink:title="use_module">
<text text-anchor="middle" x="278" y="-138.8" font-family="Courier,monospace" font-size="9.00">use_module</text>
</a>
</g>
</g>
<!-- html_write -->
<g id="node4" class="node">
<title>html_write</title>
<g id="a_node4"><a xlink:title="module">
<polygon fill="gainsboro" stroke="black" stroke-dasharray="5,2" points="301,-92 221,-92 221,-96 209,-96 209,-56 301,-56 301,-92"/>
<polyline fill="none" stroke="black" stroke-dasharray="5,2" points="209,-92 221,-92 "/>
<text text-anchor="start" x="216.8" y="-75.8" font-family="Courier,monospace" font-size="9.00"> </text>
<text text-anchor="start" x="221.99" y="-75.2" font-family="Courier,monospace" font-size="11.00">html_write</text>
<text text-anchor="start" x="287.8" y="-75.8" font-family="Courier,monospace" font-size="9.00"> </text>
<text text-anchor="start" x="216.8" y="-65.8" font-family="Courier,monospace" font-size="9.00"> </text>
<text text-anchor="start" x="242.4" y="-66.4" font-family="Courier,monospace" font-size="7.00">module</text>
<text text-anchor="start" x="287.8" y="-65.8" font-family="Courier,monospace" font-size="9.00"> </text>
</a>
</g>
</g>
<!-- cp_menu&#45;&gt;html_write -->
<g id="edge3" class="edge">
<title>cp_menu&#45;&gt;html_write</title>
<path fill="none" stroke="black" d="M493.78,-204.38C447.89,-187.45 371.39,-156.73 311,-120 301.4,-114.16 291.62,-106.86 282.98,-99.85"/>
<polygon fill="black" stroke="black" points="282.98,-99.84 275.81,-99.06 273.77,-92.14 282.98,-99.84"/>
<g id="a_edge3&#45;label"><a xlink:title="use_module">
<text text-anchor="middle" x="384" y="-138.8" font-family="Courier,monospace" font-size="9.00">use_module</text>
</a>
</g>
</g>
<!-- http_dispatch -->
<g id="node5" class="node">
<title>http_dispatch</title>
<g id="a_node5"><a xlink:title="module">
<polygon fill="gainsboro" stroke="black" stroke-dasharray="5,2" points="430.5,-92 331.5,-92 331.5,-96 319.5,-96 319.5,-56 430.5,-56 430.5,-92"/>
<polyline fill="none" stroke="black" stroke-dasharray="5,2" points="319.5,-92 331.5,-92 "/>
<text text-anchor="start" x="327.8" y="-75.8" font-family="Courier,monospace" font-size="9.00"> </text>
<text text-anchor="start" x="332.59" y="-75.2" font-family="Courier,monospace" font-size="11.00">http_dispatch</text>
<text text-anchor="start" x="417.8" y="-75.8" font-family="Courier,monospace" font-size="9.00"> </text>
<text text-anchor="start" x="327.8" y="-65.8" font-family="Courier,monospace" font-size="9.00"> </text>
<text text-anchor="start" x="362.9" y="-66.4" font-family="Courier,monospace" font-size="7.00">module</text>
<text text-anchor="start" x="417.8" y="-65.8" font-family="Courier,monospace" font-size="9.00"> </text>
</a>
</g>
</g>
<!-- cp_menu&#45;&gt;http_dispatch -->
<g id="edge5" class="edge">
<title>cp_menu&#45;&gt;http_dispatch</title>
<path fill="none" stroke="black" d="M493.82,-190.9C476.06,-178.02 455.33,-162.02 437.99,-146 423.19,-132.32 408.15,-115.51 396.48,-101.67"/>
<polygon fill="black" stroke="black" points="396.3,-101.45 389.39,-99.39 388.63,-92.22 396.3,-101.45"/>
<g id="a_edge5&#45;label"><a xlink:title="use_module">
<text text-anchor="middle" x="464" y="-138.8" font-family="Courier,monospace" font-size="9.00">use_module</text>
</a>
</g>
</g>
<!-- cliopatria -->
<g id="node6" class="node">
<title>cliopatria</title>
<g id="a_node6"><a xlink:title="module">
<polygon fill="gainsboro" stroke="black" stroke-dasharray="5,2" points="541,-92 461,-92 461,-96 449,-96 449,-56 541,-56 541,-92"/>
<polyline fill="none" stroke="black" stroke-dasharray="5,2" points="449,-92 461,-92 "/>
<text text-anchor="start" x="456.8" y="-75.8" font-family="Courier,monospace" font-size="9.00"> </text>
<text text-anchor="start" x="461.99" y="-75.2" font-family="Courier,monospace" font-size="11.00">cliopatria</text>
<text text-anchor="start" x="527.8" y="-75.8" font-family="Courier,monospace" font-size="9.00"> </text>
<text text-anchor="start" x="456.8" y="-65.8" font-family="Courier,monospace" font-size="9.00"> </text>
<text text-anchor="start" x="482.4" y="-66.4" font-family="Courier,monospace" font-size="7.00">module</text>
<text text-anchor="start" x="527.8" y="-65.8" font-family="Courier,monospace" font-size="9.00"> </text>
</a>
</g>
</g>
<!-- cp_menu&#45;&gt;cliopatria -->
<g id="edge6" class="edge">
<title>cp_menu&#45;&gt;cliopatria</title>
<path fill="none" stroke="black" d="M516.92,-190.99C509.69,-177.87 502.01,-161.65 497.99,-146 494.54,-132.56 493.54,-117.22 493.51,-104.25"/>
<polygon fill="black" stroke="black" points="493.51,-104.22 489.63,-98.14 493.74,-92.22 493.51,-104.22"/>
<g id="a_edge6&#45;label"><a xlink:title="use_module">
<text text-anchor="middle" x="524" y="-138.8" font-family="Courier,monospace" font-size="9.00">use_module</text>
</a>
</g>
</g>
<!-- user_db -->
<g id="node7" class="node">
<title>user_db</title>
<g id="a_node7"><a xlink:title="module">
<polygon fill="gainsboro" stroke="black" stroke-dasharray="5,2" points="631,-92 571,-92 571,-96 559,-96 559,-56 631,-56 631,-92"/>
<polyline fill="none" stroke="black" stroke-dasharray="5,2" points="559,-92 571,-92 "/>
<text text-anchor="start" x="566.8" y="-75.8" font-family="Courier,monospace" font-size="9.00"> </text>
<text text-anchor="start" x="571.9" y="-75.2" font-family="Courier,monospace" font-size="11.00">user_db</text>
<text text-anchor="start" x="617.8" y="-75.8" font-family="Courier,monospace" font-size="9.00"> </text>
<text text-anchor="start" x="566.8" y="-65.8" font-family="Courier,monospace" font-size="9.00"> </text>
<text text-anchor="start" x="582.4" y="-66.4" font-family="Courier,monospace" font-size="7.00">module</text>
<text text-anchor="start" x="617.8" y="-65.8" font-family="Courier,monospace" font-size="9.00"> </text>
</a>
</g>
</g>
<!-- cp_menu&#45;&gt;user_db -->
<g id="edge7" class="edge">
<title>cp_menu&#45;&gt;user_db</title>
<path fill="none" stroke="black" d="M545.76,-190.83C556.46,-165.66 572.18,-128.67 582.97,-103.31"/>
<polygon fill="black" stroke="black" points="582.99,-103.26 581.65,-96.18 587.68,-92.22 582.99,-103.26"/>
<g id="a_edge7&#45;label"><a xlink:title="use_module">
<text text-anchor="middle" x="595" y="-138.8" font-family="Courier,monospace" font-size="9.00">use_module</text>
</a>
</g>
</g>
<!-- apply -->
<g id="node8" class="node">
<title>apply</title>
<g id="a_node8"><a xlink:title="module">
<polygon fill="gainsboro" stroke="black" stroke-dasharray="5,2" points="708.5,-92 661.5,-92 661.5,-96 649.5,-96 649.5,-56 708.5,-56 708.5,-92"/>
<polyline fill="none" stroke="black" stroke-dasharray="5,2" points="649.5,-92 661.5,-92 "/>
<text text-anchor="start" x="657.8" y="-75.8" font-family="Courier,monospace" font-size="9.00"> </text>
<text text-anchor="start" x="663" y="-75.2" font-family="Courier,monospace" font-size="11.00">apply</text>
<text text-anchor="start" x="695.8" y="-75.8" font-family="Courier,monospace" font-size="9.00"> </text>
<text text-anchor="start" x="657.8" y="-65.8" font-family="Courier,monospace" font-size="9.00"> </text>
<text text-anchor="start" x="666.9" y="-66.4" font-family="Courier,monospace" font-size="7.00">module</text>
<text text-anchor="start" x="695.8" y="-65.8" font-family="Courier,monospace" font-size="9.00"> </text>
</a>
</g>
</g>
<!-- cp_menu&#45;&gt;apply -->
<g id="edge8" class="edge">
<title>cp_menu&#45;&gt;apply</title>
<path fill="none" stroke="black" d="M573.49,-190.97C590.51,-178.23 610.11,-162.31 626,-146 639.09,-132.57 651.73,-115.82 661.38,-101.97"/>
<polygon fill="black" stroke="black" points="661.39,-101.97 661.46,-94.75 668.14,-92.05 661.39,-101.97"/>
<g id="a_edge8&#45;label"><a xlink:title="use_module">
<text text-anchor="middle" x="661" y="-138.8" font-family="Courier,monospace" font-size="9.00">use_module</text>
</a>
</g>
</g>
<!-- ctypes -->
<g id="node9" class="node">
<title>ctypes</title>
<g id="a_node9"><a xlink:title="module">
<polygon fill="gainsboro" stroke="black" stroke-dasharray="5,2" points="791.5,-92 738.5,-92 738.5,-96 726.5,-96 726.5,-56 791.5,-56 791.5,-92"/>
<polyline fill="none" stroke="black" stroke-dasharray="5,2" points="726.5,-92 738.5,-92 "/>
<text text-anchor="start" x="734.8" y="-75.8" font-family="Courier,monospace" font-size="9.00"> </text>
<text text-anchor="start" x="739.7" y="-75.2" font-family="Courier,monospace" font-size="11.00">ctypes</text>
<text text-anchor="start" x="778.8" y="-75.8" font-family="Courier,monospace" font-size="9.00"> </text>
<text text-anchor="start" x="734.8" y="-65.8" font-family="Courier,monospace" font-size="9.00"> </text>
<text text-anchor="start" x="746.9" y="-66.4" font-family="Courier,monospace" font-size="7.00">module</text>
<text text-anchor="start" x="778.8" y="-65.8" font-family="Courier,monospace" font-size="9.00"> </text>
</a>
</g>
</g>
<!-- cp_menu&#45;&gt;ctypes -->
<g id="edge9" class="edge">
<title>cp_menu&#45;&gt;ctypes</title>
<path fill="none" stroke="black" d="M574.05,-204.68C607.3,-192.16 654.96,-171.77 692,-146 705.42,-136.67 706.72,-131.82 718,-120 723.65,-114.08 729.63,-107.62 735.23,-101.5"/>
<polygon fill="black" stroke="black" points="735.55,-101.15 736.62,-94.02 743.61,-92.27 735.55,-101.15"/>
<g id="a_edge9&#45;label"><a xlink:title="use_module">
<text text-anchor="middle" x="729" y="-138.8" font-family="Courier,monospace" font-size="9.00">use_module</text>
</a>
</g>
</g>
<!-- uri -->
<g id="node10" class="node">
<title>uri</title>
<g id="a_node10"><a xlink:title="module">
<polygon fill="gainsboro" stroke="black" stroke-dasharray="5,2" points="864,-92 822,-92 822,-96 810,-96 810,-56 864,-56 864,-92"/>
<polyline fill="none" stroke="black" stroke-dasharray="5,2" points="810,-92 822,-92 "/>
<text text-anchor="start" x="819.8" y="-75.8" font-family="Courier,monospace" font-size="9.00"> </text>
<text text-anchor="start" x="827.6" y="-75.2" font-family="Courier,monospace" font-size="11.00">uri</text>
<text text-anchor="start" x="849.8" y="-75.8" font-family="Courier,monospace" font-size="9.00"> </text>
<text text-anchor="start" x="819.8" y="-65.8" font-family="Courier,monospace" font-size="9.00"> </text>
<text text-anchor="start" x="824.9" y="-66.4" font-family="Courier,monospace" font-size="7.00">module</text>
<text text-anchor="start" x="849.8" y="-65.8" font-family="Courier,monospace" font-size="9.00"> </text>
</a>
</g>
</g>
<!-- cp_menu&#45;&gt;uri -->
<g id="edge10" class="edge">
<title>cp_menu&#45;&gt;uri</title>
<path fill="none" stroke="black" d="M574.36,-208.88C620.49,-197.14 697.68,-175.17 760,-146 779.54,-136.85 784.93,-134.4 801,-120 806.97,-114.65 812.72,-108.25 817.81,-101.97"/>
<polygon fill="black" stroke="black" points="817.88,-101.89 818.38,-94.69 825.21,-92.39 817.88,-101.89"/>
<g id="a_edge10&#45;label"><a xlink:title="use_module">
<text text-anchor="middle" x="805" y="-138.8" font-family="Courier,monospace" font-size="9.00">use_module</text>
</a>
</g>
</g>
<!-- tty -->
<g id="node11" class="node">
<title>tty</title>
<ellipse fill="white" stroke="black" cx="911" cy="-74" rx="27" ry="18"/>
<text text-anchor="middle" x="911" y="-71.3" font-family="Courier,monospace" font-size="9.00">tty</text>
</g>
<!-- cp_menu&#45;&gt;tty -->
<g id="edge4" class="edge">
<title>cp_menu&#45;&gt;tty</title>
<path fill="none" stroke="black" d="M574.36,-213C633.51,-204.02 746.42,-183.34 836,-146 856.26,-137.55 861.88,-134.9 878,-120 883.98,-114.48 889.58,-107.73 894.42,-101.16"/>
<polygon fill="black" stroke="black" points="894.5,-101.05 894.62,-93.84 901.33,-91.19 894.5,-101.05"/>
<g id="a_edge4&#45;label"><a xlink:title="use_module">
<text text-anchor="middle" x="882" y="-138.8" font-family="Courier,monospace" font-size="9.00">use_module</text>
</a>
</g>
</g>
</g>
</svg>
