<?xml version="1.0" encoding="UTF-8" standalone="no"?>
<!DOCTYPE svg PUBLIC "-//W3C//DTD SVG 1.1//EN"
 "http://www.w3.org/Graphics/SVG/1.1/DTD/svg11.dtd">
<!-- Generated by graphviz version 2.41.20190410.0829 (20190410.0829)
 -->
<!-- Title: messages.pl Pages: 1 -->
<svg width="591pt" height="454pt"
 viewBox="72.00 72.00 519.00 382.00" xmlns="http://www.w3.org/2000/svg" xmlns:xlink="http://www.w3.org/1999/xlink">
<g id="graph0" class="graph" transform="scale(1 1) rotate(0) translate(76 378)">
<title>messages.pl</title>
<polygon fill="white" stroke="transparent" points="-4,4 -4,-306 443,-306 443,4 -4,4"/>
<text text-anchor="start" x="8" y="-16" font-family="Courier,monospace" font-size="10.00" fill="#8b8989">ClioPatria &#45; an RDF application platform</text>
<text text-anchor="start" x="8" y="-6" font-family="Courier,monospace" font-size="10.00" fill="#8b8989">Generated on 2019/04/17, 13:04</text>
<g id="clust1" class="cluster">
<title>cluster_file_/Users/pmoura/ClioPatria/components/messages.pl</title>
<g id="a_clust1"><a xlink:href="https://github.com/ClioPatria/ClioPatria/tree/add57aa2039eed4033cf96e96c293b2052e88f41/components/messages.pl" xlink:title="https://github.com/ClioPatria/ClioPatria/tree/add57aa2039eed4033cf96e96c293b2052e88f41/components/messages.pl">
<path fill="snow" stroke="#8b8989" d="M20,-36C20,-36 419,-36 419,-36 425,-36 431,-42 431,-48 431,-48 431,-282 431,-282 431,-288 425,-294 419,-294 419,-294 20,-294 20,-294 14,-294 8,-288 8,-282 8,-282 8,-48 8,-48 8,-42 14,-36 20,-36"/>
<text text-anchor="middle" x="49.01" y="-282" font-family="Courier,monospace" font-size="10.00" fill="#8b8989">messages.pl</text>
</a>
</g>
</g>
<g id="clust2" class="cluster">
<title>cluster_other</title>
<g id="a_clust2"><a xlink:title="(external entities)">
<path fill="white" stroke="#8b8989" d="M30,-46C30,-46 409,-46 409,-46 415,-46 421,-52 421,-58 421,-58 421,-108 421,-108 421,-114 415,-120 409,-120 409,-120 30,-120 30,-120 24,-120 18,-114 18,-108 18,-108 18,-58 18,-58 18,-52 24,-46 30,-46"/>
<text text-anchor="middle" x="83.01" y="-108" font-family="Courier,monospace" font-size="10.00" fill="#8b8989">(external entities)</text>
</a>
</g>
</g>
<!-- cp_messages -->
<g id="node1" class="node">
<title>cp_messages</title>
<g id="a_node1"><a xlink:title="module">
<polygon fill="gainsboro" stroke="black" points="314.5,-266 149.5,-266 149.5,-270 137.5,-270 137.5,-191 314.5,-191 314.5,-266"/>
<polyline fill="none" stroke="black" points="137.5,-266 149.5,-266 "/>
<g id="a_node1_0"><a xlink:href="cp_messages_module_xref_diagram.svg" xlink:title="Zoom">
<image xlink:href="zoom.png" width="11px" height="11px" preserveAspectRatio="xMinYMin meet" x="146" y="-261.5"/>
</a>
</g>
<text text-anchor="start" x="148.8" y="-242.3" font-family="Courier,monospace" font-size="9.00"> </text>
<text text-anchor="start" x="193.19" y="-241.7" font-family="Courier,monospace" font-size="11.00">cp_messages</text>
<text text-anchor="start" x="301.8" y="-242.3" font-family="Courier,monospace" font-size="9.00"> </text>
<text text-anchor="start" x="148.8" y="-232.3" font-family="Courier,monospace" font-size="9.00"> </text>
<text text-anchor="start" x="216.9" y="-232.9" font-family="Courier,monospace" font-size="7.00">module</text>
<text text-anchor="start" x="301.8" y="-232.3" font-family="Courier,monospace" font-size="9.00"> </text>
<text text-anchor="start" x="148.8" y="-223.3" font-family="Courier,monospace" font-size="9.00"> </text>
<text text-anchor="start" x="148.8" y="-214.3" font-family="Courier,monospace" font-size="9.00"> </text>
<text text-anchor="start" x="186.29" y="-214.3" font-family="Courier,monospace" font-size="9.00">after_messages/1</text>
<text text-anchor="start" x="301.8" y="-214.3" font-family="Courier,monospace" font-size="9.00"> </text>
<text text-anchor="start" x="148.8" y="-205.3" font-family="Courier,monospace" font-size="9.00"> </text>
<text text-anchor="start" x="167.39" y="-205.3" font-family="Courier,monospace" font-size="9.00">call_showing_messages/2</text>
<text text-anchor="start" x="301.8" y="-205.3" font-family="Courier,monospace" font-size="9.00"> </text>
<text text-anchor="start" x="148.8" y="-196.3" font-family="Courier,monospace" font-size="9.00"> </text>
<text text-anchor="start" x="156.59" y="-196.3" font-family="Courier,monospace" font-size="9.00">html_write:html_meta_head/3</text>
<text text-anchor="start" x="301.8" y="-196.3" font-family="Courier,monospace" font-size="9.00"> </text>
</a>
</g>
</g>
<!-- html_write -->
<g id="node2" class="node">
<title>html_write</title>
<g id="a_node2"><a xlink:title="module">
<polygon fill="gainsboro" stroke="black" stroke-dasharray="5,2" points="120,-92 40,-92 40,-96 28,-96 28,-56 120,-56 120,-92"/>
<polyline fill="none" stroke="black" stroke-dasharray="5,2" points="28,-92 40,-92 "/>
<text text-anchor="start" x="35.8" y="-75.8" font-family="Courier,monospace" font-size="9.00"> </text>
<text text-anchor="start" x="40.99" y="-75.2" font-family="Courier,monospace" font-size="11.00">html_write</text>
<text text-anchor="start" x="106.8" y="-75.8" font-family="Courier,monospace" font-size="9.00"> </text>
<text text-anchor="start" x="35.8" y="-65.8" font-family="Courier,monospace" font-size="9.00"> </text>
<text text-anchor="start" x="61.4" y="-66.4" font-family="Courier,monospace" font-size="7.00">module</text>
<text text-anchor="start" x="106.8" y="-65.8" font-family="Courier,monospace" font-size="9.00"> </text>
</a>
</g>
</g>
<!-- cp_messages&#45;&gt;html_write -->
<g id="edge1" class="edge">
<title>cp_messages&#45;&gt;html_write</title>
<path fill="none" stroke="black" d="M189.59,-190.97C161.26,-162.54 122.73,-123.89 98.11,-99.19"/>
<polygon fill="black" stroke="black" points="93.42,-89.53 98.01,-99.08 88.47,-94.47 93.42,-89.53"/>
<g id="a_edge1&#45;label"><a xlink:title="provides">
<text text-anchor="middle" x="161.6" y="-138.8" font-family="Courier,monospace" font-size="9.00">provides</text>
</a>
</g>
</g>
<!-- swi_option -->
<g id="node3" class="node">
<title>swi_option</title>
<g id="a_node3"><a xlink:title="module">
<polygon fill="gainsboro" stroke="black" stroke-dasharray="5,2" points="230,-92 150,-92 150,-96 138,-96 138,-56 230,-56 230,-92"/>
<polyline fill="none" stroke="black" stroke-dasharray="5,2" points="138,-92 150,-92 "/>
<text text-anchor="start" x="145.8" y="-75.8" font-family="Courier,monospace" font-size="9.00"> </text>
<text text-anchor="start" x="150.99" y="-75.2" font-family="Courier,monospace" font-size="11.00">swi_option</text>
<text text-anchor="start" x="216.8" y="-75.8" font-family="Courier,monospace" font-size="9.00"> </text>
<text text-anchor="start" x="145.8" y="-65.8" font-family="Courier,monospace" font-size="9.00"> </text>
<text text-anchor="start" x="171.4" y="-66.4" font-family="Courier,monospace" font-size="7.00">module</text>
<text text-anchor="start" x="216.8" y="-65.8" font-family="Courier,monospace" font-size="9.00"> </text>
</a>
</g>
</g>
<!-- cp_messages&#45;&gt;swi_option -->
<g id="edge2" class="edge">
<title>cp_messages&#45;&gt;swi_option</title>
<path fill="none" stroke="black" d="M215.47,-190.61C211.51,-176.65 207.01,-160.6 202.99,-146 199.21,-132.25 195.11,-116.98 191.69,-104.13"/>
<polygon fill="black" stroke="black" points="191.62,-103.83 186.21,-99.06 188.54,-92.23 191.62,-103.83"/>
<g id="a_edge2&#45;label"><a xlink:title="use_module">
<text text-anchor="middle" x="229" y="-138.8" font-family="Courier,monospace" font-size="9.00">use_module</text>
</a>
</g>
</g>
<!-- http_path -->
<g id="node4" class="node">
<title>http_path</title>
<g id="a_node4"><a xlink:title="module">
<polygon fill="gainsboro" stroke="black" stroke-dasharray="5,2" points="333.5,-92 260.5,-92 260.5,-96 248.5,-96 248.5,-56 333.5,-56 333.5,-92"/>
<polyline fill="none" stroke="black" stroke-dasharray="5,2" points="248.5,-92 260.5,-92 "/>
<text text-anchor="start" x="256.8" y="-75.8" font-family="Courier,monospace" font-size="9.00"> </text>
<text text-anchor="start" x="261.8" y="-75.2" font-family="Courier,monospace" font-size="11.00">http_path</text>
<text text-anchor="start" x="320.8" y="-75.8" font-family="Courier,monospace" font-size="9.00"> </text>
<text text-anchor="start" x="256.8" y="-65.8" font-family="Courier,monospace" font-size="9.00"> </text>
<text text-anchor="start" x="278.9" y="-66.4" font-family="Courier,monospace" font-size="7.00">module</text>
<text text-anchor="start" x="320.8" y="-65.8" font-family="Courier,monospace" font-size="9.00"> </text>
</a>
</g>
</g>
<!-- cp_messages&#45;&gt;http_path -->
<g id="edge3" class="edge">
<title>cp_messages&#45;&gt;http_path</title>
<path fill="none" stroke="black" d="M241.57,-190.97C253.06,-164.01 268.47,-127.87 279.01,-103.13"/>
<polygon fill="black" stroke="black" points="279.05,-103.04 277.72,-95.95 283.75,-92 279.05,-103.04"/>
<g id="a_edge3&#45;label"><a xlink:title="use_module">
<text text-anchor="middle" x="291" y="-138.8" font-family="Courier,monospace" font-size="9.00">use_module</text>
</a>
</g>
</g>
<!-- lists -->
<g id="node5" class="node">
<title>lists</title>
<g id="a_node5"><a xlink:title="module">
<polygon fill="gainsboro" stroke="black" stroke-dasharray="5,2" points="410.5,-92 363.5,-92 363.5,-96 351.5,-96 351.5,-56 410.5,-56 410.5,-92"/>
<polyline fill="none" stroke="black" stroke-dasharray="5,2" points="351.5,-92 363.5,-92 "/>
<text text-anchor="start" x="359.8" y="-75.8" font-family="Courier,monospace" font-size="9.00"> </text>
<text text-anchor="start" x="365" y="-75.2" font-family="Courier,monospace" font-size="11.00">lists</text>
<text text-anchor="start" x="397.8" y="-75.8" font-family="Courier,monospace" font-size="9.00"> </text>
<text text-anchor="start" x="359.8" y="-65.8" font-family="Courier,monospace" font-size="9.00"> </text>
<text text-anchor="start" x="368.9" y="-66.4" font-family="Courier,monospace" font-size="7.00">module</text>
<text text-anchor="start" x="397.8" y="-65.8" font-family="Courier,monospace" font-size="9.00"> </text>
</a>
</g>
</g>
<!-- cp_messages&#45;&gt;lists -->
<g id="edge4" class="edge">
<title>cp_messages&#45;&gt;lists</title>
<path fill="none" stroke="black" d="M272.37,-190.9C288.61,-177.38 306.62,-161.54 322,-146 335.65,-132.2 349.6,-115.57 360.5,-101.87"/>
<polygon fill="black" stroke="black" points="360.78,-101.5 361.33,-94.31 368.18,-92.06 360.78,-101.5"/>
<g id="a_edge4&#45;label"><a xlink:title="use_module">
<text text-anchor="middle" x="355" y="-138.8" font-family="Courier,monospace" font-size="9.00">use_module</text>
</a>
</g>
</g>
</g>
</svg>
