<?xml version="1.0" encoding="UTF-8" standalone="no"?>
<!DOCTYPE svg PUBLIC "-//W3C//DTD SVG 1.1//EN"
 "http://www.w3.org/Graphics/SVG/1.1/DTD/svg11.dtd">
<!-- Generated by graphviz version 2.41.20190410.0829 (20190410.0829)
 -->
<!-- Title: no_entailment_module Pages: 1 -->
<svg width="468pt" height="288pt"
 viewBox="72.00 72.00 396.05 216.00" xmlns="http://www.w3.org/2000/svg" xmlns:xlink="http://www.w3.org/1999/xlink">
<g id="graph0" class="graph" transform="scale(1 1) rotate(0) translate(76 212)">
<title>no_entailment_module</title>
<polygon fill="white" stroke="transparent" points="-4,4 -4,-140 320.05,-140 320.05,4 -4,4"/>
<text text-anchor="start" x="8" y="-26" font-family="Courier,monospace" font-size="10.00" fill="dimgray">ClioPatria &#45; an RDF application platform</text>
<text text-anchor="start" x="8" y="-16" font-family="Courier,monospace" font-size="10.00" fill="dimgray">Cross&#45;referencing diagram for module no_entailment</text>
<text text-anchor="start" x="8" y="-6" font-family="Courier,monospace" font-size="10.00" fill="dimgray">Generated on 2019/04/30, 22:01</text>
<g id="clust1" class="cluster">
<title>cluster_no_entailment_module</title>
<g id="a_clust1"><a xlink:title="no_entailment">
<path fill="snow" stroke="dimgray" d="M71.02,-46C71.02,-46 245.02,-46 245.02,-46 251.02,-46 257.02,-52 257.02,-58 257.02,-58 257.02,-116 257.02,-116 257.02,-122 251.02,-128 245.02,-128 245.02,-128 71.02,-128 71.02,-128 65.02,-128 59.02,-122 59.02,-116 59.02,-116 59.02,-58 59.02,-58 59.02,-52 65.02,-46 71.02,-46"/>
<g id="a_clust1_0"><a xlink:href="https://github.com/ClioPatria/ClioPatria/tree/add57aa2039eed4033cf96e96c293b2052e88f41/entailment/none.pl" xlink:title="https://github.com/ClioPatria/ClioPatria/tree/add57aa2039eed4033cf96e96c293b2052e88f41/entailment/none.pl">
<text text-anchor="start" x="71.02" y="-112" font-family="Courier,monospace" font-size="10.00" fill="dimgray">no_entailment</text>
</a>
</g>
</a>
</g>
</g>
<!-- cliopatria:entailment/2 -->
<g id="node1" class="node">
<title>cliopatria:entailment/2</title>
<g id="a_node1"><a xlink:href="https://github.com/ClioPatria/ClioPatria/tree/add57aa2039eed4033cf96e96c293b2052e88f41/entailment/none.pl#L59" xlink:title="https://github.com/ClioPatria/ClioPatria/tree/add57aa2039eed4033cf96e96c293b2052e88f41/entailment/none.pl#L59">
<polygon fill="skyblue" stroke="black" points="246.52,-92 69.52,-92 69.52,-56 246.52,-56 246.52,-92"/>
<text text-anchor="start" x="77.82" y="-75.8" font-family="Courier,monospace" font-size="9.00"> </text>
<text text-anchor="start" x="82.61" y="-75.2" font-family="Courier,monospace" font-size="11.00">cliopatria:entailment/2</text>
<text text-anchor="start" x="233.82" y="-75.8" font-family="Courier,monospace" font-size="9.00"> </text>
<text text-anchor="start" x="77.82" y="-65.8" font-family="Courier,monospace" font-size="9.00"> </text>
<text text-anchor="start" x="139.62" y="-66.4" font-family="Courier,monospace" font-size="7.00">multifile</text>
<text text-anchor="start" x="233.82" y="-65.8" font-family="Courier,monospace" font-size="9.00"> </text>
</a>
</g>
</g>
</g>
</svg>
