<?xml version="1.0" encoding="UTF-8" standalone="no"?>
<!DOCTYPE svg PUBLIC "-//W3C//DTD SVG 1.1//EN"
 "http://www.w3.org/Graphics/SVG/1.1/DTD/svg11.dtd">
<!-- Generated by graphviz version 2.41.20190410.0829 (20190410.0829)
 -->
<!-- Title: none.pl Pages: 1 -->
<svg width="408pt" height="454pt"
 viewBox="72.00 72.00 336.04 382.00" xmlns="http://www.w3.org/2000/svg" xmlns:xlink="http://www.w3.org/1999/xlink">
<g id="graph0" class="graph" transform="scale(1 1) rotate(0) translate(76 378)">
<title>none.pl</title>
<polygon fill="white" stroke="transparent" points="-4,4 -4,-306 260.04,-306 260.04,4 -4,4"/>
<text text-anchor="start" x="8" y="-16" font-family="Courier,monospace" font-size="10.00" fill="#8b8989">ClioPatria &#45; an RDF application platform</text>
<text text-anchor="start" x="8" y="-6" font-family="Courier,monospace" font-size="10.00" fill="#8b8989">Generated on 2019/04/17, 13:04</text>
<g id="clust1" class="cluster">
<title>cluster_file_/Users/pmoura/ClioPatria/entailment/none.pl</title>
<g id="a_clust1"><a xlink:href="https://github.com/ClioPatria/ClioPatria/tree/add57aa2039eed4033cf96e96c293b2052e88f41/entailment/none.pl" xlink:title="https://github.com/ClioPatria/ClioPatria/tree/add57aa2039eed4033cf96e96c293b2052e88f41/entailment/none.pl">
<path fill="snow" stroke="#8b8989" d="M52.02,-36C52.02,-36 204.02,-36 204.02,-36 210.02,-36 216.02,-42 216.02,-48 216.02,-48 216.02,-282 216.02,-282 216.02,-288 210.02,-294 204.02,-294 204.02,-294 52.02,-294 52.02,-294 46.02,-294 40.02,-288 40.02,-282 40.02,-282 40.02,-48 40.02,-48 40.02,-42 46.02,-36 52.02,-36"/>
<text text-anchor="middle" x="69.02" y="-282" font-family="Courier,monospace" font-size="10.00" fill="#8b8989">none.pl</text>
</a>
</g>
</g>
<g id="clust2" class="cluster">
<title>cluster_other</title>
<g id="a_clust2"><a xlink:title="(external entities)">
<path fill="white" stroke="#8b8989" d="M75.02,-46C75.02,-46 181.02,-46 181.02,-46 187.02,-46 193.02,-52 193.02,-58 193.02,-58 193.02,-108 193.02,-108 193.02,-114 187.02,-120 181.02,-120 181.02,-120 75.02,-120 75.02,-120 69.02,-120 63.02,-114 63.02,-108 63.02,-108 63.02,-58 63.02,-58 63.02,-52 69.02,-46 75.02,-46"/>
<text text-anchor="middle" x="128.03" y="-108" font-family="Courier,monospace" font-size="10.00" fill="#8b8989">(external entities)</text>
</a>
</g>
</g>
<!-- no_entailment -->
<g id="node1" class="node">
<title>no_entailment</title>
<g id="a_node1"><a xlink:title="module">
<polygon fill="gainsboro" stroke="black" points="206.02,-266 62.02,-266 62.02,-270 50.02,-270 50.02,-191 206.02,-191 206.02,-266"/>
<polyline fill="none" stroke="black" points="50.02,-266 62.02,-266 "/>
<g id="a_node1_0"><a xlink:href="no_entailment_module_xref_diagram.svg" xlink:title="Zoom">
<image xlink:href="zoom.png" width="11px" height="11px" preserveAspectRatio="xMinYMin meet" x="58.0195" y="-261.5"/>
</a>
</g>
<text text-anchor="start" x="60.82" y="-242.3" font-family="Courier,monospace" font-size="9.00"> </text>
<text text-anchor="start" x="88.11" y="-241.7" font-family="Courier,monospace" font-size="11.00">no_entailment</text>
<text text-anchor="start" x="192.82" y="-242.3" font-family="Courier,monospace" font-size="9.00"> </text>
<text text-anchor="start" x="60.82" y="-232.3" font-family="Courier,monospace" font-size="9.00"> </text>
<text text-anchor="start" x="118.42" y="-232.9" font-family="Courier,monospace" font-size="7.00">module</text>
<text text-anchor="start" x="192.82" y="-232.3" font-family="Courier,monospace" font-size="9.00"> </text>
<text text-anchor="start" x="60.82" y="-223.3" font-family="Courier,monospace" font-size="9.00"> </text>
<text text-anchor="start" x="60.82" y="-214.3" font-family="Courier,monospace" font-size="9.00"> </text>
<text text-anchor="start" x="117.52" y="-214.3" font-family="Courier,monospace" font-size="9.00">rdf/3</text>
<text text-anchor="start" x="192.82" y="-214.3" font-family="Courier,monospace" font-size="9.00"> </text>
<text text-anchor="start" x="60.82" y="-205.3" font-family="Courier,monospace" font-size="9.00"> </text>
<text text-anchor="start" x="117.52" y="-205.3" font-family="Courier,monospace" font-size="9.00">rdf/4</text>
<text text-anchor="start" x="192.82" y="-205.3" font-family="Courier,monospace" font-size="9.00"> </text>
<text text-anchor="start" x="60.82" y="-196.3" font-family="Courier,monospace" font-size="9.00"> </text>
<text text-anchor="start" x="68.91" y="-196.3" font-family="Courier,monospace" font-size="9.00">cliopatria:entailment/2</text>
<text text-anchor="start" x="192.82" y="-196.3" font-family="Courier,monospace" font-size="9.00"> </text>
</a>
</g>
</g>
<!-- cliopatria -->
<g id="node2" class="node">
<title>cliopatria</title>
<g id="a_node2"><a xlink:title="module">
<polygon fill="gainsboro" stroke="black" stroke-dasharray="5,2" points="174.02,-92 94.02,-92 94.02,-96 82.02,-96 82.02,-56 174.02,-56 174.02,-92"/>
<polyline fill="none" stroke="black" stroke-dasharray="5,2" points="82.02,-92 94.02,-92 "/>
<text text-anchor="start" x="89.82" y="-75.8" font-family="Courier,monospace" font-size="9.00"> </text>
<text text-anchor="start" x="95.01" y="-75.2" font-family="Courier,monospace" font-size="11.00">cliopatria</text>
<text text-anchor="start" x="160.82" y="-75.8" font-family="Courier,monospace" font-size="9.00"> </text>
<text text-anchor="start" x="89.82" y="-65.8" font-family="Courier,monospace" font-size="9.00"> </text>
<text text-anchor="start" x="115.42" y="-66.4" font-family="Courier,monospace" font-size="7.00">module</text>
<text text-anchor="start" x="160.82" y="-65.8" font-family="Courier,monospace" font-size="9.00"> </text>
</a>
</g>
</g>
<!-- no_entailment&#45;&gt;cliopatria -->
<g id="edge1" class="edge">
<title>no_entailment&#45;&gt;cliopatria</title>
<path fill="none" stroke="black" d="M128.02,-190.97C128.02,-163.65 128.02,-126.88 128.02,-102.13"/>
<polygon fill="black" stroke="black" points="131.52,-92 128.02,-102 124.52,-92 131.52,-92"/>
<g id="a_edge1&#45;label"><a xlink:title="provides">
<text text-anchor="middle" x="149.62" y="-138.8" font-family="Courier,monospace" font-size="9.00">provides</text>
</a>
</g>
</g>
</g>
</svg>
