<?xml version="1.0" encoding="UTF-8" standalone="no"?>
<!DOCTYPE svg PUBLIC "-//W3C//DTD SVG 1.1//EN"
 "http://www.w3.org/Graphics/SVG/1.1/DTD/svg11.dtd">
<!-- Generated by graphviz version 2.41.20190410.0829 (20190410.0829)
 -->
<!-- Title: openid.pl Pages: 1 -->
<svg width="1556pt" height="463pt"
 viewBox="72.00 72.00 1484.00 391.00" xmlns="http://www.w3.org/2000/svg" xmlns:xlink="http://www.w3.org/1999/xlink">
<g id="graph0" class="graph" transform="scale(1 1) rotate(0) translate(76 387)">
<title>openid.pl</title>
<polygon fill="white" stroke="transparent" points="-4,4 -4,-315 1408,-315 1408,4 -4,4"/>
<text text-anchor="start" x="8" y="-16" font-family="Courier,monospace" font-size="10.00" fill="#8b8989">ClioPatria &#45; an RDF application platform</text>
<text text-anchor="start" x="8" y="-6" font-family="Courier,monospace" font-size="10.00" fill="#8b8989">Generated on 2019/04/17, 13:04</text>
<g id="clust1" class="cluster">
<title>cluster_file_/Users/pmoura/ClioPatria/user/openid.pl</title>
<g id="a_clust1"><a xlink:href="https://github.com/ClioPatria/ClioPatria/tree/add57aa2039eed4033cf96e96c293b2052e88f41/user/openid.pl" xlink:title="https://github.com/ClioPatria/ClioPatria/tree/add57aa2039eed4033cf96e96c293b2052e88f41/user/openid.pl">
<path fill="snow" stroke="#8b8989" d="M20,-36C20,-36 1384,-36 1384,-36 1390,-36 1396,-42 1396,-48 1396,-48 1396,-291 1396,-291 1396,-297 1390,-303 1384,-303 1384,-303 20,-303 20,-303 14,-303 8,-297 8,-291 8,-291 8,-48 8,-48 8,-42 14,-36 20,-36"/>
<text text-anchor="middle" x="43" y="-291" font-family="Courier,monospace" font-size="10.00" fill="#8b8989">openid.pl</text>
</a>
</g>
</g>
<g id="clust2" class="cluster">
<title>cluster_other</title>
<g id="a_clust2"><a xlink:title="(external entities)">
<path fill="white" stroke="#8b8989" d="M30,-46C30,-46 1310,-46 1310,-46 1316,-46 1322,-52 1322,-58 1322,-58 1322,-108 1322,-108 1322,-114 1316,-120 1310,-120 1310,-120 30,-120 30,-120 24,-120 18,-114 18,-108 18,-108 18,-58 18,-58 18,-52 24,-46 30,-46"/>
<text text-anchor="middle" x="83.01" y="-108" font-family="Courier,monospace" font-size="10.00" fill="#8b8989">(external entities)</text>
</a>
</g>
</g>
<!-- cliopatria_openid -->
<g id="node1" class="node">
<title>cliopatria_openid</title>
<g id="a_node1"><a xlink:title="module">
<polygon fill="gainsboro" stroke="black" points="851.5,-275 696.5,-275 696.5,-279 684.5,-279 684.5,-191 851.5,-191 851.5,-275"/>
<polyline fill="none" stroke="black" points="684.5,-275 696.5,-275 "/>
<g id="a_node1_0"><a xlink:href="cliopatria_openid_module_xref_diagram.svg" xlink:title="Zoom">
<image xlink:href="zoom.png" width="11px" height="11px" preserveAspectRatio="xMinYMin meet" x="693" y="-271"/>
</a>
</g>
<text text-anchor="start" x="695.8" y="-251.8" font-family="Courier,monospace" font-size="9.00"> </text>
<text text-anchor="start" x="715.39" y="-251.2" font-family="Courier,monospace" font-size="11.00">cliopatria_openid</text>
<text text-anchor="start" x="838.8" y="-251.8" font-family="Courier,monospace" font-size="9.00"> </text>
<text text-anchor="start" x="695.8" y="-241.8" font-family="Courier,monospace" font-size="9.00"> </text>
<text text-anchor="start" x="758.9" y="-242.4" font-family="Courier,monospace" font-size="7.00">module</text>
<text text-anchor="start" x="838.8" y="-241.8" font-family="Courier,monospace" font-size="9.00"> </text>
<text text-anchor="start" x="695.8" y="-232.8" font-family="Courier,monospace" font-size="9.00"> </text>
<text text-anchor="start" x="695.8" y="-223.8" font-family="Courier,monospace" font-size="9.00"> </text>
<text text-anchor="start" x="709.39" y="-223.8" font-family="Courier,monospace" font-size="9.00">openid_for_local_user/3</text>
<text text-anchor="start" x="838.8" y="-223.8" font-family="Courier,monospace" font-size="9.00"> </text>
<text text-anchor="start" x="695.8" y="-214.8" font-family="Courier,monospace" font-size="9.00"> </text>
<text text-anchor="start" x="709.39" y="-214.8" font-family="Courier,monospace" font-size="9.00">openid_for_local_user/2</text>
<text text-anchor="start" x="838.8" y="-214.8" font-family="Courier,monospace" font-size="9.00"> </text>
<text text-anchor="start" x="695.8" y="-205.8" font-family="Courier,monospace" font-size="9.00"> </text>
<text text-anchor="start" x="730.99" y="-205.8" font-family="Courier,monospace" font-size="9.00">http:location/3</text>
<text text-anchor="start" x="838.8" y="-205.8" font-family="Courier,monospace" font-size="9.00"> </text>
<text text-anchor="start" x="695.8" y="-196.8" font-family="Courier,monospace" font-size="9.00"> </text>
<text text-anchor="start" x="703.99" y="-196.8" font-family="Courier,monospace" font-size="9.00">http_openid:openid_hook/1</text>
<text text-anchor="start" x="838.8" y="-196.8" font-family="Courier,monospace" font-size="9.00"> </text>
</a>
</g>
</g>
<!-- http_openid -->
<g id="node2" class="node">
<title>http_openid</title>
<g id="a_node2"><a xlink:title="module">
<polygon fill="gainsboro" stroke="black" stroke-dasharray="5,2" points="126,-92 40,-92 40,-96 28,-96 28,-56 126,-56 126,-92"/>
<polyline fill="none" stroke="black" stroke-dasharray="5,2" points="28,-92 40,-92 "/>
<text text-anchor="start" x="35.8" y="-75.8" font-family="Courier,monospace" font-size="9.00"> </text>
<text text-anchor="start" x="40.69" y="-75.2" font-family="Courier,monospace" font-size="11.00">http_openid</text>
<text text-anchor="start" x="112.8" y="-75.8" font-family="Courier,monospace" font-size="9.00"> </text>
<text text-anchor="start" x="35.8" y="-65.8" font-family="Courier,monospace" font-size="9.00"> </text>
<text text-anchor="start" x="64.4" y="-66.4" font-family="Courier,monospace" font-size="7.00">module</text>
<text text-anchor="start" x="112.8" y="-65.8" font-family="Courier,monospace" font-size="9.00"> </text>
</a>
</g>
</g>
<!-- cliopatria_openid&#45;&gt;http_openid -->
<g id="edge2" class="edge">
<title>cliopatria_openid&#45;&gt;http_openid</title>
<path fill="none" stroke="black" d="M684.29,-219.03C583.05,-203.08 407.57,-174.6 257.79,-146 203.43,-135.62 186.29,-143.12 136,-120 124.2,-114.58 112.55,-106.45 102.76,-98.59"/>
<polygon fill="black" stroke="black" points="97.25,-89.42 102.68,-98.52 92.76,-94.8 97.25,-89.42"/>
<g id="a_edge2&#45;label"><a xlink:title="provides">
<text text-anchor="middle" x="278.6" y="-138.8" font-family="Courier,monospace" font-size="9.00">provides</text>
</a>
</g>
</g>
<!-- http_dispatch -->
<g id="node3" class="node">
<title>http_dispatch</title>
<g id="a_node3"><a xlink:title="module">
<polygon fill="gainsboro" stroke="black" stroke-dasharray="5,2" points="255.5,-92 156.5,-92 156.5,-96 144.5,-96 144.5,-56 255.5,-56 255.5,-92"/>
<polyline fill="none" stroke="black" stroke-dasharray="5,2" points="144.5,-92 156.5,-92 "/>
<text text-anchor="start" x="152.8" y="-75.8" font-family="Courier,monospace" font-size="9.00"> </text>
<text text-anchor="start" x="157.59" y="-75.2" font-family="Courier,monospace" font-size="11.00">http_dispatch</text>
<text text-anchor="start" x="242.8" y="-75.8" font-family="Courier,monospace" font-size="9.00"> </text>
<text text-anchor="start" x="152.8" y="-65.8" font-family="Courier,monospace" font-size="9.00"> </text>
<text text-anchor="start" x="187.9" y="-66.4" font-family="Courier,monospace" font-size="7.00">module</text>
<text text-anchor="start" x="242.8" y="-65.8" font-family="Courier,monospace" font-size="9.00"> </text>
</a>
</g>
</g>
<!-- cliopatria_openid&#45;&gt;http_dispatch -->
<g id="edge3" class="edge">
<title>cliopatria_openid&#45;&gt;http_dispatch</title>
<path fill="none" stroke="black" d="M684.32,-218.96C597.05,-204.5 456.68,-178.82 337.99,-146 304.8,-136.82 295.64,-135.71 265,-120 253.55,-114.13 241.77,-106.52 231.44,-99.24"/>
<polygon fill="black" stroke="black" points="231.36,-99.19 224.16,-98.9 221.65,-92.14 231.36,-99.19"/>
<g id="a_edge3&#45;label"><a xlink:title="use_module">
<text text-anchor="middle" x="364" y="-138.8" font-family="Courier,monospace" font-size="9.00">use_module</text>
</a>
</g>
</g>
<!-- user_db -->
<g id="node4" class="node">
<title>user_db</title>
<g id="a_node4"><a xlink:title="module">
<polygon fill="gainsboro" stroke="black" stroke-dasharray="5,2" points="346,-92 286,-92 286,-96 274,-96 274,-56 346,-56 346,-92"/>
<polyline fill="none" stroke="black" stroke-dasharray="5,2" points="274,-92 286,-92 "/>
<text text-anchor="start" x="281.8" y="-75.8" font-family="Courier,monospace" font-size="9.00"> </text>
<text text-anchor="start" x="286.9" y="-75.2" font-family="Courier,monospace" font-size="11.00">user_db</text>
<text text-anchor="start" x="332.8" y="-75.8" font-family="Courier,monospace" font-size="9.00"> </text>
<text text-anchor="start" x="281.8" y="-65.8" font-family="Courier,monospace" font-size="9.00"> </text>
<text text-anchor="start" x="297.4" y="-66.4" font-family="Courier,monospace" font-size="7.00">module</text>
<text text-anchor="start" x="332.8" y="-65.8" font-family="Courier,monospace" font-size="9.00"> </text>
</a>
</g>
</g>
<!-- cliopatria_openid&#45;&gt;user_db -->
<g id="edge4" class="edge">
<title>cliopatria_openid&#45;&gt;user_db</title>
<path fill="none" stroke="black" d="M684.3,-221.92C597.52,-208.66 460.21,-179.66 356,-120 347.27,-115 339,-107.96 331.93,-100.92"/>
<polygon fill="black" stroke="black" points="331.92,-100.91 324.89,-99.28 323.69,-92.17 331.92,-100.91"/>
<g id="a_edge4&#45;label"><a xlink:title="use_module">
<text text-anchor="middle" x="423" y="-138.8" font-family="Courier,monospace" font-size="9.00">use_module</text>
</a>
</g>
</g>
<!-- http_session -->
<g id="node5" class="node">
<title>http_session</title>
<g id="a_node5"><a xlink:title="module">
<polygon fill="gainsboro" stroke="black" stroke-dasharray="5,2" points="469.5,-92 376.5,-92 376.5,-96 364.5,-96 364.5,-56 469.5,-56 469.5,-92"/>
<polyline fill="none" stroke="black" stroke-dasharray="5,2" points="364.5,-92 376.5,-92 "/>
<text text-anchor="start" x="372.8" y="-75.8" font-family="Courier,monospace" font-size="9.00"> </text>
<text text-anchor="start" x="377.89" y="-75.2" font-family="Courier,monospace" font-size="11.00">http_session</text>
<text text-anchor="start" x="456.8" y="-75.8" font-family="Courier,monospace" font-size="9.00"> </text>
<text text-anchor="start" x="372.8" y="-65.8" font-family="Courier,monospace" font-size="9.00"> </text>
<text text-anchor="start" x="404.9" y="-66.4" font-family="Courier,monospace" font-size="7.00">module</text>
<text text-anchor="start" x="456.8" y="-65.8" font-family="Courier,monospace" font-size="9.00"> </text>
</a>
</g>
</g>
<!-- cliopatria_openid&#45;&gt;http_session -->
<g id="edge5" class="edge">
<title>cliopatria_openid&#45;&gt;http_session</title>
<path fill="none" stroke="black" d="M684.19,-205.94C625.1,-186.05 545.04,-155.97 479,-120 468.16,-114.1 457.04,-106.56 447.26,-99.36"/>
<polygon fill="black" stroke="black" points="447.18,-99.3 439.98,-98.86 437.62,-92.04 447.18,-99.3"/>
<g id="a_edge5&#45;label"><a xlink:title="use_module">
<text text-anchor="middle" x="551" y="-138.8" font-family="Courier,monospace" font-size="9.00">use_module</text>
</a>
</g>
</g>
<!-- http_parameters -->
<g id="node6" class="node">
<title>http_parameters</title>
<g id="a_node6"><a xlink:title="module">
<polygon fill="gainsboro" stroke="black" stroke-dasharray="5,2" points="612.5,-92 499.5,-92 499.5,-96 487.5,-96 487.5,-56 612.5,-56 612.5,-92"/>
<polyline fill="none" stroke="black" stroke-dasharray="5,2" points="487.5,-92 499.5,-92 "/>
<text text-anchor="start" x="495.8" y="-75.8" font-family="Courier,monospace" font-size="9.00"> </text>
<text text-anchor="start" x="500.99" y="-75.2" font-family="Courier,monospace" font-size="11.00">http_parameters</text>
<text text-anchor="start" x="599.8" y="-75.8" font-family="Courier,monospace" font-size="9.00"> </text>
<text text-anchor="start" x="495.8" y="-65.8" font-family="Courier,monospace" font-size="9.00"> </text>
<text text-anchor="start" x="537.9" y="-66.4" font-family="Courier,monospace" font-size="7.00">module</text>
<text text-anchor="start" x="599.8" y="-65.8" font-family="Courier,monospace" font-size="9.00"> </text>
</a>
</g>
</g>
<!-- cliopatria_openid&#45;&gt;http_parameters -->
<g id="edge6" class="edge">
<title>cliopatria_openid&#45;&gt;http_parameters</title>
<path fill="none" stroke="black" d="M709.72,-190.83C689.78,-176.68 667.37,-160.7 646.99,-146 625.57,-130.55 601.62,-113.02 582.88,-99.25"/>
<polygon fill="black" stroke="black" points="582.72,-99.13 575.52,-98.8 573.06,-92.02 582.72,-99.13"/>
<g id="a_edge6&#45;label"><a xlink:title="use_module">
<text text-anchor="middle" x="673" y="-138.8" font-family="Courier,monospace" font-size="9.00">use_module</text>
</a>
</g>
</g>
<!-- html_write -->
<g id="node7" class="node">
<title>html_write</title>
<g id="a_node7"><a xlink:title="module">
<polygon fill="gainsboro" stroke="black" stroke-dasharray="5,2" points="723,-92 643,-92 643,-96 631,-96 631,-56 723,-56 723,-92"/>
<polyline fill="none" stroke="black" stroke-dasharray="5,2" points="631,-92 643,-92 "/>
<text text-anchor="start" x="638.8" y="-75.8" font-family="Courier,monospace" font-size="9.00"> </text>
<text text-anchor="start" x="643.99" y="-75.2" font-family="Courier,monospace" font-size="11.00">html_write</text>
<text text-anchor="start" x="709.8" y="-75.8" font-family="Courier,monospace" font-size="9.00"> </text>
<text text-anchor="start" x="638.8" y="-65.8" font-family="Courier,monospace" font-size="9.00"> </text>
<text text-anchor="start" x="664.4" y="-66.4" font-family="Courier,monospace" font-size="7.00">module</text>
<text text-anchor="start" x="709.8" y="-65.8" font-family="Courier,monospace" font-size="9.00"> </text>
</a>
</g>
</g>
<!-- cliopatria_openid&#45;&gt;html_write -->
<g id="edge7" class="edge">
<title>cliopatria_openid&#45;&gt;html_write</title>
<path fill="none" stroke="black" d="M738.31,-190.85C728.78,-176.91 718.49,-161.05 709.99,-146 702.26,-132.32 694.79,-116.51 688.91,-103.29"/>
<polygon fill="black" stroke="black" points="688.79,-103.02 682.73,-99.11 684,-92.02 688.79,-103.02"/>
<g id="a_edge7&#45;label"><a xlink:title="use_module">
<text text-anchor="middle" x="736" y="-138.8" font-family="Courier,monospace" font-size="9.00">use_module</text>
</a>
</g>
</g>
<!-- uri -->
<g id="node8" class="node">
<title>uri</title>
<g id="a_node8"><a xlink:title="module">
<polygon fill="gainsboro" stroke="black" stroke-dasharray="5,2" points="795,-92 753,-92 753,-96 741,-96 741,-56 795,-56 795,-92"/>
<polyline fill="none" stroke="black" stroke-dasharray="5,2" points="741,-92 753,-92 "/>
<text text-anchor="start" x="750.8" y="-75.8" font-family="Courier,monospace" font-size="9.00"> </text>
<text text-anchor="start" x="758.6" y="-75.2" font-family="Courier,monospace" font-size="11.00">uri</text>
<text text-anchor="start" x="780.8" y="-75.8" font-family="Courier,monospace" font-size="9.00"> </text>
<text text-anchor="start" x="750.8" y="-65.8" font-family="Courier,monospace" font-size="9.00"> </text>
<text text-anchor="start" x="755.9" y="-66.4" font-family="Courier,monospace" font-size="7.00">module</text>
<text text-anchor="start" x="780.8" y="-65.8" font-family="Courier,monospace" font-size="9.00"> </text>
</a>
</g>
</g>
<!-- cliopatria_openid&#45;&gt;uri -->
<g id="edge8" class="edge">
<title>cliopatria_openid&#45;&gt;uri</title>
<path fill="none" stroke="black" d="M768,-190.75C768,-163.61 768,-128.75 768,-104.4"/>
<polygon fill="black" stroke="black" points="768,-104.08 764,-98.08 768,-92.08 768,-104.08"/>
<g id="a_edge8&#45;label"><a xlink:title="use_module">
<text text-anchor="middle" x="795" y="-138.8" font-family="Courier,monospace" font-size="9.00">use_module</text>
</a>
</g>
</g>
<!-- swi_option -->
<g id="node9" class="node">
<title>swi_option</title>
<g id="a_node9"><a xlink:title="module">
<polygon fill="gainsboro" stroke="black" stroke-dasharray="5,2" points="905,-92 825,-92 825,-96 813,-96 813,-56 905,-56 905,-92"/>
<polyline fill="none" stroke="black" stroke-dasharray="5,2" points="813,-92 825,-92 "/>
<text text-anchor="start" x="820.8" y="-75.8" font-family="Courier,monospace" font-size="9.00"> </text>
<text text-anchor="start" x="825.99" y="-75.2" font-family="Courier,monospace" font-size="11.00">swi_option</text>
<text text-anchor="start" x="891.8" y="-75.8" font-family="Courier,monospace" font-size="9.00"> </text>
<text text-anchor="start" x="820.8" y="-65.8" font-family="Courier,monospace" font-size="9.00"> </text>
<text text-anchor="start" x="846.4" y="-66.4" font-family="Courier,monospace" font-size="7.00">module</text>
<text text-anchor="start" x="891.8" y="-65.8" font-family="Courier,monospace" font-size="9.00"> </text>
</a>
</g>
</g>
<!-- cliopatria_openid&#45;&gt;swi_option -->
<g id="edge9" class="edge">
<title>cliopatria_openid&#45;&gt;swi_option</title>
<path fill="none" stroke="black" d="M797.68,-190.85C807.21,-176.91 817.5,-161.05 826,-146 833.73,-132.32 841.21,-116.51 847.09,-103.29"/>
<polygon fill="black" stroke="black" points="847.21,-103.02 845.93,-95.92 851.99,-92.02 847.21,-103.02"/>
<g id="a_edge9&#45;label"><a xlink:title="use_module">
<text text-anchor="middle" x="857" y="-138.8" font-family="Courier,monospace" font-size="9.00">use_module</text>
</a>
</g>
</g>
<!-- prolog_debug -->
<g id="node10" class="node">
<title>prolog_debug</title>
<g id="a_node10"><a xlink:title="module">
<polygon fill="gainsboro" stroke="black" stroke-dasharray="5,2" points="1028.5,-92 935.5,-92 935.5,-96 923.5,-96 923.5,-56 1028.5,-56 1028.5,-92"/>
<polyline fill="none" stroke="black" stroke-dasharray="5,2" points="923.5,-92 935.5,-92 "/>
<text text-anchor="start" x="931.8" y="-75.8" font-family="Courier,monospace" font-size="9.00"> </text>
<text text-anchor="start" x="936.89" y="-75.2" font-family="Courier,monospace" font-size="11.00">prolog_debug</text>
<text text-anchor="start" x="1015.8" y="-75.8" font-family="Courier,monospace" font-size="9.00"> </text>
<text text-anchor="start" x="931.8" y="-65.8" font-family="Courier,monospace" font-size="9.00"> </text>
<text text-anchor="start" x="963.9" y="-66.4" font-family="Courier,monospace" font-size="7.00">module</text>
<text text-anchor="start" x="1015.8" y="-65.8" font-family="Courier,monospace" font-size="9.00"> </text>
</a>
</g>
</g>
<!-- cliopatria_openid&#45;&gt;prolog_debug -->
<g id="edge10" class="edge">
<title>cliopatria_openid&#45;&gt;prolog_debug</title>
<path fill="none" stroke="black" d="M826.78,-190.89C846.42,-176.88 868.32,-160.98 888,-146 907.59,-131.1 929.1,-113.76 945.95,-99.95"/>
<polygon fill="black" stroke="black" points="946.02,-99.89 948.11,-92.99 955.29,-92.27 946.02,-99.89"/>
<g id="a_edge10&#45;label"><a xlink:title="use_module">
<text text-anchor="middle" x="924" y="-138.8" font-family="Courier,monospace" font-size="9.00">use_module</text>
</a>
</g>
</g>
<!-- lists -->
<g id="node11" class="node">
<title>lists</title>
<g id="a_node11"><a xlink:title="module">
<polygon fill="gainsboro" stroke="black" stroke-dasharray="5,2" points="1105.5,-92 1058.5,-92 1058.5,-96 1046.5,-96 1046.5,-56 1105.5,-56 1105.5,-92"/>
<polyline fill="none" stroke="black" stroke-dasharray="5,2" points="1046.5,-92 1058.5,-92 "/>
<text text-anchor="start" x="1054.8" y="-75.8" font-family="Courier,monospace" font-size="9.00"> </text>
<text text-anchor="start" x="1060" y="-75.2" font-family="Courier,monospace" font-size="11.00">lists</text>
<text text-anchor="start" x="1092.8" y="-75.8" font-family="Courier,monospace" font-size="9.00"> </text>
<text text-anchor="start" x="1054.8" y="-65.8" font-family="Courier,monospace" font-size="9.00"> </text>
<text text-anchor="start" x="1063.9" y="-66.4" font-family="Courier,monospace" font-size="7.00">module</text>
<text text-anchor="start" x="1092.8" y="-65.8" font-family="Courier,monospace" font-size="9.00"> </text>
</a>
</g>
</g>
<!-- cliopatria_openid&#45;&gt;lists -->
<g id="edge11" class="edge">
<title>cliopatria_openid&#45;&gt;lists</title>
<path fill="none" stroke="black" d="M851.79,-208.7C907.96,-190.44 981.67,-161.19 1038,-120 1044.99,-114.89 1051.51,-108.24 1057.11,-101.62"/>
<polygon fill="black" stroke="black" points="1057.16,-101.56 1057.74,-94.37 1064.6,-92.14 1057.16,-101.56"/>
<g id="a_edge11&#45;label"><a xlink:title="use_module">
<text text-anchor="middle" x="1038" y="-138.8" font-family="Courier,monospace" font-size="9.00">use_module</text>
</a>
</g>
</g>
<!-- error -->
<g id="node12" class="node">
<title>error</title>
<g id="a_node12"><a xlink:title="module">
<polygon fill="gainsboro" stroke="black" stroke-dasharray="5,2" points="1182.5,-92 1135.5,-92 1135.5,-96 1123.5,-96 1123.5,-56 1182.5,-56 1182.5,-92"/>
<polyline fill="none" stroke="black" stroke-dasharray="5,2" points="1123.5,-92 1135.5,-92 "/>
<text text-anchor="start" x="1131.8" y="-75.8" font-family="Courier,monospace" font-size="9.00"> </text>
<text text-anchor="start" x="1137" y="-75.2" font-family="Courier,monospace" font-size="11.00">error</text>
<text text-anchor="start" x="1169.8" y="-75.8" font-family="Courier,monospace" font-size="9.00"> </text>
<text text-anchor="start" x="1131.8" y="-65.8" font-family="Courier,monospace" font-size="9.00"> </text>
<text text-anchor="start" x="1140.9" y="-66.4" font-family="Courier,monospace" font-size="7.00">module</text>
<text text-anchor="start" x="1169.8" y="-65.8" font-family="Courier,monospace" font-size="9.00"> </text>
</a>
</g>
</g>
<!-- cliopatria_openid&#45;&gt;error -->
<g id="edge12" class="edge">
<title>cliopatria_openid&#45;&gt;error</title>
<path fill="none" stroke="black" d="M851.56,-213.75C912.98,-199 997.81,-175.8 1069,-146 1090.66,-136.93 1096.92,-134.98 1115,-120 1121.41,-114.69 1127.58,-108.21 1133.02,-101.84"/>
<polygon fill="black" stroke="black" points="1133.35,-101.43 1134.01,-94.25 1140.9,-92.1 1133.35,-101.43"/>
<g id="a_edge12&#45;label"><a xlink:title="use_module">
<text text-anchor="middle" x="1116" y="-138.8" font-family="Courier,monospace" font-size="9.00">use_module</text>
</a>
</g>
</g>
<!-- httpd_wrapper -->
<g id="node13" class="node">
<title>httpd_wrapper</title>
<g id="a_node13"><a xlink:title="module">
<polygon fill="gainsboro" stroke="black" stroke-dasharray="5,2" points="1311.5,-92 1212.5,-92 1212.5,-96 1200.5,-96 1200.5,-56 1311.5,-56 1311.5,-92"/>
<polyline fill="none" stroke="black" stroke-dasharray="5,2" points="1200.5,-92 1212.5,-92 "/>
<text text-anchor="start" x="1208.8" y="-75.8" font-family="Courier,monospace" font-size="9.00"> </text>
<text text-anchor="start" x="1213.59" y="-75.2" font-family="Courier,monospace" font-size="11.00">httpd_wrapper</text>
<text text-anchor="start" x="1298.8" y="-75.8" font-family="Courier,monospace" font-size="9.00"> </text>
<text text-anchor="start" x="1208.8" y="-65.8" font-family="Courier,monospace" font-size="9.00"> </text>
<text text-anchor="start" x="1243.9" y="-66.4" font-family="Courier,monospace" font-size="7.00">module</text>
<text text-anchor="start" x="1298.8" y="-65.8" font-family="Courier,monospace" font-size="9.00"> </text>
</a>
</g>
</g>
<!-- cliopatria_openid&#45;&gt;httpd_wrapper -->
<g id="edge13" class="edge">
<title>cliopatria_openid&#45;&gt;httpd_wrapper</title>
<path fill="none" stroke="black" d="M851.83,-220.41C930.08,-207.87 1049.16,-184.35 1147,-146 1175.73,-134.74 1204.84,-115.27 1225.75,-99.57"/>
<polygon fill="black" stroke="black" points="1225.8,-99.53 1228.12,-92.7 1235.31,-92.21 1225.8,-99.53"/>
<g id="a_edge13&#45;label"><a xlink:title="use_module">
<text text-anchor="middle" x="1193" y="-138.8" font-family="Courier,monospace" font-size="9.00">use_module</text>
</a>
</g>
</g>
<!-- http -->
<g id="node14" class="node">
<title>http</title>
<ellipse fill="white" stroke="black" cx="1359" cy="-74" rx="27" ry="18"/>
<text text-anchor="middle" x="1359" y="-71.3" font-family="Courier,monospace" font-size="9.00">http</text>
</g>
<!-- cliopatria_openid&#45;&gt;http -->
<g id="edge1" class="edge">
<title>cliopatria_openid&#45;&gt;http</title>
<path fill="none" stroke="black" d="M851.53,-217.88C943.22,-202 1094.61,-174.66 1224,-146 1269.68,-135.88 1287.23,-146.18 1326,-120 1333.62,-114.86 1340.12,-107.35 1345.29,-99.93"/>
<polygon fill="black" stroke="black" points="1353.68,-93.29 1345.35,-99.84 1347.78,-89.52 1353.68,-93.29"/>
<g id="a_edge1&#45;label"><a xlink:title="provides">
<text text-anchor="middle" x="1309.6" y="-138.8" font-family="Courier,monospace" font-size="9.00">provides</text>
</a>
</g>
</g>
</g>
</svg>
