<?xml version="1.0" encoding="UTF-8" standalone="no"?>
<!DOCTYPE svg PUBLIC "-//W3C//DTD SVG 1.1//EN"
 "http://www.w3.org/Graphics/SVG/1.1/DTD/svg11.dtd">
<!-- Generated by graphviz version 2.41.20190410.0829 (20190410.0829)
 -->
<!-- Title: parms.pl Pages: 1 -->
<svg width="823pt" height="481pt"
 viewBox="72.00 72.00 751.00 409.00" xmlns="http://www.w3.org/2000/svg" xmlns:xlink="http://www.w3.org/1999/xlink">
<g id="graph0" class="graph" transform="scale(1 1) rotate(0) translate(76 405)">
<title>parms.pl</title>
<polygon fill="white" stroke="transparent" points="-4,4 -4,-333 675,-333 675,4 -4,4"/>
<text text-anchor="start" x="8" y="-16" font-family="Courier,monospace" font-size="10.00" fill="#8b8989">ClioPatria &#45; an RDF application platform</text>
<text text-anchor="start" x="8" y="-6" font-family="Courier,monospace" font-size="10.00" fill="#8b8989">Generated on 2019/04/17, 13:04</text>
<g id="clust1" class="cluster">
<title>cluster_file_/Users/pmoura/ClioPatria/parms.pl</title>
<g id="a_clust1"><a xlink:href="https://github.com/ClioPatria/ClioPatria/tree/add57aa2039eed4033cf96e96c293b2052e88f41/parms.pl" xlink:title="https://github.com/ClioPatria/ClioPatria/tree/add57aa2039eed4033cf96e96c293b2052e88f41/parms.pl">
<path fill="snow" stroke="#8b8989" d="M20,-36C20,-36 651,-36 651,-36 657,-36 663,-42 663,-48 663,-48 663,-309 663,-309 663,-315 657,-321 651,-321 651,-321 20,-321 20,-321 14,-321 8,-315 8,-309 8,-309 8,-48 8,-48 8,-42 14,-36 20,-36"/>
<text text-anchor="middle" x="40" y="-309" font-family="Courier,monospace" font-size="10.00" fill="#8b8989">parms.pl</text>
</a>
</g>
</g>
<g id="clust2" class="cluster">
<title>cluster_other</title>
<g id="a_clust2"><a xlink:title="(external entities)">
<path fill="white" stroke="#8b8989" d="M30,-46C30,-46 505,-46 505,-46 511,-46 517,-52 517,-58 517,-58 517,-108 517,-108 517,-114 511,-120 505,-120 505,-120 30,-120 30,-120 24,-120 18,-114 18,-108 18,-108 18,-58 18,-58 18,-52 24,-46 30,-46"/>
<text text-anchor="middle" x="83.01" y="-108" font-family="Courier,monospace" font-size="10.00" fill="#8b8989">(external entities)</text>
</a>
</g>
</g>
<!-- cp_parms -->
<g id="node1" class="node">
<title>cp_parms</title>
<g id="a_node1"><a xlink:title="module">
<polygon fill="gainsboro" stroke="black" points="450,-293 290,-293 290,-297 278,-297 278,-191 450,-191 450,-293"/>
<polyline fill="none" stroke="black" points="278,-293 290,-293 "/>
<g id="a_node1_0"><a xlink:href="cp_parms_module_xref_diagram.svg" xlink:title="Zoom">
<image xlink:href="zoom.png" width="11px" height="11px" preserveAspectRatio="xMinYMin meet" x="286" y="-289"/>
</a>
</g>
<text text-anchor="start" x="288.8" y="-269.8" font-family="Courier,monospace" font-size="9.00"> </text>
<text text-anchor="start" x="340.6" y="-269.2" font-family="Courier,monospace" font-size="11.00">cp_parms</text>
<text text-anchor="start" x="436.8" y="-269.8" font-family="Courier,monospace" font-size="9.00"> </text>
<text text-anchor="start" x="288.8" y="-259.8" font-family="Courier,monospace" font-size="9.00"> </text>
<text text-anchor="start" x="354.4" y="-260.4" font-family="Courier,monospace" font-size="7.00">module</text>
<text text-anchor="start" x="436.8" y="-259.8" font-family="Courier,monospace" font-size="9.00"> </text>
<text text-anchor="start" x="288.8" y="-250.8" font-family="Courier,monospace" font-size="9.00"> </text>
<text text-anchor="start" x="288.8" y="-241.8" font-family="Courier,monospace" font-size="9.00"> </text>
<text text-anchor="start" x="304.89" y="-241.8" font-family="Courier,monospace" font-size="9.00">user:file_search_path/2</text>
<text text-anchor="start" x="436.8" y="-241.8" font-family="Courier,monospace" font-size="9.00"> </text>
<text text-anchor="start" x="288.8" y="-232.8" font-family="Courier,monospace" font-size="9.00"> </text>
<text text-anchor="start" x="326.49" y="-232.8" font-family="Courier,monospace" font-size="9.00">http:location/3</text>
<text text-anchor="start" x="436.8" y="-232.8" font-family="Courier,monospace" font-size="9.00"> </text>
<text text-anchor="start" x="288.8" y="-223.8" font-family="Courier,monospace" font-size="9.00"> </text>
<text text-anchor="start" x="323.79" y="-223.8" font-family="Courier,monospace" font-size="9.00">error:has_type/2</text>
<text text-anchor="start" x="436.8" y="-223.8" font-family="Courier,monospace" font-size="9.00"> </text>
<text text-anchor="start" x="288.8" y="-214.8" font-family="Courier,monospace" font-size="9.00"> </text>
<text text-anchor="start" x="304.89" y="-214.8" font-family="Courier,monospace" font-size="9.00">settings:eval_default/3</text>
<text text-anchor="start" x="436.8" y="-214.8" font-family="Courier,monospace" font-size="9.00"> </text>
<text text-anchor="start" x="288.8" y="-205.8" font-family="Courier,monospace" font-size="9.00"> </text>
<text text-anchor="start" x="304.89" y="-205.8" font-family="Courier,monospace" font-size="9.00">settings:convert_text/3</text>
<text text-anchor="start" x="436.8" y="-205.8" font-family="Courier,monospace" font-size="9.00"> </text>
<text text-anchor="start" x="288.8" y="-196.8" font-family="Courier,monospace" font-size="9.00"> </text>
<text text-anchor="start" x="296.79" y="-196.8" font-family="Courier,monospace" font-size="9.00">http_settings:input_item/5</text>
<text text-anchor="start" x="436.8" y="-196.8" font-family="Courier,monospace" font-size="9.00"> </text>
</a>
</g>
</g>
<!-- error -->
<g id="node2" class="node">
<title>error</title>
<g id="a_node2"><a xlink:title="module">
<polygon fill="gainsboro" stroke="black" stroke-dasharray="5,2" points="87.5,-92 40.5,-92 40.5,-96 28.5,-96 28.5,-56 87.5,-56 87.5,-92"/>
<polyline fill="none" stroke="black" stroke-dasharray="5,2" points="28.5,-92 40.5,-92 "/>
<text text-anchor="start" x="36.8" y="-75.8" font-family="Courier,monospace" font-size="9.00"> </text>
<text text-anchor="start" x="42" y="-75.2" font-family="Courier,monospace" font-size="11.00">error</text>
<text text-anchor="start" x="74.8" y="-75.8" font-family="Courier,monospace" font-size="9.00"> </text>
<text text-anchor="start" x="36.8" y="-65.8" font-family="Courier,monospace" font-size="9.00"> </text>
<text text-anchor="start" x="45.9" y="-66.4" font-family="Courier,monospace" font-size="7.00">module</text>
<text text-anchor="start" x="74.8" y="-65.8" font-family="Courier,monospace" font-size="9.00"> </text>
</a>
</g>
</g>
<!-- cp_parms&#45;&gt;error -->
<g id="edge1" class="edge">
<title>cp_parms&#45;&gt;error</title>
<path fill="none" stroke="black" d="M277.84,-213.29C222.52,-192.91 151,-161.53 96,-120 88.61,-114.42 81.69,-107.16 75.84,-100.1"/>
<polygon fill="black" stroke="black" points="72.24,-89.86 75.67,-99.88 66.74,-94.18 72.24,-89.86"/>
<g id="a_edge1&#45;label"><a xlink:title="provides">
<text text-anchor="middle" x="149.6" y="-138.8" font-family="Courier,monospace" font-size="9.00">provides</text>
</a>
</g>
</g>
<!-- http_settings -->
<g id="node3" class="node">
<title>http_settings</title>
<g id="a_node3"><a xlink:title="module">
<polygon fill="gainsboro" stroke="black" stroke-dasharray="5,2" points="216.5,-92 117.5,-92 117.5,-96 105.5,-96 105.5,-56 216.5,-56 216.5,-92"/>
<polyline fill="none" stroke="black" stroke-dasharray="5,2" points="105.5,-92 117.5,-92 "/>
<text text-anchor="start" x="113.8" y="-75.8" font-family="Courier,monospace" font-size="9.00"> </text>
<text text-anchor="start" x="118.59" y="-75.2" font-family="Courier,monospace" font-size="11.00">http_settings</text>
<text text-anchor="start" x="203.8" y="-75.8" font-family="Courier,monospace" font-size="9.00"> </text>
<text text-anchor="start" x="113.8" y="-65.8" font-family="Courier,monospace" font-size="9.00"> </text>
<text text-anchor="start" x="148.9" y="-66.4" font-family="Courier,monospace" font-size="7.00">module</text>
<text text-anchor="start" x="203.8" y="-65.8" font-family="Courier,monospace" font-size="9.00"> </text>
</a>
</g>
</g>
<!-- cp_parms&#45;&gt;http_settings -->
<g id="edge3" class="edge">
<title>cp_parms&#45;&gt;http_settings</title>
<path fill="none" stroke="black" d="M302.82,-190.97C265.26,-160.25 218.9,-122.35 189.63,-98.41"/>
<polygon fill="black" stroke="black" points="184.07,-89.34 189.59,-98.38 179.64,-94.76 184.07,-89.34"/>
<g id="a_edge3&#45;label"><a xlink:title="provides">
<text text-anchor="middle" x="265.6" y="-138.8" font-family="Courier,monospace" font-size="9.00">provides</text>
</a>
</g>
</g>
<!-- settings -->
<g id="node4" class="node">
<title>settings</title>
<g id="a_node4"><a xlink:title="module">
<polygon fill="gainsboro" stroke="black" stroke-dasharray="5,2" points="313,-92 247,-92 247,-96 235,-96 235,-56 313,-56 313,-92"/>
<polyline fill="none" stroke="black" stroke-dasharray="5,2" points="235,-92 247,-92 "/>
<text text-anchor="start" x="242.8" y="-75.8" font-family="Courier,monospace" font-size="9.00"> </text>
<text text-anchor="start" x="247.6" y="-75.2" font-family="Courier,monospace" font-size="11.00">settings</text>
<text text-anchor="start" x="299.8" y="-75.8" font-family="Courier,monospace" font-size="9.00"> </text>
<text text-anchor="start" x="242.8" y="-65.8" font-family="Courier,monospace" font-size="9.00"> </text>
<text text-anchor="start" x="261.4" y="-66.4" font-family="Courier,monospace" font-size="7.00">module</text>
<text text-anchor="start" x="299.8" y="-65.8" font-family="Courier,monospace" font-size="9.00"> </text>
</a>
</g>
</g>
<!-- cp_parms&#45;&gt;settings -->
<g id="edge4" class="edge">
<title>cp_parms&#45;&gt;settings</title>
<path fill="none" stroke="black" d="M336.75,-190.74C320.68,-161.09 301,-124.8 288.01,-100.85"/>
<polygon fill="black" stroke="black" points="286.3,-90.34 287.99,-100.8 280.14,-93.67 286.3,-90.34"/>
<g id="a_edge4&#45;label"><a xlink:title="provides">
<text text-anchor="middle" x="331.6" y="-138.8" font-family="Courier,monospace" font-size="9.00">provides</text>
</a>
</g>
</g>
<!-- rdf_db -->
<g id="node5" class="node">
<title>rdf_db</title>
<g id="a_node5"><a xlink:title="module">
<polygon fill="gainsboro" stroke="black" stroke-dasharray="5,2" points="396.5,-92 343.5,-92 343.5,-96 331.5,-96 331.5,-56 396.5,-56 396.5,-92"/>
<polyline fill="none" stroke="black" stroke-dasharray="5,2" points="331.5,-92 343.5,-92 "/>
<text text-anchor="start" x="339.8" y="-75.8" font-family="Courier,monospace" font-size="9.00"> </text>
<text text-anchor="start" x="344.7" y="-75.2" font-family="Courier,monospace" font-size="11.00">rdf_db</text>
<text text-anchor="start" x="383.8" y="-75.8" font-family="Courier,monospace" font-size="9.00"> </text>
<text text-anchor="start" x="339.8" y="-65.8" font-family="Courier,monospace" font-size="9.00"> </text>
<text text-anchor="start" x="351.9" y="-66.4" font-family="Courier,monospace" font-size="7.00">module</text>
<text text-anchor="start" x="383.8" y="-65.8" font-family="Courier,monospace" font-size="9.00"> </text>
</a>
</g>
</g>
<!-- cp_parms&#45;&gt;rdf_db -->
<g id="edge6" class="edge">
<title>cp_parms&#45;&gt;rdf_db</title>
<path fill="none" stroke="black" d="M364,-190.74C364,-162.4 364,-127.99 364,-104.1"/>
<polygon fill="black" stroke="black" points="364,-104 360,-98 364,-92 364,-104"/>
<g id="a_edge6&#45;label"><a xlink:title="use_module">
<text text-anchor="middle" x="391" y="-138.8" font-family="Courier,monospace" font-size="9.00">use_module</text>
</a>
</g>
</g>
<!-- html_write -->
<g id="node6" class="node">
<title>html_write</title>
<g id="a_node6"><a xlink:title="module">
<polygon fill="gainsboro" stroke="black" stroke-dasharray="5,2" points="507,-92 427,-92 427,-96 415,-96 415,-56 507,-56 507,-92"/>
<polyline fill="none" stroke="black" stroke-dasharray="5,2" points="415,-92 427,-92 "/>
<text text-anchor="start" x="422.8" y="-75.8" font-family="Courier,monospace" font-size="9.00"> </text>
<text text-anchor="start" x="427.99" y="-75.2" font-family="Courier,monospace" font-size="11.00">html_write</text>
<text text-anchor="start" x="493.8" y="-75.8" font-family="Courier,monospace" font-size="9.00"> </text>
<text text-anchor="start" x="422.8" y="-65.8" font-family="Courier,monospace" font-size="9.00"> </text>
<text text-anchor="start" x="448.4" y="-66.4" font-family="Courier,monospace" font-size="7.00">module</text>
<text text-anchor="start" x="493.8" y="-65.8" font-family="Courier,monospace" font-size="9.00"> </text>
</a>
</g>
</g>
<!-- cp_parms&#45;&gt;html_write -->
<g id="edge7" class="edge">
<title>cp_parms&#45;&gt;html_write</title>
<path fill="none" stroke="black" d="M395.14,-190.97C403.96,-176.54 413.47,-160.71 422,-146 430.18,-131.88 438.96,-115.98 446.11,-102.81"/>
<polygon fill="black" stroke="black" points="446.22,-102.61 445.55,-95.43 451.92,-92.05 446.22,-102.61"/>
<g id="a_edge7&#45;label"><a xlink:title="use_module">
<text text-anchor="middle" x="453" y="-138.8" font-family="Courier,monospace" font-size="9.00">use_module</text>
</a>
</g>
</g>
<!-- http -->
<g id="node7" class="node">
<title>http</title>
<ellipse fill="white" stroke="black" cx="554" cy="-74" rx="27" ry="18"/>
<text text-anchor="middle" x="554" y="-71.3" font-family="Courier,monospace" font-size="9.00">http</text>
</g>
<!-- cp_parms&#45;&gt;http -->
<g id="edge2" class="edge">
<title>cp_parms&#45;&gt;http</title>
<path fill="none" stroke="black" d="M437.88,-190.77C465.4,-170.38 496,-145.61 521,-120 527.09,-113.76 532.98,-106.35 538.05,-99.36"/>
<polygon fill="black" stroke="black" points="546.87,-92.85 538.27,-99.04 541.13,-88.84 546.87,-92.85"/>
<g id="a_edge2&#45;label"><a xlink:title="provides">
<text text-anchor="middle" x="522.6" y="-138.8" font-family="Courier,monospace" font-size="9.00">provides</text>
</a>
</g>
</g>
<!-- user -->
<g id="node8" class="node">
<title>user</title>
<ellipse fill="white" stroke="black" cx="626" cy="-74" rx="27" ry="18"/>
<text text-anchor="middle" x="626" y="-71.3" font-family="Courier,monospace" font-size="9.00">user</text>
</g>
<!-- cp_parms&#45;&gt;user -->
<g id="edge5" class="edge">
<title>cp_parms&#45;&gt;user</title>
<path fill="none" stroke="black" d="M450.17,-206.48C495.04,-185.78 548.95,-156.38 590,-120 597,-113.8 603.68,-106.13 609.35,-98.89"/>
<polygon fill="black" stroke="black" points="618.29,-92.8 609.49,-98.7 612.7,-88.6 618.29,-92.8"/>
<g id="a_edge5&#45;label"><a xlink:title="provides">
<text text-anchor="middle" x="589.6" y="-138.8" font-family="Courier,monospace" font-size="9.00">provides</text>
</a>
</g>
</g>
</g>
</svg>
