<?xml version="1.0" encoding="UTF-8" standalone="no"?>
<!DOCTYPE svg PUBLIC "-//W3C//DTD SVG 1.1//EN"
 "http://www.w3.org/Graphics/SVG/1.1/DTD/svg11.dtd">
<!-- Generated by graphviz version 2.41.20190410.0829 (20190410.0829)
 -->
<!-- Title: preferences.pl Pages: 1 -->
<svg width="462pt" height="436pt"
 viewBox="72.00 72.00 390.00 364.00" xmlns="http://www.w3.org/2000/svg" xmlns:xlink="http://www.w3.org/1999/xlink">
<g id="graph0" class="graph" transform="scale(1 1) rotate(0) translate(76 360)">
<title>preferences.pl</title>
<polygon fill="white" stroke="transparent" points="-4,4 -4,-288 314,-288 314,4 -4,4"/>
<text text-anchor="start" x="8" y="-16" font-family="Courier,monospace" font-size="10.00" fill="#8b8989">ClioPatria &#45; an RDF application platform</text>
<text text-anchor="start" x="8" y="-6" font-family="Courier,monospace" font-size="10.00" fill="#8b8989">Generated on 2019/04/17, 13:04</text>
<g id="clust1" class="cluster">
<title>cluster_file_/Users/pmoura/ClioPatria/user/preferences.pl</title>
<g id="a_clust1"><a xlink:href="https://github.com/ClioPatria/ClioPatria/tree/add57aa2039eed4033cf96e96c293b2052e88f41/user/preferences.pl" xlink:title="https://github.com/ClioPatria/ClioPatria/tree/add57aa2039eed4033cf96e96c293b2052e88f41/user/preferences.pl">
<path fill="snow" stroke="#8b8989" d="M20,-36C20,-36 290,-36 290,-36 296,-36 302,-42 302,-48 302,-48 302,-264 302,-264 302,-270 296,-276 290,-276 290,-276 20,-276 20,-276 14,-276 8,-270 8,-264 8,-264 8,-48 8,-48 8,-42 14,-36 20,-36"/>
<text text-anchor="middle" x="58.01" y="-264" font-family="Courier,monospace" font-size="10.00" fill="#8b8989">preferences.pl</text>
</a>
</g>
</g>
<g id="clust2" class="cluster">
<title>cluster_other</title>
<g id="a_clust2"><a xlink:title="(external entities)">
<path fill="white" stroke="#8b8989" d="M30,-46C30,-46 280,-46 280,-46 286,-46 292,-52 292,-58 292,-58 292,-108 292,-108 292,-114 286,-120 280,-120 280,-120 30,-120 30,-120 24,-120 18,-114 18,-108 18,-108 18,-58 18,-58 18,-52 24,-46 30,-46"/>
<text text-anchor="middle" x="83.01" y="-108" font-family="Courier,monospace" font-size="10.00" fill="#8b8989">(external entities)</text>
</a>
</g>
</g>
<!-- user_preferences -->
<g id="node1" class="node">
<title>user_preferences</title>
<g id="a_node1"><a xlink:title="module">
<polygon fill="gainsboro" stroke="black" points="226.5,-248 101.5,-248 101.5,-252 89.5,-252 89.5,-191 226.5,-191 226.5,-248"/>
<polyline fill="none" stroke="black" points="89.5,-248 101.5,-248 "/>
<g id="a_node1_0"><a xlink:href="user_preferences_module_xref_diagram.svg" xlink:title="Zoom">
<image xlink:href="zoom.png" width="11px" height="11px" preserveAspectRatio="xMinYMin meet" x="98" y="-243.5"/>
</a>
</g>
<text text-anchor="start" x="100.8" y="-224.3" font-family="Courier,monospace" font-size="9.00"> </text>
<text text-anchor="start" x="108.69" y="-223.7" font-family="Courier,monospace" font-size="11.00">user_preferences</text>
<text text-anchor="start" x="213.8" y="-224.3" font-family="Courier,monospace" font-size="9.00"> </text>
<text text-anchor="start" x="100.8" y="-214.3" font-family="Courier,monospace" font-size="9.00"> </text>
<text text-anchor="start" x="148.9" y="-214.9" font-family="Courier,monospace" font-size="7.00">module</text>
<text text-anchor="start" x="213.8" y="-214.3" font-family="Courier,monospace" font-size="9.00"> </text>
<text text-anchor="start" x="100.8" y="-205.3" font-family="Courier,monospace" font-size="9.00"> </text>
<text text-anchor="start" x="100.8" y="-196.3" font-family="Courier,monospace" font-size="9.00"> </text>
<text text-anchor="start" x="115.59" y="-196.3" font-family="Courier,monospace" font-size="9.00">user_preference/2</text>
<text text-anchor="start" x="213.8" y="-196.3" font-family="Courier,monospace" font-size="9.00"> </text>
</a>
</g>
</g>
<!-- rdf_db -->
<g id="node2" class="node">
<title>rdf_db</title>
<g id="a_node2"><a xlink:title="module">
<polygon fill="gainsboro" stroke="black" stroke-dasharray="5,2" points="93.5,-92 40.5,-92 40.5,-96 28.5,-96 28.5,-56 93.5,-56 93.5,-92"/>
<polyline fill="none" stroke="black" stroke-dasharray="5,2" points="28.5,-92 40.5,-92 "/>
<text text-anchor="start" x="36.8" y="-75.8" font-family="Courier,monospace" font-size="9.00"> </text>
<text text-anchor="start" x="41.7" y="-75.2" font-family="Courier,monospace" font-size="11.00">rdf_db</text>
<text text-anchor="start" x="80.8" y="-75.8" font-family="Courier,monospace" font-size="9.00"> </text>
<text text-anchor="start" x="36.8" y="-65.8" font-family="Courier,monospace" font-size="9.00"> </text>
<text text-anchor="start" x="48.9" y="-66.4" font-family="Courier,monospace" font-size="7.00">module</text>
<text text-anchor="start" x="80.8" y="-65.8" font-family="Courier,monospace" font-size="9.00"> </text>
</a>
</g>
</g>
<!-- user_preferences&#45;&gt;rdf_db -->
<g id="edge1" class="edge">
<title>user_preferences&#45;&gt;rdf_db</title>
<path fill="none" stroke="black" d="M133.96,-190.78C123.03,-177.62 110.28,-161.42 99.99,-146 90.87,-132.34 81.96,-116.37 74.96,-103.03"/>
<polygon fill="black" stroke="black" points="74.84,-102.79 68.54,-99.29 69.35,-92.12 74.84,-102.79"/>
<g id="a_edge1&#45;label"><a xlink:title="use_module">
<text text-anchor="middle" x="126" y="-138.8" font-family="Courier,monospace" font-size="9.00">use_module</text>
</a>
</g>
</g>
<!-- cliopatria -->
<g id="node3" class="node">
<title>cliopatria</title>
<g id="a_node3"><a xlink:title="module">
<polygon fill="gainsboro" stroke="black" stroke-dasharray="5,2" points="204,-92 124,-92 124,-96 112,-96 112,-56 204,-56 204,-92"/>
<polyline fill="none" stroke="black" stroke-dasharray="5,2" points="112,-92 124,-92 "/>
<text text-anchor="start" x="119.8" y="-75.8" font-family="Courier,monospace" font-size="9.00"> </text>
<text text-anchor="start" x="124.99" y="-75.2" font-family="Courier,monospace" font-size="11.00">cliopatria</text>
<text text-anchor="start" x="190.8" y="-75.8" font-family="Courier,monospace" font-size="9.00"> </text>
<text text-anchor="start" x="119.8" y="-65.8" font-family="Courier,monospace" font-size="9.00"> </text>
<text text-anchor="start" x="145.4" y="-66.4" font-family="Courier,monospace" font-size="7.00">module</text>
<text text-anchor="start" x="190.8" y="-65.8" font-family="Courier,monospace" font-size="9.00"> </text>
</a>
</g>
</g>
<!-- user_preferences&#45;&gt;cliopatria -->
<g id="edge2" class="edge">
<title>user_preferences&#45;&gt;cliopatria</title>
<path fill="none" stroke="black" d="M158,-190.83C158,-166 158,-129.68 158,-104.34"/>
<polygon fill="black" stroke="black" points="158,-104.22 154,-98.22 158,-92.22 158,-104.22"/>
<g id="a_edge2&#45;label"><a xlink:title="use_module">
<text text-anchor="middle" x="185" y="-138.8" font-family="Courier,monospace" font-size="9.00">use_module</text>
</a>
</g>
</g>
<!-- lists -->
<g id="node4" class="node">
<title>lists</title>
<g id="a_node4"><a xlink:title="module">
<polygon fill="gainsboro" stroke="black" stroke-dasharray="5,2" points="281.5,-92 234.5,-92 234.5,-96 222.5,-96 222.5,-56 281.5,-56 281.5,-92"/>
<polyline fill="none" stroke="black" stroke-dasharray="5,2" points="222.5,-92 234.5,-92 "/>
<text text-anchor="start" x="230.8" y="-75.8" font-family="Courier,monospace" font-size="9.00"> </text>
<text text-anchor="start" x="236" y="-75.2" font-family="Courier,monospace" font-size="11.00">lists</text>
<text text-anchor="start" x="268.8" y="-75.8" font-family="Courier,monospace" font-size="9.00"> </text>
<text text-anchor="start" x="230.8" y="-65.8" font-family="Courier,monospace" font-size="9.00"> </text>
<text text-anchor="start" x="239.9" y="-66.4" font-family="Courier,monospace" font-size="7.00">module</text>
<text text-anchor="start" x="268.8" y="-65.8" font-family="Courier,monospace" font-size="9.00"> </text>
</a>
</g>
</g>
<!-- user_preferences&#45;&gt;lists -->
<g id="edge3" class="edge">
<title>user_preferences&#45;&gt;lists</title>
<path fill="none" stroke="black" d="M181.2,-190.72C191.75,-177.54 204.06,-161.35 214,-146 222.87,-132.29 231.56,-116.32 238.38,-102.99"/>
<polygon fill="black" stroke="black" points="238.47,-102.81 237.59,-95.66 243.86,-92.09 238.47,-102.81"/>
<g id="a_edge3&#45;label"><a xlink:title="use_module">
<text text-anchor="middle" x="245" y="-138.8" font-family="Courier,monospace" font-size="9.00">use_module</text>
</a>
</g>
</g>
</g>
</svg>
