<?xml version="1.0" encoding="UTF-8" standalone="no"?>
<!DOCTYPE svg PUBLIC "-//W3C//DTD SVG 1.1//EN"
 "http://www.w3.org/Graphics/SVG/1.1/DTD/svg11.dtd">
<!-- Generated by graphviz version 2.41.20190410.0829 (20190410.0829)
 -->
<!-- Title: query.pl Pages: 1 -->
<svg width="856pt" height="463pt"
 viewBox="72.00 72.00 784.00 391.00" xmlns="http://www.w3.org/2000/svg" xmlns:xlink="http://www.w3.org/1999/xlink">
<g id="graph0" class="graph" transform="scale(1 1) rotate(0) translate(76 387)">
<title>query.pl</title>
<polygon fill="white" stroke="transparent" points="-4,4 -4,-315 708,-315 708,4 -4,4"/>
<text text-anchor="start" x="8" y="-16" font-family="Courier,monospace" font-size="10.00" fill="#8b8989">ClioPatria &#45; an RDF application platform</text>
<text text-anchor="start" x="8" y="-6" font-family="Courier,monospace" font-size="10.00" fill="#8b8989">Generated on 2019/04/17, 13:04</text>
<g id="clust1" class="cluster">
<title>cluster_file_/Users/pmoura/ClioPatria/components/query.pl</title>
<g id="a_clust1"><a xlink:href="https://github.com/ClioPatria/ClioPatria/tree/add57aa2039eed4033cf96e96c293b2052e88f41/components/query.pl" xlink:title="https://github.com/ClioPatria/ClioPatria/tree/add57aa2039eed4033cf96e96c293b2052e88f41/components/query.pl">
<path fill="snow" stroke="#8b8989" d="M20,-36C20,-36 684,-36 684,-36 690,-36 696,-42 696,-48 696,-48 696,-291 696,-291 696,-297 690,-303 684,-303 684,-303 20,-303 20,-303 14,-303 8,-297 8,-291 8,-291 8,-48 8,-48 8,-42 14,-36 20,-36"/>
<text text-anchor="middle" x="40" y="-291" font-family="Courier,monospace" font-size="10.00" fill="#8b8989">query.pl</text>
</a>
</g>
</g>
<g id="clust2" class="cluster">
<title>cluster_other</title>
<g id="a_clust2"><a xlink:title="(external entities)">
<path fill="white" stroke="#8b8989" d="M30,-46C30,-46 674,-46 674,-46 680,-46 686,-52 686,-58 686,-58 686,-108 686,-108 686,-114 680,-120 674,-120 674,-120 30,-120 30,-120 24,-120 18,-114 18,-108 18,-108 18,-58 18,-58 18,-52 24,-46 30,-46"/>
<text text-anchor="middle" x="83.01" y="-108" font-family="Courier,monospace" font-size="10.00" fill="#8b8989">(external entities)</text>
</a>
</g>
</g>
<!-- rdfql_queries -->
<g id="node1" class="node">
<title>rdfql_queries</title>
<g id="a_node1"><a xlink:title="module">
<polygon fill="gainsboro" stroke="black" points="412.5,-275 307.5,-275 307.5,-279 295.5,-279 295.5,-191 412.5,-191 412.5,-275"/>
<polyline fill="none" stroke="black" points="295.5,-275 307.5,-275 "/>
<g id="a_node1_0"><a xlink:href="rdfql_queries_module_xref_diagram.svg" xlink:title="Zoom">
<image xlink:href="zoom.png" width="11px" height="11px" preserveAspectRatio="xMinYMin meet" x="304" y="-271"/>
</a>
</g>
<text text-anchor="start" x="306.8" y="-251.8" font-family="Courier,monospace" font-size="9.00"> </text>
<text text-anchor="start" x="314.59" y="-251.2" font-family="Courier,monospace" font-size="11.00">rdfql_queries</text>
<text text-anchor="start" x="399.8" y="-251.8" font-family="Courier,monospace" font-size="9.00"> </text>
<text text-anchor="start" x="306.8" y="-241.8" font-family="Courier,monospace" font-size="9.00"> </text>
<text text-anchor="start" x="344.9" y="-242.4" font-family="Courier,monospace" font-size="7.00">module</text>
<text text-anchor="start" x="399.8" y="-241.8" font-family="Courier,monospace" font-size="9.00"> </text>
<text text-anchor="start" x="306.8" y="-232.8" font-family="Courier,monospace" font-size="9.00"> </text>
<text text-anchor="start" x="306.8" y="-223.8" font-family="Courier,monospace" font-size="9.00"> </text>
<text text-anchor="start" x="319.69" y="-223.8" font-family="Courier,monospace" font-size="9.00">query_script/2</text>
<text text-anchor="start" x="399.8" y="-223.8" font-family="Courier,monospace" font-size="9.00"> </text>
<text text-anchor="start" x="306.8" y="-214.8" font-family="Courier,monospace" font-size="9.00"> </text>
<text text-anchor="start" x="325.09" y="-214.8" font-family="Courier,monospace" font-size="9.00">query_form/3</text>
<text text-anchor="start" x="399.8" y="-214.8" font-family="Courier,monospace" font-size="9.00"> </text>
<text text-anchor="start" x="306.8" y="-205.8" font-family="Courier,monospace" font-size="9.00"> </text>
<text text-anchor="start" x="322.39" y="-205.8" font-family="Courier,monospace" font-size="9.00">store_query/3</text>
<text text-anchor="start" x="399.8" y="-205.8" font-family="Courier,monospace" font-size="9.00"> </text>
<text text-anchor="start" x="306.8" y="-196.8" font-family="Courier,monospace" font-size="9.00"> </text>
<text text-anchor="start" x="319.69" y="-196.8" font-family="Courier,monospace" font-size="9.00">store_recall/4</text>
<text text-anchor="start" x="399.8" y="-196.8" font-family="Courier,monospace" font-size="9.00"> </text>
</a>
</g>
</g>
<!-- html_write -->
<g id="node2" class="node">
<title>html_write</title>
<g id="a_node2"><a xlink:title="module">
<polygon fill="gainsboro" stroke="black" stroke-dasharray="5,2" points="120,-92 40,-92 40,-96 28,-96 28,-56 120,-56 120,-92"/>
<polyline fill="none" stroke="black" stroke-dasharray="5,2" points="28,-92 40,-92 "/>
<text text-anchor="start" x="35.8" y="-75.8" font-family="Courier,monospace" font-size="9.00"> </text>
<text text-anchor="start" x="40.99" y="-75.2" font-family="Courier,monospace" font-size="11.00">html_write</text>
<text text-anchor="start" x="106.8" y="-75.8" font-family="Courier,monospace" font-size="9.00"> </text>
<text text-anchor="start" x="35.8" y="-65.8" font-family="Courier,monospace" font-size="9.00"> </text>
<text text-anchor="start" x="61.4" y="-66.4" font-family="Courier,monospace" font-size="7.00">module</text>
<text text-anchor="start" x="106.8" y="-65.8" font-family="Courier,monospace" font-size="9.00"> </text>
</a>
</g>
</g>
<!-- rdfql_queries&#45;&gt;html_write -->
<g id="edge1" class="edge">
<title>rdfql_queries&#45;&gt;html_write</title>
<path fill="none" stroke="black" d="M295.19,-207.1C248.61,-186.36 182.69,-154.7 129,-120 119.84,-114.08 110.45,-106.88 102.07,-99.99"/>
<polygon fill="black" stroke="black" points="101.96,-99.89 94.79,-99.08 92.79,-92.15 101.96,-99.89"/>
<g id="a_edge1&#45;label"><a xlink:title="use_module">
<text text-anchor="middle" x="197" y="-138.8" font-family="Courier,monospace" font-size="9.00">use_module</text>
</a>
</g>
</g>
<!-- html_basics -->
<g id="node3" class="node">
<title>html_basics</title>
<g id="a_node3"><a xlink:title="module">
<polygon fill="gainsboro" stroke="black" stroke-dasharray="5,2" points="236,-92 150,-92 150,-96 138,-96 138,-56 236,-56 236,-92"/>
<polyline fill="none" stroke="black" stroke-dasharray="5,2" points="138,-92 150,-92 "/>
<text text-anchor="start" x="145.8" y="-75.8" font-family="Courier,monospace" font-size="9.00"> </text>
<text text-anchor="start" x="150.69" y="-75.2" font-family="Courier,monospace" font-size="11.00">html_basics</text>
<text text-anchor="start" x="222.8" y="-75.8" font-family="Courier,monospace" font-size="9.00"> </text>
<text text-anchor="start" x="145.8" y="-65.8" font-family="Courier,monospace" font-size="9.00"> </text>
<text text-anchor="start" x="174.4" y="-66.4" font-family="Courier,monospace" font-size="7.00">module</text>
<text text-anchor="start" x="222.8" y="-65.8" font-family="Courier,monospace" font-size="9.00"> </text>
</a>
</g>
</g>
<!-- rdfql_queries&#45;&gt;html_basics -->
<g id="edge2" class="edge">
<title>rdfql_queries&#45;&gt;html_basics</title>
<path fill="none" stroke="black" d="M310.12,-190.75C279.65,-162.11 240.02,-124.85 214.07,-100.45"/>
<polygon fill="black" stroke="black" points="213.91,-100.3 206.8,-99.1 205.16,-92.08 213.91,-100.3"/>
<g id="a_edge2&#45;label"><a xlink:title="use_module">
<text text-anchor="middle" x="287" y="-138.8" font-family="Courier,monospace" font-size="9.00">use_module</text>
</a>
</g>
</g>
<!-- swi_option -->
<g id="node4" class="node">
<title>swi_option</title>
<g id="a_node4"><a xlink:title="module">
<polygon fill="gainsboro" stroke="black" stroke-dasharray="5,2" points="346,-92 266,-92 266,-96 254,-96 254,-56 346,-56 346,-92"/>
<polyline fill="none" stroke="black" stroke-dasharray="5,2" points="254,-92 266,-92 "/>
<text text-anchor="start" x="261.8" y="-75.8" font-family="Courier,monospace" font-size="9.00"> </text>
<text text-anchor="start" x="266.99" y="-75.2" font-family="Courier,monospace" font-size="11.00">swi_option</text>
<text text-anchor="start" x="332.8" y="-75.8" font-family="Courier,monospace" font-size="9.00"> </text>
<text text-anchor="start" x="261.8" y="-65.8" font-family="Courier,monospace" font-size="9.00"> </text>
<text text-anchor="start" x="287.4" y="-66.4" font-family="Courier,monospace" font-size="7.00">module</text>
<text text-anchor="start" x="332.8" y="-65.8" font-family="Courier,monospace" font-size="9.00"> </text>
</a>
</g>
</g>
<!-- rdfql_queries&#45;&gt;swi_option -->
<g id="edge3" class="edge">
<title>rdfql_queries&#45;&gt;swi_option</title>
<path fill="none" stroke="black" d="M339.81,-190.75C330.39,-163.36 318.26,-128.1 309.88,-103.73"/>
<polygon fill="black" stroke="black" points="309.78,-103.42 304.04,-99.05 305.87,-92.08 309.78,-103.42"/>
<g id="a_edge3&#45;label"><a xlink:title="use_module">
<text text-anchor="middle" x="350" y="-138.8" font-family="Courier,monospace" font-size="9.00">use_module</text>
</a>
</g>
</g>
<!-- cliopatria -->
<g id="node5" class="node">
<title>cliopatria</title>
<g id="a_node5"><a xlink:title="module">
<polygon fill="gainsboro" stroke="black" stroke-dasharray="5,2" points="456,-92 376,-92 376,-96 364,-96 364,-56 456,-56 456,-92"/>
<polyline fill="none" stroke="black" stroke-dasharray="5,2" points="364,-92 376,-92 "/>
<text text-anchor="start" x="371.8" y="-75.8" font-family="Courier,monospace" font-size="9.00"> </text>
<text text-anchor="start" x="376.99" y="-75.2" font-family="Courier,monospace" font-size="11.00">cliopatria</text>
<text text-anchor="start" x="442.8" y="-75.8" font-family="Courier,monospace" font-size="9.00"> </text>
<text text-anchor="start" x="371.8" y="-65.8" font-family="Courier,monospace" font-size="9.00"> </text>
<text text-anchor="start" x="397.4" y="-66.4" font-family="Courier,monospace" font-size="7.00">module</text>
<text text-anchor="start" x="442.8" y="-65.8" font-family="Courier,monospace" font-size="9.00"> </text>
</a>
</g>
</g>
<!-- rdfql_queries&#45;&gt;cliopatria -->
<g id="edge4" class="edge">
<title>rdfql_queries&#45;&gt;cliopatria</title>
<path fill="none" stroke="black" d="M368.71,-190.75C378.53,-163.24 391.18,-127.78 399.87,-103.39"/>
<polygon fill="black" stroke="black" points="399.88,-103.38 398.13,-96.38 403.91,-92.08 399.88,-103.38"/>
<g id="a_edge4&#45;label"><a xlink:title="use_module">
<text text-anchor="middle" x="414" y="-138.8" font-family="Courier,monospace" font-size="9.00">use_module</text>
</a>
</g>
</g>
<!-- settings -->
<g id="node6" class="node">
<title>settings</title>
<g id="a_node6"><a xlink:title="module">
<polygon fill="gainsboro" stroke="black" stroke-dasharray="5,2" points="552,-92 486,-92 486,-96 474,-96 474,-56 552,-56 552,-92"/>
<polyline fill="none" stroke="black" stroke-dasharray="5,2" points="474,-92 486,-92 "/>
<text text-anchor="start" x="481.8" y="-75.8" font-family="Courier,monospace" font-size="9.00"> </text>
<text text-anchor="start" x="486.6" y="-75.2" font-family="Courier,monospace" font-size="11.00">settings</text>
<text text-anchor="start" x="538.8" y="-75.8" font-family="Courier,monospace" font-size="9.00"> </text>
<text text-anchor="start" x="481.8" y="-65.8" font-family="Courier,monospace" font-size="9.00"> </text>
<text text-anchor="start" x="500.4" y="-66.4" font-family="Courier,monospace" font-size="7.00">module</text>
<text text-anchor="start" x="538.8" y="-65.8" font-family="Courier,monospace" font-size="9.00"> </text>
</a>
</g>
</g>
<!-- rdfql_queries&#45;&gt;settings -->
<g id="edge5" class="edge">
<title>rdfql_queries&#45;&gt;settings</title>
<path fill="none" stroke="black" d="M398.39,-190.88C413.35,-176.81 430.04,-160.86 445,-146 459.76,-131.34 475.88,-114.55 488.71,-100.97"/>
<polygon fill="black" stroke="black" points="488.79,-100.89 490,-93.78 497.02,-92.16 488.79,-100.89"/>
<g id="a_edge5&#45;label"><a xlink:title="use_module">
<text text-anchor="middle" x="479" y="-138.8" font-family="Courier,monospace" font-size="9.00">use_module</text>
</a>
</g>
</g>
<!-- http_session -->
<g id="node7" class="node">
<title>http_session</title>
<g id="a_node7"><a xlink:title="module">
<polygon fill="gainsboro" stroke="black" stroke-dasharray="5,2" points="675.5,-92 582.5,-92 582.5,-96 570.5,-96 570.5,-56 675.5,-56 675.5,-92"/>
<polyline fill="none" stroke="black" stroke-dasharray="5,2" points="570.5,-92 582.5,-92 "/>
<text text-anchor="start" x="578.8" y="-75.8" font-family="Courier,monospace" font-size="9.00"> </text>
<text text-anchor="start" x="583.89" y="-75.2" font-family="Courier,monospace" font-size="11.00">http_session</text>
<text text-anchor="start" x="662.8" y="-75.8" font-family="Courier,monospace" font-size="9.00"> </text>
<text text-anchor="start" x="578.8" y="-65.8" font-family="Courier,monospace" font-size="9.00"> </text>
<text text-anchor="start" x="610.9" y="-66.4" font-family="Courier,monospace" font-size="7.00">module</text>
<text text-anchor="start" x="662.8" y="-65.8" font-family="Courier,monospace" font-size="9.00"> </text>
</a>
</g>
</g>
<!-- rdfql_queries&#45;&gt;http_session -->
<g id="edge6" class="edge">
<title>rdfql_queries&#45;&gt;http_session</title>
<path fill="none" stroke="black" d="M412.72,-202.86C454.81,-181.34 512.42,-150.59 561,-120 571,-113.7 581.53,-106.36 591.01,-99.45"/>
<polygon fill="black" stroke="black" points="591.17,-99.33 593.62,-92.54 600.82,-92.19 591.17,-99.33"/>
<g id="a_edge6&#45;label"><a xlink:title="use_module">
<text text-anchor="middle" x="555" y="-138.8" font-family="Courier,monospace" font-size="9.00">use_module</text>
</a>
</g>
</g>
</g>
</svg>
