<?xml version="1.0" encoding="UTF-8" standalone="no"?>
<!DOCTYPE svg PUBLIC "-//W3C//DTD SVG 1.1//EN"
 "http://www.w3.org/Graphics/SVG/1.1/DTD/svg11.dtd">
<!-- Generated by graphviz version 2.41.20190410.0829 (20190410.0829)
 -->
<!-- Title: rdf_abstract.pl Pages: 1 -->
<svg width="1169pt" height="481pt"
 viewBox="72.00 72.00 1097.00 409.00" xmlns="http://www.w3.org/2000/svg" xmlns:xlink="http://www.w3.org/1999/xlink">
<g id="graph0" class="graph" transform="scale(1 1) rotate(0) translate(76 405)">
<title>rdf_abstract.pl</title>
<polygon fill="white" stroke="transparent" points="-4,4 -4,-333 1021,-333 1021,4 -4,4"/>
<text text-anchor="start" x="8" y="-16" font-family="Courier,monospace" font-size="10.00" fill="#8b8989">ClioPatria &#45; an RDF application platform</text>
<text text-anchor="start" x="8" y="-6" font-family="Courier,monospace" font-size="10.00" fill="#8b8989">Generated on 2019/04/17, 13:04</text>
<g id="clust1" class="cluster">
<title>cluster_file_/Users/pmoura/ClioPatria/lib/semweb/rdf_abstract.pl</title>
<g id="a_clust1"><a xlink:href="https://github.com/ClioPatria/ClioPatria/tree/add57aa2039eed4033cf96e96c293b2052e88f41/lib/semweb/rdf_abstract.pl" xlink:title="https://github.com/ClioPatria/ClioPatria/tree/add57aa2039eed4033cf96e96c293b2052e88f41/lib/semweb/rdf_abstract.pl">
<path fill="snow" stroke="#8b8989" d="M20,-36C20,-36 997,-36 997,-36 1003,-36 1009,-42 1009,-48 1009,-48 1009,-309 1009,-309 1009,-315 1003,-321 997,-321 997,-321 20,-321 20,-321 14,-321 8,-315 8,-309 8,-309 8,-48 8,-48 8,-42 14,-36 20,-36"/>
<text text-anchor="middle" x="61.01" y="-309" font-family="Courier,monospace" font-size="10.00" fill="#8b8989">rdf_abstract.pl</text>
</a>
</g>
</g>
<g id="clust2" class="cluster">
<title>cluster_other</title>
<g id="a_clust2"><a xlink:title="(external entities)">
<path fill="white" stroke="#8b8989" d="M30,-46C30,-46 987,-46 987,-46 993,-46 999,-52 999,-58 999,-58 999,-108 999,-108 999,-114 993,-120 987,-120 987,-120 30,-120 30,-120 24,-120 18,-114 18,-108 18,-108 18,-58 18,-58 18,-52 24,-46 30,-46"/>
<text text-anchor="middle" x="83.01" y="-108" font-family="Courier,monospace" font-size="10.00" fill="#8b8989">(external entities)</text>
</a>
</g>
</g>
<!-- rdf_abstract -->
<g id="node1" class="node">
<title>rdf_abstract</title>
<g id="a_node1"><a xlink:title="module">
<polygon fill="gainsboro" stroke="black" points="560,-293 432,-293 432,-297 420,-297 420,-191 560,-191 560,-293"/>
<polyline fill="none" stroke="black" points="420,-293 432,-293 "/>
<g id="a_node1_0"><a xlink:href="rdf_abstract_module_xref_diagram.svg" xlink:title="Zoom">
<image xlink:href="zoom.png" width="11px" height="11px" preserveAspectRatio="xMinYMin meet" x="428" y="-289"/>
</a>
</g>
<text text-anchor="start" x="430.8" y="-269.8" font-family="Courier,monospace" font-size="9.00"> </text>
<text text-anchor="start" x="453.39" y="-269.2" font-family="Courier,monospace" font-size="11.00">rdf_abstract</text>
<text text-anchor="start" x="546.8" y="-269.8" font-family="Courier,monospace" font-size="9.00"> </text>
<text text-anchor="start" x="430.8" y="-259.8" font-family="Courier,monospace" font-size="9.00"> </text>
<text text-anchor="start" x="480.4" y="-260.4" font-family="Courier,monospace" font-size="7.00">module</text>
<text text-anchor="start" x="546.8" y="-259.8" font-family="Courier,monospace" font-size="9.00"> </text>
<text text-anchor="start" x="430.8" y="-250.8" font-family="Courier,monospace" font-size="9.00"> </text>
<text text-anchor="start" x="430.8" y="-241.8" font-family="Courier,monospace" font-size="9.00"> </text>
<text text-anchor="start" x="447.09" y="-241.8" font-family="Courier,monospace" font-size="9.00">graph_resources/2</text>
<text text-anchor="start" x="546.8" y="-241.8" font-family="Courier,monospace" font-size="9.00"> </text>
<text text-anchor="start" x="430.8" y="-232.8" font-family="Courier,monospace" font-size="9.00"> </text>
<text text-anchor="start" x="455.19" y="-232.8" font-family="Courier,monospace" font-size="9.00">bagify_graph/4</text>
<text text-anchor="start" x="546.8" y="-232.8" font-family="Courier,monospace" font-size="9.00"> </text>
<text text-anchor="start" x="430.8" y="-223.8" font-family="Courier,monospace" font-size="9.00"> </text>
<text text-anchor="start" x="449.79" y="-223.8" font-family="Courier,monospace" font-size="9.00">abstract_graph/3</text>
<text text-anchor="start" x="546.8" y="-223.8" font-family="Courier,monospace" font-size="9.00"> </text>
<text text-anchor="start" x="430.8" y="-214.8" font-family="Courier,monospace" font-size="9.00"> </text>
<text text-anchor="start" x="438.99" y="-214.8" font-family="Courier,monospace" font-size="9.00">merge_sameas_graph/3</text>
<text text-anchor="start" x="546.8" y="-214.8" font-family="Courier,monospace" font-size="9.00"> </text>
<text text-anchor="start" x="430.8" y="-205.8" font-family="Courier,monospace" font-size="9.00"> </text>
<text text-anchor="start" x="449.79" y="-205.8" font-family="Courier,monospace" font-size="9.00">minimise_graph/2</text>
<text text-anchor="start" x="546.8" y="-205.8" font-family="Courier,monospace" font-size="9.00"> </text>
<text text-anchor="start" x="430.8" y="-196.8" font-family="Courier,monospace" font-size="9.00"> </text>
<text text-anchor="start" x="447.09" y="-196.8" font-family="Courier,monospace" font-size="9.00">graph_resources/4</text>
<text text-anchor="start" x="546.8" y="-196.8" font-family="Courier,monospace" font-size="9.00"> </text>
</a>
</g>
</g>
<!-- assoc -->
<g id="node2" class="node">
<title>assoc</title>
<g id="a_node2"><a xlink:title="module">
<polygon fill="gainsboro" stroke="black" stroke-dasharray="5,2" points="87.5,-92 40.5,-92 40.5,-96 28.5,-96 28.5,-56 87.5,-56 87.5,-92"/>
<polyline fill="none" stroke="black" stroke-dasharray="5,2" points="28.5,-92 40.5,-92 "/>
<text text-anchor="start" x="36.8" y="-75.8" font-family="Courier,monospace" font-size="9.00"> </text>
<text text-anchor="start" x="42" y="-75.2" font-family="Courier,monospace" font-size="11.00">assoc</text>
<text text-anchor="start" x="74.8" y="-75.8" font-family="Courier,monospace" font-size="9.00"> </text>
<text text-anchor="start" x="36.8" y="-65.8" font-family="Courier,monospace" font-size="9.00"> </text>
<text text-anchor="start" x="45.9" y="-66.4" font-family="Courier,monospace" font-size="7.00">module</text>
<text text-anchor="start" x="74.8" y="-65.8" font-family="Courier,monospace" font-size="9.00"> </text>
</a>
</g>
</g>
<!-- rdf_abstract&#45;&gt;assoc -->
<g id="edge1" class="edge">
<title>rdf_abstract&#45;&gt;assoc</title>
<path fill="none" stroke="black" d="M419.68,-226.33C349.11,-210.51 237.96,-182.59 145.99,-146 123.09,-136.89 116.29,-135.35 97,-120 90.26,-114.64 83.78,-108 78.1,-101.48"/>
<polygon fill="black" stroke="black" points="78.06,-101.44 71.15,-99.36 70.41,-92.19 78.06,-101.44"/>
<g id="a_edge1&#45;label"><a xlink:title="use_module">
<text text-anchor="middle" x="172" y="-138.8" font-family="Courier,monospace" font-size="9.00">use_module</text>
</a>
</g>
</g>
<!-- pairs -->
<g id="node3" class="node">
<title>pairs</title>
<g id="a_node3"><a xlink:title="module">
<polygon fill="gainsboro" stroke="black" stroke-dasharray="5,2" points="164.5,-92 117.5,-92 117.5,-96 105.5,-96 105.5,-56 164.5,-56 164.5,-92"/>
<polyline fill="none" stroke="black" stroke-dasharray="5,2" points="105.5,-92 117.5,-92 "/>
<text text-anchor="start" x="113.8" y="-75.8" font-family="Courier,monospace" font-size="9.00"> </text>
<text text-anchor="start" x="119" y="-75.2" font-family="Courier,monospace" font-size="11.00">pairs</text>
<text text-anchor="start" x="151.8" y="-75.8" font-family="Courier,monospace" font-size="9.00"> </text>
<text text-anchor="start" x="113.8" y="-65.8" font-family="Courier,monospace" font-size="9.00"> </text>
<text text-anchor="start" x="122.9" y="-66.4" font-family="Courier,monospace" font-size="7.00">module</text>
<text text-anchor="start" x="151.8" y="-65.8" font-family="Courier,monospace" font-size="9.00"> </text>
</a>
</g>
</g>
<!-- rdf_abstract&#45;&gt;pairs -->
<g id="edge2" class="edge">
<title>rdf_abstract&#45;&gt;pairs</title>
<path fill="none" stroke="black" d="M419.95,-224.8C352.57,-206.87 250.01,-173.26 174,-120 166.83,-114.98 160.14,-108.36 154.39,-101.74"/>
<polygon fill="black" stroke="black" points="154.25,-101.57 147.37,-99.42 146.7,-92.24 154.25,-101.57"/>
<g id="a_edge2&#45;label"><a xlink:title="use_module">
<text text-anchor="middle" x="239" y="-138.8" font-family="Courier,monospace" font-size="9.00">use_module</text>
</a>
</g>
</g>
<!-- prolog_debug -->
<g id="node4" class="node">
<title>prolog_debug</title>
<g id="a_node4"><a xlink:title="module">
<polygon fill="gainsboro" stroke="black" stroke-dasharray="5,2" points="287.5,-92 194.5,-92 194.5,-96 182.5,-96 182.5,-56 287.5,-56 287.5,-92"/>
<polyline fill="none" stroke="black" stroke-dasharray="5,2" points="182.5,-92 194.5,-92 "/>
<text text-anchor="start" x="190.8" y="-75.8" font-family="Courier,monospace" font-size="9.00"> </text>
<text text-anchor="start" x="195.89" y="-75.2" font-family="Courier,monospace" font-size="11.00">prolog_debug</text>
<text text-anchor="start" x="274.8" y="-75.8" font-family="Courier,monospace" font-size="9.00"> </text>
<text text-anchor="start" x="190.8" y="-65.8" font-family="Courier,monospace" font-size="9.00"> </text>
<text text-anchor="start" x="222.9" y="-66.4" font-family="Courier,monospace" font-size="7.00">module</text>
<text text-anchor="start" x="274.8" y="-65.8" font-family="Courier,monospace" font-size="9.00"> </text>
</a>
</g>
</g>
<!-- rdf_abstract&#45;&gt;prolog_debug -->
<g id="edge3" class="edge">
<title>rdf_abstract&#45;&gt;prolog_debug</title>
<path fill="none" stroke="black" d="M419.81,-201.07C391.8,-184.62 359.49,-164.99 330.99,-146 309.01,-131.36 285.14,-113.7 266.69,-99.66"/>
<polygon fill="black" stroke="black" points="266.58,-99.57 259.38,-99.1 257.05,-92.28 266.58,-99.57"/>
<g id="a_edge3&#45;label"><a xlink:title="use_module">
<text text-anchor="middle" x="357" y="-138.8" font-family="Courier,monospace" font-size="9.00">use_module</text>
</a>
</g>
</g>
<!-- swi_option -->
<g id="node5" class="node">
<title>swi_option</title>
<g id="a_node5"><a xlink:title="module">
<polygon fill="gainsboro" stroke="black" stroke-dasharray="5,2" points="398,-92 318,-92 318,-96 306,-96 306,-56 398,-56 398,-92"/>
<polyline fill="none" stroke="black" stroke-dasharray="5,2" points="306,-92 318,-92 "/>
<text text-anchor="start" x="313.8" y="-75.8" font-family="Courier,monospace" font-size="9.00"> </text>
<text text-anchor="start" x="318.99" y="-75.2" font-family="Courier,monospace" font-size="11.00">swi_option</text>
<text text-anchor="start" x="384.8" y="-75.8" font-family="Courier,monospace" font-size="9.00"> </text>
<text text-anchor="start" x="313.8" y="-65.8" font-family="Courier,monospace" font-size="9.00"> </text>
<text text-anchor="start" x="339.4" y="-66.4" font-family="Courier,monospace" font-size="7.00">module</text>
<text text-anchor="start" x="384.8" y="-65.8" font-family="Courier,monospace" font-size="9.00"> </text>
</a>
</g>
</g>
<!-- rdf_abstract&#45;&gt;swi_option -->
<g id="edge4" class="edge">
<title>rdf_abstract&#45;&gt;swi_option</title>
<path fill="none" stroke="black" d="M435.34,-190.85C421.47,-176.95 407.08,-161.42 394.99,-146 384.43,-132.53 374.42,-116.28 366.72,-102.73"/>
<polygon fill="black" stroke="black" points="366.64,-102.6 360.24,-99.29 360.83,-92.1 366.64,-102.6"/>
<g id="a_edge4&#45;label"><a xlink:title="use_module">
<text text-anchor="middle" x="421" y="-138.8" font-family="Courier,monospace" font-size="9.00">use_module</text>
</a>
</g>
</g>
<!-- rdf_db -->
<g id="node6" class="node">
<title>rdf_db</title>
<g id="a_node6"><a xlink:title="module">
<polygon fill="gainsboro" stroke="black" stroke-dasharray="5,2" points="481.5,-92 428.5,-92 428.5,-96 416.5,-96 416.5,-56 481.5,-56 481.5,-92"/>
<polyline fill="none" stroke="black" stroke-dasharray="5,2" points="416.5,-92 428.5,-92 "/>
<text text-anchor="start" x="424.8" y="-75.8" font-family="Courier,monospace" font-size="9.00"> </text>
<text text-anchor="start" x="429.7" y="-75.2" font-family="Courier,monospace" font-size="11.00">rdf_db</text>
<text text-anchor="start" x="468.8" y="-75.8" font-family="Courier,monospace" font-size="9.00"> </text>
<text text-anchor="start" x="424.8" y="-65.8" font-family="Courier,monospace" font-size="9.00"> </text>
<text text-anchor="start" x="436.9" y="-66.4" font-family="Courier,monospace" font-size="7.00">module</text>
<text text-anchor="start" x="468.8" y="-65.8" font-family="Courier,monospace" font-size="9.00"> </text>
</a>
</g>
</g>
<!-- rdf_abstract&#45;&gt;rdf_db -->
<g id="edge5" class="edge">
<title>rdf_abstract&#45;&gt;rdf_db</title>
<path fill="none" stroke="black" d="M468.71,-190.98C463.41,-176.68 458.31,-160.93 454.99,-146 451.97,-132.41 450.45,-117.06 449.69,-104.11"/>
<polygon fill="black" stroke="black" points="449.69,-104.11 445.43,-98.29 449.16,-92.12 449.69,-104.11"/>
<g id="a_edge5&#45;label"><a xlink:title="use_module">
<text text-anchor="middle" x="481" y="-138.8" font-family="Courier,monospace" font-size="9.00">use_module</text>
</a>
</g>
</g>
<!-- ordsets -->
<g id="node7" class="node">
<title>ordsets</title>
<g id="a_node7"><a xlink:title="module">
<polygon fill="gainsboro" stroke="black" stroke-dasharray="5,2" points="572,-92 512,-92 512,-96 500,-96 500,-56 572,-56 572,-92"/>
<polyline fill="none" stroke="black" stroke-dasharray="5,2" points="500,-92 512,-92 "/>
<text text-anchor="start" x="507.8" y="-75.8" font-family="Courier,monospace" font-size="9.00"> </text>
<text text-anchor="start" x="512.9" y="-75.2" font-family="Courier,monospace" font-size="11.00">ordsets</text>
<text text-anchor="start" x="558.8" y="-75.8" font-family="Courier,monospace" font-size="9.00"> </text>
<text text-anchor="start" x="507.8" y="-65.8" font-family="Courier,monospace" font-size="9.00"> </text>
<text text-anchor="start" x="523.4" y="-66.4" font-family="Courier,monospace" font-size="7.00">module</text>
<text text-anchor="start" x="558.8" y="-65.8" font-family="Courier,monospace" font-size="9.00"> </text>
</a>
</g>
</g>
<!-- rdf_abstract&#45;&gt;ordsets -->
<g id="edge6" class="edge">
<title>rdf_abstract&#45;&gt;ordsets</title>
<path fill="none" stroke="black" d="M503.93,-190.74C511.82,-162.27 521.4,-127.68 528.03,-103.76"/>
<polygon fill="black" stroke="black" points="528.08,-103.57 525.83,-96.72 531.29,-92 528.08,-103.57"/>
<g id="a_edge6&#45;label"><a xlink:title="use_module">
<text text-anchor="middle" x="545" y="-138.8" font-family="Courier,monospace" font-size="9.00">use_module</text>
</a>
</g>
</g>
<!-- lists -->
<g id="node8" class="node">
<title>lists</title>
<g id="a_node8"><a xlink:title="module">
<polygon fill="gainsboro" stroke="black" stroke-dasharray="5,2" points="649.5,-92 602.5,-92 602.5,-96 590.5,-96 590.5,-56 649.5,-56 649.5,-92"/>
<polyline fill="none" stroke="black" stroke-dasharray="5,2" points="590.5,-92 602.5,-92 "/>
<text text-anchor="start" x="598.8" y="-75.8" font-family="Courier,monospace" font-size="9.00"> </text>
<text text-anchor="start" x="604" y="-75.2" font-family="Courier,monospace" font-size="11.00">lists</text>
<text text-anchor="start" x="636.8" y="-75.8" font-family="Courier,monospace" font-size="9.00"> </text>
<text text-anchor="start" x="598.8" y="-65.8" font-family="Courier,monospace" font-size="9.00"> </text>
<text text-anchor="start" x="607.9" y="-66.4" font-family="Courier,monospace" font-size="7.00">module</text>
<text text-anchor="start" x="636.8" y="-65.8" font-family="Courier,monospace" font-size="9.00"> </text>
</a>
</g>
</g>
<!-- rdf_abstract&#45;&gt;lists -->
<g id="edge7" class="edge">
<title>rdf_abstract&#45;&gt;lists</title>
<path fill="none" stroke="black" d="M538.63,-190.69C551.33,-176.66 564.63,-161.11 576,-146 586.29,-132.33 596.44,-116.18 604.39,-102.74"/>
<polygon fill="black" stroke="black" points="604.49,-102.58 604.04,-95.39 610.51,-92.21 604.49,-102.58"/>
<g id="a_edge7&#45;label"><a xlink:title="use_module">
<text text-anchor="middle" x="608" y="-138.8" font-family="Courier,monospace" font-size="9.00">use_module</text>
</a>
</g>
</g>
<!-- rdfs -->
<g id="node9" class="node">
<title>rdfs</title>
<g id="a_node9"><a xlink:title="module">
<polygon fill="gainsboro" stroke="black" stroke-dasharray="5,2" points="722,-92 680,-92 680,-96 668,-96 668,-56 722,-56 722,-92"/>
<polyline fill="none" stroke="black" stroke-dasharray="5,2" points="668,-92 680,-92 "/>
<text text-anchor="start" x="676.8" y="-75.8" font-family="Courier,monospace" font-size="9.00"> </text>
<text text-anchor="start" x="681.8" y="-75.2" font-family="Courier,monospace" font-size="11.00">rdfs</text>
<text text-anchor="start" x="707.8" y="-75.8" font-family="Courier,monospace" font-size="9.00"> </text>
<text text-anchor="start" x="676.8" y="-65.8" font-family="Courier,monospace" font-size="9.00"> </text>
<text text-anchor="start" x="682.4" y="-66.4" font-family="Courier,monospace" font-size="7.00">module</text>
<text text-anchor="start" x="707.8" y="-65.8" font-family="Courier,monospace" font-size="9.00"> </text>
</a>
</g>
</g>
<!-- rdf_abstract&#45;&gt;rdfs -->
<g id="edge8" class="edge">
<title>rdf_abstract&#45;&gt;rdfs</title>
<path fill="none" stroke="black" d="M560.18,-202.93C586.31,-187.09 615.34,-167.4 639,-146 653.29,-133.08 666.75,-116.23 676.89,-102.19"/>
<polygon fill="black" stroke="black" points="677.06,-101.93 677.23,-94.72 683.95,-92.11 677.06,-101.93"/>
<g id="a_edge8&#45;label"><a xlink:title="use_module">
<text text-anchor="middle" x="674" y="-138.8" font-family="Courier,monospace" font-size="9.00">use_module</text>
</a>
</g>
</g>
<!-- apply -->
<g id="node10" class="node">
<title>apply</title>
<g id="a_node10"><a xlink:title="module">
<polygon fill="gainsboro" stroke="black" stroke-dasharray="5,2" points="799.5,-92 752.5,-92 752.5,-96 740.5,-96 740.5,-56 799.5,-56 799.5,-92"/>
<polyline fill="none" stroke="black" stroke-dasharray="5,2" points="740.5,-92 752.5,-92 "/>
<text text-anchor="start" x="748.8" y="-75.8" font-family="Courier,monospace" font-size="9.00"> </text>
<text text-anchor="start" x="754" y="-75.2" font-family="Courier,monospace" font-size="11.00">apply</text>
<text text-anchor="start" x="786.8" y="-75.8" font-family="Courier,monospace" font-size="9.00"> </text>
<text text-anchor="start" x="748.8" y="-65.8" font-family="Courier,monospace" font-size="9.00"> </text>
<text text-anchor="start" x="757.9" y="-66.4" font-family="Courier,monospace" font-size="7.00">module</text>
<text text-anchor="start" x="786.8" y="-65.8" font-family="Courier,monospace" font-size="9.00"> </text>
</a>
</g>
</g>
<!-- rdf_abstract&#45;&gt;apply -->
<g id="edge9" class="edge">
<title>rdf_abstract&#45;&gt;apply</title>
<path fill="none" stroke="black" d="M560.2,-217.53C603.95,-201.12 660.23,-176.68 705,-146 722.47,-134.03 738.58,-116.5 750.39,-101.86"/>
<polygon fill="black" stroke="black" points="750.47,-101.76 751,-94.57 757.84,-92.29 750.47,-101.76"/>
<g id="a_edge9&#45;label"><a xlink:title="use_module">
<text text-anchor="middle" x="742" y="-138.8" font-family="Courier,monospace" font-size="9.00">use_module</text>
</a>
</g>
</g>
<!-- backward_compatibility -->
<g id="node11" class="node">
<title>backward_compatibility</title>
<g id="a_node11"><a xlink:title="module">
<polygon fill="gainsboro" stroke="black" stroke-dasharray="5,2" points="988.5,-92 829.5,-92 829.5,-96 817.5,-96 817.5,-56 988.5,-56 988.5,-92"/>
<polyline fill="none" stroke="black" stroke-dasharray="5,2" points="817.5,-92 829.5,-92 "/>
<text text-anchor="start" x="825.8" y="-75.8" font-family="Courier,monospace" font-size="9.00"> </text>
<text text-anchor="start" x="830.89" y="-75.2" font-family="Courier,monospace" font-size="11.00">backward_compatibility</text>
<text text-anchor="start" x="975.8" y="-75.8" font-family="Courier,monospace" font-size="9.00"> </text>
<text text-anchor="start" x="825.8" y="-65.8" font-family="Courier,monospace" font-size="9.00"> </text>
<text text-anchor="start" x="890.9" y="-66.4" font-family="Courier,monospace" font-size="7.00">module</text>
<text text-anchor="start" x="975.8" y="-65.8" font-family="Courier,monospace" font-size="9.00"> </text>
</a>
</g>
</g>
<!-- rdf_abstract&#45;&gt;backward_compatibility -->
<g id="edge10" class="edge">
<title>rdf_abstract&#45;&gt;backward_compatibility</title>
<path fill="none" stroke="black" d="M560.2,-221.2C618.26,-203.93 702.36,-176.86 773,-146 804.72,-132.14 839.01,-113.23 864.41,-98.41"/>
<polygon fill="black" stroke="black" points="864.73,-98.23 867.87,-91.73 875.07,-92.13 864.73,-98.23"/>
<g id="a_edge10&#45;label"><a xlink:title="use_module">
<text text-anchor="middle" x="818" y="-138.8" font-family="Courier,monospace" font-size="9.00">use_module</text>
</a>
</g>
</g>
</g>
</svg>
