<?xml version="1.0" encoding="UTF-8" standalone="no"?>
<!DOCTYPE svg PUBLIC "-//W3C//DTD SVG 1.1//EN"
 "http://www.w3.org/Graphics/SVG/1.1/DTD/svg11.dtd">
<!-- Generated by graphviz version 2.41.20190410.0829 (20190410.0829)
 -->
<!-- Title: rdf_optimise.pl Pages: 1 -->
<svg width="997pt" height="508pt"
 viewBox="72.00 72.00 925.00 436.00" xmlns="http://www.w3.org/2000/svg" xmlns:xlink="http://www.w3.org/1999/xlink">
<g id="graph0" class="graph" transform="scale(1 1) rotate(0) translate(76 432)">
<title>rdf_optimise.pl</title>
<polygon fill="white" stroke="transparent" points="-4,4 -4,-360 849,-360 849,4 -4,4"/>
<text text-anchor="start" x="8" y="-16" font-family="Courier,monospace" font-size="10.00" fill="#8b8989">ClioPatria &#45; an RDF application platform</text>
<text text-anchor="start" x="8" y="-6" font-family="Courier,monospace" font-size="10.00" fill="#8b8989">Generated on 2019/04/17, 13:04</text>
<g id="clust1" class="cluster">
<title>cluster_file_/Users/pmoura/ClioPatria/lib/semweb/rdf_optimise.pl</title>
<g id="a_clust1"><a xlink:href="https://github.com/ClioPatria/ClioPatria/tree/add57aa2039eed4033cf96e96c293b2052e88f41/lib/semweb/rdf_optimise.pl" xlink:title="https://github.com/ClioPatria/ClioPatria/tree/add57aa2039eed4033cf96e96c293b2052e88f41/lib/semweb/rdf_optimise.pl">
<path fill="snow" stroke="#8b8989" d="M20,-36C20,-36 825,-36 825,-36 831,-36 837,-42 837,-48 837,-48 837,-336 837,-336 837,-342 831,-348 825,-348 825,-348 20,-348 20,-348 14,-348 8,-342 8,-336 8,-336 8,-48 8,-48 8,-42 14,-36 20,-36"/>
<text text-anchor="middle" x="61.01" y="-336" font-family="Courier,monospace" font-size="10.00" fill="#8b8989">rdf_optimise.pl</text>
</a>
</g>
</g>
<g id="clust2" class="cluster">
<title>cluster_other</title>
<g id="a_clust2"><a xlink:title="(external entities)">
<path fill="white" stroke="#8b8989" d="M30,-46C30,-46 641,-46 641,-46 647,-46 653,-52 653,-58 653,-58 653,-108 653,-108 653,-114 647,-120 641,-120 641,-120 30,-120 30,-120 24,-120 18,-114 18,-108 18,-108 18,-58 18,-58 18,-52 24,-46 30,-46"/>
<text text-anchor="middle" x="83.01" y="-108" font-family="Courier,monospace" font-size="10.00" fill="#8b8989">(external entities)</text>
</a>
</g>
</g>
<!-- rdf_optimise -->
<g id="node1" class="node">
<title>rdf_optimise</title>
<g id="a_node1"><a xlink:title="module">
<polygon fill="gainsboro" stroke="black" points="541,-320 349,-320 349,-324 337,-324 337,-191 541,-191 541,-320"/>
<polyline fill="none" stroke="black" points="337,-320 349,-320 "/>
<g id="a_node1_0"><a xlink:href="rdf_optimise_module_xref_diagram.svg" xlink:title="Zoom">
<image xlink:href="zoom.png" width="11px" height="11px" preserveAspectRatio="xMinYMin meet" x="345" y="-315.5"/>
</a>
</g>
<text text-anchor="start" x="347.8" y="-296.3" font-family="Courier,monospace" font-size="9.00"> </text>
<text text-anchor="start" x="402.39" y="-295.7" font-family="Courier,monospace" font-size="11.00">rdf_optimise</text>
<text text-anchor="start" x="527.8" y="-296.3" font-family="Courier,monospace" font-size="9.00"> </text>
<text text-anchor="start" x="347.8" y="-286.3" font-family="Courier,monospace" font-size="9.00"> </text>
<text text-anchor="start" x="429.4" y="-286.9" font-family="Courier,monospace" font-size="7.00">module</text>
<text text-anchor="start" x="527.8" y="-286.3" font-family="Courier,monospace" font-size="9.00"> </text>
<text text-anchor="start" x="347.8" y="-277.3" font-family="Courier,monospace" font-size="9.00"> </text>
<text text-anchor="start" x="347.8" y="-268.3" font-family="Courier,monospace" font-size="9.00"> </text>
<text text-anchor="start" x="404.19" y="-268.3" font-family="Courier,monospace" font-size="9.00">rdf_optimise/4</text>
<text text-anchor="start" x="527.8" y="-268.3" font-family="Courier,monospace" font-size="9.00"> </text>
<text text-anchor="start" x="347.8" y="-259.3" font-family="Courier,monospace" font-size="9.00"> </text>
<text text-anchor="start" x="404.19" y="-259.3" font-family="Courier,monospace" font-size="9.00">rdf_optimise/1</text>
<text text-anchor="start" x="527.8" y="-259.3" font-family="Courier,monospace" font-size="9.00"> </text>
<text text-anchor="start" x="347.8" y="-250.3" font-family="Courier,monospace" font-size="9.00"> </text>
<text text-anchor="start" x="398.79" y="-250.3" font-family="Courier,monospace" font-size="9.00">rdf_complexity/3</text>
<text text-anchor="start" x="527.8" y="-250.3" font-family="Courier,monospace" font-size="9.00"> </text>
<text text-anchor="start" x="347.8" y="-241.3" font-family="Courier,monospace" font-size="9.00"> </text>
<text text-anchor="start" x="404.19" y="-241.3" font-family="Courier,monospace" font-size="9.00">rdf_optimise/2</text>
<text text-anchor="start" x="527.8" y="-241.3" font-family="Courier,monospace" font-size="9.00"> </text>
<text text-anchor="start" x="347.8" y="-232.3" font-family="Courier,monospace" font-size="9.00"> </text>
<text text-anchor="start" x="377.19" y="-232.3" font-family="Courier,monospace" font-size="9.00">serql_select_bind_null/2</text>
<text text-anchor="start" x="527.8" y="-232.3" font-family="Courier,monospace" font-size="9.00"> </text>
<text text-anchor="start" x="347.8" y="-223.3" font-family="Courier,monospace" font-size="9.00"> </text>
<text text-anchor="start" x="385.29" y="-223.3" font-family="Courier,monospace" font-size="9.00">user:goal_expansion/2</text>
<text text-anchor="start" x="527.8" y="-223.3" font-family="Courier,monospace" font-size="9.00"> </text>
<text text-anchor="start" x="347.8" y="-214.3" font-family="Courier,monospace" font-size="9.00"> </text>
<text text-anchor="start" x="360.99" y="-214.3" font-family="Courier,monospace" font-size="9.00">instantiated:attr_unify_hook/2</text>
<text text-anchor="start" x="527.8" y="-214.3" font-family="Courier,monospace" font-size="9.00"> </text>
<text text-anchor="start" x="347.8" y="-205.3" font-family="Courier,monospace" font-size="9.00"> </text>
<text text-anchor="start" x="355.59" y="-205.3" font-family="Courier,monospace" font-size="9.00">instantiated:attr_portray_hook/2</text>
<text text-anchor="start" x="527.8" y="-205.3" font-family="Courier,monospace" font-size="9.00"> </text>
<text text-anchor="start" x="347.8" y="-196.3" font-family="Courier,monospace" font-size="9.00"> </text>
<text text-anchor="start" x="363.69" y="-196.3" font-family="Courier,monospace" font-size="9.00">sandbox:safe_meta_predicate/1</text>
<text text-anchor="start" x="527.8" y="-196.3" font-family="Courier,monospace" font-size="9.00"> </text>
</a>
</g>
</g>
<!-- sandbox -->
<g id="node2" class="node">
<title>sandbox</title>
<g id="a_node2"><a xlink:title="module">
<polygon fill="gainsboro" stroke="black" stroke-dasharray="5,2" points="100,-92 40,-92 40,-96 28,-96 28,-56 100,-56 100,-92"/>
<polyline fill="none" stroke="black" stroke-dasharray="5,2" points="28,-92 40,-92 "/>
<text text-anchor="start" x="35.8" y="-75.8" font-family="Courier,monospace" font-size="9.00"> </text>
<text text-anchor="start" x="40.9" y="-75.2" font-family="Courier,monospace" font-size="11.00">sandbox</text>
<text text-anchor="start" x="86.8" y="-75.8" font-family="Courier,monospace" font-size="9.00"> </text>
<text text-anchor="start" x="35.8" y="-65.8" font-family="Courier,monospace" font-size="9.00"> </text>
<text text-anchor="start" x="51.4" y="-66.4" font-family="Courier,monospace" font-size="7.00">module</text>
<text text-anchor="start" x="86.8" y="-65.8" font-family="Courier,monospace" font-size="9.00"> </text>
</a>
</g>
</g>
<!-- rdf_optimise&#45;&gt;sandbox -->
<g id="edge2" class="edge">
<title>rdf_optimise&#45;&gt;sandbox</title>
<path fill="none" stroke="black" d="M336.77,-224.6C268.83,-201.98 179.48,-166.8 109,-120 100.48,-114.34 92.24,-106.9 85.2,-99.69"/>
<polygon fill="black" stroke="black" points="80.61,-89.68 84.89,-99.37 75.5,-94.46 80.61,-89.68"/>
<g id="a_edge2&#45;label"><a xlink:title="provides">
<text text-anchor="middle" x="171.6" y="-138.8" font-family="Courier,monospace" font-size="9.00">provides</text>
</a>
</g>
</g>
<!-- prolog_debug -->
<g id="node3" class="node">
<title>prolog_debug</title>
<g id="a_node3"><a xlink:title="module">
<polygon fill="gainsboro" stroke="black" stroke-dasharray="5,2" points="223.5,-92 130.5,-92 130.5,-96 118.5,-96 118.5,-56 223.5,-56 223.5,-92"/>
<polyline fill="none" stroke="black" stroke-dasharray="5,2" points="118.5,-92 130.5,-92 "/>
<text text-anchor="start" x="126.8" y="-75.8" font-family="Courier,monospace" font-size="9.00"> </text>
<text text-anchor="start" x="131.89" y="-75.2" font-family="Courier,monospace" font-size="11.00">prolog_debug</text>
<text text-anchor="start" x="210.8" y="-75.8" font-family="Courier,monospace" font-size="9.00"> </text>
<text text-anchor="start" x="126.8" y="-65.8" font-family="Courier,monospace" font-size="9.00"> </text>
<text text-anchor="start" x="158.9" y="-66.4" font-family="Courier,monospace" font-size="7.00">module</text>
<text text-anchor="start" x="210.8" y="-65.8" font-family="Courier,monospace" font-size="9.00"> </text>
</a>
</g>
</g>
<!-- rdf_optimise&#45;&gt;prolog_debug -->
<g id="edge4" class="edge">
<title>rdf_optimise&#45;&gt;prolog_debug</title>
<path fill="none" stroke="black" d="M336.94,-199.53C309.06,-183.3 279.29,-164.81 252.99,-146 233.59,-132.12 213.3,-114.59 197.77,-100.42"/>
<polygon fill="black" stroke="black" points="197.57,-100.24 190.45,-99.1 188.76,-92.09 197.57,-100.24"/>
<g id="a_edge4&#45;label"><a xlink:title="use_module">
<text text-anchor="middle" x="279" y="-138.8" font-family="Courier,monospace" font-size="9.00">use_module</text>
</a>
</g>
</g>
<!-- lists -->
<g id="node4" class="node">
<title>lists</title>
<g id="a_node4"><a xlink:title="module">
<polygon fill="gainsboro" stroke="black" stroke-dasharray="5,2" points="300.5,-92 253.5,-92 253.5,-96 241.5,-96 241.5,-56 300.5,-56 300.5,-92"/>
<polyline fill="none" stroke="black" stroke-dasharray="5,2" points="241.5,-92 253.5,-92 "/>
<text text-anchor="start" x="249.8" y="-75.8" font-family="Courier,monospace" font-size="9.00"> </text>
<text text-anchor="start" x="255" y="-75.2" font-family="Courier,monospace" font-size="11.00">lists</text>
<text text-anchor="start" x="287.8" y="-75.8" font-family="Courier,monospace" font-size="9.00"> </text>
<text text-anchor="start" x="249.8" y="-65.8" font-family="Courier,monospace" font-size="9.00"> </text>
<text text-anchor="start" x="258.9" y="-66.4" font-family="Courier,monospace" font-size="7.00">module</text>
<text text-anchor="start" x="287.8" y="-65.8" font-family="Courier,monospace" font-size="9.00"> </text>
</a>
</g>
</g>
<!-- rdf_optimise&#45;&gt;lists -->
<g id="edge5" class="edge">
<title>rdf_optimise&#45;&gt;lists</title>
<path fill="none" stroke="black" d="M362.99,-190.88C347.76,-176.74 332.34,-161.38 318.99,-146 307.29,-132.53 296.02,-116.09 287.34,-102.43"/>
<polygon fill="black" stroke="black" points="287.31,-102.38 280.75,-99.39 280.98,-92.18 287.31,-102.38"/>
<g id="a_edge5&#45;label"><a xlink:title="use_module">
<text text-anchor="middle" x="345" y="-138.8" font-family="Courier,monospace" font-size="9.00">use_module</text>
</a>
</g>
</g>
<!-- ordsets -->
<g id="node5" class="node">
<title>ordsets</title>
<g id="a_node5"><a xlink:title="module">
<polygon fill="gainsboro" stroke="black" stroke-dasharray="5,2" points="391,-92 331,-92 331,-96 319,-96 319,-56 391,-56 391,-92"/>
<polyline fill="none" stroke="black" stroke-dasharray="5,2" points="319,-92 331,-92 "/>
<text text-anchor="start" x="326.8" y="-75.8" font-family="Courier,monospace" font-size="9.00"> </text>
<text text-anchor="start" x="331.9" y="-75.2" font-family="Courier,monospace" font-size="11.00">ordsets</text>
<text text-anchor="start" x="377.8" y="-75.8" font-family="Courier,monospace" font-size="9.00"> </text>
<text text-anchor="start" x="326.8" y="-65.8" font-family="Courier,monospace" font-size="9.00"> </text>
<text text-anchor="start" x="342.4" y="-66.4" font-family="Courier,monospace" font-size="7.00">module</text>
<text text-anchor="start" x="377.8" y="-65.8" font-family="Courier,monospace" font-size="9.00"> </text>
</a>
</g>
</g>
<!-- rdf_optimise&#45;&gt;ordsets -->
<g id="edge6" class="edge">
<title>rdf_optimise&#45;&gt;ordsets</title>
<path fill="none" stroke="black" d="M403.13,-190.99C395.43,-176.4 387.62,-160.82 380.99,-146 374.89,-132.38 369.09,-116.86 364.51,-103.81"/>
<polygon fill="black" stroke="black" points="364.43,-103.55 358.7,-99.17 360.54,-92.19 364.43,-103.55"/>
<g id="a_edge6&#45;label"><a xlink:title="use_module">
<text text-anchor="middle" x="407" y="-138.8" font-family="Courier,monospace" font-size="9.00">use_module</text>
</a>
</g>
</g>
<!-- pairs -->
<g id="node6" class="node">
<title>pairs</title>
<g id="a_node6"><a xlink:title="module">
<polygon fill="gainsboro" stroke="black" stroke-dasharray="5,2" points="468.5,-92 421.5,-92 421.5,-96 409.5,-96 409.5,-56 468.5,-56 468.5,-92"/>
<polyline fill="none" stroke="black" stroke-dasharray="5,2" points="409.5,-92 421.5,-92 "/>
<text text-anchor="start" x="417.8" y="-75.8" font-family="Courier,monospace" font-size="9.00"> </text>
<text text-anchor="start" x="423" y="-75.2" font-family="Courier,monospace" font-size="11.00">pairs</text>
<text text-anchor="start" x="455.8" y="-75.8" font-family="Courier,monospace" font-size="9.00"> </text>
<text text-anchor="start" x="417.8" y="-65.8" font-family="Courier,monospace" font-size="9.00"> </text>
<text text-anchor="start" x="426.9" y="-66.4" font-family="Courier,monospace" font-size="7.00">module</text>
<text text-anchor="start" x="455.8" y="-65.8" font-family="Courier,monospace" font-size="9.00"> </text>
</a>
</g>
</g>
<!-- rdf_optimise&#45;&gt;pairs -->
<g id="edge7" class="edge">
<title>rdf_optimise&#45;&gt;pairs</title>
<path fill="none" stroke="black" d="M439,-190.96C439,-161.49 439,-127.88 439,-104.46"/>
<polygon fill="black" stroke="black" points="439,-104.27 435,-98.27 439,-92.27 439,-104.27"/>
<g id="a_edge7&#45;label"><a xlink:title="use_module">
<text text-anchor="middle" x="466" y="-138.8" font-family="Courier,monospace" font-size="9.00">use_module</text>
</a>
</g>
</g>
<!-- ugraphs -->
<g id="node7" class="node">
<title>ugraphs</title>
<g id="a_node7"><a xlink:title="module">
<polygon fill="gainsboro" stroke="black" stroke-dasharray="5,2" points="559,-92 499,-92 499,-96 487,-96 487,-56 559,-56 559,-92"/>
<polyline fill="none" stroke="black" stroke-dasharray="5,2" points="487,-92 499,-92 "/>
<text text-anchor="start" x="494.8" y="-75.8" font-family="Courier,monospace" font-size="9.00"> </text>
<text text-anchor="start" x="499.9" y="-75.2" font-family="Courier,monospace" font-size="11.00">ugraphs</text>
<text text-anchor="start" x="545.8" y="-75.8" font-family="Courier,monospace" font-size="9.00"> </text>
<text text-anchor="start" x="494.8" y="-65.8" font-family="Courier,monospace" font-size="9.00"> </text>
<text text-anchor="start" x="510.4" y="-66.4" font-family="Courier,monospace" font-size="7.00">module</text>
<text text-anchor="start" x="545.8" y="-65.8" font-family="Courier,monospace" font-size="9.00"> </text>
</a>
</g>
</g>
<!-- rdf_optimise&#45;&gt;ugraphs -->
<g id="edge8" class="edge">
<title>rdf_optimise&#45;&gt;ugraphs</title>
<path fill="none" stroke="black" d="M474.86,-190.98C482.56,-176.4 490.37,-160.82 497,-146 503.1,-132.38 508.91,-116.86 513.48,-103.81"/>
<polygon fill="black" stroke="black" points="513.57,-103.55 511.73,-96.57 517.46,-92.19 513.57,-103.55"/>
<g id="a_edge8&#45;label"><a xlink:title="use_module">
<text text-anchor="middle" x="527" y="-138.8" font-family="Courier,monospace" font-size="9.00">use_module</text>
</a>
</g>
</g>
<!-- rdf_db -->
<g id="node8" class="node">
<title>rdf_db</title>
<g id="a_node8"><a xlink:title="module">
<polygon fill="gainsboro" stroke="black" stroke-dasharray="5,2" points="642.5,-92 589.5,-92 589.5,-96 577.5,-96 577.5,-56 642.5,-56 642.5,-92"/>
<polyline fill="none" stroke="black" stroke-dasharray="5,2" points="577.5,-92 589.5,-92 "/>
<text text-anchor="start" x="585.8" y="-75.8" font-family="Courier,monospace" font-size="9.00"> </text>
<text text-anchor="start" x="590.7" y="-75.2" font-family="Courier,monospace" font-size="11.00">rdf_db</text>
<text text-anchor="start" x="629.8" y="-75.8" font-family="Courier,monospace" font-size="9.00"> </text>
<text text-anchor="start" x="585.8" y="-65.8" font-family="Courier,monospace" font-size="9.00"> </text>
<text text-anchor="start" x="597.9" y="-66.4" font-family="Courier,monospace" font-size="7.00">module</text>
<text text-anchor="start" x="629.8" y="-65.8" font-family="Courier,monospace" font-size="9.00"> </text>
</a>
</g>
</g>
<!-- rdf_optimise&#45;&gt;rdf_db -->
<g id="edge9" class="edge">
<title>rdf_optimise&#45;&gt;rdf_db</title>
<path fill="none" stroke="black" d="M513.58,-190.71C528.83,-176.53 544.36,-161.18 558,-146 570.25,-132.37 582.43,-115.92 591.92,-102.3"/>
<polygon fill="black" stroke="black" points="592.14,-101.98 592.22,-94.77 598.91,-92.08 592.14,-101.98"/>
<g id="a_edge9&#45;label"><a xlink:title="use_module">
<text text-anchor="middle" x="591" y="-138.8" font-family="Courier,monospace" font-size="9.00">use_module</text>
</a>
</g>
</g>
<!-- instantiated -->
<g id="node9" class="node">
<title>instantiated</title>
<ellipse fill="white" stroke="black" cx="709" cy="-74" rx="45.68" ry="18"/>
<text text-anchor="middle" x="709" y="-71.3" font-family="Courier,monospace" font-size="9.00">instantiated</text>
</g>
<!-- rdf_optimise&#45;&gt;instantiated -->
<g id="edge1" class="edge">
<title>rdf_optimise&#45;&gt;instantiated</title>
<path fill="none" stroke="black" d="M541.24,-198.51C579,-176.04 621.27,-148.66 657,-120 665.89,-112.87 675.38,-104.79 683.79,-97.48"/>
<polygon fill="black" stroke="black" points="693.78,-93.38 683.95,-97.34 689.16,-88.11 693.78,-93.38"/>
<g id="a_edge1&#45;label"><a xlink:title="provides">
<text text-anchor="middle" x="650.6" y="-138.8" font-family="Courier,monospace" font-size="9.00">provides</text>
</a>
</g>
</g>
<!-- user -->
<g id="node10" class="node">
<title>user</title>
<ellipse fill="white" stroke="black" cx="800" cy="-74" rx="27" ry="18"/>
<text text-anchor="middle" x="800" y="-71.3" font-family="Courier,monospace" font-size="9.00">user</text>
</g>
<!-- rdf_optimise&#45;&gt;user -->
<g id="edge3" class="edge">
<title>rdf_optimise&#45;&gt;user</title>
<path fill="none" stroke="black" d="M541.03,-226.9C608.74,-205.23 697.11,-170.24 764,-120 771.59,-114.3 778.5,-106.64 784.19,-99.26"/>
<polygon fill="black" stroke="black" points="793.11,-92.92 784.41,-98.96 787.44,-88.81 793.11,-92.92"/>
<g id="a_edge3&#45;label"><a xlink:title="provides">
<text text-anchor="middle" x="753.6" y="-138.8" font-family="Courier,monospace" font-size="9.00">provides</text>
</a>
</g>
</g>
</g>
</svg>
