<?xml version="1.0" encoding="UTF-8" standalone="no"?>
<!DOCTYPE svg PUBLIC "-//W3C//DTD SVG 1.1//EN"
 "http://www.w3.org/Graphics/SVG/1.1/DTD/svg11.dtd">
<!-- Generated by graphviz version 2.41.20190410.0829 (20190410.0829)
 -->
<!-- Title: rdf_json.pl Pages: 1 -->
<svg width="608pt" height="454pt"
 viewBox="72.00 72.00 536.00 382.00" xmlns="http://www.w3.org/2000/svg" xmlns:xlink="http://www.w3.org/1999/xlink">
<g id="graph0" class="graph" transform="scale(1 1) rotate(0) translate(76 378)">
<title>rdf_json.pl</title>
<polygon fill="white" stroke="transparent" points="-4,4 -4,-306 460,-306 460,4 -4,4"/>
<text text-anchor="start" x="8" y="-16" font-family="Courier,monospace" font-size="10.00" fill="#8b8989">ClioPatria &#45; an RDF application platform</text>
<text text-anchor="start" x="8" y="-6" font-family="Courier,monospace" font-size="10.00" fill="#8b8989">Generated on 2019/04/17, 13:04</text>
<g id="clust1" class="cluster">
<title>cluster_file_/Users/pmoura/ClioPatria/lib/semweb/rdf_json.pl</title>
<g id="a_clust1"><a xlink:href="https://github.com/ClioPatria/ClioPatria/tree/add57aa2039eed4033cf96e96c293b2052e88f41/lib/semweb/rdf_json.pl" xlink:title="https://github.com/ClioPatria/ClioPatria/tree/add57aa2039eed4033cf96e96c293b2052e88f41/lib/semweb/rdf_json.pl">
<path fill="snow" stroke="#8b8989" d="M20,-36C20,-36 436,-36 436,-36 442,-36 448,-42 448,-48 448,-48 448,-282 448,-282 448,-288 442,-294 436,-294 436,-294 20,-294 20,-294 14,-294 8,-288 8,-282 8,-282 8,-48 8,-48 8,-42 14,-36 20,-36"/>
<text text-anchor="middle" x="49.01" y="-282" font-family="Courier,monospace" font-size="10.00" fill="#8b8989">rdf_json.pl</text>
</a>
</g>
</g>
<g id="clust2" class="cluster">
<title>cluster_other</title>
<g id="a_clust2"><a xlink:title="(external entities)">
<path fill="white" stroke="#8b8989" d="M30,-46C30,-46 426,-46 426,-46 432,-46 438,-52 438,-58 438,-58 438,-108 438,-108 438,-114 432,-120 426,-120 426,-120 30,-120 30,-120 24,-120 18,-114 18,-108 18,-108 18,-58 18,-58 18,-52 24,-46 30,-46"/>
<text text-anchor="middle" x="83.01" y="-108" font-family="Courier,monospace" font-size="10.00" fill="#8b8989">(external entities)</text>
</a>
</g>
</g>
<!-- rdf_json -->
<g id="node1" class="node">
<title>rdf_json</title>
<g id="a_node1"><a xlink:title="module">
<polygon fill="gainsboro" stroke="black" points="300,-266 172,-266 172,-270 160,-270 160,-191 300,-191 300,-266"/>
<polyline fill="none" stroke="black" points="160,-266 172,-266 "/>
<g id="a_node1_0"><a xlink:href="rdf_json_module_xref_diagram.svg" xlink:title="Zoom">
<image xlink:href="zoom.png" width="11px" height="11px" preserveAspectRatio="xMinYMin meet" x="168" y="-261.5"/>
</a>
</g>
<text text-anchor="start" x="170.8" y="-242.3" font-family="Courier,monospace" font-size="9.00"> </text>
<text text-anchor="start" x="206.6" y="-241.7" font-family="Courier,monospace" font-size="11.00">rdf_json</text>
<text text-anchor="start" x="286.8" y="-242.3" font-family="Courier,monospace" font-size="9.00"> </text>
<text text-anchor="start" x="170.8" y="-232.3" font-family="Courier,monospace" font-size="9.00"> </text>
<text text-anchor="start" x="220.4" y="-232.9" font-family="Courier,monospace" font-size="7.00">module</text>
<text text-anchor="start" x="286.8" y="-232.3" font-family="Courier,monospace" font-size="9.00"> </text>
<text text-anchor="start" x="170.8" y="-223.3" font-family="Courier,monospace" font-size="9.00"> </text>
<text text-anchor="start" x="170.8" y="-214.3" font-family="Courier,monospace" font-size="9.00"> </text>
<text text-anchor="start" x="178.99" y="-214.3" font-family="Courier,monospace" font-size="9.00">rdf_object_to_json/2</text>
<text text-anchor="start" x="286.8" y="-214.3" font-family="Courier,monospace" font-size="9.00"> </text>
<text text-anchor="start" x="170.8" y="-205.3" font-family="Courier,monospace" font-size="9.00"> </text>
<text text-anchor="start" x="178.99" y="-205.3" font-family="Courier,monospace" font-size="9.00">properties_to_json/2</text>
<text text-anchor="start" x="286.8" y="-205.3" font-family="Courier,monospace" font-size="9.00"> </text>
<text text-anchor="start" x="170.8" y="-196.3" font-family="Courier,monospace" font-size="9.00"> </text>
<text text-anchor="start" x="200.59" y="-196.3" font-family="Courier,monospace" font-size="9.00">graph_json/2</text>
<text text-anchor="start" x="286.8" y="-196.3" font-family="Courier,monospace" font-size="9.00"> </text>
</a>
</g>
</g>
<!-- rdf_bnode -->
<g id="node2" class="node">
<title>rdf_bnode</title>
<g id="a_node2"><a xlink:title="module">
<polygon fill="gainsboro" stroke="black" stroke-dasharray="5,2" points="113.5,-92 40.5,-92 40.5,-96 28.5,-96 28.5,-56 113.5,-56 113.5,-92"/>
<polyline fill="none" stroke="black" stroke-dasharray="5,2" points="28.5,-92 40.5,-92 "/>
<text text-anchor="start" x="36.8" y="-75.8" font-family="Courier,monospace" font-size="9.00"> </text>
<text text-anchor="start" x="41.8" y="-75.2" font-family="Courier,monospace" font-size="11.00">rdf_bnode</text>
<text text-anchor="start" x="100.8" y="-75.8" font-family="Courier,monospace" font-size="9.00"> </text>
<text text-anchor="start" x="36.8" y="-65.8" font-family="Courier,monospace" font-size="9.00"> </text>
<text text-anchor="start" x="58.9" y="-66.4" font-family="Courier,monospace" font-size="7.00">module</text>
<text text-anchor="start" x="100.8" y="-65.8" font-family="Courier,monospace" font-size="9.00"> </text>
</a>
</g>
</g>
<!-- rdf_json&#45;&gt;rdf_bnode -->
<g id="edge1" class="edge">
<title>rdf_json&#45;&gt;rdf_bnode</title>
<path fill="none" stroke="black" d="M165.21,-190.93C146.3,-178.29 126.55,-162.99 110.99,-146 99.49,-133.45 89.97,-117.01 83.1,-103.12"/>
<polygon fill="black" stroke="black" points="83.07,-103.05 76.9,-99.31 77.98,-92.18 83.07,-103.05"/>
<g id="a_edge1&#45;label"><a xlink:title="use_module">
<text text-anchor="middle" x="137" y="-138.8" font-family="Courier,monospace" font-size="9.00">use_module</text>
</a>
</g>
</g>
<!-- pairs -->
<g id="node3" class="node">
<title>pairs</title>
<g id="a_node3"><a xlink:title="module">
<polygon fill="gainsboro" stroke="black" stroke-dasharray="5,2" points="190.5,-92 143.5,-92 143.5,-96 131.5,-96 131.5,-56 190.5,-56 190.5,-92"/>
<polyline fill="none" stroke="black" stroke-dasharray="5,2" points="131.5,-92 143.5,-92 "/>
<text text-anchor="start" x="139.8" y="-75.8" font-family="Courier,monospace" font-size="9.00"> </text>
<text text-anchor="start" x="145" y="-75.2" font-family="Courier,monospace" font-size="11.00">pairs</text>
<text text-anchor="start" x="177.8" y="-75.8" font-family="Courier,monospace" font-size="9.00"> </text>
<text text-anchor="start" x="139.8" y="-65.8" font-family="Courier,monospace" font-size="9.00"> </text>
<text text-anchor="start" x="148.9" y="-66.4" font-family="Courier,monospace" font-size="7.00">module</text>
<text text-anchor="start" x="177.8" y="-65.8" font-family="Courier,monospace" font-size="9.00"> </text>
</a>
</g>
</g>
<!-- rdf_json&#45;&gt;pairs -->
<g id="edge2" class="edge">
<title>rdf_json&#45;&gt;pairs</title>
<path fill="none" stroke="black" d="M198.31,-190.7C188.4,-177.41 178.4,-161.77 171.99,-146 166.67,-132.91 163.91,-117.51 162.48,-104.4"/>
<polygon fill="black" stroke="black" points="162.46,-104.19 157.97,-98.54 161.45,-92.23 162.46,-104.19"/>
<g id="a_edge2&#45;label"><a xlink:title="use_module">
<text text-anchor="middle" x="198" y="-138.8" font-family="Courier,monospace" font-size="9.00">use_module</text>
</a>
</g>
</g>
<!-- apply -->
<g id="node4" class="node">
<title>apply</title>
<g id="a_node4"><a xlink:title="module">
<polygon fill="gainsboro" stroke="black" stroke-dasharray="5,2" points="267.5,-92 220.5,-92 220.5,-96 208.5,-96 208.5,-56 267.5,-56 267.5,-92"/>
<polyline fill="none" stroke="black" stroke-dasharray="5,2" points="208.5,-92 220.5,-92 "/>
<text text-anchor="start" x="216.8" y="-75.8" font-family="Courier,monospace" font-size="9.00"> </text>
<text text-anchor="start" x="222" y="-75.2" font-family="Courier,monospace" font-size="11.00">apply</text>
<text text-anchor="start" x="254.8" y="-75.8" font-family="Courier,monospace" font-size="9.00"> </text>
<text text-anchor="start" x="216.8" y="-65.8" font-family="Courier,monospace" font-size="9.00"> </text>
<text text-anchor="start" x="225.9" y="-66.4" font-family="Courier,monospace" font-size="7.00">module</text>
<text text-anchor="start" x="254.8" y="-65.8" font-family="Courier,monospace" font-size="9.00"> </text>
</a>
</g>
</g>
<!-- rdf_json&#45;&gt;apply -->
<g id="edge3" class="edge">
<title>rdf_json&#45;&gt;apply</title>
<path fill="none" stroke="black" d="M229.56,-190.92C229.57,-174.43 229.9,-154.72 230.99,-137 231.65,-126.28 232.85,-114.57 234.08,-104.23"/>
<polygon fill="black" stroke="black" points="234.11,-103.97 230.88,-97.52 235.6,-92.06 234.11,-103.97"/>
<g id="a_edge3&#45;label"><a xlink:title="use_module">
<text text-anchor="middle" x="257" y="-138.8" font-family="Courier,monospace" font-size="9.00">use_module</text>
</a>
</g>
</g>
<!-- rdf_db -->
<g id="node5" class="node">
<title>rdf_db</title>
<g id="a_node5"><a xlink:title="module">
<polygon fill="gainsboro" stroke="black" stroke-dasharray="5,2" points="350.5,-92 297.5,-92 297.5,-96 285.5,-96 285.5,-56 350.5,-56 350.5,-92"/>
<polyline fill="none" stroke="black" stroke-dasharray="5,2" points="285.5,-92 297.5,-92 "/>
<text text-anchor="start" x="293.8" y="-75.8" font-family="Courier,monospace" font-size="9.00"> </text>
<text text-anchor="start" x="298.7" y="-75.2" font-family="Courier,monospace" font-size="11.00">rdf_db</text>
<text text-anchor="start" x="337.8" y="-75.8" font-family="Courier,monospace" font-size="9.00"> </text>
<text text-anchor="start" x="293.8" y="-65.8" font-family="Courier,monospace" font-size="9.00"> </text>
<text text-anchor="start" x="305.9" y="-66.4" font-family="Courier,monospace" font-size="7.00">module</text>
<text text-anchor="start" x="337.8" y="-65.8" font-family="Courier,monospace" font-size="9.00"> </text>
</a>
</g>
</g>
<!-- rdf_json&#45;&gt;rdf_db -->
<g id="edge4" class="edge">
<title>rdf_json&#45;&gt;rdf_db</title>
<path fill="none" stroke="black" d="M256.46,-190.96C265.96,-177.18 276.43,-161.16 285,-146 292.73,-132.32 300.21,-116.51 306.09,-103.3"/>
<polygon fill="black" stroke="black" points="306.21,-103.02 304.93,-95.92 311,-92.02 306.21,-103.02"/>
<g id="a_edge4&#45;label"><a xlink:title="use_module">
<text text-anchor="middle" x="316" y="-138.8" font-family="Courier,monospace" font-size="9.00">use_module</text>
</a>
</g>
</g>
<!-- error -->
<g id="node6" class="node">
<title>error</title>
<g id="a_node6"><a xlink:title="module">
<polygon fill="gainsboro" stroke="black" stroke-dasharray="5,2" points="427.5,-92 380.5,-92 380.5,-96 368.5,-96 368.5,-56 427.5,-56 427.5,-92"/>
<polyline fill="none" stroke="black" stroke-dasharray="5,2" points="368.5,-92 380.5,-92 "/>
<text text-anchor="start" x="376.8" y="-75.8" font-family="Courier,monospace" font-size="9.00"> </text>
<text text-anchor="start" x="382" y="-75.2" font-family="Courier,monospace" font-size="11.00">error</text>
<text text-anchor="start" x="414.8" y="-75.8" font-family="Courier,monospace" font-size="9.00"> </text>
<text text-anchor="start" x="376.8" y="-65.8" font-family="Courier,monospace" font-size="9.00"> </text>
<text text-anchor="start" x="385.9" y="-66.4" font-family="Courier,monospace" font-size="7.00">module</text>
<text text-anchor="start" x="414.8" y="-65.8" font-family="Courier,monospace" font-size="9.00"> </text>
</a>
</g>
</g>
<!-- rdf_json&#45;&gt;error -->
<g id="edge5" class="edge">
<title>rdf_json&#45;&gt;error</title>
<path fill="none" stroke="black" d="M290.75,-190.93C309.82,-177.99 330.25,-162.51 347,-146 360.13,-133.05 372.29,-116.4 381.44,-102.48"/>
<polygon fill="black" stroke="black" points="381.65,-102.14 381.5,-94.93 388.09,-92.02 381.65,-102.14"/>
<g id="a_edge5&#45;label"><a xlink:title="use_module">
<text text-anchor="middle" x="382" y="-138.8" font-family="Courier,monospace" font-size="9.00">use_module</text>
</a>
</g>
</g>
</g>
</svg>
