<?xml version="1.0" encoding="UTF-8" standalone="no"?>
<!DOCTYPE svg PUBLIC "-//W3C//DTD SVG 1.1//EN"
 "http://www.w3.org/Graphics/SVG/1.1/DTD/svg11.dtd">
<!-- Generated by graphviz version 2.41.20190410.0829 (20190410.0829)
 -->
<!-- Title: rdf.pl Pages: 1 -->
<svg width="408pt" height="454pt"
 viewBox="72.00 72.00 336.04 382.00" xmlns="http://www.w3.org/2000/svg" xmlns:xlink="http://www.w3.org/1999/xlink">
<g id="graph0" class="graph" transform="scale(1 1) rotate(0) translate(76 378)">
<title>rdf.pl</title>
<polygon fill="white" stroke="transparent" points="-4,4 -4,-306 260.04,-306 260.04,4 -4,4"/>
<text text-anchor="start" x="8" y="-16" font-family="Courier,monospace" font-size="10.00" fill="#8b8989">ClioPatria &#45; an RDF application platform</text>
<text text-anchor="start" x="8" y="-6" font-family="Courier,monospace" font-size="10.00" fill="#8b8989">Generated on 2019/04/17, 13:04</text>
<g id="clust1" class="cluster">
<title>cluster_file_/Users/pmoura/ClioPatria/entailment/rdf.pl</title>
<g id="a_clust1"><a xlink:href="https://github.com/ClioPatria/ClioPatria/tree/add57aa2039eed4033cf96e96c293b2052e88f41/entailment/rdf.pl" xlink:title="https://github.com/ClioPatria/ClioPatria/tree/add57aa2039eed4033cf96e96c293b2052e88f41/entailment/rdf.pl">
<path fill="snow" stroke="#8b8989" d="M32.02,-36C32.02,-36 224.02,-36 224.02,-36 230.02,-36 236.02,-42 236.02,-48 236.02,-48 236.02,-282 236.02,-282 236.02,-288 230.02,-294 224.02,-294 224.02,-294 32.02,-294 32.02,-294 26.02,-294 20.02,-288 20.02,-282 20.02,-282 20.02,-48 20.02,-48 20.02,-42 26.02,-36 32.02,-36"/>
<text text-anchor="middle" x="46.02" y="-282" font-family="Courier,monospace" font-size="10.00" fill="#8b8989">rdf.pl</text>
</a>
</g>
</g>
<g id="clust2" class="cluster">
<title>cluster_other</title>
<g id="a_clust2"><a xlink:title="(external entities)">
<path fill="white" stroke="#8b8989" d="M42.02,-46C42.02,-46 214.02,-46 214.02,-46 220.02,-46 226.02,-52 226.02,-58 226.02,-58 226.02,-108 226.02,-108 226.02,-114 220.02,-120 214.02,-120 214.02,-120 42.02,-120 42.02,-120 36.02,-120 30.02,-114 30.02,-108 30.02,-108 30.02,-58 30.02,-58 30.02,-52 36.02,-46 42.02,-46"/>
<text text-anchor="middle" x="95.03" y="-108" font-family="Courier,monospace" font-size="10.00" fill="#8b8989">(external entities)</text>
</a>
</g>
</g>
<!-- rdf_entailment -->
<g id="node1" class="node">
<title>rdf_entailment</title>
<g id="a_node1"><a xlink:title="module">
<polygon fill="gainsboro" stroke="black" points="206.02,-266 62.02,-266 62.02,-270 50.02,-270 50.02,-191 206.02,-191 206.02,-266"/>
<polyline fill="none" stroke="black" points="50.02,-266 62.02,-266 "/>
<g id="a_node1_0"><a xlink:href="rdf_entailment_module_xref_diagram.svg" xlink:title="Zoom">
<image xlink:href="zoom.png" width="11px" height="11px" preserveAspectRatio="xMinYMin meet" x="58.0195" y="-261.5"/>
</a>
</g>
<text text-anchor="start" x="60.82" y="-242.3" font-family="Courier,monospace" font-size="9.00"> </text>
<text text-anchor="start" x="84.81" y="-241.7" font-family="Courier,monospace" font-size="11.00">rdf_entailment</text>
<text text-anchor="start" x="192.82" y="-242.3" font-family="Courier,monospace" font-size="9.00"> </text>
<text text-anchor="start" x="60.82" y="-232.3" font-family="Courier,monospace" font-size="9.00"> </text>
<text text-anchor="start" x="118.42" y="-232.9" font-family="Courier,monospace" font-size="7.00">module</text>
<text text-anchor="start" x="192.82" y="-232.3" font-family="Courier,monospace" font-size="9.00"> </text>
<text text-anchor="start" x="60.82" y="-223.3" font-family="Courier,monospace" font-size="9.00"> </text>
<text text-anchor="start" x="60.82" y="-214.3" font-family="Courier,monospace" font-size="9.00"> </text>
<text text-anchor="start" x="117.52" y="-214.3" font-family="Courier,monospace" font-size="9.00">rdf/3</text>
<text text-anchor="start" x="192.82" y="-214.3" font-family="Courier,monospace" font-size="9.00"> </text>
<text text-anchor="start" x="60.82" y="-205.3" font-family="Courier,monospace" font-size="9.00"> </text>
<text text-anchor="start" x="117.52" y="-205.3" font-family="Courier,monospace" font-size="9.00">rdf/4</text>
<text text-anchor="start" x="192.82" y="-205.3" font-family="Courier,monospace" font-size="9.00"> </text>
<text text-anchor="start" x="60.82" y="-196.3" font-family="Courier,monospace" font-size="9.00"> </text>
<text text-anchor="start" x="68.91" y="-196.3" font-family="Courier,monospace" font-size="9.00">cliopatria:entailment/2</text>
<text text-anchor="start" x="192.82" y="-196.3" font-family="Courier,monospace" font-size="9.00"> </text>
</a>
</g>
</g>
<!-- cliopatria -->
<g id="node2" class="node">
<title>cliopatria</title>
<g id="a_node2"><a xlink:title="module">
<polygon fill="gainsboro" stroke="black" stroke-dasharray="5,2" points="132.02,-92 52.02,-92 52.02,-96 40.02,-96 40.02,-56 132.02,-56 132.02,-92"/>
<polyline fill="none" stroke="black" stroke-dasharray="5,2" points="40.02,-92 52.02,-92 "/>
<text text-anchor="start" x="47.82" y="-75.8" font-family="Courier,monospace" font-size="9.00"> </text>
<text text-anchor="start" x="53.01" y="-75.2" font-family="Courier,monospace" font-size="11.00">cliopatria</text>
<text text-anchor="start" x="118.82" y="-75.8" font-family="Courier,monospace" font-size="9.00"> </text>
<text text-anchor="start" x="47.82" y="-65.8" font-family="Courier,monospace" font-size="9.00"> </text>
<text text-anchor="start" x="73.42" y="-66.4" font-family="Courier,monospace" font-size="7.00">module</text>
<text text-anchor="start" x="118.82" y="-65.8" font-family="Courier,monospace" font-size="9.00"> </text>
</a>
</g>
</g>
<!-- rdf_entailment&#45;&gt;cliopatria -->
<g id="edge1" class="edge">
<title>rdf_entailment&#45;&gt;cliopatria</title>
<path fill="none" stroke="black" d="M115.42,-190.8C110.85,-176.85 105.82,-160.77 101.81,-146 97.9,-131.58 94.23,-115.31 91.41,-101.99"/>
<polygon fill="black" stroke="black" points="92.78,-91.33 91.38,-101.83 85.92,-92.75 92.78,-91.33"/>
<g id="a_edge1&#45;label"><a xlink:title="provides">
<text text-anchor="middle" x="123.62" y="-138.8" font-family="Courier,monospace" font-size="9.00">provides</text>
</a>
</g>
</g>
<!-- rdf_db -->
<g id="node3" class="node">
<title>rdf_db</title>
<g id="a_node3"><a xlink:title="module">
<polygon fill="gainsboro" stroke="black" stroke-dasharray="5,2" points="215.52,-92 162.52,-92 162.52,-96 150.52,-96 150.52,-56 215.52,-56 215.52,-92"/>
<polyline fill="none" stroke="black" stroke-dasharray="5,2" points="150.52,-92 162.52,-92 "/>
<text text-anchor="start" x="158.82" y="-75.8" font-family="Courier,monospace" font-size="9.00"> </text>
<text text-anchor="start" x="163.72" y="-75.2" font-family="Courier,monospace" font-size="11.00">rdf_db</text>
<text text-anchor="start" x="202.82" y="-75.8" font-family="Courier,monospace" font-size="9.00"> </text>
<text text-anchor="start" x="158.82" y="-65.8" font-family="Courier,monospace" font-size="9.00"> </text>
<text text-anchor="start" x="170.92" y="-66.4" font-family="Courier,monospace" font-size="7.00">module</text>
<text text-anchor="start" x="202.82" y="-65.8" font-family="Courier,monospace" font-size="9.00"> </text>
</a>
</g>
</g>
<!-- rdf_entailment&#45;&gt;rdf_db -->
<g id="edge2" class="edge">
<title>rdf_entailment&#45;&gt;rdf_db</title>
<path fill="none" stroke="black" d="M141.19,-190.97C150.87,-164.14 163.83,-128.19 172.75,-103.47"/>
<polygon fill="black" stroke="black" points="172.82,-103.29 171.09,-96.29 176.89,-92 172.82,-103.29"/>
<g id="a_edge2&#45;label"><a xlink:title="use_module">
<text text-anchor="middle" x="187.02" y="-138.8" font-family="Courier,monospace" font-size="9.00">use_module</text>
</a>
</g>
</g>
</g>
</svg>
