<?xml version="1.0" encoding="UTF-8" standalone="no"?>
<!DOCTYPE svg PUBLIC "-//W3C//DTD SVG 1.1//EN"
 "http://www.w3.org/Graphics/SVG/1.1/DTD/svg11.dtd">
<!-- Generated by graphviz version 2.41.20190410.0829 (20190410.0829)
 -->
<!-- Title: rdf_io.pl Pages: 1 -->
<svg width="554pt" height="454pt"
 viewBox="72.00 72.00 482.00 382.00" xmlns="http://www.w3.org/2000/svg" xmlns:xlink="http://www.w3.org/1999/xlink">
<g id="graph0" class="graph" transform="scale(1 1) rotate(0) translate(76 378)">
<title>rdf_io.pl</title>
<polygon fill="white" stroke="transparent" points="-4,4 -4,-306 406,-306 406,4 -4,4"/>
<text text-anchor="start" x="8" y="-16" font-family="Courier,monospace" font-size="10.00" fill="#8b8989">ClioPatria &#45; an RDF application platform</text>
<text text-anchor="start" x="8" y="-6" font-family="Courier,monospace" font-size="10.00" fill="#8b8989">Generated on 2019/04/17, 13:04</text>
<g id="clust1" class="cluster">
<title>cluster_file_/Users/pmoura/ClioPatria/rdfql/rdf_io.pl</title>
<g id="a_clust1"><a xlink:href="https://github.com/ClioPatria/ClioPatria/tree/add57aa2039eed4033cf96e96c293b2052e88f41/rdfql/rdf_io.pl" xlink:title="https://github.com/ClioPatria/ClioPatria/tree/add57aa2039eed4033cf96e96c293b2052e88f41/rdfql/rdf_io.pl">
<path fill="snow" stroke="#8b8989" d="M20,-36C20,-36 382,-36 382,-36 388,-36 394,-42 394,-48 394,-48 394,-282 394,-282 394,-288 388,-294 382,-294 382,-294 20,-294 20,-294 14,-294 8,-288 8,-282 8,-282 8,-48 8,-48 8,-42 14,-36 20,-36"/>
<text text-anchor="middle" x="43" y="-282" font-family="Courier,monospace" font-size="10.00" fill="#8b8989">rdf_io.pl</text>
</a>
</g>
</g>
<g id="clust2" class="cluster">
<title>cluster_other</title>
<g id="a_clust2"><a xlink:title="(external entities)">
<path fill="white" stroke="#8b8989" d="M30,-46C30,-46 372,-46 372,-46 378,-46 384,-52 384,-58 384,-58 384,-108 384,-108 384,-114 378,-120 372,-120 372,-120 30,-120 30,-120 24,-120 18,-114 18,-108 18,-108 18,-58 18,-58 18,-52 24,-46 30,-46"/>
<text text-anchor="middle" x="83.01" y="-108" font-family="Courier,monospace" font-size="10.00" fill="#8b8989">(external entities)</text>
</a>
</g>
</g>
<!-- rdf_io -->
<g id="node1" class="node">
<title>rdf_io</title>
<g id="a_node1"><a xlink:title="module">
<polygon fill="gainsboro" stroke="black" points="256,-266 166,-266 166,-270 154,-270 154,-191 256,-191 256,-266"/>
<polyline fill="none" stroke="black" points="154,-266 166,-266 "/>
<g id="a_node1_0"><a xlink:href="rdf_io_module_xref_diagram.svg" xlink:title="Zoom">
<image xlink:href="zoom.png" width="11px" height="11px" preserveAspectRatio="xMinYMin meet" x="162" y="-261.5"/>
</a>
</g>
<text text-anchor="start" x="164.8" y="-242.3" font-family="Courier,monospace" font-size="9.00"> </text>
<text text-anchor="start" x="188.2" y="-241.7" font-family="Courier,monospace" font-size="11.00">rdf_io</text>
<text text-anchor="start" x="242.8" y="-242.3" font-family="Courier,monospace" font-size="9.00"> </text>
<text text-anchor="start" x="164.8" y="-232.3" font-family="Courier,monospace" font-size="9.00"> </text>
<text text-anchor="start" x="195.4" y="-232.9" font-family="Courier,monospace" font-size="7.00">module</text>
<text text-anchor="start" x="242.8" y="-232.3" font-family="Courier,monospace" font-size="9.00"> </text>
<text text-anchor="start" x="164.8" y="-223.3" font-family="Courier,monospace" font-size="9.00"> </text>
<text text-anchor="start" x="164.8" y="-214.3" font-family="Courier,monospace" font-size="9.00"> </text>
<text text-anchor="start" x="172.89" y="-214.3" font-family="Courier,monospace" font-size="9.00">write_graph/2</text>
<text text-anchor="start" x="242.8" y="-214.3" font-family="Courier,monospace" font-size="9.00"> </text>
<text text-anchor="start" x="164.8" y="-205.3" font-family="Courier,monospace" font-size="9.00"> </text>
<text text-anchor="start" x="172.89" y="-205.3" font-family="Courier,monospace" font-size="9.00">write_table/2</text>
<text text-anchor="start" x="242.8" y="-205.3" font-family="Courier,monospace" font-size="9.00"> </text>
<text text-anchor="start" x="164.8" y="-196.3" font-family="Courier,monospace" font-size="9.00"> </text>
<text text-anchor="start" x="172.89" y="-196.3" font-family="Courier,monospace" font-size="9.00">get_triples/3</text>
<text text-anchor="start" x="242.8" y="-196.3" font-family="Courier,monospace" font-size="9.00"> </text>
</a>
</g>
</g>
<!-- swi_option -->
<g id="node2" class="node">
<title>swi_option</title>
<g id="a_node2"><a xlink:title="module">
<polygon fill="gainsboro" stroke="black" stroke-dasharray="5,2" points="120,-92 40,-92 40,-96 28,-96 28,-56 120,-56 120,-92"/>
<polyline fill="none" stroke="black" stroke-dasharray="5,2" points="28,-92 40,-92 "/>
<text text-anchor="start" x="35.8" y="-75.8" font-family="Courier,monospace" font-size="9.00"> </text>
<text text-anchor="start" x="40.99" y="-75.2" font-family="Courier,monospace" font-size="11.00">swi_option</text>
<text text-anchor="start" x="106.8" y="-75.8" font-family="Courier,monospace" font-size="9.00"> </text>
<text text-anchor="start" x="35.8" y="-65.8" font-family="Courier,monospace" font-size="9.00"> </text>
<text text-anchor="start" x="61.4" y="-66.4" font-family="Courier,monospace" font-size="7.00">module</text>
<text text-anchor="start" x="106.8" y="-65.8" font-family="Courier,monospace" font-size="9.00"> </text>
</a>
</g>
</g>
<!-- rdf_io&#45;&gt;swi_option -->
<g id="edge1" class="edge">
<title>rdf_io&#45;&gt;swi_option</title>
<path fill="none" stroke="black" d="M153.84,-191.35C137.8,-178.33 120.93,-162.69 107.99,-146 98.09,-133.22 90.07,-117.08 84.32,-103.42"/>
<polygon fill="black" stroke="black" points="84.3,-103.36 78.36,-99.26 79.86,-92.21 84.3,-103.36"/>
<g id="a_edge1&#45;label"><a xlink:title="use_module">
<text text-anchor="middle" x="134" y="-138.8" font-family="Courier,monospace" font-size="9.00">use_module</text>
</a>
</g>
</g>
<!-- lists -->
<g id="node3" class="node">
<title>lists</title>
<g id="a_node3"><a xlink:title="module">
<polygon fill="gainsboro" stroke="black" stroke-dasharray="5,2" points="197.5,-92 150.5,-92 150.5,-96 138.5,-96 138.5,-56 197.5,-56 197.5,-92"/>
<polyline fill="none" stroke="black" stroke-dasharray="5,2" points="138.5,-92 150.5,-92 "/>
<text text-anchor="start" x="146.8" y="-75.8" font-family="Courier,monospace" font-size="9.00"> </text>
<text text-anchor="start" x="152" y="-75.2" font-family="Courier,monospace" font-size="11.00">lists</text>
<text text-anchor="start" x="184.8" y="-75.8" font-family="Courier,monospace" font-size="9.00"> </text>
<text text-anchor="start" x="146.8" y="-65.8" font-family="Courier,monospace" font-size="9.00"> </text>
<text text-anchor="start" x="155.9" y="-66.4" font-family="Courier,monospace" font-size="7.00">module</text>
<text text-anchor="start" x="184.8" y="-65.8" font-family="Courier,monospace" font-size="9.00"> </text>
</a>
</g>
</g>
<!-- rdf_io&#45;&gt;lists -->
<g id="edge2" class="edge">
<title>rdf_io&#45;&gt;lists</title>
<path fill="none" stroke="black" d="M184.38,-190.92C177.77,-177.26 171.31,-161.34 167.99,-146 165.06,-132.45 164.7,-117.09 165.23,-104.14"/>
<polygon fill="black" stroke="black" points="165.23,-104.12 161.62,-97.88 165.99,-92.14 165.23,-104.12"/>
<g id="a_edge2&#45;label"><a xlink:title="use_module">
<text text-anchor="middle" x="194" y="-138.8" font-family="Courier,monospace" font-size="9.00">use_module</text>
</a>
</g>
</g>
<!-- rdf -->
<g id="node4" class="node">
<title>rdf</title>
<g id="a_node4"><a xlink:title="module">
<polygon fill="gainsboro" stroke="black" stroke-dasharray="5,2" points="270,-92 228,-92 228,-96 216,-96 216,-56 270,-56 270,-92"/>
<polyline fill="none" stroke="black" stroke-dasharray="5,2" points="216,-92 228,-92 "/>
<text text-anchor="start" x="225.8" y="-75.8" font-family="Courier,monospace" font-size="9.00"> </text>
<text text-anchor="start" x="233.6" y="-75.2" font-family="Courier,monospace" font-size="11.00">rdf</text>
<text text-anchor="start" x="255.8" y="-75.8" font-family="Courier,monospace" font-size="9.00"> </text>
<text text-anchor="start" x="225.8" y="-65.8" font-family="Courier,monospace" font-size="9.00"> </text>
<text text-anchor="start" x="230.9" y="-66.4" font-family="Courier,monospace" font-size="7.00">module</text>
<text text-anchor="start" x="255.8" y="-65.8" font-family="Courier,monospace" font-size="9.00"> </text>
</a>
</g>
</g>
<!-- rdf_io&#45;&gt;rdf -->
<g id="edge3" class="edge">
<title>rdf_io&#45;&gt;rdf</title>
<path fill="none" stroke="black" d="M214.1,-190.97C220.76,-164.26 229.66,-128.52 235.82,-103.81"/>
<polygon fill="black" stroke="black" points="235.86,-103.65 233.43,-96.86 238.76,-92 235.86,-103.65"/>
<g id="a_edge3&#45;label"><a xlink:title="use_module">
<text text-anchor="middle" x="254" y="-138.8" font-family="Courier,monospace" font-size="9.00">use_module</text>
</a>
</g>
</g>
<!-- rdf_write -->
<g id="node5" class="node">
<title>rdf_write</title>
<g id="a_node5"><a xlink:title="module">
<polygon fill="gainsboro" stroke="black" stroke-dasharray="5,2" points="373.5,-92 300.5,-92 300.5,-96 288.5,-96 288.5,-56 373.5,-56 373.5,-92"/>
<polyline fill="none" stroke="black" stroke-dasharray="5,2" points="288.5,-92 300.5,-92 "/>
<text text-anchor="start" x="296.8" y="-75.8" font-family="Courier,monospace" font-size="9.00"> </text>
<text text-anchor="start" x="301.8" y="-75.2" font-family="Courier,monospace" font-size="11.00">rdf_write</text>
<text text-anchor="start" x="360.8" y="-75.8" font-family="Courier,monospace" font-size="9.00"> </text>
<text text-anchor="start" x="296.8" y="-65.8" font-family="Courier,monospace" font-size="9.00"> </text>
<text text-anchor="start" x="318.9" y="-66.4" font-family="Courier,monospace" font-size="7.00">module</text>
<text text-anchor="start" x="360.8" y="-65.8" font-family="Courier,monospace" font-size="9.00"> </text>
</a>
</g>
</g>
<!-- rdf_io&#45;&gt;rdf_write -->
<g id="edge4" class="edge">
<title>rdf_io&#45;&gt;rdf_write</title>
<path fill="none" stroke="black" d="M244.1,-190.83C257.68,-177.29 272.6,-161.47 285,-146 295.91,-132.39 306.59,-116.13 314.92,-102.6"/>
<polygon fill="black" stroke="black" points="315.11,-102.28 314.78,-95.08 321.3,-92.01 315.11,-102.28"/>
<g id="a_edge4&#45;label"><a xlink:title="use_module">
<text text-anchor="middle" x="317" y="-138.8" font-family="Courier,monospace" font-size="9.00">use_module</text>
</a>
</g>
</g>
</g>
</svg>
