<?xml version="1.0" encoding="UTF-8" standalone="no"?>
<!DOCTYPE svg PUBLIC "-//W3C//DTD SVG 1.1//EN"
 "http://www.w3.org/Graphics/SVG/1.1/DTD/svg11.dtd">
<!-- Generated by graphviz version 2.41.20190410.0829 (20190410.0829)
 -->
<!-- Title: rdf_bnode.pl Pages: 1 -->
<svg width="408pt" height="436pt"
 viewBox="72.00 72.00 336.04 364.00" xmlns="http://www.w3.org/2000/svg" xmlns:xlink="http://www.w3.org/1999/xlink">
<g id="graph0" class="graph" transform="scale(1 1) rotate(0) translate(76 360)">
<title>rdf_bnode.pl</title>
<polygon fill="white" stroke="transparent" points="-4,4 -4,-288 260.04,-288 260.04,4 -4,4"/>
<text text-anchor="start" x="8" y="-16" font-family="Courier,monospace" font-size="10.00" fill="#8b8989">ClioPatria &#45; an RDF application platform</text>
<text text-anchor="start" x="8" y="-6" font-family="Courier,monospace" font-size="10.00" fill="#8b8989">Generated on 2019/04/17, 13:04</text>
<g id="clust1" class="cluster">
<title>cluster_file_/Users/pmoura/ClioPatria/lib/semweb/rdf_bnode.pl</title>
<g id="a_clust1"><a xlink:href="https://github.com/ClioPatria/ClioPatria/tree/add57aa2039eed4033cf96e96c293b2052e88f41/lib/semweb/rdf_bnode.pl" xlink:title="https://github.com/ClioPatria/ClioPatria/tree/add57aa2039eed4033cf96e96c293b2052e88f41/lib/semweb/rdf_bnode.pl">
<path fill="snow" stroke="#8b8989" d="M48.52,-36C48.52,-36 207.52,-36 207.52,-36 213.52,-36 219.52,-42 219.52,-48 219.52,-48 219.52,-264 219.52,-264 219.52,-270 213.52,-276 207.52,-276 207.52,-276 48.52,-276 48.52,-276 42.52,-276 36.52,-270 36.52,-264 36.52,-264 36.52,-48 36.52,-48 36.52,-42 42.52,-36 48.52,-36"/>
<text text-anchor="middle" x="80.53" y="-264" font-family="Courier,monospace" font-size="10.00" fill="#8b8989">rdf_bnode.pl</text>
</a>
</g>
</g>
<g id="clust2" class="cluster">
<title>cluster_other</title>
<g id="a_clust2"><a xlink:title="(external entities)">
<path fill="white" stroke="#8b8989" d="M58.52,-46C58.52,-46 197.52,-46 197.52,-46 203.52,-46 209.52,-52 209.52,-58 209.52,-58 209.52,-108 209.52,-108 209.52,-114 203.52,-120 197.52,-120 197.52,-120 58.52,-120 58.52,-120 52.52,-120 46.52,-114 46.52,-108 46.52,-108 46.52,-58 46.52,-58 46.52,-52 52.52,-46 58.52,-46"/>
<text text-anchor="middle" x="111.53" y="-108" font-family="Courier,monospace" font-size="10.00" fill="#8b8989">(external entities)</text>
</a>
</g>
</g>
<!-- rdf_bnode -->
<g id="node1" class="node">
<title>rdf_bnode</title>
<g id="a_node1"><a xlink:title="module">
<polygon fill="gainsboro" stroke="black" points="172.52,-248 88.52,-248 88.52,-252 76.52,-252 76.52,-191 172.52,-191 172.52,-248"/>
<polyline fill="none" stroke="black" points="76.52,-248 88.52,-248 "/>
<g id="a_node1_0"><a xlink:href="rdf_bnode_module_xref_diagram.svg" xlink:title="Zoom">
<image xlink:href="zoom.png" width="11px" height="11px" preserveAspectRatio="xMinYMin meet" x="84.5195" y="-243.5"/>
</a>
</g>
<text text-anchor="start" x="87.32" y="-224.3" font-family="Courier,monospace" font-size="9.00"> </text>
<text text-anchor="start" x="97.81" y="-223.7" font-family="Courier,monospace" font-size="11.00">rdf_bnode</text>
<text text-anchor="start" x="159.32" y="-224.3" font-family="Courier,monospace" font-size="9.00"> </text>
<text text-anchor="start" x="87.32" y="-214.3" font-family="Courier,monospace" font-size="9.00"> </text>
<text text-anchor="start" x="114.92" y="-214.9" font-family="Courier,monospace" font-size="7.00">module</text>
<text text-anchor="start" x="159.32" y="-214.3" font-family="Courier,monospace" font-size="9.00"> </text>
<text text-anchor="start" x="87.32" y="-205.3" font-family="Courier,monospace" font-size="9.00"> </text>
<text text-anchor="start" x="87.32" y="-196.3" font-family="Courier,monospace" font-size="9.00"> </text>
<text text-anchor="start" x="95.11" y="-196.3" font-family="Courier,monospace" font-size="9.00">bnode_vars/3</text>
<text text-anchor="start" x="159.32" y="-196.3" font-family="Courier,monospace" font-size="9.00"> </text>
</a>
</g>
</g>
<!-- assoc -->
<g id="node2" class="node">
<title>assoc</title>
<g id="a_node2"><a xlink:title="module">
<polygon fill="gainsboro" stroke="black" stroke-dasharray="5,2" points="116.02,-92 69.02,-92 69.02,-96 57.02,-96 57.02,-56 116.02,-56 116.02,-92"/>
<polyline fill="none" stroke="black" stroke-dasharray="5,2" points="57.02,-92 69.02,-92 "/>
<text text-anchor="start" x="65.32" y="-75.8" font-family="Courier,monospace" font-size="9.00"> </text>
<text text-anchor="start" x="70.52" y="-75.2" font-family="Courier,monospace" font-size="11.00">assoc</text>
<text text-anchor="start" x="103.32" y="-75.8" font-family="Courier,monospace" font-size="9.00"> </text>
<text text-anchor="start" x="65.32" y="-65.8" font-family="Courier,monospace" font-size="9.00"> </text>
<text text-anchor="start" x="74.42" y="-66.4" font-family="Courier,monospace" font-size="7.00">module</text>
<text text-anchor="start" x="103.32" y="-65.8" font-family="Courier,monospace" font-size="9.00"> </text>
</a>
</g>
</g>
<!-- rdf_bnode&#45;&gt;assoc -->
<g id="edge1" class="edge">
<title>rdf_bnode&#45;&gt;assoc</title>
<path fill="none" stroke="black" d="M102.37,-190.98C93.41,-178.11 84.1,-162.1 79.51,-146 75.69,-132.6 76.58,-117.27 78.78,-104.29"/>
<polygon fill="black" stroke="black" points="78.84,-104 76.15,-97.31 81.29,-92.25 78.84,-104"/>
<g id="a_edge1&#45;label"><a xlink:title="use_module">
<text text-anchor="middle" x="106.52" y="-138.8" font-family="Courier,monospace" font-size="9.00">use_module</text>
</a>
</g>
</g>
<!-- rdf_db -->
<g id="node3" class="node">
<title>rdf_db</title>
<g id="a_node3"><a xlink:title="module">
<polygon fill="gainsboro" stroke="black" stroke-dasharray="5,2" points="199.02,-92 146.02,-92 146.02,-96 134.02,-96 134.02,-56 199.02,-56 199.02,-92"/>
<polyline fill="none" stroke="black" stroke-dasharray="5,2" points="134.02,-92 146.02,-92 "/>
<text text-anchor="start" x="142.32" y="-75.8" font-family="Courier,monospace" font-size="9.00"> </text>
<text text-anchor="start" x="147.22" y="-75.2" font-family="Courier,monospace" font-size="11.00">rdf_db</text>
<text text-anchor="start" x="186.32" y="-75.8" font-family="Courier,monospace" font-size="9.00"> </text>
<text text-anchor="start" x="142.32" y="-65.8" font-family="Courier,monospace" font-size="9.00"> </text>
<text text-anchor="start" x="154.42" y="-66.4" font-family="Courier,monospace" font-size="7.00">module</text>
<text text-anchor="start" x="186.32" y="-65.8" font-family="Courier,monospace" font-size="9.00"> </text>
</a>
</g>
</g>
<!-- rdf_bnode&#45;&gt;rdf_db -->
<g id="edge2" class="edge">
<title>rdf_bnode&#45;&gt;rdf_db</title>
<path fill="none" stroke="black" d="M132.62,-190.83C139.92,-165.89 150.61,-129.34 158.03,-104"/>
<polygon fill="black" stroke="black" points="158.11,-103.74 155.96,-96.86 161.48,-92.22 158.11,-103.74"/>
<g id="a_edge2&#45;label"><a xlink:title="use_module">
<text text-anchor="middle" x="174.52" y="-138.8" font-family="Courier,monospace" font-size="9.00">use_module</text>
</a>
</g>
</g>
</g>
</svg>
