<?xml version="1.0" encoding="UTF-8" standalone="no"?>
<!DOCTYPE svg PUBLIC "-//W3C//DTD SVG 1.1//EN"
 "http://www.w3.org/Graphics/SVG/1.1/DTD/svg11.dtd">
<!-- Generated by graphviz version 2.41.20190410.0829 (20190410.0829)
 -->
<!-- Title: rdf_schema.pl Pages: 1 -->
<svg width="501pt" height="436pt"
 viewBox="72.00 72.00 429.00 364.00" xmlns="http://www.w3.org/2000/svg" xmlns:xlink="http://www.w3.org/1999/xlink">
<g id="graph0" class="graph" transform="scale(1 1) rotate(0) translate(76 360)">
<title>rdf_schema.pl</title>
<polygon fill="white" stroke="transparent" points="-4,4 -4,-288 353,-288 353,4 -4,4"/>
<text text-anchor="start" x="8" y="-16" font-family="Courier,monospace" font-size="10.00" fill="#8b8989">ClioPatria &#45; an RDF application platform</text>
<text text-anchor="start" x="8" y="-6" font-family="Courier,monospace" font-size="10.00" fill="#8b8989">Generated on 2019/04/17, 13:04</text>
<g id="clust1" class="cluster">
<title>cluster_file_/Users/pmoura/ClioPatria/lib/semweb/rdf_schema.pl</title>
<g id="a_clust1"><a xlink:href="https://github.com/ClioPatria/ClioPatria/tree/add57aa2039eed4033cf96e96c293b2052e88f41/lib/semweb/rdf_schema.pl" xlink:title="https://github.com/ClioPatria/ClioPatria/tree/add57aa2039eed4033cf96e96c293b2052e88f41/lib/semweb/rdf_schema.pl">
<path fill="snow" stroke="#8b8989" d="M20,-36C20,-36 329,-36 329,-36 335,-36 341,-42 341,-48 341,-48 341,-264 341,-264 341,-270 335,-276 329,-276 329,-276 20,-276 20,-276 14,-276 8,-270 8,-264 8,-264 8,-48 8,-48 8,-42 14,-36 20,-36"/>
<text text-anchor="middle" x="55.01" y="-264" font-family="Courier,monospace" font-size="10.00" fill="#8b8989">rdf_schema.pl</text>
</a>
</g>
</g>
<g id="clust2" class="cluster">
<title>cluster_other</title>
<g id="a_clust2"><a xlink:title="(external entities)">
<path fill="white" stroke="#8b8989" d="M30,-46C30,-46 319,-46 319,-46 325,-46 331,-52 331,-58 331,-58 331,-108 331,-108 331,-114 325,-120 319,-120 319,-120 30,-120 30,-120 24,-120 18,-114 18,-108 18,-108 18,-58 18,-58 18,-52 24,-46 30,-46"/>
<text text-anchor="middle" x="83.01" y="-108" font-family="Courier,monospace" font-size="10.00" fill="#8b8989">(external entities)</text>
</a>
</g>
</g>
<!-- rdf_schema -->
<g id="node1" class="node">
<title>rdf_schema</title>
<g id="a_node1"><a xlink:title="module">
<polygon fill="gainsboro" stroke="black" points="225.5,-248 108.5,-248 108.5,-252 96.5,-252 96.5,-191 225.5,-191 225.5,-248"/>
<polyline fill="none" stroke="black" points="96.5,-248 108.5,-248 "/>
<g id="a_node1_0"><a xlink:href="rdf_schema_module_xref_diagram.svg" xlink:title="Zoom">
<image xlink:href="zoom.png" width="11px" height="11px" preserveAspectRatio="xMinYMin meet" x="105" y="-243.5"/>
</a>
</g>
<text text-anchor="start" x="107.8" y="-224.3" font-family="Courier,monospace" font-size="9.00"> </text>
<text text-anchor="start" x="131.49" y="-223.7" font-family="Courier,monospace" font-size="11.00">rdf_schema</text>
<text text-anchor="start" x="212.8" y="-224.3" font-family="Courier,monospace" font-size="9.00"> </text>
<text text-anchor="start" x="107.8" y="-214.3" font-family="Courier,monospace" font-size="9.00"> </text>
<text text-anchor="start" x="151.9" y="-214.9" font-family="Courier,monospace" font-size="7.00">module</text>
<text text-anchor="start" x="212.8" y="-214.3" font-family="Courier,monospace" font-size="9.00"> </text>
<text text-anchor="start" x="107.8" y="-205.3" font-family="Courier,monospace" font-size="9.00"> </text>
<text text-anchor="start" x="107.8" y="-196.3" font-family="Courier,monospace" font-size="9.00"> </text>
<text text-anchor="start" x="115.89" y="-196.3" font-family="Courier,monospace" font-size="9.00">rdf_graph_schema/2</text>
<text text-anchor="start" x="212.8" y="-196.3" font-family="Courier,monospace" font-size="9.00"> </text>
</a>
</g>
</g>
<!-- rdf_db -->
<g id="node2" class="node">
<title>rdf_db</title>
<g id="a_node2"><a xlink:title="module">
<polygon fill="gainsboro" stroke="black" stroke-dasharray="5,2" points="93.5,-92 40.5,-92 40.5,-96 28.5,-96 28.5,-56 93.5,-56 93.5,-92"/>
<polyline fill="none" stroke="black" stroke-dasharray="5,2" points="28.5,-92 40.5,-92 "/>
<text text-anchor="start" x="36.8" y="-75.8" font-family="Courier,monospace" font-size="9.00"> </text>
<text text-anchor="start" x="41.7" y="-75.2" font-family="Courier,monospace" font-size="11.00">rdf_db</text>
<text text-anchor="start" x="80.8" y="-75.8" font-family="Courier,monospace" font-size="9.00"> </text>
<text text-anchor="start" x="36.8" y="-65.8" font-family="Courier,monospace" font-size="9.00"> </text>
<text text-anchor="start" x="48.9" y="-66.4" font-family="Courier,monospace" font-size="7.00">module</text>
<text text-anchor="start" x="80.8" y="-65.8" font-family="Courier,monospace" font-size="9.00"> </text>
</a>
</g>
</g>
<!-- rdf_schema&#45;&gt;rdf_db -->
<g id="edge1" class="edge">
<title>rdf_schema&#45;&gt;rdf_db</title>
<path fill="none" stroke="black" d="M107.25,-190.91C90.41,-179.42 73.71,-164.41 63.99,-146 57.32,-133.35 56.07,-117.59 56.71,-104.14"/>
<polygon fill="black" stroke="black" points="56.72,-104.08 53.27,-97.74 57.78,-92.12 56.72,-104.08"/>
<g id="a_edge1&#45;label"><a xlink:title="use_module">
<text text-anchor="middle" x="91" y="-138.8" font-family="Courier,monospace" font-size="9.00">use_module</text>
</a>
</g>
</g>
<!-- rdfs -->
<g id="node3" class="node">
<title>rdfs</title>
<g id="a_node3"><a xlink:title="module">
<polygon fill="gainsboro" stroke="black" stroke-dasharray="5,2" points="166,-92 124,-92 124,-96 112,-96 112,-56 166,-56 166,-92"/>
<polyline fill="none" stroke="black" stroke-dasharray="5,2" points="112,-92 124,-92 "/>
<text text-anchor="start" x="120.8" y="-75.8" font-family="Courier,monospace" font-size="9.00"> </text>
<text text-anchor="start" x="125.8" y="-75.2" font-family="Courier,monospace" font-size="11.00">rdfs</text>
<text text-anchor="start" x="151.8" y="-75.8" font-family="Courier,monospace" font-size="9.00"> </text>
<text text-anchor="start" x="120.8" y="-65.8" font-family="Courier,monospace" font-size="9.00"> </text>
<text text-anchor="start" x="126.4" y="-66.4" font-family="Courier,monospace" font-size="7.00">module</text>
<text text-anchor="start" x="151.8" y="-65.8" font-family="Courier,monospace" font-size="9.00"> </text>
</a>
</g>
</g>
<!-- rdf_schema&#45;&gt;rdfs -->
<g id="edge2" class="edge">
<title>rdf_schema&#45;&gt;rdfs</title>
<path fill="none" stroke="black" d="M142.95,-190.78C135.51,-177.75 127.76,-161.66 123.99,-146 120.67,-132.17 123.19,-116.73 127.06,-103.78"/>
<polygon fill="black" stroke="black" points="127.11,-103.62 125.29,-96.64 131.03,-92.28 127.11,-103.62"/>
<g id="a_edge2&#45;label"><a xlink:title="use_module">
<text text-anchor="middle" x="150" y="-138.8" font-family="Courier,monospace" font-size="9.00">use_module</text>
</a>
</g>
</g>
<!-- pairs -->
<g id="node4" class="node">
<title>pairs</title>
<g id="a_node4"><a xlink:title="module">
<polygon fill="gainsboro" stroke="black" stroke-dasharray="5,2" points="243.5,-92 196.5,-92 196.5,-96 184.5,-96 184.5,-56 243.5,-56 243.5,-92"/>
<polyline fill="none" stroke="black" stroke-dasharray="5,2" points="184.5,-92 196.5,-92 "/>
<text text-anchor="start" x="192.8" y="-75.8" font-family="Courier,monospace" font-size="9.00"> </text>
<text text-anchor="start" x="198" y="-75.2" font-family="Courier,monospace" font-size="11.00">pairs</text>
<text text-anchor="start" x="230.8" y="-75.8" font-family="Courier,monospace" font-size="9.00"> </text>
<text text-anchor="start" x="192.8" y="-65.8" font-family="Courier,monospace" font-size="9.00"> </text>
<text text-anchor="start" x="201.9" y="-66.4" font-family="Courier,monospace" font-size="7.00">module</text>
<text text-anchor="start" x="230.8" y="-65.8" font-family="Courier,monospace" font-size="9.00"> </text>
</a>
</g>
</g>
<!-- rdf_schema&#45;&gt;pairs -->
<g id="edge3" class="edge">
<title>rdf_schema&#45;&gt;pairs</title>
<path fill="none" stroke="black" d="M171.22,-190.83C180.47,-165.77 194.05,-129.01 203.42,-103.65"/>
<polygon fill="black" stroke="black" points="203.48,-103.48 201.81,-96.46 207.64,-92.22 203.48,-103.48"/>
<g id="a_edge3&#45;label"><a xlink:title="use_module">
<text text-anchor="middle" x="217" y="-138.8" font-family="Courier,monospace" font-size="9.00">use_module</text>
</a>
</g>
</g>
<!-- lists -->
<g id="node5" class="node">
<title>lists</title>
<g id="a_node5"><a xlink:title="module">
<polygon fill="gainsboro" stroke="black" stroke-dasharray="5,2" points="320.5,-92 273.5,-92 273.5,-96 261.5,-96 261.5,-56 320.5,-56 320.5,-92"/>
<polyline fill="none" stroke="black" stroke-dasharray="5,2" points="261.5,-92 273.5,-92 "/>
<text text-anchor="start" x="269.8" y="-75.8" font-family="Courier,monospace" font-size="9.00"> </text>
<text text-anchor="start" x="275" y="-75.2" font-family="Courier,monospace" font-size="11.00">lists</text>
<text text-anchor="start" x="307.8" y="-75.8" font-family="Courier,monospace" font-size="9.00"> </text>
<text text-anchor="start" x="269.8" y="-65.8" font-family="Courier,monospace" font-size="9.00"> </text>
<text text-anchor="start" x="278.9" y="-66.4" font-family="Courier,monospace" font-size="7.00">module</text>
<text text-anchor="start" x="307.8" y="-65.8" font-family="Courier,monospace" font-size="9.00"> </text>
</a>
</g>
</g>
<!-- rdf_schema&#45;&gt;lists -->
<g id="edge4" class="edge">
<title>rdf_schema&#45;&gt;lists</title>
<path fill="none" stroke="black" d="M199.42,-191C215.52,-178.37 233.77,-162.55 248,-146 259.23,-132.94 269.35,-116.6 276.95,-102.88"/>
<polygon fill="black" stroke="black" points="277.04,-102.7 276.35,-95.52 282.7,-92.11 277.04,-102.7"/>
<g id="a_edge4&#45;label"><a xlink:title="use_module">
<text text-anchor="middle" x="282" y="-138.8" font-family="Courier,monospace" font-size="9.00">use_module</text>
</a>
</g>
</g>
</g>
</svg>
