<?xml version="1.0" encoding="UTF-8" standalone="no"?>
<!DOCTYPE svg PUBLIC "-//W3C//DTD SVG 1.1//EN"
 "http://www.w3.org/Graphics/SVG/1.1/DTD/svg11.dtd">
<!-- Generated by graphviz version 2.41.20190410.0829 (20190410.0829)
 -->
<!-- Title: rdf_describe.pl Pages: 1 -->
<svg width="505pt" height="490pt"
 viewBox="72.00 72.00 433.00 418.00" xmlns="http://www.w3.org/2000/svg" xmlns:xlink="http://www.w3.org/1999/xlink">
<g id="graph0" class="graph" transform="scale(1 1) rotate(0) translate(76 414)">
<title>rdf_describe.pl</title>
<polygon fill="white" stroke="transparent" points="-4,4 -4,-342 357,-342 357,4 -4,4"/>
<text text-anchor="start" x="8" y="-16" font-family="Courier,monospace" font-size="10.00" fill="#8b8989">ClioPatria &#45; an RDF application platform</text>
<text text-anchor="start" x="8" y="-6" font-family="Courier,monospace" font-size="10.00" fill="#8b8989">Generated on 2019/04/17, 13:04</text>
<g id="clust1" class="cluster">
<title>cluster_file_/Users/pmoura/ClioPatria/lib/semweb/rdf_describe.pl</title>
<g id="a_clust1"><a xlink:href="https://github.com/ClioPatria/ClioPatria/tree/add57aa2039eed4033cf96e96c293b2052e88f41/lib/semweb/rdf_describe.pl" xlink:title="https://github.com/ClioPatria/ClioPatria/tree/add57aa2039eed4033cf96e96c293b2052e88f41/lib/semweb/rdf_describe.pl">
<path fill="snow" stroke="#8b8989" d="M20,-36C20,-36 333,-36 333,-36 339,-36 345,-42 345,-48 345,-48 345,-318 345,-318 345,-324 339,-330 333,-330 333,-330 20,-330 20,-330 14,-330 8,-324 8,-318 8,-318 8,-48 8,-48 8,-42 14,-36 20,-36"/>
<text text-anchor="middle" x="61.01" y="-318" font-family="Courier,monospace" font-size="10.00" fill="#8b8989">rdf_describe.pl</text>
</a>
</g>
</g>
<g id="clust2" class="cluster">
<title>cluster_other</title>
<g id="a_clust2"><a xlink:title="(external entities)">
<path fill="white" stroke="#8b8989" d="M30,-46C30,-46 323,-46 323,-46 329,-46 335,-52 335,-58 335,-58 335,-108 335,-108 335,-114 329,-120 323,-120 323,-120 30,-120 30,-120 24,-120 18,-114 18,-108 18,-108 18,-58 18,-58 18,-52 24,-46 30,-46"/>
<text text-anchor="middle" x="83.01" y="-108" font-family="Courier,monospace" font-size="10.00" fill="#8b8989">(external entities)</text>
</a>
</g>
</g>
<!-- rdf_describe -->
<g id="node1" class="node">
<title>rdf_describe</title>
<g id="a_node1"><a xlink:title="module">
<polygon fill="gainsboro" stroke="black" points="251,-302 91,-302 91,-306 79,-306 79,-191 251,-191 251,-302"/>
<polyline fill="none" stroke="black" points="79,-302 91,-302 "/>
<g id="a_node1_0"><a xlink:href="rdf_describe_module_xref_diagram.svg" xlink:title="Zoom">
<image xlink:href="zoom.png" width="11px" height="11px" preserveAspectRatio="xMinYMin meet" x="87" y="-297.5"/>
</a>
</g>
<text text-anchor="start" x="89.8" y="-278.3" font-family="Courier,monospace" font-size="9.00"> </text>
<text text-anchor="start" x="128.39" y="-277.7" font-family="Courier,monospace" font-size="11.00">rdf_describe</text>
<text text-anchor="start" x="237.8" y="-278.3" font-family="Courier,monospace" font-size="9.00"> </text>
<text text-anchor="start" x="89.8" y="-268.3" font-family="Courier,monospace" font-size="9.00"> </text>
<text text-anchor="start" x="155.4" y="-268.9" font-family="Courier,monospace" font-size="7.00">module</text>
<text text-anchor="start" x="237.8" y="-268.3" font-family="Courier,monospace" font-size="9.00"> </text>
<text text-anchor="start" x="89.8" y="-259.3" font-family="Courier,monospace" font-size="9.00"> </text>
<text text-anchor="start" x="89.8" y="-250.3" font-family="Courier,monospace" font-size="9.00"> </text>
<text text-anchor="start" x="100.49" y="-250.3" font-family="Courier,monospace" font-size="9.00">rdf_bounded_description/5</text>
<text text-anchor="start" x="237.8" y="-250.3" font-family="Courier,monospace" font-size="9.00"> </text>
<text text-anchor="start" x="89.8" y="-241.3" font-family="Courier,monospace" font-size="9.00"> </text>
<text text-anchor="start" x="138.3" y="-241.3" font-family="Courier,monospace" font-size="9.00">graph_CBD/3</text>
<text text-anchor="start" x="237.8" y="-241.3" font-family="Courier,monospace" font-size="9.00"> </text>
<text text-anchor="start" x="89.8" y="-232.3" font-family="Courier,monospace" font-size="9.00"> </text>
<text text-anchor="start" x="135.59" y="-232.3" font-family="Courier,monospace" font-size="9.00">lcbd_label/3</text>
<text text-anchor="start" x="237.8" y="-232.3" font-family="Courier,monospace" font-size="9.00"> </text>
<text text-anchor="start" x="89.8" y="-223.3" font-family="Courier,monospace" font-size="9.00"> </text>
<text text-anchor="start" x="97.79" y="-223.3" font-family="Courier,monospace" font-size="9.00">rdf_include_reifications/3</text>
<text text-anchor="start" x="237.8" y="-223.3" font-family="Courier,monospace" font-size="9.00"> </text>
<text text-anchor="start" x="89.8" y="-214.3" font-family="Courier,monospace" font-size="9.00"> </text>
<text text-anchor="start" x="113.99" y="-214.3" font-family="Courier,monospace" font-size="9.00">rdf_include_labels/3</text>
<text text-anchor="start" x="237.8" y="-214.3" font-family="Courier,monospace" font-size="9.00"> </text>
<text text-anchor="start" x="89.8" y="-205.3" font-family="Courier,monospace" font-size="9.00"> </text>
<text text-anchor="start" x="130.19" y="-205.3" font-family="Courier,monospace" font-size="9.00">resource_CBD/3</text>
<text text-anchor="start" x="237.8" y="-205.3" font-family="Courier,monospace" font-size="9.00"> </text>
<text text-anchor="start" x="89.8" y="-196.3" font-family="Courier,monospace" font-size="9.00"> </text>
<text text-anchor="start" x="100.49" y="-196.3" font-family="Courier,monospace" font-size="9.00">rdf_bounded_description/4</text>
<text text-anchor="start" x="237.8" y="-196.3" font-family="Courier,monospace" font-size="9.00"> </text>
</a>
</g>
</g>
<!-- assoc -->
<g id="node2" class="node">
<title>assoc</title>
<g id="a_node2"><a xlink:title="module">
<polygon fill="gainsboro" stroke="black" stroke-dasharray="5,2" points="87.5,-92 40.5,-92 40.5,-96 28.5,-96 28.5,-56 87.5,-56 87.5,-92"/>
<polyline fill="none" stroke="black" stroke-dasharray="5,2" points="28.5,-92 40.5,-92 "/>
<text text-anchor="start" x="36.8" y="-75.8" font-family="Courier,monospace" font-size="9.00"> </text>
<text text-anchor="start" x="42" y="-75.2" font-family="Courier,monospace" font-size="11.00">assoc</text>
<text text-anchor="start" x="74.8" y="-75.8" font-family="Courier,monospace" font-size="9.00"> </text>
<text text-anchor="start" x="36.8" y="-65.8" font-family="Courier,monospace" font-size="9.00"> </text>
<text text-anchor="start" x="45.9" y="-66.4" font-family="Courier,monospace" font-size="7.00">module</text>
<text text-anchor="start" x="74.8" y="-65.8" font-family="Courier,monospace" font-size="9.00"> </text>
</a>
</g>
</g>
<!-- rdf_describe&#45;&gt;assoc -->
<g id="edge1" class="edge">
<title>rdf_describe&#45;&gt;assoc</title>
<path fill="none" stroke="black" d="M100.88,-190.8C88.55,-177.35 76.99,-162.13 68.99,-146 62.67,-133.26 59.8,-117.79 58.56,-104.54"/>
<polygon fill="black" stroke="black" points="58.54,-104.2 54.18,-98.46 57.8,-92.22 58.54,-104.2"/>
<g id="a_edge1&#45;label"><a xlink:title="use_module">
<text text-anchor="middle" x="96" y="-138.8" font-family="Courier,monospace" font-size="9.00">use_module</text>
</a>
</g>
</g>
<!-- rdf_db -->
<g id="node3" class="node">
<title>rdf_db</title>
<g id="a_node3"><a xlink:title="module">
<polygon fill="gainsboro" stroke="black" stroke-dasharray="5,2" points="170.5,-92 117.5,-92 117.5,-96 105.5,-96 105.5,-56 170.5,-56 170.5,-92"/>
<polyline fill="none" stroke="black" stroke-dasharray="5,2" points="105.5,-92 117.5,-92 "/>
<text text-anchor="start" x="113.8" y="-75.8" font-family="Courier,monospace" font-size="9.00"> </text>
<text text-anchor="start" x="118.7" y="-75.2" font-family="Courier,monospace" font-size="11.00">rdf_db</text>
<text text-anchor="start" x="157.8" y="-75.8" font-family="Courier,monospace" font-size="9.00"> </text>
<text text-anchor="start" x="113.8" y="-65.8" font-family="Courier,monospace" font-size="9.00"> </text>
<text text-anchor="start" x="125.9" y="-66.4" font-family="Courier,monospace" font-size="7.00">module</text>
<text text-anchor="start" x="157.8" y="-65.8" font-family="Courier,monospace" font-size="9.00"> </text>
</a>
</g>
</g>
<!-- rdf_describe&#45;&gt;rdf_db -->
<g id="edge2" class="edge">
<title>rdf_describe&#45;&gt;rdf_db</title>
<path fill="none" stroke="black" d="M136.89,-190.88C130.8,-173.98 126.54,-155.05 127.99,-137 128.86,-126.11 130.59,-114.24 132.36,-103.83"/>
<polygon fill="black" stroke="black" points="132.36,-103.82 129.5,-97.21 134.5,-92.02 132.36,-103.82"/>
<g id="a_edge2&#45;label"><a xlink:title="use_module">
<text text-anchor="middle" x="154" y="-138.8" font-family="Courier,monospace" font-size="9.00">use_module</text>
</a>
</g>
</g>
<!-- error -->
<g id="node4" class="node">
<title>error</title>
<g id="a_node4"><a xlink:title="module">
<polygon fill="gainsboro" stroke="black" stroke-dasharray="5,2" points="247.5,-92 200.5,-92 200.5,-96 188.5,-96 188.5,-56 247.5,-56 247.5,-92"/>
<polyline fill="none" stroke="black" stroke-dasharray="5,2" points="188.5,-92 200.5,-92 "/>
<text text-anchor="start" x="196.8" y="-75.8" font-family="Courier,monospace" font-size="9.00"> </text>
<text text-anchor="start" x="202" y="-75.2" font-family="Courier,monospace" font-size="11.00">error</text>
<text text-anchor="start" x="234.8" y="-75.8" font-family="Courier,monospace" font-size="9.00"> </text>
<text text-anchor="start" x="196.8" y="-65.8" font-family="Courier,monospace" font-size="9.00"> </text>
<text text-anchor="start" x="205.9" y="-66.4" font-family="Courier,monospace" font-size="7.00">module</text>
<text text-anchor="start" x="234.8" y="-65.8" font-family="Courier,monospace" font-size="9.00"> </text>
</a>
</g>
</g>
<!-- rdf_describe&#45;&gt;error -->
<g id="edge3" class="edge">
<title>rdf_describe&#45;&gt;error</title>
<path fill="none" stroke="black" d="M182.06,-190.61C191.04,-161.73 201.68,-127.5 209.04,-103.82"/>
<polygon fill="black" stroke="black" points="209.1,-103.62 207.06,-96.71 212.66,-92.17 209.1,-103.62"/>
<g id="a_edge3&#45;label"><a xlink:title="use_module">
<text text-anchor="middle" x="224" y="-138.8" font-family="Courier,monospace" font-size="9.00">use_module</text>
</a>
</g>
</g>
<!-- lists -->
<g id="node5" class="node">
<title>lists</title>
<g id="a_node5"><a xlink:title="module">
<polygon fill="gainsboro" stroke="black" stroke-dasharray="5,2" points="324.5,-92 277.5,-92 277.5,-96 265.5,-96 265.5,-56 324.5,-56 324.5,-92"/>
<polyline fill="none" stroke="black" stroke-dasharray="5,2" points="265.5,-92 277.5,-92 "/>
<text text-anchor="start" x="273.8" y="-75.8" font-family="Courier,monospace" font-size="9.00"> </text>
<text text-anchor="start" x="279" y="-75.2" font-family="Courier,monospace" font-size="11.00">lists</text>
<text text-anchor="start" x="311.8" y="-75.8" font-family="Courier,monospace" font-size="9.00"> </text>
<text text-anchor="start" x="273.8" y="-65.8" font-family="Courier,monospace" font-size="9.00"> </text>
<text text-anchor="start" x="282.9" y="-66.4" font-family="Courier,monospace" font-size="7.00">module</text>
<text text-anchor="start" x="311.8" y="-65.8" font-family="Courier,monospace" font-size="9.00"> </text>
</a>
</g>
</g>
<!-- rdf_describe&#45;&gt;lists -->
<g id="edge4" class="edge">
<title>rdf_describe&#45;&gt;lists</title>
<path fill="none" stroke="black" d="M218.45,-190.78C231.08,-176.7 244.04,-161.21 255,-146 264.66,-132.59 273.83,-116.64 280.95,-103.26"/>
<polygon fill="black" stroke="black" points="281.11,-102.94 280.32,-95.77 286.63,-92.29 281.11,-102.94"/>
<g id="a_edge4&#45;label"><a xlink:title="use_module">
<text text-anchor="middle" x="287" y="-138.8" font-family="Courier,monospace" font-size="9.00">use_module</text>
</a>
</g>
</g>
</g>
</svg>
