<?xml version="1.0" encoding="UTF-8" standalone="no"?>
<!DOCTYPE svg PUBLIC "-//W3C//DTD SVG 1.1//EN"
 "http://www.w3.org/Graphics/SVG/1.1/DTD/svg11.dtd">
<!-- Generated by graphviz version 2.41.20190410.0829 (20190410.0829)
 -->
<!-- Title: rdf_file_type.pl Pages: 1 -->
<svg width="953pt" height="445pt"
 viewBox="72.00 72.00 881.00 373.00" xmlns="http://www.w3.org/2000/svg" xmlns:xlink="http://www.w3.org/1999/xlink">
<g id="graph0" class="graph" transform="scale(1 1) rotate(0) translate(76 369)">
<title>rdf_file_type.pl</title>
<polygon fill="white" stroke="transparent" points="-4,4 -4,-297 805,-297 805,4 -4,4"/>
<text text-anchor="start" x="8" y="-16" font-family="Courier,monospace" font-size="10.00" fill="#8b8989">ClioPatria &#45; an RDF application platform</text>
<text text-anchor="start" x="8" y="-6" font-family="Courier,monospace" font-size="10.00" fill="#8b8989">Generated on 2019/04/17, 13:04</text>
<g id="clust1" class="cluster">
<title>cluster_file_/Users/pmoura/ClioPatria/lib/semweb/rdf_file_type.pl</title>
<g id="a_clust1"><a xlink:href="https://github.com/ClioPatria/ClioPatria/tree/add57aa2039eed4033cf96e96c293b2052e88f41/lib/semweb/rdf_file_type.pl" xlink:title="https://github.com/ClioPatria/ClioPatria/tree/add57aa2039eed4033cf96e96c293b2052e88f41/lib/semweb/rdf_file_type.pl">
<path fill="snow" stroke="#8b8989" d="M20,-36C20,-36 781,-36 781,-36 787,-36 793,-42 793,-48 793,-48 793,-273 793,-273 793,-279 787,-285 781,-285 781,-285 20,-285 20,-285 14,-285 8,-279 8,-273 8,-273 8,-48 8,-48 8,-42 14,-36 20,-36"/>
<text text-anchor="middle" x="64.01" y="-273" font-family="Courier,monospace" font-size="10.00" fill="#8b8989">rdf_file_type.pl</text>
</a>
</g>
</g>
<g id="clust2" class="cluster">
<title>cluster_other</title>
<g id="a_clust2"><a xlink:title="(external entities)">
<path fill="white" stroke="#8b8989" d="M30,-46C30,-46 771,-46 771,-46 777,-46 783,-52 783,-58 783,-58 783,-108 783,-108 783,-114 777,-120 771,-120 771,-120 30,-120 30,-120 24,-120 18,-114 18,-108 18,-108 18,-58 18,-58 18,-52 24,-46 30,-46"/>
<text text-anchor="middle" x="83.01" y="-108" font-family="Courier,monospace" font-size="10.00" fill="#8b8989">(external entities)</text>
</a>
</g>
</g>
<!-- rdf_file_type -->
<g id="node1" class="node">
<title>rdf_file_type</title>
<g id="a_node1"><a xlink:title="module">
<polygon fill="gainsboro" stroke="black" points="521.5,-257 356.5,-257 356.5,-261 344.5,-261 344.5,-191 521.5,-191 521.5,-257"/>
<polyline fill="none" stroke="black" points="344.5,-257 356.5,-257 "/>
<g id="a_node1_0"><a xlink:href="rdf_file_type_module_xref_diagram.svg" xlink:title="Zoom">
<image xlink:href="zoom.png" width="11px" height="11px" preserveAspectRatio="xMinYMin meet" x="353" y="-253"/>
</a>
</g>
<text text-anchor="start" x="355.8" y="-233.8" font-family="Courier,monospace" font-size="9.00"> </text>
<text text-anchor="start" x="393.59" y="-233.2" font-family="Courier,monospace" font-size="11.00">rdf_file_type</text>
<text text-anchor="start" x="508.8" y="-233.8" font-family="Courier,monospace" font-size="9.00"> </text>
<text text-anchor="start" x="355.8" y="-223.8" font-family="Courier,monospace" font-size="9.00"> </text>
<text text-anchor="start" x="423.9" y="-224.4" font-family="Courier,monospace" font-size="7.00">module</text>
<text text-anchor="start" x="508.8" y="-223.8" font-family="Courier,monospace" font-size="9.00"> </text>
<text text-anchor="start" x="355.8" y="-214.8" font-family="Courier,monospace" font-size="9.00"> </text>
<text text-anchor="start" x="355.8" y="-205.8" font-family="Courier,monospace" font-size="9.00"> </text>
<text text-anchor="start" x="363.59" y="-205.8" font-family="Courier,monospace" font-size="9.00">rdf_guess_format_and_load/2</text>
<text text-anchor="start" x="508.8" y="-205.8" font-family="Courier,monospace" font-size="9.00"> </text>
<text text-anchor="start" x="355.8" y="-196.8" font-family="Courier,monospace" font-size="9.00"> </text>
<text text-anchor="start" x="374.39" y="-196.8" font-family="Courier,monospace" font-size="9.00">rdf_guess_data_format/2</text>
<text text-anchor="start" x="508.8" y="-196.8" font-family="Courier,monospace" font-size="9.00"> </text>
</a>
</g>
</g>
<!-- prolog_dialect -->
<g id="node2" class="node">
<title>prolog_dialect</title>
<g id="a_node2"><a xlink:title="module">
<polygon fill="gainsboro" stroke="black" stroke-dasharray="5,2" points="146,-92 40,-92 40,-96 28,-96 28,-56 146,-56 146,-92"/>
<polyline fill="none" stroke="black" stroke-dasharray="5,2" points="28,-92 40,-92 "/>
<text text-anchor="start" x="35.8" y="-75.8" font-family="Courier,monospace" font-size="9.00"> </text>
<text text-anchor="start" x="40.79" y="-75.2" font-family="Courier,monospace" font-size="11.00">prolog_dialect</text>
<text text-anchor="start" x="132.8" y="-75.8" font-family="Courier,monospace" font-size="9.00"> </text>
<text text-anchor="start" x="35.8" y="-65.8" font-family="Courier,monospace" font-size="9.00"> </text>
<text text-anchor="start" x="74.4" y="-66.4" font-family="Courier,monospace" font-size="7.00">module</text>
<text text-anchor="start" x="132.8" y="-65.8" font-family="Courier,monospace" font-size="9.00"> </text>
</a>
</g>
</g>
<!-- rdf_file_type&#45;&gt;prolog_dialect -->
<g id="edge1" class="edge">
<title>rdf_file_type&#45;&gt;prolog_dialect</title>
<path fill="none" stroke="black" d="M344.26,-198.96C287.82,-181.57 214.43,-154.99 155,-120 143.93,-113.48 132.16,-105.93 121.58,-98.9"/>
<polygon fill="black" stroke="black" points="121.43,-98.79 114.22,-98.76 111.47,-92.09 121.43,-98.79"/>
<g id="a_edge1&#45;label"><a xlink:title="use_module">
<text text-anchor="middle" x="224" y="-138.8" font-family="Courier,monospace" font-size="9.00">use_module</text>
</a>
</g>
</g>
<!-- swi_option -->
<g id="node3" class="node">
<title>swi_option</title>
<g id="a_node3"><a xlink:title="module">
<polygon fill="gainsboro" stroke="black" stroke-dasharray="5,2" points="256,-92 176,-92 176,-96 164,-96 164,-56 256,-56 256,-92"/>
<polyline fill="none" stroke="black" stroke-dasharray="5,2" points="164,-92 176,-92 "/>
<text text-anchor="start" x="171.8" y="-75.8" font-family="Courier,monospace" font-size="9.00"> </text>
<text text-anchor="start" x="176.99" y="-75.2" font-family="Courier,monospace" font-size="11.00">swi_option</text>
<text text-anchor="start" x="242.8" y="-75.8" font-family="Courier,monospace" font-size="9.00"> </text>
<text text-anchor="start" x="171.8" y="-65.8" font-family="Courier,monospace" font-size="9.00"> </text>
<text text-anchor="start" x="197.4" y="-66.4" font-family="Courier,monospace" font-size="7.00">module</text>
<text text-anchor="start" x="242.8" y="-65.8" font-family="Courier,monospace" font-size="9.00"> </text>
</a>
</g>
</g>
<!-- rdf_file_type&#45;&gt;swi_option -->
<g id="edge2" class="edge">
<title>rdf_file_type&#45;&gt;swi_option</title>
<path fill="none" stroke="black" d="M350.47,-190.88C324.42,-178.8 296.36,-163.65 272.99,-146 256.59,-133.61 241.22,-116.44 229.77,-102.09"/>
<polygon fill="black" stroke="black" points="229.5,-101.74 222.66,-99.44 222.16,-92.25 229.5,-101.74"/>
<g id="a_edge2&#45;label"><a xlink:title="use_module">
<text text-anchor="middle" x="299" y="-138.8" font-family="Courier,monospace" font-size="9.00">use_module</text>
</a>
</g>
</g>
<!-- rdf_db -->
<g id="node4" class="node">
<title>rdf_db</title>
<g id="a_node4"><a xlink:title="module">
<polygon fill="gainsboro" stroke="black" stroke-dasharray="5,2" points="339.5,-92 286.5,-92 286.5,-96 274.5,-96 274.5,-56 339.5,-56 339.5,-92"/>
<polyline fill="none" stroke="black" stroke-dasharray="5,2" points="274.5,-92 286.5,-92 "/>
<text text-anchor="start" x="282.8" y="-75.8" font-family="Courier,monospace" font-size="9.00"> </text>
<text text-anchor="start" x="287.7" y="-75.2" font-family="Courier,monospace" font-size="11.00">rdf_db</text>
<text text-anchor="start" x="326.8" y="-75.8" font-family="Courier,monospace" font-size="9.00"> </text>
<text text-anchor="start" x="282.8" y="-65.8" font-family="Courier,monospace" font-size="9.00"> </text>
<text text-anchor="start" x="294.9" y="-66.4" font-family="Courier,monospace" font-size="7.00">module</text>
<text text-anchor="start" x="326.8" y="-65.8" font-family="Courier,monospace" font-size="9.00"> </text>
</a>
</g>
</g>
<!-- rdf_file_type&#45;&gt;rdf_db -->
<g id="edge3" class="edge">
<title>rdf_file_type&#45;&gt;rdf_db</title>
<path fill="none" stroke="black" d="M383.35,-190.68C366.99,-178.21 349.75,-162.87 336.99,-146 327.48,-133.41 320.37,-117.36 315.46,-103.7"/>
<polygon fill="black" stroke="black" points="315.36,-103.39 309.67,-98.96 311.57,-92 315.36,-103.39"/>
<g id="a_edge3&#45;label"><a xlink:title="use_module">
<text text-anchor="middle" x="363" y="-138.8" font-family="Courier,monospace" font-size="9.00">use_module</text>
</a>
</g>
</g>
<!-- archive -->
<g id="node5" class="node">
<title>archive</title>
<g id="a_node5"><a xlink:title="module">
<polygon fill="gainsboro" stroke="black" stroke-dasharray="5,2" points="430,-92 370,-92 370,-96 358,-96 358,-56 430,-56 430,-92"/>
<polyline fill="none" stroke="black" stroke-dasharray="5,2" points="358,-92 370,-92 "/>
<text text-anchor="start" x="365.8" y="-75.8" font-family="Courier,monospace" font-size="9.00"> </text>
<text text-anchor="start" x="370.9" y="-75.2" font-family="Courier,monospace" font-size="11.00">archive</text>
<text text-anchor="start" x="416.8" y="-75.8" font-family="Courier,monospace" font-size="9.00"> </text>
<text text-anchor="start" x="365.8" y="-65.8" font-family="Courier,monospace" font-size="9.00"> </text>
<text text-anchor="start" x="381.4" y="-66.4" font-family="Courier,monospace" font-size="7.00">module</text>
<text text-anchor="start" x="416.8" y="-65.8" font-family="Courier,monospace" font-size="9.00"> </text>
</a>
</g>
</g>
<!-- rdf_file_type&#45;&gt;archive -->
<g id="edge4" class="edge">
<title>rdf_file_type&#45;&gt;archive</title>
<path fill="none" stroke="black" d="M414.42,-190.7C407.65,-177.31 400.74,-161.34 396.99,-146 393.7,-132.52 392.72,-117.17 392.66,-104.21"/>
<polygon fill="black" stroke="black" points="392.66,-104.19 388.76,-98.13 392.85,-92.19 392.66,-104.19"/>
<g id="a_edge4&#45;label"><a xlink:title="use_module">
<text text-anchor="middle" x="423" y="-138.8" font-family="Courier,monospace" font-size="9.00">use_module</text>
</a>
</g>
</g>
<!-- lists -->
<g id="node6" class="node">
<title>lists</title>
<g id="a_node6"><a xlink:title="module">
<polygon fill="gainsboro" stroke="black" stroke-dasharray="5,2" points="507.5,-92 460.5,-92 460.5,-96 448.5,-96 448.5,-56 507.5,-56 507.5,-92"/>
<polyline fill="none" stroke="black" stroke-dasharray="5,2" points="448.5,-92 460.5,-92 "/>
<text text-anchor="start" x="456.8" y="-75.8" font-family="Courier,monospace" font-size="9.00"> </text>
<text text-anchor="start" x="462" y="-75.2" font-family="Courier,monospace" font-size="11.00">lists</text>
<text text-anchor="start" x="494.8" y="-75.8" font-family="Courier,monospace" font-size="9.00"> </text>
<text text-anchor="start" x="456.8" y="-65.8" font-family="Courier,monospace" font-size="9.00"> </text>
<text text-anchor="start" x="465.9" y="-66.4" font-family="Courier,monospace" font-size="7.00">module</text>
<text text-anchor="start" x="494.8" y="-65.8" font-family="Courier,monospace" font-size="9.00"> </text>
</a>
</g>
</g>
<!-- rdf_file_type&#45;&gt;lists -->
<g id="edge5" class="edge">
<title>rdf_file_type&#45;&gt;lists</title>
<path fill="none" stroke="black" d="M442.76,-190.89C450.64,-164.99 461.61,-128.9 469.21,-103.91"/>
<polygon fill="black" stroke="black" points="469.25,-103.77 467.17,-96.87 472.74,-92.29 469.25,-103.77"/>
<g id="a_edge5&#45;label"><a xlink:title="use_module">
<text text-anchor="middle" x="485" y="-138.8" font-family="Courier,monospace" font-size="9.00">use_module</text>
</a>
</g>
</g>
<!-- apply -->
<g id="node7" class="node">
<title>apply</title>
<g id="a_node7"><a xlink:title="module">
<polygon fill="gainsboro" stroke="black" stroke-dasharray="5,2" points="584.5,-92 537.5,-92 537.5,-96 525.5,-96 525.5,-56 584.5,-56 584.5,-92"/>
<polyline fill="none" stroke="black" stroke-dasharray="5,2" points="525.5,-92 537.5,-92 "/>
<text text-anchor="start" x="533.8" y="-75.8" font-family="Courier,monospace" font-size="9.00"> </text>
<text text-anchor="start" x="539" y="-75.2" font-family="Courier,monospace" font-size="11.00">apply</text>
<text text-anchor="start" x="571.8" y="-75.8" font-family="Courier,monospace" font-size="9.00"> </text>
<text text-anchor="start" x="533.8" y="-65.8" font-family="Courier,monospace" font-size="9.00"> </text>
<text text-anchor="start" x="542.9" y="-66.4" font-family="Courier,monospace" font-size="7.00">module</text>
<text text-anchor="start" x="571.8" y="-65.8" font-family="Courier,monospace" font-size="9.00"> </text>
</a>
</g>
</g>
<!-- rdf_file_type&#45;&gt;apply -->
<g id="edge6" class="edge">
<title>rdf_file_type&#45;&gt;apply</title>
<path fill="none" stroke="black" d="M472.74,-190.84C487.37,-177.85 503.42,-162.12 516,-146 526.17,-132.96 535.22,-116.93 542.04,-103.4"/>
<polygon fill="black" stroke="black" points="542.19,-103.09 541.21,-95.94 547.43,-92.29 542.19,-103.09"/>
<g id="a_edge6&#45;label"><a xlink:title="use_module">
<text text-anchor="middle" x="549" y="-138.8" font-family="Courier,monospace" font-size="9.00">use_module</text>
</a>
</g>
</g>
<!-- sgml -->
<g id="node8" class="node">
<title>sgml</title>
<g id="a_node8"><a xlink:title="module">
<polygon fill="gainsboro" stroke="black" stroke-dasharray="5,2" points="657,-92 615,-92 615,-96 603,-96 603,-56 657,-56 657,-92"/>
<polyline fill="none" stroke="black" stroke-dasharray="5,2" points="603,-92 615,-92 "/>
<text text-anchor="start" x="611.8" y="-75.8" font-family="Courier,monospace" font-size="9.00"> </text>
<text text-anchor="start" x="616.8" y="-75.2" font-family="Courier,monospace" font-size="11.00">sgml</text>
<text text-anchor="start" x="642.8" y="-75.8" font-family="Courier,monospace" font-size="9.00"> </text>
<text text-anchor="start" x="611.8" y="-65.8" font-family="Courier,monospace" font-size="9.00"> </text>
<text text-anchor="start" x="617.4" y="-66.4" font-family="Courier,monospace" font-size="7.00">module</text>
<text text-anchor="start" x="642.8" y="-65.8" font-family="Courier,monospace" font-size="9.00"> </text>
</a>
</g>
</g>
<!-- rdf_file_type&#45;&gt;sgml -->
<g id="edge7" class="edge">
<title>rdf_file_type&#45;&gt;sgml</title>
<path fill="none" stroke="black" d="M510.63,-190.97C534.41,-178.98 559.64,-163.85 580,-146 593.86,-133.84 605.89,-117.1 614.68,-102.92"/>
<polygon fill="black" stroke="black" points="614.89,-102.57 614.5,-95.37 621,-92.24 614.89,-102.57"/>
<g id="a_edge7&#45;label"><a xlink:title="use_module">
<text text-anchor="middle" x="615" y="-138.8" font-family="Courier,monospace" font-size="9.00">use_module</text>
</a>
</g>
</g>
<!-- memory_file -->
<g id="node9" class="node">
<title>memory_file</title>
<g id="a_node9"><a xlink:title="module">
<polygon fill="gainsboro" stroke="black" stroke-dasharray="5,2" points="773,-92 687,-92 687,-96 675,-96 675,-56 773,-56 773,-92"/>
<polyline fill="none" stroke="black" stroke-dasharray="5,2" points="675,-92 687,-92 "/>
<text text-anchor="start" x="682.8" y="-75.8" font-family="Courier,monospace" font-size="9.00"> </text>
<text text-anchor="start" x="687.69" y="-75.2" font-family="Courier,monospace" font-size="11.00">memory_file</text>
<text text-anchor="start" x="759.8" y="-75.8" font-family="Courier,monospace" font-size="9.00"> </text>
<text text-anchor="start" x="682.8" y="-65.8" font-family="Courier,monospace" font-size="9.00"> </text>
<text text-anchor="start" x="711.4" y="-66.4" font-family="Courier,monospace" font-size="7.00">module</text>
<text text-anchor="start" x="759.8" y="-65.8" font-family="Courier,monospace" font-size="9.00"> </text>
</a>
</g>
</g>
<!-- rdf_file_type&#45;&gt;memory_file -->
<g id="edge8" class="edge">
<title>rdf_file_type&#45;&gt;memory_file</title>
<path fill="none" stroke="black" d="M521.73,-199.49C561.38,-186.87 607.7,-169.1 646,-146 666.26,-133.78 685.93,-115.82 700.46,-101.01"/>
<polygon fill="black" stroke="black" points="700.5,-100.96 701.75,-93.86 708.79,-92.28 700.5,-100.96"/>
<g id="a_edge8&#45;label"><a xlink:title="use_module">
<text text-anchor="middle" x="684" y="-138.8" font-family="Courier,monospace" font-size="9.00">use_module</text>
</a>
</g>
</g>
</g>
</svg>
