<?xml version="1.0" encoding="UTF-8" standalone="no"?>
<!DOCTYPE svg PUBLIC "-//W3C//DTD SVG 1.1//EN"
 "http://www.w3.org/Graphics/SVG/1.1/DTD/svg11.dtd">
<!-- Generated by graphviz version 2.41.20190410.0829 (20190410.0829)
 -->
<!-- Title: rdf_html.pl Pages: 1 -->
<svg width="714pt" height="445pt"
 viewBox="72.00 72.00 642.00 373.00" xmlns="http://www.w3.org/2000/svg" xmlns:xlink="http://www.w3.org/1999/xlink">
<g id="graph0" class="graph" transform="scale(1 1) rotate(0) translate(76 369)">
<title>rdf_html.pl</title>
<polygon fill="white" stroke="transparent" points="-4,4 -4,-297 566,-297 566,4 -4,4"/>
<text text-anchor="start" x="8" y="-16" font-family="Courier,monospace" font-size="10.00" fill="#8b8989">ClioPatria &#45; an RDF application platform</text>
<text text-anchor="start" x="8" y="-6" font-family="Courier,monospace" font-size="10.00" fill="#8b8989">Generated on 2019/04/17, 13:04</text>
<g id="clust1" class="cluster">
<title>cluster_file_/Users/pmoura/ClioPatria/rdfql/rdf_html.pl</title>
<g id="a_clust1"><a xlink:href="https://github.com/ClioPatria/ClioPatria/tree/add57aa2039eed4033cf96e96c293b2052e88f41/rdfql/rdf_html.pl" xlink:title="https://github.com/ClioPatria/ClioPatria/tree/add57aa2039eed4033cf96e96c293b2052e88f41/rdfql/rdf_html.pl">
<path fill="snow" stroke="#8b8989" d="M20,-36C20,-36 542,-36 542,-36 548,-36 554,-42 554,-48 554,-48 554,-273 554,-273 554,-279 548,-285 542,-285 542,-285 20,-285 20,-285 14,-285 8,-279 8,-273 8,-273 8,-48 8,-48 8,-42 14,-36 20,-36"/>
<text text-anchor="middle" x="49.01" y="-273" font-family="Courier,monospace" font-size="10.00" fill="#8b8989">rdf_html.pl</text>
</a>
</g>
</g>
<g id="clust2" class="cluster">
<title>cluster_other</title>
<g id="a_clust2"><a xlink:title="(external entities)">
<path fill="white" stroke="#8b8989" d="M30,-46C30,-46 532,-46 532,-46 538,-46 544,-52 544,-58 544,-58 544,-108 544,-108 544,-114 538,-120 532,-120 532,-120 30,-120 30,-120 24,-120 18,-114 18,-108 18,-108 18,-58 18,-58 18,-52 24,-46 30,-46"/>
<text text-anchor="middle" x="83.01" y="-108" font-family="Courier,monospace" font-size="10.00" fill="#8b8989">(external entities)</text>
</a>
</g>
</g>
<!-- rdf_html -->
<g id="node1" class="node">
<title>rdf_html</title>
<g id="a_node1"><a xlink:title="module">
<polygon fill="gainsboro" stroke="black" points="335,-257 207,-257 207,-261 195,-261 195,-191 335,-191 335,-257"/>
<polyline fill="none" stroke="black" points="195,-257 207,-257 "/>
<g id="a_node1_0"><a xlink:href="rdf_html_module_xref_diagram.svg" xlink:title="Zoom">
<image xlink:href="zoom.png" width="11px" height="11px" preserveAspectRatio="xMinYMin meet" x="203" y="-253"/>
</a>
</g>
<text text-anchor="start" x="205.8" y="-233.8" font-family="Courier,monospace" font-size="9.00"> </text>
<text text-anchor="start" x="241.6" y="-233.2" font-family="Courier,monospace" font-size="11.00">rdf_html</text>
<text text-anchor="start" x="321.8" y="-233.8" font-family="Courier,monospace" font-size="9.00"> </text>
<text text-anchor="start" x="205.8" y="-223.8" font-family="Courier,monospace" font-size="9.00"> </text>
<text text-anchor="start" x="255.4" y="-224.4" font-family="Courier,monospace" font-size="7.00">module</text>
<text text-anchor="start" x="321.8" y="-223.8" font-family="Courier,monospace" font-size="9.00"> </text>
<text text-anchor="start" x="205.8" y="-214.8" font-family="Courier,monospace" font-size="9.00"> </text>
<text text-anchor="start" x="205.8" y="-205.8" font-family="Courier,monospace" font-size="9.00"> </text>
<text text-anchor="start" x="213.99" y="-205.8" font-family="Courier,monospace" font-size="9.00">rdf_io:write_table/4</text>
<text text-anchor="start" x="321.8" y="-205.8" font-family="Courier,monospace" font-size="9.00"> </text>
<text text-anchor="start" x="205.8" y="-196.8" font-family="Courier,monospace" font-size="9.00"> </text>
<text text-anchor="start" x="213.99" y="-196.8" font-family="Courier,monospace" font-size="9.00">rdf_io:write_graph/4</text>
<text text-anchor="start" x="321.8" y="-196.8" font-family="Courier,monospace" font-size="9.00"> </text>
</a>
</g>
</g>
<!-- rdf_io -->
<g id="node2" class="node">
<title>rdf_io</title>
<g id="a_node2"><a xlink:title="module">
<polygon fill="gainsboro" stroke="black" stroke-dasharray="5,2" points="93.5,-92 40.5,-92 40.5,-96 28.5,-96 28.5,-56 93.5,-56 93.5,-92"/>
<polyline fill="none" stroke="black" stroke-dasharray="5,2" points="28.5,-92 40.5,-92 "/>
<text text-anchor="start" x="36.8" y="-75.8" font-family="Courier,monospace" font-size="9.00"> </text>
<text text-anchor="start" x="41.7" y="-75.2" font-family="Courier,monospace" font-size="11.00">rdf_io</text>
<text text-anchor="start" x="80.8" y="-75.8" font-family="Courier,monospace" font-size="9.00"> </text>
<text text-anchor="start" x="36.8" y="-65.8" font-family="Courier,monospace" font-size="9.00"> </text>
<text text-anchor="start" x="48.9" y="-66.4" font-family="Courier,monospace" font-size="7.00">module</text>
<text text-anchor="start" x="80.8" y="-65.8" font-family="Courier,monospace" font-size="9.00"> </text>
</a>
</g>
</g>
<!-- rdf_html&#45;&gt;rdf_io -->
<g id="edge1" class="edge">
<title>rdf_html&#45;&gt;rdf_io</title>
<path fill="none" stroke="black" d="M206.71,-190.83C174.74,-172 135.18,-146.72 103,-120 95.79,-114.01 88.59,-106.85 82.24,-100.01"/>
<polygon fill="black" stroke="black" points="77.83,-89.89 81.93,-99.66 72.63,-94.58 77.83,-89.89"/>
<g id="a_edge1&#45;label"><a xlink:title="provides">
<text text-anchor="middle" x="157.6" y="-138.8" font-family="Courier,monospace" font-size="9.00">provides</text>
</a>
</g>
</g>
<!-- html_write -->
<g id="node3" class="node">
<title>html_write</title>
<g id="a_node3"><a xlink:title="module">
<polygon fill="gainsboro" stroke="black" stroke-dasharray="5,2" points="204,-92 124,-92 124,-96 112,-96 112,-56 204,-56 204,-92"/>
<polyline fill="none" stroke="black" stroke-dasharray="5,2" points="112,-92 124,-92 "/>
<text text-anchor="start" x="119.8" y="-75.8" font-family="Courier,monospace" font-size="9.00"> </text>
<text text-anchor="start" x="124.99" y="-75.2" font-family="Courier,monospace" font-size="11.00">html_write</text>
<text text-anchor="start" x="190.8" y="-75.8" font-family="Courier,monospace" font-size="9.00"> </text>
<text text-anchor="start" x="119.8" y="-65.8" font-family="Courier,monospace" font-size="9.00"> </text>
<text text-anchor="start" x="145.4" y="-66.4" font-family="Courier,monospace" font-size="7.00">module</text>
<text text-anchor="start" x="190.8" y="-65.8" font-family="Courier,monospace" font-size="9.00"> </text>
</a>
</g>
</g>
<!-- rdf_html&#45;&gt;html_write -->
<g id="edge2" class="edge">
<title>rdf_html&#45;&gt;html_write</title>
<path fill="none" stroke="black" d="M240.14,-190.63C229.76,-176.95 217.66,-160.8 206.99,-146 196.62,-131.62 185.37,-115.36 176.27,-102.04"/>
<polygon fill="black" stroke="black" points="176.23,-101.99 169.55,-99.28 169.48,-92.07 176.23,-101.99"/>
<g id="a_edge2&#45;label"><a xlink:title="use_module">
<text text-anchor="middle" x="233" y="-138.8" font-family="Courier,monospace" font-size="9.00">use_module</text>
</a>
</g>
</g>
<!-- html_head -->
<g id="node4" class="node">
<title>html_head</title>
<g id="a_node4"><a xlink:title="module">
<polygon fill="gainsboro" stroke="black" stroke-dasharray="5,2" points="307.5,-92 234.5,-92 234.5,-96 222.5,-96 222.5,-56 307.5,-56 307.5,-92"/>
<polyline fill="none" stroke="black" stroke-dasharray="5,2" points="222.5,-92 234.5,-92 "/>
<text text-anchor="start" x="230.8" y="-75.8" font-family="Courier,monospace" font-size="9.00"> </text>
<text text-anchor="start" x="235.8" y="-75.2" font-family="Courier,monospace" font-size="11.00">html_head</text>
<text text-anchor="start" x="294.8" y="-75.8" font-family="Courier,monospace" font-size="9.00"> </text>
<text text-anchor="start" x="230.8" y="-65.8" font-family="Courier,monospace" font-size="9.00"> </text>
<text text-anchor="start" x="252.9" y="-66.4" font-family="Courier,monospace" font-size="7.00">module</text>
<text text-anchor="start" x="294.8" y="-65.8" font-family="Courier,monospace" font-size="9.00"> </text>
</a>
</g>
</g>
<!-- rdf_html&#45;&gt;html_head -->
<g id="edge3" class="edge">
<title>rdf_html&#45;&gt;html_head</title>
<path fill="none" stroke="black" d="M265,-190.89C265,-165.23 265,-129.56 265,-104.59"/>
<polygon fill="black" stroke="black" points="265,-104.29 261,-98.29 265,-92.29 265,-104.29"/>
<g id="a_edge3&#45;label"><a xlink:title="use_module">
<text text-anchor="middle" x="292" y="-138.8" font-family="Courier,monospace" font-size="9.00">use_module</text>
</a>
</g>
</g>
<!-- cp_label -->
<g id="node5" class="node">
<title>cp_label</title>
<g id="a_node5"><a xlink:title="module">
<polygon fill="gainsboro" stroke="black" stroke-dasharray="5,2" points="404,-92 338,-92 338,-96 326,-96 326,-56 404,-56 404,-92"/>
<polyline fill="none" stroke="black" stroke-dasharray="5,2" points="326,-92 338,-92 "/>
<text text-anchor="start" x="333.8" y="-75.8" font-family="Courier,monospace" font-size="9.00"> </text>
<text text-anchor="start" x="338.6" y="-75.2" font-family="Courier,monospace" font-size="11.00">cp_label</text>
<text text-anchor="start" x="390.8" y="-75.8" font-family="Courier,monospace" font-size="9.00"> </text>
<text text-anchor="start" x="333.8" y="-65.8" font-family="Courier,monospace" font-size="9.00"> </text>
<text text-anchor="start" x="352.4" y="-66.4" font-family="Courier,monospace" font-size="7.00">module</text>
<text text-anchor="start" x="390.8" y="-65.8" font-family="Courier,monospace" font-size="9.00"> </text>
</a>
</g>
</g>
<!-- rdf_html&#45;&gt;cp_label -->
<g id="edge4" class="edge">
<title>rdf_html&#45;&gt;cp_label</title>
<path fill="none" stroke="black" d="M290.37,-190.99C300.83,-177.37 312.85,-161.16 323,-146 332.24,-132.19 341.73,-116.32 349.35,-103.09"/>
<polygon fill="black" stroke="black" points="349.58,-102.69 349.06,-95.49 355.51,-92.26 349.58,-102.69"/>
<g id="a_edge4&#45;label"><a xlink:title="use_module">
<text text-anchor="middle" x="354" y="-138.8" font-family="Courier,monospace" font-size="9.00">use_module</text>
</a>
</g>
</g>
<!-- http_dispatch -->
<g id="node6" class="node">
<title>http_dispatch</title>
<g id="a_node6"><a xlink:title="module">
<polygon fill="gainsboro" stroke="black" stroke-dasharray="5,2" points="533.5,-92 434.5,-92 434.5,-96 422.5,-96 422.5,-56 533.5,-56 533.5,-92"/>
<polyline fill="none" stroke="black" stroke-dasharray="5,2" points="422.5,-92 434.5,-92 "/>
<text text-anchor="start" x="430.8" y="-75.8" font-family="Courier,monospace" font-size="9.00"> </text>
<text text-anchor="start" x="435.59" y="-75.2" font-family="Courier,monospace" font-size="11.00">http_dispatch</text>
<text text-anchor="start" x="520.8" y="-75.8" font-family="Courier,monospace" font-size="9.00"> </text>
<text text-anchor="start" x="430.8" y="-65.8" font-family="Courier,monospace" font-size="9.00"> </text>
<text text-anchor="start" x="465.9" y="-66.4" font-family="Courier,monospace" font-size="7.00">module</text>
<text text-anchor="start" x="520.8" y="-65.8" font-family="Courier,monospace" font-size="9.00"> </text>
</a>
</g>
</g>
<!-- rdf_html&#45;&gt;http_dispatch -->
<g id="edge5" class="edge">
<title>rdf_html&#45;&gt;http_dispatch</title>
<path fill="none" stroke="black" d="M317,-190.93C338.33,-177.44 363.11,-161.34 385,-146 406.1,-131.22 429.11,-113.66 446.97,-99.7"/>
<polygon fill="black" stroke="black" points="447.14,-99.57 449.39,-92.71 456.58,-92.15 447.14,-99.57"/>
<g id="a_edge5&#45;label"><a xlink:title="use_module">
<text text-anchor="middle" x="422" y="-138.8" font-family="Courier,monospace" font-size="9.00">use_module</text>
</a>
</g>
</g>
</g>
</svg>
