<?xml version="1.0" encoding="UTF-8" standalone="no"?>
<!DOCTYPE svg PUBLIC "-//W3C//DTD SVG 1.1//EN"
 "http://www.w3.org/Graphics/SVG/1.1/DTD/svg11.dtd">
<!-- Generated by graphviz version 2.41.20190410.0829 (20190410.0829)
 -->
<!-- Title: rdf_graphviz.pl Pages: 1 -->
<svg width="1605pt" height="436pt"
 viewBox="72.00 72.00 1533.00 364.00" xmlns="http://www.w3.org/2000/svg" xmlns:xlink="http://www.w3.org/1999/xlink">
<g id="graph0" class="graph" transform="scale(1 1) rotate(0) translate(76 360)">
<title>rdf_graphviz.pl</title>
<polygon fill="white" stroke="transparent" points="-4,4 -4,-288 1457,-288 1457,4 -4,4"/>
<text text-anchor="start" x="8" y="-16" font-family="Courier,monospace" font-size="10.00" fill="#8b8989">ClioPatria &#45; an RDF application platform</text>
<text text-anchor="start" x="8" y="-6" font-family="Courier,monospace" font-size="10.00" fill="#8b8989">Generated on 2019/04/17, 13:04</text>
<g id="clust1" class="cluster">
<title>cluster_file_/Users/pmoura/ClioPatria/lib/semweb/rdf_graphviz.pl</title>
<g id="a_clust1"><a xlink:href="https://github.com/ClioPatria/ClioPatria/tree/add57aa2039eed4033cf96e96c293b2052e88f41/lib/semweb/rdf_graphviz.pl" xlink:title="https://github.com/ClioPatria/ClioPatria/tree/add57aa2039eed4033cf96e96c293b2052e88f41/lib/semweb/rdf_graphviz.pl">
<path fill="snow" stroke="#8b8989" d="M20,-36C20,-36 1433,-36 1433,-36 1439,-36 1445,-42 1445,-48 1445,-48 1445,-264 1445,-264 1445,-270 1439,-276 1433,-276 1433,-276 20,-276 20,-276 14,-276 8,-270 8,-264 8,-264 8,-48 8,-48 8,-42 14,-36 20,-36"/>
<text text-anchor="middle" x="61.01" y="-264" font-family="Courier,monospace" font-size="10.00" fill="#8b8989">rdf_graphviz.pl</text>
</a>
</g>
</g>
<g id="clust2" class="cluster">
<title>cluster_other</title>
<g id="a_clust2"><a xlink:title="(external entities)">
<path fill="white" stroke="#8b8989" d="M30,-46C30,-46 1423,-46 1423,-46 1429,-46 1435,-52 1435,-58 1435,-58 1435,-108 1435,-108 1435,-114 1429,-120 1423,-120 1423,-120 30,-120 30,-120 24,-120 18,-114 18,-108 18,-108 18,-58 18,-58 18,-52 24,-46 30,-46"/>
<text text-anchor="middle" x="83.01" y="-108" font-family="Courier,monospace" font-size="10.00" fill="#8b8989">(external entities)</text>
</a>
</g>
</g>
<!-- rdf_graphviz -->
<g id="node1" class="node">
<title>rdf_graphviz</title>
<g id="a_node1"><a xlink:title="module">
<polygon fill="gainsboro" stroke="black" points="759,-248 653,-248 653,-252 641,-252 641,-191 759,-191 759,-248"/>
<polyline fill="none" stroke="black" points="641,-248 653,-248 "/>
<g id="a_node1_0"><a xlink:href="rdf_graphviz_module_xref_diagram.svg" xlink:title="Zoom">
<image xlink:href="zoom.png" width="11px" height="11px" preserveAspectRatio="xMinYMin meet" x="649" y="-243.5"/>
</a>
</g>
<text text-anchor="start" x="651.8" y="-224.3" font-family="Courier,monospace" font-size="9.00"> </text>
<text text-anchor="start" x="663.39" y="-223.7" font-family="Courier,monospace" font-size="11.00">rdf_graphviz</text>
<text text-anchor="start" x="745.8" y="-224.3" font-family="Courier,monospace" font-size="9.00"> </text>
<text text-anchor="start" x="651.8" y="-214.3" font-family="Courier,monospace" font-size="9.00"> </text>
<text text-anchor="start" x="690.4" y="-214.9" font-family="Courier,monospace" font-size="7.00">module</text>
<text text-anchor="start" x="745.8" y="-214.3" font-family="Courier,monospace" font-size="9.00"> </text>
<text text-anchor="start" x="651.8" y="-205.3" font-family="Courier,monospace" font-size="9.00"> </text>
<text text-anchor="start" x="651.8" y="-196.3" font-family="Courier,monospace" font-size="9.00"> </text>
<text text-anchor="start" x="659.79" y="-196.3" font-family="Courier,monospace" font-size="9.00">gviz_write_rdf/3</text>
<text text-anchor="start" x="745.8" y="-196.3" font-family="Courier,monospace" font-size="9.00"> </text>
</a>
</g>
</g>
<!-- rdf_db -->
<g id="node2" class="node">
<title>rdf_db</title>
<g id="a_node2"><a xlink:title="module">
<polygon fill="gainsboro" stroke="black" stroke-dasharray="5,2" points="93.5,-92 40.5,-92 40.5,-96 28.5,-96 28.5,-56 93.5,-56 93.5,-92"/>
<polyline fill="none" stroke="black" stroke-dasharray="5,2" points="28.5,-92 40.5,-92 "/>
<text text-anchor="start" x="36.8" y="-75.8" font-family="Courier,monospace" font-size="9.00"> </text>
<text text-anchor="start" x="41.7" y="-75.2" font-family="Courier,monospace" font-size="11.00">rdf_db</text>
<text text-anchor="start" x="80.8" y="-75.8" font-family="Courier,monospace" font-size="9.00"> </text>
<text text-anchor="start" x="36.8" y="-65.8" font-family="Courier,monospace" font-size="9.00"> </text>
<text text-anchor="start" x="48.9" y="-66.4" font-family="Courier,monospace" font-size="7.00">module</text>
<text text-anchor="start" x="80.8" y="-65.8" font-family="Courier,monospace" font-size="9.00"> </text>
</a>
</g>
</g>
<!-- rdf_graphviz&#45;&gt;rdf_db -->
<g id="edge1" class="edge">
<title>rdf_graphviz&#45;&gt;rdf_db</title>
<path fill="none" stroke="black" d="M640.64,-216.08C540.13,-210.77 330.8,-194.39 160.99,-146 133.83,-138.26 125.98,-136.43 103,-120 95.76,-114.82 88.78,-108.25 82.66,-101.74"/>
<polygon fill="black" stroke="black" points="82.35,-101.38 75.38,-99.55 74.39,-92.41 82.35,-101.38"/>
<g id="a_edge1&#45;label"><a xlink:title="use_module">
<text text-anchor="middle" x="187" y="-138.8" font-family="Courier,monospace" font-size="9.00">use_module</text>
</a>
</g>
</g>
<!-- apply -->
<g id="node3" class="node">
<title>apply</title>
<g id="a_node3"><a xlink:title="module">
<polygon fill="gainsboro" stroke="black" stroke-dasharray="5,2" points="170.5,-92 123.5,-92 123.5,-96 111.5,-96 111.5,-56 170.5,-56 170.5,-92"/>
<polyline fill="none" stroke="black" stroke-dasharray="5,2" points="111.5,-92 123.5,-92 "/>
<text text-anchor="start" x="119.8" y="-75.8" font-family="Courier,monospace" font-size="9.00"> </text>
<text text-anchor="start" x="125" y="-75.2" font-family="Courier,monospace" font-size="11.00">apply</text>
<text text-anchor="start" x="157.8" y="-75.8" font-family="Courier,monospace" font-size="9.00"> </text>
<text text-anchor="start" x="119.8" y="-65.8" font-family="Courier,monospace" font-size="9.00"> </text>
<text text-anchor="start" x="128.9" y="-66.4" font-family="Courier,monospace" font-size="7.00">module</text>
<text text-anchor="start" x="157.8" y="-65.8" font-family="Courier,monospace" font-size="9.00"> </text>
</a>
</g>
</g>
<!-- rdf_graphviz&#45;&gt;apply -->
<g id="edge2" class="edge">
<title>rdf_graphviz&#45;&gt;apply</title>
<path fill="none" stroke="black" d="M640.91,-210.46C558.15,-198.75 403.23,-175.18 272.99,-146 231.11,-136.62 216.25,-142.97 180,-120 172.49,-115.24 165.62,-108.6 159.82,-101.88"/>
<polygon fill="black" stroke="black" points="159.58,-101.58 152.72,-99.38 152.12,-92.19 159.58,-101.58"/>
<g id="a_edge2&#45;label"><a xlink:title="use_module">
<text text-anchor="middle" x="299" y="-138.8" font-family="Courier,monospace" font-size="9.00">use_module</text>
</a>
</g>
</g>
<!-- swi_option -->
<g id="node4" class="node">
<title>swi_option</title>
<g id="a_node4"><a xlink:title="module">
<polygon fill="gainsboro" stroke="black" stroke-dasharray="5,2" points="281,-92 201,-92 201,-96 189,-96 189,-56 281,-56 281,-92"/>
<polyline fill="none" stroke="black" stroke-dasharray="5,2" points="189,-92 201,-92 "/>
<text text-anchor="start" x="196.8" y="-75.8" font-family="Courier,monospace" font-size="9.00"> </text>
<text text-anchor="start" x="201.99" y="-75.2" font-family="Courier,monospace" font-size="11.00">swi_option</text>
<text text-anchor="start" x="267.8" y="-75.8" font-family="Courier,monospace" font-size="9.00"> </text>
<text text-anchor="start" x="196.8" y="-65.8" font-family="Courier,monospace" font-size="9.00"> </text>
<text text-anchor="start" x="222.4" y="-66.4" font-family="Courier,monospace" font-size="7.00">module</text>
<text text-anchor="start" x="267.8" y="-65.8" font-family="Courier,monospace" font-size="9.00"> </text>
</a>
</g>
</g>
<!-- rdf_graphviz&#45;&gt;swi_option -->
<g id="edge3" class="edge">
<title>rdf_graphviz&#45;&gt;swi_option</title>
<path fill="none" stroke="black" d="M640.79,-213.71C558.13,-204.98 405.43,-181.33 291,-120 280.94,-114.61 270.91,-107.32 262.18,-100.17"/>
<polygon fill="black" stroke="black" points="262.07,-100.08 254.91,-99.22 252.94,-92.28 262.07,-100.08"/>
<g id="a_edge3&#45;label"><a xlink:title="use_module">
<text text-anchor="middle" x="369" y="-138.8" font-family="Courier,monospace" font-size="9.00">use_module</text>
</a>
</g>
</g>
<!-- prolog_debug -->
<g id="node5" class="node">
<title>prolog_debug</title>
<g id="a_node5"><a xlink:title="module">
<polygon fill="gainsboro" stroke="black" stroke-dasharray="5,2" points="404.5,-92 311.5,-92 311.5,-96 299.5,-96 299.5,-56 404.5,-56 404.5,-92"/>
<polyline fill="none" stroke="black" stroke-dasharray="5,2" points="299.5,-92 311.5,-92 "/>
<text text-anchor="start" x="307.8" y="-75.8" font-family="Courier,monospace" font-size="9.00"> </text>
<text text-anchor="start" x="312.89" y="-75.2" font-family="Courier,monospace" font-size="11.00">prolog_debug</text>
<text text-anchor="start" x="391.8" y="-75.8" font-family="Courier,monospace" font-size="9.00"> </text>
<text text-anchor="start" x="307.8" y="-65.8" font-family="Courier,monospace" font-size="9.00"> </text>
<text text-anchor="start" x="339.9" y="-66.4" font-family="Courier,monospace" font-size="7.00">module</text>
<text text-anchor="start" x="391.8" y="-65.8" font-family="Courier,monospace" font-size="9.00"> </text>
</a>
</g>
</g>
<!-- rdf_graphviz&#45;&gt;prolog_debug -->
<g id="edge4" class="edge">
<title>rdf_graphviz&#45;&gt;prolog_debug</title>
<path fill="none" stroke="black" d="M640.99,-208.27C587.77,-197.54 508.36,-177.76 444.99,-146 420.94,-133.95 396.88,-115.36 379.26,-100.22"/>
<polygon fill="black" stroke="black" points="379.18,-100.16 372.04,-99.2 370.17,-92.23 379.18,-100.16"/>
<g id="a_edge4&#45;label"><a xlink:title="use_module">
<text text-anchor="middle" x="471" y="-138.8" font-family="Courier,monospace" font-size="9.00">use_module</text>
</a>
</g>
</g>
<!-- assoc -->
<g id="node6" class="node">
<title>assoc</title>
<g id="a_node6"><a xlink:title="module">
<polygon fill="gainsboro" stroke="black" stroke-dasharray="5,2" points="481.5,-92 434.5,-92 434.5,-96 422.5,-96 422.5,-56 481.5,-56 481.5,-92"/>
<polyline fill="none" stroke="black" stroke-dasharray="5,2" points="422.5,-92 434.5,-92 "/>
<text text-anchor="start" x="430.8" y="-75.8" font-family="Courier,monospace" font-size="9.00"> </text>
<text text-anchor="start" x="436" y="-75.2" font-family="Courier,monospace" font-size="11.00">assoc</text>
<text text-anchor="start" x="468.8" y="-75.8" font-family="Courier,monospace" font-size="9.00"> </text>
<text text-anchor="start" x="430.8" y="-65.8" font-family="Courier,monospace" font-size="9.00"> </text>
<text text-anchor="start" x="439.9" y="-66.4" font-family="Courier,monospace" font-size="7.00">module</text>
<text text-anchor="start" x="468.8" y="-65.8" font-family="Courier,monospace" font-size="9.00"> </text>
</a>
</g>
</g>
<!-- rdf_graphviz&#45;&gt;assoc -->
<g id="edge5" class="edge">
<title>rdf_graphviz&#45;&gt;assoc</title>
<path fill="none" stroke="black" d="M640.76,-203.29C602.36,-191.61 552.51,-172.87 513.99,-146 497.04,-134.17 481.72,-116.73 470.55,-102.09"/>
<polygon fill="black" stroke="black" points="470.28,-101.72 463.51,-99.25 463.19,-92.05 470.28,-101.72"/>
<g id="a_edge5&#45;label"><a xlink:title="use_module">
<text text-anchor="middle" x="540" y="-138.8" font-family="Courier,monospace" font-size="9.00">use_module</text>
</a>
</g>
</g>
<!-- ugraphs -->
<g id="node7" class="node">
<title>ugraphs</title>
<g id="a_node7"><a xlink:title="module">
<polygon fill="gainsboro" stroke="black" stroke-dasharray="5,2" points="572,-92 512,-92 512,-96 500,-96 500,-56 572,-56 572,-92"/>
<polyline fill="none" stroke="black" stroke-dasharray="5,2" points="500,-92 512,-92 "/>
<text text-anchor="start" x="507.8" y="-75.8" font-family="Courier,monospace" font-size="9.00"> </text>
<text text-anchor="start" x="512.9" y="-75.2" font-family="Courier,monospace" font-size="11.00">ugraphs</text>
<text text-anchor="start" x="558.8" y="-75.8" font-family="Courier,monospace" font-size="9.00"> </text>
<text text-anchor="start" x="507.8" y="-65.8" font-family="Courier,monospace" font-size="9.00"> </text>
<text text-anchor="start" x="523.4" y="-66.4" font-family="Courier,monospace" font-size="7.00">module</text>
<text text-anchor="start" x="558.8" y="-65.8" font-family="Courier,monospace" font-size="9.00"> </text>
</a>
</g>
</g>
<!-- rdf_graphviz&#45;&gt;ugraphs -->
<g id="edge6" class="edge">
<title>rdf_graphviz&#45;&gt;ugraphs</title>
<path fill="none" stroke="black" d="M642.36,-191C621.17,-179.1 597.99,-163.8 579.99,-146 567.51,-133.65 556.99,-117.1 549.37,-103.08"/>
<polygon fill="black" stroke="black" points="549.18,-102.72 542.87,-99.22 543.68,-92.05 549.18,-102.72"/>
<g id="a_edge6&#45;label"><a xlink:title="use_module">
<text text-anchor="middle" x="606" y="-138.8" font-family="Courier,monospace" font-size="9.00">use_module</text>
</a>
</g>
</g>
<!-- lists -->
<g id="node8" class="node">
<title>lists</title>
<g id="a_node8"><a xlink:title="module">
<polygon fill="gainsboro" stroke="black" stroke-dasharray="5,2" points="649.5,-92 602.5,-92 602.5,-96 590.5,-96 590.5,-56 649.5,-56 649.5,-92"/>
<polyline fill="none" stroke="black" stroke-dasharray="5,2" points="590.5,-92 602.5,-92 "/>
<text text-anchor="start" x="598.8" y="-75.8" font-family="Courier,monospace" font-size="9.00"> </text>
<text text-anchor="start" x="604" y="-75.2" font-family="Courier,monospace" font-size="11.00">lists</text>
<text text-anchor="start" x="636.8" y="-75.8" font-family="Courier,monospace" font-size="9.00"> </text>
<text text-anchor="start" x="598.8" y="-65.8" font-family="Courier,monospace" font-size="9.00"> </text>
<text text-anchor="start" x="607.9" y="-66.4" font-family="Courier,monospace" font-size="7.00">module</text>
<text text-anchor="start" x="636.8" y="-65.8" font-family="Courier,monospace" font-size="9.00"> </text>
</a>
</g>
</g>
<!-- rdf_graphviz&#45;&gt;lists -->
<g id="edge7" class="edge">
<title>rdf_graphviz&#45;&gt;lists</title>
<path fill="none" stroke="black" d="M673.91,-190.97C662.83,-178.1 650.53,-162.09 641.99,-146 635.03,-132.87 629.88,-117.18 626.32,-103.89"/>
<polygon fill="black" stroke="black" points="626.27,-103.7 620.95,-98.84 623.39,-92.05 626.27,-103.7"/>
<g id="a_edge7&#45;label"><a xlink:title="use_module">
<text text-anchor="middle" x="668" y="-138.8" font-family="Courier,monospace" font-size="9.00">use_module</text>
</a>
</g>
</g>
<!-- gensym -->
<g id="node9" class="node">
<title>gensym</title>
<g id="a_node9"><a xlink:title="module">
<polygon fill="gainsboro" stroke="black" stroke-dasharray="5,2" points="732.5,-92 679.5,-92 679.5,-96 667.5,-96 667.5,-56 732.5,-56 732.5,-92"/>
<polyline fill="none" stroke="black" stroke-dasharray="5,2" points="667.5,-92 679.5,-92 "/>
<text text-anchor="start" x="675.8" y="-75.8" font-family="Courier,monospace" font-size="9.00"> </text>
<text text-anchor="start" x="680.7" y="-75.2" font-family="Courier,monospace" font-size="11.00">gensym</text>
<text text-anchor="start" x="719.8" y="-75.8" font-family="Courier,monospace" font-size="9.00"> </text>
<text text-anchor="start" x="675.8" y="-65.8" font-family="Courier,monospace" font-size="9.00"> </text>
<text text-anchor="start" x="687.9" y="-66.4" font-family="Courier,monospace" font-size="7.00">module</text>
<text text-anchor="start" x="719.8" y="-65.8" font-family="Courier,monospace" font-size="9.00"> </text>
</a>
</g>
</g>
<!-- rdf_graphviz&#45;&gt;gensym -->
<g id="edge8" class="edge">
<title>rdf_graphviz&#45;&gt;gensym</title>
<path fill="none" stroke="black" d="M700,-190.83C700,-166 700,-129.68 700,-104.34"/>
<polygon fill="black" stroke="black" points="700,-104.22 696,-98.22 700,-92.22 700,-104.22"/>
<g id="a_edge8&#45;label"><a xlink:title="use_module">
<text text-anchor="middle" x="727" y="-138.8" font-family="Courier,monospace" font-size="9.00">use_module</text>
</a>
</g>
</g>
<!-- rdf_label -->
<g id="node10" class="node">
<title>rdf_label</title>
<g id="a_node10"><a xlink:title="module">
<polygon fill="gainsboro" stroke="black" stroke-dasharray="5,2" points="835.5,-92 762.5,-92 762.5,-96 750.5,-96 750.5,-56 835.5,-56 835.5,-92"/>
<polyline fill="none" stroke="black" stroke-dasharray="5,2" points="750.5,-92 762.5,-92 "/>
<text text-anchor="start" x="758.8" y="-75.8" font-family="Courier,monospace" font-size="9.00"> </text>
<text text-anchor="start" x="763.8" y="-75.2" font-family="Courier,monospace" font-size="11.00">rdf_label</text>
<text text-anchor="start" x="822.8" y="-75.8" font-family="Courier,monospace" font-size="9.00"> </text>
<text text-anchor="start" x="758.8" y="-65.8" font-family="Courier,monospace" font-size="9.00"> </text>
<text text-anchor="start" x="780.9" y="-66.4" font-family="Courier,monospace" font-size="7.00">module</text>
<text text-anchor="start" x="822.8" y="-65.8" font-family="Courier,monospace" font-size="9.00"> </text>
</a>
</g>
</g>
<!-- rdf_graphviz&#45;&gt;rdf_label -->
<g id="edge9" class="edge">
<title>rdf_graphviz&#45;&gt;rdf_label</title>
<path fill="none" stroke="black" d="M724.35,-190.98C735.34,-177.86 748.05,-161.64 758,-146 766.61,-132.46 774.65,-116.49 780.85,-103.14"/>
<polygon fill="black" stroke="black" points="780.85,-103.13 779.67,-96.02 785.79,-92.2 780.85,-103.13"/>
<g id="a_edge9&#45;label"><a xlink:title="use_module">
<text text-anchor="middle" x="789" y="-138.8" font-family="Courier,monospace" font-size="9.00">use_module</text>
</a>
</g>
</g>
<!-- html_write -->
<g id="node11" class="node">
<title>html_write</title>
<g id="a_node11"><a xlink:title="module">
<polygon fill="gainsboro" stroke="black" stroke-dasharray="5,2" points="946,-92 866,-92 866,-96 854,-96 854,-56 946,-56 946,-92"/>
<polyline fill="none" stroke="black" stroke-dasharray="5,2" points="854,-92 866,-92 "/>
<text text-anchor="start" x="861.8" y="-75.8" font-family="Courier,monospace" font-size="9.00"> </text>
<text text-anchor="start" x="866.99" y="-75.2" font-family="Courier,monospace" font-size="11.00">html_write</text>
<text text-anchor="start" x="932.8" y="-75.8" font-family="Courier,monospace" font-size="9.00"> </text>
<text text-anchor="start" x="861.8" y="-65.8" font-family="Courier,monospace" font-size="9.00"> </text>
<text text-anchor="start" x="887.4" y="-66.4" font-family="Courier,monospace" font-size="7.00">module</text>
<text text-anchor="start" x="932.8" y="-65.8" font-family="Courier,monospace" font-size="9.00"> </text>
</a>
</g>
</g>
<!-- rdf_graphviz&#45;&gt;html_write -->
<g id="edge10" class="edge">
<title>rdf_graphviz&#45;&gt;html_write</title>
<path fill="none" stroke="black" d="M750.35,-190.83C772.33,-178.06 798.05,-162.16 820,-146 838.95,-132.05 858.74,-114.52 873.89,-100.36"/>
<polygon fill="black" stroke="black" points="873.96,-100.3 875.57,-93.27 882.68,-92.05 873.96,-100.3"/>
<g id="a_edge10&#45;label"><a xlink:title="use_module">
<text text-anchor="middle" x="858" y="-138.8" font-family="Courier,monospace" font-size="9.00">use_module</text>
</a>
</g>
</g>
<!-- files_ex -->
<g id="node12" class="node">
<title>files_ex</title>
<g id="a_node12"><a xlink:title="module">
<polygon fill="gainsboro" stroke="black" stroke-dasharray="5,2" points="1042,-92 976,-92 976,-96 964,-96 964,-56 1042,-56 1042,-92"/>
<polyline fill="none" stroke="black" stroke-dasharray="5,2" points="964,-92 976,-92 "/>
<text text-anchor="start" x="971.8" y="-75.8" font-family="Courier,monospace" font-size="9.00"> </text>
<text text-anchor="start" x="976.6" y="-75.2" font-family="Courier,monospace" font-size="11.00">files_ex</text>
<text text-anchor="start" x="1028.8" y="-75.8" font-family="Courier,monospace" font-size="9.00"> </text>
<text text-anchor="start" x="971.8" y="-65.8" font-family="Courier,monospace" font-size="9.00"> </text>
<text text-anchor="start" x="990.4" y="-66.4" font-family="Courier,monospace" font-size="7.00">module</text>
<text text-anchor="start" x="1028.8" y="-65.8" font-family="Courier,monospace" font-size="9.00"> </text>
</a>
</g>
</g>
<!-- rdf_graphviz&#45;&gt;files_ex -->
<g id="edge11" class="edge">
<title>rdf_graphviz&#45;&gt;files_ex</title>
<path fill="none" stroke="black" d="M759.25,-202.82C812.99,-186.97 893.04,-159.21 955,-120 963.55,-114.59 971.93,-107.53 979.24,-100.62"/>
<polygon fill="black" stroke="black" points="979.33,-100.53 980.77,-93.46 987.85,-92.07 979.33,-100.53"/>
<g id="a_edge11&#45;label"><a xlink:title="use_module">
<text text-anchor="middle" x="949" y="-138.8" font-family="Courier,monospace" font-size="9.00">use_module</text>
</a>
</g>
</g>
<!-- url_cache -->
<g id="node13" class="node">
<title>url_cache</title>
<g id="a_node13"><a xlink:title="module">
<polygon fill="gainsboro" stroke="black" stroke-dasharray="5,2" points="1145.5,-92 1072.5,-92 1072.5,-96 1060.5,-96 1060.5,-56 1145.5,-56 1145.5,-92"/>
<polyline fill="none" stroke="black" stroke-dasharray="5,2" points="1060.5,-92 1072.5,-92 "/>
<text text-anchor="start" x="1068.8" y="-75.8" font-family="Courier,monospace" font-size="9.00"> </text>
<text text-anchor="start" x="1073.8" y="-75.2" font-family="Courier,monospace" font-size="11.00">url_cache</text>
<text text-anchor="start" x="1132.8" y="-75.8" font-family="Courier,monospace" font-size="9.00"> </text>
<text text-anchor="start" x="1068.8" y="-65.8" font-family="Courier,monospace" font-size="9.00"> </text>
<text text-anchor="start" x="1090.9" y="-66.4" font-family="Courier,monospace" font-size="7.00">module</text>
<text text-anchor="start" x="1132.8" y="-65.8" font-family="Courier,monospace" font-size="9.00"> </text>
</a>
</g>
</g>
<!-- rdf_graphviz&#45;&gt;url_cache -->
<g id="edge12" class="edge">
<title>rdf_graphviz&#45;&gt;url_cache</title>
<path fill="none" stroke="black" d="M759.23,-211.34C832.09,-200.49 957.6,-175 1051,-120 1060.22,-114.57 1069.35,-107.43 1077.33,-100.45"/>
<polygon fill="black" stroke="black" points="1077.57,-100.23 1079.29,-93.22 1086.42,-92.12 1077.57,-100.23"/>
<g id="a_edge12&#45;label"><a xlink:title="use_module">
<text text-anchor="middle" x="1043" y="-138.8" font-family="Courier,monospace" font-size="9.00">use_module</text>
</a>
</g>
</g>
<!-- error -->
<g id="node14" class="node">
<title>error</title>
<g id="a_node14"><a xlink:title="module">
<polygon fill="gainsboro" stroke="black" stroke-dasharray="5,2" points="1222.5,-92 1175.5,-92 1175.5,-96 1163.5,-96 1163.5,-56 1222.5,-56 1222.5,-92"/>
<polyline fill="none" stroke="black" stroke-dasharray="5,2" points="1163.5,-92 1175.5,-92 "/>
<text text-anchor="start" x="1171.8" y="-75.8" font-family="Courier,monospace" font-size="9.00"> </text>
<text text-anchor="start" x="1177" y="-75.2" font-family="Courier,monospace" font-size="11.00">error</text>
<text text-anchor="start" x="1209.8" y="-75.8" font-family="Courier,monospace" font-size="9.00"> </text>
<text text-anchor="start" x="1171.8" y="-65.8" font-family="Courier,monospace" font-size="9.00"> </text>
<text text-anchor="start" x="1180.9" y="-66.4" font-family="Courier,monospace" font-size="7.00">module</text>
<text text-anchor="start" x="1209.8" y="-65.8" font-family="Courier,monospace" font-size="9.00"> </text>
</a>
</g>
</g>
<!-- rdf_graphviz&#45;&gt;error -->
<g id="edge13" class="edge">
<title>rdf_graphviz&#45;&gt;error</title>
<path fill="none" stroke="black" d="M759.11,-209.28C833.24,-197.21 963.97,-174.22 1074,-146 1110.62,-136.61 1123.58,-141.04 1155,-120 1162.31,-115.11 1168.99,-108.42 1174.65,-101.7"/>
<polygon fill="black" stroke="black" points="1174.8,-101.52 1175.32,-94.32 1182.16,-92.04 1174.8,-101.52"/>
<g id="a_edge13&#45;label"><a xlink:title="use_module">
<text text-anchor="middle" x="1144" y="-138.8" font-family="Courier,monospace" font-size="9.00">use_module</text>
</a>
</g>
</g>
<!-- rdfs -->
<g id="node15" class="node">
<title>rdfs</title>
<g id="a_node15"><a xlink:title="module">
<polygon fill="gainsboro" stroke="black" stroke-dasharray="5,2" points="1295,-92 1253,-92 1253,-96 1241,-96 1241,-56 1295,-56 1295,-92"/>
<polyline fill="none" stroke="black" stroke-dasharray="5,2" points="1241,-92 1253,-92 "/>
<text text-anchor="start" x="1249.8" y="-75.8" font-family="Courier,monospace" font-size="9.00"> </text>
<text text-anchor="start" x="1254.8" y="-75.2" font-family="Courier,monospace" font-size="11.00">rdfs</text>
<text text-anchor="start" x="1280.8" y="-75.8" font-family="Courier,monospace" font-size="9.00"> </text>
<text text-anchor="start" x="1249.8" y="-65.8" font-family="Courier,monospace" font-size="9.00"> </text>
<text text-anchor="start" x="1255.4" y="-66.4" font-family="Courier,monospace" font-size="7.00">module</text>
<text text-anchor="start" x="1280.8" y="-65.8" font-family="Courier,monospace" font-size="9.00"> </text>
</a>
</g>
</g>
<!-- rdf_graphviz&#45;&gt;rdfs -->
<g id="edge14" class="edge">
<title>rdf_graphviz&#45;&gt;rdfs</title>
<path fill="none" stroke="black" d="M759.28,-214.73C850.31,-207.77 1029.3,-189.43 1175,-146 1201.68,-138.05 1210.04,-137.12 1232,-120 1238.53,-114.91 1244.59,-108.42 1249.81,-101.96"/>
<polygon fill="black" stroke="black" points="1250.06,-101.63 1250.47,-94.43 1257.27,-92.03 1250.06,-101.63"/>
<g id="a_edge14&#45;label"><a xlink:title="use_module">
<text text-anchor="middle" x="1230" y="-138.8" font-family="Courier,monospace" font-size="9.00">use_module</text>
</a>
</g>
</g>
<!-- http_dispatch -->
<g id="node16" class="node">
<title>http_dispatch</title>
<g id="a_node16"><a xlink:title="module">
<polygon fill="gainsboro" stroke="black" stroke-dasharray="5,2" points="1424.5,-92 1325.5,-92 1325.5,-96 1313.5,-96 1313.5,-56 1424.5,-56 1424.5,-92"/>
<polyline fill="none" stroke="black" stroke-dasharray="5,2" points="1313.5,-92 1325.5,-92 "/>
<text text-anchor="start" x="1321.8" y="-75.8" font-family="Courier,monospace" font-size="9.00"> </text>
<text text-anchor="start" x="1326.59" y="-75.2" font-family="Courier,monospace" font-size="11.00">http_dispatch</text>
<text text-anchor="start" x="1411.8" y="-75.8" font-family="Courier,monospace" font-size="9.00"> </text>
<text text-anchor="start" x="1321.8" y="-65.8" font-family="Courier,monospace" font-size="9.00"> </text>
<text text-anchor="start" x="1356.9" y="-66.4" font-family="Courier,monospace" font-size="7.00">module</text>
<text text-anchor="start" x="1411.8" y="-65.8" font-family="Courier,monospace" font-size="9.00"> </text>
</a>
</g>
</g>
<!-- rdf_graphviz&#45;&gt;http_dispatch -->
<g id="edge15" class="edge">
<title>rdf_graphviz&#45;&gt;http_dispatch</title>
<path fill="none" stroke="black" d="M759.16,-218.78C863.51,-217.57 1085.78,-207.23 1261,-146 1290.31,-135.76 1319.48,-115.85 1340.11,-99.71"/>
<polygon fill="black" stroke="black" points="1340.16,-99.67 1342.33,-92.79 1349.51,-92.15 1340.16,-99.67"/>
<g id="a_edge15&#45;label"><a xlink:title="use_module">
<text text-anchor="middle" x="1307" y="-138.8" font-family="Courier,monospace" font-size="9.00">use_module</text>
</a>
</g>
</g>
</g>
</svg>
