<?xml version="1.0" encoding="UTF-8" standalone="no"?>
<!DOCTYPE svg PUBLIC "-//W3C//DTD SVG 1.1//EN"
 "http://www.w3.org/Graphics/SVG/1.1/DTD/svg11.dtd">
<!-- Generated by graphviz version 2.41.20190410.0829 (20190410.0829)
 -->
<!-- Title: rdf_label.pl Pages: 1 -->
<svg width="590pt" height="490pt"
 viewBox="72.00 72.00 518.00 418.00" xmlns="http://www.w3.org/2000/svg" xmlns:xlink="http://www.w3.org/1999/xlink">
<g id="graph0" class="graph" transform="scale(1 1) rotate(0) translate(76 414)">
<title>rdf_label.pl</title>
<polygon fill="white" stroke="transparent" points="-4,4 -4,-342 442,-342 442,4 -4,4"/>
<text text-anchor="start" x="8" y="-16" font-family="Courier,monospace" font-size="10.00" fill="#8b8989">ClioPatria &#45; an RDF application platform</text>
<text text-anchor="start" x="8" y="-6" font-family="Courier,monospace" font-size="10.00" fill="#8b8989">Generated on 2019/04/17, 13:04</text>
<g id="clust1" class="cluster">
<title>cluster_file_/Users/pmoura/ClioPatria/lib/semweb/rdf_label.pl</title>
<g id="a_clust1"><a xlink:href="https://github.com/ClioPatria/ClioPatria/tree/add57aa2039eed4033cf96e96c293b2052e88f41/lib/semweb/rdf_label.pl" xlink:title="https://github.com/ClioPatria/ClioPatria/tree/add57aa2039eed4033cf96e96c293b2052e88f41/lib/semweb/rdf_label.pl">
<path fill="snow" stroke="#8b8989" d="M20,-36C20,-36 418,-36 418,-36 424,-36 430,-42 430,-48 430,-48 430,-318 430,-318 430,-324 424,-330 418,-330 418,-330 20,-330 20,-330 14,-330 8,-324 8,-318 8,-318 8,-48 8,-48 8,-42 14,-36 20,-36"/>
<text text-anchor="middle" x="52.01" y="-318" font-family="Courier,monospace" font-size="10.00" fill="#8b8989">rdf_label.pl</text>
</a>
</g>
</g>
<g id="clust2" class="cluster">
<title>cluster_other</title>
<g id="a_clust2"><a xlink:title="(external entities)">
<path fill="white" stroke="#8b8989" d="M30,-46C30,-46 408,-46 408,-46 414,-46 420,-52 420,-58 420,-58 420,-108 420,-108 420,-114 414,-120 408,-120 408,-120 30,-120 30,-120 24,-120 18,-114 18,-108 18,-108 18,-58 18,-58 18,-52 24,-46 30,-46"/>
<text text-anchor="middle" x="83.01" y="-108" font-family="Courier,monospace" font-size="10.00" fill="#8b8989">(external entities)</text>
</a>
</g>
</g>
<!-- rdf_label -->
<g id="node1" class="node">
<title>rdf_label</title>
<g id="a_node1"><a xlink:title="module">
<polygon fill="gainsboro" stroke="black" points="289.5,-302 140.5,-302 140.5,-306 128.5,-306 128.5,-191 289.5,-191 289.5,-302"/>
<polyline fill="none" stroke="black" points="128.5,-302 140.5,-302 "/>
<g id="a_node1_0"><a xlink:href="rdf_label_module_xref_diagram.svg" xlink:title="Zoom">
<image xlink:href="zoom.png" width="11px" height="11px" preserveAspectRatio="xMinYMin meet" x="137" y="-297.5"/>
</a>
</g>
<text text-anchor="start" x="139.8" y="-278.3" font-family="Courier,monospace" font-size="9.00"> </text>
<text text-anchor="start" x="182.8" y="-277.7" font-family="Courier,monospace" font-size="11.00">rdf_label</text>
<text text-anchor="start" x="276.8" y="-278.3" font-family="Courier,monospace" font-size="9.00"> </text>
<text text-anchor="start" x="139.8" y="-268.3" font-family="Courier,monospace" font-size="9.00"> </text>
<text text-anchor="start" x="199.9" y="-268.9" font-family="Courier,monospace" font-size="7.00">module</text>
<text text-anchor="start" x="276.8" y="-268.3" font-family="Courier,monospace" font-size="9.00"> </text>
<text text-anchor="start" x="139.8" y="-259.3" font-family="Courier,monospace" font-size="9.00"> </text>
<text text-anchor="start" x="139.8" y="-250.3" font-family="Courier,monospace" font-size="9.00"> </text>
<text text-anchor="start" x="174.69" y="-250.3" font-family="Courier,monospace" font-size="9.00">literal_text/2</text>
<text text-anchor="start" x="276.8" y="-250.3" font-family="Courier,monospace" font-size="9.00"> </text>
<text text-anchor="start" x="139.8" y="-241.3" font-family="Courier,monospace" font-size="9.00"> </text>
<text text-anchor="start" x="171.99" y="-241.3" font-family="Courier,monospace" font-size="9.00">truncate_atom/3</text>
<text text-anchor="start" x="276.8" y="-241.3" font-family="Courier,monospace" font-size="9.00"> </text>
<text text-anchor="start" x="139.8" y="-232.3" font-family="Courier,monospace" font-size="9.00"> </text>
<text text-anchor="start" x="161.19" y="-232.3" font-family="Courier,monospace" font-size="9.00">rdf_display_label/2</text>
<text text-anchor="start" x="276.8" y="-232.3" font-family="Courier,monospace" font-size="9.00"> </text>
<text text-anchor="start" x="139.8" y="-223.3" font-family="Courier,monospace" font-size="9.00"> </text>
<text text-anchor="start" x="182.8" y="-223.3" font-family="Courier,monospace" font-size="9.00">rdf_label/2</text>
<text text-anchor="start" x="276.8" y="-223.3" font-family="Courier,monospace" font-size="9.00"> </text>
<text text-anchor="start" x="139.8" y="-214.3" font-family="Courier,monospace" font-size="9.00"> </text>
<text text-anchor="start" x="161.19" y="-214.3" font-family="Courier,monospace" font-size="9.00">rdf_display_label/3</text>
<text text-anchor="start" x="276.8" y="-214.3" font-family="Courier,monospace" font-size="9.00"> </text>
<text text-anchor="start" x="139.8" y="-205.3" font-family="Courier,monospace" font-size="9.00"> </text>
<text text-anchor="start" x="169.29" y="-205.3" font-family="Courier,monospace" font-size="9.00">label_property/1</text>
<text text-anchor="start" x="276.8" y="-205.3" font-family="Courier,monospace" font-size="9.00"> </text>
<text text-anchor="start" x="139.8" y="-196.3" font-family="Courier,monospace" font-size="9.00"> </text>
<text text-anchor="start" x="147.69" y="-196.3" font-family="Courier,monospace" font-size="9.00">sandbox:safe_primitive/1</text>
<text text-anchor="start" x="276.8" y="-196.3" font-family="Courier,monospace" font-size="9.00"> </text>
</a>
</g>
</g>
<!-- sandbox -->
<g id="node2" class="node">
<title>sandbox</title>
<g id="a_node2"><a xlink:title="module">
<polygon fill="gainsboro" stroke="black" stroke-dasharray="5,2" points="100,-92 40,-92 40,-96 28,-96 28,-56 100,-56 100,-92"/>
<polyline fill="none" stroke="black" stroke-dasharray="5,2" points="28,-92 40,-92 "/>
<text text-anchor="start" x="35.8" y="-75.8" font-family="Courier,monospace" font-size="9.00"> </text>
<text text-anchor="start" x="40.9" y="-75.2" font-family="Courier,monospace" font-size="11.00">sandbox</text>
<text text-anchor="start" x="86.8" y="-75.8" font-family="Courier,monospace" font-size="9.00"> </text>
<text text-anchor="start" x="35.8" y="-65.8" font-family="Courier,monospace" font-size="9.00"> </text>
<text text-anchor="start" x="51.4" y="-66.4" font-family="Courier,monospace" font-size="7.00">module</text>
<text text-anchor="start" x="86.8" y="-65.8" font-family="Courier,monospace" font-size="9.00"> </text>
</a>
</g>
</g>
<!-- rdf_label&#45;&gt;sandbox -->
<g id="edge1" class="edge">
<title>rdf_label&#45;&gt;sandbox</title>
<path fill="none" stroke="black" d="M162.32,-190.61C136.4,-160.14 105.42,-123.7 85.25,-99.99"/>
<polygon fill="black" stroke="black" points="81.26,-89.9 85.08,-99.78 75.93,-94.43 81.26,-89.9"/>
<g id="a_edge1&#45;label"><a xlink:title="provides">
<text text-anchor="middle" x="144.6" y="-138.8" font-family="Courier,monospace" font-size="9.00">provides</text>
</a>
</g>
</g>
<!-- rdf_db -->
<g id="node3" class="node">
<title>rdf_db</title>
<g id="a_node3"><a xlink:title="module">
<polygon fill="gainsboro" stroke="black" stroke-dasharray="5,2" points="183.5,-92 130.5,-92 130.5,-96 118.5,-96 118.5,-56 183.5,-56 183.5,-92"/>
<polyline fill="none" stroke="black" stroke-dasharray="5,2" points="118.5,-92 130.5,-92 "/>
<text text-anchor="start" x="126.8" y="-75.8" font-family="Courier,monospace" font-size="9.00"> </text>
<text text-anchor="start" x="131.7" y="-75.2" font-family="Courier,monospace" font-size="11.00">rdf_db</text>
<text text-anchor="start" x="170.8" y="-75.8" font-family="Courier,monospace" font-size="9.00"> </text>
<text text-anchor="start" x="126.8" y="-65.8" font-family="Courier,monospace" font-size="9.00"> </text>
<text text-anchor="start" x="138.9" y="-66.4" font-family="Courier,monospace" font-size="7.00">module</text>
<text text-anchor="start" x="170.8" y="-65.8" font-family="Courier,monospace" font-size="9.00"> </text>
</a>
</g>
</g>
<!-- rdf_label&#45;&gt;rdf_db -->
<g id="edge2" class="edge">
<title>rdf_label&#45;&gt;rdf_db</title>
<path fill="none" stroke="black" d="M190.33,-190.61C180.5,-161.73 168.86,-127.5 160.8,-103.82"/>
<polygon fill="black" stroke="black" points="160.7,-103.53 154.98,-99.13 156.84,-92.17 160.7,-103.53"/>
<g id="a_edge2&#45;label"><a xlink:title="use_module">
<text text-anchor="middle" x="201" y="-138.8" font-family="Courier,monospace" font-size="9.00">use_module</text>
</a>
</g>
</g>
<!-- user_preferences -->
<g id="node4" class="node">
<title>user_preferences</title>
<g id="a_node4"><a xlink:title="module">
<polygon fill="gainsboro" stroke="black" stroke-dasharray="5,2" points="332.5,-92 213.5,-92 213.5,-96 201.5,-96 201.5,-56 332.5,-56 332.5,-92"/>
<polyline fill="none" stroke="black" stroke-dasharray="5,2" points="201.5,-92 213.5,-92 "/>
<text text-anchor="start" x="209.8" y="-75.8" font-family="Courier,monospace" font-size="9.00"> </text>
<text text-anchor="start" x="214.69" y="-75.2" font-family="Courier,monospace" font-size="11.00">user_preferences</text>
<text text-anchor="start" x="319.8" y="-75.8" font-family="Courier,monospace" font-size="9.00"> </text>
<text text-anchor="start" x="209.8" y="-65.8" font-family="Courier,monospace" font-size="9.00"> </text>
<text text-anchor="start" x="254.9" y="-66.4" font-family="Courier,monospace" font-size="7.00">module</text>
<text text-anchor="start" x="319.8" y="-65.8" font-family="Courier,monospace" font-size="9.00"> </text>
</a>
</g>
</g>
<!-- rdf_label&#45;&gt;user_preferences -->
<g id="edge3" class="edge">
<title>rdf_label&#45;&gt;user_preferences</title>
<path fill="none" stroke="black" d="M227.67,-190.61C237.5,-161.73 249.14,-127.5 257.2,-103.82"/>
<polygon fill="black" stroke="black" points="257.3,-103.53 255.44,-96.56 261.16,-92.17 257.3,-103.53"/>
<g id="a_edge3&#45;label"><a xlink:title="use_module">
<text text-anchor="middle" x="271" y="-138.8" font-family="Courier,monospace" font-size="9.00">use_module</text>
</a>
</g>
</g>
<!-- rdf11 -->
<g id="node5" class="node">
<title>rdf11</title>
<g id="a_node5"><a xlink:title="module">
<polygon fill="gainsboro" stroke="black" stroke-dasharray="5,2" points="409.5,-92 362.5,-92 362.5,-96 350.5,-96 350.5,-56 409.5,-56 409.5,-92"/>
<polyline fill="none" stroke="black" stroke-dasharray="5,2" points="350.5,-92 362.5,-92 "/>
<text text-anchor="start" x="358.8" y="-75.8" font-family="Courier,monospace" font-size="9.00"> </text>
<text text-anchor="start" x="364" y="-75.2" font-family="Courier,monospace" font-size="11.00">rdf11</text>
<text text-anchor="start" x="396.8" y="-75.8" font-family="Courier,monospace" font-size="9.00"> </text>
<text text-anchor="start" x="358.8" y="-65.8" font-family="Courier,monospace" font-size="9.00"> </text>
<text text-anchor="start" x="367.9" y="-66.4" font-family="Courier,monospace" font-size="7.00">module</text>
<text text-anchor="start" x="396.8" y="-65.8" font-family="Courier,monospace" font-size="9.00"> </text>
</a>
</g>
</g>
<!-- rdf_label&#45;&gt;rdf11 -->
<g id="edge4" class="edge">
<title>rdf_label&#45;&gt;rdf11</title>
<path fill="none" stroke="black" d="M269.65,-190.98C292.85,-169.43 319.2,-144.1 342,-120 347.53,-114.15 353.26,-107.64 358.54,-101.43"/>
<polygon fill="black" stroke="black" points="358.67,-101.27 359.45,-94.1 366.36,-92.06 358.67,-101.27"/>
<g id="a_edge4&#45;label"><a xlink:title="use_module">
<text text-anchor="middle" x="351" y="-138.8" font-family="Courier,monospace" font-size="9.00">use_module</text>
</a>
</g>
</g>
</g>
</svg>
