<?xml version="1.0" encoding="UTF-8" standalone="no"?>
<!DOCTYPE svg PUBLIC "-//W3C//DTD SVG 1.1//EN"
 "http://www.w3.org/Graphics/SVG/1.1/DTD/svg11.dtd">
<!-- Generated by graphviz version 2.41.20190410.0829 (20190410.0829)
 -->
<!-- Title: rdf_turtle_io.pl Pages: 1 -->
<svg width="611pt" height="436pt"
 viewBox="72.00 72.00 539.00 364.00" xmlns="http://www.w3.org/2000/svg" xmlns:xlink="http://www.w3.org/1999/xlink">
<g id="graph0" class="graph" transform="scale(1 1) rotate(0) translate(76 360)">
<title>rdf_turtle_io.pl</title>
<polygon fill="white" stroke="transparent" points="-4,4 -4,-288 463,-288 463,4 -4,4"/>
<text text-anchor="start" x="8" y="-16" font-family="Courier,monospace" font-size="10.00" fill="#8b8989">ClioPatria &#45; an RDF application platform</text>
<text text-anchor="start" x="8" y="-6" font-family="Courier,monospace" font-size="10.00" fill="#8b8989">Generated on 2019/04/17, 13:04</text>
<g id="clust1" class="cluster">
<title>cluster_file_/Users/pmoura/ClioPatria/rdfql/rdf_turtle_io.pl</title>
<g id="a_clust1"><a xlink:href="https://github.com/ClioPatria/ClioPatria/tree/add57aa2039eed4033cf96e96c293b2052e88f41/rdfql/rdf_turtle_io.pl" xlink:title="https://github.com/ClioPatria/ClioPatria/tree/add57aa2039eed4033cf96e96c293b2052e88f41/rdfql/rdf_turtle_io.pl">
<path fill="snow" stroke="#8b8989" d="M20,-36C20,-36 439,-36 439,-36 445,-36 451,-42 451,-48 451,-48 451,-264 451,-264 451,-270 445,-276 439,-276 439,-276 20,-276 20,-276 14,-276 8,-270 8,-264 8,-264 8,-48 8,-48 8,-42 14,-36 20,-36"/>
<text text-anchor="middle" x="64.01" y="-264" font-family="Courier,monospace" font-size="10.00" fill="#8b8989">rdf_turtle_io.pl</text>
</a>
</g>
</g>
<g id="clust2" class="cluster">
<title>cluster_other</title>
<g id="a_clust2"><a xlink:title="(external entities)">
<path fill="white" stroke="#8b8989" d="M30,-46C30,-46 429,-46 429,-46 435,-46 441,-52 441,-58 441,-58 441,-108 441,-108 441,-114 435,-120 429,-120 429,-120 30,-120 30,-120 24,-120 18,-114 18,-108 18,-108 18,-58 18,-58 18,-52 24,-46 30,-46"/>
<text text-anchor="middle" x="83.01" y="-108" font-family="Courier,monospace" font-size="10.00" fill="#8b8989">(external entities)</text>
</a>
</g>
</g>
<!-- rdf_turtle_io -->
<g id="node1" class="node">
<title>rdf_turtle_io</title>
<g id="a_node1"><a xlink:title="module">
<polygon fill="gainsboro" stroke="black" points="291,-248 163,-248 163,-252 151,-252 151,-191 291,-191 291,-248"/>
<polyline fill="none" stroke="black" points="151,-248 163,-248 "/>
<g id="a_node1_0"><a xlink:href="rdf_turtle_io_module_xref_diagram.svg" xlink:title="Zoom">
<image xlink:href="zoom.png" width="11px" height="11px" preserveAspectRatio="xMinYMin meet" x="159" y="-243.5"/>
</a>
</g>
<text text-anchor="start" x="161.8" y="-224.3" font-family="Courier,monospace" font-size="9.00"> </text>
<text text-anchor="start" x="181.09" y="-223.7" font-family="Courier,monospace" font-size="11.00">rdf_turtle_io</text>
<text text-anchor="start" x="277.8" y="-224.3" font-family="Courier,monospace" font-size="9.00"> </text>
<text text-anchor="start" x="161.8" y="-214.3" font-family="Courier,monospace" font-size="9.00"> </text>
<text text-anchor="start" x="211.4" y="-214.9" font-family="Courier,monospace" font-size="7.00">module</text>
<text text-anchor="start" x="277.8" y="-214.3" font-family="Courier,monospace" font-size="9.00"> </text>
<text text-anchor="start" x="161.8" y="-205.3" font-family="Courier,monospace" font-size="9.00"> </text>
<text text-anchor="start" x="161.8" y="-196.3" font-family="Courier,monospace" font-size="9.00"> </text>
<text text-anchor="start" x="169.99" y="-196.3" font-family="Courier,monospace" font-size="9.00">rdf_io:write_graph/4</text>
<text text-anchor="start" x="277.8" y="-196.3" font-family="Courier,monospace" font-size="9.00"> </text>
</a>
</g>
</g>
<!-- rdf_io -->
<g id="node2" class="node">
<title>rdf_io</title>
<g id="a_node2"><a xlink:title="module">
<polygon fill="gainsboro" stroke="black" stroke-dasharray="5,2" points="93.5,-92 40.5,-92 40.5,-96 28.5,-96 28.5,-56 93.5,-56 93.5,-92"/>
<polyline fill="none" stroke="black" stroke-dasharray="5,2" points="28.5,-92 40.5,-92 "/>
<text text-anchor="start" x="36.8" y="-75.8" font-family="Courier,monospace" font-size="9.00"> </text>
<text text-anchor="start" x="41.7" y="-75.2" font-family="Courier,monospace" font-size="11.00">rdf_io</text>
<text text-anchor="start" x="80.8" y="-75.8" font-family="Courier,monospace" font-size="9.00"> </text>
<text text-anchor="start" x="36.8" y="-65.8" font-family="Courier,monospace" font-size="9.00"> </text>
<text text-anchor="start" x="48.9" y="-66.4" font-family="Courier,monospace" font-size="7.00">module</text>
<text text-anchor="start" x="80.8" y="-65.8" font-family="Courier,monospace" font-size="9.00"> </text>
</a>
</g>
</g>
<!-- rdf_turtle_io&#45;&gt;rdf_io -->
<g id="edge1" class="edge">
<title>rdf_turtle_io&#45;&gt;rdf_io</title>
<path fill="none" stroke="black" d="M185.69,-190.93C161.72,-171.76 129.65,-145.22 103,-120 96.3,-113.67 89.35,-106.49 83.08,-99.76"/>
<polygon fill="black" stroke="black" points="78.66,-89.78 82.84,-99.51 73.5,-94.51 78.66,-89.78"/>
<g id="a_edge1&#45;label"><a xlink:title="provides">
<text text-anchor="middle" x="152.6" y="-138.8" font-family="Courier,monospace" font-size="9.00">provides</text>
</a>
</g>
</g>
<!-- swi_option -->
<g id="node3" class="node">
<title>swi_option</title>
<g id="a_node3"><a xlink:title="module">
<polygon fill="gainsboro" stroke="black" stroke-dasharray="5,2" points="204,-92 124,-92 124,-96 112,-96 112,-56 204,-56 204,-92"/>
<polyline fill="none" stroke="black" stroke-dasharray="5,2" points="112,-92 124,-92 "/>
<text text-anchor="start" x="119.8" y="-75.8" font-family="Courier,monospace" font-size="9.00"> </text>
<text text-anchor="start" x="124.99" y="-75.2" font-family="Courier,monospace" font-size="11.00">swi_option</text>
<text text-anchor="start" x="190.8" y="-75.8" font-family="Courier,monospace" font-size="9.00"> </text>
<text text-anchor="start" x="119.8" y="-65.8" font-family="Courier,monospace" font-size="9.00"> </text>
<text text-anchor="start" x="145.4" y="-66.4" font-family="Courier,monospace" font-size="7.00">module</text>
<text text-anchor="start" x="190.8" y="-65.8" font-family="Courier,monospace" font-size="9.00"> </text>
</a>
</g>
</g>
<!-- rdf_turtle_io&#45;&gt;swi_option -->
<g id="edge2" class="edge">
<title>rdf_turtle_io&#45;&gt;swi_option</title>
<path fill="none" stroke="black" d="M208.85,-190.83C197.8,-165.66 181.56,-128.67 170.43,-103.31"/>
<polygon fill="black" stroke="black" points="170.38,-103.21 164.31,-99.32 165.56,-92.22 170.38,-103.21"/>
<g id="a_edge2&#45;label"><a xlink:title="use_module">
<text text-anchor="middle" x="214" y="-138.8" font-family="Courier,monospace" font-size="9.00">use_module</text>
</a>
</g>
</g>
<!-- rdf_turtle_write -->
<g id="node4" class="node">
<title>rdf_turtle_write</title>
<g id="a_node4"><a xlink:title="module">
<polygon fill="gainsboro" stroke="black" stroke-dasharray="5,2" points="353.5,-92 234.5,-92 234.5,-96 222.5,-96 222.5,-56 353.5,-56 353.5,-92"/>
<polyline fill="none" stroke="black" stroke-dasharray="5,2" points="222.5,-92 234.5,-92 "/>
<text text-anchor="start" x="230.8" y="-75.8" font-family="Courier,monospace" font-size="9.00"> </text>
<text text-anchor="start" x="235.69" y="-75.2" font-family="Courier,monospace" font-size="11.00">rdf_turtle_write</text>
<text text-anchor="start" x="340.8" y="-75.8" font-family="Courier,monospace" font-size="9.00"> </text>
<text text-anchor="start" x="230.8" y="-65.8" font-family="Courier,monospace" font-size="9.00"> </text>
<text text-anchor="start" x="275.9" y="-66.4" font-family="Courier,monospace" font-size="7.00">module</text>
<text text-anchor="start" x="340.8" y="-65.8" font-family="Courier,monospace" font-size="9.00"> </text>
</a>
</g>
</g>
<!-- rdf_turtle_io&#45;&gt;rdf_turtle_write -->
<g id="edge3" class="edge">
<title>rdf_turtle_io&#45;&gt;rdf_turtle_write</title>
<path fill="none" stroke="black" d="M233.92,-190.83C245.67,-165.66 262.94,-128.67 274.78,-103.31"/>
<polygon fill="black" stroke="black" points="274.88,-103.09 273.8,-95.96 279.96,-92.22 274.88,-103.09"/>
<g id="a_edge3&#45;label"><a xlink:title="use_module">
<text text-anchor="middle" x="285" y="-138.8" font-family="Courier,monospace" font-size="9.00">use_module</text>
</a>
</g>
</g>
<!-- lists -->
<g id="node5" class="node">
<title>lists</title>
<g id="a_node5"><a xlink:title="module">
<polygon fill="gainsboro" stroke="black" stroke-dasharray="5,2" points="430.5,-92 383.5,-92 383.5,-96 371.5,-96 371.5,-56 430.5,-56 430.5,-92"/>
<polyline fill="none" stroke="black" stroke-dasharray="5,2" points="371.5,-92 383.5,-92 "/>
<text text-anchor="start" x="379.8" y="-75.8" font-family="Courier,monospace" font-size="9.00"> </text>
<text text-anchor="start" x="385" y="-75.2" font-family="Courier,monospace" font-size="11.00">lists</text>
<text text-anchor="start" x="417.8" y="-75.8" font-family="Courier,monospace" font-size="9.00"> </text>
<text text-anchor="start" x="379.8" y="-65.8" font-family="Courier,monospace" font-size="9.00"> </text>
<text text-anchor="start" x="388.9" y="-66.4" font-family="Courier,monospace" font-size="7.00">module</text>
<text text-anchor="start" x="417.8" y="-65.8" font-family="Courier,monospace" font-size="9.00"> </text>
</a>
</g>
</g>
<!-- rdf_turtle_io&#45;&gt;lists -->
<g id="edge4" class="edge">
<title>rdf_turtle_io&#45;&gt;lists</title>
<path fill="none" stroke="black" d="M267.07,-190.93C296.02,-172.58 333.37,-146.95 363,-120 369.06,-114.49 375.04,-108.03 380.41,-101.74"/>
<polygon fill="black" stroke="black" points="380.64,-101.46 381.35,-94.28 388.25,-92.18 380.64,-101.46"/>
<g id="a_edge4&#45;label"><a xlink:title="use_module">
<text text-anchor="middle" x="368" y="-138.8" font-family="Courier,monospace" font-size="9.00">use_module</text>
</a>
</g>
</g>
</g>
</svg>
