<?xml version="1.0" encoding="UTF-8" standalone="no"?>
<!DOCTYPE svg PUBLIC "-//W3C//DTD SVG 1.1//EN"
 "http://www.w3.org/Graphics/SVG/1.1/DTD/svg11.dtd">
<!-- Generated by graphviz version 2.41.20190410.0829 (20190410.0829)
 -->
<!-- Title: rdflib.pl Pages: 1 -->
<svg width="973pt" height="436pt"
 viewBox="72.00 72.00 901.00 364.00" xmlns="http://www.w3.org/2000/svg" xmlns:xlink="http://www.w3.org/1999/xlink">
<g id="graph0" class="graph" transform="scale(1 1) rotate(0) translate(76 360)">
<title>rdflib.pl</title>
<polygon fill="white" stroke="transparent" points="-4,4 -4,-288 825,-288 825,4 -4,4"/>
<text text-anchor="start" x="8" y="-16" font-family="Courier,monospace" font-size="10.00" fill="#8b8989">ClioPatria &#45; an RDF application platform</text>
<text text-anchor="start" x="8" y="-6" font-family="Courier,monospace" font-size="10.00" fill="#8b8989">Generated on 2019/04/17, 13:04</text>
<g id="clust1" class="cluster">
<title>cluster_file_/Users/pmoura/ClioPatria/api/rdflib.pl</title>
<g id="a_clust1"><a xlink:href="https://github.com/ClioPatria/ClioPatria/tree/add57aa2039eed4033cf96e96c293b2052e88f41/api/rdflib.pl" xlink:title="https://github.com/ClioPatria/ClioPatria/tree/add57aa2039eed4033cf96e96c293b2052e88f41/api/rdflib.pl">
<path fill="snow" stroke="#8b8989" d="M20,-36C20,-36 801,-36 801,-36 807,-36 813,-42 813,-48 813,-48 813,-264 813,-264 813,-270 807,-276 801,-276 801,-276 20,-276 20,-276 14,-276 8,-270 8,-264 8,-264 8,-48 8,-48 8,-42 14,-36 20,-36"/>
<text text-anchor="middle" x="43" y="-264" font-family="Courier,monospace" font-size="10.00" fill="#8b8989">rdflib.pl</text>
</a>
</g>
</g>
<g id="clust2" class="cluster">
<title>cluster_other</title>
<g id="a_clust2"><a xlink:title="(external entities)">
<path fill="white" stroke="#8b8989" d="M30,-46C30,-46 791,-46 791,-46 797,-46 803,-52 803,-58 803,-58 803,-108 803,-108 803,-114 797,-120 791,-120 791,-120 30,-120 30,-120 24,-120 18,-114 18,-108 18,-108 18,-58 18,-58 18,-52 24,-46 30,-46"/>
<text text-anchor="middle" x="83.01" y="-108" font-family="Courier,monospace" font-size="10.00" fill="#8b8989">(external entities)</text>
</a>
</g>
</g>
<!-- api_rdflib -->
<g id="node1" class="node">
<title>api_rdflib</title>
<g id="a_node1"><a xlink:title="module">
<polygon fill="gainsboro" stroke="black" points="501.5,-248 384.5,-248 384.5,-252 372.5,-252 372.5,-191 501.5,-191 501.5,-248"/>
<polyline fill="none" stroke="black" points="372.5,-248 384.5,-248 "/>
<g id="a_node1_0"><a xlink:href="api_rdflib_module_xref_diagram.svg" xlink:title="Zoom">
<image xlink:href="zoom.png" width="11px" height="11px" preserveAspectRatio="xMinYMin meet" x="381" y="-243.5"/>
</a>
</g>
<text text-anchor="start" x="383.8" y="-224.3" font-family="Courier,monospace" font-size="9.00"> </text>
<text text-anchor="start" x="407.49" y="-223.7" font-family="Courier,monospace" font-size="11.00">api_rdflib</text>
<text text-anchor="start" x="488.8" y="-224.3" font-family="Courier,monospace" font-size="9.00"> </text>
<text text-anchor="start" x="383.8" y="-214.3" font-family="Courier,monospace" font-size="9.00"> </text>
<text text-anchor="start" x="427.9" y="-214.9" font-family="Courier,monospace" font-size="7.00">module</text>
<text text-anchor="start" x="488.8" y="-214.3" font-family="Courier,monospace" font-size="9.00"> </text>
<text text-anchor="start" x="383.8" y="-205.3" font-family="Courier,monospace" font-size="9.00"> </text>
<text text-anchor="start" x="383.8" y="-196.3" font-family="Courier,monospace" font-size="9.00"> </text>
<text text-anchor="start" x="391.89" y="-196.3" font-family="Courier,monospace" font-size="9.00">library_ontology/1</text>
<text text-anchor="start" x="488.8" y="-196.3" font-family="Courier,monospace" font-size="9.00"> </text>
</a>
</g>
</g>
<!-- http_dispatch -->
<g id="node2" class="node">
<title>http_dispatch</title>
<g id="a_node2"><a xlink:title="module">
<polygon fill="gainsboro" stroke="black" stroke-dasharray="5,2" points="139.5,-92 40.5,-92 40.5,-96 28.5,-96 28.5,-56 139.5,-56 139.5,-92"/>
<polyline fill="none" stroke="black" stroke-dasharray="5,2" points="28.5,-92 40.5,-92 "/>
<text text-anchor="start" x="36.8" y="-75.8" font-family="Courier,monospace" font-size="9.00"> </text>
<text text-anchor="start" x="41.59" y="-75.2" font-family="Courier,monospace" font-size="11.00">http_dispatch</text>
<text text-anchor="start" x="126.8" y="-75.8" font-family="Courier,monospace" font-size="9.00"> </text>
<text text-anchor="start" x="36.8" y="-65.8" font-family="Courier,monospace" font-size="9.00"> </text>
<text text-anchor="start" x="71.9" y="-66.4" font-family="Courier,monospace" font-size="7.00">module</text>
<text text-anchor="start" x="126.8" y="-65.8" font-family="Courier,monospace" font-size="9.00"> </text>
</a>
</g>
</g>
<!-- api_rdflib&#45;&gt;http_dispatch -->
<g id="edge1" class="edge">
<title>api_rdflib&#45;&gt;http_dispatch</title>
<path fill="none" stroke="black" d="M372.32,-201.92C312.56,-185.33 222.23,-156.97 149,-120 137.51,-114.2 125.72,-106.61 115.39,-99.33"/>
<polygon fill="black" stroke="black" points="115.32,-99.27 108.11,-98.98 105.61,-92.22 115.32,-99.27"/>
<g id="a_edge1&#45;label"><a xlink:title="use_module">
<text text-anchor="middle" x="228" y="-138.8" font-family="Courier,monospace" font-size="9.00">use_module</text>
</a>
</g>
</g>
<!-- http_parameters -->
<g id="node3" class="node">
<title>http_parameters</title>
<g id="a_node3"><a xlink:title="module">
<polygon fill="gainsboro" stroke="black" stroke-dasharray="5,2" points="282.5,-92 169.5,-92 169.5,-96 157.5,-96 157.5,-56 282.5,-56 282.5,-92"/>
<polyline fill="none" stroke="black" stroke-dasharray="5,2" points="157.5,-92 169.5,-92 "/>
<text text-anchor="start" x="165.8" y="-75.8" font-family="Courier,monospace" font-size="9.00"> </text>
<text text-anchor="start" x="170.99" y="-75.2" font-family="Courier,monospace" font-size="11.00">http_parameters</text>
<text text-anchor="start" x="269.8" y="-75.8" font-family="Courier,monospace" font-size="9.00"> </text>
<text text-anchor="start" x="165.8" y="-65.8" font-family="Courier,monospace" font-size="9.00"> </text>
<text text-anchor="start" x="207.9" y="-66.4" font-family="Courier,monospace" font-size="7.00">module</text>
<text text-anchor="start" x="269.8" y="-65.8" font-family="Courier,monospace" font-size="9.00"> </text>
</a>
</g>
</g>
<!-- api_rdflib&#45;&gt;http_parameters -->
<g id="edge2" class="edge">
<title>api_rdflib&#45;&gt;http_parameters</title>
<path fill="none" stroke="black" d="M387.88,-190.9C365.33,-177.83 338.45,-161.67 314.99,-146 293.04,-131.33 269.24,-113.54 250.95,-99.44"/>
<polygon fill="black" stroke="black" points="250.89,-99.39 243.7,-98.86 241.41,-92.02 250.89,-99.39"/>
<g id="a_edge2&#45;label"><a xlink:title="use_module">
<text text-anchor="middle" x="341" y="-138.8" font-family="Courier,monospace" font-size="9.00">use_module</text>
</a>
</g>
</g>
<!-- user_db -->
<g id="node4" class="node">
<title>user_db</title>
<g id="a_node4"><a xlink:title="module">
<polygon fill="gainsboro" stroke="black" stroke-dasharray="5,2" points="373,-92 313,-92 313,-96 301,-96 301,-56 373,-56 373,-92"/>
<polyline fill="none" stroke="black" stroke-dasharray="5,2" points="301,-92 313,-92 "/>
<text text-anchor="start" x="308.8" y="-75.8" font-family="Courier,monospace" font-size="9.00"> </text>
<text text-anchor="start" x="313.9" y="-75.2" font-family="Courier,monospace" font-size="11.00">user_db</text>
<text text-anchor="start" x="359.8" y="-75.8" font-family="Courier,monospace" font-size="9.00"> </text>
<text text-anchor="start" x="308.8" y="-65.8" font-family="Courier,monospace" font-size="9.00"> </text>
<text text-anchor="start" x="324.4" y="-66.4" font-family="Courier,monospace" font-size="7.00">module</text>
<text text-anchor="start" x="359.8" y="-65.8" font-family="Courier,monospace" font-size="9.00"> </text>
</a>
</g>
</g>
<!-- api_rdflib&#45;&gt;user_db -->
<g id="edge3" class="edge">
<title>api_rdflib&#45;&gt;user_db</title>
<path fill="none" stroke="black" d="M413.46,-190.97C402.52,-177.71 389.62,-161.39 378.99,-146 369.39,-132.1 359.72,-115.93 352.08,-102.54"/>
<polygon fill="black" stroke="black" points="352.07,-102.52 345.65,-99.25 346.2,-92.05 352.07,-102.52"/>
<g id="a_edge3&#45;label"><a xlink:title="use_module">
<text text-anchor="middle" x="405" y="-138.8" font-family="Courier,monospace" font-size="9.00">use_module</text>
</a>
</g>
</g>
<!-- api_sesame -->
<g id="node5" class="node">
<title>api_sesame</title>
<g id="a_node5"><a xlink:title="module">
<polygon fill="gainsboro" stroke="black" stroke-dasharray="5,2" points="483,-92 403,-92 403,-96 391,-96 391,-56 483,-56 483,-92"/>
<polyline fill="none" stroke="black" stroke-dasharray="5,2" points="391,-92 403,-92 "/>
<text text-anchor="start" x="398.8" y="-75.8" font-family="Courier,monospace" font-size="9.00"> </text>
<text text-anchor="start" x="403.99" y="-75.2" font-family="Courier,monospace" font-size="11.00">api_sesame</text>
<text text-anchor="start" x="469.8" y="-75.8" font-family="Courier,monospace" font-size="9.00"> </text>
<text text-anchor="start" x="398.8" y="-65.8" font-family="Courier,monospace" font-size="9.00"> </text>
<text text-anchor="start" x="424.4" y="-66.4" font-family="Courier,monospace" font-size="7.00">module</text>
<text text-anchor="start" x="469.8" y="-65.8" font-family="Courier,monospace" font-size="9.00"> </text>
</a>
</g>
</g>
<!-- api_rdflib&#45;&gt;api_sesame -->
<g id="edge4" class="edge">
<title>api_rdflib&#45;&gt;api_sesame</title>
<path fill="none" stroke="black" d="M437,-190.83C437,-166 437,-129.68 437,-104.34"/>
<polygon fill="black" stroke="black" points="437,-104.22 433,-98.22 437,-92.22 437,-104.22"/>
<g id="a_edge4&#45;label"><a xlink:title="use_module">
<text text-anchor="middle" x="464" y="-138.8" font-family="Courier,monospace" font-size="9.00">use_module</text>
</a>
</g>
</g>
<!-- rdf_library -->
<g id="node6" class="node">
<title>rdf_library</title>
<g id="a_node6"><a xlink:title="module">
<polygon fill="gainsboro" stroke="black" stroke-dasharray="5,2" points="599,-92 513,-92 513,-96 501,-96 501,-56 599,-56 599,-92"/>
<polyline fill="none" stroke="black" stroke-dasharray="5,2" points="501,-92 513,-92 "/>
<text text-anchor="start" x="508.8" y="-75.8" font-family="Courier,monospace" font-size="9.00"> </text>
<text text-anchor="start" x="513.69" y="-75.2" font-family="Courier,monospace" font-size="11.00">rdf_library</text>
<text text-anchor="start" x="585.8" y="-75.8" font-family="Courier,monospace" font-size="9.00"> </text>
<text text-anchor="start" x="508.8" y="-65.8" font-family="Courier,monospace" font-size="9.00"> </text>
<text text-anchor="start" x="537.4" y="-66.4" font-family="Courier,monospace" font-size="7.00">module</text>
<text text-anchor="start" x="585.8" y="-65.8" font-family="Courier,monospace" font-size="9.00"> </text>
</a>
</g>
</g>
<!-- api_rdflib&#45;&gt;rdf_library -->
<g id="edge5" class="edge">
<title>api_rdflib&#45;&gt;rdf_library</title>
<path fill="none" stroke="black" d="M459.41,-190.69C470.22,-177.24 483.33,-160.82 495,-146 506.45,-131.45 519.11,-115.13 529.4,-101.8"/>
<polygon fill="black" stroke="black" points="529.41,-101.78 529.91,-94.59 536.74,-92.28 529.41,-101.78"/>
<g id="a_edge5&#45;label"><a xlink:title="use_module">
<text text-anchor="middle" x="528" y="-138.8" font-family="Courier,monospace" font-size="9.00">use_module</text>
</a>
</g>
</g>
<!-- html_write -->
<g id="node7" class="node">
<title>html_write</title>
<g id="a_node7"><a xlink:title="module">
<polygon fill="gainsboro" stroke="black" stroke-dasharray="5,2" points="709,-92 629,-92 629,-96 617,-96 617,-56 709,-56 709,-92"/>
<polyline fill="none" stroke="black" stroke-dasharray="5,2" points="617,-92 629,-92 "/>
<text text-anchor="start" x="624.8" y="-75.8" font-family="Courier,monospace" font-size="9.00"> </text>
<text text-anchor="start" x="629.99" y="-75.2" font-family="Courier,monospace" font-size="11.00">html_write</text>
<text text-anchor="start" x="695.8" y="-75.8" font-family="Courier,monospace" font-size="9.00"> </text>
<text text-anchor="start" x="624.8" y="-65.8" font-family="Courier,monospace" font-size="9.00"> </text>
<text text-anchor="start" x="650.4" y="-66.4" font-family="Courier,monospace" font-size="7.00">module</text>
<text text-anchor="start" x="695.8" y="-65.8" font-family="Courier,monospace" font-size="9.00"> </text>
</a>
</g>
</g>
<!-- api_rdflib&#45;&gt;html_write -->
<g id="edge6" class="edge">
<title>api_rdflib&#45;&gt;html_write</title>
<path fill="none" stroke="black" d="M489.98,-190.9C524.46,-172.23 569.94,-146.27 608,-120 616.9,-113.85 626.16,-106.64 634.48,-99.81"/>
<polygon fill="black" stroke="black" points="634.55,-99.75 636.58,-92.84 643.75,-92.05 634.55,-99.75"/>
<g id="a_edge6&#45;label"><a xlink:title="use_module">
<text text-anchor="middle" x="608" y="-138.8" font-family="Courier,monospace" font-size="9.00">use_module</text>
</a>
</g>
</g>
<!-- rdf_io -->
<g id="node8" class="node">
<title>rdf_io</title>
<g id="a_node8"><a xlink:title="module">
<polygon fill="gainsboro" stroke="black" stroke-dasharray="5,2" points="792.5,-92 739.5,-92 739.5,-96 727.5,-96 727.5,-56 792.5,-56 792.5,-92"/>
<polyline fill="none" stroke="black" stroke-dasharray="5,2" points="727.5,-92 739.5,-92 "/>
<text text-anchor="start" x="735.8" y="-75.8" font-family="Courier,monospace" font-size="9.00"> </text>
<text text-anchor="start" x="740.7" y="-75.2" font-family="Courier,monospace" font-size="11.00">rdf_io</text>
<text text-anchor="start" x="779.8" y="-75.8" font-family="Courier,monospace" font-size="9.00"> </text>
<text text-anchor="start" x="735.8" y="-65.8" font-family="Courier,monospace" font-size="9.00"> </text>
<text text-anchor="start" x="747.9" y="-66.4" font-family="Courier,monospace" font-size="7.00">module</text>
<text text-anchor="start" x="779.8" y="-65.8" font-family="Courier,monospace" font-size="9.00"> </text>
</a>
</g>
</g>
<!-- api_rdflib&#45;&gt;rdf_io -->
<g id="edge7" class="edge">
<title>api_rdflib&#45;&gt;rdf_io</title>
<path fill="none" stroke="black" d="M501.51,-205.27C561.19,-190.94 650.59,-164.02 718,-120 725.57,-115.05 732.73,-108.46 738.92,-101.84"/>
<polygon fill="black" stroke="black" points="739.34,-101.37 740.27,-94.22 747.23,-92.33 739.34,-101.37"/>
<g id="a_edge7&#45;label"><a xlink:title="use_module">
<text text-anchor="middle" x="710" y="-138.8" font-family="Courier,monospace" font-size="9.00">use_module</text>
</a>
</g>
</g>
</g>
</svg>
