<?xml version="1.0" encoding="UTF-8" standalone="no"?>
<!DOCTYPE svg PUBLIC "-//W3C//DTD SVG 1.1//EN"
 "http://www.w3.org/Graphics/SVG/1.1/DTD/svg11.dtd">
<!-- Generated by graphviz version 2.41.20190410.0829 (20190410.0829)
 -->
<!-- Title: rdfql_util.pl Pages: 1 -->
<svg width="937pt" height="454pt"
 viewBox="72.00 72.00 865.00 382.00" xmlns="http://www.w3.org/2000/svg" xmlns:xlink="http://www.w3.org/1999/xlink">
<g id="graph0" class="graph" transform="scale(1 1) rotate(0) translate(76 378)">
<title>rdfql_util.pl</title>
<polygon fill="white" stroke="transparent" points="-4,4 -4,-306 789,-306 789,4 -4,4"/>
<text text-anchor="start" x="8" y="-16" font-family="Courier,monospace" font-size="10.00" fill="#8b8989">ClioPatria &#45; an RDF application platform</text>
<text text-anchor="start" x="8" y="-6" font-family="Courier,monospace" font-size="10.00" fill="#8b8989">Generated on 2019/04/17, 13:04</text>
<g id="clust1" class="cluster">
<title>cluster_file_/Users/pmoura/ClioPatria/rdfql/rdfql_util.pl</title>
<g id="a_clust1"><a xlink:href="https://github.com/ClioPatria/ClioPatria/tree/add57aa2039eed4033cf96e96c293b2052e88f41/rdfql/rdfql_util.pl" xlink:title="https://github.com/ClioPatria/ClioPatria/tree/add57aa2039eed4033cf96e96c293b2052e88f41/rdfql/rdfql_util.pl">
<path fill="snow" stroke="#8b8989" d="M20,-36C20,-36 765,-36 765,-36 771,-36 777,-42 777,-48 777,-48 777,-282 777,-282 777,-288 771,-294 765,-294 765,-294 20,-294 20,-294 14,-294 8,-288 8,-282 8,-282 8,-48 8,-48 8,-42 14,-36 20,-36"/>
<text text-anchor="middle" x="55.01" y="-282" font-family="Courier,monospace" font-size="10.00" fill="#8b8989">rdfql_util.pl</text>
</a>
</g>
</g>
<g id="clust2" class="cluster">
<title>cluster_other</title>
<g id="a_clust2"><a xlink:title="(external entities)">
<path fill="white" stroke="#8b8989" d="M30,-46C30,-46 755,-46 755,-46 761,-46 767,-52 767,-58 767,-58 767,-108 767,-108 767,-114 761,-120 755,-120 755,-120 30,-120 30,-120 24,-120 18,-114 18,-108 18,-108 18,-58 18,-58 18,-52 24,-46 30,-46"/>
<text text-anchor="middle" x="83.01" y="-108" font-family="Courier,monospace" font-size="10.00" fill="#8b8989">(external entities)</text>
</a>
</g>
</g>
<!-- rdfql_util -->
<g id="node1" class="node">
<title>rdfql_util</title>
<g id="a_node1"><a xlink:title="module">
<polygon fill="gainsboro" stroke="black" points="405,-266 283,-266 283,-270 271,-270 271,-191 405,-191 405,-266"/>
<polyline fill="none" stroke="black" points="271,-266 283,-266 "/>
<g id="a_node1_0"><a xlink:href="rdfql_util_module_xref_diagram.svg" xlink:title="Zoom">
<image xlink:href="zoom.png" width="11px" height="11px" preserveAspectRatio="xMinYMin meet" x="279" y="-261.5"/>
</a>
</g>
<text text-anchor="start" x="281.8" y="-242.3" font-family="Courier,monospace" font-size="9.00"> </text>
<text text-anchor="start" x="307.99" y="-241.7" font-family="Courier,monospace" font-size="11.00">rdfql_util</text>
<text text-anchor="start" x="391.8" y="-242.3" font-family="Courier,monospace" font-size="9.00"> </text>
<text text-anchor="start" x="281.8" y="-232.3" font-family="Courier,monospace" font-size="9.00"> </text>
<text text-anchor="start" x="328.4" y="-232.9" font-family="Courier,monospace" font-size="7.00">module</text>
<text text-anchor="start" x="391.8" y="-232.3" font-family="Courier,monospace" font-size="9.00"> </text>
<text text-anchor="start" x="281.8" y="-223.3" font-family="Courier,monospace" font-size="9.00"> </text>
<text text-anchor="start" x="281.8" y="-214.3" font-family="Courier,monospace" font-size="9.00"> </text>
<text text-anchor="start" x="297.79" y="-214.3" font-family="Courier,monospace" font-size="9.00">select_results/6</text>
<text text-anchor="start" x="391.8" y="-214.3" font-family="Courier,monospace" font-size="9.00"> </text>
<text text-anchor="start" x="281.8" y="-205.3" font-family="Courier,monospace" font-size="9.00"> </text>
<text text-anchor="start" x="297.79" y="-205.3" font-family="Courier,monospace" font-size="9.00">select_results/9</text>
<text text-anchor="start" x="391.8" y="-205.3" font-family="Courier,monospace" font-size="9.00"> </text>
<text text-anchor="start" x="281.8" y="-196.3" font-family="Courier,monospace" font-size="9.00"> </text>
<text text-anchor="start" x="289.69" y="-196.3" font-family="Courier,monospace" font-size="9.00">entailment_module/2</text>
<text text-anchor="start" x="391.8" y="-196.3" font-family="Courier,monospace" font-size="9.00"> </text>
</a>
</g>
</g>
<!-- apply -->
<g id="node2" class="node">
<title>apply</title>
<g id="a_node2"><a xlink:title="module">
<polygon fill="gainsboro" stroke="black" stroke-dasharray="5,2" points="87.5,-92 40.5,-92 40.5,-96 28.5,-96 28.5,-56 87.5,-56 87.5,-92"/>
<polyline fill="none" stroke="black" stroke-dasharray="5,2" points="28.5,-92 40.5,-92 "/>
<text text-anchor="start" x="36.8" y="-75.8" font-family="Courier,monospace" font-size="9.00"> </text>
<text text-anchor="start" x="42" y="-75.2" font-family="Courier,monospace" font-size="11.00">apply</text>
<text text-anchor="start" x="74.8" y="-75.8" font-family="Courier,monospace" font-size="9.00"> </text>
<text text-anchor="start" x="36.8" y="-65.8" font-family="Courier,monospace" font-size="9.00"> </text>
<text text-anchor="start" x="45.9" y="-66.4" font-family="Courier,monospace" font-size="7.00">module</text>
<text text-anchor="start" x="74.8" y="-65.8" font-family="Courier,monospace" font-size="9.00"> </text>
</a>
</g>
</g>
<!-- rdfql_util&#45;&gt;apply -->
<g id="edge1" class="edge">
<title>rdfql_util&#45;&gt;apply</title>
<path fill="none" stroke="black" d="M270.87,-213.44C223.76,-201.21 161.03,-180.01 113.99,-146 98.08,-134.49 84.34,-117.28 74.46,-102.68"/>
<polygon fill="black" stroke="black" points="74.19,-102.25 67.57,-99.37 67.68,-92.16 74.19,-102.25"/>
<g id="a_edge1&#45;label"><a xlink:title="use_module">
<text text-anchor="middle" x="140" y="-138.8" font-family="Courier,monospace" font-size="9.00">use_module</text>
</a>
</g>
</g>
<!-- lists -->
<g id="node3" class="node">
<title>lists</title>
<g id="a_node3"><a xlink:title="module">
<polygon fill="gainsboro" stroke="black" stroke-dasharray="5,2" points="164.5,-92 117.5,-92 117.5,-96 105.5,-96 105.5,-56 164.5,-56 164.5,-92"/>
<polyline fill="none" stroke="black" stroke-dasharray="5,2" points="105.5,-92 117.5,-92 "/>
<text text-anchor="start" x="113.8" y="-75.8" font-family="Courier,monospace" font-size="9.00"> </text>
<text text-anchor="start" x="119" y="-75.2" font-family="Courier,monospace" font-size="11.00">lists</text>
<text text-anchor="start" x="151.8" y="-75.8" font-family="Courier,monospace" font-size="9.00"> </text>
<text text-anchor="start" x="113.8" y="-65.8" font-family="Courier,monospace" font-size="9.00"> </text>
<text text-anchor="start" x="122.9" y="-66.4" font-family="Courier,monospace" font-size="7.00">module</text>
<text text-anchor="start" x="151.8" y="-65.8" font-family="Courier,monospace" font-size="9.00"> </text>
</a>
</g>
</g>
<!-- rdfql_util&#45;&gt;lists -->
<g id="edge2" class="edge">
<title>rdfql_util&#45;&gt;lists</title>
<path fill="none" stroke="black" d="M270.83,-202.37C240.72,-188.84 206.18,-169.96 179.99,-146 166.74,-133.87 155.83,-116.99 148.07,-102.73"/>
<polygon fill="black" stroke="black" points="148.04,-102.67 141.74,-99.17 142.54,-92 148.04,-102.67"/>
<g id="a_edge2&#45;label"><a xlink:title="use_module">
<text text-anchor="middle" x="206" y="-138.8" font-family="Courier,monospace" font-size="9.00">use_module</text>
</a>
</g>
</g>
<!-- pairs -->
<g id="node4" class="node">
<title>pairs</title>
<g id="a_node4"><a xlink:title="module">
<polygon fill="gainsboro" stroke="black" stroke-dasharray="5,2" points="241.5,-92 194.5,-92 194.5,-96 182.5,-96 182.5,-56 241.5,-56 241.5,-92"/>
<polyline fill="none" stroke="black" stroke-dasharray="5,2" points="182.5,-92 194.5,-92 "/>
<text text-anchor="start" x="190.8" y="-75.8" font-family="Courier,monospace" font-size="9.00"> </text>
<text text-anchor="start" x="196" y="-75.2" font-family="Courier,monospace" font-size="11.00">pairs</text>
<text text-anchor="start" x="228.8" y="-75.8" font-family="Courier,monospace" font-size="9.00"> </text>
<text text-anchor="start" x="190.8" y="-65.8" font-family="Courier,monospace" font-size="9.00"> </text>
<text text-anchor="start" x="199.9" y="-66.4" font-family="Courier,monospace" font-size="7.00">module</text>
<text text-anchor="start" x="228.8" y="-65.8" font-family="Courier,monospace" font-size="9.00"> </text>
</a>
</g>
</g>
<!-- rdfql_util&#45;&gt;pairs -->
<g id="edge3" class="edge">
<title>rdfql_util&#45;&gt;pairs</title>
<path fill="none" stroke="black" d="M287.76,-190.87C272.35,-177.93 256.24,-162.46 243.99,-146 234.53,-133.3 227.03,-117.35 221.68,-103.79"/>
<polygon fill="black" stroke="black" points="221.54,-103.43 215.71,-99.19 217.37,-92.17 221.54,-103.43"/>
<g id="a_edge3&#45;label"><a xlink:title="use_module">
<text text-anchor="middle" x="270" y="-138.8" font-family="Courier,monospace" font-size="9.00">use_module</text>
</a>
</g>
</g>
<!-- rdf_db -->
<g id="node5" class="node">
<title>rdf_db</title>
<g id="a_node5"><a xlink:title="module">
<polygon fill="gainsboro" stroke="black" stroke-dasharray="5,2" points="324.5,-92 271.5,-92 271.5,-96 259.5,-96 259.5,-56 324.5,-56 324.5,-92"/>
<polyline fill="none" stroke="black" stroke-dasharray="5,2" points="259.5,-92 271.5,-92 "/>
<text text-anchor="start" x="267.8" y="-75.8" font-family="Courier,monospace" font-size="9.00"> </text>
<text text-anchor="start" x="272.7" y="-75.2" font-family="Courier,monospace" font-size="11.00">rdf_db</text>
<text text-anchor="start" x="311.8" y="-75.8" font-family="Courier,monospace" font-size="9.00"> </text>
<text text-anchor="start" x="267.8" y="-65.8" font-family="Courier,monospace" font-size="9.00"> </text>
<text text-anchor="start" x="279.9" y="-66.4" font-family="Courier,monospace" font-size="7.00">module</text>
<text text-anchor="start" x="311.8" y="-65.8" font-family="Courier,monospace" font-size="9.00"> </text>
</a>
</g>
</g>
<!-- rdfql_util&#45;&gt;rdf_db -->
<g id="edge4" class="edge">
<title>rdfql_util&#45;&gt;rdf_db</title>
<path fill="none" stroke="black" d="M321.25,-190.74C315.46,-176.93 309.34,-160.95 304.99,-146 301.06,-132.46 298.07,-117.11 295.96,-104.16"/>
<polygon fill="black" stroke="black" points="295.94,-104.02 291.08,-98.69 294.14,-92.15 295.94,-104.02"/>
<g id="a_edge4&#45;label"><a xlink:title="use_module">
<text text-anchor="middle" x="331" y="-138.8" font-family="Courier,monospace" font-size="9.00">use_module</text>
</a>
</g>
</g>
<!-- xsdp_type -->
<g id="node6" class="node">
<title>xsdp_type</title>
<g id="a_node6"><a xlink:title="module">
<polygon fill="gainsboro" stroke="black" stroke-dasharray="5,2" points="427.5,-92 354.5,-92 354.5,-96 342.5,-96 342.5,-56 427.5,-56 427.5,-92"/>
<polyline fill="none" stroke="black" stroke-dasharray="5,2" points="342.5,-92 354.5,-92 "/>
<text text-anchor="start" x="350.8" y="-75.8" font-family="Courier,monospace" font-size="9.00"> </text>
<text text-anchor="start" x="355.8" y="-75.2" font-family="Courier,monospace" font-size="11.00">xsdp_type</text>
<text text-anchor="start" x="414.8" y="-75.8" font-family="Courier,monospace" font-size="9.00"> </text>
<text text-anchor="start" x="350.8" y="-65.8" font-family="Courier,monospace" font-size="9.00"> </text>
<text text-anchor="start" x="372.9" y="-66.4" font-family="Courier,monospace" font-size="7.00">module</text>
<text text-anchor="start" x="414.8" y="-65.8" font-family="Courier,monospace" font-size="9.00"> </text>
</a>
</g>
</g>
<!-- rdfql_util&#45;&gt;xsdp_type -->
<g id="edge5" class="edge">
<title>rdfql_util&#45;&gt;xsdp_type</title>
<path fill="none" stroke="black" d="M349.26,-190.97C357.53,-164.14 368.61,-128.19 376.22,-103.47"/>
<polygon fill="black" stroke="black" points="376.23,-103.47 374.17,-96.56 379.76,-92 376.23,-103.47"/>
<g id="a_edge5&#45;label"><a xlink:title="use_module">
<text text-anchor="middle" x="392" y="-138.8" font-family="Courier,monospace" font-size="9.00">use_module</text>
</a>
</g>
</g>
<!-- nb_set -->
<g id="node7" class="node">
<title>nb_set</title>
<g id="a_node7"><a xlink:title="module">
<polygon fill="gainsboro" stroke="black" stroke-dasharray="5,2" points="510.5,-92 457.5,-92 457.5,-96 445.5,-96 445.5,-56 510.5,-56 510.5,-92"/>
<polyline fill="none" stroke="black" stroke-dasharray="5,2" points="445.5,-92 457.5,-92 "/>
<text text-anchor="start" x="453.8" y="-75.8" font-family="Courier,monospace" font-size="9.00"> </text>
<text text-anchor="start" x="458.7" y="-75.2" font-family="Courier,monospace" font-size="11.00">nb_set</text>
<text text-anchor="start" x="497.8" y="-75.8" font-family="Courier,monospace" font-size="9.00"> </text>
<text text-anchor="start" x="453.8" y="-65.8" font-family="Courier,monospace" font-size="9.00"> </text>
<text text-anchor="start" x="465.9" y="-66.4" font-family="Courier,monospace" font-size="7.00">module</text>
<text text-anchor="start" x="497.8" y="-65.8" font-family="Courier,monospace" font-size="9.00"> </text>
</a>
</g>
</g>
<!-- rdfql_util&#45;&gt;nb_set -->
<g id="edge6" class="edge">
<title>rdfql_util&#45;&gt;nb_set</title>
<path fill="none" stroke="black" d="M378.56,-190.93C393.04,-177.27 409.19,-161.35 423,-146 435.55,-132.05 448.45,-115.53 458.61,-101.94"/>
<polygon fill="black" stroke="black" points="458.66,-101.86 459,-94.66 465.78,-92.2 458.66,-101.86"/>
<g id="a_edge6&#45;label"><a xlink:title="use_module">
<text text-anchor="middle" x="456" y="-138.8" font-family="Courier,monospace" font-size="9.00">use_module</text>
</a>
</g>
</g>
<!-- sparql_runtime -->
<g id="node8" class="node">
<title>sparql_runtime</title>
<g id="a_node8"><a xlink:title="module">
<polygon fill="gainsboro" stroke="black" stroke-dasharray="5,2" points="647,-92 541,-92 541,-96 529,-96 529,-56 647,-56 647,-92"/>
<polyline fill="none" stroke="black" stroke-dasharray="5,2" points="529,-92 541,-92 "/>
<text text-anchor="start" x="536.8" y="-75.8" font-family="Courier,monospace" font-size="9.00"> </text>
<text text-anchor="start" x="541.79" y="-75.2" font-family="Courier,monospace" font-size="11.00">sparql_runtime</text>
<text text-anchor="start" x="633.8" y="-75.8" font-family="Courier,monospace" font-size="9.00"> </text>
<text text-anchor="start" x="536.8" y="-65.8" font-family="Courier,monospace" font-size="9.00"> </text>
<text text-anchor="start" x="575.4" y="-66.4" font-family="Courier,monospace" font-size="7.00">module</text>
<text text-anchor="start" x="633.8" y="-65.8" font-family="Courier,monospace" font-size="9.00"> </text>
</a>
</g>
</g>
<!-- rdfql_util&#45;&gt;sparql_runtime -->
<g id="edge7" class="edge">
<title>rdfql_util&#45;&gt;sparql_runtime</title>
<path fill="none" stroke="black" d="M405.3,-192.76C431.21,-178.85 460.84,-162.28 487,-146 510.45,-131.41 535.88,-113.52 555.35,-99.35"/>
<polygon fill="black" stroke="black" points="555.55,-99.2 558.03,-92.43 565.23,-92.11 555.55,-99.2"/>
<g id="a_edge7&#45;label"><a xlink:title="use_module">
<text text-anchor="middle" x="525" y="-138.8" font-family="Courier,monospace" font-size="9.00">use_module</text>
</a>
</g>
</g>
<!-- cliopatria -->
<g id="node9" class="node">
<title>cliopatria</title>
<g id="a_node9"><a xlink:title="module">
<polygon fill="gainsboro" stroke="black" stroke-dasharray="5,2" points="757,-92 677,-92 677,-96 665,-96 665,-56 757,-56 757,-92"/>
<polyline fill="none" stroke="black" stroke-dasharray="5,2" points="665,-92 677,-92 "/>
<text text-anchor="start" x="672.8" y="-75.8" font-family="Courier,monospace" font-size="9.00"> </text>
<text text-anchor="start" x="677.99" y="-75.2" font-family="Courier,monospace" font-size="11.00">cliopatria</text>
<text text-anchor="start" x="743.8" y="-75.8" font-family="Courier,monospace" font-size="9.00"> </text>
<text text-anchor="start" x="672.8" y="-65.8" font-family="Courier,monospace" font-size="9.00"> </text>
<text text-anchor="start" x="698.4" y="-66.4" font-family="Courier,monospace" font-size="7.00">module</text>
<text text-anchor="start" x="743.8" y="-65.8" font-family="Courier,monospace" font-size="9.00"> </text>
</a>
</g>
</g>
<!-- rdfql_util&#45;&gt;cliopatria -->
<g id="edge8" class="edge">
<title>rdfql_util&#45;&gt;cliopatria</title>
<path fill="none" stroke="black" d="M405.14,-212.31C471.58,-195.59 574.82,-164.97 656,-120 665.88,-114.53 675.73,-107.21 684.3,-100.08"/>
<polygon fill="black" stroke="black" points="684.31,-100.07 686.22,-93.11 693.38,-92.2 684.31,-100.07"/>
<g id="a_edge8&#45;label"><a xlink:title="use_module">
<text text-anchor="middle" x="642" y="-138.8" font-family="Courier,monospace" font-size="9.00">use_module</text>
</a>
</g>
</g>
</g>
</svg>
