<?xml version="1.0" encoding="UTF-8" standalone="no"?>
<!DOCTYPE svg PUBLIC "-//W3C//DTD SVG 1.1//EN"
 "http://www.w3.org/Graphics/SVG/1.1/DTD/svg11.dtd">
<!-- Generated by graphviz version 2.41.20190410.0829 (20190410.0829)
 -->
<!-- Title: rdfql_runtime.pl Pages: 1 -->
<svg width="474pt" height="571pt"
 viewBox="72.00 72.00 402.00 499.00" xmlns="http://www.w3.org/2000/svg" xmlns:xlink="http://www.w3.org/1999/xlink">
<g id="graph0" class="graph" transform="scale(1 1) rotate(0) translate(76 495)">
<title>rdfql_runtime.pl</title>
<polygon fill="white" stroke="transparent" points="-4,4 -4,-423 326,-423 326,4 -4,4"/>
<text text-anchor="start" x="8" y="-16" font-family="Courier,monospace" font-size="10.00" fill="#8b8989">ClioPatria &#45; an RDF application platform</text>
<text text-anchor="start" x="8" y="-6" font-family="Courier,monospace" font-size="10.00" fill="#8b8989">Generated on 2019/04/17, 13:04</text>
<g id="clust1" class="cluster">
<title>cluster_file_/Users/pmoura/ClioPatria/rdfql/rdfql_runtime.pl</title>
<g id="a_clust1"><a xlink:href="https://github.com/ClioPatria/ClioPatria/tree/add57aa2039eed4033cf96e96c293b2052e88f41/rdfql/rdfql_runtime.pl" xlink:title="https://github.com/ClioPatria/ClioPatria/tree/add57aa2039eed4033cf96e96c293b2052e88f41/rdfql/rdfql_runtime.pl">
<path fill="snow" stroke="#8b8989" d="M20,-36C20,-36 302,-36 302,-36 308,-36 314,-42 314,-48 314,-48 314,-399 314,-399 314,-405 308,-411 302,-411 302,-411 20,-411 20,-411 14,-411 8,-405 8,-399 8,-399 8,-48 8,-48 8,-42 14,-36 20,-36"/>
<text text-anchor="middle" x="64.01" y="-399" font-family="Courier,monospace" font-size="10.00" fill="#8b8989">rdfql_runtime.pl</text>
</a>
</g>
</g>
<g id="clust2" class="cluster">
<title>cluster_other</title>
<g id="a_clust2"><a xlink:title="(external entities)">
<path fill="white" stroke="#8b8989" d="M30,-46C30,-46 292,-46 292,-46 298,-46 304,-52 304,-58 304,-58 304,-108 304,-108 304,-114 298,-120 292,-120 292,-120 30,-120 30,-120 24,-120 18,-114 18,-108 18,-108 18,-58 18,-58 18,-52 24,-46 30,-46"/>
<text text-anchor="middle" x="83.01" y="-108" font-family="Courier,monospace" font-size="10.00" fill="#8b8989">(external entities)</text>
</a>
</g>
</g>
<!-- rdfql_runtime -->
<g id="node1" class="node">
<title>rdfql_runtime</title>
<g id="a_node1"><a xlink:title="module">
<polygon fill="gainsboro" stroke="black" points="253.5,-383 104.5,-383 104.5,-387 92.5,-387 92.5,-191 253.5,-191 253.5,-383"/>
<polyline fill="none" stroke="black" points="92.5,-383 104.5,-383 "/>
<g id="a_node1_0"><a xlink:href="rdfql_runtime_module_xref_diagram.svg" xlink:title="Zoom">
<image xlink:href="zoom.png" width="11px" height="11px" preserveAspectRatio="xMinYMin meet" x="101" y="-379"/>
</a>
</g>
<text text-anchor="start" x="103.8" y="-359.8" font-family="Courier,monospace" font-size="9.00"> </text>
<text text-anchor="start" x="133.59" y="-359.2" font-family="Courier,monospace" font-size="11.00">rdfql_runtime</text>
<text text-anchor="start" x="240.8" y="-359.8" font-family="Courier,monospace" font-size="9.00"> </text>
<text text-anchor="start" x="103.8" y="-349.8" font-family="Courier,monospace" font-size="9.00"> </text>
<text text-anchor="start" x="163.9" y="-350.4" font-family="Courier,monospace" font-size="7.00">module</text>
<text text-anchor="start" x="240.8" y="-349.8" font-family="Courier,monospace" font-size="9.00"> </text>
<text text-anchor="start" x="103.8" y="-340.8" font-family="Courier,monospace" font-size="9.00"> </text>
<text text-anchor="start" x="103.8" y="-331.8" font-family="Courier,monospace" font-size="9.00"> </text>
<text text-anchor="start" x="133.29" y="-331.8" font-family="Courier,monospace" font-size="9.00">sparql_service/5</text>
<text text-anchor="start" x="240.8" y="-331.8" font-family="Courier,monospace" font-size="9.00"> </text>
<text text-anchor="start" x="103.8" y="-322.8" font-family="Courier,monospace" font-size="9.00"> </text>
<text text-anchor="start" x="111.69" y="-322.8" font-family="Courier,monospace" font-size="9.00">serql_member_statement/2</text>
<text text-anchor="start" x="240.8" y="-322.8" font-family="Courier,monospace" font-size="9.00"> </text>
<text text-anchor="start" x="103.8" y="-313.8" font-family="Courier,monospace" font-size="9.00"> </text>
<text text-anchor="start" x="135.99" y="-313.8" font-family="Courier,monospace" font-size="9.00">serql_compare/3</text>
<text text-anchor="start" x="240.8" y="-313.8" font-family="Courier,monospace" font-size="9.00"> </text>
<text text-anchor="start" x="103.8" y="-304.8" font-family="Courier,monospace" font-size="9.00"> </text>
<text text-anchor="start" x="144.09" y="-304.8" font-family="Courier,monospace" font-size="9.00">serql_eval/2</text>
<text text-anchor="start" x="240.8" y="-304.8" font-family="Courier,monospace" font-size="9.00"> </text>
<text text-anchor="start" x="103.8" y="-295.8" font-family="Courier,monospace" font-size="9.00"> </text>
<text text-anchor="start" x="130.59" y="-295.8" font-family="Courier,monospace" font-size="9.00">rdfql_triple_in/2</text>
<text text-anchor="start" x="240.8" y="-295.8" font-family="Courier,monospace" font-size="9.00"> </text>
<text text-anchor="start" x="103.8" y="-286.8" font-family="Courier,monospace" font-size="9.00"> </text>
<text text-anchor="start" x="141.39" y="-286.8" font-family="Courier,monospace" font-size="9.00">sparql_true/1</text>
<text text-anchor="start" x="240.8" y="-286.8" font-family="Courier,monospace" font-size="9.00"> </text>
<text text-anchor="start" x="103.8" y="-277.8" font-family="Courier,monospace" font-size="9.00"> </text>
<text text-anchor="start" x="141.39" y="-277.8" font-family="Courier,monospace" font-size="9.00">sparql_eval/2</text>
<text text-anchor="start" x="240.8" y="-277.8" font-family="Courier,monospace" font-size="9.00"> </text>
<text text-anchor="start" x="103.8" y="-268.8" font-family="Courier,monospace" font-size="9.00"> </text>
<text text-anchor="start" x="138.69" y="-268.8" font-family="Courier,monospace" font-size="9.00">sparql_minus/2</text>
<text text-anchor="start" x="240.8" y="-268.8" font-family="Courier,monospace" font-size="9.00"> </text>
<text text-anchor="start" x="103.8" y="-259.8" font-family="Courier,monospace" font-size="9.00"> </text>
<text text-anchor="start" x="141.39" y="-259.8" font-family="Courier,monospace" font-size="9.00">sparql_find/5</text>
<text text-anchor="start" x="240.8" y="-259.8" font-family="Courier,monospace" font-size="9.00"> </text>
<text text-anchor="start" x="103.8" y="-250.8" font-family="Courier,monospace" font-size="9.00"> </text>
<text text-anchor="start" x="130.59" y="-250.8" font-family="Courier,monospace" font-size="9.00">sparql_subquery/3</text>
<text text-anchor="start" x="240.8" y="-250.8" font-family="Courier,monospace" font-size="9.00"> </text>
<text text-anchor="start" x="103.8" y="-241.8" font-family="Courier,monospace" font-size="9.00"> </text>
<text text-anchor="start" x="135.99" y="-241.8" font-family="Courier,monospace" font-size="9.00">sparql_update/1</text>
<text text-anchor="start" x="240.8" y="-241.8" font-family="Courier,monospace" font-size="9.00"> </text>
<text text-anchor="start" x="103.8" y="-232.8" font-family="Courier,monospace" font-size="9.00"> </text>
<text text-anchor="start" x="127.89" y="-232.8" font-family="Courier,monospace" font-size="9.00">rdfql_carthesian/1</text>
<text text-anchor="start" x="240.8" y="-232.8" font-family="Courier,monospace" font-size="9.00"> </text>
<text text-anchor="start" x="103.8" y="-223.8" font-family="Courier,monospace" font-size="9.00"> </text>
<text text-anchor="start" x="138.69" y="-223.8" font-family="Courier,monospace" font-size="9.00">sparql_group/3</text>
<text text-anchor="start" x="240.8" y="-223.8" font-family="Courier,monospace" font-size="9.00"> </text>
<text text-anchor="start" x="103.8" y="-214.8" font-family="Courier,monospace" font-size="9.00"> </text>
<text text-anchor="start" x="138.69" y="-214.8" font-family="Courier,monospace" font-size="9.00">sparql_group/1</text>
<text text-anchor="start" x="240.8" y="-214.8" font-family="Courier,monospace" font-size="9.00"> </text>
<text text-anchor="start" x="103.8" y="-205.8" font-family="Courier,monospace" font-size="9.00"> </text>
<text text-anchor="start" x="117.09" y="-205.8" font-family="Courier,monospace" font-size="9.00">rdfql_cond_bind_null/1</text>
<text text-anchor="start" x="240.8" y="-205.8" font-family="Courier,monospace" font-size="9.00"> </text>
<text text-anchor="start" x="103.8" y="-196.8" font-family="Courier,monospace" font-size="9.00"> </text>
<text text-anchor="start" x="130.59" y="-196.8" font-family="Courier,monospace" font-size="9.00">rdfql_bind_null/1</text>
<text text-anchor="start" x="240.8" y="-196.8" font-family="Courier,monospace" font-size="9.00"> </text>
</a>
</g>
</g>
<!-- prolog_debug -->
<g id="node2" class="node">
<title>prolog_debug</title>
<g id="a_node2"><a xlink:title="module">
<polygon fill="gainsboro" stroke="black" stroke-dasharray="5,2" points="133.5,-92 40.5,-92 40.5,-96 28.5,-96 28.5,-56 133.5,-56 133.5,-92"/>
<polyline fill="none" stroke="black" stroke-dasharray="5,2" points="28.5,-92 40.5,-92 "/>
<text text-anchor="start" x="36.8" y="-75.8" font-family="Courier,monospace" font-size="9.00"> </text>
<text text-anchor="start" x="41.89" y="-75.2" font-family="Courier,monospace" font-size="11.00">prolog_debug</text>
<text text-anchor="start" x="120.8" y="-75.8" font-family="Courier,monospace" font-size="9.00"> </text>
<text text-anchor="start" x="36.8" y="-65.8" font-family="Courier,monospace" font-size="9.00"> </text>
<text text-anchor="start" x="68.9" y="-66.4" font-family="Courier,monospace" font-size="7.00">module</text>
<text text-anchor="start" x="120.8" y="-65.8" font-family="Courier,monospace" font-size="9.00"> </text>
</a>
</g>
</g>
<!-- rdfql_runtime&#45;&gt;prolog_debug -->
<g id="edge1" class="edge">
<title>rdfql_runtime&#45;&gt;prolog_debug</title>
<path fill="none" stroke="black" d="M131.58,-190.99C117.67,-159.1 103.2,-125.91 93.32,-103.25"/>
<polygon fill="black" stroke="black" points="93.26,-103.12 87.19,-99.21 88.46,-92.12 93.26,-103.12"/>
<g id="a_edge1&#45;label"><a xlink:title="use_module">
<text text-anchor="middle" x="137" y="-138.8" font-family="Courier,monospace" font-size="9.00">use_module</text>
</a>
</g>
</g>
<!-- nb_set -->
<g id="node3" class="node">
<title>nb_set</title>
<g id="a_node3"><a xlink:title="module">
<polygon fill="gainsboro" stroke="black" stroke-dasharray="5,2" points="216.5,-92 163.5,-92 163.5,-96 151.5,-96 151.5,-56 216.5,-56 216.5,-92"/>
<polyline fill="none" stroke="black" stroke-dasharray="5,2" points="151.5,-92 163.5,-92 "/>
<text text-anchor="start" x="159.8" y="-75.8" font-family="Courier,monospace" font-size="9.00"> </text>
<text text-anchor="start" x="164.7" y="-75.2" font-family="Courier,monospace" font-size="11.00">nb_set</text>
<text text-anchor="start" x="203.8" y="-75.8" font-family="Courier,monospace" font-size="9.00"> </text>
<text text-anchor="start" x="159.8" y="-65.8" font-family="Courier,monospace" font-size="9.00"> </text>
<text text-anchor="start" x="171.9" y="-66.4" font-family="Courier,monospace" font-size="7.00">module</text>
<text text-anchor="start" x="203.8" y="-65.8" font-family="Courier,monospace" font-size="9.00"> </text>
</a>
</g>
</g>
<!-- rdfql_runtime&#45;&gt;nb_set -->
<g id="edge2" class="edge">
<title>rdfql_runtime&#45;&gt;nb_set</title>
<path fill="none" stroke="black" d="M171.46,-190.92C171.78,-172.98 172.54,-154.4 173.99,-137 174.9,-126.11 176.63,-114.24 178.4,-103.83"/>
<polygon fill="black" stroke="black" points="178.4,-103.83 175.53,-97.22 180.53,-92.02 178.4,-103.83"/>
<g id="a_edge2&#45;label"><a xlink:title="use_module">
<text text-anchor="middle" x="200" y="-138.8" font-family="Courier,monospace" font-size="9.00">use_module</text>
</a>
</g>
</g>
<!-- lists -->
<g id="node4" class="node">
<title>lists</title>
<g id="a_node4"><a xlink:title="module">
<polygon fill="gainsboro" stroke="black" stroke-dasharray="5,2" points="293.5,-92 246.5,-92 246.5,-96 234.5,-96 234.5,-56 293.5,-56 293.5,-92"/>
<polyline fill="none" stroke="black" stroke-dasharray="5,2" points="234.5,-92 246.5,-92 "/>
<text text-anchor="start" x="242.8" y="-75.8" font-family="Courier,monospace" font-size="9.00"> </text>
<text text-anchor="start" x="248" y="-75.2" font-family="Courier,monospace" font-size="11.00">lists</text>
<text text-anchor="start" x="280.8" y="-75.8" font-family="Courier,monospace" font-size="9.00"> </text>
<text text-anchor="start" x="242.8" y="-65.8" font-family="Courier,monospace" font-size="9.00"> </text>
<text text-anchor="start" x="251.9" y="-66.4" font-family="Courier,monospace" font-size="7.00">module</text>
<text text-anchor="start" x="280.8" y="-65.8" font-family="Courier,monospace" font-size="9.00"> </text>
</a>
</g>
</g>
<!-- rdfql_runtime&#45;&gt;lists -->
<g id="edge3" class="edge">
<title>rdfql_runtime&#45;&gt;lists</title>
<path fill="none" stroke="black" d="M213.97,-190.99C227.73,-159.1 242.04,-125.91 251.82,-103.25"/>
<polygon fill="black" stroke="black" points="251.87,-103.14 250.57,-96.04 256.62,-92.12 251.87,-103.14"/>
<g id="a_edge3&#45;label"><a xlink:title="use_module">
<text text-anchor="middle" x="264" y="-138.8" font-family="Courier,monospace" font-size="9.00">use_module</text>
</a>
</g>
</g>
</g>
</svg>
