<?xml version="1.0" encoding="UTF-8" standalone="no"?>
<!DOCTYPE svg PUBLIC "-//W3C//DTD SVG 1.1//EN"
 "http://www.w3.org/Graphics/SVG/1.1/DTD/svg11.dtd">
<!-- Generated by graphviz version 2.41.20190410.0829 (20190410.0829)
 -->
<!-- Title: rdfs.pl Pages: 1 -->
<svg width="540pt" height="436pt"
 viewBox="72.00 72.00 468.00 364.00" xmlns="http://www.w3.org/2000/svg" xmlns:xlink="http://www.w3.org/1999/xlink">
<g id="graph0" class="graph" transform="scale(1 1) rotate(0) translate(76 360)">
<title>rdfs.pl</title>
<polygon fill="white" stroke="transparent" points="-4,4 -4,-288 392,-288 392,4 -4,4"/>
<text text-anchor="start" x="8" y="-16" font-family="Courier,monospace" font-size="10.00" fill="#8b8989">ClioPatria &#45; an RDF application platform</text>
<text text-anchor="start" x="8" y="-6" font-family="Courier,monospace" font-size="10.00" fill="#8b8989">Generated on 2019/04/17, 13:04</text>
<g id="clust1" class="cluster">
<title>cluster_file_/Users/pmoura/ClioPatria/entailment/rdfs.pl</title>
<g id="a_clust1"><a xlink:href="https://github.com/ClioPatria/ClioPatria/tree/add57aa2039eed4033cf96e96c293b2052e88f41/entailment/rdfs.pl" xlink:title="https://github.com/ClioPatria/ClioPatria/tree/add57aa2039eed4033cf96e96c293b2052e88f41/entailment/rdfs.pl">
<path fill="snow" stroke="#8b8989" d="M20,-36C20,-36 368,-36 368,-36 374,-36 380,-42 380,-48 380,-48 380,-264 380,-264 380,-270 374,-276 368,-276 368,-276 20,-276 20,-276 14,-276 8,-270 8,-264 8,-264 8,-48 8,-48 8,-42 14,-36 20,-36"/>
<text text-anchor="middle" x="37" y="-264" font-family="Courier,monospace" font-size="10.00" fill="#8b8989">rdfs.pl</text>
</a>
</g>
</g>
<g id="clust2" class="cluster">
<title>cluster_other</title>
<g id="a_clust2"><a xlink:title="(external entities)">
<path fill="white" stroke="#8b8989" d="M30,-46C30,-46 358,-46 358,-46 364,-46 370,-52 370,-58 370,-58 370,-108 370,-108 370,-114 364,-120 358,-120 358,-120 30,-120 30,-120 24,-120 18,-114 18,-108 18,-108 18,-58 18,-58 18,-52 24,-46 30,-46"/>
<text text-anchor="middle" x="83.01" y="-108" font-family="Courier,monospace" font-size="10.00" fill="#8b8989">(external entities)</text>
</a>
</g>
</g>
<!-- rdfs_entailment -->
<g id="node1" class="node">
<title>rdfs_entailment</title>
<g id="a_node1"><a xlink:title="module">
<polygon fill="gainsboro" stroke="black" points="278,-248 134,-248 134,-252 122,-252 122,-191 278,-191 278,-248"/>
<polyline fill="none" stroke="black" points="122,-248 134,-248 "/>
<g id="a_node1_0"><a xlink:href="rdfs_entailment_module_xref_diagram.svg" xlink:title="Zoom">
<image xlink:href="zoom.png" width="11px" height="11px" preserveAspectRatio="xMinYMin meet" x="130" y="-243.5"/>
</a>
</g>
<text text-anchor="start" x="132.8" y="-224.3" font-family="Courier,monospace" font-size="9.00"> </text>
<text text-anchor="start" x="153.49" y="-223.7" font-family="Courier,monospace" font-size="11.00">rdfs_entailment</text>
<text text-anchor="start" x="264.8" y="-224.3" font-family="Courier,monospace" font-size="9.00"> </text>
<text text-anchor="start" x="132.8" y="-214.3" font-family="Courier,monospace" font-size="9.00"> </text>
<text text-anchor="start" x="190.4" y="-214.9" font-family="Courier,monospace" font-size="7.00">module</text>
<text text-anchor="start" x="264.8" y="-214.3" font-family="Courier,monospace" font-size="9.00"> </text>
<text text-anchor="start" x="132.8" y="-205.3" font-family="Courier,monospace" font-size="9.00"> </text>
<text text-anchor="start" x="132.8" y="-196.3" font-family="Courier,monospace" font-size="9.00"> </text>
<text text-anchor="start" x="140.89" y="-196.3" font-family="Courier,monospace" font-size="9.00">cliopatria:entailment/2</text>
<text text-anchor="start" x="264.8" y="-196.3" font-family="Courier,monospace" font-size="9.00"> </text>
</a>
</g>
</g>
<!-- cliopatria -->
<g id="node2" class="node">
<title>cliopatria</title>
<g id="a_node2"><a xlink:title="module">
<polygon fill="gainsboro" stroke="black" stroke-dasharray="5,2" points="120,-92 40,-92 40,-96 28,-96 28,-56 120,-56 120,-92"/>
<polyline fill="none" stroke="black" stroke-dasharray="5,2" points="28,-92 40,-92 "/>
<text text-anchor="start" x="35.8" y="-75.8" font-family="Courier,monospace" font-size="9.00"> </text>
<text text-anchor="start" x="40.99" y="-75.2" font-family="Courier,monospace" font-size="11.00">cliopatria</text>
<text text-anchor="start" x="106.8" y="-75.8" font-family="Courier,monospace" font-size="9.00"> </text>
<text text-anchor="start" x="35.8" y="-65.8" font-family="Courier,monospace" font-size="9.00"> </text>
<text text-anchor="start" x="61.4" y="-66.4" font-family="Courier,monospace" font-size="7.00">module</text>
<text text-anchor="start" x="106.8" y="-65.8" font-family="Courier,monospace" font-size="9.00"> </text>
</a>
</g>
</g>
<!-- rdfs_entailment&#45;&gt;cliopatria -->
<g id="edge1" class="edge">
<title>rdfs_entailment&#45;&gt;cliopatria</title>
<path fill="none" stroke="black" d="M161.24,-190.83C145.35,-178.29 127.51,-162.57 113.79,-146 102.6,-132.47 92.89,-115.33 85.87,-101.29"/>
<polygon fill="black" stroke="black" points="84.6,-90.62 85.8,-101.15 78.3,-93.66 84.6,-90.62"/>
<g id="a_edge1&#45;label"><a xlink:title="provides">
<text text-anchor="middle" x="134.6" y="-138.8" font-family="Courier,monospace" font-size="9.00">provides</text>
</a>
</g>
</g>
<!-- rdf_db -->
<g id="node3" class="node">
<title>rdf_db</title>
<g id="a_node3"><a xlink:title="module">
<polygon fill="gainsboro" stroke="black" stroke-dasharray="5,2" points="203.5,-92 150.5,-92 150.5,-96 138.5,-96 138.5,-56 203.5,-56 203.5,-92"/>
<polyline fill="none" stroke="black" stroke-dasharray="5,2" points="138.5,-92 150.5,-92 "/>
<text text-anchor="start" x="146.8" y="-75.8" font-family="Courier,monospace" font-size="9.00"> </text>
<text text-anchor="start" x="151.7" y="-75.2" font-family="Courier,monospace" font-size="11.00">rdf_db</text>
<text text-anchor="start" x="190.8" y="-75.8" font-family="Courier,monospace" font-size="9.00"> </text>
<text text-anchor="start" x="146.8" y="-65.8" font-family="Courier,monospace" font-size="9.00"> </text>
<text text-anchor="start" x="158.9" y="-66.4" font-family="Courier,monospace" font-size="7.00">module</text>
<text text-anchor="start" x="190.8" y="-65.8" font-family="Courier,monospace" font-size="9.00"> </text>
</a>
</g>
</g>
<!-- rdfs_entailment&#45;&gt;rdf_db -->
<g id="edge2" class="edge">
<title>rdfs_entailment&#45;&gt;rdf_db</title>
<path fill="none" stroke="black" d="M181.95,-190.78C174.51,-177.75 166.76,-161.66 162.99,-146 159.73,-132.43 160.88,-117.08 163.2,-104.13"/>
<polygon fill="black" stroke="black" points="163.25,-103.86 160.61,-97.16 165.78,-92.13 163.25,-103.86"/>
<g id="a_edge2&#45;label"><a xlink:title="use_module">
<text text-anchor="middle" x="189" y="-138.8" font-family="Courier,monospace" font-size="9.00">use_module</text>
</a>
</g>
</g>
<!-- rdfs -->
<g id="node4" class="node">
<title>rdfs</title>
<g id="a_node4"><a xlink:title="module">
<polygon fill="gainsboro" stroke="black" stroke-dasharray="5,2" points="276,-92 234,-92 234,-96 222,-96 222,-56 276,-56 276,-92"/>
<polyline fill="none" stroke="black" stroke-dasharray="5,2" points="222,-92 234,-92 "/>
<text text-anchor="start" x="230.8" y="-75.8" font-family="Courier,monospace" font-size="9.00"> </text>
<text text-anchor="start" x="235.8" y="-75.2" font-family="Courier,monospace" font-size="11.00">rdfs</text>
<text text-anchor="start" x="261.8" y="-75.8" font-family="Courier,monospace" font-size="9.00"> </text>
<text text-anchor="start" x="230.8" y="-65.8" font-family="Courier,monospace" font-size="9.00"> </text>
<text text-anchor="start" x="236.4" y="-66.4" font-family="Courier,monospace" font-size="7.00">module</text>
<text text-anchor="start" x="261.8" y="-65.8" font-family="Courier,monospace" font-size="9.00"> </text>
</a>
</g>
</g>
<!-- rdfs_entailment&#45;&gt;rdfs -->
<g id="edge3" class="edge">
<title>rdfs_entailment&#45;&gt;rdfs</title>
<path fill="none" stroke="black" d="M209.45,-190.83C218,-165.77 230.56,-129.01 239.22,-103.65"/>
<polygon fill="black" stroke="black" points="239.24,-103.58 237.4,-96.61 243.12,-92.22 239.24,-103.58"/>
<g id="a_edge3&#45;label"><a xlink:title="use_module">
<text text-anchor="middle" x="254" y="-138.8" font-family="Courier,monospace" font-size="9.00">use_module</text>
</a>
</g>
</g>
<!-- nb_set -->
<g id="node5" class="node">
<title>nb_set</title>
<g id="a_node5"><a xlink:title="module">
<polygon fill="gainsboro" stroke="black" stroke-dasharray="5,2" points="359.5,-92 306.5,-92 306.5,-96 294.5,-96 294.5,-56 359.5,-56 359.5,-92"/>
<polyline fill="none" stroke="black" stroke-dasharray="5,2" points="294.5,-92 306.5,-92 "/>
<text text-anchor="start" x="302.8" y="-75.8" font-family="Courier,monospace" font-size="9.00"> </text>
<text text-anchor="start" x="307.7" y="-75.2" font-family="Courier,monospace" font-size="11.00">nb_set</text>
<text text-anchor="start" x="346.8" y="-75.8" font-family="Courier,monospace" font-size="9.00"> </text>
<text text-anchor="start" x="302.8" y="-65.8" font-family="Courier,monospace" font-size="9.00"> </text>
<text text-anchor="start" x="314.9" y="-66.4" font-family="Courier,monospace" font-size="7.00">module</text>
<text text-anchor="start" x="346.8" y="-65.8" font-family="Courier,monospace" font-size="9.00"> </text>
</a>
</g>
</g>
<!-- rdfs_entailment&#45;&gt;nb_set -->
<g id="edge4" class="edge">
<title>rdfs_entailment&#45;&gt;nb_set</title>
<path fill="none" stroke="black" d="M237.58,-190.93C253.32,-178.29 271.14,-162.47 285,-146 296.02,-132.9 305.91,-116.55 313.31,-102.85"/>
<polygon fill="black" stroke="black" points="313.38,-102.73 312.6,-95.56 318.92,-92.09 313.38,-102.73"/>
<g id="a_edge4&#45;label"><a xlink:title="use_module">
<text text-anchor="middle" x="318" y="-138.8" font-family="Courier,monospace" font-size="9.00">use_module</text>
</a>
</g>
</g>
</g>
</svg>
