<?xml version="1.0" encoding="UTF-8" standalone="no"?>
<!DOCTYPE svg PUBLIC "-//W3C//DTD SVG 1.1//EN"
 "http://www.w3.org/Graphics/SVG/1.1/DTD/svg11.dtd">
<!-- Generated by graphviz version 2.41.20190410.0829 (20190410.0829)
 -->
<!-- Title: rdfs_lite.pl Pages: 1 -->
<svg width="456pt" height="436pt"
 viewBox="72.00 72.00 384.00 364.00" xmlns="http://www.w3.org/2000/svg" xmlns:xlink="http://www.w3.org/1999/xlink">
<g id="graph0" class="graph" transform="scale(1 1) rotate(0) translate(76 360)">
<title>rdfs_lite.pl</title>
<polygon fill="white" stroke="transparent" points="-4,4 -4,-288 308,-288 308,4 -4,4"/>
<text text-anchor="start" x="8" y="-16" font-family="Courier,monospace" font-size="10.00" fill="#8b8989">ClioPatria &#45; an RDF application platform</text>
<text text-anchor="start" x="8" y="-6" font-family="Courier,monospace" font-size="10.00" fill="#8b8989">Generated on 2019/04/17, 13:04</text>
<g id="clust1" class="cluster">
<title>cluster_file_/Users/pmoura/ClioPatria/entailment/rdfs_lite.pl</title>
<g id="a_clust1"><a xlink:href="https://github.com/ClioPatria/ClioPatria/tree/add57aa2039eed4033cf96e96c293b2052e88f41/entailment/rdfs_lite.pl" xlink:title="https://github.com/ClioPatria/ClioPatria/tree/add57aa2039eed4033cf96e96c293b2052e88f41/entailment/rdfs_lite.pl">
<path fill="snow" stroke="#8b8989" d="M20,-36C20,-36 284,-36 284,-36 290,-36 296,-42 296,-48 296,-48 296,-264 296,-264 296,-270 290,-276 284,-276 284,-276 20,-276 20,-276 14,-276 8,-270 8,-264 8,-264 8,-48 8,-48 8,-42 14,-36 20,-36"/>
<text text-anchor="middle" x="52.01" y="-264" font-family="Courier,monospace" font-size="10.00" fill="#8b8989">rdfs_lite.pl</text>
</a>
</g>
</g>
<g id="clust2" class="cluster">
<title>cluster_other</title>
<g id="a_clust2"><a xlink:title="(external entities)">
<path fill="white" stroke="#8b8989" d="M30,-46C30,-46 274,-46 274,-46 280,-46 286,-52 286,-58 286,-58 286,-108 286,-108 286,-114 280,-120 274,-120 274,-120 30,-120 30,-120 24,-120 18,-114 18,-108 18,-108 18,-58 18,-58 18,-52 24,-46 30,-46"/>
<text text-anchor="middle" x="83.01" y="-108" font-family="Courier,monospace" font-size="10.00" fill="#8b8989">(external entities)</text>
</a>
</g>
</g>
<!-- rdfslite_entailment -->
<g id="node1" class="node">
<title>rdfslite_entailment</title>
<g id="a_node1"><a xlink:title="module">
<polygon fill="gainsboro" stroke="black" points="233.5,-248 88.5,-248 88.5,-252 76.5,-252 76.5,-191 233.5,-191 233.5,-248"/>
<polyline fill="none" stroke="black" points="76.5,-248 88.5,-248 "/>
<g id="a_node1_0"><a xlink:href="rdfslite_entailment_module_xref_diagram.svg" xlink:title="Zoom">
<image xlink:href="zoom.png" width="11px" height="11px" preserveAspectRatio="xMinYMin meet" x="85" y="-243.5"/>
</a>
</g>
<text text-anchor="start" x="87.8" y="-224.3" font-family="Courier,monospace" font-size="9.00"> </text>
<text text-anchor="start" x="95.79" y="-223.7" font-family="Courier,monospace" font-size="11.00">rdfslite_entailment</text>
<text text-anchor="start" x="220.8" y="-224.3" font-family="Courier,monospace" font-size="9.00"> </text>
<text text-anchor="start" x="87.8" y="-214.3" font-family="Courier,monospace" font-size="9.00"> </text>
<text text-anchor="start" x="145.9" y="-214.9" font-family="Courier,monospace" font-size="7.00">module</text>
<text text-anchor="start" x="220.8" y="-214.3" font-family="Courier,monospace" font-size="9.00"> </text>
<text text-anchor="start" x="87.8" y="-205.3" font-family="Courier,monospace" font-size="9.00"> </text>
<text text-anchor="start" x="87.8" y="-196.3" font-family="Courier,monospace" font-size="9.00"> </text>
<text text-anchor="start" x="96.39" y="-196.3" font-family="Courier,monospace" font-size="9.00">cliopatria:entailment/2</text>
<text text-anchor="start" x="220.8" y="-196.3" font-family="Courier,monospace" font-size="9.00"> </text>
</a>
</g>
</g>
<!-- cliopatria -->
<g id="node2" class="node">
<title>cliopatria</title>
<g id="a_node2"><a xlink:title="module">
<polygon fill="gainsboro" stroke="black" stroke-dasharray="5,2" points="120,-92 40,-92 40,-96 28,-96 28,-56 120,-56 120,-92"/>
<polyline fill="none" stroke="black" stroke-dasharray="5,2" points="28,-92 40,-92 "/>
<text text-anchor="start" x="35.8" y="-75.8" font-family="Courier,monospace" font-size="9.00"> </text>
<text text-anchor="start" x="40.99" y="-75.2" font-family="Courier,monospace" font-size="11.00">cliopatria</text>
<text text-anchor="start" x="106.8" y="-75.8" font-family="Courier,monospace" font-size="9.00"> </text>
<text text-anchor="start" x="35.8" y="-65.8" font-family="Courier,monospace" font-size="9.00"> </text>
<text text-anchor="start" x="61.4" y="-66.4" font-family="Courier,monospace" font-size="7.00">module</text>
<text text-anchor="start" x="106.8" y="-65.8" font-family="Courier,monospace" font-size="9.00"> </text>
</a>
</g>
</g>
<!-- rdfslite_entailment&#45;&gt;cliopatria -->
<g id="edge1" class="edge">
<title>rdfslite_entailment&#45;&gt;cliopatria</title>
<path fill="none" stroke="black" d="M135.73,-190.8C126.8,-177.51 116.31,-161.2 107.79,-146 99.74,-131.62 91.77,-115.02 85.59,-101.49"/>
<polygon fill="black" stroke="black" points="84.63,-90.81 85.54,-101.37 78.24,-93.69 84.63,-90.81"/>
<g id="a_edge1&#45;label"><a xlink:title="provides">
<text text-anchor="middle" x="128.6" y="-138.8" font-family="Courier,monospace" font-size="9.00">provides</text>
</a>
</g>
</g>
<!-- rdf_db -->
<g id="node3" class="node">
<title>rdf_db</title>
<g id="a_node3"><a xlink:title="module">
<polygon fill="gainsboro" stroke="black" stroke-dasharray="5,2" points="203.5,-92 150.5,-92 150.5,-96 138.5,-96 138.5,-56 203.5,-56 203.5,-92"/>
<polyline fill="none" stroke="black" stroke-dasharray="5,2" points="138.5,-92 150.5,-92 "/>
<text text-anchor="start" x="146.8" y="-75.8" font-family="Courier,monospace" font-size="9.00"> </text>
<text text-anchor="start" x="151.7" y="-75.2" font-family="Courier,monospace" font-size="11.00">rdf_db</text>
<text text-anchor="start" x="190.8" y="-75.8" font-family="Courier,monospace" font-size="9.00"> </text>
<text text-anchor="start" x="146.8" y="-65.8" font-family="Courier,monospace" font-size="9.00"> </text>
<text text-anchor="start" x="158.9" y="-66.4" font-family="Courier,monospace" font-size="7.00">module</text>
<text text-anchor="start" x="190.8" y="-65.8" font-family="Courier,monospace" font-size="9.00"> </text>
</a>
</g>
</g>
<!-- rdfslite_entailment&#45;&gt;rdf_db -->
<g id="edge2" class="edge">
<title>rdfslite_entailment&#45;&gt;rdf_db</title>
<path fill="none" stroke="black" d="M153.8,-190.86C153.49,-175.03 153.75,-154.83 155.99,-137 157.36,-126.06 159.94,-114.26 162.57,-103.91"/>
<polygon fill="black" stroke="black" points="162.61,-103.76 160.31,-96.93 165.74,-92.18 162.61,-103.76"/>
<g id="a_edge2&#45;label"><a xlink:title="use_module">
<text text-anchor="middle" x="182" y="-138.8" font-family="Courier,monospace" font-size="9.00">use_module</text>
</a>
</g>
</g>
<!-- rdfs -->
<g id="node4" class="node">
<title>rdfs</title>
<g id="a_node4"><a xlink:title="module">
<polygon fill="gainsboro" stroke="black" stroke-dasharray="5,2" points="276,-92 234,-92 234,-96 222,-96 222,-56 276,-56 276,-92"/>
<polyline fill="none" stroke="black" stroke-dasharray="5,2" points="222,-92 234,-92 "/>
<text text-anchor="start" x="230.8" y="-75.8" font-family="Courier,monospace" font-size="9.00"> </text>
<text text-anchor="start" x="235.8" y="-75.2" font-family="Courier,monospace" font-size="11.00">rdfs</text>
<text text-anchor="start" x="261.8" y="-75.8" font-family="Courier,monospace" font-size="9.00"> </text>
<text text-anchor="start" x="230.8" y="-65.8" font-family="Courier,monospace" font-size="9.00"> </text>
<text text-anchor="start" x="236.4" y="-66.4" font-family="Courier,monospace" font-size="7.00">module</text>
<text text-anchor="start" x="261.8" y="-65.8" font-family="Courier,monospace" font-size="9.00"> </text>
</a>
</g>
</g>
<!-- rdfslite_entailment&#45;&gt;rdfs -->
<g id="edge3" class="edge">
<title>rdfslite_entailment&#45;&gt;rdfs</title>
<path fill="none" stroke="black" d="M177.4,-190.96C187.8,-177.7 200.02,-161.37 210,-146 218.94,-132.22 227.84,-116.24 234.88,-102.93"/>
<polygon fill="black" stroke="black" points="235,-102.69 234.22,-95.52 240.53,-92.04 235,-102.69"/>
<g id="a_edge3&#45;label"><a xlink:title="use_module">
<text text-anchor="middle" x="241" y="-138.8" font-family="Courier,monospace" font-size="9.00">use_module</text>
</a>
</g>
</g>
</g>
</svg>
