<?xml version="1.0" encoding="UTF-8" standalone="no"?>
<!DOCTYPE svg PUBLIC "-//W3C//DTD SVG 1.1//EN"
 "http://www.w3.org/Graphics/SVG/1.1/DTD/svg11.dtd">
<!-- Generated by graphviz version 2.41.20190410.0829 (20190410.0829)
 -->
<!-- Title: serql.pl Pages: 1 -->
<svg width="1502pt" height="490pt"
 viewBox="72.00 72.00 1430.00 418.00" xmlns="http://www.w3.org/2000/svg" xmlns:xlink="http://www.w3.org/1999/xlink">
<g id="graph0" class="graph" transform="scale(1 1) rotate(0) translate(76 414)">
<title>serql.pl</title>
<polygon fill="white" stroke="transparent" points="-4,4 -4,-342 1354,-342 1354,4 -4,4"/>
<text text-anchor="start" x="8" y="-16" font-family="Courier,monospace" font-size="10.00" fill="#8b8989">ClioPatria &#45; an RDF application platform</text>
<text text-anchor="start" x="8" y="-6" font-family="Courier,monospace" font-size="10.00" fill="#8b8989">Generated on 2019/04/17, 13:04</text>
<g id="clust1" class="cluster">
<title>cluster_file_/Users/pmoura/ClioPatria/rdfql/serql.pl</title>
<g id="a_clust1"><a xlink:href="https://github.com/ClioPatria/ClioPatria/tree/add57aa2039eed4033cf96e96c293b2052e88f41/rdfql/serql.pl" xlink:title="https://github.com/ClioPatria/ClioPatria/tree/add57aa2039eed4033cf96e96c293b2052e88f41/rdfql/serql.pl">
<path fill="snow" stroke="#8b8989" d="M20,-36C20,-36 1330,-36 1330,-36 1336,-36 1342,-42 1342,-48 1342,-48 1342,-318 1342,-318 1342,-324 1336,-330 1330,-330 1330,-330 20,-330 20,-330 14,-330 8,-324 8,-318 8,-318 8,-48 8,-48 8,-42 14,-36 20,-36"/>
<text text-anchor="middle" x="40" y="-318" font-family="Courier,monospace" font-size="10.00" fill="#8b8989">serql.pl</text>
</a>
</g>
</g>
<g id="clust2" class="cluster">
<title>cluster_other</title>
<g id="a_clust2"><a xlink:title="(external entities)">
<path fill="white" stroke="#8b8989" d="M30,-46C30,-46 1184,-46 1184,-46 1190,-46 1196,-52 1196,-58 1196,-58 1196,-108 1196,-108 1196,-114 1190,-120 1184,-120 1184,-120 30,-120 30,-120 24,-120 18,-114 18,-108 18,-108 18,-58 18,-58 18,-52 24,-46 30,-46"/>
<text text-anchor="middle" x="83.01" y="-108" font-family="Courier,monospace" font-size="10.00" fill="#8b8989">(external entities)</text>
</a>
</g>
</g>
<!-- serql -->
<g id="node1" class="node">
<title>serql</title>
<g id="a_node1"><a xlink:title="module">
<polygon fill="gainsboro" stroke="black" points="786.5,-302 631.5,-302 631.5,-306 619.5,-306 619.5,-191 786.5,-191 786.5,-302"/>
<polyline fill="none" stroke="black" points="619.5,-302 631.5,-302 "/>
<g id="a_node1_0"><a xlink:href="serql_module_xref_diagram.svg" xlink:title="Zoom">
<image xlink:href="zoom.png" width="11px" height="11px" preserveAspectRatio="xMinYMin meet" x="628" y="-297.5"/>
</a>
</g>
<text text-anchor="start" x="630.8" y="-278.3" font-family="Courier,monospace" font-size="9.00"> </text>
<text text-anchor="start" x="690" y="-277.7" font-family="Courier,monospace" font-size="11.00">serql</text>
<text text-anchor="start" x="773.8" y="-278.3" font-family="Courier,monospace" font-size="9.00"> </text>
<text text-anchor="start" x="630.8" y="-268.3" font-family="Courier,monospace" font-size="9.00"> </text>
<text text-anchor="start" x="693.9" y="-268.9" font-family="Courier,monospace" font-size="7.00">module</text>
<text text-anchor="start" x="773.8" y="-268.3" font-family="Courier,monospace" font-size="9.00"> </text>
<text text-anchor="start" x="630.8" y="-259.3" font-family="Courier,monospace" font-size="9.00"> </text>
<text text-anchor="start" x="630.8" y="-250.3" font-family="Courier,monospace" font-size="9.00"> </text>
<text text-anchor="start" x="665.99" y="-250.3" font-family="Courier,monospace" font-size="9.00">serql_compile/3</text>
<text text-anchor="start" x="773.8" y="-250.3" font-family="Courier,monospace" font-size="9.00"> </text>
<text text-anchor="start" x="630.8" y="-241.3" font-family="Courier,monospace" font-size="9.00"> </text>
<text text-anchor="start" x="676.8" y="-241.3" font-family="Courier,monospace" font-size="9.00">serql_run/2</text>
<text text-anchor="start" x="773.8" y="-241.3" font-family="Courier,monospace" font-size="9.00"> </text>
<text text-anchor="start" x="630.8" y="-232.3" font-family="Courier,monospace" font-size="9.00"> </text>
<text text-anchor="start" x="671.39" y="-232.3" font-family="Courier,monospace" font-size="9.00">serql_query/2</text>
<text text-anchor="start" x="773.8" y="-232.3" font-family="Courier,monospace" font-size="9.00"> </text>
<text text-anchor="start" x="630.8" y="-223.3" font-family="Courier,monospace" font-size="9.00"> </text>
<text text-anchor="start" x="671.39" y="-223.3" font-family="Courier,monospace" font-size="9.00">serql_query/3</text>
<text text-anchor="start" x="773.8" y="-223.3" font-family="Courier,monospace" font-size="9.00"> </text>
<text text-anchor="start" x="630.8" y="-214.3" font-family="Courier,monospace" font-size="9.00"> </text>
<text text-anchor="start" x="644.39" y="-214.3" font-family="Courier,monospace" font-size="9.00">where:attr_unify_hook/2</text>
<text text-anchor="start" x="773.8" y="-214.3" font-family="Courier,monospace" font-size="9.00"> </text>
<text text-anchor="start" x="630.8" y="-205.3" font-family="Courier,monospace" font-size="9.00"> </text>
<text text-anchor="start" x="638.99" y="-205.3" font-family="Courier,monospace" font-size="9.00">where:attr_portray_hook/2</text>
<text text-anchor="start" x="773.8" y="-205.3" font-family="Courier,monospace" font-size="9.00"> </text>
<text text-anchor="start" x="630.8" y="-196.3" font-family="Courier,monospace" font-size="9.00"> </text>
<text text-anchor="start" x="663.29" y="-196.3" font-family="Courier,monospace" font-size="9.00">prolog:message/3</text>
<text text-anchor="start" x="773.8" y="-196.3" font-family="Courier,monospace" font-size="9.00"> </text>
</a>
</g>
</g>
<!-- swi_option -->
<g id="node2" class="node">
<title>swi_option</title>
<g id="a_node2"><a xlink:title="module">
<polygon fill="gainsboro" stroke="black" stroke-dasharray="5,2" points="120,-92 40,-92 40,-96 28,-96 28,-56 120,-56 120,-92"/>
<polyline fill="none" stroke="black" stroke-dasharray="5,2" points="28,-92 40,-92 "/>
<text text-anchor="start" x="35.8" y="-75.8" font-family="Courier,monospace" font-size="9.00"> </text>
<text text-anchor="start" x="40.99" y="-75.2" font-family="Courier,monospace" font-size="11.00">swi_option</text>
<text text-anchor="start" x="106.8" y="-75.8" font-family="Courier,monospace" font-size="9.00"> </text>
<text text-anchor="start" x="35.8" y="-65.8" font-family="Courier,monospace" font-size="9.00"> </text>
<text text-anchor="start" x="61.4" y="-66.4" font-family="Courier,monospace" font-size="7.00">module</text>
<text text-anchor="start" x="106.8" y="-65.8" font-family="Courier,monospace" font-size="9.00"> </text>
</a>
</g>
</g>
<!-- serql&#45;&gt;swi_option -->
<g id="edge3" class="edge">
<title>serql&#45;&gt;swi_option</title>
<path fill="none" stroke="black" d="M619.19,-229.97C522.91,-211.72 360.38,-179.62 221.99,-146 180.29,-135.87 167.08,-139.79 129,-120 118.82,-114.71 108.78,-107.32 100.12,-100.06"/>
<polygon fill="black" stroke="black" points="100,-99.96 92.85,-99.01 90.99,-92.04 100,-99.96"/>
<g id="a_edge3&#45;label"><a xlink:title="use_module">
<text text-anchor="middle" x="248" y="-138.8" font-family="Courier,monospace" font-size="9.00">use_module</text>
</a>
</g>
</g>
<!-- rdfql_util -->
<g id="node3" class="node">
<title>rdfql_util</title>
<g id="a_node3"><a xlink:title="module">
<polygon fill="gainsboro" stroke="black" stroke-dasharray="5,2" points="230,-92 150,-92 150,-96 138,-96 138,-56 230,-56 230,-92"/>
<polyline fill="none" stroke="black" stroke-dasharray="5,2" points="138,-92 150,-92 "/>
<text text-anchor="start" x="145.8" y="-75.8" font-family="Courier,monospace" font-size="9.00"> </text>
<text text-anchor="start" x="150.99" y="-75.2" font-family="Courier,monospace" font-size="11.00">rdfql_util</text>
<text text-anchor="start" x="216.8" y="-75.8" font-family="Courier,monospace" font-size="9.00"> </text>
<text text-anchor="start" x="145.8" y="-65.8" font-family="Courier,monospace" font-size="9.00"> </text>
<text text-anchor="start" x="171.4" y="-66.4" font-family="Courier,monospace" font-size="7.00">module</text>
<text text-anchor="start" x="216.8" y="-65.8" font-family="Courier,monospace" font-size="9.00"> </text>
</a>
</g>
</g>
<!-- serql&#45;&gt;rdfql_util -->
<g id="edge4" class="edge">
<title>serql&#45;&gt;rdfql_util</title>
<path fill="none" stroke="black" d="M619.35,-226.24C540.2,-207.51 418.3,-177.36 313.99,-146 280.21,-135.84 269.79,-137.21 239,-120 229.14,-114.49 219.3,-107.16 210.72,-100.03"/>
<polygon fill="black" stroke="black" points="210.71,-100.02 203.56,-99.11 201.65,-92.16 210.71,-100.02"/>
<g id="a_edge4&#45;label"><a xlink:title="use_module">
<text text-anchor="middle" x="340" y="-138.8" font-family="Courier,monospace" font-size="9.00">use_module</text>
</a>
</g>
</g>
<!-- settings -->
<g id="node4" class="node">
<title>settings</title>
<g id="a_node4"><a xlink:title="module">
<polygon fill="gainsboro" stroke="black" stroke-dasharray="5,2" points="326,-92 260,-92 260,-96 248,-96 248,-56 326,-56 326,-92"/>
<polyline fill="none" stroke="black" stroke-dasharray="5,2" points="248,-92 260,-92 "/>
<text text-anchor="start" x="255.8" y="-75.8" font-family="Courier,monospace" font-size="9.00"> </text>
<text text-anchor="start" x="260.6" y="-75.2" font-family="Courier,monospace" font-size="11.00">settings</text>
<text text-anchor="start" x="312.8" y="-75.8" font-family="Courier,monospace" font-size="9.00"> </text>
<text text-anchor="start" x="255.8" y="-65.8" font-family="Courier,monospace" font-size="9.00"> </text>
<text text-anchor="start" x="274.4" y="-66.4" font-family="Courier,monospace" font-size="7.00">module</text>
<text text-anchor="start" x="312.8" y="-65.8" font-family="Courier,monospace" font-size="9.00"> </text>
</a>
</g>
</g>
<!-- serql&#45;&gt;settings -->
<g id="edge5" class="edge">
<title>serql&#45;&gt;settings</title>
<path fill="none" stroke="black" d="M619.34,-227.39C542.09,-208.3 426.02,-173.49 336,-120 327.2,-114.77 318.63,-107.77 311.17,-100.86"/>
<polygon fill="black" stroke="black" points="310.98,-100.66 303.89,-99.33 302.4,-92.28 310.98,-100.66"/>
<g id="a_edge5&#45;label"><a xlink:title="use_module">
<text text-anchor="middle" x="409" y="-138.8" font-family="Courier,monospace" font-size="9.00">use_module</text>
</a>
</g>
</g>
<!-- rdf_optimise -->
<g id="node5" class="node">
<title>rdf_optimise</title>
<g id="a_node5"><a xlink:title="module">
<polygon fill="gainsboro" stroke="black" stroke-dasharray="5,2" points="449.5,-92 356.5,-92 356.5,-96 344.5,-96 344.5,-56 449.5,-56 449.5,-92"/>
<polyline fill="none" stroke="black" stroke-dasharray="5,2" points="344.5,-92 356.5,-92 "/>
<text text-anchor="start" x="352.8" y="-75.8" font-family="Courier,monospace" font-size="9.00"> </text>
<text text-anchor="start" x="357.89" y="-75.2" font-family="Courier,monospace" font-size="11.00">rdf_optimise</text>
<text text-anchor="start" x="436.8" y="-75.8" font-family="Courier,monospace" font-size="9.00"> </text>
<text text-anchor="start" x="352.8" y="-65.8" font-family="Courier,monospace" font-size="9.00"> </text>
<text text-anchor="start" x="384.9" y="-66.4" font-family="Courier,monospace" font-size="7.00">module</text>
<text text-anchor="start" x="436.8" y="-65.8" font-family="Courier,monospace" font-size="9.00"> </text>
</a>
</g>
</g>
<!-- serql&#45;&gt;rdf_optimise -->
<g id="edge6" class="edge">
<title>serql&#45;&gt;rdf_optimise</title>
<path fill="none" stroke="black" d="M619.39,-206.43C571.46,-183.08 510.73,-151.82 459,-120 448.85,-113.76 438.21,-106.37 428.67,-99.41"/>
<polygon fill="black" stroke="black" points="428.45,-99.25 421.25,-98.88 418.82,-92.09 428.45,-99.25"/>
<g id="a_edge6&#45;label"><a xlink:title="use_module">
<text text-anchor="middle" x="524" y="-138.8" font-family="Courier,monospace" font-size="9.00">use_module</text>
</a>
</g>
</g>
<!-- prolog_debug -->
<g id="node6" class="node">
<title>prolog_debug</title>
<g id="a_node6"><a xlink:title="module">
<polygon fill="gainsboro" stroke="black" stroke-dasharray="5,2" points="572.5,-92 479.5,-92 479.5,-96 467.5,-96 467.5,-56 572.5,-56 572.5,-92"/>
<polyline fill="none" stroke="black" stroke-dasharray="5,2" points="467.5,-92 479.5,-92 "/>
<text text-anchor="start" x="475.8" y="-75.8" font-family="Courier,monospace" font-size="9.00"> </text>
<text text-anchor="start" x="480.89" y="-75.2" font-family="Courier,monospace" font-size="11.00">prolog_debug</text>
<text text-anchor="start" x="559.8" y="-75.8" font-family="Courier,monospace" font-size="9.00"> </text>
<text text-anchor="start" x="475.8" y="-65.8" font-family="Courier,monospace" font-size="9.00"> </text>
<text text-anchor="start" x="507.9" y="-66.4" font-family="Courier,monospace" font-size="7.00">module</text>
<text text-anchor="start" x="559.8" y="-65.8" font-family="Courier,monospace" font-size="9.00"> </text>
</a>
</g>
</g>
<!-- serql&#45;&gt;prolog_debug -->
<g id="edge7" class="edge">
<title>serql&#45;&gt;prolog_debug</title>
<path fill="none" stroke="black" d="M633.52,-190.94C616.55,-176.8 598.75,-161.24 582.99,-146 568.5,-131.99 553.48,-115.16 541.74,-101.4"/>
<polygon fill="black" stroke="black" points="541.56,-101.19 534.63,-99.18 533.83,-92.01 541.56,-101.19"/>
<g id="a_edge7&#45;label"><a xlink:title="use_module">
<text text-anchor="middle" x="609" y="-138.8" font-family="Courier,monospace" font-size="9.00">use_module</text>
</a>
</g>
</g>
<!-- rdf_db -->
<g id="node7" class="node">
<title>rdf_db</title>
<g id="a_node7"><a xlink:title="module">
<polygon fill="gainsboro" stroke="black" stroke-dasharray="5,2" points="655.5,-92 602.5,-92 602.5,-96 590.5,-96 590.5,-56 655.5,-56 655.5,-92"/>
<polyline fill="none" stroke="black" stroke-dasharray="5,2" points="590.5,-92 602.5,-92 "/>
<text text-anchor="start" x="598.8" y="-75.8" font-family="Courier,monospace" font-size="9.00"> </text>
<text text-anchor="start" x="603.7" y="-75.2" font-family="Courier,monospace" font-size="11.00">rdf_db</text>
<text text-anchor="start" x="642.8" y="-75.8" font-family="Courier,monospace" font-size="9.00"> </text>
<text text-anchor="start" x="598.8" y="-65.8" font-family="Courier,monospace" font-size="9.00"> </text>
<text text-anchor="start" x="610.9" y="-66.4" font-family="Courier,monospace" font-size="7.00">module</text>
<text text-anchor="start" x="642.8" y="-65.8" font-family="Courier,monospace" font-size="9.00"> </text>
</a>
</g>
</g>
<!-- serql&#45;&gt;rdf_db -->
<g id="edge8" class="edge">
<title>serql&#45;&gt;rdf_db</title>
<path fill="none" stroke="black" d="M668.18,-190.89C659.91,-176.61 651.59,-161.01 644.99,-146 639.05,-132.48 634.03,-116.86 630.29,-103.72"/>
<polygon fill="black" stroke="black" points="630.26,-103.61 624.82,-98.87 627.11,-92.03 630.26,-103.61"/>
<g id="a_edge8&#45;label"><a xlink:title="use_module">
<text text-anchor="middle" x="671" y="-138.8" font-family="Courier,monospace" font-size="9.00">use_module</text>
</a>
</g>
</g>
<!-- apply -->
<g id="node8" class="node">
<title>apply</title>
<g id="a_node8"><a xlink:title="module">
<polygon fill="gainsboro" stroke="black" stroke-dasharray="5,2" points="732.5,-92 685.5,-92 685.5,-96 673.5,-96 673.5,-56 732.5,-56 732.5,-92"/>
<polyline fill="none" stroke="black" stroke-dasharray="5,2" points="673.5,-92 685.5,-92 "/>
<text text-anchor="start" x="681.8" y="-75.8" font-family="Courier,monospace" font-size="9.00"> </text>
<text text-anchor="start" x="687" y="-75.2" font-family="Courier,monospace" font-size="11.00">apply</text>
<text text-anchor="start" x="719.8" y="-75.8" font-family="Courier,monospace" font-size="9.00"> </text>
<text text-anchor="start" x="681.8" y="-65.8" font-family="Courier,monospace" font-size="9.00"> </text>
<text text-anchor="start" x="690.9" y="-66.4" font-family="Courier,monospace" font-size="7.00">module</text>
<text text-anchor="start" x="719.8" y="-65.8" font-family="Courier,monospace" font-size="9.00"> </text>
</a>
</g>
</g>
<!-- serql&#45;&gt;apply -->
<g id="edge9" class="edge">
<title>serql&#45;&gt;apply</title>
<path fill="none" stroke="black" d="M703,-190.61C703,-162 703,-128.13 703,-104.48"/>
<polygon fill="black" stroke="black" points="703,-104.17 699,-98.17 703,-92.17 703,-104.17"/>
<g id="a_edge9&#45;label"><a xlink:title="use_module">
<text text-anchor="middle" x="730" y="-138.8" font-family="Courier,monospace" font-size="9.00">use_module</text>
</a>
</g>
</g>
<!-- error -->
<g id="node9" class="node">
<title>error</title>
<g id="a_node9"><a xlink:title="module">
<polygon fill="gainsboro" stroke="black" stroke-dasharray="5,2" points="809.5,-92 762.5,-92 762.5,-96 750.5,-96 750.5,-56 809.5,-56 809.5,-92"/>
<polyline fill="none" stroke="black" stroke-dasharray="5,2" points="750.5,-92 762.5,-92 "/>
<text text-anchor="start" x="758.8" y="-75.8" font-family="Courier,monospace" font-size="9.00"> </text>
<text text-anchor="start" x="764" y="-75.2" font-family="Courier,monospace" font-size="11.00">error</text>
<text text-anchor="start" x="796.8" y="-75.8" font-family="Courier,monospace" font-size="9.00"> </text>
<text text-anchor="start" x="758.8" y="-65.8" font-family="Courier,monospace" font-size="9.00"> </text>
<text text-anchor="start" x="767.9" y="-66.4" font-family="Courier,monospace" font-size="7.00">module</text>
<text text-anchor="start" x="796.8" y="-65.8" font-family="Courier,monospace" font-size="9.00"> </text>
</a>
</g>
</g>
<!-- serql&#45;&gt;error -->
<g id="edge10" class="edge">
<title>serql&#45;&gt;error</title>
<path fill="none" stroke="black" d="M735.75,-190.98C743.64,-176.64 751.62,-160.98 758,-146 763.75,-132.5 768.73,-117 772.49,-103.92"/>
<polygon fill="black" stroke="black" points="772.51,-103.84 770.26,-97 775.71,-92.28 772.51,-103.84"/>
<g id="a_edge10&#45;label"><a xlink:title="use_module">
<text text-anchor="middle" x="788" y="-138.8" font-family="Courier,monospace" font-size="9.00">use_module</text>
</a>
</g>
</g>
<!-- backward_compatibility -->
<g id="node10" class="node">
<title>backward_compatibility</title>
<g id="a_node10"><a xlink:title="module">
<polygon fill="gainsboro" stroke="black" stroke-dasharray="5,2" points="998.5,-92 839.5,-92 839.5,-96 827.5,-96 827.5,-56 998.5,-56 998.5,-92"/>
<polyline fill="none" stroke="black" stroke-dasharray="5,2" points="827.5,-92 839.5,-92 "/>
<text text-anchor="start" x="835.8" y="-75.8" font-family="Courier,monospace" font-size="9.00"> </text>
<text text-anchor="start" x="840.89" y="-75.2" font-family="Courier,monospace" font-size="11.00">backward_compatibility</text>
<text text-anchor="start" x="985.8" y="-75.8" font-family="Courier,monospace" font-size="9.00"> </text>
<text text-anchor="start" x="835.8" y="-65.8" font-family="Courier,monospace" font-size="9.00"> </text>
<text text-anchor="start" x="900.9" y="-66.4" font-family="Courier,monospace" font-size="7.00">module</text>
<text text-anchor="start" x="985.8" y="-65.8" font-family="Courier,monospace" font-size="9.00"> </text>
</a>
</g>
</g>
<!-- serql&#45;&gt;backward_compatibility -->
<g id="edge11" class="edge">
<title>serql&#45;&gt;backward_compatibility</title>
<path fill="none" stroke="black" d="M770.31,-190.85C807.87,-160.35 852.85,-123.83 882.13,-100.06"/>
<polygon fill="black" stroke="black" points="882.48,-99.78 884.62,-92.89 891.8,-92.22 882.48,-99.78"/>
<g id="a_edge11&#45;label"><a xlink:title="use_module">
<text text-anchor="middle" x="859" y="-138.8" font-family="Courier,monospace" font-size="9.00">use_module</text>
</a>
</g>
</g>
<!-- lists -->
<g id="node11" class="node">
<title>lists</title>
<g id="a_node11"><a xlink:title="module">
<polygon fill="gainsboro" stroke="black" stroke-dasharray="5,2" points="1075.5,-92 1028.5,-92 1028.5,-96 1016.5,-96 1016.5,-56 1075.5,-56 1075.5,-92"/>
<polyline fill="none" stroke="black" stroke-dasharray="5,2" points="1016.5,-92 1028.5,-92 "/>
<text text-anchor="start" x="1024.8" y="-75.8" font-family="Courier,monospace" font-size="9.00"> </text>
<text text-anchor="start" x="1030" y="-75.2" font-family="Courier,monospace" font-size="11.00">lists</text>
<text text-anchor="start" x="1062.8" y="-75.8" font-family="Courier,monospace" font-size="9.00"> </text>
<text text-anchor="start" x="1024.8" y="-65.8" font-family="Courier,monospace" font-size="9.00"> </text>
<text text-anchor="start" x="1033.9" y="-66.4" font-family="Courier,monospace" font-size="7.00">module</text>
<text text-anchor="start" x="1062.8" y="-65.8" font-family="Courier,monospace" font-size="9.00"> </text>
</a>
</g>
</g>
<!-- serql&#45;&gt;lists -->
<g id="edge12" class="edge">
<title>serql&#45;&gt;lists</title>
<path fill="none" stroke="black" d="M786.79,-222.97C851.36,-202.91 940.68,-169.08 1008,-120 1014.99,-114.9 1021.52,-108.25 1027.12,-101.64"/>
<polygon fill="black" stroke="black" points="1027.17,-101.57 1027.75,-94.38 1034.61,-92.16 1027.17,-101.57"/>
<g id="a_edge12&#45;label"><a xlink:title="use_module">
<text text-anchor="middle" x="1005" y="-138.8" font-family="Courier,monospace" font-size="9.00">use_module</text>
</a>
</g>
</g>
<!-- pure_input -->
<g id="node12" class="node">
<title>pure_input</title>
<g id="a_node12"><a xlink:title="module">
<polygon fill="gainsboro" stroke="black" stroke-dasharray="5,2" points="1186,-92 1106,-92 1106,-96 1094,-96 1094,-56 1186,-56 1186,-92"/>
<polyline fill="none" stroke="black" stroke-dasharray="5,2" points="1094,-92 1106,-92 "/>
<text text-anchor="start" x="1101.8" y="-75.8" font-family="Courier,monospace" font-size="9.00"> </text>
<text text-anchor="start" x="1106.99" y="-75.2" font-family="Courier,monospace" font-size="11.00">pure_input</text>
<text text-anchor="start" x="1172.8" y="-75.8" font-family="Courier,monospace" font-size="9.00"> </text>
<text text-anchor="start" x="1101.8" y="-65.8" font-family="Courier,monospace" font-size="9.00"> </text>
<text text-anchor="start" x="1127.4" y="-66.4" font-family="Courier,monospace" font-size="7.00">module</text>
<text text-anchor="start" x="1172.8" y="-65.8" font-family="Courier,monospace" font-size="9.00"> </text>
</a>
</g>
</g>
<!-- serql&#45;&gt;pure_input -->
<g id="edge13" class="edge">
<title>serql&#45;&gt;pure_input</title>
<path fill="none" stroke="black" d="M786.68,-225.4C854.99,-207.84 953.37,-179.88 1036,-146 1058.81,-136.65 1064.47,-133.65 1085,-120 1094.08,-113.96 1103.45,-106.73 1111.83,-99.84"/>
<polygon fill="black" stroke="black" points="1111.94,-99.74 1113.96,-92.82 1121.12,-92.01 1111.94,-99.74"/>
<g id="a_edge13&#45;label"><a xlink:title="use_module">
<text text-anchor="middle" x="1083" y="-138.8" font-family="Courier,monospace" font-size="9.00">use_module</text>
</a>
</g>
</g>
<!-- prolog -->
<g id="node13" class="node">
<title>prolog</title>
<ellipse fill="white" stroke="black" cx="1233" cy="-74" rx="27.41" ry="18"/>
<text text-anchor="middle" x="1233" y="-71.3" font-family="Courier,monospace" font-size="9.00">prolog</text>
</g>
<!-- serql&#45;&gt;prolog -->
<g id="edge1" class="edge">
<title>serql&#45;&gt;prolog</title>
<path fill="none" stroke="black" d="M786.79,-226.66C870.09,-207.6 1001.36,-176.64 1114,-146 1152.53,-135.52 1167.4,-143.07 1200,-120 1207.5,-114.69 1213.98,-107.14 1219.15,-99.73"/>
<polygon fill="black" stroke="black" points="1227.56,-93.14 1219.2,-99.65 1221.68,-89.35 1227.56,-93.14"/>
<g id="a_edge1&#45;label"><a xlink:title="provides">
<text text-anchor="middle" x="1183.6" y="-138.8" font-family="Courier,monospace" font-size="9.00">provides</text>
</a>
</g>
</g>
<!-- where -->
<g id="node14" class="node">
<title>where</title>
<ellipse fill="white" stroke="black" cx="1305" cy="-74" rx="27" ry="18"/>
<text text-anchor="middle" x="1305" y="-71.3" font-family="Courier,monospace" font-size="9.00">where</text>
</g>
<!-- serql&#45;&gt;where -->
<g id="edge2" class="edge">
<title>serql&#45;&gt;where</title>
<path fill="none" stroke="black" d="M786.74,-234.66C888.22,-220.25 1063.67,-191.2 1209,-146 1236.75,-137.37 1245.91,-137.65 1269,-120 1276.54,-114.24 1283.44,-106.56 1289.13,-99.19"/>
<polygon fill="black" stroke="black" points="1298.06,-92.86 1289.35,-98.89 1292.4,-88.74 1298.06,-92.86"/>
<g id="a_edge2&#45;label"><a xlink:title="provides">
<text text-anchor="middle" x="1259.6" y="-138.8" font-family="Courier,monospace" font-size="9.00">provides</text>
</a>
</g>
</g>
</g>
</svg>
