<?xml version="1.0" encoding="UTF-8" standalone="no"?>
<!DOCTYPE svg PUBLIC "-//W3C//DTD SVG 1.1//EN"
 "http://www.w3.org/Graphics/SVG/1.1/DTD/svg11.dtd">
<!-- Generated by graphviz version 2.41.20190410.0829 (20190410.0829)
 -->
<!-- Title: serql_xml_result.pl Pages: 1 -->
<svg width="506pt" height="463pt"
 viewBox="72.00 72.00 434.00 391.00" xmlns="http://www.w3.org/2000/svg" xmlns:xlink="http://www.w3.org/1999/xlink">
<g id="graph0" class="graph" transform="scale(1 1) rotate(0) translate(76 387)">
<title>serql_xml_result.pl</title>
<polygon fill="white" stroke="transparent" points="-4,4 -4,-315 358,-315 358,4 -4,4"/>
<text text-anchor="start" x="8" y="-16" font-family="Courier,monospace" font-size="10.00" fill="#8b8989">ClioPatria &#45; an RDF application platform</text>
<text text-anchor="start" x="8" y="-6" font-family="Courier,monospace" font-size="10.00" fill="#8b8989">Generated on 2019/04/17, 13:04</text>
<g id="clust1" class="cluster">
<title>cluster_file_/Users/pmoura/ClioPatria/rdfql/serql_xml_result.pl</title>
<g id="a_clust1"><a xlink:href="https://github.com/ClioPatria/ClioPatria/tree/add57aa2039eed4033cf96e96c293b2052e88f41/rdfql/serql_xml_result.pl" xlink:title="https://github.com/ClioPatria/ClioPatria/tree/add57aa2039eed4033cf96e96c293b2052e88f41/rdfql/serql_xml_result.pl">
<path fill="snow" stroke="#8b8989" d="M20,-36C20,-36 334,-36 334,-36 340,-36 346,-42 346,-48 346,-48 346,-291 346,-291 346,-297 340,-303 334,-303 334,-303 20,-303 20,-303 14,-303 8,-297 8,-291 8,-291 8,-48 8,-48 8,-42 14,-36 20,-36"/>
<text text-anchor="middle" x="73.01" y="-291" font-family="Courier,monospace" font-size="10.00" fill="#8b8989">serql_xml_result.pl</text>
</a>
</g>
</g>
<g id="clust2" class="cluster">
<title>cluster_other</title>
<g id="a_clust2"><a xlink:title="(external entities)">
<path fill="white" stroke="#8b8989" d="M30,-46C30,-46 324,-46 324,-46 330,-46 336,-52 336,-58 336,-58 336,-108 336,-108 336,-114 330,-120 324,-120 324,-120 30,-120 30,-120 24,-120 18,-114 18,-108 18,-108 18,-58 18,-58 18,-52 24,-46 30,-46"/>
<text text-anchor="middle" x="83.01" y="-108" font-family="Courier,monospace" font-size="10.00" fill="#8b8989">(external entities)</text>
</a>
</g>
</g>
<!-- xml_result -->
<g id="node1" class="node">
<title>xml_result</title>
<g id="a_node1"><a xlink:title="module">
<polygon fill="gainsboro" stroke="black" points="246.5,-275 97.5,-275 97.5,-279 85.5,-279 85.5,-191 246.5,-191 246.5,-275"/>
<polyline fill="none" stroke="black" points="85.5,-275 97.5,-275 "/>
<g id="a_node1_0"><a xlink:href="xml_result_module_xref_diagram.svg" xlink:title="Zoom">
<image xlink:href="zoom.png" width="11px" height="11px" preserveAspectRatio="xMinYMin meet" x="94" y="-271"/>
</a>
</g>
<text text-anchor="start" x="96.8" y="-251.8" font-family="Courier,monospace" font-size="9.00"> </text>
<text text-anchor="start" x="136.49" y="-251.2" font-family="Courier,monospace" font-size="11.00">xml_result</text>
<text text-anchor="start" x="233.8" y="-251.8" font-family="Courier,monospace" font-size="9.00"> </text>
<text text-anchor="start" x="96.8" y="-241.8" font-family="Courier,monospace" font-size="9.00"> </text>
<text text-anchor="start" x="156.9" y="-242.4" font-family="Courier,monospace" font-size="7.00">module</text>
<text text-anchor="start" x="233.8" y="-241.8" font-family="Courier,monospace" font-size="9.00"> </text>
<text text-anchor="start" x="96.8" y="-232.8" font-family="Courier,monospace" font-size="9.00"> </text>
<text text-anchor="start" x="96.8" y="-223.8" font-family="Courier,monospace" font-size="9.00"> </text>
<text text-anchor="start" x="112.79" y="-223.8" font-family="Courier,monospace" font-size="9.00">xml_to_result_table/3</text>
<text text-anchor="start" x="233.8" y="-223.8" font-family="Courier,monospace" font-size="9.00"> </text>
<text text-anchor="start" x="96.8" y="-214.8" font-family="Courier,monospace" font-size="9.00"> </text>
<text text-anchor="start" x="104.69" y="-214.8" font-family="Courier,monospace" font-size="9.00">xml_write_result_table/3</text>
<text text-anchor="start" x="233.8" y="-214.8" font-family="Courier,monospace" font-size="9.00"> </text>
<text text-anchor="start" x="96.8" y="-205.8" font-family="Courier,monospace" font-size="9.00"> </text>
<text text-anchor="start" x="107.39" y="-205.8" font-family="Courier,monospace" font-size="9.00">xml_read_result_table/3</text>
<text text-anchor="start" x="233.8" y="-205.8" font-family="Courier,monospace" font-size="9.00"> </text>
<text text-anchor="start" x="96.8" y="-196.8" font-family="Courier,monospace" font-size="9.00"> </text>
<text text-anchor="start" x="115.49" y="-196.8" font-family="Courier,monospace" font-size="9.00">rdf_io:write_table/4</text>
<text text-anchor="start" x="233.8" y="-196.8" font-family="Courier,monospace" font-size="9.00"> </text>
</a>
</g>
</g>
<!-- rdf_io -->
<g id="node2" class="node">
<title>rdf_io</title>
<g id="a_node2"><a xlink:title="module">
<polygon fill="gainsboro" stroke="black" stroke-dasharray="5,2" points="93.5,-92 40.5,-92 40.5,-96 28.5,-96 28.5,-56 93.5,-56 93.5,-92"/>
<polyline fill="none" stroke="black" stroke-dasharray="5,2" points="28.5,-92 40.5,-92 "/>
<text text-anchor="start" x="36.8" y="-75.8" font-family="Courier,monospace" font-size="9.00"> </text>
<text text-anchor="start" x="41.7" y="-75.2" font-family="Courier,monospace" font-size="11.00">rdf_io</text>
<text text-anchor="start" x="80.8" y="-75.8" font-family="Courier,monospace" font-size="9.00"> </text>
<text text-anchor="start" x="36.8" y="-65.8" font-family="Courier,monospace" font-size="9.00"> </text>
<text text-anchor="start" x="48.9" y="-66.4" font-family="Courier,monospace" font-size="7.00">module</text>
<text text-anchor="start" x="80.8" y="-65.8" font-family="Courier,monospace" font-size="9.00"> </text>
</a>
</g>
</g>
<!-- xml_result&#45;&gt;rdf_io -->
<g id="edge1" class="edge">
<title>xml_result&#45;&gt;rdf_io</title>
<path fill="none" stroke="black" d="M115.8,-190.77C102.47,-177.66 89.19,-162.3 79.79,-146 72.03,-132.53 67.4,-115.79 64.68,-101.94"/>
<polygon fill="black" stroke="black" points="66.4,-91.42 64.67,-101.87 59.5,-92.62 66.4,-91.42"/>
<g id="a_edge1&#45;label"><a xlink:title="provides">
<text text-anchor="middle" x="101.6" y="-138.8" font-family="Courier,monospace" font-size="9.00">provides</text>
</a>
</g>
</g>
<!-- assoc -->
<g id="node3" class="node">
<title>assoc</title>
<g id="a_node3"><a xlink:title="module">
<polygon fill="gainsboro" stroke="black" stroke-dasharray="5,2" points="170.5,-92 123.5,-92 123.5,-96 111.5,-96 111.5,-56 170.5,-56 170.5,-92"/>
<polyline fill="none" stroke="black" stroke-dasharray="5,2" points="111.5,-92 123.5,-92 "/>
<text text-anchor="start" x="119.8" y="-75.8" font-family="Courier,monospace" font-size="9.00"> </text>
<text text-anchor="start" x="125" y="-75.2" font-family="Courier,monospace" font-size="11.00">assoc</text>
<text text-anchor="start" x="157.8" y="-75.8" font-family="Courier,monospace" font-size="9.00"> </text>
<text text-anchor="start" x="119.8" y="-65.8" font-family="Courier,monospace" font-size="9.00"> </text>
<text text-anchor="start" x="128.9" y="-66.4" font-family="Courier,monospace" font-size="7.00">module</text>
<text text-anchor="start" x="157.8" y="-65.8" font-family="Courier,monospace" font-size="9.00"> </text>
</a>
</g>
</g>
<!-- xml_result&#45;&gt;assoc -->
<g id="edge2" class="edge">
<title>xml_result&#45;&gt;assoc</title>
<path fill="none" stroke="black" d="M144.2,-190.69C138.01,-176.87 132.11,-161.12 128.99,-146 126.17,-132.32 128.1,-117.05 131.17,-104.19"/>
<polygon fill="black" stroke="black" points="131.27,-103.84 129.03,-96.99 134.49,-92.28 131.27,-103.84"/>
<g id="a_edge2&#45;label"><a xlink:title="use_module">
<text text-anchor="middle" x="155" y="-138.8" font-family="Courier,monospace" font-size="9.00">use_module</text>
</a>
</g>
</g>
<!-- rdf_db -->
<g id="node4" class="node">
<title>rdf_db</title>
<g id="a_node4"><a xlink:title="module">
<polygon fill="gainsboro" stroke="black" stroke-dasharray="5,2" points="253.5,-92 200.5,-92 200.5,-96 188.5,-96 188.5,-56 253.5,-56 253.5,-92"/>
<polyline fill="none" stroke="black" stroke-dasharray="5,2" points="188.5,-92 200.5,-92 "/>
<text text-anchor="start" x="196.8" y="-75.8" font-family="Courier,monospace" font-size="9.00"> </text>
<text text-anchor="start" x="201.7" y="-75.2" font-family="Courier,monospace" font-size="11.00">rdf_db</text>
<text text-anchor="start" x="240.8" y="-75.8" font-family="Courier,monospace" font-size="9.00"> </text>
<text text-anchor="start" x="196.8" y="-65.8" font-family="Courier,monospace" font-size="9.00"> </text>
<text text-anchor="start" x="208.9" y="-66.4" font-family="Courier,monospace" font-size="7.00">module</text>
<text text-anchor="start" x="240.8" y="-65.8" font-family="Courier,monospace" font-size="9.00"> </text>
</a>
</g>
</g>
<!-- xml_result&#45;&gt;rdf_db -->
<g id="edge3" class="edge">
<title>xml_result&#45;&gt;rdf_db</title>
<path fill="none" stroke="black" d="M180.45,-190.75C190.05,-163.36 202.4,-128.1 210.94,-103.73"/>
<polygon fill="black" stroke="black" points="211.05,-103.4 209.26,-96.42 215.02,-92.08 211.05,-103.4"/>
<g id="a_edge3&#45;label"><a xlink:title="use_module">
<text text-anchor="middle" x="225" y="-138.8" font-family="Courier,monospace" font-size="9.00">use_module</text>
</a>
</g>
</g>
<!-- sgml -->
<g id="node5" class="node">
<title>sgml</title>
<g id="a_node5"><a xlink:title="module">
<polygon fill="gainsboro" stroke="black" stroke-dasharray="5,2" points="326,-92 284,-92 284,-96 272,-96 272,-56 326,-56 326,-92"/>
<polyline fill="none" stroke="black" stroke-dasharray="5,2" points="272,-92 284,-92 "/>
<text text-anchor="start" x="280.8" y="-75.8" font-family="Courier,monospace" font-size="9.00"> </text>
<text text-anchor="start" x="285.8" y="-75.2" font-family="Courier,monospace" font-size="11.00">sgml</text>
<text text-anchor="start" x="311.8" y="-75.8" font-family="Courier,monospace" font-size="9.00"> </text>
<text text-anchor="start" x="280.8" y="-65.8" font-family="Courier,monospace" font-size="9.00"> </text>
<text text-anchor="start" x="286.4" y="-66.4" font-family="Courier,monospace" font-size="7.00">module</text>
<text text-anchor="start" x="311.8" y="-65.8" font-family="Courier,monospace" font-size="9.00"> </text>
</a>
</g>
</g>
<!-- xml_result&#45;&gt;sgml -->
<g id="edge4" class="edge">
<title>xml_result&#45;&gt;sgml</title>
<path fill="none" stroke="black" d="M213.7,-190.87C228.1,-177.31 243.42,-161.67 256,-146 266.71,-132.65 276.74,-116.41 284.41,-102.83"/>
<polygon fill="black" stroke="black" points="284.49,-102.69 283.87,-95.51 290.26,-92.17 284.49,-102.69"/>
<g id="a_edge4&#45;label"><a xlink:title="use_module">
<text text-anchor="middle" x="289" y="-138.8" font-family="Courier,monospace" font-size="9.00">use_module</text>
</a>
</g>
</g>
</g>
</svg>
