<?xml version="1.0" encoding="UTF-8" standalone="no"?>
<!DOCTYPE svg PUBLIC "-//W3C//DTD SVG 1.1//EN"
 "http://www.w3.org/Graphics/SVG/1.1/DTD/svg11.dtd">
<!-- Generated by graphviz version 2.41.20190410.0829 (20190410.0829)
 -->
<!-- Title: serql_runtime.pl Pages: 1 -->
<svg width="500pt" height="454pt"
 viewBox="72.00 72.00 428.00 382.00" xmlns="http://www.w3.org/2000/svg" xmlns:xlink="http://www.w3.org/1999/xlink">
<g id="graph0" class="graph" transform="scale(1 1) rotate(0) translate(76 378)">
<title>serql_runtime.pl</title>
<polygon fill="white" stroke="transparent" points="-4,4 -4,-306 352,-306 352,4 -4,4"/>
<text text-anchor="start" x="8" y="-16" font-family="Courier,monospace" font-size="10.00" fill="#8b8989">ClioPatria &#45; an RDF application platform</text>
<text text-anchor="start" x="8" y="-6" font-family="Courier,monospace" font-size="10.00" fill="#8b8989">Generated on 2019/04/17, 13:04</text>
<g id="clust1" class="cluster">
<title>cluster_file_/Users/pmoura/ClioPatria/rdfql/serql_runtime.pl</title>
<g id="a_clust1"><a xlink:href="https://github.com/ClioPatria/ClioPatria/tree/add57aa2039eed4033cf96e96c293b2052e88f41/rdfql/serql_runtime.pl" xlink:title="https://github.com/ClioPatria/ClioPatria/tree/add57aa2039eed4033cf96e96c293b2052e88f41/rdfql/serql_runtime.pl">
<path fill="snow" stroke="#8b8989" d="M20,-36C20,-36 328,-36 328,-36 334,-36 340,-42 340,-48 340,-48 340,-282 340,-282 340,-288 334,-294 328,-294 328,-294 20,-294 20,-294 14,-294 8,-288 8,-282 8,-282 8,-48 8,-48 8,-42 14,-36 20,-36"/>
<text text-anchor="middle" x="64.01" y="-282" font-family="Courier,monospace" font-size="10.00" fill="#8b8989">serql_runtime.pl</text>
</a>
</g>
</g>
<g id="clust2" class="cluster">
<title>cluster_other</title>
<g id="a_clust2"><a xlink:title="(external entities)">
<path fill="white" stroke="#8b8989" d="M30,-46C30,-46 318,-46 318,-46 324,-46 330,-52 330,-58 330,-58 330,-108 330,-108 330,-114 324,-120 318,-120 318,-120 30,-120 30,-120 24,-120 18,-114 18,-108 18,-108 18,-58 18,-58 18,-52 24,-46 30,-46"/>
<text text-anchor="middle" x="83.01" y="-108" font-family="Courier,monospace" font-size="10.00" fill="#8b8989">(external entities)</text>
</a>
</g>
</g>
<!-- serql_runtime -->
<g id="node1" class="node">
<title>serql_runtime</title>
<g id="a_node1"><a xlink:title="module">
<polygon fill="gainsboro" stroke="black" points="234.5,-266 85.5,-266 85.5,-270 73.5,-270 73.5,-191 234.5,-191 234.5,-266"/>
<polyline fill="none" stroke="black" points="73.5,-266 85.5,-266 "/>
<g id="a_node1_0"><a xlink:href="serql_runtime_module_xref_diagram.svg" xlink:title="Zoom">
<image xlink:href="zoom.png" width="11px" height="11px" preserveAspectRatio="xMinYMin meet" x="82" y="-261.5"/>
</a>
</g>
<text text-anchor="start" x="84.8" y="-242.3" font-family="Courier,monospace" font-size="9.00"> </text>
<text text-anchor="start" x="114.59" y="-241.7" font-family="Courier,monospace" font-size="11.00">serql_runtime</text>
<text text-anchor="start" x="221.8" y="-242.3" font-family="Courier,monospace" font-size="9.00"> </text>
<text text-anchor="start" x="84.8" y="-232.3" font-family="Courier,monospace" font-size="9.00"> </text>
<text text-anchor="start" x="144.9" y="-232.9" font-family="Courier,monospace" font-size="7.00">module</text>
<text text-anchor="start" x="221.8" y="-232.3" font-family="Courier,monospace" font-size="9.00"> </text>
<text text-anchor="start" x="84.8" y="-223.3" font-family="Courier,monospace" font-size="9.00"> </text>
<text text-anchor="start" x="84.8" y="-214.3" font-family="Courier,monospace" font-size="9.00"> </text>
<text text-anchor="start" x="116.99" y="-214.3" font-family="Courier,monospace" font-size="9.00">serql_compare/3</text>
<text text-anchor="start" x="221.8" y="-214.3" font-family="Courier,monospace" font-size="9.00"> </text>
<text text-anchor="start" x="84.8" y="-205.3" font-family="Courier,monospace" font-size="9.00"> </text>
<text text-anchor="start" x="125.09" y="-205.3" font-family="Courier,monospace" font-size="9.00">serql_eval/2</text>
<text text-anchor="start" x="221.8" y="-205.3" font-family="Courier,monospace" font-size="9.00"> </text>
<text text-anchor="start" x="84.8" y="-196.3" font-family="Courier,monospace" font-size="9.00"> </text>
<text text-anchor="start" x="92.69" y="-196.3" font-family="Courier,monospace" font-size="9.00">serql_member_statement/2</text>
<text text-anchor="start" x="221.8" y="-196.3" font-family="Courier,monospace" font-size="9.00"> </text>
</a>
</g>
</g>
<!-- rdf_db -->
<g id="node2" class="node">
<title>rdf_db</title>
<g id="a_node2"><a xlink:title="module">
<polygon fill="gainsboro" stroke="black" stroke-dasharray="5,2" points="93.5,-92 40.5,-92 40.5,-96 28.5,-96 28.5,-56 93.5,-56 93.5,-92"/>
<polyline fill="none" stroke="black" stroke-dasharray="5,2" points="28.5,-92 40.5,-92 "/>
<text text-anchor="start" x="36.8" y="-75.8" font-family="Courier,monospace" font-size="9.00"> </text>
<text text-anchor="start" x="41.7" y="-75.2" font-family="Courier,monospace" font-size="11.00">rdf_db</text>
<text text-anchor="start" x="80.8" y="-75.8" font-family="Courier,monospace" font-size="9.00"> </text>
<text text-anchor="start" x="36.8" y="-65.8" font-family="Courier,monospace" font-size="9.00"> </text>
<text text-anchor="start" x="48.9" y="-66.4" font-family="Courier,monospace" font-size="7.00">module</text>
<text text-anchor="start" x="80.8" y="-65.8" font-family="Courier,monospace" font-size="9.00"> </text>
</a>
</g>
</g>
<!-- serql_runtime&#45;&gt;rdf_db -->
<g id="edge1" class="edge">
<title>serql_runtime&#45;&gt;rdf_db</title>
<path fill="none" stroke="black" d="M125.84,-190.61C115.91,-176.92 104.98,-161.06 95.99,-146 87.85,-132.36 79.92,-116.56 73.68,-103.33"/>
<polygon fill="black" stroke="black" points="73.5,-102.94 67.35,-99.17 68.46,-92.04 73.5,-102.94"/>
<g id="a_edge1&#45;label"><a xlink:title="use_module">
<text text-anchor="middle" x="123" y="-138.8" font-family="Courier,monospace" font-size="9.00">use_module</text>
</a>
</g>
</g>
<!-- xsdp_type -->
<g id="node3" class="node">
<title>xsdp_type</title>
<g id="a_node3"><a xlink:title="module">
<polygon fill="gainsboro" stroke="black" stroke-dasharray="5,2" points="196.5,-92 123.5,-92 123.5,-96 111.5,-96 111.5,-56 196.5,-56 196.5,-92"/>
<polyline fill="none" stroke="black" stroke-dasharray="5,2" points="111.5,-92 123.5,-92 "/>
<text text-anchor="start" x="119.8" y="-75.8" font-family="Courier,monospace" font-size="9.00"> </text>
<text text-anchor="start" x="124.8" y="-75.2" font-family="Courier,monospace" font-size="11.00">xsdp_type</text>
<text text-anchor="start" x="183.8" y="-75.8" font-family="Courier,monospace" font-size="9.00"> </text>
<text text-anchor="start" x="119.8" y="-65.8" font-family="Courier,monospace" font-size="9.00"> </text>
<text text-anchor="start" x="141.9" y="-66.4" font-family="Courier,monospace" font-size="7.00">module</text>
<text text-anchor="start" x="183.8" y="-65.8" font-family="Courier,monospace" font-size="9.00"> </text>
</a>
</g>
</g>
<!-- serql_runtime&#45;&gt;xsdp_type -->
<g id="edge2" class="edge">
<title>serql_runtime&#45;&gt;xsdp_type</title>
<path fill="none" stroke="black" d="M154,-190.97C154,-164.38 154,-128.85 154,-104.15"/>
<polygon fill="black" stroke="black" points="154,-104 150,-98 154,-92 154,-104"/>
<g id="a_edge2&#45;label"><a xlink:title="use_module">
<text text-anchor="middle" x="181" y="-138.8" font-family="Courier,monospace" font-size="9.00">use_module</text>
</a>
</g>
</g>
<!-- prolog_debug -->
<g id="node4" class="node">
<title>prolog_debug</title>
<g id="a_node4"><a xlink:title="module">
<polygon fill="gainsboro" stroke="black" stroke-dasharray="5,2" points="319.5,-92 226.5,-92 226.5,-96 214.5,-96 214.5,-56 319.5,-56 319.5,-92"/>
<polyline fill="none" stroke="black" stroke-dasharray="5,2" points="214.5,-92 226.5,-92 "/>
<text text-anchor="start" x="222.8" y="-75.8" font-family="Courier,monospace" font-size="9.00"> </text>
<text text-anchor="start" x="227.89" y="-75.2" font-family="Courier,monospace" font-size="11.00">prolog_debug</text>
<text text-anchor="start" x="306.8" y="-75.8" font-family="Courier,monospace" font-size="9.00"> </text>
<text text-anchor="start" x="222.8" y="-65.8" font-family="Courier,monospace" font-size="9.00"> </text>
<text text-anchor="start" x="254.9" y="-66.4" font-family="Courier,monospace" font-size="7.00">module</text>
<text text-anchor="start" x="306.8" y="-65.8" font-family="Courier,monospace" font-size="9.00"> </text>
</a>
</g>
</g>
<!-- serql_runtime&#45;&gt;prolog_debug -->
<g id="edge3" class="edge">
<title>serql_runtime&#45;&gt;prolog_debug</title>
<path fill="none" stroke="black" d="M181.07,-190.97C201.41,-163.52 228.8,-126.55 247.14,-101.8"/>
<polygon fill="black" stroke="black" points="247.26,-101.64 247.62,-94.44 254.4,-92 247.26,-101.64"/>
<g id="a_edge3&#45;label"><a xlink:title="use_module">
<text text-anchor="middle" x="247" y="-138.8" font-family="Courier,monospace" font-size="9.00">use_module</text>
</a>
</g>
</g>
</g>
</svg>
