<?xml version="1.0" encoding="UTF-8" standalone="no"?>
<!DOCTYPE svg PUBLIC "-//W3C//DTD SVG 1.1//EN"
 "http://www.w3.org/Graphics/SVG/1.1/DTD/svg11.dtd">
<!-- Generated by graphviz version 2.41.20190410.0829 (20190410.0829)
 -->
<!-- Title: server_statistics.pl Pages: 1 -->
<svg width="1393pt" height="463pt"
 viewBox="72.00 72.00 1321.00 391.00" xmlns="http://www.w3.org/2000/svg" xmlns:xlink="http://www.w3.org/1999/xlink">
<g id="graph0" class="graph" transform="scale(1 1) rotate(0) translate(76 387)">
<title>server_statistics.pl</title>
<polygon fill="white" stroke="transparent" points="-4,4 -4,-315 1245,-315 1245,4 -4,4"/>
<text text-anchor="start" x="8" y="-16" font-family="Courier,monospace" font-size="10.00" fill="#8b8989">ClioPatria &#45; an RDF application platform</text>
<text text-anchor="start" x="8" y="-6" font-family="Courier,monospace" font-size="10.00" fill="#8b8989">Generated on 2019/04/17, 13:04</text>
<g id="clust1" class="cluster">
<title>cluster_file_/Users/pmoura/ClioPatria/components/server_statistics.pl</title>
<g id="a_clust1"><a xlink:href="https://github.com/ClioPatria/ClioPatria/tree/add57aa2039eed4033cf96e96c293b2052e88f41/components/server_statistics.pl" xlink:title="https://github.com/ClioPatria/ClioPatria/tree/add57aa2039eed4033cf96e96c293b2052e88f41/components/server_statistics.pl">
<path fill="snow" stroke="#8b8989" d="M20,-36C20,-36 1221,-36 1221,-36 1227,-36 1233,-42 1233,-48 1233,-48 1233,-291 1233,-291 1233,-297 1227,-303 1221,-303 1221,-303 20,-303 20,-303 14,-303 8,-297 8,-291 8,-291 8,-48 8,-48 8,-42 14,-36 20,-36"/>
<text text-anchor="middle" x="76.01" y="-291" font-family="Courier,monospace" font-size="10.00" fill="#8b8989">server_statistics.pl</text>
</a>
</g>
</g>
<g id="clust2" class="cluster">
<title>cluster_other</title>
<g id="a_clust2"><a xlink:title="(external entities)">
<path fill="white" stroke="#8b8989" d="M30,-46C30,-46 1211,-46 1211,-46 1217,-46 1223,-52 1223,-58 1223,-58 1223,-108 1223,-108 1223,-114 1217,-120 1211,-120 1211,-120 30,-120 30,-120 24,-120 18,-114 18,-108 18,-108 18,-58 18,-58 18,-52 24,-46 30,-46"/>
<text text-anchor="middle" x="83.01" y="-108" font-family="Courier,monospace" font-size="10.00" fill="#8b8989">(external entities)</text>
</a>
</g>
</g>
<!-- server_statistics -->
<g id="node1" class="node">
<title>server_statistics</title>
<g id="a_node1"><a xlink:title="module">
<polygon fill="gainsboro" stroke="black" points="693.5,-275 528.5,-275 528.5,-279 516.5,-279 516.5,-191 693.5,-191 693.5,-275"/>
<polyline fill="none" stroke="black" points="516.5,-275 528.5,-275 "/>
<g id="a_node1_0"><a xlink:href="server_statistics_module_xref_diagram.svg" xlink:title="Zoom">
<image xlink:href="zoom.png" width="11px" height="11px" preserveAspectRatio="xMinYMin meet" x="525" y="-271"/>
</a>
</g>
<text text-anchor="start" x="527.8" y="-251.8" font-family="Courier,monospace" font-size="9.00"> </text>
<text text-anchor="start" x="552.39" y="-251.2" font-family="Courier,monospace" font-size="11.00">server_statistics</text>
<text text-anchor="start" x="680.8" y="-251.8" font-family="Courier,monospace" font-size="9.00"> </text>
<text text-anchor="start" x="527.8" y="-241.8" font-family="Courier,monospace" font-size="9.00"> </text>
<text text-anchor="start" x="595.9" y="-242.4" font-family="Courier,monospace" font-size="7.00">module</text>
<text text-anchor="start" x="680.8" y="-241.8" font-family="Courier,monospace" font-size="9.00"> </text>
<text text-anchor="start" x="527.8" y="-232.8" font-family="Courier,monospace" font-size="9.00"> </text>
<text text-anchor="start" x="527.8" y="-223.8" font-family="Courier,monospace" font-size="9.00"> </text>
<text text-anchor="start" x="554.49" y="-223.8" font-family="Courier,monospace" font-size="9.00">http_session_table/2</text>
<text text-anchor="start" x="680.8" y="-223.8" font-family="Courier,monospace" font-size="9.00"> </text>
<text text-anchor="start" x="527.8" y="-214.8" font-family="Courier,monospace" font-size="9.00"> </text>
<text text-anchor="start" x="535.59" y="-214.8" font-family="Courier,monospace" font-size="9.00">rdf_call_statistics_table/2</text>
<text text-anchor="start" x="680.8" y="-214.8" font-family="Courier,monospace" font-size="9.00"> </text>
<text text-anchor="start" x="527.8" y="-205.8" font-family="Courier,monospace" font-size="9.00"> </text>
<text text-anchor="start" x="543.69" y="-205.8" font-family="Courier,monospace" font-size="9.00">http_server_pool_table/2</text>
<text text-anchor="start" x="680.8" y="-205.8" font-family="Courier,monospace" font-size="9.00"> </text>
<text text-anchor="start" x="527.8" y="-196.8" font-family="Courier,monospace" font-size="9.00"> </text>
<text text-anchor="start" x="543.69" y="-196.8" font-family="Courier,monospace" font-size="9.00">http_server_statistics/2</text>
<text text-anchor="start" x="680.8" y="-196.8" font-family="Courier,monospace" font-size="9.00"> </text>
</a>
</g>
</g>
<!-- html_write -->
<g id="node2" class="node">
<title>html_write</title>
<g id="a_node2"><a xlink:title="module">
<polygon fill="gainsboro" stroke="black" stroke-dasharray="5,2" points="120,-92 40,-92 40,-96 28,-96 28,-56 120,-56 120,-92"/>
<polyline fill="none" stroke="black" stroke-dasharray="5,2" points="28,-92 40,-92 "/>
<text text-anchor="start" x="35.8" y="-75.8" font-family="Courier,monospace" font-size="9.00"> </text>
<text text-anchor="start" x="40.99" y="-75.2" font-family="Courier,monospace" font-size="11.00">html_write</text>
<text text-anchor="start" x="106.8" y="-75.8" font-family="Courier,monospace" font-size="9.00"> </text>
<text text-anchor="start" x="35.8" y="-65.8" font-family="Courier,monospace" font-size="9.00"> </text>
<text text-anchor="start" x="61.4" y="-66.4" font-family="Courier,monospace" font-size="7.00">module</text>
<text text-anchor="start" x="106.8" y="-65.8" font-family="Courier,monospace" font-size="9.00"> </text>
</a>
</g>
</g>
<!-- server_statistics&#45;&gt;html_write -->
<g id="edge1" class="edge">
<title>server_statistics&#45;&gt;html_write</title>
<path fill="none" stroke="black" d="M516.19,-218.37C431.93,-204.29 302.29,-179.64 192.99,-146 164.04,-137.09 156.07,-135.42 130,-120 120.25,-114.23 110.37,-106.89 101.68,-99.82"/>
<polygon fill="black" stroke="black" points="101.63,-99.78 94.46,-98.98 92.44,-92.06 101.63,-99.78"/>
<g id="a_edge1&#45;label"><a xlink:title="use_module">
<text text-anchor="middle" x="219" y="-138.8" font-family="Courier,monospace" font-size="9.00">use_module</text>
</a>
</g>
</g>
<!-- rdf_db -->
<g id="node3" class="node">
<title>rdf_db</title>
<g id="a_node3"><a xlink:title="module">
<polygon fill="gainsboro" stroke="black" stroke-dasharray="5,2" points="203.5,-92 150.5,-92 150.5,-96 138.5,-96 138.5,-56 203.5,-56 203.5,-92"/>
<polyline fill="none" stroke="black" stroke-dasharray="5,2" points="138.5,-92 150.5,-92 "/>
<text text-anchor="start" x="146.8" y="-75.8" font-family="Courier,monospace" font-size="9.00"> </text>
<text text-anchor="start" x="151.7" y="-75.2" font-family="Courier,monospace" font-size="11.00">rdf_db</text>
<text text-anchor="start" x="190.8" y="-75.8" font-family="Courier,monospace" font-size="9.00"> </text>
<text text-anchor="start" x="146.8" y="-65.8" font-family="Courier,monospace" font-size="9.00"> </text>
<text text-anchor="start" x="158.9" y="-66.4" font-family="Courier,monospace" font-size="7.00">module</text>
<text text-anchor="start" x="190.8" y="-65.8" font-family="Courier,monospace" font-size="9.00"> </text>
</a>
</g>
</g>
<!-- server_statistics&#45;&gt;rdf_db -->
<g id="edge2" class="edge">
<title>server_statistics&#45;&gt;rdf_db</title>
<path fill="none" stroke="black" d="M516.2,-220.59C432.95,-206.8 307.49,-177.81 213,-120 204.98,-115.09 197.51,-108.24 191.16,-101.36"/>
<polygon fill="black" stroke="black" points="191.06,-101.25 184.12,-99.3 183.25,-92.15 191.06,-101.25"/>
<g id="a_edge2&#45;label"><a xlink:title="use_module">
<text text-anchor="middle" x="278" y="-138.8" font-family="Courier,monospace" font-size="9.00">use_module</text>
</a>
</g>
</g>
<!-- html_basics -->
<g id="node4" class="node">
<title>html_basics</title>
<g id="a_node4"><a xlink:title="module">
<polygon fill="gainsboro" stroke="black" stroke-dasharray="5,2" points="320,-92 234,-92 234,-96 222,-96 222,-56 320,-56 320,-92"/>
<polyline fill="none" stroke="black" stroke-dasharray="5,2" points="222,-92 234,-92 "/>
<text text-anchor="start" x="229.8" y="-75.8" font-family="Courier,monospace" font-size="9.00"> </text>
<text text-anchor="start" x="234.69" y="-75.2" font-family="Courier,monospace" font-size="11.00">html_basics</text>
<text text-anchor="start" x="306.8" y="-75.8" font-family="Courier,monospace" font-size="9.00"> </text>
<text text-anchor="start" x="229.8" y="-65.8" font-family="Courier,monospace" font-size="9.00"> </text>
<text text-anchor="start" x="258.4" y="-66.4" font-family="Courier,monospace" font-size="7.00">module</text>
<text text-anchor="start" x="306.8" y="-65.8" font-family="Courier,monospace" font-size="9.00"> </text>
</a>
</g>
</g>
<!-- server_statistics&#45;&gt;html_basics -->
<g id="edge3" class="edge">
<title>server_statistics&#45;&gt;html_basics</title>
<path fill="none" stroke="black" d="M516.47,-202.73C461.16,-182.81 389.42,-153.95 330,-120 319.73,-114.13 309.24,-106.69 300.01,-99.55"/>
<polygon fill="black" stroke="black" points="299.94,-99.49 292.75,-98.88 290.55,-92.01 299.94,-99.49"/>
<g id="a_edge3&#45;label"><a xlink:title="use_module">
<text text-anchor="middle" x="399" y="-138.8" font-family="Courier,monospace" font-size="9.00">use_module</text>
</a>
</g>
</g>
<!-- http_session -->
<g id="node5" class="node">
<title>http_session</title>
<g id="a_node5"><a xlink:title="module">
<polygon fill="gainsboro" stroke="black" stroke-dasharray="5,2" points="443.5,-92 350.5,-92 350.5,-96 338.5,-96 338.5,-56 443.5,-56 443.5,-92"/>
<polyline fill="none" stroke="black" stroke-dasharray="5,2" points="338.5,-92 350.5,-92 "/>
<text text-anchor="start" x="346.8" y="-75.8" font-family="Courier,monospace" font-size="9.00"> </text>
<text text-anchor="start" x="351.89" y="-75.2" font-family="Courier,monospace" font-size="11.00">http_session</text>
<text text-anchor="start" x="430.8" y="-75.8" font-family="Courier,monospace" font-size="9.00"> </text>
<text text-anchor="start" x="346.8" y="-65.8" font-family="Courier,monospace" font-size="9.00"> </text>
<text text-anchor="start" x="378.9" y="-66.4" font-family="Courier,monospace" font-size="7.00">module</text>
<text text-anchor="start" x="430.8" y="-65.8" font-family="Courier,monospace" font-size="9.00"> </text>
</a>
</g>
</g>
<!-- server_statistics&#45;&gt;http_session -->
<g id="edge4" class="edge">
<title>server_statistics&#45;&gt;http_session</title>
<path fill="none" stroke="black" d="M545.68,-190.96C525.64,-176.89 503.22,-160.92 482.99,-146 462.64,-130.98 440.15,-113.64 422.51,-99.86"/>
<polygon fill="black" stroke="black" points="422.18,-99.6 414.99,-99.05 412.73,-92.2 422.18,-99.6"/>
<g id="a_edge4&#45;label"><a xlink:title="use_module">
<text text-anchor="middle" x="509" y="-138.8" font-family="Courier,monospace" font-size="9.00">use_module</text>
</a>
</g>
</g>
<!-- user_db -->
<g id="node6" class="node">
<title>user_db</title>
<g id="a_node6"><a xlink:title="module">
<polygon fill="gainsboro" stroke="black" stroke-dasharray="5,2" points="534,-92 474,-92 474,-96 462,-96 462,-56 534,-56 534,-92"/>
<polyline fill="none" stroke="black" stroke-dasharray="5,2" points="462,-92 474,-92 "/>
<text text-anchor="start" x="469.8" y="-75.8" font-family="Courier,monospace" font-size="9.00"> </text>
<text text-anchor="start" x="474.9" y="-75.2" font-family="Courier,monospace" font-size="11.00">user_db</text>
<text text-anchor="start" x="520.8" y="-75.8" font-family="Courier,monospace" font-size="9.00"> </text>
<text text-anchor="start" x="469.8" y="-65.8" font-family="Courier,monospace" font-size="9.00"> </text>
<text text-anchor="start" x="485.4" y="-66.4" font-family="Courier,monospace" font-size="7.00">module</text>
<text text-anchor="start" x="520.8" y="-65.8" font-family="Courier,monospace" font-size="9.00"> </text>
</a>
</g>
</g>
<!-- server_statistics&#45;&gt;user_db -->
<g id="edge5" class="edge">
<title>server_statistics&#45;&gt;user_db</title>
<path fill="none" stroke="black" d="M576.89,-190.75C557.79,-162.73 533.08,-126.48 516.45,-102.07"/>
<polygon fill="black" stroke="black" points="516.4,-101.99 509.71,-99.29 509.64,-92.08 516.4,-101.99"/>
<g id="a_edge5&#45;label"><a xlink:title="use_module">
<text text-anchor="middle" x="572" y="-138.8" font-family="Courier,monospace" font-size="9.00">use_module</text>
</a>
</g>
</g>
<!-- thread_httpd -->
<g id="node7" class="node">
<title>thread_httpd</title>
<g id="a_node7"><a xlink:title="module">
<polygon fill="gainsboro" stroke="black" stroke-dasharray="5,2" points="657.5,-92 564.5,-92 564.5,-96 552.5,-96 552.5,-56 657.5,-56 657.5,-92"/>
<polyline fill="none" stroke="black" stroke-dasharray="5,2" points="552.5,-92 564.5,-92 "/>
<text text-anchor="start" x="560.8" y="-75.8" font-family="Courier,monospace" font-size="9.00"> </text>
<text text-anchor="start" x="565.89" y="-75.2" font-family="Courier,monospace" font-size="11.00">thread_httpd</text>
<text text-anchor="start" x="644.8" y="-75.8" font-family="Courier,monospace" font-size="9.00"> </text>
<text text-anchor="start" x="560.8" y="-65.8" font-family="Courier,monospace" font-size="9.00"> </text>
<text text-anchor="start" x="592.9" y="-66.4" font-family="Courier,monospace" font-size="7.00">module</text>
<text text-anchor="start" x="644.8" y="-65.8" font-family="Courier,monospace" font-size="9.00"> </text>
</a>
</g>
</g>
<!-- server_statistics&#45;&gt;thread_httpd -->
<g id="edge6" class="edge">
<title>server_statistics&#45;&gt;thread_httpd</title>
<path fill="none" stroke="black" d="M605,-190.75C605,-163.61 605,-128.75 605,-104.4"/>
<polygon fill="black" stroke="black" points="605,-104.08 601,-98.08 605,-92.08 605,-104.08"/>
<g id="a_edge6&#45;label"><a xlink:title="use_module">
<text text-anchor="middle" x="632" y="-138.8" font-family="Courier,monospace" font-size="9.00">use_module</text>
</a>
</g>
</g>
<!-- pairs -->
<g id="node8" class="node">
<title>pairs</title>
<g id="a_node8"><a xlink:title="module">
<polygon fill="gainsboro" stroke="black" stroke-dasharray="5,2" points="734.5,-92 687.5,-92 687.5,-96 675.5,-96 675.5,-56 734.5,-56 734.5,-92"/>
<polyline fill="none" stroke="black" stroke-dasharray="5,2" points="675.5,-92 687.5,-92 "/>
<text text-anchor="start" x="683.8" y="-75.8" font-family="Courier,monospace" font-size="9.00"> </text>
<text text-anchor="start" x="689" y="-75.2" font-family="Courier,monospace" font-size="11.00">pairs</text>
<text text-anchor="start" x="721.8" y="-75.8" font-family="Courier,monospace" font-size="9.00"> </text>
<text text-anchor="start" x="683.8" y="-65.8" font-family="Courier,monospace" font-size="9.00"> </text>
<text text-anchor="start" x="692.9" y="-66.4" font-family="Courier,monospace" font-size="7.00">module</text>
<text text-anchor="start" x="721.8" y="-65.8" font-family="Courier,monospace" font-size="9.00"> </text>
</a>
</g>
</g>
<!-- server_statistics&#45;&gt;pairs -->
<g id="edge7" class="edge">
<title>server_statistics&#45;&gt;pairs</title>
<path fill="none" stroke="black" d="M633.53,-190.77C643.08,-176.69 653.67,-160.77 663,-146 671.88,-131.96 681.34,-116.06 689.02,-102.87"/>
<polygon fill="black" stroke="black" points="689.25,-102.48 688.8,-95.29 695.27,-92.1 689.25,-102.48"/>
<g id="a_edge7&#45;label"><a xlink:title="use_module">
<text text-anchor="middle" x="694" y="-138.8" font-family="Courier,monospace" font-size="9.00">use_module</text>
</a>
</g>
</g>
<!-- prolog_dialect -->
<g id="node9" class="node">
<title>prolog_dialect</title>
<g id="a_node9"><a xlink:title="module">
<polygon fill="gainsboro" stroke="black" stroke-dasharray="5,2" points="871,-92 765,-92 765,-96 753,-96 753,-56 871,-56 871,-92"/>
<polyline fill="none" stroke="black" stroke-dasharray="5,2" points="753,-92 765,-92 "/>
<text text-anchor="start" x="760.8" y="-75.8" font-family="Courier,monospace" font-size="9.00"> </text>
<text text-anchor="start" x="765.79" y="-75.2" font-family="Courier,monospace" font-size="11.00">prolog_dialect</text>
<text text-anchor="start" x="857.8" y="-75.8" font-family="Courier,monospace" font-size="9.00"> </text>
<text text-anchor="start" x="760.8" y="-65.8" font-family="Courier,monospace" font-size="9.00"> </text>
<text text-anchor="start" x="799.4" y="-66.4" font-family="Courier,monospace" font-size="7.00">module</text>
<text text-anchor="start" x="857.8" y="-65.8" font-family="Courier,monospace" font-size="9.00"> </text>
</a>
</g>
</g>
<!-- server_statistics&#45;&gt;prolog_dialect -->
<g id="edge8" class="edge">
<title>server_statistics&#45;&gt;prolog_dialect</title>
<path fill="none" stroke="black" d="M663.83,-190.95C683.47,-176.95 705.36,-161.03 725,-146 744.54,-131.05 765.97,-113.58 782.66,-99.71"/>
<polygon fill="black" stroke="black" points="782.68,-99.69 784.73,-92.78 791.9,-92.01 782.68,-99.69"/>
<g id="a_edge8&#45;label"><a xlink:title="use_module">
<text text-anchor="middle" x="761" y="-138.8" font-family="Courier,monospace" font-size="9.00">use_module</text>
</a>
</g>
</g>
<!-- http_stream -->
<g id="node10" class="node">
<title>http_stream</title>
<g id="a_node10"><a xlink:title="module">
<polygon fill="gainsboro" stroke="black" stroke-dasharray="5,2" points="987,-92 901,-92 901,-96 889,-96 889,-56 987,-56 987,-92"/>
<polyline fill="none" stroke="black" stroke-dasharray="5,2" points="889,-92 901,-92 "/>
<text text-anchor="start" x="896.8" y="-75.8" font-family="Courier,monospace" font-size="9.00"> </text>
<text text-anchor="start" x="901.69" y="-75.2" font-family="Courier,monospace" font-size="11.00">http_stream</text>
<text text-anchor="start" x="973.8" y="-75.8" font-family="Courier,monospace" font-size="9.00"> </text>
<text text-anchor="start" x="896.8" y="-65.8" font-family="Courier,monospace" font-size="9.00"> </text>
<text text-anchor="start" x="925.4" y="-66.4" font-family="Courier,monospace" font-size="7.00">module</text>
<text text-anchor="start" x="973.8" y="-65.8" font-family="Courier,monospace" font-size="9.00"> </text>
</a>
</g>
</g>
<!-- server_statistics&#45;&gt;http_stream -->
<g id="edge9" class="edge">
<title>server_statistics&#45;&gt;http_stream</title>
<path fill="none" stroke="black" d="M693.63,-202.9C748.98,-183.05 820.72,-154.2 880,-120 890.03,-114.22 900.24,-106.87 909.24,-99.8"/>
<polygon fill="black" stroke="black" points="909.5,-99.59 911.64,-92.71 918.82,-92.04 909.5,-99.59"/>
<g id="a_edge9&#45;label"><a xlink:title="use_module">
<text text-anchor="middle" x="871" y="-138.8" font-family="Courier,monospace" font-size="9.00">use_module</text>
</a>
</g>
</g>
<!-- thread_pool -->
<g id="node11" class="node">
<title>thread_pool</title>
<g id="a_node11"><a xlink:title="module">
<polygon fill="gainsboro" stroke="black" stroke-dasharray="5,2" points="1103,-92 1017,-92 1017,-96 1005,-96 1005,-56 1103,-56 1103,-92"/>
<polyline fill="none" stroke="black" stroke-dasharray="5,2" points="1005,-92 1017,-92 "/>
<text text-anchor="start" x="1012.8" y="-75.8" font-family="Courier,monospace" font-size="9.00"> </text>
<text text-anchor="start" x="1017.69" y="-75.2" font-family="Courier,monospace" font-size="11.00">thread_pool</text>
<text text-anchor="start" x="1089.8" y="-75.8" font-family="Courier,monospace" font-size="9.00"> </text>
<text text-anchor="start" x="1012.8" y="-65.8" font-family="Courier,monospace" font-size="9.00"> </text>
<text text-anchor="start" x="1041.4" y="-66.4" font-family="Courier,monospace" font-size="7.00">module</text>
<text text-anchor="start" x="1089.8" y="-65.8" font-family="Courier,monospace" font-size="9.00"> </text>
</a>
</g>
</g>
<!-- server_statistics&#45;&gt;thread_pool -->
<g id="edge10" class="edge">
<title>server_statistics&#45;&gt;thread_pool</title>
<path fill="none" stroke="black" d="M693.58,-216.66C775.25,-200.22 898.23,-169.59 996,-120 1006.6,-114.62 1017.18,-107.19 1026.34,-99.92"/>
<polygon fill="black" stroke="black" points="1026.42,-99.85 1028.48,-92.94 1035.66,-92.19 1026.42,-99.85"/>
<g id="a_edge10&#45;label"><a xlink:title="use_module">
<text text-anchor="middle" x="983" y="-138.8" font-family="Courier,monospace" font-size="9.00">use_module</text>
</a>
</g>
</g>
<!-- swi_option -->
<g id="node12" class="node">
<title>swi_option</title>
<g id="a_node12"><a xlink:title="module">
<polygon fill="gainsboro" stroke="black" stroke-dasharray="5,2" points="1213,-92 1133,-92 1133,-96 1121,-96 1121,-56 1213,-56 1213,-92"/>
<polyline fill="none" stroke="black" stroke-dasharray="5,2" points="1121,-92 1133,-92 "/>
<text text-anchor="start" x="1128.8" y="-75.8" font-family="Courier,monospace" font-size="9.00"> </text>
<text text-anchor="start" x="1133.99" y="-75.2" font-family="Courier,monospace" font-size="11.00">swi_option</text>
<text text-anchor="start" x="1199.8" y="-75.8" font-family="Courier,monospace" font-size="9.00"> </text>
<text text-anchor="start" x="1128.8" y="-65.8" font-family="Courier,monospace" font-size="9.00"> </text>
<text text-anchor="start" x="1154.4" y="-66.4" font-family="Courier,monospace" font-size="7.00">module</text>
<text text-anchor="start" x="1199.8" y="-65.8" font-family="Courier,monospace" font-size="9.00"> </text>
</a>
</g>
</g>
<!-- server_statistics&#45;&gt;swi_option -->
<g id="edge11" class="edge">
<title>server_statistics&#45;&gt;swi_option</title>
<path fill="none" stroke="black" d="M693.86,-214.7C776.91,-198.21 904.23,-172.08 1014,-146 1057.84,-135.58 1071.88,-140.51 1112,-120 1122.22,-114.78 1132.27,-107.41 1140.93,-100.15"/>
<polygon fill="black" stroke="black" points="1141.04,-100.04 1142.9,-93.08 1150.05,-92.11 1141.04,-100.04"/>
<g id="a_edge11&#45;label"><a xlink:title="use_module">
<text text-anchor="middle" x="1089" y="-138.8" font-family="Courier,monospace" font-size="9.00">use_module</text>
</a>
</g>
</g>
</g>
</svg>
