<?xml version="1.0" encoding="UTF-8" standalone="no"?>
<!DOCTYPE svg PUBLIC "-//W3C//DTD SVG 1.1//EN"
 "http://www.w3.org/Graphics/SVG/1.1/DTD/svg11.dtd">
<!-- Generated by graphviz version 2.41.20190410.0829 (20190410.0829)
 -->
<!-- Title: sesame.pl Pages: 1 -->
<svg width="3152pt" height="445pt"
 viewBox="72.00 72.00 3080.00 373.00" xmlns="http://www.w3.org/2000/svg" xmlns:xlink="http://www.w3.org/1999/xlink">
<g id="graph0" class="graph" transform="scale(1 1) rotate(0) translate(76 369)">
<title>sesame.pl</title>
<polygon fill="white" stroke="transparent" points="-4,4 -4,-297 3004,-297 3004,4 -4,4"/>
<text text-anchor="start" x="8" y="-16" font-family="Courier,monospace" font-size="10.00" fill="#8b8989">ClioPatria &#45; an RDF application platform</text>
<text text-anchor="start" x="8" y="-6" font-family="Courier,monospace" font-size="10.00" fill="#8b8989">Generated on 2019/04/17, 13:04</text>
<g id="clust1" class="cluster">
<title>cluster_file_/Users/pmoura/ClioPatria/api/sesame.pl</title>
<g id="a_clust1"><a xlink:href="https://github.com/ClioPatria/ClioPatria/tree/add57aa2039eed4033cf96e96c293b2052e88f41/api/sesame.pl" xlink:title="https://github.com/ClioPatria/ClioPatria/tree/add57aa2039eed4033cf96e96c293b2052e88f41/api/sesame.pl">
<path fill="snow" stroke="#8b8989" d="M20,-36C20,-36 2980,-36 2980,-36 2986,-36 2992,-42 2992,-48 2992,-48 2992,-273 2992,-273 2992,-279 2986,-285 2980,-285 2980,-285 20,-285 20,-285 14,-285 8,-279 8,-273 8,-273 8,-48 8,-48 8,-42 14,-36 20,-36"/>
<text text-anchor="middle" x="43" y="-273" font-family="Courier,monospace" font-size="10.00" fill="#8b8989">sesame.pl</text>
</a>
</g>
</g>
<g id="clust2" class="cluster">
<title>cluster_other</title>
<g id="a_clust2"><a xlink:title="(external entities)">
<path fill="white" stroke="#8b8989" d="M30,-46C30,-46 2970,-46 2970,-46 2976,-46 2982,-52 2982,-58 2982,-58 2982,-108 2982,-108 2982,-114 2976,-120 2970,-120 2970,-120 30,-120 30,-120 24,-120 18,-114 18,-108 18,-108 18,-58 18,-58 18,-52 24,-46 30,-46"/>
<text text-anchor="middle" x="83.01" y="-108" font-family="Courier,monospace" font-size="10.00" fill="#8b8989">(external entities)</text>
</a>
</g>
</g>
<!-- api_sesame -->
<g id="node1" class="node">
<title>api_sesame</title>
<g id="a_node1"><a xlink:title="module">
<polygon fill="gainsboro" stroke="black" points="1591.5,-257 1426.5,-257 1426.5,-261 1414.5,-261 1414.5,-191 1591.5,-191 1591.5,-257"/>
<polyline fill="none" stroke="black" points="1414.5,-257 1426.5,-257 "/>
<g id="a_node1_0"><a xlink:href="api_sesame_module_xref_diagram.svg" xlink:title="Zoom">
<image xlink:href="zoom.png" width="11px" height="11px" preserveAspectRatio="xMinYMin meet" x="1423" y="-253"/>
</a>
</g>
<text text-anchor="start" x="1425.8" y="-233.8" font-family="Courier,monospace" font-size="9.00"> </text>
<text text-anchor="start" x="1473.49" y="-233.2" font-family="Courier,monospace" font-size="11.00">api_sesame</text>
<text text-anchor="start" x="1578.8" y="-233.8" font-family="Courier,monospace" font-size="9.00"> </text>
<text text-anchor="start" x="1425.8" y="-223.8" font-family="Courier,monospace" font-size="9.00"> </text>
<text text-anchor="start" x="1493.9" y="-224.4" font-family="Courier,monospace" font-size="7.00">module</text>
<text text-anchor="start" x="1578.8" y="-223.8" font-family="Courier,monospace" font-size="9.00"> </text>
<text text-anchor="start" x="1425.8" y="-214.8" font-family="Courier,monospace" font-size="9.00"> </text>
<text text-anchor="start" x="1425.8" y="-205.8" font-family="Courier,monospace" font-size="9.00"> </text>
<text text-anchor="start" x="1474.09" y="-205.8" font-family="Courier,monospace" font-size="9.00">api_action/4</text>
<text text-anchor="start" x="1578.8" y="-205.8" font-family="Courier,monospace" font-size="9.00"> </text>
<text text-anchor="start" x="1425.8" y="-196.8" font-family="Courier,monospace" font-size="9.00"> </text>
<text text-anchor="start" x="1433.59" y="-196.8" font-family="Courier,monospace" font-size="9.00">html_write:html_meta_head/3</text>
<text text-anchor="start" x="1578.8" y="-196.8" font-family="Courier,monospace" font-size="9.00"> </text>
</a>
</g>
</g>
<!-- html_write -->
<g id="node2" class="node">
<title>html_write</title>
<g id="a_node2"><a xlink:title="module">
<polygon fill="gainsboro" stroke="black" stroke-dasharray="5,2" points="120,-92 40,-92 40,-96 28,-96 28,-56 120,-56 120,-92"/>
<polyline fill="none" stroke="black" stroke-dasharray="5,2" points="28,-92 40,-92 "/>
<text text-anchor="start" x="35.8" y="-75.8" font-family="Courier,monospace" font-size="9.00"> </text>
<text text-anchor="start" x="40.99" y="-75.2" font-family="Courier,monospace" font-size="11.00">html_write</text>
<text text-anchor="start" x="106.8" y="-75.8" font-family="Courier,monospace" font-size="9.00"> </text>
<text text-anchor="start" x="35.8" y="-65.8" font-family="Courier,monospace" font-size="9.00"> </text>
<text text-anchor="start" x="61.4" y="-66.4" font-family="Courier,monospace" font-size="7.00">module</text>
<text text-anchor="start" x="106.8" y="-65.8" font-family="Courier,monospace" font-size="9.00"> </text>
</a>
</g>
</g>
<!-- api_sesame&#45;&gt;html_write -->
<g id="edge1" class="edge">
<title>api_sesame&#45;&gt;html_write</title>
<path fill="none" stroke="black" d="M1414.35,-221.44C1210.46,-216.99 692.77,-200.77 263.79,-146 203.7,-138.33 184.95,-145.5 130,-120 118.62,-114.72 107.55,-106.65 98.29,-98.79"/>
<polygon fill="black" stroke="black" points="92.98,-89.4 98.13,-98.65 88.33,-94.63 92.98,-89.4"/>
<g id="a_edge1&#45;label"><a xlink:title="provides">
<text text-anchor="middle" x="284.6" y="-138.8" font-family="Courier,monospace" font-size="9.00">provides</text>
</a>
</g>
</g>
<!-- http_dispatch -->
<g id="node3" class="node">
<title>http_dispatch</title>
<g id="a_node3"><a xlink:title="module">
<polygon fill="gainsboro" stroke="black" stroke-dasharray="5,2" points="249.5,-92 150.5,-92 150.5,-96 138.5,-96 138.5,-56 249.5,-56 249.5,-92"/>
<polyline fill="none" stroke="black" stroke-dasharray="5,2" points="138.5,-92 150.5,-92 "/>
<text text-anchor="start" x="146.8" y="-75.8" font-family="Courier,monospace" font-size="9.00"> </text>
<text text-anchor="start" x="151.59" y="-75.2" font-family="Courier,monospace" font-size="11.00">http_dispatch</text>
<text text-anchor="start" x="236.8" y="-75.8" font-family="Courier,monospace" font-size="9.00"> </text>
<text text-anchor="start" x="146.8" y="-65.8" font-family="Courier,monospace" font-size="9.00"> </text>
<text text-anchor="start" x="181.9" y="-66.4" font-family="Courier,monospace" font-size="7.00">module</text>
<text text-anchor="start" x="236.8" y="-65.8" font-family="Courier,monospace" font-size="9.00"> </text>
</a>
</g>
</g>
<!-- api_sesame&#45;&gt;http_dispatch -->
<g id="edge2" class="edge">
<title>api_sesame&#45;&gt;http_dispatch</title>
<path fill="none" stroke="black" d="M1414.45,-221.01C1224.72,-215.84 765.23,-198.52 383.99,-146 327.78,-138.26 311.14,-142.37 259,-120 246.8,-114.76 234.53,-107.06 224,-99.5"/>
<polygon fill="black" stroke="black" points="223.71,-99.28 216.51,-98.88 214.11,-92.08 223.71,-99.28"/>
<g id="a_edge2&#45;label"><a xlink:title="use_module">
<text text-anchor="middle" x="410" y="-138.8" font-family="Courier,monospace" font-size="9.00">use_module</text>
</a>
</g>
</g>
<!-- http_parameters -->
<g id="node4" class="node">
<title>http_parameters</title>
<g id="a_node4"><a xlink:title="module">
<polygon fill="gainsboro" stroke="black" stroke-dasharray="5,2" points="392.5,-92 279.5,-92 279.5,-96 267.5,-96 267.5,-56 392.5,-56 392.5,-92"/>
<polyline fill="none" stroke="black" stroke-dasharray="5,2" points="267.5,-92 279.5,-92 "/>
<text text-anchor="start" x="275.8" y="-75.8" font-family="Courier,monospace" font-size="9.00"> </text>
<text text-anchor="start" x="280.99" y="-75.2" font-family="Courier,monospace" font-size="11.00">http_parameters</text>
<text text-anchor="start" x="379.8" y="-75.8" font-family="Courier,monospace" font-size="9.00"> </text>
<text text-anchor="start" x="275.8" y="-65.8" font-family="Courier,monospace" font-size="9.00"> </text>
<text text-anchor="start" x="317.9" y="-66.4" font-family="Courier,monospace" font-size="7.00">module</text>
<text text-anchor="start" x="379.8" y="-65.8" font-family="Courier,monospace" font-size="9.00"> </text>
</a>
</g>
</g>
<!-- api_sesame&#45;&gt;http_parameters -->
<g id="edge3" class="edge">
<title>api_sesame&#45;&gt;http_parameters</title>
<path fill="none" stroke="black" d="M1414.49,-219.3C1199.66,-209.85 655.18,-182.92 476.99,-146 442.45,-138.84 433.82,-135.22 402,-120 389.27,-113.91 376,-106.09 364.37,-98.67"/>
<polygon fill="black" stroke="black" points="364.26,-98.6 357.05,-98.67 354.21,-92.04 364.26,-98.6"/>
<g id="a_edge3&#45;label"><a xlink:title="use_module">
<text text-anchor="middle" x="503" y="-138.8" font-family="Courier,monospace" font-size="9.00">use_module</text>
</a>
</g>
</g>
<!-- user_db -->
<g id="node5" class="node">
<title>user_db</title>
<g id="a_node5"><a xlink:title="module">
<polygon fill="gainsboro" stroke="black" stroke-dasharray="5,2" points="483,-92 423,-92 423,-96 411,-96 411,-56 483,-56 483,-92"/>
<polyline fill="none" stroke="black" stroke-dasharray="5,2" points="411,-92 423,-92 "/>
<text text-anchor="start" x="418.8" y="-75.8" font-family="Courier,monospace" font-size="9.00"> </text>
<text text-anchor="start" x="423.9" y="-75.2" font-family="Courier,monospace" font-size="11.00">user_db</text>
<text text-anchor="start" x="469.8" y="-75.8" font-family="Courier,monospace" font-size="9.00"> </text>
<text text-anchor="start" x="418.8" y="-65.8" font-family="Courier,monospace" font-size="9.00"> </text>
<text text-anchor="start" x="434.4" y="-66.4" font-family="Courier,monospace" font-size="7.00">module</text>
<text text-anchor="start" x="469.8" y="-65.8" font-family="Courier,monospace" font-size="9.00"> </text>
</a>
</g>
</g>
<!-- api_sesame&#45;&gt;user_db -->
<g id="edge4" class="edge">
<title>api_sesame&#45;&gt;user_db</title>
<path fill="none" stroke="black" d="M1414.33,-219.52C1252.76,-212.27 899.95,-192.2 605.99,-146 555.09,-138 538.22,-144.72 493,-120 484.18,-115.18 475.87,-108.18 468.81,-101.14"/>
<polygon fill="black" stroke="black" points="468.79,-101.12 461.77,-99.47 460.59,-92.36 468.79,-101.12"/>
<g id="a_edge4&#45;label"><a xlink:title="use_module">
<text text-anchor="middle" x="632" y="-138.8" font-family="Courier,monospace" font-size="9.00">use_module</text>
</a>
</g>
</g>
<!-- rdfql_queries -->
<g id="node6" class="node">
<title>rdfql_queries</title>
<g id="a_node6"><a xlink:title="module">
<polygon fill="gainsboro" stroke="black" stroke-dasharray="5,2" points="612.5,-92 513.5,-92 513.5,-96 501.5,-96 501.5,-56 612.5,-56 612.5,-92"/>
<polyline fill="none" stroke="black" stroke-dasharray="5,2" points="501.5,-92 513.5,-92 "/>
<text text-anchor="start" x="509.8" y="-75.8" font-family="Courier,monospace" font-size="9.00"> </text>
<text text-anchor="start" x="514.59" y="-75.2" font-family="Courier,monospace" font-size="11.00">rdfql_queries</text>
<text text-anchor="start" x="599.8" y="-75.8" font-family="Courier,monospace" font-size="9.00"> </text>
<text text-anchor="start" x="509.8" y="-65.8" font-family="Courier,monospace" font-size="9.00"> </text>
<text text-anchor="start" x="544.9" y="-66.4" font-family="Courier,monospace" font-size="7.00">module</text>
<text text-anchor="start" x="599.8" y="-65.8" font-family="Courier,monospace" font-size="9.00"> </text>
</a>
</g>
</g>
<!-- api_sesame&#45;&gt;rdfql_queries -->
<g id="edge5" class="edge">
<title>api_sesame&#45;&gt;rdfql_queries</title>
<path fill="none" stroke="black" d="M1414.48,-220.67C1265.97,-215.39 957.86,-198.54 702.99,-146 665.96,-138.37 655.91,-136.72 622,-120 610.37,-114.26 598.47,-106.63 588.08,-99.28"/>
<polygon fill="black" stroke="black" points="587.95,-99.19 580.75,-98.88 578.26,-92.11 587.95,-99.19"/>
<g id="a_edge5&#45;label"><a xlink:title="use_module">
<text text-anchor="middle" x="729" y="-138.8" font-family="Courier,monospace" font-size="9.00">use_module</text>
</a>
</g>
</g>
<!-- rdf_io -->
<g id="node7" class="node">
<title>rdf_io</title>
<g id="a_node7"><a xlink:title="module">
<polygon fill="gainsboro" stroke="black" stroke-dasharray="5,2" points="695.5,-92 642.5,-92 642.5,-96 630.5,-96 630.5,-56 695.5,-56 695.5,-92"/>
<polyline fill="none" stroke="black" stroke-dasharray="5,2" points="630.5,-92 642.5,-92 "/>
<text text-anchor="start" x="638.8" y="-75.8" font-family="Courier,monospace" font-size="9.00"> </text>
<text text-anchor="start" x="643.7" y="-75.2" font-family="Courier,monospace" font-size="11.00">rdf_io</text>
<text text-anchor="start" x="682.8" y="-75.8" font-family="Courier,monospace" font-size="9.00"> </text>
<text text-anchor="start" x="638.8" y="-65.8" font-family="Courier,monospace" font-size="9.00"> </text>
<text text-anchor="start" x="650.9" y="-66.4" font-family="Courier,monospace" font-size="7.00">module</text>
<text text-anchor="start" x="682.8" y="-65.8" font-family="Courier,monospace" font-size="9.00"> </text>
</a>
</g>
</g>
<!-- api_sesame&#45;&gt;rdf_io -->
<g id="edge6" class="edge">
<title>api_sesame&#45;&gt;rdf_io</title>
<path fill="none" stroke="black" d="M1414.25,-217.34C1281.08,-207.91 1022.01,-185.97 804.99,-146 782.41,-141.84 724.73,-131.75 705,-120 696.92,-115.19 689.43,-108.37 683.08,-101.49"/>
<polygon fill="black" stroke="black" points="682.98,-101.37 676.05,-99.41 675.19,-92.25 682.98,-101.37"/>
<g id="a_edge6&#45;label"><a xlink:title="use_module">
<text text-anchor="middle" x="831" y="-138.8" font-family="Courier,monospace" font-size="9.00">use_module</text>
</a>
</g>
</g>
<!-- serql -->
<g id="node8" class="node">
<title>serql</title>
<g id="a_node8"><a xlink:title="module">
<polygon fill="gainsboro" stroke="black" stroke-dasharray="5,2" points="772.5,-92 725.5,-92 725.5,-96 713.5,-96 713.5,-56 772.5,-56 772.5,-92"/>
<polyline fill="none" stroke="black" stroke-dasharray="5,2" points="713.5,-92 725.5,-92 "/>
<text text-anchor="start" x="721.8" y="-75.8" font-family="Courier,monospace" font-size="9.00"> </text>
<text text-anchor="start" x="727" y="-75.2" font-family="Courier,monospace" font-size="11.00">serql</text>
<text text-anchor="start" x="759.8" y="-75.8" font-family="Courier,monospace" font-size="9.00"> </text>
<text text-anchor="start" x="721.8" y="-65.8" font-family="Courier,monospace" font-size="9.00"> </text>
<text text-anchor="start" x="730.9" y="-66.4" font-family="Courier,monospace" font-size="7.00">module</text>
<text text-anchor="start" x="759.8" y="-65.8" font-family="Courier,monospace" font-size="9.00"> </text>
</a>
</g>
</g>
<!-- api_sesame&#45;&gt;serql -->
<g id="edge7" class="edge">
<title>api_sesame&#45;&gt;serql</title>
<path fill="none" stroke="black" d="M1414.46,-215.02C1296.29,-203.62 1080.8,-180.2 898.99,-146 882.79,-142.95 879.07,-140.69 863,-137 827.15,-128.76 813.7,-138.65 782,-120 774.22,-115.42 767.21,-108.73 761.34,-101.9"/>
<polygon fill="black" stroke="black" points="761.01,-101.47 754.17,-99.21 753.62,-92.02 761.01,-101.47"/>
<g id="a_edge7&#45;label"><a xlink:title="use_module">
<text text-anchor="middle" x="925" y="-138.8" font-family="Courier,monospace" font-size="9.00">use_module</text>
</a>
</g>
</g>
<!-- sparql -->
<g id="node9" class="node">
<title>sparql</title>
<g id="a_node9"><a xlink:title="module">
<polygon fill="gainsboro" stroke="black" stroke-dasharray="5,2" points="855.5,-92 802.5,-92 802.5,-96 790.5,-96 790.5,-56 855.5,-56 855.5,-92"/>
<polyline fill="none" stroke="black" stroke-dasharray="5,2" points="790.5,-92 802.5,-92 "/>
<text text-anchor="start" x="798.8" y="-75.8" font-family="Courier,monospace" font-size="9.00"> </text>
<text text-anchor="start" x="803.7" y="-75.2" font-family="Courier,monospace" font-size="11.00">sparql</text>
<text text-anchor="start" x="842.8" y="-75.8" font-family="Courier,monospace" font-size="9.00"> </text>
<text text-anchor="start" x="798.8" y="-65.8" font-family="Courier,monospace" font-size="9.00"> </text>
<text text-anchor="start" x="810.9" y="-66.4" font-family="Courier,monospace" font-size="7.00">module</text>
<text text-anchor="start" x="842.8" y="-65.8" font-family="Courier,monospace" font-size="9.00"> </text>
</a>
</g>
</g>
<!-- api_sesame&#45;&gt;sparql -->
<g id="edge8" class="edge">
<title>api_sesame&#45;&gt;sparql</title>
<path fill="none" stroke="black" d="M1414.41,-214.62C1310.37,-203.68 1133.06,-181.62 983.99,-146 971.69,-143.06 969.25,-140.16 957,-137 916.74,-126.62 901.47,-139.98 865,-120 856.62,-115.41 848.98,-108.54 842.57,-101.54"/>
<polygon fill="black" stroke="black" points="842.37,-101.31 835.45,-99.29 834.65,-92.12 842.37,-101.31"/>
<g id="a_edge8&#45;label"><a xlink:title="use_module">
<text text-anchor="middle" x="1010" y="-138.8" font-family="Courier,monospace" font-size="9.00">use_module</text>
</a>
</g>
</g>
<!-- rdf_db -->
<g id="node10" class="node">
<title>rdf_db</title>
<g id="a_node10"><a xlink:title="module">
<polygon fill="gainsboro" stroke="black" stroke-dasharray="5,2" points="938.5,-92 885.5,-92 885.5,-96 873.5,-96 873.5,-56 938.5,-56 938.5,-92"/>
<polyline fill="none" stroke="black" stroke-dasharray="5,2" points="873.5,-92 885.5,-92 "/>
<text text-anchor="start" x="881.8" y="-75.8" font-family="Courier,monospace" font-size="9.00"> </text>
<text text-anchor="start" x="886.7" y="-75.2" font-family="Courier,monospace" font-size="11.00">rdf_db</text>
<text text-anchor="start" x="925.8" y="-75.8" font-family="Courier,monospace" font-size="9.00"> </text>
<text text-anchor="start" x="881.8" y="-65.8" font-family="Courier,monospace" font-size="9.00"> </text>
<text text-anchor="start" x="893.9" y="-66.4" font-family="Courier,monospace" font-size="7.00">module</text>
<text text-anchor="start" x="925.8" y="-65.8" font-family="Courier,monospace" font-size="9.00"> </text>
</a>
</g>
</g>
<!-- api_sesame&#45;&gt;rdf_db -->
<g id="edge9" class="edge">
<title>api_sesame&#45;&gt;rdf_db</title>
<path fill="none" stroke="black" d="M1414.5,-211.17C1326.22,-198.47 1187.11,-176 1068.99,-146 1056.73,-142.89 1054.25,-140.13 1042,-137 1000.87,-126.48 985.27,-140.33 948,-120 939.62,-115.43 931.97,-108.56 925.56,-101.56"/>
<polygon fill="black" stroke="black" points="925.36,-101.33 918.44,-99.3 917.64,-92.14 925.36,-101.33"/>
<g id="a_edge9&#45;label"><a xlink:title="use_module">
<text text-anchor="middle" x="1095" y="-138.8" font-family="Courier,monospace" font-size="9.00">use_module</text>
</a>
</g>
</g>
<!-- rdfs_entailment -->
<g id="node11" class="node">
<title>rdfs_entailment</title>
<g id="a_node11"><a xlink:title="module">
<polygon fill="gainsboro" stroke="black" stroke-dasharray="5,2" points="1081.5,-92 968.5,-92 968.5,-96 956.5,-96 956.5,-56 1081.5,-56 1081.5,-92"/>
<polyline fill="none" stroke="black" stroke-dasharray="5,2" points="956.5,-92 968.5,-92 "/>
<text text-anchor="start" x="964.8" y="-75.8" font-family="Courier,monospace" font-size="9.00"> </text>
<text text-anchor="start" x="969.99" y="-75.2" font-family="Courier,monospace" font-size="11.00">rdfs_entailment</text>
<text text-anchor="start" x="1068.8" y="-75.8" font-family="Courier,monospace" font-size="9.00"> </text>
<text text-anchor="start" x="964.8" y="-65.8" font-family="Courier,monospace" font-size="9.00"> </text>
<text text-anchor="start" x="1006.9" y="-66.4" font-family="Courier,monospace" font-size="7.00">module</text>
<text text-anchor="start" x="1068.8" y="-65.8" font-family="Courier,monospace" font-size="9.00"> </text>
</a>
</g>
</g>
<!-- api_sesame&#45;&gt;rdfs_entailment -->
<g id="edge10" class="edge">
<title>api_sesame&#45;&gt;rdfs_entailment</title>
<path fill="none" stroke="black" d="M1414.46,-208.1C1342.99,-194.99 1240.33,-173.67 1152.99,-146 1124.51,-136.98 1117.53,-133.74 1091,-120 1078.8,-113.68 1065.94,-106 1054.51,-98.78"/>
<polygon fill="black" stroke="black" points="1054.16,-98.56 1046.95,-98.68 1044.07,-92.07 1054.16,-98.56"/>
<g id="a_edge10&#45;label"><a xlink:title="use_module">
<text text-anchor="middle" x="1179" y="-138.8" font-family="Courier,monospace" font-size="9.00">use_module</text>
</a>
</g>
</g>
<!-- rdfs -->
<g id="node12" class="node">
<title>rdfs</title>
<g id="a_node12"><a xlink:title="module">
<polygon fill="gainsboro" stroke="black" stroke-dasharray="5,2" points="1154,-92 1112,-92 1112,-96 1100,-96 1100,-56 1154,-56 1154,-92"/>
<polyline fill="none" stroke="black" stroke-dasharray="5,2" points="1100,-92 1112,-92 "/>
<text text-anchor="start" x="1108.8" y="-75.8" font-family="Courier,monospace" font-size="9.00"> </text>
<text text-anchor="start" x="1113.8" y="-75.2" font-family="Courier,monospace" font-size="11.00">rdfs</text>
<text text-anchor="start" x="1139.8" y="-75.8" font-family="Courier,monospace" font-size="9.00"> </text>
<text text-anchor="start" x="1108.8" y="-65.8" font-family="Courier,monospace" font-size="9.00"> </text>
<text text-anchor="start" x="1114.4" y="-66.4" font-family="Courier,monospace" font-size="7.00">module</text>
<text text-anchor="start" x="1139.8" y="-65.8" font-family="Courier,monospace" font-size="9.00"> </text>
</a>
</g>
</g>
<!-- api_sesame&#45;&gt;rdfs -->
<g id="edge11" class="edge">
<title>api_sesame&#45;&gt;rdfs</title>
<path fill="none" stroke="black" d="M1414.21,-198.9C1321.06,-173.16 1185.2,-134.16 1164,-120 1156.77,-115.17 1150.22,-108.51 1144.71,-101.79"/>
<polygon fill="black" stroke="black" points="1144.64,-101.7 1137.84,-99.31 1137.43,-92.11 1144.64,-101.7"/>
<g id="a_edge11&#45;label"><a xlink:title="use_module">
<text text-anchor="middle" x="1253" y="-138.8" font-family="Courier,monospace" font-size="9.00">use_module</text>
</a>
</g>
</g>
<!-- rdf_persistency -->
<g id="node13" class="node">
<title>rdf_persistency</title>
<g id="a_node13"><a xlink:title="module">
<polygon fill="gainsboro" stroke="black" stroke-dasharray="5,2" points="1297.5,-92 1184.5,-92 1184.5,-96 1172.5,-96 1172.5,-56 1297.5,-56 1297.5,-92"/>
<polyline fill="none" stroke="black" stroke-dasharray="5,2" points="1172.5,-92 1184.5,-92 "/>
<text text-anchor="start" x="1180.8" y="-75.8" font-family="Courier,monospace" font-size="9.00"> </text>
<text text-anchor="start" x="1185.99" y="-75.2" font-family="Courier,monospace" font-size="11.00">rdf_persistency</text>
<text text-anchor="start" x="1284.8" y="-75.8" font-family="Courier,monospace" font-size="9.00"> </text>
<text text-anchor="start" x="1180.8" y="-65.8" font-family="Courier,monospace" font-size="9.00"> </text>
<text text-anchor="start" x="1222.9" y="-66.4" font-family="Courier,monospace" font-size="7.00">module</text>
<text text-anchor="start" x="1284.8" y="-65.8" font-family="Courier,monospace" font-size="9.00"> </text>
</a>
</g>
</g>
<!-- api_sesame&#45;&gt;rdf_persistency -->
<g id="edge12" class="edge">
<title>api_sesame&#45;&gt;rdf_persistency</title>
<path fill="none" stroke="black" d="M1431.96,-190.95C1404.12,-177.79 1372.17,-161.91 1343.99,-146 1318.42,-131.56 1290.71,-113.47 1269.63,-99.16"/>
<polygon fill="black" stroke="black" points="1269.46,-99.05 1262.25,-98.96 1259.55,-92.27 1269.46,-99.05"/>
<g id="a_edge12&#45;label"><a xlink:title="use_module">
<text text-anchor="middle" x="1370" y="-138.8" font-family="Courier,monospace" font-size="9.00">use_module</text>
</a>
</g>
</g>
<!-- lists -->
<g id="node14" class="node">
<title>lists</title>
<g id="a_node14"><a xlink:title="module">
<polygon fill="gainsboro" stroke="black" stroke-dasharray="5,2" points="1374.5,-92 1327.5,-92 1327.5,-96 1315.5,-96 1315.5,-56 1374.5,-56 1374.5,-92"/>
<polyline fill="none" stroke="black" stroke-dasharray="5,2" points="1315.5,-92 1327.5,-92 "/>
<text text-anchor="start" x="1323.8" y="-75.8" font-family="Courier,monospace" font-size="9.00"> </text>
<text text-anchor="start" x="1329" y="-75.2" font-family="Courier,monospace" font-size="11.00">lists</text>
<text text-anchor="start" x="1361.8" y="-75.8" font-family="Courier,monospace" font-size="9.00"> </text>
<text text-anchor="start" x="1323.8" y="-65.8" font-family="Courier,monospace" font-size="9.00"> </text>
<text text-anchor="start" x="1332.9" y="-66.4" font-family="Courier,monospace" font-size="7.00">module</text>
<text text-anchor="start" x="1361.8" y="-65.8" font-family="Courier,monospace" font-size="9.00"> </text>
</a>
</g>
</g>
<!-- api_sesame&#45;&gt;lists -->
<g id="edge13" class="edge">
<title>api_sesame&#45;&gt;lists</title>
<path fill="none" stroke="black" d="M1463.15,-190.96C1439.41,-171.29 1409.12,-145.12 1384,-120 1378.24,-114.24 1372.34,-107.77 1366.92,-101.57"/>
<polygon fill="black" stroke="black" points="1366.69,-101.3 1359.76,-99.34 1358.9,-92.18 1366.69,-101.3"/>
<g id="a_edge13&#45;label"><a xlink:title="use_module">
<text text-anchor="middle" x="1435" y="-138.8" font-family="Courier,monospace" font-size="9.00">use_module</text>
</a>
</g>
</g>
<!-- rdf_file_type -->
<g id="node15" class="node">
<title>rdf_file_type</title>
<g id="a_node15"><a xlink:title="module">
<polygon fill="gainsboro" stroke="black" stroke-dasharray="5,2" points="1503.5,-92 1404.5,-92 1404.5,-96 1392.5,-96 1392.5,-56 1503.5,-56 1503.5,-92"/>
<polyline fill="none" stroke="black" stroke-dasharray="5,2" points="1392.5,-92 1404.5,-92 "/>
<text text-anchor="start" x="1400.8" y="-75.8" font-family="Courier,monospace" font-size="9.00"> </text>
<text text-anchor="start" x="1405.59" y="-75.2" font-family="Courier,monospace" font-size="11.00">rdf_file_type</text>
<text text-anchor="start" x="1490.8" y="-75.8" font-family="Courier,monospace" font-size="9.00"> </text>
<text text-anchor="start" x="1400.8" y="-65.8" font-family="Courier,monospace" font-size="9.00"> </text>
<text text-anchor="start" x="1435.9" y="-66.4" font-family="Courier,monospace" font-size="7.00">module</text>
<text text-anchor="start" x="1490.8" y="-65.8" font-family="Courier,monospace" font-size="9.00"> </text>
</a>
</g>
</g>
<!-- api_sesame&#45;&gt;rdf_file_type -->
<g id="edge14" class="edge">
<title>api_sesame&#45;&gt;rdf_file_type</title>
<path fill="none" stroke="black" d="M1491.07,-190.89C1481.4,-164.88 1467.91,-128.57 1458.62,-103.56"/>
<polygon fill="black" stroke="black" points="1458.61,-103.54 1452.77,-99.31 1454.43,-92.29 1458.61,-103.54"/>
<g id="a_edge14&#45;label"><a xlink:title="use_module">
<text text-anchor="middle" x="1500" y="-138.8" font-family="Courier,monospace" font-size="9.00">use_module</text>
</a>
</g>
</g>
<!-- swi_option -->
<g id="node16" class="node">
<title>swi_option</title>
<g id="a_node16"><a xlink:title="module">
<polygon fill="gainsboro" stroke="black" stroke-dasharray="5,2" points="1614,-92 1534,-92 1534,-96 1522,-96 1522,-56 1614,-56 1614,-92"/>
<polyline fill="none" stroke="black" stroke-dasharray="5,2" points="1522,-92 1534,-92 "/>
<text text-anchor="start" x="1529.8" y="-75.8" font-family="Courier,monospace" font-size="9.00"> </text>
<text text-anchor="start" x="1534.99" y="-75.2" font-family="Courier,monospace" font-size="11.00">swi_option</text>
<text text-anchor="start" x="1600.8" y="-75.8" font-family="Courier,monospace" font-size="9.00"> </text>
<text text-anchor="start" x="1529.8" y="-65.8" font-family="Courier,monospace" font-size="9.00"> </text>
<text text-anchor="start" x="1555.4" y="-66.4" font-family="Courier,monospace" font-size="7.00">module</text>
<text text-anchor="start" x="1600.8" y="-65.8" font-family="Courier,monospace" font-size="9.00"> </text>
</a>
</g>
</g>
<!-- api_sesame&#45;&gt;swi_option -->
<g id="edge15" class="edge">
<title>api_sesame&#45;&gt;swi_option</title>
<path fill="none" stroke="black" d="M1517.1,-190.89C1528.53,-164.88 1544.47,-128.57 1555.45,-103.56"/>
<polygon fill="black" stroke="black" points="1555.58,-103.28 1554.33,-96.17 1560.41,-92.29 1555.58,-103.28"/>
<g id="a_edge15&#45;label"><a xlink:title="use_module">
<text text-anchor="middle" x="1566" y="-138.8" font-family="Courier,monospace" font-size="9.00">use_module</text>
</a>
</g>
</g>
<!-- http_client -->
<g id="node17" class="node">
<title>http_client</title>
<g id="a_node17"><a xlink:title="module">
<polygon fill="gainsboro" stroke="black" stroke-dasharray="5,2" points="1730,-92 1644,-92 1644,-96 1632,-96 1632,-56 1730,-56 1730,-92"/>
<polyline fill="none" stroke="black" stroke-dasharray="5,2" points="1632,-92 1644,-92 "/>
<text text-anchor="start" x="1639.8" y="-75.8" font-family="Courier,monospace" font-size="9.00"> </text>
<text text-anchor="start" x="1644.69" y="-75.2" font-family="Courier,monospace" font-size="11.00">http_client</text>
<text text-anchor="start" x="1716.8" y="-75.8" font-family="Courier,monospace" font-size="9.00"> </text>
<text text-anchor="start" x="1639.8" y="-65.8" font-family="Courier,monospace" font-size="9.00"> </text>
<text text-anchor="start" x="1668.4" y="-66.4" font-family="Courier,monospace" font-size="7.00">module</text>
<text text-anchor="start" x="1716.8" y="-65.8" font-family="Courier,monospace" font-size="9.00"> </text>
</a>
</g>
</g>
<!-- api_sesame&#45;&gt;http_client -->
<g id="edge16" class="edge">
<title>api_sesame&#45;&gt;http_client</title>
<path fill="none" stroke="black" d="M1542.44,-190.92C1559.3,-177.15 1579.16,-160.84 1597,-146 1615.23,-130.83 1635.55,-113.66 1651.63,-100.01"/>
<polygon fill="black" stroke="black" points="1651.9,-99.78 1653.88,-92.85 1661.05,-92.01 1651.9,-99.78"/>
<g id="a_edge16&#45;label"><a xlink:title="use_module">
<text text-anchor="middle" x="1633" y="-138.8" font-family="Courier,monospace" font-size="9.00">use_module</text>
</a>
</g>
</g>
<!-- error -->
<g id="node18" class="node">
<title>error</title>
<g id="a_node18"><a xlink:title="module">
<polygon fill="gainsboro" stroke="black" stroke-dasharray="5,2" points="1807.5,-92 1760.5,-92 1760.5,-96 1748.5,-96 1748.5,-56 1807.5,-56 1807.5,-92"/>
<polyline fill="none" stroke="black" stroke-dasharray="5,2" points="1748.5,-92 1760.5,-92 "/>
<text text-anchor="start" x="1756.8" y="-75.8" font-family="Courier,monospace" font-size="9.00"> </text>
<text text-anchor="start" x="1762" y="-75.2" font-family="Courier,monospace" font-size="11.00">error</text>
<text text-anchor="start" x="1794.8" y="-75.8" font-family="Courier,monospace" font-size="9.00"> </text>
<text text-anchor="start" x="1756.8" y="-65.8" font-family="Courier,monospace" font-size="9.00"> </text>
<text text-anchor="start" x="1765.9" y="-66.4" font-family="Courier,monospace" font-size="7.00">module</text>
<text text-anchor="start" x="1794.8" y="-65.8" font-family="Courier,monospace" font-size="9.00"> </text>
</a>
</g>
</g>
<!-- api_sesame&#45;&gt;error -->
<g id="edge17" class="edge">
<title>api_sesame&#45;&gt;error</title>
<path fill="none" stroke="black" d="M1591.76,-194.97C1638.26,-177.73 1694.61,-152.64 1739,-120 1746.05,-114.81 1752.7,-108.14 1758.45,-101.52"/>
<polygon fill="black" stroke="black" points="1758.58,-101.36 1759.27,-94.18 1766.16,-92.06 1758.58,-101.36"/>
<g id="a_edge17&#45;label"><a xlink:title="use_module">
<text text-anchor="middle" x="1736" y="-138.8" font-family="Courier,monospace" font-size="9.00">use_module</text>
</a>
</g>
</g>
<!-- apply -->
<g id="node19" class="node">
<title>apply</title>
<g id="a_node19"><a xlink:title="module">
<polygon fill="gainsboro" stroke="black" stroke-dasharray="5,2" points="1884.5,-92 1837.5,-92 1837.5,-96 1825.5,-96 1825.5,-56 1884.5,-56 1884.5,-92"/>
<polyline fill="none" stroke="black" stroke-dasharray="5,2" points="1825.5,-92 1837.5,-92 "/>
<text text-anchor="start" x="1833.8" y="-75.8" font-family="Courier,monospace" font-size="9.00"> </text>
<text text-anchor="start" x="1839" y="-75.2" font-family="Courier,monospace" font-size="11.00">apply</text>
<text text-anchor="start" x="1871.8" y="-75.8" font-family="Courier,monospace" font-size="9.00"> </text>
<text text-anchor="start" x="1833.8" y="-65.8" font-family="Courier,monospace" font-size="9.00"> </text>
<text text-anchor="start" x="1842.9" y="-66.4" font-family="Courier,monospace" font-size="7.00">module</text>
<text text-anchor="start" x="1871.8" y="-65.8" font-family="Courier,monospace" font-size="9.00"> </text>
</a>
</g>
</g>
<!-- api_sesame&#45;&gt;apply -->
<g id="edge18" class="edge">
<title>api_sesame&#45;&gt;apply</title>
<path fill="none" stroke="black" d="M1591.55,-201.81C1643.51,-188.24 1709.95,-168.89 1767,-146 1790.24,-136.67 1797.44,-135.64 1817,-120 1823.5,-114.8 1829.71,-108.36 1835.15,-102"/>
<polygon fill="black" stroke="black" points="1835.48,-101.58 1836.13,-94.4 1843.01,-92.24 1835.48,-101.58"/>
<g id="a_edge18&#45;label"><a xlink:title="use_module">
<text text-anchor="middle" x="1816" y="-138.8" font-family="Courier,monospace" font-size="9.00">use_module</text>
</a>
</g>
</g>
<!-- memory_file -->
<g id="node20" class="node">
<title>memory_file</title>
<g id="a_node20"><a xlink:title="module">
<polygon fill="gainsboro" stroke="black" stroke-dasharray="5,2" points="2001,-92 1915,-92 1915,-96 1903,-96 1903,-56 2001,-56 2001,-92"/>
<polyline fill="none" stroke="black" stroke-dasharray="5,2" points="1903,-92 1915,-92 "/>
<text text-anchor="start" x="1910.8" y="-75.8" font-family="Courier,monospace" font-size="9.00"> </text>
<text text-anchor="start" x="1915.69" y="-75.2" font-family="Courier,monospace" font-size="11.00">memory_file</text>
<text text-anchor="start" x="1987.8" y="-75.8" font-family="Courier,monospace" font-size="9.00"> </text>
<text text-anchor="start" x="1910.8" y="-65.8" font-family="Courier,monospace" font-size="9.00"> </text>
<text text-anchor="start" x="1939.4" y="-66.4" font-family="Courier,monospace" font-size="7.00">module</text>
<text text-anchor="start" x="1987.8" y="-65.8" font-family="Courier,monospace" font-size="9.00"> </text>
</a>
</g>
</g>
<!-- api_sesame&#45;&gt;memory_file -->
<g id="edge19" class="edge">
<title>api_sesame&#45;&gt;memory_file</title>
<path fill="none" stroke="black" d="M1591.6,-210.31C1662.29,-198.5 1763.03,-177.87 1847,-146 1875.16,-135.31 1903.22,-115.76 1923.24,-99.87"/>
<polygon fill="black" stroke="black" points="1923.36,-99.77 1925.49,-92.88 1932.66,-92.19 1923.36,-99.77"/>
<g id="a_edge19&#45;label"><a xlink:title="use_module">
<text text-anchor="middle" x="1892" y="-138.8" font-family="Courier,monospace" font-size="9.00">use_module</text>
</a>
</g>
</g>
<!-- http_open -->
<g id="node21" class="node">
<title>http_open</title>
<g id="a_node21"><a xlink:title="module">
<polygon fill="gainsboro" stroke="black" stroke-dasharray="5,2" points="2104.5,-92 2031.5,-92 2031.5,-96 2019.5,-96 2019.5,-56 2104.5,-56 2104.5,-92"/>
<polyline fill="none" stroke="black" stroke-dasharray="5,2" points="2019.5,-92 2031.5,-92 "/>
<text text-anchor="start" x="2027.8" y="-75.8" font-family="Courier,monospace" font-size="9.00"> </text>
<text text-anchor="start" x="2032.8" y="-75.2" font-family="Courier,monospace" font-size="11.00">http_open</text>
<text text-anchor="start" x="2091.8" y="-75.8" font-family="Courier,monospace" font-size="9.00"> </text>
<text text-anchor="start" x="2027.8" y="-65.8" font-family="Courier,monospace" font-size="9.00"> </text>
<text text-anchor="start" x="2049.9" y="-66.4" font-family="Courier,monospace" font-size="7.00">module</text>
<text text-anchor="start" x="2091.8" y="-65.8" font-family="Courier,monospace" font-size="9.00"> </text>
</a>
</g>
</g>
<!-- api_sesame&#45;&gt;http_open -->
<g id="edge20" class="edge">
<title>api_sesame&#45;&gt;http_open</title>
<path fill="none" stroke="black" d="M1591.67,-209.63C1677.08,-196.07 1809.65,-173.24 1923,-146 1962.24,-136.57 1974.62,-139.41 2010,-120 2019.38,-114.86 2028.56,-107.8 2036.53,-100.8"/>
<polygon fill="black" stroke="black" points="2036.78,-100.57 2038.47,-93.56 2045.59,-92.43 2036.78,-100.57"/>
<g id="a_edge20&#45;label"><a xlink:title="use_module">
<text text-anchor="middle" x="1993" y="-138.8" font-family="Courier,monospace" font-size="9.00">use_module</text>
</a>
</g>
</g>
<!-- prolog_debug -->
<g id="node22" class="node">
<title>prolog_debug</title>
<g id="a_node22"><a xlink:title="module">
<polygon fill="gainsboro" stroke="black" stroke-dasharray="5,2" points="2227.5,-92 2134.5,-92 2134.5,-96 2122.5,-96 2122.5,-56 2227.5,-56 2227.5,-92"/>
<polyline fill="none" stroke="black" stroke-dasharray="5,2" points="2122.5,-92 2134.5,-92 "/>
<text text-anchor="start" x="2130.8" y="-75.8" font-family="Courier,monospace" font-size="9.00"> </text>
<text text-anchor="start" x="2135.89" y="-75.2" font-family="Courier,monospace" font-size="11.00">prolog_debug</text>
<text text-anchor="start" x="2214.8" y="-75.8" font-family="Courier,monospace" font-size="9.00"> </text>
<text text-anchor="start" x="2130.8" y="-65.8" font-family="Courier,monospace" font-size="9.00"> </text>
<text text-anchor="start" x="2162.9" y="-66.4" font-family="Courier,monospace" font-size="7.00">module</text>
<text text-anchor="start" x="2214.8" y="-65.8" font-family="Courier,monospace" font-size="9.00"> </text>
</a>
</g>
</g>
<!-- api_sesame&#45;&gt;prolog_debug -->
<g id="edge21" class="edge">
<title>api_sesame&#45;&gt;prolog_debug</title>
<path fill="none" stroke="black" d="M1591.69,-213.58C1695.9,-201.66 1873.67,-178.67 2024,-146 2064.69,-137.16 2076.66,-138.42 2114,-120 2125.12,-114.51 2136.33,-106.96 2146.04,-99.62"/>
<polygon fill="black" stroke="black" points="2146.13,-99.55 2148.37,-92.7 2155.56,-92.13 2146.13,-99.55"/>
<g id="a_edge21&#45;label"><a xlink:title="use_module">
<text text-anchor="middle" x="2094" y="-138.8" font-family="Courier,monospace" font-size="9.00">use_module</text>
</a>
</g>
</g>
<!-- sgml -->
<g id="node23" class="node">
<title>sgml</title>
<g id="a_node23"><a xlink:title="module">
<polygon fill="gainsboro" stroke="black" stroke-dasharray="5,2" points="2300,-92 2258,-92 2258,-96 2246,-96 2246,-56 2300,-56 2300,-92"/>
<polyline fill="none" stroke="black" stroke-dasharray="5,2" points="2246,-92 2258,-92 "/>
<text text-anchor="start" x="2254.8" y="-75.8" font-family="Courier,monospace" font-size="9.00"> </text>
<text text-anchor="start" x="2259.8" y="-75.2" font-family="Courier,monospace" font-size="11.00">sgml</text>
<text text-anchor="start" x="2285.8" y="-75.8" font-family="Courier,monospace" font-size="9.00"> </text>
<text text-anchor="start" x="2254.8" y="-65.8" font-family="Courier,monospace" font-size="9.00"> </text>
<text text-anchor="start" x="2260.4" y="-66.4" font-family="Courier,monospace" font-size="7.00">module</text>
<text text-anchor="start" x="2285.8" y="-65.8" font-family="Courier,monospace" font-size="9.00"> </text>
</a>
</g>
</g>
<!-- api_sesame&#45;&gt;sgml -->
<g id="edge22" class="edge">
<title>api_sesame&#45;&gt;sgml</title>
<path fill="none" stroke="black" d="M1591.5,-214.99C1712.52,-203.38 1936.17,-179.51 2125,-146 2175.32,-137.07 2193.76,-147.23 2237,-120 2244.28,-115.41 2250.73,-108.83 2256.09,-102.11"/>
<polygon fill="black" stroke="black" points="2256.09,-102.1 2256.37,-94.9 2263.13,-92.38 2256.09,-102.1"/>
<g id="a_edge22&#45;label"><a xlink:title="use_module">
<text text-anchor="middle" x="2226" y="-138.8" font-family="Courier,monospace" font-size="9.00">use_module</text>
</a>
</g>
</g>
<!-- settings -->
<g id="node24" class="node">
<title>settings</title>
<g id="a_node24"><a xlink:title="module">
<polygon fill="gainsboro" stroke="black" stroke-dasharray="5,2" points="2396,-92 2330,-92 2330,-96 2318,-96 2318,-56 2396,-56 2396,-92"/>
<polyline fill="none" stroke="black" stroke-dasharray="5,2" points="2318,-92 2330,-92 "/>
<text text-anchor="start" x="2325.8" y="-75.8" font-family="Courier,monospace" font-size="9.00"> </text>
<text text-anchor="start" x="2330.6" y="-75.2" font-family="Courier,monospace" font-size="11.00">settings</text>
<text text-anchor="start" x="2382.8" y="-75.8" font-family="Courier,monospace" font-size="9.00"> </text>
<text text-anchor="start" x="2325.8" y="-65.8" font-family="Courier,monospace" font-size="9.00"> </text>
<text text-anchor="start" x="2344.4" y="-66.4" font-family="Courier,monospace" font-size="7.00">module</text>
<text text-anchor="start" x="2382.8" y="-65.8" font-family="Courier,monospace" font-size="9.00"> </text>
</a>
</g>
</g>
<!-- api_sesame&#45;&gt;settings -->
<g id="edge23" class="edge">
<title>api_sesame&#45;&gt;settings</title>
<path fill="none" stroke="black" d="M1591.69,-217.96C1763.19,-207.57 2134.19,-181.67 2257,-146 2281.81,-138.79 2287.8,-134.77 2309,-120 2316.99,-114.43 2324.98,-107.59 2332.09,-100.92"/>
<polygon fill="black" stroke="black" points="2332.55,-100.47 2334.06,-93.42 2341.15,-92.1 2332.55,-100.47"/>
<g id="a_edge23&#45;label"><a xlink:title="use_module">
<text text-anchor="middle" x="2308" y="-138.8" font-family="Courier,monospace" font-size="9.00">use_module</text>
</a>
</g>
</g>
<!-- cliopatria -->
<g id="node25" class="node">
<title>cliopatria</title>
<g id="a_node25"><a xlink:title="module">
<polygon fill="gainsboro" stroke="black" stroke-dasharray="5,2" points="2506,-92 2426,-92 2426,-96 2414,-96 2414,-56 2506,-56 2506,-92"/>
<polyline fill="none" stroke="black" stroke-dasharray="5,2" points="2414,-92 2426,-92 "/>
<text text-anchor="start" x="2421.8" y="-75.8" font-family="Courier,monospace" font-size="9.00"> </text>
<text text-anchor="start" x="2426.99" y="-75.2" font-family="Courier,monospace" font-size="11.00">cliopatria</text>
<text text-anchor="start" x="2492.8" y="-75.8" font-family="Courier,monospace" font-size="9.00"> </text>
<text text-anchor="start" x="2421.8" y="-65.8" font-family="Courier,monospace" font-size="9.00"> </text>
<text text-anchor="start" x="2447.4" y="-66.4" font-family="Courier,monospace" font-size="7.00">module</text>
<text text-anchor="start" x="2492.8" y="-65.8" font-family="Courier,monospace" font-size="9.00"> </text>
</a>
</g>
</g>
<!-- api_sesame&#45;&gt;cliopatria -->
<g id="edge24" class="edge">
<title>api_sesame&#45;&gt;cliopatria</title>
<path fill="none" stroke="black" d="M1591.58,-223.02C1745.65,-221.25 2072.07,-209.5 2339,-146 2369.67,-138.7 2377.81,-135.95 2405,-120 2414.48,-114.44 2424.03,-107.29 2432.45,-100.34"/>
<polygon fill="black" stroke="black" points="2432.63,-100.19 2434.58,-93.25 2441.74,-92.38 2432.63,-100.19"/>
<g id="a_edge24&#45;label"><a xlink:title="use_module">
<text text-anchor="middle" x="2398" y="-138.8" font-family="Courier,monospace" font-size="9.00">use_module</text>
</a>
</g>
</g>
<!-- http_request_value -->
<g id="node26" class="node">
<title>http_request_value</title>
<g id="a_node26"><a xlink:title="module">
<polygon fill="gainsboro" stroke="black" stroke-dasharray="5,2" points="2668,-92 2536,-92 2536,-96 2524,-96 2524,-56 2668,-56 2668,-92"/>
<polyline fill="none" stroke="black" stroke-dasharray="5,2" points="2524,-92 2536,-92 "/>
<text text-anchor="start" x="2531.8" y="-75.8" font-family="Courier,monospace" font-size="9.00"> </text>
<text text-anchor="start" x="2536.59" y="-75.2" font-family="Courier,monospace" font-size="11.00">http_request_value</text>
<text text-anchor="start" x="2654.8" y="-75.8" font-family="Courier,monospace" font-size="9.00"> </text>
<text text-anchor="start" x="2531.8" y="-65.8" font-family="Courier,monospace" font-size="9.00"> </text>
<text text-anchor="start" x="2583.4" y="-66.4" font-family="Courier,monospace" font-size="7.00">module</text>
<text text-anchor="start" x="2654.8" y="-65.8" font-family="Courier,monospace" font-size="9.00"> </text>
</a>
</g>
</g>
<!-- api_sesame&#45;&gt;http_request_value -->
<g id="edge25" class="edge">
<title>api_sesame&#45;&gt;http_request_value</title>
<path fill="none" stroke="black" d="M1591.61,-221.82C1757.44,-218.24 2125.34,-203.86 2429,-146 2468.23,-138.53 2478.23,-135.56 2515,-120 2529.47,-113.88 2544.68,-105.88 2557.97,-98.32"/>
<polygon fill="black" stroke="black" points="2558.25,-98.16 2561.43,-91.69 2568.62,-92.13 2558.25,-98.16"/>
<g id="a_edge25&#45;label"><a xlink:title="use_module">
<text text-anchor="middle" x="2495" y="-138.8" font-family="Courier,monospace" font-size="9.00">use_module</text>
</a>
</g>
</g>
<!-- cp_messages -->
<g id="node27" class="node">
<title>cp_messages</title>
<g id="a_node27"><a xlink:title="module">
<polygon fill="gainsboro" stroke="black" stroke-dasharray="5,2" points="2784,-92 2698,-92 2698,-96 2686,-96 2686,-56 2784,-56 2784,-92"/>
<polyline fill="none" stroke="black" stroke-dasharray="5,2" points="2686,-92 2698,-92 "/>
<text text-anchor="start" x="2693.8" y="-75.8" font-family="Courier,monospace" font-size="9.00"> </text>
<text text-anchor="start" x="2698.69" y="-75.2" font-family="Courier,monospace" font-size="11.00">cp_messages</text>
<text text-anchor="start" x="2770.8" y="-75.8" font-family="Courier,monospace" font-size="9.00"> </text>
<text text-anchor="start" x="2693.8" y="-65.8" font-family="Courier,monospace" font-size="9.00"> </text>
<text text-anchor="start" x="2722.4" y="-66.4" font-family="Courier,monospace" font-size="7.00">module</text>
<text text-anchor="start" x="2770.8" y="-65.8" font-family="Courier,monospace" font-size="9.00"> </text>
</a>
</g>
</g>
<!-- api_sesame&#45;&gt;cp_messages -->
<g id="edge26" class="edge">
<title>api_sesame&#45;&gt;cp_messages</title>
<path fill="none" stroke="black" d="M1591.54,-219.18C1769.23,-210.9 2181.75,-188.49 2526,-146 2593.59,-137.66 2614.69,-147.47 2677,-120 2688.13,-115.09 2699.03,-107.59 2708.32,-100.1"/>
<polygon fill="black" stroke="black" points="2708.56,-99.9 2710.54,-92.96 2717.7,-92.12 2708.56,-99.9"/>
<g id="a_edge26&#45;label"><a xlink:title="use_module">
<text text-anchor="middle" x="2651" y="-138.8" font-family="Courier,monospace" font-size="9.00">use_module</text>
</a>
</g>
</g>
<!-- json -->
<g id="node28" class="node">
<title>json</title>
<g id="a_node28"><a xlink:title="module">
<polygon fill="gainsboro" stroke="black" stroke-dasharray="5,2" points="2856,-92 2814,-92 2814,-96 2802,-96 2802,-56 2856,-56 2856,-92"/>
<polyline fill="none" stroke="black" stroke-dasharray="5,2" points="2802,-92 2814,-92 "/>
<text text-anchor="start" x="2810.8" y="-75.8" font-family="Courier,monospace" font-size="9.00"> </text>
<text text-anchor="start" x="2815.8" y="-75.2" font-family="Courier,monospace" font-size="11.00">json</text>
<text text-anchor="start" x="2841.8" y="-75.8" font-family="Courier,monospace" font-size="9.00"> </text>
<text text-anchor="start" x="2810.8" y="-65.8" font-family="Courier,monospace" font-size="9.00"> </text>
<text text-anchor="start" x="2816.4" y="-66.4" font-family="Courier,monospace" font-size="7.00">module</text>
<text text-anchor="start" x="2841.8" y="-65.8" font-family="Courier,monospace" font-size="9.00"> </text>
</a>
</g>
</g>
<!-- api_sesame&#45;&gt;json -->
<g id="edge27" class="edge">
<title>api_sesame&#45;&gt;json</title>
<path fill="none" stroke="black" d="M1591.53,-222.19C1788.55,-219.3 2277.74,-206.13 2682,-146 2732.12,-138.55 2750.15,-147.05 2793,-120 2800.28,-115.41 2806.73,-108.82 2812.08,-102.1"/>
<polygon fill="black" stroke="black" points="2812.09,-102.1 2812.36,-94.89 2819.12,-92.37 2812.09,-102.1"/>
<g id="a_edge27&#45;label"><a xlink:title="use_module">
<text text-anchor="middle" x="2782" y="-138.8" font-family="Courier,monospace" font-size="9.00">use_module</text>
</a>
</g>
</g>
<!-- html_basics -->
<g id="node29" class="node">
<title>html_basics</title>
<g id="a_node29"><a xlink:title="module">
<polygon fill="gainsboro" stroke="black" stroke-dasharray="5,2" points="2972,-92 2886,-92 2886,-96 2874,-96 2874,-56 2972,-56 2972,-92"/>
<polyline fill="none" stroke="black" stroke-dasharray="5,2" points="2874,-92 2886,-92 "/>
<text text-anchor="start" x="2881.8" y="-75.8" font-family="Courier,monospace" font-size="9.00"> </text>
<text text-anchor="start" x="2886.69" y="-75.2" font-family="Courier,monospace" font-size="11.00">html_basics</text>
<text text-anchor="start" x="2958.8" y="-75.8" font-family="Courier,monospace" font-size="9.00"> </text>
<text text-anchor="start" x="2881.8" y="-65.8" font-family="Courier,monospace" font-size="9.00"> </text>
<text text-anchor="start" x="2910.4" y="-66.4" font-family="Courier,monospace" font-size="7.00">module</text>
<text text-anchor="start" x="2958.8" y="-65.8" font-family="Courier,monospace" font-size="9.00"> </text>
</a>
</g>
</g>
<!-- api_sesame&#45;&gt;html_basics -->
<g id="edge28" class="edge">
<title>api_sesame&#45;&gt;html_basics</title>
<path fill="none" stroke="black" d="M1591.85,-222.42C1847.56,-220.03 2581.76,-207.81 2813,-146 2843.95,-137.73 2874.16,-117.04 2895.07,-100.12"/>
<polygon fill="black" stroke="black" points="2895.34,-99.89 2897.38,-92.97 2904.54,-92.19 2895.34,-99.89"/>
<g id="a_edge28&#45;label"><a xlink:title="use_module">
<text text-anchor="middle" x="2863" y="-138.8" font-family="Courier,monospace" font-size="9.00">use_module</text>
</a>
</g>
</g>
</g>
</svg>
