<?xml version="1.0" encoding="UTF-8" standalone="no"?>
<!DOCTYPE svg PUBLIC "-//W3C//DTD SVG 1.1//EN"
 "http://www.w3.org/Graphics/SVG/1.1/DTD/svg11.dtd">
<!-- Generated by graphviz version 2.41.20190410.0829 (20190410.0829)
 -->
<!-- Title: setup.pl Pages: 1 -->
<svg width="957pt" height="481pt"
 viewBox="72.00 72.00 885.00 409.00" xmlns="http://www.w3.org/2000/svg" xmlns:xlink="http://www.w3.org/1999/xlink">
<g id="graph0" class="graph" transform="scale(1 1) rotate(0) translate(76 405)">
<title>setup.pl</title>
<polygon fill="white" stroke="transparent" points="-4,4 -4,-333 809,-333 809,4 -4,4"/>
<text text-anchor="start" x="8" y="-16" font-family="Courier,monospace" font-size="10.00" fill="#8b8989">ClioPatria &#45; an RDF application platform</text>
<text text-anchor="start" x="8" y="-6" font-family="Courier,monospace" font-size="10.00" fill="#8b8989">Generated on 2019/04/17, 13:04</text>
<g id="clust1" class="cluster">
<title>cluster_file_/Users/pmoura/ClioPatria/lib/setup.pl</title>
<g id="a_clust1"><a xlink:href="https://github.com/ClioPatria/ClioPatria/tree/add57aa2039eed4033cf96e96c293b2052e88f41/lib/setup.pl" xlink:title="https://github.com/ClioPatria/ClioPatria/tree/add57aa2039eed4033cf96e96c293b2052e88f41/lib/setup.pl">
<path fill="snow" stroke="#8b8989" d="M20,-36C20,-36 785,-36 785,-36 791,-36 797,-42 797,-48 797,-48 797,-309 797,-309 797,-315 791,-321 785,-321 785,-321 20,-321 20,-321 14,-321 8,-315 8,-309 8,-309 8,-48 8,-48 8,-42 14,-36 20,-36"/>
<text text-anchor="middle" x="40" y="-309" font-family="Courier,monospace" font-size="10.00" fill="#8b8989">setup.pl</text>
</a>
</g>
</g>
<g id="clust2" class="cluster">
<title>cluster_other</title>
<g id="a_clust2"><a xlink:title="(external entities)">
<path fill="white" stroke="#8b8989" d="M30,-46C30,-46 711,-46 711,-46 717,-46 723,-52 723,-58 723,-58 723,-108 723,-108 723,-114 717,-120 711,-120 711,-120 30,-120 30,-120 24,-120 18,-114 18,-108 18,-108 18,-58 18,-58 18,-52 24,-46 30,-46"/>
<text text-anchor="middle" x="83.01" y="-108" font-family="Courier,monospace" font-size="10.00" fill="#8b8989">(external entities)</text>
</a>
</g>
</g>
<!-- setup -->
<g id="node1" class="node">
<title>setup</title>
<g id="a_node1"><a xlink:title="module">
<polygon fill="gainsboro" stroke="black" points="512.5,-293 357.5,-293 357.5,-297 345.5,-297 345.5,-191 512.5,-191 512.5,-293"/>
<polyline fill="none" stroke="black" points="345.5,-293 357.5,-293 "/>
<g id="a_node1_0"><a xlink:href="setup_module_xref_diagram.svg" xlink:title="Zoom">
<image xlink:href="zoom.png" width="11px" height="11px" preserveAspectRatio="xMinYMin meet" x="354" y="-289"/>
</a>
</g>
<text text-anchor="start" x="356.8" y="-269.8" font-family="Courier,monospace" font-size="9.00"> </text>
<text text-anchor="start" x="416" y="-269.2" font-family="Courier,monospace" font-size="11.00">setup</text>
<text text-anchor="start" x="499.8" y="-269.8" font-family="Courier,monospace" font-size="9.00"> </text>
<text text-anchor="start" x="356.8" y="-259.8" font-family="Courier,monospace" font-size="9.00"> </text>
<text text-anchor="start" x="419.9" y="-260.4" font-family="Courier,monospace" font-size="7.00">module</text>
<text text-anchor="start" x="499.8" y="-259.8" font-family="Courier,monospace" font-size="9.00"> </text>
<text text-anchor="start" x="356.8" y="-250.8" font-family="Courier,monospace" font-size="9.00"> </text>
<text text-anchor="start" x="356.8" y="-241.8" font-family="Courier,monospace" font-size="9.00"> </text>
<text text-anchor="start" x="373.09" y="-241.8" font-family="Courier,monospace" font-size="9.00">setup_default_config/3</text>
<text text-anchor="start" x="499.8" y="-241.8" font-family="Courier,monospace" font-size="9.00"> </text>
<text text-anchor="start" x="356.8" y="-232.8" font-family="Courier,monospace" font-size="9.00"> </text>
<text text-anchor="start" x="391.99" y="-232.8" font-family="Courier,monospace" font-size="9.00">setup_scripts/2</text>
<text text-anchor="start" x="499.8" y="-232.8" font-family="Courier,monospace" font-size="9.00"> </text>
<text text-anchor="start" x="356.8" y="-223.8" font-family="Courier,monospace" font-size="9.00"> </text>
<text text-anchor="start" x="364.99" y="-223.8" font-family="Courier,monospace" font-size="9.00">setup_prolog_executable/1</text>
<text text-anchor="start" x="499.8" y="-223.8" font-family="Courier,monospace" font-size="9.00"> </text>
<text text-anchor="start" x="356.8" y="-214.8" font-family="Courier,monospace" font-size="9.00"> </text>
<text text-anchor="start" x="391.99" y="-214.8" font-family="Courier,monospace" font-size="9.00">setup_goodbye/0</text>
<text text-anchor="start" x="499.8" y="-214.8" font-family="Courier,monospace" font-size="9.00"> </text>
<text text-anchor="start" x="356.8" y="-205.8" font-family="Courier,monospace" font-size="9.00"> </text>
<text text-anchor="start" x="375.79" y="-205.8" font-family="Courier,monospace" font-size="9.00">copy_file_with_vars/3</text>
<text text-anchor="start" x="499.8" y="-205.8" font-family="Courier,monospace" font-size="9.00"> </text>
<text text-anchor="start" x="356.8" y="-196.8" font-family="Courier,monospace" font-size="9.00"> </text>
<text text-anchor="start" x="389.29" y="-196.8" font-family="Courier,monospace" font-size="9.00">prolog:message/3</text>
<text text-anchor="start" x="499.8" y="-196.8" font-family="Courier,monospace" font-size="9.00"> </text>
</a>
</g>
</g>
<!-- apply -->
<g id="node2" class="node">
<title>apply</title>
<g id="a_node2"><a xlink:title="module">
<polygon fill="gainsboro" stroke="black" stroke-dasharray="5,2" points="87.5,-92 40.5,-92 40.5,-96 28.5,-96 28.5,-56 87.5,-56 87.5,-92"/>
<polyline fill="none" stroke="black" stroke-dasharray="5,2" points="28.5,-92 40.5,-92 "/>
<text text-anchor="start" x="36.8" y="-75.8" font-family="Courier,monospace" font-size="9.00"> </text>
<text text-anchor="start" x="42" y="-75.2" font-family="Courier,monospace" font-size="11.00">apply</text>
<text text-anchor="start" x="74.8" y="-75.8" font-family="Courier,monospace" font-size="9.00"> </text>
<text text-anchor="start" x="36.8" y="-65.8" font-family="Courier,monospace" font-size="9.00"> </text>
<text text-anchor="start" x="45.9" y="-66.4" font-family="Courier,monospace" font-size="7.00">module</text>
<text text-anchor="start" x="74.8" y="-65.8" font-family="Courier,monospace" font-size="9.00"> </text>
</a>
</g>
</g>
<!-- setup&#45;&gt;apply -->
<g id="edge2" class="edge">
<title>setup&#45;&gt;apply</title>
<path fill="none" stroke="black" d="M345.2,-223.36C274.41,-205.58 172.75,-173.05 97,-120 89.83,-114.98 83.14,-108.36 77.39,-101.74"/>
<polygon fill="black" stroke="black" points="77.25,-101.57 70.37,-99.43 69.7,-92.25 77.25,-101.57"/>
<g id="a_edge2&#45;label"><a xlink:title="use_module">
<text text-anchor="middle" x="164" y="-138.8" font-family="Courier,monospace" font-size="9.00">use_module</text>
</a>
</g>
</g>
<!-- files_ex -->
<g id="node3" class="node">
<title>files_ex</title>
<g id="a_node3"><a xlink:title="module">
<polygon fill="gainsboro" stroke="black" stroke-dasharray="5,2" points="184,-92 118,-92 118,-96 106,-96 106,-56 184,-56 184,-92"/>
<polyline fill="none" stroke="black" stroke-dasharray="5,2" points="106,-92 118,-92 "/>
<text text-anchor="start" x="113.8" y="-75.8" font-family="Courier,monospace" font-size="9.00"> </text>
<text text-anchor="start" x="118.6" y="-75.2" font-family="Courier,monospace" font-size="11.00">files_ex</text>
<text text-anchor="start" x="170.8" y="-75.8" font-family="Courier,monospace" font-size="9.00"> </text>
<text text-anchor="start" x="113.8" y="-65.8" font-family="Courier,monospace" font-size="9.00"> </text>
<text text-anchor="start" x="132.4" y="-66.4" font-family="Courier,monospace" font-size="7.00">module</text>
<text text-anchor="start" x="170.8" y="-65.8" font-family="Courier,monospace" font-size="9.00"> </text>
</a>
</g>
</g>
<!-- setup&#45;&gt;files_ex -->
<g id="edge3" class="edge">
<title>setup&#45;&gt;files_ex</title>
<path fill="none" stroke="black" d="M345.44,-205.19C298.96,-183.54 241.16,-153.65 194,-120 186.11,-114.37 178.14,-107.6 170.97,-101.04"/>
<polygon fill="black" stroke="black" points="170.51,-100.6 163.4,-99.38 161.79,-92.35 170.51,-100.6"/>
<g id="a_edge3&#45;label"><a xlink:title="use_module">
<text text-anchor="middle" x="257" y="-138.8" font-family="Courier,monospace" font-size="9.00">use_module</text>
</a>
</g>
</g>
<!-- read_util -->
<g id="node4" class="node">
<title>read_util</title>
<g id="a_node4"><a xlink:title="module">
<polygon fill="gainsboro" stroke="black" stroke-dasharray="5,2" points="287.5,-92 214.5,-92 214.5,-96 202.5,-96 202.5,-56 287.5,-56 287.5,-92"/>
<polyline fill="none" stroke="black" stroke-dasharray="5,2" points="202.5,-92 214.5,-92 "/>
<text text-anchor="start" x="210.8" y="-75.8" font-family="Courier,monospace" font-size="9.00"> </text>
<text text-anchor="start" x="215.8" y="-75.2" font-family="Courier,monospace" font-size="11.00">read_util</text>
<text text-anchor="start" x="274.8" y="-75.8" font-family="Courier,monospace" font-size="9.00"> </text>
<text text-anchor="start" x="210.8" y="-65.8" font-family="Courier,monospace" font-size="9.00"> </text>
<text text-anchor="start" x="232.9" y="-66.4" font-family="Courier,monospace" font-size="7.00">module</text>
<text text-anchor="start" x="274.8" y="-65.8" font-family="Courier,monospace" font-size="9.00"> </text>
</a>
</g>
</g>
<!-- setup&#45;&gt;read_util -->
<g id="edge4" class="edge">
<title>setup&#45;&gt;read_util</title>
<path fill="none" stroke="black" d="M360.65,-190.8C342.97,-176.9 324.33,-161.38 307.99,-146 293.32,-132.18 278.29,-115.36 266.59,-101.56"/>
<polygon fill="black" stroke="black" points="266.41,-101.34 259.49,-99.3 258.71,-92.13 266.41,-101.34"/>
<g id="a_edge4&#45;label"><a xlink:title="use_module">
<text text-anchor="middle" x="334" y="-138.8" font-family="Courier,monospace" font-size="9.00">use_module</text>
</a>
</g>
</g>
<!-- lists -->
<g id="node5" class="node">
<title>lists</title>
<g id="a_node5"><a xlink:title="module">
<polygon fill="gainsboro" stroke="black" stroke-dasharray="5,2" points="364.5,-92 317.5,-92 317.5,-96 305.5,-96 305.5,-56 364.5,-56 364.5,-92"/>
<polyline fill="none" stroke="black" stroke-dasharray="5,2" points="305.5,-92 317.5,-92 "/>
<text text-anchor="start" x="313.8" y="-75.8" font-family="Courier,monospace" font-size="9.00"> </text>
<text text-anchor="start" x="319" y="-75.2" font-family="Courier,monospace" font-size="11.00">lists</text>
<text text-anchor="start" x="351.8" y="-75.8" font-family="Courier,monospace" font-size="9.00"> </text>
<text text-anchor="start" x="313.8" y="-65.8" font-family="Courier,monospace" font-size="9.00"> </text>
<text text-anchor="start" x="322.9" y="-66.4" font-family="Courier,monospace" font-size="7.00">module</text>
<text text-anchor="start" x="351.8" y="-65.8" font-family="Courier,monospace" font-size="9.00"> </text>
</a>
</g>
</g>
<!-- setup&#45;&gt;lists -->
<g id="edge5" class="edge">
<title>setup&#45;&gt;lists</title>
<path fill="none" stroke="black" d="M397.24,-190.66C388.5,-176.36 379.18,-160.68 370.99,-146 363.18,-132 355.06,-116.1 348.51,-102.91"/>
<polygon fill="black" stroke="black" points="348.5,-102.89 342.27,-99.27 343.21,-92.13 348.5,-102.89"/>
<g id="a_edge5&#45;label"><a xlink:title="use_module">
<text text-anchor="middle" x="397" y="-138.8" font-family="Courier,monospace" font-size="9.00">use_module</text>
</a>
</g>
</g>
<!-- swi_option -->
<g id="node6" class="node">
<title>swi_option</title>
<g id="a_node6"><a xlink:title="module">
<polygon fill="gainsboro" stroke="black" stroke-dasharray="5,2" points="475,-92 395,-92 395,-96 383,-96 383,-56 475,-56 475,-92"/>
<polyline fill="none" stroke="black" stroke-dasharray="5,2" points="383,-92 395,-92 "/>
<text text-anchor="start" x="390.8" y="-75.8" font-family="Courier,monospace" font-size="9.00"> </text>
<text text-anchor="start" x="395.99" y="-75.2" font-family="Courier,monospace" font-size="11.00">swi_option</text>
<text text-anchor="start" x="461.8" y="-75.8" font-family="Courier,monospace" font-size="9.00"> </text>
<text text-anchor="start" x="390.8" y="-65.8" font-family="Courier,monospace" font-size="9.00"> </text>
<text text-anchor="start" x="416.4" y="-66.4" font-family="Courier,monospace" font-size="7.00">module</text>
<text text-anchor="start" x="461.8" y="-65.8" font-family="Courier,monospace" font-size="9.00"> </text>
</a>
</g>
</g>
<!-- setup&#45;&gt;swi_option -->
<g id="edge6" class="edge">
<title>setup&#45;&gt;swi_option</title>
<path fill="none" stroke="black" d="M429,-190.74C429,-162.4 429,-127.99 429,-104.1"/>
<polygon fill="black" stroke="black" points="429,-104 425,-98 429,-92 429,-104"/>
<g id="a_edge6&#45;label"><a xlink:title="use_module">
<text text-anchor="middle" x="456" y="-138.8" font-family="Courier,monospace" font-size="9.00">use_module</text>
</a>
</g>
</g>
<!-- error -->
<g id="node7" class="node">
<title>error</title>
<g id="a_node7"><a xlink:title="module">
<polygon fill="gainsboro" stroke="black" stroke-dasharray="5,2" points="552.5,-92 505.5,-92 505.5,-96 493.5,-96 493.5,-56 552.5,-56 552.5,-92"/>
<polyline fill="none" stroke="black" stroke-dasharray="5,2" points="493.5,-92 505.5,-92 "/>
<text text-anchor="start" x="501.8" y="-75.8" font-family="Courier,monospace" font-size="9.00"> </text>
<text text-anchor="start" x="507" y="-75.2" font-family="Courier,monospace" font-size="11.00">error</text>
<text text-anchor="start" x="539.8" y="-75.8" font-family="Courier,monospace" font-size="9.00"> </text>
<text text-anchor="start" x="501.8" y="-65.8" font-family="Courier,monospace" font-size="9.00"> </text>
<text text-anchor="start" x="510.9" y="-66.4" font-family="Courier,monospace" font-size="7.00">module</text>
<text text-anchor="start" x="539.8" y="-65.8" font-family="Courier,monospace" font-size="9.00"> </text>
</a>
</g>
</g>
<!-- setup&#45;&gt;error -->
<g id="edge7" class="edge">
<title>setup&#45;&gt;error</title>
<path fill="none" stroke="black" d="M460.75,-190.66C469.49,-176.36 478.81,-160.68 487,-146 494.81,-132 502.93,-116.1 509.48,-102.91"/>
<polygon fill="black" stroke="black" points="509.49,-102.89 508.55,-95.74 514.79,-92.13 509.49,-102.89"/>
<g id="a_edge7&#45;label"><a xlink:title="use_module">
<text text-anchor="middle" x="518" y="-138.8" font-family="Courier,monospace" font-size="9.00">use_module</text>
</a>
</g>
</g>
<!-- pldoc -->
<g id="node8" class="node">
<title>pldoc</title>
<g id="a_node8"><a xlink:title="module">
<polygon fill="gainsboro" stroke="black" stroke-dasharray="5,2" points="629.5,-92 582.5,-92 582.5,-96 570.5,-96 570.5,-56 629.5,-56 629.5,-92"/>
<polyline fill="none" stroke="black" stroke-dasharray="5,2" points="570.5,-92 582.5,-92 "/>
<text text-anchor="start" x="578.8" y="-75.8" font-family="Courier,monospace" font-size="9.00"> </text>
<text text-anchor="start" x="584" y="-75.2" font-family="Courier,monospace" font-size="11.00">pldoc</text>
<text text-anchor="start" x="616.8" y="-75.8" font-family="Courier,monospace" font-size="9.00"> </text>
<text text-anchor="start" x="578.8" y="-65.8" font-family="Courier,monospace" font-size="9.00"> </text>
<text text-anchor="start" x="587.9" y="-66.4" font-family="Courier,monospace" font-size="7.00">module</text>
<text text-anchor="start" x="616.8" y="-65.8" font-family="Courier,monospace" font-size="9.00"> </text>
</a>
</g>
</g>
<!-- setup&#45;&gt;pldoc -->
<g id="edge8" class="edge">
<title>setup&#45;&gt;pldoc</title>
<path fill="none" stroke="black" d="M499.1,-190.84C516.24,-177.17 533.96,-161.76 549,-146 561.65,-132.74 573.71,-116.2 582.92,-102.42"/>
<polygon fill="black" stroke="black" points="583.11,-102.13 583.04,-94.92 589.66,-92.07 583.11,-102.13"/>
<g id="a_edge8&#45;label"><a xlink:title="use_module">
<text text-anchor="middle" x="583" y="-138.8" font-family="Courier,monospace" font-size="9.00">use_module</text>
</a>
</g>
</g>
<!-- conf_d -->
<g id="node9" class="node">
<title>conf_d</title>
<g id="a_node9"><a xlink:title="module">
<polygon fill="gainsboro" stroke="black" stroke-dasharray="5,2" points="712.5,-92 659.5,-92 659.5,-96 647.5,-96 647.5,-56 712.5,-56 712.5,-92"/>
<polyline fill="none" stroke="black" stroke-dasharray="5,2" points="647.5,-92 659.5,-92 "/>
<text text-anchor="start" x="655.8" y="-75.8" font-family="Courier,monospace" font-size="9.00"> </text>
<text text-anchor="start" x="660.7" y="-75.2" font-family="Courier,monospace" font-size="11.00">conf_d</text>
<text text-anchor="start" x="699.8" y="-75.8" font-family="Courier,monospace" font-size="9.00"> </text>
<text text-anchor="start" x="655.8" y="-65.8" font-family="Courier,monospace" font-size="9.00"> </text>
<text text-anchor="start" x="667.9" y="-66.4" font-family="Courier,monospace" font-size="7.00">module</text>
<text text-anchor="start" x="699.8" y="-65.8" font-family="Courier,monospace" font-size="9.00"> </text>
</a>
</g>
</g>
<!-- setup&#45;&gt;conf_d -->
<g id="edge9" class="edge">
<title>setup&#45;&gt;conf_d</title>
<path fill="none" stroke="black" d="M512.56,-205.35C545.6,-189.44 583.01,-169.06 614,-146 631,-133.35 647.25,-115.96 659.37,-101.56"/>
<polygon fill="black" stroke="black" points="659.46,-101.45 660.16,-94.27 667.06,-92.16 659.46,-101.45"/>
<g id="a_edge9&#45;label"><a xlink:title="use_module">
<text text-anchor="middle" x="651" y="-138.8" font-family="Courier,monospace" font-size="9.00">use_module</text>
</a>
</g>
</g>
<!-- prolog -->
<g id="node10" class="node">
<title>prolog</title>
<ellipse fill="white" stroke="black" cx="760" cy="-74" rx="27.41" ry="18"/>
<text text-anchor="middle" x="760" y="-71.3" font-family="Courier,monospace" font-size="9.00">prolog</text>
</g>
<!-- setup&#45;&gt;prolog -->
<g id="edge1" class="edge">
<title>setup&#45;&gt;prolog</title>
<path fill="none" stroke="black" d="M512.75,-213.46C562.72,-196.06 626.96,-172.02 682,-146 702.88,-136.13 709.8,-135.42 727,-120 733.49,-114.18 739.5,-106.89 744.56,-99.88"/>
<polygon fill="black" stroke="black" points="753.31,-93.26 744.78,-99.55 747.53,-89.32 753.31,-93.26"/>
<g id="a_edge1&#45;label"><a xlink:title="provides">
<text text-anchor="middle" x="722.6" y="-138.8" font-family="Courier,monospace" font-size="9.00">provides</text>
</a>
</g>
</g>
</g>
</svg>
