<?xml version="1.0" encoding="UTF-8" standalone="no"?>
<!DOCTYPE svg PUBLIC "-//W3C//DTD SVG 1.1//EN"
 "http://www.w3.org/Graphics/SVG/1.1/DTD/svg11.dtd">
<!-- Generated by graphviz version 2.41.20190410.0829 (20190410.0829)
 -->
<!-- Title: simple_search.pl Pages: 1 -->
<svg width="1858pt" height="454pt"
 viewBox="72.00 72.00 1786.00 382.00" xmlns="http://www.w3.org/2000/svg" xmlns:xlink="http://www.w3.org/1999/xlink">
<g id="graph0" class="graph" transform="scale(1 1) rotate(0) translate(76 378)">
<title>simple_search.pl</title>
<polygon fill="white" stroke="transparent" points="-4,4 -4,-306 1710,-306 1710,4 -4,4"/>
<text text-anchor="start" x="8" y="-16" font-family="Courier,monospace" font-size="10.00" fill="#8b8989">ClioPatria &#45; an RDF application platform</text>
<text text-anchor="start" x="8" y="-6" font-family="Courier,monospace" font-size="10.00" fill="#8b8989">Generated on 2019/04/17, 13:04</text>
<g id="clust1" class="cluster">
<title>cluster_file_/Users/pmoura/ClioPatria/components/simple_search.pl</title>
<g id="a_clust1"><a xlink:href="https://github.com/ClioPatria/ClioPatria/tree/add57aa2039eed4033cf96e96c293b2052e88f41/components/simple_search.pl" xlink:title="https://github.com/ClioPatria/ClioPatria/tree/add57aa2039eed4033cf96e96c293b2052e88f41/components/simple_search.pl">
<path fill="snow" stroke="#8b8989" d="M20,-36C20,-36 1686,-36 1686,-36 1692,-36 1698,-42 1698,-48 1698,-48 1698,-282 1698,-282 1698,-288 1692,-294 1686,-294 1686,-294 20,-294 20,-294 14,-294 8,-288 8,-282 8,-282 8,-48 8,-48 8,-42 14,-36 20,-36"/>
<text text-anchor="middle" x="64.01" y="-282" font-family="Courier,monospace" font-size="10.00" fill="#8b8989">simple_search.pl</text>
</a>
</g>
</g>
<g id="clust2" class="cluster">
<title>cluster_other</title>
<g id="a_clust2"><a xlink:title="(external entities)">
<path fill="white" stroke="#8b8989" d="M30,-46C30,-46 1676,-46 1676,-46 1682,-46 1688,-52 1688,-58 1688,-58 1688,-108 1688,-108 1688,-114 1682,-120 1676,-120 1676,-120 30,-120 30,-120 24,-120 18,-114 18,-108 18,-108 18,-58 18,-58 18,-52 24,-46 30,-46"/>
<text text-anchor="middle" x="83.01" y="-108" font-family="Courier,monospace" font-size="10.00" fill="#8b8989">(external entities)</text>
</a>
</g>
</g>
<!-- cp_simple_search -->
<g id="node1" class="node">
<title>cp_simple_search</title>
<g id="a_node1"><a xlink:title="module">
<polygon fill="gainsboro" stroke="black" points="1045,-266 917,-266 917,-270 905,-270 905,-191 1045,-191 1045,-266"/>
<polyline fill="none" stroke="black" points="905,-266 917,-266 "/>
<g id="a_node1_0"><a xlink:href="cp_simple_search_module_xref_diagram.svg" xlink:title="Zoom">
<image xlink:href="zoom.png" width="11px" height="11px" preserveAspectRatio="xMinYMin meet" x="913" y="-261.5"/>
</a>
</g>
<text text-anchor="start" x="915.8" y="-242.3" font-family="Courier,monospace" font-size="9.00"> </text>
<text text-anchor="start" x="925.19" y="-241.7" font-family="Courier,monospace" font-size="11.00">cp_simple_search</text>
<text text-anchor="start" x="1031.8" y="-242.3" font-family="Courier,monospace" font-size="9.00"> </text>
<text text-anchor="start" x="915.8" y="-232.3" font-family="Courier,monospace" font-size="9.00"> </text>
<text text-anchor="start" x="965.4" y="-232.9" font-family="Courier,monospace" font-size="7.00">module</text>
<text text-anchor="start" x="1031.8" y="-232.3" font-family="Courier,monospace" font-size="9.00"> </text>
<text text-anchor="start" x="915.8" y="-223.3" font-family="Courier,monospace" font-size="9.00"> </text>
<text text-anchor="start" x="915.8" y="-214.3" font-family="Courier,monospace" font-size="9.00"> </text>
<text text-anchor="start" x="923.99" y="-214.3" font-family="Courier,monospace" font-size="9.00">simple_search_form/2</text>
<text text-anchor="start" x="1031.8" y="-214.3" font-family="Courier,monospace" font-size="9.00"> </text>
<text text-anchor="start" x="915.8" y="-205.3" font-family="Courier,monospace" font-size="9.00"> </text>
<text text-anchor="start" x="923.99" y="-205.3" font-family="Courier,monospace" font-size="9.00">simple_search_form/3</text>
<text text-anchor="start" x="1031.8" y="-205.3" font-family="Courier,monospace" font-size="9.00"> </text>
<text text-anchor="start" x="915.8" y="-196.3" font-family="Courier,monospace" font-size="9.00"> </text>
<text text-anchor="start" x="937.49" y="-196.3" font-family="Courier,monospace" font-size="9.00">search_filter/2</text>
<text text-anchor="start" x="1031.8" y="-196.3" font-family="Courier,monospace" font-size="9.00"> </text>
</a>
</g>
</g>
<!-- http_dispatch -->
<g id="node2" class="node">
<title>http_dispatch</title>
<g id="a_node2"><a xlink:title="module">
<polygon fill="gainsboro" stroke="black" stroke-dasharray="5,2" points="139.5,-92 40.5,-92 40.5,-96 28.5,-96 28.5,-56 139.5,-56 139.5,-92"/>
<polyline fill="none" stroke="black" stroke-dasharray="5,2" points="28.5,-92 40.5,-92 "/>
<text text-anchor="start" x="36.8" y="-75.8" font-family="Courier,monospace" font-size="9.00"> </text>
<text text-anchor="start" x="41.59" y="-75.2" font-family="Courier,monospace" font-size="11.00">http_dispatch</text>
<text text-anchor="start" x="126.8" y="-75.8" font-family="Courier,monospace" font-size="9.00"> </text>
<text text-anchor="start" x="36.8" y="-65.8" font-family="Courier,monospace" font-size="9.00"> </text>
<text text-anchor="start" x="71.9" y="-66.4" font-family="Courier,monospace" font-size="7.00">module</text>
<text text-anchor="start" x="126.8" y="-65.8" font-family="Courier,monospace" font-size="9.00"> </text>
</a>
</g>
</g>
<!-- cp_simple_search&#45;&gt;http_dispatch -->
<g id="edge1" class="edge">
<title>cp_simple_search&#45;&gt;http_dispatch</title>
<path fill="none" stroke="black" d="M904.98,-223.12C774.61,-214.2 486.21,-190.87 246.99,-146 202.7,-137.69 189.91,-138.88 149,-120 137.13,-114.52 125.09,-106.89 114.66,-99.47"/>
<polygon fill="black" stroke="black" points="114.48,-99.33 107.27,-98.98 104.82,-92.2 114.48,-99.33"/>
<g id="a_edge1&#45;label"><a xlink:title="use_module">
<text text-anchor="middle" x="273" y="-138.8" font-family="Courier,monospace" font-size="9.00">use_module</text>
</a>
</g>
</g>
<!-- swi_option -->
<g id="node3" class="node">
<title>swi_option</title>
<g id="a_node3"><a xlink:title="module">
<polygon fill="gainsboro" stroke="black" stroke-dasharray="5,2" points="250,-92 170,-92 170,-96 158,-96 158,-56 250,-56 250,-92"/>
<polyline fill="none" stroke="black" stroke-dasharray="5,2" points="158,-92 170,-92 "/>
<text text-anchor="start" x="165.8" y="-75.8" font-family="Courier,monospace" font-size="9.00"> </text>
<text text-anchor="start" x="170.99" y="-75.2" font-family="Courier,monospace" font-size="11.00">swi_option</text>
<text text-anchor="start" x="236.8" y="-75.8" font-family="Courier,monospace" font-size="9.00"> </text>
<text text-anchor="start" x="165.8" y="-65.8" font-family="Courier,monospace" font-size="9.00"> </text>
<text text-anchor="start" x="191.4" y="-66.4" font-family="Courier,monospace" font-size="7.00">module</text>
<text text-anchor="start" x="236.8" y="-65.8" font-family="Courier,monospace" font-size="9.00"> </text>
</a>
</g>
</g>
<!-- cp_simple_search&#45;&gt;swi_option -->
<g id="edge2" class="edge">
<title>cp_simple_search&#45;&gt;swi_option</title>
<path fill="none" stroke="black" d="M904.8,-221.05C789.97,-209.86 555.13,-184.32 358.99,-146 313.93,-137.19 299.94,-140.8 259,-120 248.77,-114.8 238.72,-107.44 230.06,-100.18"/>
<polygon fill="black" stroke="black" points="229.94,-100.07 222.79,-99.1 220.94,-92.14 229.94,-100.07"/>
<g id="a_edge2&#45;label"><a xlink:title="use_module">
<text text-anchor="middle" x="385" y="-138.8" font-family="Courier,monospace" font-size="9.00">use_module</text>
</a>
</g>
</g>
<!-- html_write -->
<g id="node4" class="node">
<title>html_write</title>
<g id="a_node4"><a xlink:title="module">
<polygon fill="gainsboro" stroke="black" stroke-dasharray="5,2" points="360,-92 280,-92 280,-96 268,-96 268,-56 360,-56 360,-92"/>
<polyline fill="none" stroke="black" stroke-dasharray="5,2" points="268,-92 280,-92 "/>
<text text-anchor="start" x="275.8" y="-75.8" font-family="Courier,monospace" font-size="9.00"> </text>
<text text-anchor="start" x="280.99" y="-75.2" font-family="Courier,monospace" font-size="11.00">html_write</text>
<text text-anchor="start" x="346.8" y="-75.8" font-family="Courier,monospace" font-size="9.00"> </text>
<text text-anchor="start" x="275.8" y="-65.8" font-family="Courier,monospace" font-size="9.00"> </text>
<text text-anchor="start" x="301.4" y="-66.4" font-family="Courier,monospace" font-size="7.00">module</text>
<text text-anchor="start" x="346.8" y="-65.8" font-family="Courier,monospace" font-size="9.00"> </text>
</a>
</g>
</g>
<!-- cp_simple_search&#45;&gt;html_write -->
<g id="edge3" class="edge">
<title>cp_simple_search&#45;&gt;html_write</title>
<path fill="none" stroke="black" d="M904.67,-218.07C807.09,-204.53 625.33,-177.72 471.99,-146 425.76,-136.44 411.17,-141.23 369,-120 358.75,-114.84 348.69,-107.49 340.03,-100.22"/>
<polygon fill="black" stroke="black" points="339.92,-100.12 332.77,-99.14 330.92,-92.17 339.92,-100.12"/>
<g id="a_edge3&#45;label"><a xlink:title="use_module">
<text text-anchor="middle" x="498" y="-138.8" font-family="Courier,monospace" font-size="9.00">use_module</text>
</a>
</g>
</g>
<!-- html_basics -->
<g id="node5" class="node">
<title>html_basics</title>
<g id="a_node5"><a xlink:title="module">
<polygon fill="gainsboro" stroke="black" stroke-dasharray="5,2" points="476,-92 390,-92 390,-96 378,-96 378,-56 476,-56 476,-92"/>
<polyline fill="none" stroke="black" stroke-dasharray="5,2" points="378,-92 390,-92 "/>
<text text-anchor="start" x="385.8" y="-75.8" font-family="Courier,monospace" font-size="9.00"> </text>
<text text-anchor="start" x="390.69" y="-75.2" font-family="Courier,monospace" font-size="11.00">html_basics</text>
<text text-anchor="start" x="462.8" y="-75.8" font-family="Courier,monospace" font-size="9.00"> </text>
<text text-anchor="start" x="385.8" y="-65.8" font-family="Courier,monospace" font-size="9.00"> </text>
<text text-anchor="start" x="414.4" y="-66.4" font-family="Courier,monospace" font-size="7.00">module</text>
<text text-anchor="start" x="462.8" y="-65.8" font-family="Courier,monospace" font-size="9.00"> </text>
</a>
</g>
</g>
<!-- cp_simple_search&#45;&gt;html_basics -->
<g id="edge4" class="edge">
<title>cp_simple_search&#45;&gt;html_basics</title>
<path fill="none" stroke="black" d="M904.81,-215.73C823.46,-201.56 685.64,-175.89 568.99,-146 531.55,-136.41 520.33,-137.77 486,-120 475.33,-114.48 464.6,-107.01 455.28,-99.74"/>
<polygon fill="black" stroke="black" points="455.1,-99.59 447.92,-98.92 445.78,-92.04 455.1,-99.59"/>
<g id="a_edge4&#45;label"><a xlink:title="use_module">
<text text-anchor="middle" x="595" y="-138.8" font-family="Courier,monospace" font-size="9.00">use_module</text>
</a>
</g>
</g>
<!-- html_head -->
<g id="node6" class="node">
<title>html_head</title>
<g id="a_node6"><a xlink:title="module">
<polygon fill="gainsboro" stroke="black" stroke-dasharray="5,2" points="579.5,-92 506.5,-92 506.5,-96 494.5,-96 494.5,-56 579.5,-56 579.5,-92"/>
<polyline fill="none" stroke="black" stroke-dasharray="5,2" points="494.5,-92 506.5,-92 "/>
<text text-anchor="start" x="502.8" y="-75.8" font-family="Courier,monospace" font-size="9.00"> </text>
<text text-anchor="start" x="507.8" y="-75.2" font-family="Courier,monospace" font-size="11.00">html_head</text>
<text text-anchor="start" x="566.8" y="-75.8" font-family="Courier,monospace" font-size="9.00"> </text>
<text text-anchor="start" x="502.8" y="-65.8" font-family="Courier,monospace" font-size="9.00"> </text>
<text text-anchor="start" x="524.9" y="-66.4" font-family="Courier,monospace" font-size="7.00">module</text>
<text text-anchor="start" x="566.8" y="-65.8" font-family="Courier,monospace" font-size="9.00"> </text>
</a>
</g>
</g>
<!-- cp_simple_search&#45;&gt;html_head -->
<g id="edge5" class="edge">
<title>cp_simple_search&#45;&gt;html_head</title>
<path fill="none" stroke="black" d="M904.94,-217.55C824.82,-204.06 691.49,-175.06 589,-120 579.32,-114.8 569.89,-107.53 561.77,-100.34"/>
<polygon fill="black" stroke="black" points="561.68,-100.26 554.56,-99.09 552.9,-92.08 561.68,-100.26"/>
<g id="a_edge5&#45;label"><a xlink:title="use_module">
<text text-anchor="middle" x="664" y="-138.8" font-family="Courier,monospace" font-size="9.00">use_module</text>
</a>
</g>
</g>
<!-- httpd_wrapper -->
<g id="node7" class="node">
<title>httpd_wrapper</title>
<g id="a_node7"><a xlink:title="module">
<polygon fill="gainsboro" stroke="black" stroke-dasharray="5,2" points="708.5,-92 609.5,-92 609.5,-96 597.5,-96 597.5,-56 708.5,-56 708.5,-92"/>
<polyline fill="none" stroke="black" stroke-dasharray="5,2" points="597.5,-92 609.5,-92 "/>
<text text-anchor="start" x="605.8" y="-75.8" font-family="Courier,monospace" font-size="9.00"> </text>
<text text-anchor="start" x="610.59" y="-75.2" font-family="Courier,monospace" font-size="11.00">httpd_wrapper</text>
<text text-anchor="start" x="695.8" y="-75.8" font-family="Courier,monospace" font-size="9.00"> </text>
<text text-anchor="start" x="605.8" y="-65.8" font-family="Courier,monospace" font-size="9.00"> </text>
<text text-anchor="start" x="640.9" y="-66.4" font-family="Courier,monospace" font-size="7.00">module</text>
<text text-anchor="start" x="695.8" y="-65.8" font-family="Courier,monospace" font-size="9.00"> </text>
</a>
</g>
</g>
<!-- cp_simple_search&#45;&gt;httpd_wrapper -->
<g id="edge6" class="edge">
<title>cp_simple_search&#45;&gt;httpd_wrapper</title>
<path fill="none" stroke="black" d="M904.69,-206.51C860.51,-192.1 803.01,-171.09 754.99,-146 729.75,-132.81 703.43,-114.35 683.84,-99.56"/>
<polygon fill="black" stroke="black" points="683.78,-99.51 676.58,-99.03 674.26,-92.2 683.78,-99.51"/>
<g id="a_edge6&#45;label"><a xlink:title="use_module">
<text text-anchor="middle" x="781" y="-138.8" font-family="Courier,monospace" font-size="9.00">use_module</text>
</a>
</g>
</g>
<!-- uri -->
<g id="node8" class="node">
<title>uri</title>
<g id="a_node8"><a xlink:title="module">
<polygon fill="gainsboro" stroke="black" stroke-dasharray="5,2" points="781,-92 739,-92 739,-96 727,-96 727,-56 781,-56 781,-92"/>
<polyline fill="none" stroke="black" stroke-dasharray="5,2" points="727,-92 739,-92 "/>
<text text-anchor="start" x="736.8" y="-75.8" font-family="Courier,monospace" font-size="9.00"> </text>
<text text-anchor="start" x="744.6" y="-75.2" font-family="Courier,monospace" font-size="11.00">uri</text>
<text text-anchor="start" x="766.8" y="-75.8" font-family="Courier,monospace" font-size="9.00"> </text>
<text text-anchor="start" x="736.8" y="-65.8" font-family="Courier,monospace" font-size="9.00"> </text>
<text text-anchor="start" x="741.9" y="-66.4" font-family="Courier,monospace" font-size="7.00">module</text>
<text text-anchor="start" x="766.8" y="-65.8" font-family="Courier,monospace" font-size="9.00"> </text>
</a>
</g>
</g>
<!-- cp_simple_search&#45;&gt;uri -->
<g id="edge7" class="edge">
<title>cp_simple_search&#45;&gt;uri</title>
<path fill="none" stroke="black" d="M904.77,-194.04C868.75,-175.06 825.36,-149.27 791,-120 784.74,-114.66 778.71,-108.17 773.42,-101.8"/>
<polygon fill="black" stroke="black" points="773.18,-101.49 766.32,-99.26 765.75,-92.07 773.18,-101.49"/>
<g id="a_edge7&#45;label"><a xlink:title="use_module">
<text text-anchor="middle" x="850" y="-138.8" font-family="Courier,monospace" font-size="9.00">use_module</text>
</a>
</g>
</g>
<!-- http_parameters -->
<g id="node9" class="node">
<title>http_parameters</title>
<g id="a_node9"><a xlink:title="module">
<polygon fill="gainsboro" stroke="black" stroke-dasharray="5,2" points="924.5,-92 811.5,-92 811.5,-96 799.5,-96 799.5,-56 924.5,-56 924.5,-92"/>
<polyline fill="none" stroke="black" stroke-dasharray="5,2" points="799.5,-92 811.5,-92 "/>
<text text-anchor="start" x="807.8" y="-75.8" font-family="Courier,monospace" font-size="9.00"> </text>
<text text-anchor="start" x="812.99" y="-75.2" font-family="Courier,monospace" font-size="11.00">http_parameters</text>
<text text-anchor="start" x="911.8" y="-75.8" font-family="Courier,monospace" font-size="9.00"> </text>
<text text-anchor="start" x="807.8" y="-65.8" font-family="Courier,monospace" font-size="9.00"> </text>
<text text-anchor="start" x="849.9" y="-66.4" font-family="Courier,monospace" font-size="7.00">module</text>
<text text-anchor="start" x="911.8" y="-65.8" font-family="Courier,monospace" font-size="9.00"> </text>
</a>
</g>
</g>
<!-- cp_simple_search&#45;&gt;http_parameters -->
<g id="edge8" class="edge">
<title>cp_simple_search&#45;&gt;http_parameters</title>
<path fill="none" stroke="black" d="M947.93,-190.97C927.59,-163.52 900.2,-126.55 881.86,-101.8"/>
<polygon fill="black" stroke="black" points="881.74,-101.64 874.96,-99.2 874.6,-92 881.74,-101.64"/>
<g id="a_edge8&#45;label"><a xlink:title="use_module">
<text text-anchor="middle" x="938" y="-138.8" font-family="Courier,monospace" font-size="9.00">use_module</text>
</a>
</g>
</g>
<!-- rdf_db -->
<g id="node10" class="node">
<title>rdf_db</title>
<g id="a_node10"><a xlink:title="module">
<polygon fill="gainsboro" stroke="black" stroke-dasharray="5,2" points="1007.5,-92 954.5,-92 954.5,-96 942.5,-96 942.5,-56 1007.5,-56 1007.5,-92"/>
<polyline fill="none" stroke="black" stroke-dasharray="5,2" points="942.5,-92 954.5,-92 "/>
<text text-anchor="start" x="950.8" y="-75.8" font-family="Courier,monospace" font-size="9.00"> </text>
<text text-anchor="start" x="955.7" y="-75.2" font-family="Courier,monospace" font-size="11.00">rdf_db</text>
<text text-anchor="start" x="994.8" y="-75.8" font-family="Courier,monospace" font-size="9.00"> </text>
<text text-anchor="start" x="950.8" y="-65.8" font-family="Courier,monospace" font-size="9.00"> </text>
<text text-anchor="start" x="962.9" y="-66.4" font-family="Courier,monospace" font-size="7.00">module</text>
<text text-anchor="start" x="994.8" y="-65.8" font-family="Courier,monospace" font-size="9.00"> </text>
</a>
</g>
</g>
<!-- cp_simple_search&#45;&gt;rdf_db -->
<g id="edge9" class="edge">
<title>cp_simple_search&#45;&gt;rdf_db</title>
<path fill="none" stroke="black" d="M975,-190.97C975,-164.38 975,-128.85 975,-104.15"/>
<polygon fill="black" stroke="black" points="975,-104 971,-98 975,-92 975,-104"/>
<g id="a_edge9&#45;label"><a xlink:title="use_module">
<text text-anchor="middle" x="1002" y="-138.8" font-family="Courier,monospace" font-size="9.00">use_module</text>
</a>
</g>
</g>
<!-- http_json -->
<g id="node11" class="node">
<title>http_json</title>
<g id="a_node11"><a xlink:title="module">
<polygon fill="gainsboro" stroke="black" stroke-dasharray="5,2" points="1110.5,-92 1037.5,-92 1037.5,-96 1025.5,-96 1025.5,-56 1110.5,-56 1110.5,-92"/>
<polyline fill="none" stroke="black" stroke-dasharray="5,2" points="1025.5,-92 1037.5,-92 "/>
<text text-anchor="start" x="1033.8" y="-75.8" font-family="Courier,monospace" font-size="9.00"> </text>
<text text-anchor="start" x="1038.8" y="-75.2" font-family="Courier,monospace" font-size="11.00">http_json</text>
<text text-anchor="start" x="1097.8" y="-75.8" font-family="Courier,monospace" font-size="9.00"> </text>
<text text-anchor="start" x="1033.8" y="-65.8" font-family="Courier,monospace" font-size="9.00"> </text>
<text text-anchor="start" x="1055.9" y="-66.4" font-family="Courier,monospace" font-size="7.00">module</text>
<text text-anchor="start" x="1097.8" y="-65.8" font-family="Courier,monospace" font-size="9.00"> </text>
</a>
</g>
</g>
<!-- cp_simple_search&#45;&gt;http_json -->
<g id="edge10" class="edge">
<title>cp_simple_search&#45;&gt;http_json</title>
<path fill="none" stroke="black" d="M1003.15,-190.61C1013.08,-176.92 1024.01,-161.06 1033,-146 1041.14,-132.36 1049.07,-116.56 1055.32,-103.33"/>
<polygon fill="black" stroke="black" points="1055.5,-102.93 1054.39,-95.81 1060.53,-92.04 1055.5,-102.93"/>
<g id="a_edge10&#45;label"><a xlink:title="use_module">
<text text-anchor="middle" x="1064" y="-138.8" font-family="Courier,monospace" font-size="9.00">use_module</text>
</a>
</g>
</g>
<!-- lists -->
<g id="node12" class="node">
<title>lists</title>
<g id="a_node12"><a xlink:title="module">
<polygon fill="gainsboro" stroke="black" stroke-dasharray="5,2" points="1187.5,-92 1140.5,-92 1140.5,-96 1128.5,-96 1128.5,-56 1187.5,-56 1187.5,-92"/>
<polyline fill="none" stroke="black" stroke-dasharray="5,2" points="1128.5,-92 1140.5,-92 "/>
<text text-anchor="start" x="1136.8" y="-75.8" font-family="Courier,monospace" font-size="9.00"> </text>
<text text-anchor="start" x="1142" y="-75.2" font-family="Courier,monospace" font-size="11.00">lists</text>
<text text-anchor="start" x="1174.8" y="-75.8" font-family="Courier,monospace" font-size="9.00"> </text>
<text text-anchor="start" x="1136.8" y="-65.8" font-family="Courier,monospace" font-size="9.00"> </text>
<text text-anchor="start" x="1145.9" y="-66.4" font-family="Courier,monospace" font-size="7.00">module</text>
<text text-anchor="start" x="1174.8" y="-65.8" font-family="Courier,monospace" font-size="9.00"> </text>
</a>
</g>
</g>
<!-- cp_simple_search&#45;&gt;lists -->
<g id="edge11" class="edge">
<title>cp_simple_search&#45;&gt;lists</title>
<path fill="none" stroke="black" d="M1034.15,-190.87C1054.13,-177.59 1076.14,-161.91 1095,-146 1107.25,-135.66 1109.27,-131.91 1120,-120 1125.3,-114.12 1130.87,-107.68 1136.06,-101.55"/>
<polygon fill="black" stroke="black" points="1136.1,-101.51 1136.9,-94.34 1143.82,-92.32 1136.1,-101.51"/>
<g id="a_edge11&#45;label"><a xlink:title="use_module">
<text text-anchor="middle" x="1131" y="-138.8" font-family="Courier,monospace" font-size="9.00">use_module</text>
</a>
</g>
</g>
<!-- apply -->
<g id="node13" class="node">
<title>apply</title>
<g id="a_node13"><a xlink:title="module">
<polygon fill="gainsboro" stroke="black" stroke-dasharray="5,2" points="1264.5,-92 1217.5,-92 1217.5,-96 1205.5,-96 1205.5,-56 1264.5,-56 1264.5,-92"/>
<polyline fill="none" stroke="black" stroke-dasharray="5,2" points="1205.5,-92 1217.5,-92 "/>
<text text-anchor="start" x="1213.8" y="-75.8" font-family="Courier,monospace" font-size="9.00"> </text>
<text text-anchor="start" x="1219" y="-75.2" font-family="Courier,monospace" font-size="11.00">apply</text>
<text text-anchor="start" x="1251.8" y="-75.8" font-family="Courier,monospace" font-size="9.00"> </text>
<text text-anchor="start" x="1213.8" y="-65.8" font-family="Courier,monospace" font-size="9.00"> </text>
<text text-anchor="start" x="1222.9" y="-66.4" font-family="Courier,monospace" font-size="7.00">module</text>
<text text-anchor="start" x="1251.8" y="-65.8" font-family="Courier,monospace" font-size="9.00"> </text>
</a>
</g>
</g>
<!-- cp_simple_search&#45;&gt;apply -->
<g id="edge12" class="edge">
<title>cp_simple_search&#45;&gt;apply</title>
<path fill="none" stroke="black" d="M1045.05,-206.01C1092.34,-188.74 1153.78,-160.61 1197,-120 1202.97,-114.39 1208.92,-107.89 1214.28,-101.61"/>
<polygon fill="black" stroke="black" points="1214.51,-101.32 1215.24,-94.15 1222.14,-92.06 1214.51,-101.32"/>
<g id="a_edge12&#45;label"><a xlink:title="use_module">
<text text-anchor="middle" x="1203" y="-138.8" font-family="Courier,monospace" font-size="9.00">use_module</text>
</a>
</g>
</g>
<!-- pairs -->
<g id="node14" class="node">
<title>pairs</title>
<g id="a_node14"><a xlink:title="module">
<polygon fill="gainsboro" stroke="black" stroke-dasharray="5,2" points="1341.5,-92 1294.5,-92 1294.5,-96 1282.5,-96 1282.5,-56 1341.5,-56 1341.5,-92"/>
<polyline fill="none" stroke="black" stroke-dasharray="5,2" points="1282.5,-92 1294.5,-92 "/>
<text text-anchor="start" x="1290.8" y="-75.8" font-family="Courier,monospace" font-size="9.00"> </text>
<text text-anchor="start" x="1296" y="-75.2" font-family="Courier,monospace" font-size="11.00">pairs</text>
<text text-anchor="start" x="1328.8" y="-75.8" font-family="Courier,monospace" font-size="9.00"> </text>
<text text-anchor="start" x="1290.8" y="-65.8" font-family="Courier,monospace" font-size="9.00"> </text>
<text text-anchor="start" x="1299.9" y="-66.4" font-family="Courier,monospace" font-size="7.00">module</text>
<text text-anchor="start" x="1328.8" y="-65.8" font-family="Courier,monospace" font-size="9.00"> </text>
</a>
</g>
</g>
<!-- cp_simple_search&#45;&gt;pairs -->
<g id="edge13" class="edge">
<title>cp_simple_search&#45;&gt;pairs</title>
<path fill="none" stroke="black" d="M1045.09,-210.97C1098.33,-197.12 1172.6,-174.95 1234,-146 1253.18,-136.96 1258.1,-134.03 1274,-120 1280.14,-114.58 1286.15,-108.15 1291.52,-101.87"/>
<polygon fill="black" stroke="black" points="1291.76,-101.59 1292.46,-94.41 1299.35,-92.3 1291.76,-101.59"/>
<g id="a_edge13&#45;label"><a xlink:title="use_module">
<text text-anchor="middle" x="1278" y="-138.8" font-family="Courier,monospace" font-size="9.00">use_module</text>
</a>
</g>
</g>
<!-- rdf_label -->
<g id="node15" class="node">
<title>rdf_label</title>
<g id="a_node15"><a xlink:title="module">
<polygon fill="gainsboro" stroke="black" stroke-dasharray="5,2" points="1444.5,-92 1371.5,-92 1371.5,-96 1359.5,-96 1359.5,-56 1444.5,-56 1444.5,-92"/>
<polyline fill="none" stroke="black" stroke-dasharray="5,2" points="1359.5,-92 1371.5,-92 "/>
<text text-anchor="start" x="1367.8" y="-75.8" font-family="Courier,monospace" font-size="9.00"> </text>
<text text-anchor="start" x="1372.8" y="-75.2" font-family="Courier,monospace" font-size="11.00">rdf_label</text>
<text text-anchor="start" x="1431.8" y="-75.8" font-family="Courier,monospace" font-size="9.00"> </text>
<text text-anchor="start" x="1367.8" y="-65.8" font-family="Courier,monospace" font-size="9.00"> </text>
<text text-anchor="start" x="1389.9" y="-66.4" font-family="Courier,monospace" font-size="7.00">module</text>
<text text-anchor="start" x="1431.8" y="-65.8" font-family="Courier,monospace" font-size="9.00"> </text>
</a>
</g>
</g>
<!-- cp_simple_search&#45;&gt;rdf_label -->
<g id="edge14" class="edge">
<title>cp_simple_search&#45;&gt;rdf_label</title>
<path fill="none" stroke="black" d="M1045.14,-217.01C1114.17,-205.16 1221.61,-182.62 1309,-146 1334.29,-135.4 1358.77,-116.24 1376.26,-100.49"/>
<polygon fill="black" stroke="black" points="1376.43,-100.33 1378.1,-93.32 1385.22,-92.17 1376.43,-100.33"/>
<g id="a_edge14&#45;label"><a xlink:title="use_module">
<text text-anchor="middle" x="1353" y="-138.8" font-family="Courier,monospace" font-size="9.00">use_module</text>
</a>
</g>
</g>
<!-- rdfs -->
<g id="node16" class="node">
<title>rdfs</title>
<g id="a_node16"><a xlink:title="module">
<polygon fill="gainsboro" stroke="black" stroke-dasharray="5,2" points="1517,-92 1475,-92 1475,-96 1463,-96 1463,-56 1517,-56 1517,-92"/>
<polyline fill="none" stroke="black" stroke-dasharray="5,2" points="1463,-92 1475,-92 "/>
<text text-anchor="start" x="1471.8" y="-75.8" font-family="Courier,monospace" font-size="9.00"> </text>
<text text-anchor="start" x="1476.8" y="-75.2" font-family="Courier,monospace" font-size="11.00">rdfs</text>
<text text-anchor="start" x="1502.8" y="-75.8" font-family="Courier,monospace" font-size="9.00"> </text>
<text text-anchor="start" x="1471.8" y="-65.8" font-family="Courier,monospace" font-size="9.00"> </text>
<text text-anchor="start" x="1477.4" y="-66.4" font-family="Courier,monospace" font-size="7.00">module</text>
<text text-anchor="start" x="1502.8" y="-65.8" font-family="Courier,monospace" font-size="9.00"> </text>
</a>
</g>
</g>
<!-- cp_simple_search&#45;&gt;rdfs -->
<g id="edge15" class="edge">
<title>cp_simple_search&#45;&gt;rdfs</title>
<path fill="none" stroke="black" d="M1045.28,-216.99C1127.4,-203.9 1266.97,-179.17 1384,-146 1415.93,-136.95 1427.1,-139.44 1454,-120 1460.7,-115.15 1466.83,-108.74 1472.06,-102.29"/>
<polygon fill="black" stroke="black" points="1472.32,-101.94 1472.69,-94.74 1479.48,-92.31 1472.32,-101.94"/>
<g id="a_edge15&#45;label"><a xlink:title="use_module">
<text text-anchor="middle" x="1446" y="-138.8" font-family="Courier,monospace" font-size="9.00">use_module</text>
</a>
</g>
</g>
<!-- occurs -->
<g id="node17" class="node">
<title>occurs</title>
<g id="a_node17"><a xlink:title="module">
<polygon fill="gainsboro" stroke="black" stroke-dasharray="5,2" points="1600.5,-92 1547.5,-92 1547.5,-96 1535.5,-96 1535.5,-56 1600.5,-56 1600.5,-92"/>
<polyline fill="none" stroke="black" stroke-dasharray="5,2" points="1535.5,-92 1547.5,-92 "/>
<text text-anchor="start" x="1543.8" y="-75.8" font-family="Courier,monospace" font-size="9.00"> </text>
<text text-anchor="start" x="1548.7" y="-75.2" font-family="Courier,monospace" font-size="11.00">occurs</text>
<text text-anchor="start" x="1587.8" y="-75.8" font-family="Courier,monospace" font-size="9.00"> </text>
<text text-anchor="start" x="1543.8" y="-65.8" font-family="Courier,monospace" font-size="9.00"> </text>
<text text-anchor="start" x="1555.9" y="-66.4" font-family="Courier,monospace" font-size="7.00">module</text>
<text text-anchor="start" x="1587.8" y="-65.8" font-family="Courier,monospace" font-size="9.00"> </text>
</a>
</g>
</g>
<!-- cp_simple_search&#45;&gt;occurs -->
<g id="edge16" class="edge">
<title>cp_simple_search&#45;&gt;occurs</title>
<path fill="none" stroke="black" d="M1045.34,-223.33C1144.05,-215.87 1328.24,-196.02 1477,-146 1500.37,-138.14 1506.43,-135 1526,-120 1533.07,-114.58 1539.98,-107.93 1546.1,-101.41"/>
<polygon fill="black" stroke="black" points="1546.4,-101.07 1547.42,-93.93 1554.41,-92.13 1546.4,-101.07"/>
<g id="a_edge16&#45;label"><a xlink:title="use_module">
<text text-anchor="middle" x="1526" y="-138.8" font-family="Courier,monospace" font-size="9.00">use_module</text>
</a>
</g>
</g>
<!-- error -->
<g id="node18" class="node">
<title>error</title>
<g id="a_node18"><a xlink:title="module">
<polygon fill="gainsboro" stroke="black" stroke-dasharray="5,2" points="1677.5,-92 1630.5,-92 1630.5,-96 1618.5,-96 1618.5,-56 1677.5,-56 1677.5,-92"/>
<polyline fill="none" stroke="black" stroke-dasharray="5,2" points="1618.5,-92 1630.5,-92 "/>
<text text-anchor="start" x="1626.8" y="-75.8" font-family="Courier,monospace" font-size="9.00"> </text>
<text text-anchor="start" x="1632" y="-75.2" font-family="Courier,monospace" font-size="11.00">error</text>
<text text-anchor="start" x="1664.8" y="-75.8" font-family="Courier,monospace" font-size="9.00"> </text>
<text text-anchor="start" x="1626.8" y="-65.8" font-family="Courier,monospace" font-size="9.00"> </text>
<text text-anchor="start" x="1635.9" y="-66.4" font-family="Courier,monospace" font-size="7.00">module</text>
<text text-anchor="start" x="1664.8" y="-65.8" font-family="Courier,monospace" font-size="9.00"> </text>
</a>
</g>
</g>
<!-- cp_simple_search&#45;&gt;error -->
<g id="edge17" class="edge">
<title>cp_simple_search&#45;&gt;error</title>
<path fill="none" stroke="black" d="M1045.08,-224.83C1155.98,-219.02 1377.77,-200.97 1557,-146 1582.08,-138.31 1589.32,-136.14 1610,-120 1616.56,-114.88 1622.79,-108.47 1628.23,-102.1"/>
<polygon fill="black" stroke="black" points="1628.57,-101.69 1629.21,-94.5 1636.08,-92.33 1628.57,-101.69"/>
<g id="a_edge17&#45;label"><a xlink:title="use_module">
<text text-anchor="middle" x="1609" y="-138.8" font-family="Courier,monospace" font-size="9.00">use_module</text>
</a>
</g>
</g>
</g>
</svg>
