<?xml version="1.0" encoding="UTF-8" standalone="no"?>
<!DOCTYPE svg PUBLIC "-//W3C//DTD SVG 1.1//EN"
 "http://www.w3.org/Graphics/SVG/1.1/DTD/svg11.dtd">
<!-- Generated by graphviz version 2.41.20190410.0829 (20190410.0829)
 -->
<!-- Title: sparql.pl Pages: 1 -->
<svg width="2392pt" height="418pt"
 viewBox="72.00 72.00 2320.00 346.00" xmlns="http://www.w3.org/2000/svg" xmlns:xlink="http://www.w3.org/1999/xlink">
<g id="graph0" class="graph" transform="scale(1 1) rotate(0) translate(76 342)">
<title>sparql.pl</title>
<polygon fill="white" stroke="transparent" points="-4,4 -4,-270 2244,-270 2244,4 -4,4"/>
<text text-anchor="start" x="8" y="-16" font-family="Courier,monospace" font-size="10.00" fill="#8b8989">ClioPatria &#45; an RDF application platform</text>
<text text-anchor="start" x="8" y="-6" font-family="Courier,monospace" font-size="10.00" fill="#8b8989">Generated on 2019/04/17, 13:04</text>
<g id="clust1" class="cluster">
<title>cluster_file_/Users/pmoura/ClioPatria/api/sparql.pl</title>
<g id="a_clust1"><a xlink:href="https://github.com/ClioPatria/ClioPatria/tree/add57aa2039eed4033cf96e96c293b2052e88f41/api/sparql.pl" xlink:title="https://github.com/ClioPatria/ClioPatria/tree/add57aa2039eed4033cf96e96c293b2052e88f41/api/sparql.pl">
<path fill="snow" stroke="#8b8989" d="M20,-36C20,-36 2220,-36 2220,-36 2226,-36 2232,-42 2232,-48 2232,-48 2232,-246 2232,-246 2232,-252 2226,-258 2220,-258 2220,-258 20,-258 20,-258 14,-258 8,-252 8,-246 8,-246 8,-48 8,-48 8,-42 14,-36 20,-36"/>
<text text-anchor="middle" x="43" y="-246" font-family="Courier,monospace" font-size="10.00" fill="#8b8989">sparql.pl</text>
</a>
</g>
</g>
<g id="clust2" class="cluster">
<title>cluster_other</title>
<g id="a_clust2"><a xlink:title="(external entities)">
<path fill="white" stroke="#8b8989" d="M30,-46C30,-46 2210,-46 2210,-46 2216,-46 2222,-52 2222,-58 2222,-58 2222,-108 2222,-108 2222,-114 2216,-120 2210,-120 2210,-120 30,-120 30,-120 24,-120 18,-114 18,-108 18,-108 18,-58 18,-58 18,-52 24,-46 30,-46"/>
<text text-anchor="middle" x="83.01" y="-108" font-family="Courier,monospace" font-size="10.00" fill="#8b8989">(external entities)</text>
</a>
</g>
</g>
<!-- api_sparql -->
<g id="node1" class="node">
<title>api_sparql</title>
<g id="a_node1"><a xlink:title="module">
<polygon fill="gainsboro" stroke="black" points="1081,-230 995,-230 995,-234 983,-234 983,-191 1081,-191 1081,-230"/>
<polyline fill="none" stroke="black" points="983,-230 995,-230 "/>
<g id="a_node1_0"><a xlink:href="api_sparql_module_xref_diagram.svg" xlink:title="Zoom">
<image xlink:href="zoom.png" width="11px" height="11px" preserveAspectRatio="xMinYMin meet" x="991" y="-225.5"/>
</a>
</g>
<text text-anchor="start" x="993.8" y="-206.3" font-family="Courier,monospace" font-size="9.00"> </text>
<text text-anchor="start" x="1001.99" y="-205.7" font-family="Courier,monospace" font-size="11.00">api_sparql</text>
<text text-anchor="start" x="1067.8" y="-206.3" font-family="Courier,monospace" font-size="9.00"> </text>
<text text-anchor="start" x="993.8" y="-196.3" font-family="Courier,monospace" font-size="9.00"> </text>
<text text-anchor="start" x="1022.4" y="-196.9" font-family="Courier,monospace" font-size="7.00">module</text>
<text text-anchor="start" x="1067.8" y="-196.3" font-family="Courier,monospace" font-size="9.00"> </text>
</a>
</g>
</g>
<!-- prolog_dialect -->
<g id="node2" class="node">
<title>prolog_dialect</title>
<g id="a_node2"><a xlink:title="module">
<polygon fill="gainsboro" stroke="black" stroke-dasharray="5,2" points="146,-92 40,-92 40,-96 28,-96 28,-56 146,-56 146,-92"/>
<polyline fill="none" stroke="black" stroke-dasharray="5,2" points="28,-92 40,-92 "/>
<text text-anchor="start" x="35.8" y="-75.8" font-family="Courier,monospace" font-size="9.00"> </text>
<text text-anchor="start" x="40.79" y="-75.2" font-family="Courier,monospace" font-size="11.00">prolog_dialect</text>
<text text-anchor="start" x="132.8" y="-75.8" font-family="Courier,monospace" font-size="9.00"> </text>
<text text-anchor="start" x="35.8" y="-65.8" font-family="Courier,monospace" font-size="9.00"> </text>
<text text-anchor="start" x="74.4" y="-66.4" font-family="Courier,monospace" font-size="7.00">module</text>
<text text-anchor="start" x="132.8" y="-65.8" font-family="Courier,monospace" font-size="9.00"> </text>
</a>
</g>
</g>
<!-- api_sparql&#45;&gt;prolog_dialect -->
<g id="edge1" class="edge">
<title>api_sparql&#45;&gt;prolog_dialect</title>
<path fill="none" stroke="black" d="M982.56,-207.39C862.06,-201.79 543.84,-184.31 280.99,-146 224.84,-137.82 208.45,-141.65 156,-120 142.94,-114.61 129.69,-106.68 118.34,-98.97"/>
<polygon fill="black" stroke="black" points="118.31,-98.96 111.1,-98.77 108.5,-92.04 118.31,-98.96"/>
<g id="a_edge1&#45;label"><a xlink:title="use_module">
<text text-anchor="middle" x="307" y="-138.8" font-family="Courier,monospace" font-size="9.00">use_module</text>
</a>
</g>
</g>
<!-- http_dispatch -->
<g id="node3" class="node">
<title>http_dispatch</title>
<g id="a_node3"><a xlink:title="module">
<polygon fill="gainsboro" stroke="black" stroke-dasharray="5,2" points="275.5,-92 176.5,-92 176.5,-96 164.5,-96 164.5,-56 275.5,-56 275.5,-92"/>
<polyline fill="none" stroke="black" stroke-dasharray="5,2" points="164.5,-92 176.5,-92 "/>
<text text-anchor="start" x="172.8" y="-75.8" font-family="Courier,monospace" font-size="9.00"> </text>
<text text-anchor="start" x="177.59" y="-75.2" font-family="Courier,monospace" font-size="11.00">http_dispatch</text>
<text text-anchor="start" x="262.8" y="-75.8" font-family="Courier,monospace" font-size="9.00"> </text>
<text text-anchor="start" x="172.8" y="-65.8" font-family="Courier,monospace" font-size="9.00"> </text>
<text text-anchor="start" x="207.9" y="-66.4" font-family="Courier,monospace" font-size="7.00">module</text>
<text text-anchor="start" x="262.8" y="-65.8" font-family="Courier,monospace" font-size="9.00"> </text>
</a>
</g>
</g>
<!-- api_sparql&#45;&gt;http_dispatch -->
<g id="edge2" class="edge">
<title>api_sparql&#45;&gt;http_dispatch</title>
<path fill="none" stroke="black" d="M982.98,-206.42C877.03,-199.35 618.96,-179.91 404.99,-146 351.1,-137.46 335.06,-141.72 285,-120 272.82,-114.71 260.56,-107 250.02,-99.44"/>
<polygon fill="black" stroke="black" points="249.73,-99.22 242.53,-98.83 240.13,-92.03 249.73,-99.22"/>
<g id="a_edge2&#45;label"><a xlink:title="use_module">
<text text-anchor="middle" x="431" y="-138.8" font-family="Courier,monospace" font-size="9.00">use_module</text>
</a>
</g>
</g>
<!-- http_parameters -->
<g id="node4" class="node">
<title>http_parameters</title>
<g id="a_node4"><a xlink:title="module">
<polygon fill="gainsboro" stroke="black" stroke-dasharray="5,2" points="418.5,-92 305.5,-92 305.5,-96 293.5,-96 293.5,-56 418.5,-56 418.5,-92"/>
<polyline fill="none" stroke="black" stroke-dasharray="5,2" points="293.5,-92 305.5,-92 "/>
<text text-anchor="start" x="301.8" y="-75.8" font-family="Courier,monospace" font-size="9.00"> </text>
<text text-anchor="start" x="306.99" y="-75.2" font-family="Courier,monospace" font-size="11.00">http_parameters</text>
<text text-anchor="start" x="405.8" y="-75.8" font-family="Courier,monospace" font-size="9.00"> </text>
<text text-anchor="start" x="301.8" y="-65.8" font-family="Courier,monospace" font-size="9.00"> </text>
<text text-anchor="start" x="343.9" y="-66.4" font-family="Courier,monospace" font-size="7.00">module</text>
<text text-anchor="start" x="405.8" y="-65.8" font-family="Courier,monospace" font-size="9.00"> </text>
</a>
</g>
</g>
<!-- api_sparql&#45;&gt;http_parameters -->
<g id="edge3" class="edge">
<title>api_sparql&#45;&gt;http_parameters</title>
<path fill="none" stroke="black" d="M982.84,-208.78C886.01,-206.27 664.49,-195.14 485.99,-146 450.85,-136.33 414.77,-115.6 389.56,-99.02"/>
<polygon fill="black" stroke="black" points="389.41,-98.92 382.2,-98.89 379.46,-92.22 389.41,-98.92"/>
<g id="a_edge3&#45;label"><a xlink:title="use_module">
<text text-anchor="middle" x="512" y="-138.8" font-family="Courier,monospace" font-size="9.00">use_module</text>
</a>
</g>
</g>
<!-- lists -->
<g id="node5" class="node">
<title>lists</title>
<g id="a_node5"><a xlink:title="module">
<polygon fill="gainsboro" stroke="black" stroke-dasharray="5,2" points="495.5,-92 448.5,-92 448.5,-96 436.5,-96 436.5,-56 495.5,-56 495.5,-92"/>
<polyline fill="none" stroke="black" stroke-dasharray="5,2" points="436.5,-92 448.5,-92 "/>
<text text-anchor="start" x="444.8" y="-75.8" font-family="Courier,monospace" font-size="9.00"> </text>
<text text-anchor="start" x="450" y="-75.2" font-family="Courier,monospace" font-size="11.00">lists</text>
<text text-anchor="start" x="482.8" y="-75.8" font-family="Courier,monospace" font-size="9.00"> </text>
<text text-anchor="start" x="444.8" y="-65.8" font-family="Courier,monospace" font-size="9.00"> </text>
<text text-anchor="start" x="453.9" y="-66.4" font-family="Courier,monospace" font-size="7.00">module</text>
<text text-anchor="start" x="482.8" y="-65.8" font-family="Courier,monospace" font-size="9.00"> </text>
</a>
</g>
</g>
<!-- api_sparql&#45;&gt;lists -->
<g id="edge4" class="edge">
<title>api_sparql&#45;&gt;lists</title>
<path fill="none" stroke="black" d="M982.7,-204.43C901.66,-195.61 735.45,-175.54 596.99,-146 555.44,-137.13 540.86,-142.79 505,-120 497.5,-115.23 490.63,-108.59 484.83,-101.87"/>
<polygon fill="black" stroke="black" points="484.59,-101.57 477.73,-99.36 477.12,-92.18 484.59,-101.57"/>
<g id="a_edge4&#45;label"><a xlink:title="use_module">
<text text-anchor="middle" x="623" y="-138.8" font-family="Courier,monospace" font-size="9.00">use_module</text>
</a>
</g>
</g>
<!-- http_client -->
<g id="node6" class="node">
<title>http_client</title>
<g id="a_node6"><a xlink:title="module">
<polygon fill="gainsboro" stroke="black" stroke-dasharray="5,2" points="612,-92 526,-92 526,-96 514,-96 514,-56 612,-56 612,-92"/>
<polyline fill="none" stroke="black" stroke-dasharray="5,2" points="514,-92 526,-92 "/>
<text text-anchor="start" x="521.8" y="-75.8" font-family="Courier,monospace" font-size="9.00"> </text>
<text text-anchor="start" x="526.69" y="-75.2" font-family="Courier,monospace" font-size="11.00">http_client</text>
<text text-anchor="start" x="598.8" y="-75.8" font-family="Courier,monospace" font-size="9.00"> </text>
<text text-anchor="start" x="521.8" y="-65.8" font-family="Courier,monospace" font-size="9.00"> </text>
<text text-anchor="start" x="550.4" y="-66.4" font-family="Courier,monospace" font-size="7.00">module</text>
<text text-anchor="start" x="598.8" y="-65.8" font-family="Courier,monospace" font-size="9.00"> </text>
</a>
</g>
</g>
<!-- api_sparql&#45;&gt;http_client -->
<g id="edge5" class="edge">
<title>api_sparql&#45;&gt;http_client</title>
<path fill="none" stroke="black" d="M982.95,-203.99C914.69,-195.55 787.64,-177.06 682.99,-146 654.35,-137.5 646.8,-135.06 621,-120 611.08,-114.21 600.96,-106.92 592.01,-99.91"/>
<polygon fill="black" stroke="black" points="591.81,-99.74 584.63,-99.08 582.47,-92.2 591.81,-99.74"/>
<g id="a_edge5&#45;label"><a xlink:title="use_module">
<text text-anchor="middle" x="709" y="-138.8" font-family="Courier,monospace" font-size="9.00">use_module</text>
</a>
</g>
</g>
<!-- user_db -->
<g id="node7" class="node">
<title>user_db</title>
<g id="a_node7"><a xlink:title="module">
<polygon fill="gainsboro" stroke="black" stroke-dasharray="5,2" points="702,-92 642,-92 642,-96 630,-96 630,-56 702,-56 702,-92"/>
<polyline fill="none" stroke="black" stroke-dasharray="5,2" points="630,-92 642,-92 "/>
<text text-anchor="start" x="637.8" y="-75.8" font-family="Courier,monospace" font-size="9.00"> </text>
<text text-anchor="start" x="642.9" y="-75.2" font-family="Courier,monospace" font-size="11.00">user_db</text>
<text text-anchor="start" x="688.8" y="-75.8" font-family="Courier,monospace" font-size="9.00"> </text>
<text text-anchor="start" x="637.8" y="-65.8" font-family="Courier,monospace" font-size="9.00"> </text>
<text text-anchor="start" x="653.4" y="-66.4" font-family="Courier,monospace" font-size="7.00">module</text>
<text text-anchor="start" x="688.8" y="-65.8" font-family="Courier,monospace" font-size="9.00"> </text>
</a>
</g>
</g>
<!-- api_sparql&#45;&gt;user_db -->
<g id="edge6" class="edge">
<title>api_sparql&#45;&gt;user_db</title>
<path fill="none" stroke="black" d="M982.88,-205.43C916.24,-197.9 795.78,-176.92 711,-120 703.05,-114.67 695.33,-107.79 688.59,-101.02"/>
<polygon fill="black" stroke="black" points="688.33,-100.74 681.3,-99.13 680.09,-92.02 688.33,-100.74"/>
<g id="a_edge6&#45;label"><a xlink:title="use_module">
<text text-anchor="middle" x="776" y="-138.8" font-family="Courier,monospace" font-size="9.00">use_module</text>
</a>
</g>
</g>
<!-- swi_option -->
<g id="node8" class="node">
<title>swi_option</title>
<g id="a_node8"><a xlink:title="module">
<polygon fill="gainsboro" stroke="black" stroke-dasharray="5,2" points="812,-92 732,-92 732,-96 720,-96 720,-56 812,-56 812,-92"/>
<polyline fill="none" stroke="black" stroke-dasharray="5,2" points="720,-92 732,-92 "/>
<text text-anchor="start" x="727.8" y="-75.8" font-family="Courier,monospace" font-size="9.00"> </text>
<text text-anchor="start" x="732.99" y="-75.2" font-family="Courier,monospace" font-size="11.00">swi_option</text>
<text text-anchor="start" x="798.8" y="-75.8" font-family="Courier,monospace" font-size="9.00"> </text>
<text text-anchor="start" x="727.8" y="-65.8" font-family="Courier,monospace" font-size="9.00"> </text>
<text text-anchor="start" x="753.4" y="-66.4" font-family="Courier,monospace" font-size="7.00">module</text>
<text text-anchor="start" x="798.8" y="-65.8" font-family="Courier,monospace" font-size="9.00"> </text>
</a>
</g>
</g>
<!-- api_sparql&#45;&gt;swi_option -->
<g id="edge7" class="edge">
<title>api_sparql&#45;&gt;swi_option</title>
<path fill="none" stroke="black" d="M982.91,-198.84C943.52,-188.93 887.78,-171.78 843.99,-146 823.48,-133.92 803.68,-115.8 789.17,-100.89"/>
<polygon fill="black" stroke="black" points="789.1,-100.82 782.07,-99.21 780.86,-92.1 789.1,-100.82"/>
<g id="a_edge7&#45;label"><a xlink:title="use_module">
<text text-anchor="middle" x="870" y="-138.8" font-family="Courier,monospace" font-size="9.00">use_module</text>
</a>
</g>
</g>
<!-- uri -->
<g id="node9" class="node">
<title>uri</title>
<g id="a_node9"><a xlink:title="module">
<polygon fill="gainsboro" stroke="black" stroke-dasharray="5,2" points="884,-92 842,-92 842,-96 830,-96 830,-56 884,-56 884,-92"/>
<polyline fill="none" stroke="black" stroke-dasharray="5,2" points="830,-92 842,-92 "/>
<text text-anchor="start" x="839.8" y="-75.8" font-family="Courier,monospace" font-size="9.00"> </text>
<text text-anchor="start" x="847.6" y="-75.2" font-family="Courier,monospace" font-size="11.00">uri</text>
<text text-anchor="start" x="869.8" y="-75.8" font-family="Courier,monospace" font-size="9.00"> </text>
<text text-anchor="start" x="839.8" y="-65.8" font-family="Courier,monospace" font-size="9.00"> </text>
<text text-anchor="start" x="844.9" y="-66.4" font-family="Courier,monospace" font-size="7.00">module</text>
<text text-anchor="start" x="869.8" y="-65.8" font-family="Courier,monospace" font-size="9.00"> </text>
</a>
</g>
</g>
<!-- api_sparql&#45;&gt;uri -->
<g id="edge8" class="edge">
<title>api_sparql&#45;&gt;uri</title>
<path fill="none" stroke="black" d="M985.41,-190.88C961.61,-179.99 933.09,-164.69 910.99,-146 896.39,-133.65 883.31,-116.69 873.68,-102.44"/>
<polygon fill="black" stroke="black" points="873.56,-102.26 866.94,-99.41 867.02,-92.2 873.56,-102.26"/>
<g id="a_edge8&#45;label"><a xlink:title="use_module">
<text text-anchor="middle" x="937" y="-138.8" font-family="Courier,monospace" font-size="9.00">use_module</text>
</a>
</g>
</g>
<!-- yasgui -->
<g id="node10" class="node">
<title>yasgui</title>
<g id="a_node10"><a xlink:title="module">
<polygon fill="gainsboro" stroke="black" stroke-dasharray="5,2" points="967.5,-92 914.5,-92 914.5,-96 902.5,-96 902.5,-56 967.5,-56 967.5,-92"/>
<polyline fill="none" stroke="black" stroke-dasharray="5,2" points="902.5,-92 914.5,-92 "/>
<text text-anchor="start" x="910.8" y="-75.8" font-family="Courier,monospace" font-size="9.00"> </text>
<text text-anchor="start" x="915.7" y="-75.2" font-family="Courier,monospace" font-size="11.00">yasgui</text>
<text text-anchor="start" x="954.8" y="-75.8" font-family="Courier,monospace" font-size="9.00"> </text>
<text text-anchor="start" x="910.8" y="-65.8" font-family="Courier,monospace" font-size="9.00"> </text>
<text text-anchor="start" x="922.9" y="-66.4" font-family="Courier,monospace" font-size="7.00">module</text>
<text text-anchor="start" x="954.8" y="-65.8" font-family="Courier,monospace" font-size="9.00"> </text>
</a>
</g>
</g>
<!-- api_sparql&#45;&gt;yasgui -->
<g id="edge9" class="edge">
<title>api_sparql&#45;&gt;yasgui</title>
<path fill="none" stroke="black" d="M1012.7,-190.79C1000.76,-178.66 985.55,-162.15 973.99,-146 964.37,-132.56 955.36,-116.49 948.43,-103.04"/>
<polygon fill="black" stroke="black" points="948.29,-102.76 942.03,-99.18 942.92,-92.03 948.29,-102.76"/>
<g id="a_edge9&#45;label"><a xlink:title="use_module">
<text text-anchor="middle" x="1000" y="-138.8" font-family="Courier,monospace" font-size="9.00">use_module</text>
</a>
</g>
</g>
<!-- html_write -->
<g id="node11" class="node">
<title>html_write</title>
<g id="a_node11"><a xlink:title="module">
<polygon fill="gainsboro" stroke="black" stroke-dasharray="5,2" points="1078,-92 998,-92 998,-96 986,-96 986,-56 1078,-56 1078,-92"/>
<polyline fill="none" stroke="black" stroke-dasharray="5,2" points="986,-92 998,-92 "/>
<text text-anchor="start" x="993.8" y="-75.8" font-family="Courier,monospace" font-size="9.00"> </text>
<text text-anchor="start" x="998.99" y="-75.2" font-family="Courier,monospace" font-size="11.00">html_write</text>
<text text-anchor="start" x="1064.8" y="-75.8" font-family="Courier,monospace" font-size="9.00"> </text>
<text text-anchor="start" x="993.8" y="-65.8" font-family="Courier,monospace" font-size="9.00"> </text>
<text text-anchor="start" x="1019.4" y="-66.4" font-family="Courier,monospace" font-size="7.00">module</text>
<text text-anchor="start" x="1064.8" y="-65.8" font-family="Courier,monospace" font-size="9.00"> </text>
</a>
</g>
</g>
<!-- api_sparql&#45;&gt;html_write -->
<g id="edge10" class="edge">
<title>api_sparql&#45;&gt;html_write</title>
<path fill="none" stroke="black" d="M1032,-190.8C1032,-168.45 1032,-130.77 1032,-104.48"/>
<polygon fill="black" stroke="black" points="1032,-104.27 1028,-98.27 1032,-92.27 1032,-104.27"/>
<g id="a_edge10&#45;label"><a xlink:title="use_module">
<text text-anchor="middle" x="1059" y="-138.8" font-family="Courier,monospace" font-size="9.00">use_module</text>
</a>
</g>
</g>
<!-- sparql -->
<g id="node12" class="node">
<title>sparql</title>
<g id="a_node12"><a xlink:title="module">
<polygon fill="gainsboro" stroke="black" stroke-dasharray="5,2" points="1161.5,-92 1108.5,-92 1108.5,-96 1096.5,-96 1096.5,-56 1161.5,-56 1161.5,-92"/>
<polyline fill="none" stroke="black" stroke-dasharray="5,2" points="1096.5,-92 1108.5,-92 "/>
<text text-anchor="start" x="1104.8" y="-75.8" font-family="Courier,monospace" font-size="9.00"> </text>
<text text-anchor="start" x="1109.7" y="-75.2" font-family="Courier,monospace" font-size="11.00">sparql</text>
<text text-anchor="start" x="1148.8" y="-75.8" font-family="Courier,monospace" font-size="9.00"> </text>
<text text-anchor="start" x="1104.8" y="-65.8" font-family="Courier,monospace" font-size="9.00"> </text>
<text text-anchor="start" x="1116.9" y="-66.4" font-family="Courier,monospace" font-size="7.00">module</text>
<text text-anchor="start" x="1148.8" y="-65.8" font-family="Courier,monospace" font-size="9.00"> </text>
</a>
</g>
</g>
<!-- api_sparql&#45;&gt;sparql -->
<g id="edge11" class="edge">
<title>api_sparql&#45;&gt;sparql</title>
<path fill="none" stroke="black" d="M1051.3,-190.79C1063.24,-178.66 1078.44,-162.15 1090,-146 1099.62,-132.56 1108.63,-116.49 1115.56,-103.04"/>
<polygon fill="black" stroke="black" points="1115.7,-102.75 1114.82,-95.6 1121.08,-92.03 1115.7,-102.75"/>
<g id="a_edge11&#45;label"><a xlink:title="use_module">
<text text-anchor="middle" x="1121" y="-138.8" font-family="Courier,monospace" font-size="9.00">use_module</text>
</a>
</g>
</g>
<!-- http_request_value -->
<g id="node13" class="node">
<title>http_request_value</title>
<g id="a_node13"><a xlink:title="module">
<polygon fill="gainsboro" stroke="black" stroke-dasharray="5,2" points="1324,-92 1192,-92 1192,-96 1180,-96 1180,-56 1324,-56 1324,-92"/>
<polyline fill="none" stroke="black" stroke-dasharray="5,2" points="1180,-92 1192,-92 "/>
<text text-anchor="start" x="1187.8" y="-75.8" font-family="Courier,monospace" font-size="9.00"> </text>
<text text-anchor="start" x="1192.59" y="-75.2" font-family="Courier,monospace" font-size="11.00">http_request_value</text>
<text text-anchor="start" x="1310.8" y="-75.8" font-family="Courier,monospace" font-size="9.00"> </text>
<text text-anchor="start" x="1187.8" y="-65.8" font-family="Courier,monospace" font-size="9.00"> </text>
<text text-anchor="start" x="1239.4" y="-66.4" font-family="Courier,monospace" font-size="7.00">module</text>
<text text-anchor="start" x="1310.8" y="-65.8" font-family="Courier,monospace" font-size="9.00"> </text>
</a>
</g>
</g>
<!-- api_sparql&#45;&gt;http_request_value -->
<g id="edge12" class="edge">
<title>api_sparql&#45;&gt;http_request_value</title>
<path fill="none" stroke="black" d="M1070,-191C1093.96,-178.94 1125.31,-162.44 1152,-146 1175.36,-131.61 1200.53,-113.72 1219.78,-99.5"/>
<polygon fill="black" stroke="black" points="1219.92,-99.4 1222.34,-92.61 1229.54,-92.23 1219.92,-99.4"/>
<g id="a_edge12&#45;label"><a xlink:title="use_module">
<text text-anchor="middle" x="1193" y="-138.8" font-family="Courier,monospace" font-size="9.00">use_module</text>
</a>
</g>
</g>
<!-- http_cors -->
<g id="node14" class="node">
<title>http_cors</title>
<g id="a_node14"><a xlink:title="module">
<polygon fill="gainsboro" stroke="black" stroke-dasharray="5,2" points="1427.5,-92 1354.5,-92 1354.5,-96 1342.5,-96 1342.5,-56 1427.5,-56 1427.5,-92"/>
<polyline fill="none" stroke="black" stroke-dasharray="5,2" points="1342.5,-92 1354.5,-92 "/>
<text text-anchor="start" x="1350.8" y="-75.8" font-family="Courier,monospace" font-size="9.00"> </text>
<text text-anchor="start" x="1355.8" y="-75.2" font-family="Courier,monospace" font-size="11.00">http_cors</text>
<text text-anchor="start" x="1414.8" y="-75.8" font-family="Courier,monospace" font-size="9.00"> </text>
<text text-anchor="start" x="1350.8" y="-65.8" font-family="Courier,monospace" font-size="9.00"> </text>
<text text-anchor="start" x="1372.9" y="-66.4" font-family="Courier,monospace" font-size="7.00">module</text>
<text text-anchor="start" x="1414.8" y="-65.8" font-family="Courier,monospace" font-size="9.00"> </text>
</a>
</g>
</g>
<!-- api_sparql&#45;&gt;http_cors -->
<g id="edge13" class="edge">
<title>api_sparql&#45;&gt;http_cors</title>
<path fill="none" stroke="black" d="M1081.12,-201.52C1142.84,-190.04 1250.64,-165.12 1333,-120 1342.38,-114.86 1351.56,-107.81 1359.54,-100.81"/>
<polygon fill="black" stroke="black" points="1359.79,-100.58 1361.48,-93.57 1368.6,-92.44 1359.79,-100.58"/>
<g id="a_edge13&#45;label"><a xlink:title="use_module">
<text text-anchor="middle" x="1321" y="-138.8" font-family="Courier,monospace" font-size="9.00">use_module</text>
</a>
</g>
</g>
<!-- sparql_xml_result -->
<g id="node15" class="node">
<title>sparql_xml_result</title>
<g id="a_node15"><a xlink:title="module">
<polygon fill="gainsboro" stroke="black" stroke-dasharray="5,2" points="1584,-92 1458,-92 1458,-96 1446,-96 1446,-56 1584,-56 1584,-92"/>
<polyline fill="none" stroke="black" stroke-dasharray="5,2" points="1446,-92 1458,-92 "/>
<text text-anchor="start" x="1453.8" y="-75.8" font-family="Courier,monospace" font-size="9.00"> </text>
<text text-anchor="start" x="1458.89" y="-75.2" font-family="Courier,monospace" font-size="11.00">sparql_xml_result</text>
<text text-anchor="start" x="1570.8" y="-75.8" font-family="Courier,monospace" font-size="9.00"> </text>
<text text-anchor="start" x="1453.8" y="-65.8" font-family="Courier,monospace" font-size="9.00"> </text>
<text text-anchor="start" x="1502.4" y="-66.4" font-family="Courier,monospace" font-size="7.00">module</text>
<text text-anchor="start" x="1570.8" y="-65.8" font-family="Courier,monospace" font-size="9.00"> </text>
</a>
</g>
</g>
<!-- api_sparql&#45;&gt;sparql_xml_result -->
<g id="edge14" class="edge">
<title>api_sparql&#45;&gt;sparql_xml_result</title>
<path fill="none" stroke="black" d="M1081.25,-204.78C1159.43,-195.95 1315.49,-172.82 1437,-120 1450.86,-113.97 1465.38,-106.08 1478.08,-98.59"/>
<polygon fill="black" stroke="black" points="1478.44,-98.38 1481.5,-91.85 1488.71,-92.17 1478.44,-98.38"/>
<g id="a_edge14&#45;label"><a xlink:title="use_module">
<text text-anchor="middle" x="1411" y="-138.8" font-family="Courier,monospace" font-size="9.00">use_module</text>
</a>
</g>
</g>
<!-- rdf_write -->
<g id="node16" class="node">
<title>rdf_write</title>
<g id="a_node16"><a xlink:title="module">
<polygon fill="gainsboro" stroke="black" stroke-dasharray="5,2" points="1687.5,-92 1614.5,-92 1614.5,-96 1602.5,-96 1602.5,-56 1687.5,-56 1687.5,-92"/>
<polyline fill="none" stroke="black" stroke-dasharray="5,2" points="1602.5,-92 1614.5,-92 "/>
<text text-anchor="start" x="1610.8" y="-75.8" font-family="Courier,monospace" font-size="9.00"> </text>
<text text-anchor="start" x="1615.8" y="-75.2" font-family="Courier,monospace" font-size="11.00">rdf_write</text>
<text text-anchor="start" x="1674.8" y="-75.8" font-family="Courier,monospace" font-size="9.00"> </text>
<text text-anchor="start" x="1610.8" y="-65.8" font-family="Courier,monospace" font-size="9.00"> </text>
<text text-anchor="start" x="1632.9" y="-66.4" font-family="Courier,monospace" font-size="7.00">module</text>
<text text-anchor="start" x="1674.8" y="-65.8" font-family="Courier,monospace" font-size="9.00"> </text>
</a>
</g>
</g>
<!-- api_sparql&#45;&gt;rdf_write -->
<g id="edge15" class="edge">
<title>api_sparql&#45;&gt;rdf_write</title>
<path fill="none" stroke="black" d="M1081.22,-205.21C1200.56,-194.24 1502.18,-162.97 1593,-120 1603.08,-115.23 1612.73,-107.95 1620.92,-100.62"/>
<polygon fill="black" stroke="black" points="1621.12,-100.43 1622.7,-93.4 1629.81,-92.15 1621.12,-100.43"/>
<g id="a_edge15&#45;label"><a xlink:title="use_module">
<text text-anchor="middle" x="1565" y="-138.8" font-family="Courier,monospace" font-size="9.00">use_module</text>
</a>
</g>
</g>
<!-- sparql_json_result -->
<g id="node17" class="node">
<title>sparql_json_result</title>
<g id="a_node17"><a xlink:title="module">
<polygon fill="gainsboro" stroke="black" stroke-dasharray="5,2" points="1850,-92 1718,-92 1718,-96 1706,-96 1706,-56 1850,-56 1850,-92"/>
<polyline fill="none" stroke="black" stroke-dasharray="5,2" points="1706,-92 1718,-92 "/>
<text text-anchor="start" x="1713.8" y="-75.8" font-family="Courier,monospace" font-size="9.00"> </text>
<text text-anchor="start" x="1718.59" y="-75.2" font-family="Courier,monospace" font-size="11.00">sparql_json_result</text>
<text text-anchor="start" x="1836.8" y="-75.8" font-family="Courier,monospace" font-size="9.00"> </text>
<text text-anchor="start" x="1713.8" y="-65.8" font-family="Courier,monospace" font-size="9.00"> </text>
<text text-anchor="start" x="1765.4" y="-66.4" font-family="Courier,monospace" font-size="7.00">module</text>
<text text-anchor="start" x="1836.8" y="-65.8" font-family="Courier,monospace" font-size="9.00"> </text>
</a>
</g>
</g>
<!-- api_sparql&#45;&gt;sparql_json_result -->
<g id="edge16" class="edge">
<title>api_sparql&#45;&gt;sparql_json_result</title>
<path fill="none" stroke="black" d="M1081.38,-206.27C1179.87,-199.32 1407.52,-180.7 1596,-146 1641.59,-137.61 1653.95,-137.17 1697,-120 1711.71,-114.13 1727.08,-106.12 1740.43,-98.49"/>
<polygon fill="black" stroke="black" points="1740.77,-98.29 1743.92,-91.81 1751.12,-92.22 1740.77,-98.29"/>
<g id="a_edge16&#45;label"><a xlink:title="use_module">
<text text-anchor="middle" x="1671" y="-138.8" font-family="Courier,monospace" font-size="9.00">use_module</text>
</a>
</g>
</g>
<!-- sparql_csv_result -->
<g id="node18" class="node">
<title>sparql_csv_result</title>
<g id="a_node18"><a xlink:title="module">
<polygon fill="gainsboro" stroke="black" stroke-dasharray="5,2" points="2006,-92 1880,-92 1880,-96 1868,-96 1868,-56 2006,-56 2006,-92"/>
<polyline fill="none" stroke="black" stroke-dasharray="5,2" points="1868,-92 1880,-92 "/>
<text text-anchor="start" x="1875.8" y="-75.8" font-family="Courier,monospace" font-size="9.00"> </text>
<text text-anchor="start" x="1880.89" y="-75.2" font-family="Courier,monospace" font-size="11.00">sparql_csv_result</text>
<text text-anchor="start" x="1992.8" y="-75.8" font-family="Courier,monospace" font-size="9.00"> </text>
<text text-anchor="start" x="1875.8" y="-65.8" font-family="Courier,monospace" font-size="9.00"> </text>
<text text-anchor="start" x="1924.4" y="-66.4" font-family="Courier,monospace" font-size="7.00">module</text>
<text text-anchor="start" x="1992.8" y="-65.8" font-family="Courier,monospace" font-size="9.00"> </text>
</a>
</g>
</g>
<!-- api_sparql&#45;&gt;sparql_csv_result -->
<g id="edge17" class="edge">
<title>api_sparql&#45;&gt;sparql_csv_result</title>
<path fill="none" stroke="black" d="M1081.31,-206.01C1192.38,-197.89 1470.56,-176.09 1702,-146 1772.14,-136.88 1792.41,-143.83 1859,-120 1873.83,-114.69 1889.08,-106.59 1902.11,-98.71"/>
<polygon fill="black" stroke="black" points="1902.31,-98.59 1905.27,-92.01 1912.48,-92.22 1902.31,-98.59"/>
<g id="a_edge17&#45;label"><a xlink:title="use_module">
<text text-anchor="middle" x="1819" y="-138.8" font-family="Courier,monospace" font-size="9.00">use_module</text>
</a>
</g>
</g>
<!-- settings -->
<g id="node19" class="node">
<title>settings</title>
<g id="a_node19"><a xlink:title="module">
<polygon fill="gainsboro" stroke="black" stroke-dasharray="5,2" points="2102,-92 2036,-92 2036,-96 2024,-96 2024,-56 2102,-56 2102,-92"/>
<polyline fill="none" stroke="black" stroke-dasharray="5,2" points="2024,-92 2036,-92 "/>
<text text-anchor="start" x="2031.8" y="-75.8" font-family="Courier,monospace" font-size="9.00"> </text>
<text text-anchor="start" x="2036.6" y="-75.2" font-family="Courier,monospace" font-size="11.00">settings</text>
<text text-anchor="start" x="2088.8" y="-75.8" font-family="Courier,monospace" font-size="9.00"> </text>
<text text-anchor="start" x="2031.8" y="-65.8" font-family="Courier,monospace" font-size="9.00"> </text>
<text text-anchor="start" x="2050.4" y="-66.4" font-family="Courier,monospace" font-size="7.00">module</text>
<text text-anchor="start" x="2088.8" y="-65.8" font-family="Courier,monospace" font-size="9.00"> </text>
</a>
</g>
</g>
<!-- api_sparql&#45;&gt;settings -->
<g id="edge18" class="edge">
<title>api_sparql&#45;&gt;settings</title>
<path fill="none" stroke="black" d="M1081.46,-207.02C1209.05,-200.34 1559.63,-180.09 1850,-146 1923.73,-137.34 1948.31,-152.61 2015,-120 2024.38,-115.41 2033.18,-108.37 2040.62,-101.2"/>
<polygon fill="black" stroke="black" points="2040.93,-100.88 2042.21,-93.78 2049.26,-92.23 2040.93,-100.88"/>
<g id="a_edge18&#45;label"><a xlink:title="use_module">
<text text-anchor="middle" x="1993" y="-138.8" font-family="Courier,monospace" font-size="9.00">use_module</text>
</a>
</g>
</g>
<!-- cliopatria -->
<g id="node20" class="node">
<title>cliopatria</title>
<g id="a_node20"><a xlink:title="module">
<polygon fill="gainsboro" stroke="black" stroke-dasharray="5,2" points="2212,-92 2132,-92 2132,-96 2120,-96 2120,-56 2212,-56 2212,-92"/>
<polyline fill="none" stroke="black" stroke-dasharray="5,2" points="2120,-92 2132,-92 "/>
<text text-anchor="start" x="2127.8" y="-75.8" font-family="Courier,monospace" font-size="9.00"> </text>
<text text-anchor="start" x="2132.99" y="-75.2" font-family="Courier,monospace" font-size="11.00">cliopatria</text>
<text text-anchor="start" x="2198.8" y="-75.8" font-family="Courier,monospace" font-size="9.00"> </text>
<text text-anchor="start" x="2127.8" y="-65.8" font-family="Courier,monospace" font-size="9.00"> </text>
<text text-anchor="start" x="2153.4" y="-66.4" font-family="Courier,monospace" font-size="7.00">module</text>
<text text-anchor="start" x="2198.8" y="-65.8" font-family="Courier,monospace" font-size="9.00"> </text>
</a>
</g>
</g>
<!-- api_sparql&#45;&gt;cliopatria -->
<g id="edge19" class="edge">
<title>api_sparql&#45;&gt;cliopatria</title>
<path fill="none" stroke="black" d="M1081.22,-207.83C1255.07,-201.68 1839.69,-179 2024,-146 2063.72,-138.89 2075.36,-138.92 2111,-120 2120.98,-114.7 2130.85,-107.44 2139.42,-100.3"/>
<polygon fill="black" stroke="black" points="2139.44,-100.28 2141.33,-93.32 2148.48,-92.39 2139.44,-100.28"/>
<g id="a_edge19&#45;label"><a xlink:title="use_module">
<text text-anchor="middle" x="2097" y="-138.8" font-family="Courier,monospace" font-size="9.00">use_module</text>
</a>
</g>
</g>
</g>
</svg>
