<?xml version="1.0" encoding="UTF-8" standalone="no"?>
<!DOCTYPE svg PUBLIC "-//W3C//DTD SVG 1.1//EN"
 "http://www.w3.org/Graphics/SVG/1.1/DTD/svg11.dtd">
<!-- Generated by graphviz version 2.41.20190410.0829 (20190410.0829)
 -->
<!-- Title: sparql_grammar.pl Pages: 1 -->
<svg width="1462pt" height="463pt"
 viewBox="72.00 72.00 1390.00 391.00" xmlns="http://www.w3.org/2000/svg" xmlns:xlink="http://www.w3.org/1999/xlink">
<g id="graph0" class="graph" transform="scale(1 1) rotate(0) translate(76 387)">
<title>sparql_grammar.pl</title>
<polygon fill="white" stroke="transparent" points="-4,4 -4,-315 1314,-315 1314,4 -4,4"/>
<text text-anchor="start" x="8" y="-16" font-family="Courier,monospace" font-size="10.00" fill="#8b8989">ClioPatria &#45; an RDF application platform</text>
<text text-anchor="start" x="8" y="-6" font-family="Courier,monospace" font-size="10.00" fill="#8b8989">Generated on 2019/04/17, 13:04</text>
<g id="clust1" class="cluster">
<title>cluster_file_/Users/pmoura/ClioPatria/rdfql/sparql_grammar.pl</title>
<g id="a_clust1"><a xlink:href="https://github.com/ClioPatria/ClioPatria/tree/add57aa2039eed4033cf96e96c293b2052e88f41/rdfql/sparql_grammar.pl" xlink:title="https://github.com/ClioPatria/ClioPatria/tree/add57aa2039eed4033cf96e96c293b2052e88f41/rdfql/sparql_grammar.pl">
<path fill="snow" stroke="#8b8989" d="M20,-36C20,-36 1290,-36 1290,-36 1296,-36 1302,-42 1302,-48 1302,-48 1302,-291 1302,-291 1302,-297 1296,-303 1290,-303 1290,-303 20,-303 20,-303 14,-303 8,-297 8,-291 8,-291 8,-48 8,-48 8,-42 14,-36 20,-36"/>
<text text-anchor="middle" x="67.01" y="-291" font-family="Courier,monospace" font-size="10.00" fill="#8b8989">sparql_grammar.pl</text>
</a>
</g>
</g>
<g id="clust2" class="cluster">
<title>cluster_other</title>
<g id="a_clust2"><a xlink:title="(external entities)">
<path fill="white" stroke="#8b8989" d="M30,-46C30,-46 1144,-46 1144,-46 1150,-46 1156,-52 1156,-58 1156,-58 1156,-108 1156,-108 1156,-114 1150,-120 1144,-120 1144,-120 30,-120 30,-120 24,-120 18,-114 18,-108 18,-108 18,-58 18,-58 18,-52 24,-46 30,-46"/>
<text text-anchor="middle" x="83.01" y="-108" font-family="Courier,monospace" font-size="10.00" fill="#8b8989">(external entities)</text>
</a>
</g>
</g>
<!-- sparql_grammar -->
<g id="node1" class="node">
<title>sparql_grammar</title>
<g id="a_node1"><a xlink:title="module">
<polygon fill="gainsboro" stroke="black" points="769.5,-275 620.5,-275 620.5,-279 608.5,-279 608.5,-191 769.5,-191 769.5,-275"/>
<polyline fill="none" stroke="black" points="608.5,-275 620.5,-275 "/>
<g id="a_node1_0"><a xlink:href="sparql_grammar_module_xref_diagram.svg" xlink:title="Zoom">
<image xlink:href="zoom.png" width="11px" height="11px" preserveAspectRatio="xMinYMin meet" x="617" y="-271"/>
</a>
</g>
<text text-anchor="start" x="619.8" y="-251.8" font-family="Courier,monospace" font-size="9.00"> </text>
<text text-anchor="start" x="646.29" y="-251.2" font-family="Courier,monospace" font-size="11.00">sparql_grammar</text>
<text text-anchor="start" x="756.8" y="-251.8" font-family="Courier,monospace" font-size="9.00"> </text>
<text text-anchor="start" x="619.8" y="-241.8" font-family="Courier,monospace" font-size="9.00"> </text>
<text text-anchor="start" x="679.9" y="-242.4" font-family="Courier,monospace" font-size="7.00">module</text>
<text text-anchor="start" x="756.8" y="-241.8" font-family="Courier,monospace" font-size="9.00"> </text>
<text text-anchor="start" x="619.8" y="-232.8" font-family="Courier,monospace" font-size="9.00"> </text>
<text text-anchor="start" x="619.8" y="-223.8" font-family="Courier,monospace" font-size="9.00"> </text>
<text text-anchor="start" x="654.69" y="-223.8" font-family="Courier,monospace" font-size="9.00">sparql_parse/3</text>
<text text-anchor="start" x="756.8" y="-223.8" font-family="Courier,monospace" font-size="9.00"> </text>
<text text-anchor="start" x="619.8" y="-214.8" font-family="Courier,monospace" font-size="9.00"> </text>
<text text-anchor="start" x="627.69" y="-214.8" font-family="Courier,monospace" font-size="9.00">http:bad_request_error/2</text>
<text text-anchor="start" x="756.8" y="-214.8" font-family="Courier,monospace" font-size="9.00"> </text>
<text text-anchor="start" x="619.8" y="-205.8" font-family="Courier,monospace" font-size="9.00"> </text>
<text text-anchor="start" x="649.29" y="-205.8" font-family="Courier,monospace" font-size="9.00">prolog:message/3</text>
<text text-anchor="start" x="756.8" y="-205.8" font-family="Courier,monospace" font-size="9.00"> </text>
<text text-anchor="start" x="619.8" y="-196.8" font-family="Courier,monospace" font-size="9.00"> </text>
<text text-anchor="start" x="630.39" y="-196.8" font-family="Courier,monospace" font-size="9.00">record:current_record/5</text>
<text text-anchor="start" x="756.8" y="-196.8" font-family="Courier,monospace" font-size="9.00"> </text>
</a>
</g>
</g>
<!-- record -->
<g id="node2" class="node">
<title>record</title>
<g id="a_node2"><a xlink:title="module">
<polygon fill="gainsboro" stroke="black" stroke-dasharray="5,2" points="93.5,-92 40.5,-92 40.5,-96 28.5,-96 28.5,-56 93.5,-56 93.5,-92"/>
<polyline fill="none" stroke="black" stroke-dasharray="5,2" points="28.5,-92 40.5,-92 "/>
<text text-anchor="start" x="36.8" y="-75.8" font-family="Courier,monospace" font-size="9.00"> </text>
<text text-anchor="start" x="41.7" y="-75.2" font-family="Courier,monospace" font-size="11.00">record</text>
<text text-anchor="start" x="80.8" y="-75.8" font-family="Courier,monospace" font-size="9.00"> </text>
<text text-anchor="start" x="36.8" y="-65.8" font-family="Courier,monospace" font-size="9.00"> </text>
<text text-anchor="start" x="48.9" y="-66.4" font-family="Courier,monospace" font-size="7.00">module</text>
<text text-anchor="start" x="80.8" y="-65.8" font-family="Courier,monospace" font-size="9.00"> </text>
</a>
</g>
</g>
<!-- sparql_grammar&#45;&gt;record -->
<g id="edge3" class="edge">
<title>sparql_grammar&#45;&gt;record</title>
<path fill="none" stroke="black" d="M608.39,-225.87C503.09,-216.29 313.88,-193.71 158.79,-146 132.65,-137.96 125.14,-136.07 103,-120 95.29,-114.4 87.86,-107.25 81.45,-100.3"/>
<polygon fill="black" stroke="black" points="77.06,-90.03 81.05,-99.85 71.81,-94.66 77.06,-90.03"/>
<g id="a_edge3&#45;label"><a xlink:title="provides">
<text text-anchor="middle" x="179.6" y="-138.8" font-family="Courier,monospace" font-size="9.00">provides</text>
</a>
</g>
</g>
<!-- error -->
<g id="node3" class="node">
<title>error</title>
<g id="a_node3"><a xlink:title="module">
<polygon fill="gainsboro" stroke="black" stroke-dasharray="5,2" points="170.5,-92 123.5,-92 123.5,-96 111.5,-96 111.5,-56 170.5,-56 170.5,-92"/>
<polyline fill="none" stroke="black" stroke-dasharray="5,2" points="111.5,-92 123.5,-92 "/>
<text text-anchor="start" x="119.8" y="-75.8" font-family="Courier,monospace" font-size="9.00"> </text>
<text text-anchor="start" x="125" y="-75.2" font-family="Courier,monospace" font-size="11.00">error</text>
<text text-anchor="start" x="157.8" y="-75.8" font-family="Courier,monospace" font-size="9.00"> </text>
<text text-anchor="start" x="119.8" y="-65.8" font-family="Courier,monospace" font-size="9.00"> </text>
<text text-anchor="start" x="128.9" y="-66.4" font-family="Courier,monospace" font-size="7.00">module</text>
<text text-anchor="start" x="157.8" y="-65.8" font-family="Courier,monospace" font-size="9.00"> </text>
</a>
</g>
</g>
<!-- sparql_grammar&#45;&gt;error -->
<g id="edge4" class="edge">
<title>sparql_grammar&#45;&gt;error</title>
<path fill="none" stroke="black" d="M608.38,-224.16C515.25,-213.46 358.36,-190.31 229.99,-146 206.32,-137.83 199.66,-135.52 180,-120 173.24,-114.66 166.75,-108.04 161.07,-101.52"/>
<polygon fill="black" stroke="black" points="161.03,-101.47 154.12,-99.39 153.39,-92.22 161.03,-101.47"/>
<g id="a_edge4&#45;label"><a xlink:title="use_module">
<text text-anchor="middle" x="256" y="-138.8" font-family="Courier,monospace" font-size="9.00">use_module</text>
</a>
</g>
</g>
<!-- lists -->
<g id="node4" class="node">
<title>lists</title>
<g id="a_node4"><a xlink:title="module">
<polygon fill="gainsboro" stroke="black" stroke-dasharray="5,2" points="247.5,-92 200.5,-92 200.5,-96 188.5,-96 188.5,-56 247.5,-56 247.5,-92"/>
<polyline fill="none" stroke="black" stroke-dasharray="5,2" points="188.5,-92 200.5,-92 "/>
<text text-anchor="start" x="196.8" y="-75.8" font-family="Courier,monospace" font-size="9.00"> </text>
<text text-anchor="start" x="202" y="-75.2" font-family="Courier,monospace" font-size="11.00">lists</text>
<text text-anchor="start" x="234.8" y="-75.8" font-family="Courier,monospace" font-size="9.00"> </text>
<text text-anchor="start" x="196.8" y="-65.8" font-family="Courier,monospace" font-size="9.00"> </text>
<text text-anchor="start" x="205.9" y="-66.4" font-family="Courier,monospace" font-size="7.00">module</text>
<text text-anchor="start" x="234.8" y="-65.8" font-family="Courier,monospace" font-size="9.00"> </text>
</a>
</g>
</g>
<!-- sparql_grammar&#45;&gt;lists -->
<g id="edge5" class="edge">
<title>sparql_grammar&#45;&gt;lists</title>
<path fill="none" stroke="black" d="M608.37,-225.8C516.97,-215.6 366.49,-188.94 257,-120 249.48,-115.26 242.61,-108.63 236.8,-101.91"/>
<polygon fill="black" stroke="black" points="236.56,-101.61 229.7,-99.4 229.1,-92.21 236.56,-101.61"/>
<g id="a_edge5&#45;label"><a xlink:title="use_module">
<text text-anchor="middle" x="325" y="-138.8" font-family="Courier,monospace" font-size="9.00">use_module</text>
</a>
</g>
</g>
<!-- prolog_debug -->
<g id="node5" class="node">
<title>prolog_debug</title>
<g id="a_node5"><a xlink:title="module">
<polygon fill="gainsboro" stroke="black" stroke-dasharray="5,2" points="370.5,-92 277.5,-92 277.5,-96 265.5,-96 265.5,-56 370.5,-56 370.5,-92"/>
<polyline fill="none" stroke="black" stroke-dasharray="5,2" points="265.5,-92 277.5,-92 "/>
<text text-anchor="start" x="273.8" y="-75.8" font-family="Courier,monospace" font-size="9.00"> </text>
<text text-anchor="start" x="278.89" y="-75.2" font-family="Courier,monospace" font-size="11.00">prolog_debug</text>
<text text-anchor="start" x="357.8" y="-75.8" font-family="Courier,monospace" font-size="9.00"> </text>
<text text-anchor="start" x="273.8" y="-65.8" font-family="Courier,monospace" font-size="9.00"> </text>
<text text-anchor="start" x="305.9" y="-66.4" font-family="Courier,monospace" font-size="7.00">module</text>
<text text-anchor="start" x="357.8" y="-65.8" font-family="Courier,monospace" font-size="9.00"> </text>
</a>
</g>
</g>
<!-- sparql_grammar&#45;&gt;prolog_debug -->
<g id="edge6" class="edge">
<title>sparql_grammar&#45;&gt;prolog_debug</title>
<path fill="none" stroke="black" d="M608.3,-212.24C543.56,-194.21 451.94,-163.69 380,-120 369.81,-113.81 359.16,-106.45 349.62,-99.48"/>
<polygon fill="black" stroke="black" points="349.41,-99.32 342.2,-98.95 339.78,-92.16 349.41,-99.32"/>
<g id="a_edge6&#45;label"><a xlink:title="use_module">
<text text-anchor="middle" x="454" y="-138.8" font-family="Courier,monospace" font-size="9.00">use_module</text>
</a>
</g>
</g>
<!-- sparql -->
<g id="node6" class="node">
<title>sparql</title>
<g id="a_node6"><a xlink:title="module">
<polygon fill="gainsboro" stroke="black" stroke-dasharray="5,2" points="453.5,-92 400.5,-92 400.5,-96 388.5,-96 388.5,-56 453.5,-56 453.5,-92"/>
<polyline fill="none" stroke="black" stroke-dasharray="5,2" points="388.5,-92 400.5,-92 "/>
<text text-anchor="start" x="396.8" y="-75.8" font-family="Courier,monospace" font-size="9.00"> </text>
<text text-anchor="start" x="401.7" y="-75.2" font-family="Courier,monospace" font-size="11.00">sparql</text>
<text text-anchor="start" x="440.8" y="-75.8" font-family="Courier,monospace" font-size="9.00"> </text>
<text text-anchor="start" x="396.8" y="-65.8" font-family="Courier,monospace" font-size="9.00"> </text>
<text text-anchor="start" x="408.9" y="-66.4" font-family="Courier,monospace" font-size="7.00">module</text>
<text text-anchor="start" x="440.8" y="-65.8" font-family="Courier,monospace" font-size="9.00"> </text>
</a>
</g>
</g>
<!-- sparql_grammar&#45;&gt;sparql -->
<g id="edge7" class="edge">
<title>sparql_grammar&#45;&gt;sparql</title>
<path fill="none" stroke="black" d="M608.31,-203.32C562.45,-184.39 505.81,-156.35 463,-120 456.32,-114.33 449.62,-107.68 443.58,-101.25"/>
<polygon fill="black" stroke="black" points="443.38,-101.03 436.38,-99.28 435.31,-92.14 443.38,-101.03"/>
<g id="a_edge7&#45;label"><a xlink:title="use_module">
<text text-anchor="middle" x="522" y="-138.8" font-family="Courier,monospace" font-size="9.00">use_module</text>
</a>
</g>
</g>
<!-- swi_option -->
<g id="node7" class="node">
<title>swi_option</title>
<g id="a_node7"><a xlink:title="module">
<polygon fill="gainsboro" stroke="black" stroke-dasharray="5,2" points="564,-92 484,-92 484,-96 472,-96 472,-56 564,-56 564,-92"/>
<polyline fill="none" stroke="black" stroke-dasharray="5,2" points="472,-92 484,-92 "/>
<text text-anchor="start" x="479.8" y="-75.8" font-family="Courier,monospace" font-size="9.00"> </text>
<text text-anchor="start" x="484.99" y="-75.2" font-family="Courier,monospace" font-size="11.00">swi_option</text>
<text text-anchor="start" x="550.8" y="-75.8" font-family="Courier,monospace" font-size="9.00"> </text>
<text text-anchor="start" x="479.8" y="-65.8" font-family="Courier,monospace" font-size="9.00"> </text>
<text text-anchor="start" x="505.4" y="-66.4" font-family="Courier,monospace" font-size="7.00">module</text>
<text text-anchor="start" x="550.8" y="-65.8" font-family="Courier,monospace" font-size="9.00"> </text>
</a>
</g>
</g>
<!-- sparql_grammar&#45;&gt;swi_option -->
<g id="edge8" class="edge">
<title>sparql_grammar&#45;&gt;swi_option</title>
<path fill="none" stroke="black" d="M623.65,-190.98C604.99,-177.77 585.31,-162.3 568.99,-146 556.03,-133.05 543.95,-116.53 534.81,-102.68"/>
<polygon fill="black" stroke="black" points="534.61,-102.37 528.01,-99.47 528.14,-92.26 534.61,-102.37"/>
<g id="a_edge8&#45;label"><a xlink:title="use_module">
<text text-anchor="middle" x="595" y="-138.8" font-family="Courier,monospace" font-size="9.00">use_module</text>
</a>
</g>
</g>
<!-- assoc -->
<g id="node8" class="node">
<title>assoc</title>
<g id="a_node8"><a xlink:title="module">
<polygon fill="gainsboro" stroke="black" stroke-dasharray="5,2" points="641.5,-92 594.5,-92 594.5,-96 582.5,-96 582.5,-56 641.5,-56 641.5,-92"/>
<polyline fill="none" stroke="black" stroke-dasharray="5,2" points="582.5,-92 594.5,-92 "/>
<text text-anchor="start" x="590.8" y="-75.8" font-family="Courier,monospace" font-size="9.00"> </text>
<text text-anchor="start" x="596" y="-75.2" font-family="Courier,monospace" font-size="11.00">assoc</text>
<text text-anchor="start" x="628.8" y="-75.8" font-family="Courier,monospace" font-size="9.00"> </text>
<text text-anchor="start" x="590.8" y="-65.8" font-family="Courier,monospace" font-size="9.00"> </text>
<text text-anchor="start" x="599.9" y="-66.4" font-family="Courier,monospace" font-size="7.00">module</text>
<text text-anchor="start" x="628.8" y="-65.8" font-family="Courier,monospace" font-size="9.00"> </text>
</a>
</g>
</g>
<!-- sparql_grammar&#45;&gt;assoc -->
<g id="edge9" class="edge">
<title>sparql_grammar&#45;&gt;assoc</title>
<path fill="none" stroke="black" d="M657.14,-190.78C647.69,-177.09 638.01,-161.41 630.99,-146 624.94,-132.71 620.5,-117.12 617.45,-103.93"/>
<polygon fill="black" stroke="black" points="617.44,-103.92 612.28,-98.89 614.93,-92.19 617.44,-103.92"/>
<g id="a_edge9&#45;label"><a xlink:title="use_module">
<text text-anchor="middle" x="657" y="-138.8" font-family="Courier,monospace" font-size="9.00">use_module</text>
</a>
</g>
</g>
<!-- apply -->
<g id="node9" class="node">
<title>apply</title>
<g id="a_node9"><a xlink:title="module">
<polygon fill="gainsboro" stroke="black" stroke-dasharray="5,2" points="718.5,-92 671.5,-92 671.5,-96 659.5,-96 659.5,-56 718.5,-56 718.5,-92"/>
<polyline fill="none" stroke="black" stroke-dasharray="5,2" points="659.5,-92 671.5,-92 "/>
<text text-anchor="start" x="667.8" y="-75.8" font-family="Courier,monospace" font-size="9.00"> </text>
<text text-anchor="start" x="673" y="-75.2" font-family="Courier,monospace" font-size="11.00">apply</text>
<text text-anchor="start" x="705.8" y="-75.8" font-family="Courier,monospace" font-size="9.00"> </text>
<text text-anchor="start" x="667.8" y="-65.8" font-family="Courier,monospace" font-size="9.00"> </text>
<text text-anchor="start" x="676.9" y="-66.4" font-family="Courier,monospace" font-size="7.00">module</text>
<text text-anchor="start" x="705.8" y="-65.8" font-family="Courier,monospace" font-size="9.00"> </text>
</a>
</g>
</g>
<!-- sparql_grammar&#45;&gt;apply -->
<g id="edge10" class="edge">
<title>sparql_grammar&#45;&gt;apply</title>
<path fill="none" stroke="black" d="M689,-190.75C689,-163.61 689,-128.75 689,-104.4"/>
<polygon fill="black" stroke="black" points="689,-104.08 685,-98.08 689,-92.08 689,-104.08"/>
<g id="a_edge10&#45;label"><a xlink:title="use_module">
<text text-anchor="middle" x="716" y="-138.8" font-family="Courier,monospace" font-size="9.00">use_module</text>
</a>
</g>
</g>
<!-- rdf_db -->
<g id="node10" class="node">
<title>rdf_db</title>
<g id="a_node10"><a xlink:title="module">
<polygon fill="gainsboro" stroke="black" stroke-dasharray="5,2" points="801.5,-92 748.5,-92 748.5,-96 736.5,-96 736.5,-56 801.5,-56 801.5,-92"/>
<polyline fill="none" stroke="black" stroke-dasharray="5,2" points="736.5,-92 748.5,-92 "/>
<text text-anchor="start" x="744.8" y="-75.8" font-family="Courier,monospace" font-size="9.00"> </text>
<text text-anchor="start" x="749.7" y="-75.2" font-family="Courier,monospace" font-size="11.00">rdf_db</text>
<text text-anchor="start" x="788.8" y="-75.8" font-family="Courier,monospace" font-size="9.00"> </text>
<text text-anchor="start" x="744.8" y="-65.8" font-family="Courier,monospace" font-size="9.00"> </text>
<text text-anchor="start" x="756.9" y="-66.4" font-family="Courier,monospace" font-size="7.00">module</text>
<text text-anchor="start" x="788.8" y="-65.8" font-family="Courier,monospace" font-size="9.00"> </text>
</a>
</g>
</g>
<!-- sparql_grammar&#45;&gt;rdf_db -->
<g id="edge11" class="edge">
<title>sparql_grammar&#45;&gt;rdf_db</title>
<path fill="none" stroke="black" d="M718.14,-190.7C727.14,-176.88 736.62,-161.13 744,-146 750.56,-132.56 756.25,-116.95 760.53,-103.79"/>
<polygon fill="black" stroke="black" points="760.61,-103.54 758.59,-96.61 764.2,-92.08 760.61,-103.54"/>
<g id="a_edge11&#45;label"><a xlink:title="use_module">
<text text-anchor="middle" x="774" y="-138.8" font-family="Courier,monospace" font-size="9.00">use_module</text>
</a>
</g>
</g>
<!-- url -->
<g id="node11" class="node">
<title>url</title>
<g id="a_node11"><a xlink:title="module">
<polygon fill="gainsboro" stroke="black" stroke-dasharray="5,2" points="874,-92 832,-92 832,-96 820,-96 820,-56 874,-56 874,-92"/>
<polyline fill="none" stroke="black" stroke-dasharray="5,2" points="820,-92 832,-92 "/>
<text text-anchor="start" x="829.8" y="-75.8" font-family="Courier,monospace" font-size="9.00"> </text>
<text text-anchor="start" x="837.6" y="-75.2" font-family="Courier,monospace" font-size="11.00">url</text>
<text text-anchor="start" x="859.8" y="-75.8" font-family="Courier,monospace" font-size="9.00"> </text>
<text text-anchor="start" x="829.8" y="-65.8" font-family="Courier,monospace" font-size="9.00"> </text>
<text text-anchor="start" x="834.9" y="-66.4" font-family="Courier,monospace" font-size="7.00">module</text>
<text text-anchor="start" x="859.8" y="-65.8" font-family="Courier,monospace" font-size="9.00"> </text>
</a>
</g>
</g>
<!-- sparql_grammar&#45;&gt;url -->
<g id="edge12" class="edge">
<title>sparql_grammar&#45;&gt;url</title>
<path fill="none" stroke="black" d="M753.92,-190.89C771.7,-177.84 790.15,-162.48 805,-146 816.54,-133.2 826.51,-116.75 833.83,-102.91"/>
<polygon fill="black" stroke="black" points="833.92,-102.73 833.06,-95.57 839.34,-92.03 833.92,-102.73"/>
<g id="a_edge12&#45;label"><a xlink:title="use_module">
<text text-anchor="middle" x="839" y="-138.8" font-family="Courier,monospace" font-size="9.00">use_module</text>
</a>
</g>
</g>
<!-- uri -->
<g id="node12" class="node">
<title>uri</title>
<g id="a_node12"><a xlink:title="module">
<polygon fill="gainsboro" stroke="black" stroke-dasharray="5,2" points="946,-92 904,-92 904,-96 892,-96 892,-56 946,-56 946,-92"/>
<polyline fill="none" stroke="black" stroke-dasharray="5,2" points="892,-92 904,-92 "/>
<text text-anchor="start" x="901.8" y="-75.8" font-family="Courier,monospace" font-size="9.00"> </text>
<text text-anchor="start" x="909.6" y="-75.2" font-family="Courier,monospace" font-size="11.00">uri</text>
<text text-anchor="start" x="931.8" y="-75.8" font-family="Courier,monospace" font-size="9.00"> </text>
<text text-anchor="start" x="901.8" y="-65.8" font-family="Courier,monospace" font-size="9.00"> </text>
<text text-anchor="start" x="906.9" y="-66.4" font-family="Courier,monospace" font-size="7.00">module</text>
<text text-anchor="start" x="931.8" y="-65.8" font-family="Courier,monospace" font-size="9.00"> </text>
</a>
</g>
</g>
<!-- sparql_grammar&#45;&gt;uri -->
<g id="edge13" class="edge">
<title>sparql_grammar&#45;&gt;uri</title>
<path fill="none" stroke="black" d="M769.57,-204.38C803,-190.35 840.72,-170.92 870,-146 884.04,-134.05 895.91,-117.18 904.44,-102.88"/>
<polygon fill="black" stroke="black" points="904.63,-102.54 904.12,-95.35 910.56,-92.11 904.63,-102.54"/>
<g id="a_edge13&#45;label"><a xlink:title="use_module">
<text text-anchor="middle" x="905" y="-138.8" font-family="Courier,monospace" font-size="9.00">use_module</text>
</a>
</g>
</g>
<!-- ordsets -->
<g id="node13" class="node">
<title>ordsets</title>
<g id="a_node13"><a xlink:title="module">
<polygon fill="gainsboro" stroke="black" stroke-dasharray="5,2" points="1036,-92 976,-92 976,-96 964,-96 964,-56 1036,-56 1036,-92"/>
<polyline fill="none" stroke="black" stroke-dasharray="5,2" points="964,-92 976,-92 "/>
<text text-anchor="start" x="971.8" y="-75.8" font-family="Courier,monospace" font-size="9.00"> </text>
<text text-anchor="start" x="976.9" y="-75.2" font-family="Courier,monospace" font-size="11.00">ordsets</text>
<text text-anchor="start" x="1022.8" y="-75.8" font-family="Courier,monospace" font-size="9.00"> </text>
<text text-anchor="start" x="971.8" y="-65.8" font-family="Courier,monospace" font-size="9.00"> </text>
<text text-anchor="start" x="987.4" y="-66.4" font-family="Courier,monospace" font-size="7.00">module</text>
<text text-anchor="start" x="1022.8" y="-65.8" font-family="Courier,monospace" font-size="9.00"> </text>
</a>
</g>
</g>
<!-- sparql_grammar&#45;&gt;ordsets -->
<g id="edge14" class="edge">
<title>sparql_grammar&#45;&gt;ordsets</title>
<path fill="none" stroke="black" d="M769.57,-214.88C820.26,-201.56 885.41,-179.59 936,-146 953.64,-134.29 969.59,-116.62 981.15,-101.84"/>
<polygon fill="black" stroke="black" points="981.21,-101.76 981.62,-94.56 988.43,-92.18 981.21,-101.76"/>
<g id="a_edge14&#45;label"><a xlink:title="use_module">
<text text-anchor="middle" x="973" y="-138.8" font-family="Courier,monospace" font-size="9.00">use_module</text>
</a>
</g>
</g>
<!-- pure_input -->
<g id="node14" class="node">
<title>pure_input</title>
<g id="a_node14"><a xlink:title="module">
<polygon fill="gainsboro" stroke="black" stroke-dasharray="5,2" points="1146,-92 1066,-92 1066,-96 1054,-96 1054,-56 1146,-56 1146,-92"/>
<polyline fill="none" stroke="black" stroke-dasharray="5,2" points="1054,-92 1066,-92 "/>
<text text-anchor="start" x="1061.8" y="-75.8" font-family="Courier,monospace" font-size="9.00"> </text>
<text text-anchor="start" x="1066.99" y="-75.2" font-family="Courier,monospace" font-size="11.00">pure_input</text>
<text text-anchor="start" x="1132.8" y="-75.8" font-family="Courier,monospace" font-size="9.00"> </text>
<text text-anchor="start" x="1061.8" y="-65.8" font-family="Courier,monospace" font-size="9.00"> </text>
<text text-anchor="start" x="1087.4" y="-66.4" font-family="Courier,monospace" font-size="7.00">module</text>
<text text-anchor="start" x="1132.8" y="-65.8" font-family="Courier,monospace" font-size="9.00"> </text>
</a>
</g>
</g>
<!-- sparql_grammar&#45;&gt;pure_input -->
<g id="edge15" class="edge">
<title>sparql_grammar&#45;&gt;pure_input</title>
<path fill="none" stroke="black" d="M769.57,-216.95C834.59,-203.18 927.51,-179.78 1004,-146 1029.44,-134.77 1054.58,-115.81 1072.75,-100.31"/>
<polygon fill="black" stroke="black" points="1073.06,-100.03 1074.93,-93.07 1082.08,-92.12 1073.06,-100.03"/>
<g id="a_edge15&#45;label"><a xlink:title="use_module">
<text text-anchor="middle" x="1048" y="-138.8" font-family="Courier,monospace" font-size="9.00">use_module</text>
</a>
</g>
</g>
<!-- http -->
<g id="node15" class="node">
<title>http</title>
<ellipse fill="white" stroke="black" cx="1193" cy="-74" rx="27" ry="18"/>
<text text-anchor="middle" x="1193" y="-71.3" font-family="Courier,monospace" font-size="9.00">http</text>
</g>
<!-- sparql_grammar&#45;&gt;http -->
<g id="edge1" class="edge">
<title>sparql_grammar&#45;&gt;http</title>
<path fill="none" stroke="black" d="M769.83,-216.47C849.08,-200.71 973.07,-174.61 1079,-146 1115.5,-136.14 1129.32,-142.1 1160,-120 1167.46,-114.63 1173.92,-107.06 1179.1,-99.65"/>
<polygon fill="black" stroke="black" points="1187.52,-93.08 1179.15,-99.58 1181.64,-89.28 1187.52,-93.08"/>
<g id="a_edge1&#45;label"><a xlink:title="provides">
<text text-anchor="middle" x="1144.6" y="-138.8" font-family="Courier,monospace" font-size="9.00">provides</text>
</a>
</g>
</g>
<!-- prolog -->
<g id="node16" class="node">
<title>prolog</title>
<ellipse fill="white" stroke="black" cx="1265" cy="-74" rx="27.41" ry="18"/>
<text text-anchor="middle" x="1265" y="-71.3" font-family="Courier,monospace" font-size="9.00">prolog</text>
</g>
<!-- sparql_grammar&#45;&gt;prolog -->
<g id="edge2" class="edge">
<title>sparql_grammar&#45;&gt;prolog</title>
<path fill="none" stroke="black" d="M769.53,-223.55C866.19,-212.05 1032.46,-187.94 1170,-146 1197.41,-137.64 1206.28,-137.47 1229,-120 1236.41,-114.3 1243.21,-106.77 1248.85,-99.5"/>
<polygon fill="black" stroke="black" points="1257.74,-93.28 1249.01,-99.28 1252.09,-89.14 1257.74,-93.28"/>
<g id="a_edge2&#45;label"><a xlink:title="provides">
<text text-anchor="middle" x="1220.6" y="-138.8" font-family="Courier,monospace" font-size="9.00">provides</text>
</a>
</g>
</g>
</g>
</svg>
