<?xml version="1.0" encoding="UTF-8" standalone="no"?>
<!DOCTYPE svg PUBLIC "-//W3C//DTD SVG 1.1//EN"
 "http://www.w3.org/Graphics/SVG/1.1/DTD/svg11.dtd">
<!-- Generated by graphviz version 2.41.20190410.0829 (20190410.0829)
 -->
<!-- Title: sparql_runtime.pl Pages: 1 -->
<svg width="1995pt" height="535pt"
 viewBox="72.00 72.00 1923.00 463.00" xmlns="http://www.w3.org/2000/svg" xmlns:xlink="http://www.w3.org/1999/xlink">
<g id="graph0" class="graph" transform="scale(1 1) rotate(0) translate(76 459)">
<title>sparql_runtime.pl</title>
<polygon fill="white" stroke="transparent" points="-4,4 -4,-387 1847,-387 1847,4 -4,4"/>
<text text-anchor="start" x="8" y="-16" font-family="Courier,monospace" font-size="10.00" fill="#8b8989">ClioPatria &#45; an RDF application platform</text>
<text text-anchor="start" x="8" y="-6" font-family="Courier,monospace" font-size="10.00" fill="#8b8989">Generated on 2019/04/17, 13:04</text>
<g id="clust1" class="cluster">
<title>cluster_file_/Users/pmoura/ClioPatria/rdfql/sparql_runtime.pl</title>
<g id="a_clust1"><a xlink:href="https://github.com/ClioPatria/ClioPatria/tree/add57aa2039eed4033cf96e96c293b2052e88f41/rdfql/sparql_runtime.pl" xlink:title="https://github.com/ClioPatria/ClioPatria/tree/add57aa2039eed4033cf96e96c293b2052e88f41/rdfql/sparql_runtime.pl">
<path fill="snow" stroke="#8b8989" d="M20,-36C20,-36 1823,-36 1823,-36 1829,-36 1835,-42 1835,-48 1835,-48 1835,-363 1835,-363 1835,-369 1829,-375 1823,-375 1823,-375 20,-375 20,-375 14,-375 8,-369 8,-363 8,-363 8,-48 8,-48 8,-42 14,-36 20,-36"/>
<text text-anchor="middle" x="67.01" y="-363" font-family="Courier,monospace" font-size="10.00" fill="#8b8989">sparql_runtime.pl</text>
</a>
</g>
</g>
<g id="clust2" class="cluster">
<title>cluster_other</title>
<g id="a_clust2"><a xlink:title="(external entities)">
<path fill="white" stroke="#8b8989" d="M30,-46C30,-46 1813,-46 1813,-46 1819,-46 1825,-52 1825,-58 1825,-58 1825,-108 1825,-108 1825,-114 1819,-120 1813,-120 1813,-120 30,-120 30,-120 24,-120 18,-114 18,-108 18,-108 18,-58 18,-58 18,-52 24,-46 30,-46"/>
<text text-anchor="middle" x="83.01" y="-108" font-family="Courier,monospace" font-size="10.00" fill="#8b8989">(external entities)</text>
</a>
</g>
</g>
<!-- sparql_runtime -->
<g id="node1" class="node">
<title>sparql_runtime</title>
<g id="a_node1"><a xlink:title="module">
<polygon fill="gainsboro" stroke="black" points="1014.5,-347 881.5,-347 881.5,-351 869.5,-351 869.5,-191 1014.5,-191 1014.5,-347"/>
<polyline fill="none" stroke="black" points="869.5,-347 881.5,-347 "/>
<g id="a_node1_0"><a xlink:href="sparql_runtime_module_xref_diagram.svg" xlink:title="Zoom">
<image xlink:href="zoom.png" width="11px" height="11px" preserveAspectRatio="xMinYMin meet" x="878" y="-343"/>
</a>
</g>
<text text-anchor="start" x="880.8" y="-323.8" font-family="Courier,monospace" font-size="9.00"> </text>
<text text-anchor="start" x="899.29" y="-323.2" font-family="Courier,monospace" font-size="11.00">sparql_runtime</text>
<text text-anchor="start" x="1001.8" y="-323.8" font-family="Courier,monospace" font-size="9.00"> </text>
<text text-anchor="start" x="880.8" y="-313.8" font-family="Courier,monospace" font-size="9.00"> </text>
<text text-anchor="start" x="932.9" y="-314.4" font-family="Courier,monospace" font-size="7.00">module</text>
<text text-anchor="start" x="1001.8" y="-313.8" font-family="Courier,monospace" font-size="9.00"> </text>
<text text-anchor="start" x="880.8" y="-304.8" font-family="Courier,monospace" font-size="9.00"> </text>
<text text-anchor="start" x="880.8" y="-295.8" font-family="Courier,monospace" font-size="9.00"> </text>
<text text-anchor="start" x="902.29" y="-295.8" font-family="Courier,monospace" font-size="9.00">sparql_service/5</text>
<text text-anchor="start" x="1001.8" y="-295.8" font-family="Courier,monospace" font-size="9.00"> </text>
<text text-anchor="start" x="880.8" y="-286.8" font-family="Courier,monospace" font-size="9.00"> </text>
<text text-anchor="start" x="888.79" y="-286.8" font-family="Courier,monospace" font-size="9.00">sparql_reset_bnodes/0</text>
<text text-anchor="start" x="1001.8" y="-286.8" font-family="Courier,monospace" font-size="9.00"> </text>
<text text-anchor="start" x="880.8" y="-277.8" font-family="Courier,monospace" font-size="9.00"> </text>
<text text-anchor="start" x="907.69" y="-277.8" font-family="Courier,monospace" font-size="9.00">sparql_minus/2</text>
<text text-anchor="start" x="1001.8" y="-277.8" font-family="Courier,monospace" font-size="9.00"> </text>
<text text-anchor="start" x="880.8" y="-268.8" font-family="Courier,monospace" font-size="9.00"> </text>
<text text-anchor="start" x="910.39" y="-268.8" font-family="Courier,monospace" font-size="9.00">sparql_true/1</text>
<text text-anchor="start" x="1001.8" y="-268.8" font-family="Courier,monospace" font-size="9.00"> </text>
<text text-anchor="start" x="880.8" y="-259.8" font-family="Courier,monospace" font-size="9.00"> </text>
<text text-anchor="start" x="899.59" y="-259.8" font-family="Courier,monospace" font-size="9.00">sparql_subquery/3</text>
<text text-anchor="start" x="1001.8" y="-259.8" font-family="Courier,monospace" font-size="9.00"> </text>
<text text-anchor="start" x="880.8" y="-250.8" font-family="Courier,monospace" font-size="9.00"> </text>
<text text-anchor="start" x="904.99" y="-250.8" font-family="Courier,monospace" font-size="9.00">sparql_update/1</text>
<text text-anchor="start" x="1001.8" y="-250.8" font-family="Courier,monospace" font-size="9.00"> </text>
<text text-anchor="start" x="880.8" y="-241.8" font-family="Courier,monospace" font-size="9.00"> </text>
<text text-anchor="start" x="910.39" y="-241.8" font-family="Courier,monospace" font-size="9.00">sparql_eval/2</text>
<text text-anchor="start" x="1001.8" y="-241.8" font-family="Courier,monospace" font-size="9.00"> </text>
<text text-anchor="start" x="880.8" y="-232.8" font-family="Courier,monospace" font-size="9.00"> </text>
<text text-anchor="start" x="899.59" y="-232.8" font-family="Courier,monospace" font-size="9.00">sparql_eval_raw/2</text>
<text text-anchor="start" x="1001.8" y="-232.8" font-family="Courier,monospace" font-size="9.00"> </text>
<text text-anchor="start" x="880.8" y="-223.8" font-family="Courier,monospace" font-size="9.00"> </text>
<text text-anchor="start" x="899.59" y="-223.8" font-family="Courier,monospace" font-size="9.00">sparql_simplify/2</text>
<text text-anchor="start" x="1001.8" y="-223.8" font-family="Courier,monospace" font-size="9.00"> </text>
<text text-anchor="start" x="880.8" y="-214.8" font-family="Courier,monospace" font-size="9.00"> </text>
<text text-anchor="start" x="910.39" y="-214.8" font-family="Courier,monospace" font-size="9.00">sparql_find/5</text>
<text text-anchor="start" x="1001.8" y="-214.8" font-family="Courier,monospace" font-size="9.00"> </text>
<text text-anchor="start" x="880.8" y="-205.8" font-family="Courier,monospace" font-size="9.00"> </text>
<text text-anchor="start" x="907.69" y="-205.8" font-family="Courier,monospace" font-size="9.00">sparql_group/3</text>
<text text-anchor="start" x="1001.8" y="-205.8" font-family="Courier,monospace" font-size="9.00"> </text>
<text text-anchor="start" x="880.8" y="-196.8" font-family="Courier,monospace" font-size="9.00"> </text>
<text text-anchor="start" x="907.69" y="-196.8" font-family="Courier,monospace" font-size="9.00">sparql_group/1</text>
<text text-anchor="start" x="1001.8" y="-196.8" font-family="Courier,monospace" font-size="9.00"> </text>
</a>
</g>
</g>
<!-- prolog_dialect -->
<g id="node2" class="node">
<title>prolog_dialect</title>
<g id="a_node2"><a xlink:title="module">
<polygon fill="gainsboro" stroke="black" stroke-dasharray="5,2" points="146,-92 40,-92 40,-96 28,-96 28,-56 146,-56 146,-92"/>
<polyline fill="none" stroke="black" stroke-dasharray="5,2" points="28,-92 40,-92 "/>
<text text-anchor="start" x="35.8" y="-75.8" font-family="Courier,monospace" font-size="9.00"> </text>
<text text-anchor="start" x="40.79" y="-75.2" font-family="Courier,monospace" font-size="11.00">prolog_dialect</text>
<text text-anchor="start" x="132.8" y="-75.8" font-family="Courier,monospace" font-size="9.00"> </text>
<text text-anchor="start" x="35.8" y="-65.8" font-family="Courier,monospace" font-size="9.00"> </text>
<text text-anchor="start" x="74.4" y="-66.4" font-family="Courier,monospace" font-size="7.00">module</text>
<text text-anchor="start" x="132.8" y="-65.8" font-family="Courier,monospace" font-size="9.00"> </text>
</a>
</g>
</g>
<!-- sparql_runtime&#45;&gt;prolog_dialect -->
<g id="edge1" class="edge">
<title>sparql_runtime&#45;&gt;prolog_dialect</title>
<path fill="none" stroke="black" d="M869.27,-259.77C739.3,-244.14 459.23,-206.22 228.99,-146 195.67,-137.29 186.86,-135.29 156,-120 143.86,-113.99 131.26,-106.26 120.2,-98.91"/>
<polygon fill="black" stroke="black" points="120.05,-98.81 112.84,-98.74 110.13,-92.06 120.05,-98.81"/>
<g id="a_edge1&#45;label"><a xlink:title="use_module">
<text text-anchor="middle" x="255" y="-138.8" font-family="Courier,monospace" font-size="9.00">use_module</text>
</a>
</g>
</g>
<!-- xsdp_type -->
<g id="node3" class="node">
<title>xsdp_type</title>
<g id="a_node3"><a xlink:title="module">
<polygon fill="gainsboro" stroke="black" stroke-dasharray="5,2" points="249.5,-92 176.5,-92 176.5,-96 164.5,-96 164.5,-56 249.5,-56 249.5,-92"/>
<polyline fill="none" stroke="black" stroke-dasharray="5,2" points="164.5,-92 176.5,-92 "/>
<text text-anchor="start" x="172.8" y="-75.8" font-family="Courier,monospace" font-size="9.00"> </text>
<text text-anchor="start" x="177.8" y="-75.2" font-family="Courier,monospace" font-size="11.00">xsdp_type</text>
<text text-anchor="start" x="236.8" y="-75.8" font-family="Courier,monospace" font-size="9.00"> </text>
<text text-anchor="start" x="172.8" y="-65.8" font-family="Courier,monospace" font-size="9.00"> </text>
<text text-anchor="start" x="194.9" y="-66.4" font-family="Courier,monospace" font-size="7.00">module</text>
<text text-anchor="start" x="236.8" y="-65.8" font-family="Courier,monospace" font-size="9.00"> </text>
</a>
</g>
</g>
<!-- sparql_runtime&#45;&gt;xsdp_type -->
<g id="edge2" class="edge">
<title>sparql_runtime&#45;&gt;xsdp_type</title>
<path fill="none" stroke="black" d="M869.45,-261.59C749.27,-249.34 502.62,-217.21 305.99,-146 278.73,-136.13 252.27,-116.46 233.58,-100.33"/>
<polygon fill="black" stroke="black" points="233.51,-100.27 226.37,-99.26 224.55,-92.29 233.51,-100.27"/>
<g id="a_edge2&#45;label"><a xlink:title="use_module">
<text text-anchor="middle" x="332" y="-138.8" font-family="Courier,monospace" font-size="9.00">use_module</text>
</a>
</g>
</g>
<!-- rdf_db -->
<g id="node4" class="node">
<title>rdf_db</title>
<g id="a_node4"><a xlink:title="module">
<polygon fill="gainsboro" stroke="black" stroke-dasharray="5,2" points="332.5,-92 279.5,-92 279.5,-96 267.5,-96 267.5,-56 332.5,-56 332.5,-92"/>
<polyline fill="none" stroke="black" stroke-dasharray="5,2" points="267.5,-92 279.5,-92 "/>
<text text-anchor="start" x="275.8" y="-75.8" font-family="Courier,monospace" font-size="9.00"> </text>
<text text-anchor="start" x="280.7" y="-75.2" font-family="Courier,monospace" font-size="11.00">rdf_db</text>
<text text-anchor="start" x="319.8" y="-75.8" font-family="Courier,monospace" font-size="9.00"> </text>
<text text-anchor="start" x="275.8" y="-65.8" font-family="Courier,monospace" font-size="9.00"> </text>
<text text-anchor="start" x="287.9" y="-66.4" font-family="Courier,monospace" font-size="7.00">module</text>
<text text-anchor="start" x="319.8" y="-65.8" font-family="Courier,monospace" font-size="9.00"> </text>
</a>
</g>
</g>
<!-- sparql_runtime&#45;&gt;rdf_db -->
<g id="edge3" class="edge">
<title>sparql_runtime&#45;&gt;rdf_db</title>
<path fill="none" stroke="black" d="M869.44,-260.38C760.45,-247.14 549.51,-214.46 382.99,-146 363.04,-137.8 358.6,-133.78 342,-120 335.26,-114.41 328.53,-107.78 322.49,-101.36"/>
<polygon fill="black" stroke="black" points="322.29,-101.13 315.29,-99.37 314.23,-92.24 322.29,-101.13"/>
<g id="a_edge3&#45;label"><a xlink:title="use_module">
<text text-anchor="middle" x="409" y="-138.8" font-family="Courier,monospace" font-size="9.00">use_module</text>
</a>
</g>
</g>
<!-- lists -->
<g id="node5" class="node">
<title>lists</title>
<g id="a_node5"><a xlink:title="module">
<polygon fill="gainsboro" stroke="black" stroke-dasharray="5,2" points="409.5,-92 362.5,-92 362.5,-96 350.5,-96 350.5,-56 409.5,-56 409.5,-92"/>
<polyline fill="none" stroke="black" stroke-dasharray="5,2" points="350.5,-92 362.5,-92 "/>
<text text-anchor="start" x="358.8" y="-75.8" font-family="Courier,monospace" font-size="9.00"> </text>
<text text-anchor="start" x="364" y="-75.2" font-family="Courier,monospace" font-size="11.00">lists</text>
<text text-anchor="start" x="396.8" y="-75.8" font-family="Courier,monospace" font-size="9.00"> </text>
<text text-anchor="start" x="358.8" y="-65.8" font-family="Courier,monospace" font-size="9.00"> </text>
<text text-anchor="start" x="367.9" y="-66.4" font-family="Courier,monospace" font-size="7.00">module</text>
<text text-anchor="start" x="396.8" y="-65.8" font-family="Courier,monospace" font-size="9.00"> </text>
</a>
</g>
</g>
<!-- sparql_runtime&#45;&gt;lists -->
<g id="edge4" class="edge">
<title>sparql_runtime&#45;&gt;lists</title>
<path fill="none" stroke="black" d="M869.19,-257.29C772.47,-241.36 597.69,-206.6 458.99,-146 439.56,-137.51 434.99,-133.92 419,-120 412.76,-114.56 406.61,-108.13 401.1,-101.85"/>
<polygon fill="black" stroke="black" points="400.77,-101.46 393.85,-99.44 393.05,-92.27 400.77,-101.46"/>
<g id="a_edge4&#45;label"><a xlink:title="use_module">
<text text-anchor="middle" x="485" y="-138.8" font-family="Courier,monospace" font-size="9.00">use_module</text>
</a>
</g>
</g>
<!-- apply -->
<g id="node6" class="node">
<title>apply</title>
<g id="a_node6"><a xlink:title="module">
<polygon fill="gainsboro" stroke="black" stroke-dasharray="5,2" points="486.5,-92 439.5,-92 439.5,-96 427.5,-96 427.5,-56 486.5,-56 486.5,-92"/>
<polyline fill="none" stroke="black" stroke-dasharray="5,2" points="427.5,-92 439.5,-92 "/>
<text text-anchor="start" x="435.8" y="-75.8" font-family="Courier,monospace" font-size="9.00"> </text>
<text text-anchor="start" x="441" y="-75.2" font-family="Courier,monospace" font-size="11.00">apply</text>
<text text-anchor="start" x="473.8" y="-75.8" font-family="Courier,monospace" font-size="9.00"> </text>
<text text-anchor="start" x="435.8" y="-65.8" font-family="Courier,monospace" font-size="9.00"> </text>
<text text-anchor="start" x="444.9" y="-66.4" font-family="Courier,monospace" font-size="7.00">module</text>
<text text-anchor="start" x="473.8" y="-65.8" font-family="Courier,monospace" font-size="9.00"> </text>
</a>
</g>
</g>
<!-- sparql_runtime&#45;&gt;apply -->
<g id="edge5" class="edge">
<title>sparql_runtime&#45;&gt;apply</title>
<path fill="none" stroke="black" d="M869.5,-253.47C785.93,-235.11 645.75,-199.35 533.99,-146 515.53,-137.19 511.27,-133.62 496,-120 489.82,-114.49 483.7,-108.02 478.19,-101.74"/>
<polygon fill="black" stroke="black" points="477.87,-101.36 470.94,-99.35 470.13,-92.18 477.87,-101.36"/>
<g id="a_edge5&#45;label"><a xlink:title="use_module">
<text text-anchor="middle" x="560" y="-138.8" font-family="Courier,monospace" font-size="9.00">use_module</text>
</a>
</g>
</g>
<!-- uuid -->
<g id="node7" class="node">
<title>uuid</title>
<g id="a_node7"><a xlink:title="module">
<polygon fill="gainsboro" stroke="black" stroke-dasharray="5,2" points="559,-92 517,-92 517,-96 505,-96 505,-56 559,-56 559,-92"/>
<polyline fill="none" stroke="black" stroke-dasharray="5,2" points="505,-92 517,-92 "/>
<text text-anchor="start" x="513.8" y="-75.8" font-family="Courier,monospace" font-size="9.00"> </text>
<text text-anchor="start" x="518.8" y="-75.2" font-family="Courier,monospace" font-size="11.00">uuid</text>
<text text-anchor="start" x="544.8" y="-75.8" font-family="Courier,monospace" font-size="9.00"> </text>
<text text-anchor="start" x="513.8" y="-65.8" font-family="Courier,monospace" font-size="9.00"> </text>
<text text-anchor="start" x="519.4" y="-66.4" font-family="Courier,monospace" font-size="7.00">module</text>
<text text-anchor="start" x="544.8" y="-65.8" font-family="Courier,monospace" font-size="9.00"> </text>
</a>
</g>
</g>
<!-- sparql_runtime&#45;&gt;uuid -->
<g id="edge6" class="edge">
<title>sparql_runtime&#45;&gt;uuid</title>
<path fill="none" stroke="black" d="M869.35,-245.66C801.17,-223.67 697.08,-187.43 610.99,-146 590.87,-136.32 584.79,-134.72 568,-120 561.88,-114.63 556.01,-108.13 550.86,-101.76"/>
<polygon fill="black" stroke="black" points="550.7,-101.56 543.88,-99.23 543.4,-92.03 550.7,-101.56"/>
<g id="a_edge6&#45;label"><a xlink:title="use_module">
<text text-anchor="middle" x="637" y="-138.8" font-family="Courier,monospace" font-size="9.00">use_module</text>
</a>
</g>
</g>
<!-- uri -->
<g id="node8" class="node">
<title>uri</title>
<g id="a_node8"><a xlink:title="module">
<polygon fill="gainsboro" stroke="black" stroke-dasharray="5,2" points="631,-92 589,-92 589,-96 577,-96 577,-56 631,-56 631,-92"/>
<polyline fill="none" stroke="black" stroke-dasharray="5,2" points="577,-92 589,-92 "/>
<text text-anchor="start" x="586.8" y="-75.8" font-family="Courier,monospace" font-size="9.00"> </text>
<text text-anchor="start" x="594.6" y="-75.2" font-family="Courier,monospace" font-size="11.00">uri</text>
<text text-anchor="start" x="616.8" y="-75.8" font-family="Courier,monospace" font-size="9.00"> </text>
<text text-anchor="start" x="586.8" y="-65.8" font-family="Courier,monospace" font-size="9.00"> </text>
<text text-anchor="start" x="591.9" y="-66.4" font-family="Courier,monospace" font-size="7.00">module</text>
<text text-anchor="start" x="616.8" y="-65.8" font-family="Courier,monospace" font-size="9.00"> </text>
</a>
</g>
</g>
<!-- sparql_runtime&#45;&gt;uri -->
<g id="edge7" class="edge">
<title>sparql_runtime&#45;&gt;uri</title>
<path fill="none" stroke="black" d="M869.47,-242.91C804.88,-218.25 710.04,-176.16 640,-120 633.65,-114.91 627.7,-108.5 622.53,-102.14"/>
<polygon fill="black" stroke="black" points="622.37,-101.93 615.56,-99.56 615.12,-92.36 622.37,-101.93"/>
<g id="a_edge7&#45;label"><a xlink:title="use_module">
<text text-anchor="middle" x="696" y="-138.8" font-family="Courier,monospace" font-size="9.00">use_module</text>
</a>
</g>
</g>
<!-- crypto_hash -->
<g id="node9" class="node">
<title>crypto_hash</title>
<g id="a_node9"><a xlink:title="module">
<polygon fill="gainsboro" stroke="black" stroke-dasharray="5,2" points="747,-92 661,-92 661,-96 649,-96 649,-56 747,-56 747,-92"/>
<polyline fill="none" stroke="black" stroke-dasharray="5,2" points="649,-92 661,-92 "/>
<text text-anchor="start" x="656.8" y="-75.8" font-family="Courier,monospace" font-size="9.00"> </text>
<text text-anchor="start" x="661.69" y="-75.2" font-family="Courier,monospace" font-size="11.00">crypto_hash</text>
<text text-anchor="start" x="733.8" y="-75.8" font-family="Courier,monospace" font-size="9.00"> </text>
<text text-anchor="start" x="656.8" y="-65.8" font-family="Courier,monospace" font-size="9.00"> </text>
<text text-anchor="start" x="685.4" y="-66.4" font-family="Courier,monospace" font-size="7.00">module</text>
<text text-anchor="start" x="733.8" y="-65.8" font-family="Courier,monospace" font-size="9.00"> </text>
</a>
</g>
</g>
<!-- sparql_runtime&#45;&gt;crypto_hash -->
<g id="edge8" class="edge">
<title>sparql_runtime&#45;&gt;crypto_hash</title>
<path fill="none" stroke="black" d="M869.48,-213.36C842.17,-192.53 810.97,-168.4 782.99,-146 764.35,-131.07 743.79,-113.91 727.56,-100.21"/>
<polygon fill="black" stroke="black" points="727.22,-99.92 720.06,-99.1 718.07,-92.17 727.22,-99.92"/>
<g id="a_edge8&#45;label"><a xlink:title="use_module">
<text text-anchor="middle" x="809" y="-138.8" font-family="Courier,monospace" font-size="9.00">use_module</text>
</a>
</g>
</g>
<!-- dcg_basics -->
<g id="node10" class="node">
<title>dcg_basics</title>
<g id="a_node10"><a xlink:title="module">
<polygon fill="gainsboro" stroke="black" stroke-dasharray="5,2" points="857,-92 777,-92 777,-96 765,-96 765,-56 857,-56 857,-92"/>
<polyline fill="none" stroke="black" stroke-dasharray="5,2" points="765,-92 777,-92 "/>
<text text-anchor="start" x="772.8" y="-75.8" font-family="Courier,monospace" font-size="9.00"> </text>
<text text-anchor="start" x="777.99" y="-75.2" font-family="Courier,monospace" font-size="11.00">dcg_basics</text>
<text text-anchor="start" x="843.8" y="-75.8" font-family="Courier,monospace" font-size="9.00"> </text>
<text text-anchor="start" x="772.8" y="-65.8" font-family="Courier,monospace" font-size="9.00"> </text>
<text text-anchor="start" x="798.4" y="-66.4" font-family="Courier,monospace" font-size="7.00">module</text>
<text text-anchor="start" x="843.8" y="-65.8" font-family="Courier,monospace" font-size="9.00"> </text>
</a>
</g>
</g>
<!-- sparql_runtime&#45;&gt;dcg_basics -->
<g id="edge9" class="edge">
<title>sparql_runtime&#45;&gt;dcg_basics</title>
<path fill="none" stroke="black" d="M877.27,-190.68C866.28,-176.22 855.4,-160.94 845.99,-146 837.43,-132.42 829.4,-116.46 823.2,-103.11"/>
<polygon fill="black" stroke="black" points="823.2,-103.11 817.08,-99.29 818.25,-92.17 823.2,-103.11"/>
<g id="a_edge9&#45;label"><a xlink:title="use_module">
<text text-anchor="middle" x="872" y="-138.8" font-family="Courier,monospace" font-size="9.00">use_module</text>
</a>
</g>
</g>
<!-- error -->
<g id="node11" class="node">
<title>error</title>
<g id="a_node11"><a xlink:title="module">
<polygon fill="gainsboro" stroke="black" stroke-dasharray="5,2" points="934.5,-92 887.5,-92 887.5,-96 875.5,-96 875.5,-56 934.5,-56 934.5,-92"/>
<polyline fill="none" stroke="black" stroke-dasharray="5,2" points="875.5,-92 887.5,-92 "/>
<text text-anchor="start" x="883.8" y="-75.8" font-family="Courier,monospace" font-size="9.00"> </text>
<text text-anchor="start" x="889" y="-75.2" font-family="Courier,monospace" font-size="11.00">error</text>
<text text-anchor="start" x="921.8" y="-75.8" font-family="Courier,monospace" font-size="9.00"> </text>
<text text-anchor="start" x="883.8" y="-65.8" font-family="Courier,monospace" font-size="9.00"> </text>
<text text-anchor="start" x="892.9" y="-66.4" font-family="Courier,monospace" font-size="7.00">module</text>
<text text-anchor="start" x="921.8" y="-65.8" font-family="Courier,monospace" font-size="9.00"> </text>
</a>
</g>
</g>
<!-- sparql_runtime&#45;&gt;error -->
<g id="edge10" class="edge">
<title>sparql_runtime&#45;&gt;error</title>
<path fill="none" stroke="black" d="M914.83,-190.68C910.74,-176.02 907.17,-160.67 904.99,-146 904.4,-142.04 904.99,-141 904.99,-137 904.99,-126.33 904.99,-114.62 904.99,-104.29"/>
<polygon fill="black" stroke="black" points="904.99,-104.11 901,-98.1 905,-92.11 904.99,-104.11"/>
<g id="a_edge10&#45;label"><a xlink:title="use_module">
<text text-anchor="middle" x="931" y="-138.8" font-family="Courier,monospace" font-size="9.00">use_module</text>
</a>
</g>
</g>
<!-- sparql -->
<g id="node12" class="node">
<title>sparql</title>
<g id="a_node12"><a xlink:title="module">
<polygon fill="gainsboro" stroke="black" stroke-dasharray="5,2" points="1017.5,-92 964.5,-92 964.5,-96 952.5,-96 952.5,-56 1017.5,-56 1017.5,-92"/>
<polyline fill="none" stroke="black" stroke-dasharray="5,2" points="952.5,-92 964.5,-92 "/>
<text text-anchor="start" x="960.8" y="-75.8" font-family="Courier,monospace" font-size="9.00"> </text>
<text text-anchor="start" x="965.7" y="-75.2" font-family="Courier,monospace" font-size="11.00">sparql</text>
<text text-anchor="start" x="1004.8" y="-75.8" font-family="Courier,monospace" font-size="9.00"> </text>
<text text-anchor="start" x="960.8" y="-65.8" font-family="Courier,monospace" font-size="9.00"> </text>
<text text-anchor="start" x="972.9" y="-66.4" font-family="Courier,monospace" font-size="7.00">module</text>
<text text-anchor="start" x="1004.8" y="-65.8" font-family="Courier,monospace" font-size="9.00"> </text>
</a>
</g>
</g>
<!-- sparql_runtime&#45;&gt;sparql -->
<g id="edge11" class="edge">
<title>sparql_runtime&#45;&gt;sparql</title>
<path fill="none" stroke="black" d="M959.18,-190.89C965.98,-160.38 973.38,-127.17 978.5,-104.16"/>
<polygon fill="black" stroke="black" points="978.56,-103.9 975.96,-97.18 981.17,-92.19 978.56,-103.9"/>
<g id="a_edge11&#45;label"><a xlink:title="use_module">
<text text-anchor="middle" x="998" y="-138.8" font-family="Courier,monospace" font-size="9.00">use_module</text>
</a>
</g>
</g>
<!-- pcre -->
<g id="node13" class="node">
<title>pcre</title>
<g id="a_node13"><a xlink:title="module">
<polygon fill="gainsboro" stroke="black" stroke-dasharray="5,2" points="1090,-92 1048,-92 1048,-96 1036,-96 1036,-56 1090,-56 1090,-92"/>
<polyline fill="none" stroke="black" stroke-dasharray="5,2" points="1036,-92 1048,-92 "/>
<text text-anchor="start" x="1044.8" y="-75.8" font-family="Courier,monospace" font-size="9.00"> </text>
<text text-anchor="start" x="1049.8" y="-75.2" font-family="Courier,monospace" font-size="11.00">pcre</text>
<text text-anchor="start" x="1075.8" y="-75.8" font-family="Courier,monospace" font-size="9.00"> </text>
<text text-anchor="start" x="1044.8" y="-65.8" font-family="Courier,monospace" font-size="9.00"> </text>
<text text-anchor="start" x="1050.4" y="-66.4" font-family="Courier,monospace" font-size="7.00">module</text>
<text text-anchor="start" x="1075.8" y="-65.8" font-family="Courier,monospace" font-size="9.00"> </text>
</a>
</g>
</g>
<!-- sparql_runtime&#45;&gt;pcre -->
<g id="edge12" class="edge">
<title>sparql_runtime&#45;&gt;pcre</title>
<path fill="none" stroke="black" d="M999.99,-190.91C1010.11,-176.29 1020.21,-160.9 1029,-146 1037.03,-132.39 1044.74,-116.59 1050.78,-103.36"/>
<polygon fill="black" stroke="black" points="1050.93,-103.02 1049.73,-95.91 1055.83,-92.06 1050.93,-103.02"/>
<g id="a_edge12&#45;label"><a xlink:title="use_module">
<text text-anchor="middle" x="1060" y="-138.8" font-family="Courier,monospace" font-size="9.00">use_module</text>
</a>
</g>
</g>
<!-- pce -->
<g id="node14" class="node">
<title>pce</title>
<g id="a_node14"><a xlink:title="module">
<polygon fill="gainsboro" stroke="black" stroke-dasharray="5,2" points="1162,-92 1120,-92 1120,-96 1108,-96 1108,-56 1162,-56 1162,-92"/>
<polyline fill="none" stroke="black" stroke-dasharray="5,2" points="1108,-92 1120,-92 "/>
<text text-anchor="start" x="1117.8" y="-75.8" font-family="Courier,monospace" font-size="9.00"> </text>
<text text-anchor="start" x="1125.6" y="-75.2" font-family="Courier,monospace" font-size="11.00">pce</text>
<text text-anchor="start" x="1147.8" y="-75.8" font-family="Courier,monospace" font-size="9.00"> </text>
<text text-anchor="start" x="1117.8" y="-65.8" font-family="Courier,monospace" font-size="9.00"> </text>
<text text-anchor="start" x="1122.9" y="-66.4" font-family="Courier,monospace" font-size="7.00">module</text>
<text text-anchor="start" x="1147.8" y="-65.8" font-family="Courier,monospace" font-size="9.00"> </text>
</a>
</g>
</g>
<!-- sparql_runtime&#45;&gt;pce -->
<g id="edge13" class="edge">
<title>sparql_runtime&#45;&gt;pce</title>
<path fill="none" stroke="black" d="M1014.86,-216.21C1040.58,-195.98 1068.63,-171.52 1091,-146 1102.43,-132.97 1112.77,-116.62 1120.56,-102.91"/>
<polygon fill="black" stroke="black" points="1120.7,-102.65 1120.08,-95.47 1126.47,-92.13 1120.7,-102.65"/>
<g id="a_edge13&#45;label"><a xlink:title="use_module">
<text text-anchor="middle" x="1125" y="-138.8" font-family="Courier,monospace" font-size="9.00">use_module</text>
</a>
</g>
</g>
<!-- prolog_debug -->
<g id="node15" class="node">
<title>prolog_debug</title>
<g id="a_node15"><a xlink:title="module">
<polygon fill="gainsboro" stroke="black" stroke-dasharray="5,2" points="1285.5,-92 1192.5,-92 1192.5,-96 1180.5,-96 1180.5,-56 1285.5,-56 1285.5,-92"/>
<polyline fill="none" stroke="black" stroke-dasharray="5,2" points="1180.5,-92 1192.5,-92 "/>
<text text-anchor="start" x="1188.8" y="-75.8" font-family="Courier,monospace" font-size="9.00"> </text>
<text text-anchor="start" x="1193.89" y="-75.2" font-family="Courier,monospace" font-size="11.00">prolog_debug</text>
<text text-anchor="start" x="1272.8" y="-75.8" font-family="Courier,monospace" font-size="9.00"> </text>
<text text-anchor="start" x="1188.8" y="-65.8" font-family="Courier,monospace" font-size="9.00"> </text>
<text text-anchor="start" x="1220.9" y="-66.4" font-family="Courier,monospace" font-size="7.00">module</text>
<text text-anchor="start" x="1272.8" y="-65.8" font-family="Courier,monospace" font-size="9.00"> </text>
</a>
</g>
</g>
<!-- sparql_runtime&#45;&gt;prolog_debug -->
<g id="edge14" class="edge">
<title>sparql_runtime&#45;&gt;prolog_debug</title>
<path fill="none" stroke="black" d="M1014.87,-231.76C1057.48,-209.29 1111.47,-178.57 1156,-146 1174.42,-132.53 1193.29,-115.2 1207.73,-101.03"/>
<polygon fill="black" stroke="black" points="1208.04,-100.73 1209.47,-93.66 1216.54,-92.26 1208.04,-100.73"/>
<g id="a_edge14&#45;label"><a xlink:title="use_module">
<text text-anchor="middle" x="1194" y="-138.8" font-family="Courier,monospace" font-size="9.00">use_module</text>
</a>
</g>
</g>
<!-- assoc -->
<g id="node16" class="node">
<title>assoc</title>
<g id="a_node16"><a xlink:title="module">
<polygon fill="gainsboro" stroke="black" stroke-dasharray="5,2" points="1362.5,-92 1315.5,-92 1315.5,-96 1303.5,-96 1303.5,-56 1362.5,-56 1362.5,-92"/>
<polyline fill="none" stroke="black" stroke-dasharray="5,2" points="1303.5,-92 1315.5,-92 "/>
<text text-anchor="start" x="1311.8" y="-75.8" font-family="Courier,monospace" font-size="9.00"> </text>
<text text-anchor="start" x="1317" y="-75.2" font-family="Courier,monospace" font-size="11.00">assoc</text>
<text text-anchor="start" x="1349.8" y="-75.8" font-family="Courier,monospace" font-size="9.00"> </text>
<text text-anchor="start" x="1311.8" y="-65.8" font-family="Courier,monospace" font-size="9.00"> </text>
<text text-anchor="start" x="1320.9" y="-66.4" font-family="Courier,monospace" font-size="7.00">module</text>
<text text-anchor="start" x="1349.8" y="-65.8" font-family="Courier,monospace" font-size="9.00"> </text>
</a>
</g>
</g>
<!-- sparql_runtime&#45;&gt;assoc -->
<g id="edge15" class="edge">
<title>sparql_runtime&#45;&gt;assoc</title>
<path fill="none" stroke="black" d="M1014.73,-248.56C1089.91,-226.05 1208.22,-183.71 1295,-120 1301.98,-114.88 1308.5,-108.22 1314.1,-101.61"/>
<polygon fill="black" stroke="black" points="1314.15,-101.54 1314.73,-94.35 1321.59,-92.13 1314.15,-101.54"/>
<g id="a_edge15&#45;label"><a xlink:title="use_module">
<text text-anchor="middle" x="1296" y="-138.8" font-family="Courier,monospace" font-size="9.00">use_module</text>
</a>
</g>
</g>
<!-- ordsets -->
<g id="node17" class="node">
<title>ordsets</title>
<g id="a_node17"><a xlink:title="module">
<polygon fill="gainsboro" stroke="black" stroke-dasharray="5,2" points="1453,-92 1393,-92 1393,-96 1381,-96 1381,-56 1453,-56 1453,-92"/>
<polyline fill="none" stroke="black" stroke-dasharray="5,2" points="1381,-92 1393,-92 "/>
<text text-anchor="start" x="1388.8" y="-75.8" font-family="Courier,monospace" font-size="9.00"> </text>
<text text-anchor="start" x="1393.9" y="-75.2" font-family="Courier,monospace" font-size="11.00">ordsets</text>
<text text-anchor="start" x="1439.8" y="-75.8" font-family="Courier,monospace" font-size="9.00"> </text>
<text text-anchor="start" x="1388.8" y="-65.8" font-family="Courier,monospace" font-size="9.00"> </text>
<text text-anchor="start" x="1404.4" y="-66.4" font-family="Courier,monospace" font-size="7.00">module</text>
<text text-anchor="start" x="1439.8" y="-65.8" font-family="Courier,monospace" font-size="9.00"> </text>
</a>
</g>
</g>
<!-- sparql_runtime&#45;&gt;ordsets -->
<g id="edge16" class="edge">
<title>sparql_runtime&#45;&gt;ordsets</title>
<path fill="none" stroke="black" d="M1014.67,-250.04C1093.38,-229.42 1221.79,-192.4 1327,-146 1348.13,-136.68 1353.68,-134.06 1372,-120 1379.35,-114.36 1386.72,-107.58 1393.3,-101.02"/>
<polygon fill="black" stroke="black" points="1393.36,-100.96 1394.66,-93.86 1401.71,-92.33 1393.36,-100.96"/>
<g id="a_edge16&#45;label"><a xlink:title="use_module">
<text text-anchor="middle" x="1372" y="-138.8" font-family="Courier,monospace" font-size="9.00">use_module</text>
</a>
</g>
</g>
<!-- url -->
<g id="node18" class="node">
<title>url</title>
<g id="a_node18"><a xlink:title="module">
<polygon fill="gainsboro" stroke="black" stroke-dasharray="5,2" points="1525,-92 1483,-92 1483,-96 1471,-96 1471,-56 1525,-56 1525,-92"/>
<polyline fill="none" stroke="black" stroke-dasharray="5,2" points="1471,-92 1483,-92 "/>
<text text-anchor="start" x="1480.8" y="-75.8" font-family="Courier,monospace" font-size="9.00"> </text>
<text text-anchor="start" x="1488.6" y="-75.2" font-family="Courier,monospace" font-size="11.00">url</text>
<text text-anchor="start" x="1510.8" y="-75.8" font-family="Courier,monospace" font-size="9.00"> </text>
<text text-anchor="start" x="1480.8" y="-65.8" font-family="Courier,monospace" font-size="9.00"> </text>
<text text-anchor="start" x="1485.9" y="-66.4" font-family="Courier,monospace" font-size="7.00">module</text>
<text text-anchor="start" x="1510.8" y="-65.8" font-family="Courier,monospace" font-size="9.00"> </text>
</a>
</g>
</g>
<!-- sparql_runtime&#45;&gt;url -->
<g id="edge17" class="edge">
<title>sparql_runtime&#45;&gt;url</title>
<path fill="none" stroke="black" d="M1014.52,-252.51C1106.23,-232.08 1268.41,-193.14 1403,-146 1430.04,-136.53 1439.28,-137.47 1462,-120 1468.56,-114.96 1474.64,-108.48 1479.86,-102.01"/>
<polygon fill="black" stroke="black" points="1480.11,-101.68 1480.51,-94.48 1487.31,-92.08 1480.11,-101.68"/>
<g id="a_edge17&#45;label"><a xlink:title="use_module">
<text text-anchor="middle" x="1458" y="-138.8" font-family="Courier,monospace" font-size="9.00">use_module</text>
</a>
</g>
</g>
<!-- sparql_client -->
<g id="node19" class="node">
<title>sparql_client</title>
<g id="a_node19"><a xlink:title="module">
<polygon fill="gainsboro" stroke="black" stroke-dasharray="5,2" points="1654.5,-92 1555.5,-92 1555.5,-96 1543.5,-96 1543.5,-56 1654.5,-56 1654.5,-92"/>
<polyline fill="none" stroke="black" stroke-dasharray="5,2" points="1543.5,-92 1555.5,-92 "/>
<text text-anchor="start" x="1551.8" y="-75.8" font-family="Courier,monospace" font-size="9.00"> </text>
<text text-anchor="start" x="1556.59" y="-75.2" font-family="Courier,monospace" font-size="11.00">sparql_client</text>
<text text-anchor="start" x="1641.8" y="-75.8" font-family="Courier,monospace" font-size="9.00"> </text>
<text text-anchor="start" x="1551.8" y="-65.8" font-family="Courier,monospace" font-size="9.00"> </text>
<text text-anchor="start" x="1586.9" y="-66.4" font-family="Courier,monospace" font-size="7.00">module</text>
<text text-anchor="start" x="1641.8" y="-65.8" font-family="Courier,monospace" font-size="9.00"> </text>
</a>
</g>
</g>
<!-- sparql_runtime&#45;&gt;sparql_client -->
<g id="edge18" class="edge">
<title>sparql_runtime&#45;&gt;sparql_client</title>
<path fill="none" stroke="black" d="M1014.86,-258.94C1121.68,-244.08 1325.82,-209.61 1489,-146 1517.94,-134.72 1547.32,-115.25 1568.43,-99.55"/>
<polygon fill="black" stroke="black" points="1568.54,-99.47 1570.9,-92.65 1578.09,-92.2 1568.54,-99.47"/>
<g id="a_edge18&#45;label"><a xlink:title="use_module">
<text text-anchor="middle" x="1535" y="-138.8" font-family="Courier,monospace" font-size="9.00">use_module</text>
</a>
</g>
</g>
<!-- turtle -->
<g id="node20" class="node">
<title>turtle</title>
<g id="a_node20"><a xlink:title="module">
<polygon fill="gainsboro" stroke="black" stroke-dasharray="5,2" points="1737.5,-92 1684.5,-92 1684.5,-96 1672.5,-96 1672.5,-56 1737.5,-56 1737.5,-92"/>
<polyline fill="none" stroke="black" stroke-dasharray="5,2" points="1672.5,-92 1684.5,-92 "/>
<text text-anchor="start" x="1680.8" y="-75.8" font-family="Courier,monospace" font-size="9.00"> </text>
<text text-anchor="start" x="1685.7" y="-75.2" font-family="Courier,monospace" font-size="11.00">turtle</text>
<text text-anchor="start" x="1724.8" y="-75.8" font-family="Courier,monospace" font-size="9.00"> </text>
<text text-anchor="start" x="1680.8" y="-65.8" font-family="Courier,monospace" font-size="9.00"> </text>
<text text-anchor="start" x="1692.9" y="-66.4" font-family="Courier,monospace" font-size="7.00">module</text>
<text text-anchor="start" x="1724.8" y="-65.8" font-family="Courier,monospace" font-size="9.00"> </text>
</a>
</g>
</g>
<!-- sparql_runtime&#45;&gt;turtle -->
<g id="edge19" class="edge">
<title>sparql_runtime&#45;&gt;turtle</title>
<path fill="none" stroke="black" d="M1014.87,-255.37C1131.66,-234.77 1367.8,-191.61 1566,-146 1609.91,-135.89 1625.48,-143.38 1664,-120 1671.95,-115.17 1679.28,-108.35 1685.48,-101.47"/>
<polygon fill="black" stroke="black" points="1685.49,-101.45 1686.26,-94.28 1693.17,-92.23 1685.49,-101.45"/>
<g id="a_edge19&#45;label"><a xlink:title="use_module">
<text text-anchor="middle" x="1649" y="-138.8" font-family="Courier,monospace" font-size="9.00">use_module</text>
</a>
</g>
</g>
<!-- rdf11 -->
<g id="node21" class="node">
<title>rdf11</title>
<g id="a_node21"><a xlink:title="module">
<polygon fill="gainsboro" stroke="black" stroke-dasharray="5,2" points="1814.5,-92 1767.5,-92 1767.5,-96 1755.5,-96 1755.5,-56 1814.5,-56 1814.5,-92"/>
<polyline fill="none" stroke="black" stroke-dasharray="5,2" points="1755.5,-92 1767.5,-92 "/>
<text text-anchor="start" x="1763.8" y="-75.8" font-family="Courier,monospace" font-size="9.00"> </text>
<text text-anchor="start" x="1769" y="-75.2" font-family="Courier,monospace" font-size="11.00">rdf11</text>
<text text-anchor="start" x="1801.8" y="-75.8" font-family="Courier,monospace" font-size="9.00"> </text>
<text text-anchor="start" x="1763.8" y="-65.8" font-family="Courier,monospace" font-size="9.00"> </text>
<text text-anchor="start" x="1772.9" y="-66.4" font-family="Courier,monospace" font-size="7.00">module</text>
<text text-anchor="start" x="1801.8" y="-65.8" font-family="Courier,monospace" font-size="9.00"> </text>
</a>
</g>
</g>
<!-- sparql_runtime&#45;&gt;rdf11 -->
<g id="edge20" class="edge">
<title>sparql_runtime&#45;&gt;rdf11</title>
<path fill="none" stroke="black" d="M1014.56,-261.03C1148.08,-247.1 1440.91,-211.4 1680,-146 1710.81,-137.57 1721,-138.56 1747,-120 1754.05,-114.97 1760.59,-108.35 1766.19,-101.73"/>
<polygon fill="black" stroke="black" points="1766.24,-101.66 1766.81,-94.48 1773.67,-92.24 1766.24,-101.66"/>
<g id="a_edge20&#45;label"><a xlink:title="use_module">
<text text-anchor="middle" x="1741" y="-138.8" font-family="Courier,monospace" font-size="9.00">use_module</text>
</a>
</g>
</g>
</g>
</svg>
