<?xml version="1.0" encoding="UTF-8" standalone="no"?>
<!DOCTYPE svg PUBLIC "-//W3C//DTD SVG 1.1//EN"
 "http://www.w3.org/Graphics/SVG/1.1/DTD/svg11.dtd">
<!-- Generated by graphviz version 2.41.20190410.0829 (20190410.0829)
 -->
<!-- Title: sparql_json_result.pl Pages: 1 -->
<svg width="758pt" height="445pt"
 viewBox="72.00 72.00 686.00 373.00" xmlns="http://www.w3.org/2000/svg" xmlns:xlink="http://www.w3.org/1999/xlink">
<g id="graph0" class="graph" transform="scale(1 1) rotate(0) translate(76 369)">
<title>sparql_json_result.pl</title>
<polygon fill="white" stroke="transparent" points="-4,4 -4,-297 610,-297 610,4 -4,4"/>
<text text-anchor="start" x="8" y="-16" font-family="Courier,monospace" font-size="10.00" fill="#8b8989">ClioPatria &#45; an RDF application platform</text>
<text text-anchor="start" x="8" y="-6" font-family="Courier,monospace" font-size="10.00" fill="#8b8989">Generated on 2019/04/17, 13:04</text>
<g id="clust1" class="cluster">
<title>cluster_file_/Users/pmoura/ClioPatria/rdfql/sparql_json_result.pl</title>
<g id="a_clust1"><a xlink:href="https://github.com/ClioPatria/ClioPatria/tree/add57aa2039eed4033cf96e96c293b2052e88f41/rdfql/sparql_json_result.pl" xlink:title="https://github.com/ClioPatria/ClioPatria/tree/add57aa2039eed4033cf96e96c293b2052e88f41/rdfql/sparql_json_result.pl">
<path fill="snow" stroke="#8b8989" d="M20,-36C20,-36 586,-36 586,-36 592,-36 598,-42 598,-48 598,-48 598,-273 598,-273 598,-279 592,-285 586,-285 586,-285 20,-285 20,-285 14,-285 8,-279 8,-273 8,-273 8,-48 8,-48 8,-42 14,-36 20,-36"/>
<text text-anchor="middle" x="79.01" y="-273" font-family="Courier,monospace" font-size="10.00" fill="#8b8989">sparql_json_result.pl</text>
</a>
</g>
</g>
<g id="clust2" class="cluster">
<title>cluster_other</title>
<g id="a_clust2"><a xlink:title="(external entities)">
<path fill="white" stroke="#8b8989" d="M30,-46C30,-46 576,-46 576,-46 582,-46 588,-52 588,-58 588,-58 588,-108 588,-108 588,-114 582,-120 576,-120 576,-120 30,-120 30,-120 24,-120 18,-114 18,-108 18,-108 18,-58 18,-58 18,-52 24,-46 30,-46"/>
<text text-anchor="middle" x="83.01" y="-108" font-family="Courier,monospace" font-size="10.00" fill="#8b8989">(external entities)</text>
</a>
</g>
</g>
<!-- sparql_json_result -->
<g id="node1" class="node">
<title>sparql_json_result</title>
<g id="a_node1"><a xlink:title="module">
<polygon fill="gainsboro" stroke="black" points="374,-257 214,-257 214,-261 202,-261 202,-191 374,-191 374,-257"/>
<polyline fill="none" stroke="black" points="202,-257 214,-257 "/>
<g id="a_node1_0"><a xlink:href="sparql_json_result_module_xref_diagram.svg" xlink:title="Zoom">
<image xlink:href="zoom.png" width="11px" height="11px" preserveAspectRatio="xMinYMin meet" x="210" y="-253"/>
</a>
</g>
<text text-anchor="start" x="212.8" y="-233.8" font-family="Courier,monospace" font-size="9.00"> </text>
<text text-anchor="start" x="231.59" y="-233.2" font-family="Courier,monospace" font-size="11.00">sparql_json_result</text>
<text text-anchor="start" x="360.8" y="-233.8" font-family="Courier,monospace" font-size="9.00"> </text>
<text text-anchor="start" x="212.8" y="-223.8" font-family="Courier,monospace" font-size="9.00"> </text>
<text text-anchor="start" x="278.4" y="-224.4" font-family="Courier,monospace" font-size="7.00">module</text>
<text text-anchor="start" x="360.8" y="-223.8" font-family="Courier,monospace" font-size="9.00"> </text>
<text text-anchor="start" x="212.8" y="-214.8" font-family="Courier,monospace" font-size="9.00"> </text>
<text text-anchor="start" x="212.8" y="-205.8" font-family="Courier,monospace" font-size="9.00"> </text>
<text text-anchor="start" x="220.79" y="-205.8" font-family="Courier,monospace" font-size="9.00">sparql_write_json_result/3</text>
<text text-anchor="start" x="360.8" y="-205.8" font-family="Courier,monospace" font-size="9.00"> </text>
<text text-anchor="start" x="212.8" y="-196.8" font-family="Courier,monospace" font-size="9.00"> </text>
<text text-anchor="start" x="236.99" y="-196.8" font-family="Courier,monospace" font-size="9.00">rdf_io:write_table/4</text>
<text text-anchor="start" x="360.8" y="-196.8" font-family="Courier,monospace" font-size="9.00"> </text>
</a>
</g>
</g>
<!-- rdf_io -->
<g id="node2" class="node">
<title>rdf_io</title>
<g id="a_node2"><a xlink:title="module">
<polygon fill="gainsboro" stroke="black" stroke-dasharray="5,2" points="93.5,-92 40.5,-92 40.5,-96 28.5,-96 28.5,-56 93.5,-56 93.5,-92"/>
<polyline fill="none" stroke="black" stroke-dasharray="5,2" points="28.5,-92 40.5,-92 "/>
<text text-anchor="start" x="36.8" y="-75.8" font-family="Courier,monospace" font-size="9.00"> </text>
<text text-anchor="start" x="41.7" y="-75.2" font-family="Courier,monospace" font-size="11.00">rdf_io</text>
<text text-anchor="start" x="80.8" y="-75.8" font-family="Courier,monospace" font-size="9.00"> </text>
<text text-anchor="start" x="36.8" y="-65.8" font-family="Courier,monospace" font-size="9.00"> </text>
<text text-anchor="start" x="48.9" y="-66.4" font-family="Courier,monospace" font-size="7.00">module</text>
<text text-anchor="start" x="80.8" y="-65.8" font-family="Courier,monospace" font-size="9.00"> </text>
</a>
</g>
</g>
<!-- sparql_json_result&#45;&gt;rdf_io -->
<g id="edge1" class="edge">
<title>sparql_json_result&#45;&gt;rdf_io</title>
<path fill="none" stroke="black" d="M214.99,-190.83C178.88,-172.94 135.89,-148.52 102,-120 94.91,-114.03 87.87,-106.87 81.67,-100.04"/>
<polygon fill="black" stroke="black" points="77.46,-89.95 81.43,-99.77 72.2,-94.57 77.46,-89.95"/>
<g id="a_edge1&#45;label"><a xlink:title="provides">
<text text-anchor="middle" x="155.6" y="-138.8" font-family="Courier,monospace" font-size="9.00">provides</text>
</a>
</g>
</g>
<!-- apply -->
<g id="node3" class="node">
<title>apply</title>
<g id="a_node3"><a xlink:title="module">
<polygon fill="gainsboro" stroke="black" stroke-dasharray="5,2" points="170.5,-92 123.5,-92 123.5,-96 111.5,-96 111.5,-56 170.5,-56 170.5,-92"/>
<polyline fill="none" stroke="black" stroke-dasharray="5,2" points="111.5,-92 123.5,-92 "/>
<text text-anchor="start" x="119.8" y="-75.8" font-family="Courier,monospace" font-size="9.00"> </text>
<text text-anchor="start" x="125" y="-75.2" font-family="Courier,monospace" font-size="11.00">apply</text>
<text text-anchor="start" x="157.8" y="-75.8" font-family="Courier,monospace" font-size="9.00"> </text>
<text text-anchor="start" x="119.8" y="-65.8" font-family="Courier,monospace" font-size="9.00"> </text>
<text text-anchor="start" x="128.9" y="-66.4" font-family="Courier,monospace" font-size="7.00">module</text>
<text text-anchor="start" x="157.8" y="-65.8" font-family="Courier,monospace" font-size="9.00"> </text>
</a>
</g>
</g>
<!-- sparql_json_result&#45;&gt;apply -->
<g id="edge2" class="edge">
<title>sparql_json_result&#45;&gt;apply</title>
<path fill="none" stroke="black" d="M246.58,-190.92C230.46,-177.69 212.23,-161.78 196.99,-146 183.78,-132.33 170.54,-115.7 160.25,-101.97"/>
<polygon fill="black" stroke="black" points="160.12,-101.8 153.34,-99.34 153.01,-92.14 160.12,-101.8"/>
<g id="a_edge2&#45;label"><a xlink:title="use_module">
<text text-anchor="middle" x="223" y="-138.8" font-family="Courier,monospace" font-size="9.00">use_module</text>
</a>
</g>
</g>
<!-- swi_option -->
<g id="node4" class="node">
<title>swi_option</title>
<g id="a_node4"><a xlink:title="module">
<polygon fill="gainsboro" stroke="black" stroke-dasharray="5,2" points="281,-92 201,-92 201,-96 189,-96 189,-56 281,-56 281,-92"/>
<polyline fill="none" stroke="black" stroke-dasharray="5,2" points="189,-92 201,-92 "/>
<text text-anchor="start" x="196.8" y="-75.8" font-family="Courier,monospace" font-size="9.00"> </text>
<text text-anchor="start" x="201.99" y="-75.2" font-family="Courier,monospace" font-size="11.00">swi_option</text>
<text text-anchor="start" x="267.8" y="-75.8" font-family="Courier,monospace" font-size="9.00"> </text>
<text text-anchor="start" x="196.8" y="-65.8" font-family="Courier,monospace" font-size="9.00"> </text>
<text text-anchor="start" x="222.4" y="-66.4" font-family="Courier,monospace" font-size="7.00">module</text>
<text text-anchor="start" x="267.8" y="-65.8" font-family="Courier,monospace" font-size="9.00"> </text>
</a>
</g>
</g>
<!-- sparql_json_result&#45;&gt;swi_option -->
<g id="edge3" class="edge">
<title>sparql_json_result&#45;&gt;swi_option</title>
<path fill="none" stroke="black" d="M275.02,-190.94C269.58,-177.17 263.29,-160.87 257.99,-146 253.05,-132.13 247.96,-116.58 243.83,-103.57"/>
<polygon fill="black" stroke="black" points="243.8,-103.47 238.19,-98.94 240.2,-92.02 243.8,-103.47"/>
<g id="a_edge3&#45;label"><a xlink:title="use_module">
<text text-anchor="middle" x="284" y="-138.8" font-family="Courier,monospace" font-size="9.00">use_module</text>
</a>
</g>
</g>
<!-- http_json -->
<g id="node5" class="node">
<title>http_json</title>
<g id="a_node5"><a xlink:title="module">
<polygon fill="gainsboro" stroke="black" stroke-dasharray="5,2" points="384.5,-92 311.5,-92 311.5,-96 299.5,-96 299.5,-56 384.5,-56 384.5,-92"/>
<polyline fill="none" stroke="black" stroke-dasharray="5,2" points="299.5,-92 311.5,-92 "/>
<text text-anchor="start" x="307.8" y="-75.8" font-family="Courier,monospace" font-size="9.00"> </text>
<text text-anchor="start" x="312.8" y="-75.2" font-family="Courier,monospace" font-size="11.00">http_json</text>
<text text-anchor="start" x="371.8" y="-75.8" font-family="Courier,monospace" font-size="9.00"> </text>
<text text-anchor="start" x="307.8" y="-65.8" font-family="Courier,monospace" font-size="9.00"> </text>
<text text-anchor="start" x="329.9" y="-66.4" font-family="Courier,monospace" font-size="7.00">module</text>
<text text-anchor="start" x="371.8" y="-65.8" font-family="Courier,monospace" font-size="9.00"> </text>
</a>
</g>
</g>
<!-- sparql_json_result&#45;&gt;http_json -->
<g id="edge4" class="edge">
<title>sparql_json_result&#45;&gt;http_json</title>
<path fill="none" stroke="black" d="M299.72,-190.89C309.21,-164.88 322.45,-128.57 331.58,-103.56"/>
<polygon fill="black" stroke="black" points="331.58,-103.56 329.88,-96.56 335.69,-92.29 331.58,-103.56"/>
<g id="a_edge4&#45;label"><a xlink:title="use_module">
<text text-anchor="middle" x="345" y="-138.8" font-family="Courier,monospace" font-size="9.00">use_module</text>
</a>
</g>
</g>
<!-- rdf_db -->
<g id="node6" class="node">
<title>rdf_db</title>
<g id="a_node6"><a xlink:title="module">
<polygon fill="gainsboro" stroke="black" stroke-dasharray="5,2" points="467.5,-92 414.5,-92 414.5,-96 402.5,-96 402.5,-56 467.5,-56 467.5,-92"/>
<polyline fill="none" stroke="black" stroke-dasharray="5,2" points="402.5,-92 414.5,-92 "/>
<text text-anchor="start" x="410.8" y="-75.8" font-family="Courier,monospace" font-size="9.00"> </text>
<text text-anchor="start" x="415.7" y="-75.2" font-family="Courier,monospace" font-size="11.00">rdf_db</text>
<text text-anchor="start" x="454.8" y="-75.8" font-family="Courier,monospace" font-size="9.00"> </text>
<text text-anchor="start" x="410.8" y="-65.8" font-family="Courier,monospace" font-size="9.00"> </text>
<text text-anchor="start" x="422.9" y="-66.4" font-family="Courier,monospace" font-size="7.00">module</text>
<text text-anchor="start" x="454.8" y="-65.8" font-family="Courier,monospace" font-size="9.00"> </text>
</a>
</g>
</g>
<!-- sparql_json_result&#45;&gt;rdf_db -->
<g id="edge5" class="edge">
<title>sparql_json_result&#45;&gt;rdf_db</title>
<path fill="none" stroke="black" d="M327.32,-190.92C342.98,-177.56 360.84,-161.55 376,-146 389.46,-132.19 403.3,-115.68 414.19,-102.05"/>
<polygon fill="black" stroke="black" points="414.46,-101.71 415.04,-94.52 421.89,-92.29 414.46,-101.71"/>
<g id="a_edge5&#45;label"><a xlink:title="use_module">
<text text-anchor="middle" x="409" y="-138.8" font-family="Courier,monospace" font-size="9.00">use_module</text>
</a>
</g>
</g>
<!-- sgml_write -->
<g id="node7" class="node">
<title>sgml_write</title>
<g id="a_node7"><a xlink:title="module">
<polygon fill="gainsboro" stroke="black" stroke-dasharray="5,2" points="578,-92 498,-92 498,-96 486,-96 486,-56 578,-56 578,-92"/>
<polyline fill="none" stroke="black" stroke-dasharray="5,2" points="486,-92 498,-92 "/>
<text text-anchor="start" x="493.8" y="-75.8" font-family="Courier,monospace" font-size="9.00"> </text>
<text text-anchor="start" x="498.99" y="-75.2" font-family="Courier,monospace" font-size="11.00">sgml_write</text>
<text text-anchor="start" x="564.8" y="-75.8" font-family="Courier,monospace" font-size="9.00"> </text>
<text text-anchor="start" x="493.8" y="-65.8" font-family="Courier,monospace" font-size="9.00"> </text>
<text text-anchor="start" x="519.4" y="-66.4" font-family="Courier,monospace" font-size="7.00">module</text>
<text text-anchor="start" x="564.8" y="-65.8" font-family="Courier,monospace" font-size="9.00"> </text>
</a>
</g>
</g>
<!-- sparql_json_result&#45;&gt;sgml_write -->
<g id="edge6" class="edge">
<title>sparql_json_result&#45;&gt;sgml_write</title>
<path fill="none" stroke="black" d="M356.47,-190.92C383.01,-177.82 413.37,-161.99 440,-146 457.23,-135.65 460.99,-132.15 477,-120 485.38,-113.64 494.29,-106.52 502.44,-99.85"/>
<polygon fill="black" stroke="black" points="502.66,-99.67 504.74,-92.76 511.91,-92.03 502.66,-99.67"/>
<g id="a_edge6&#45;label"><a xlink:title="use_module">
<text text-anchor="middle" x="480" y="-138.8" font-family="Courier,monospace" font-size="9.00">use_module</text>
</a>
</g>
</g>
</g>
</svg>
