<?xml version="1.0" encoding="UTF-8" standalone="no"?>
<!DOCTYPE svg PUBLIC "-//W3C//DTD SVG 1.1//EN"
 "http://www.w3.org/Graphics/SVG/1.1/DTD/svg11.dtd">
<!-- Generated by graphviz version 2.41.20190410.0829 (20190410.0829)
 -->
<!-- Title: sparql_xml_result.pl Pages: 1 -->
<svg width="643pt" height="436pt"
 viewBox="72.00 72.00 571.00 364.00" xmlns="http://www.w3.org/2000/svg" xmlns:xlink="http://www.w3.org/1999/xlink">
<g id="graph0" class="graph" transform="scale(1 1) rotate(0) translate(76 360)">
<title>sparql_xml_result.pl</title>
<polygon fill="white" stroke="transparent" points="-4,4 -4,-288 495,-288 495,4 -4,4"/>
<text text-anchor="start" x="8" y="-16" font-family="Courier,monospace" font-size="10.00" fill="#8b8989">ClioPatria &#45; an RDF application platform</text>
<text text-anchor="start" x="8" y="-6" font-family="Courier,monospace" font-size="10.00" fill="#8b8989">Generated on 2019/04/17, 13:04</text>
<g id="clust1" class="cluster">
<title>cluster_file_/Users/pmoura/ClioPatria/rdfql/sparql_xml_result.pl</title>
<g id="a_clust1"><a xlink:href="https://github.com/ClioPatria/ClioPatria/tree/add57aa2039eed4033cf96e96c293b2052e88f41/rdfql/sparql_xml_result.pl" xlink:title="https://github.com/ClioPatria/ClioPatria/tree/add57aa2039eed4033cf96e96c293b2052e88f41/rdfql/sparql_xml_result.pl">
<path fill="snow" stroke="#8b8989" d="M20,-36C20,-36 471,-36 471,-36 477,-36 483,-42 483,-48 483,-48 483,-264 483,-264 483,-270 477,-276 471,-276 471,-276 20,-276 20,-276 14,-276 8,-270 8,-264 8,-264 8,-48 8,-48 8,-42 14,-36 20,-36"/>
<text text-anchor="middle" x="76.01" y="-264" font-family="Courier,monospace" font-size="10.00" fill="#8b8989">sparql_xml_result.pl</text>
</a>
</g>
</g>
<g id="clust2" class="cluster">
<title>cluster_other</title>
<g id="a_clust2"><a xlink:title="(external entities)">
<path fill="white" stroke="#8b8989" d="M30,-46C30,-46 461,-46 461,-46 467,-46 473,-52 473,-58 473,-58 473,-108 473,-108 473,-114 467,-120 461,-120 461,-120 30,-120 30,-120 24,-120 18,-114 18,-108 18,-108 18,-58 18,-58 18,-52 24,-46 30,-46"/>
<text text-anchor="middle" x="83.01" y="-108" font-family="Courier,monospace" font-size="10.00" fill="#8b8989">(external entities)</text>
</a>
</g>
</g>
<!-- sparql_xml_result -->
<g id="node1" class="node">
<title>sparql_xml_result</title>
<g id="a_node1"><a xlink:title="module">
<polygon fill="gainsboro" stroke="black" points="325.5,-248 170.5,-248 170.5,-252 158.5,-252 158.5,-191 325.5,-191 325.5,-248"/>
<polyline fill="none" stroke="black" points="158.5,-248 170.5,-248 "/>
<g id="a_node1_0"><a xlink:href="sparql_xml_result_module_xref_diagram.svg" xlink:title="Zoom">
<image xlink:href="zoom.png" width="11px" height="11px" preserveAspectRatio="xMinYMin meet" x="167" y="-243.5"/>
</a>
</g>
<text text-anchor="start" x="169.8" y="-224.3" font-family="Courier,monospace" font-size="9.00"> </text>
<text text-anchor="start" x="189.39" y="-223.7" font-family="Courier,monospace" font-size="11.00">sparql_xml_result</text>
<text text-anchor="start" x="312.8" y="-224.3" font-family="Courier,monospace" font-size="9.00"> </text>
<text text-anchor="start" x="169.8" y="-214.3" font-family="Courier,monospace" font-size="9.00"> </text>
<text text-anchor="start" x="232.9" y="-214.9" font-family="Courier,monospace" font-size="7.00">module</text>
<text text-anchor="start" x="312.8" y="-214.3" font-family="Courier,monospace" font-size="9.00"> </text>
<text text-anchor="start" x="169.8" y="-205.3" font-family="Courier,monospace" font-size="9.00"> </text>
<text text-anchor="start" x="169.8" y="-196.3" font-family="Courier,monospace" font-size="9.00"> </text>
<text text-anchor="start" x="177.99" y="-196.3" font-family="Courier,monospace" font-size="9.00">sparql_write_xml_result/3</text>
<text text-anchor="start" x="312.8" y="-196.3" font-family="Courier,monospace" font-size="9.00"> </text>
</a>
</g>
</g>
<!-- swi_option -->
<g id="node2" class="node">
<title>swi_option</title>
<g id="a_node2"><a xlink:title="module">
<polygon fill="gainsboro" stroke="black" stroke-dasharray="5,2" points="120,-92 40,-92 40,-96 28,-96 28,-56 120,-56 120,-92"/>
<polyline fill="none" stroke="black" stroke-dasharray="5,2" points="28,-92 40,-92 "/>
<text text-anchor="start" x="35.8" y="-75.8" font-family="Courier,monospace" font-size="9.00"> </text>
<text text-anchor="start" x="40.99" y="-75.2" font-family="Courier,monospace" font-size="11.00">swi_option</text>
<text text-anchor="start" x="106.8" y="-75.8" font-family="Courier,monospace" font-size="9.00"> </text>
<text text-anchor="start" x="35.8" y="-65.8" font-family="Courier,monospace" font-size="9.00"> </text>
<text text-anchor="start" x="61.4" y="-66.4" font-family="Courier,monospace" font-size="7.00">module</text>
<text text-anchor="start" x="106.8" y="-65.8" font-family="Courier,monospace" font-size="9.00"> </text>
</a>
</g>
</g>
<!-- sparql_xml_result&#45;&gt;swi_option -->
<g id="edge1" class="edge">
<title>sparql_xml_result&#45;&gt;swi_option</title>
<path fill="none" stroke="black" d="M183.57,-190.96C162.06,-179.06 138.46,-163.77 119.99,-146 107.05,-133.55 95.97,-116.79 87.94,-102.68"/>
<polygon fill="black" stroke="black" points="87.9,-102.61 81.52,-99.25 82.17,-92.06 87.9,-102.61"/>
<g id="a_edge1&#45;label"><a xlink:title="use_module">
<text text-anchor="middle" x="146" y="-138.8" font-family="Courier,monospace" font-size="9.00">use_module</text>
</a>
</g>
</g>
<!-- sgml -->
<g id="node3" class="node">
<title>sgml</title>
<g id="a_node3"><a xlink:title="module">
<polygon fill="gainsboro" stroke="black" stroke-dasharray="5,2" points="192,-92 150,-92 150,-96 138,-96 138,-56 192,-56 192,-92"/>
<polyline fill="none" stroke="black" stroke-dasharray="5,2" points="138,-92 150,-92 "/>
<text text-anchor="start" x="146.8" y="-75.8" font-family="Courier,monospace" font-size="9.00"> </text>
<text text-anchor="start" x="151.8" y="-75.2" font-family="Courier,monospace" font-size="11.00">sgml</text>
<text text-anchor="start" x="177.8" y="-75.8" font-family="Courier,monospace" font-size="9.00"> </text>
<text text-anchor="start" x="146.8" y="-65.8" font-family="Courier,monospace" font-size="9.00"> </text>
<text text-anchor="start" x="152.4" y="-66.4" font-family="Courier,monospace" font-size="7.00">module</text>
<text text-anchor="start" x="177.8" y="-65.8" font-family="Courier,monospace" font-size="9.00"> </text>
</a>
</g>
</g>
<!-- sparql_xml_result&#45;&gt;sgml -->
<g id="edge2" class="edge">
<title>sparql_xml_result&#45;&gt;sgml</title>
<path fill="none" stroke="black" d="M213.85,-190.69C202.45,-178.01 190.09,-162.23 181.99,-146 175.47,-132.94 171.38,-117.26 168.85,-103.96"/>
<polygon fill="black" stroke="black" points="168.84,-103.94 163.91,-98.67 166.87,-92.1 168.84,-103.94"/>
<g id="a_edge2&#45;label"><a xlink:title="use_module">
<text text-anchor="middle" x="208" y="-138.8" font-family="Courier,monospace" font-size="9.00">use_module</text>
</a>
</g>
</g>
<!-- assoc -->
<g id="node4" class="node">
<title>assoc</title>
<g id="a_node4"><a xlink:title="module">
<polygon fill="gainsboro" stroke="black" stroke-dasharray="5,2" points="269.5,-92 222.5,-92 222.5,-96 210.5,-96 210.5,-56 269.5,-56 269.5,-92"/>
<polyline fill="none" stroke="black" stroke-dasharray="5,2" points="210.5,-92 222.5,-92 "/>
<text text-anchor="start" x="218.8" y="-75.8" font-family="Courier,monospace" font-size="9.00"> </text>
<text text-anchor="start" x="224" y="-75.2" font-family="Courier,monospace" font-size="11.00">assoc</text>
<text text-anchor="start" x="256.8" y="-75.8" font-family="Courier,monospace" font-size="9.00"> </text>
<text text-anchor="start" x="218.8" y="-65.8" font-family="Courier,monospace" font-size="9.00"> </text>
<text text-anchor="start" x="227.9" y="-66.4" font-family="Courier,monospace" font-size="7.00">module</text>
<text text-anchor="start" x="256.8" y="-65.8" font-family="Courier,monospace" font-size="9.00"> </text>
</a>
</g>
</g>
<!-- sparql_xml_result&#45;&gt;assoc -->
<g id="edge3" class="edge">
<title>sparql_xml_result&#45;&gt;assoc</title>
<path fill="none" stroke="black" d="M241.61,-190.83C241.27,-166 240.76,-129.68 240.41,-104.34"/>
<polygon fill="black" stroke="black" points="240.41,-104.22 236.32,-98.28 240.24,-92.22 240.41,-104.22"/>
<g id="a_edge3&#45;label"><a xlink:title="use_module">
<text text-anchor="middle" x="267" y="-138.8" font-family="Courier,monospace" font-size="9.00">use_module</text>
</a>
</g>
</g>
<!-- rdf_db -->
<g id="node5" class="node">
<title>rdf_db</title>
<g id="a_node5"><a xlink:title="module">
<polygon fill="gainsboro" stroke="black" stroke-dasharray="5,2" points="352.5,-92 299.5,-92 299.5,-96 287.5,-96 287.5,-56 352.5,-56 352.5,-92"/>
<polyline fill="none" stroke="black" stroke-dasharray="5,2" points="287.5,-92 299.5,-92 "/>
<text text-anchor="start" x="295.8" y="-75.8" font-family="Courier,monospace" font-size="9.00"> </text>
<text text-anchor="start" x="300.7" y="-75.2" font-family="Courier,monospace" font-size="11.00">rdf_db</text>
<text text-anchor="start" x="339.8" y="-75.8" font-family="Courier,monospace" font-size="9.00"> </text>
<text text-anchor="start" x="295.8" y="-65.8" font-family="Courier,monospace" font-size="9.00"> </text>
<text text-anchor="start" x="307.9" y="-66.4" font-family="Courier,monospace" font-size="7.00">module</text>
<text text-anchor="start" x="339.8" y="-65.8" font-family="Courier,monospace" font-size="9.00"> </text>
</a>
</g>
</g>
<!-- sparql_xml_result&#45;&gt;rdf_db -->
<g id="edge4" class="edge">
<title>sparql_xml_result&#45;&gt;rdf_db</title>
<path fill="none" stroke="black" d="M266.58,-190.72C277.05,-177.81 288.74,-161.83 297,-146 303.86,-132.86 309.18,-117.28 312.97,-104.07"/>
<polygon fill="black" stroke="black" points="313.03,-103.87 310.72,-97.04 316.14,-92.28 313.03,-103.87"/>
<g id="a_edge4&#45;label"><a xlink:title="use_module">
<text text-anchor="middle" x="327" y="-138.8" font-family="Courier,monospace" font-size="9.00">use_module</text>
</a>
</g>
</g>
<!-- sgml_write -->
<g id="node6" class="node">
<title>sgml_write</title>
<g id="a_node6"><a xlink:title="module">
<polygon fill="gainsboro" stroke="black" stroke-dasharray="5,2" points="463,-92 383,-92 383,-96 371,-96 371,-56 463,-56 463,-92"/>
<polyline fill="none" stroke="black" stroke-dasharray="5,2" points="371,-92 383,-92 "/>
<text text-anchor="start" x="378.8" y="-75.8" font-family="Courier,monospace" font-size="9.00"> </text>
<text text-anchor="start" x="383.99" y="-75.2" font-family="Courier,monospace" font-size="11.00">sgml_write</text>
<text text-anchor="start" x="449.8" y="-75.8" font-family="Courier,monospace" font-size="9.00"> </text>
<text text-anchor="start" x="378.8" y="-65.8" font-family="Courier,monospace" font-size="9.00"> </text>
<text text-anchor="start" x="404.4" y="-66.4" font-family="Courier,monospace" font-size="7.00">module</text>
<text text-anchor="start" x="449.8" y="-65.8" font-family="Courier,monospace" font-size="9.00"> </text>
</a>
</g>
</g>
<!-- sparql_xml_result&#45;&gt;sgml_write -->
<g id="edge5" class="edge">
<title>sparql_xml_result&#45;&gt;sgml_write</title>
<path fill="none" stroke="black" d="M293.82,-190.91C314.8,-178.56 338.59,-162.95 358,-146 372.96,-132.93 387.26,-115.88 398.03,-101.76"/>
<polygon fill="black" stroke="black" points="398.06,-101.73 398.43,-94.53 405.22,-92.1 398.06,-101.73"/>
<g id="a_edge5&#45;label"><a xlink:title="use_module">
<text text-anchor="middle" x="394" y="-138.8" font-family="Courier,monospace" font-size="9.00">use_module</text>
</a>
</g>
</g>
</g>
</svg>
