<?xml version="1.0" encoding="UTF-8" standalone="no"?>
<!DOCTYPE svg PUBLIC "-//W3C//DTD SVG 1.1//EN"
 "http://www.w3.org/Graphics/SVG/1.1/DTD/svg11.dtd">
<!-- Generated by graphviz version 2.41.20190410.0829 (20190410.0829)
 -->
<!-- Title: sparql_csv_result.pl Pages: 1 -->
<svg width="1019pt" height="445pt"
 viewBox="72.00 72.00 947.00 373.00" xmlns="http://www.w3.org/2000/svg" xmlns:xlink="http://www.w3.org/1999/xlink">
<g id="graph0" class="graph" transform="scale(1 1) rotate(0) translate(76 369)">
<title>sparql_csv_result.pl</title>
<polygon fill="white" stroke="transparent" points="-4,4 -4,-297 871,-297 871,4 -4,4"/>
<text text-anchor="start" x="8" y="-16" font-family="Courier,monospace" font-size="10.00" fill="#8b8989">ClioPatria &#45; an RDF application platform</text>
<text text-anchor="start" x="8" y="-6" font-family="Courier,monospace" font-size="10.00" fill="#8b8989">Generated on 2019/04/17, 13:04</text>
<g id="clust1" class="cluster">
<title>cluster_file_/Users/pmoura/ClioPatria/rdfql/sparql_csv_result.pl</title>
<g id="a_clust1"><a xlink:href="https://github.com/ClioPatria/ClioPatria/tree/add57aa2039eed4033cf96e96c293b2052e88f41/rdfql/sparql_csv_result.pl" xlink:title="https://github.com/ClioPatria/ClioPatria/tree/add57aa2039eed4033cf96e96c293b2052e88f41/rdfql/sparql_csv_result.pl">
<path fill="snow" stroke="#8b8989" d="M20,-36C20,-36 847,-36 847,-36 853,-36 859,-42 859,-48 859,-48 859,-273 859,-273 859,-279 853,-285 847,-285 847,-285 20,-285 20,-285 14,-285 8,-279 8,-273 8,-273 8,-48 8,-48 8,-42 14,-36 20,-36"/>
<text text-anchor="middle" x="76.01" y="-273" font-family="Courier,monospace" font-size="10.00" fill="#8b8989">sparql_csv_result.pl</text>
</a>
</g>
</g>
<g id="clust2" class="cluster">
<title>cluster_other</title>
<g id="a_clust2"><a xlink:title="(external entities)">
<path fill="white" stroke="#8b8989" d="M30,-46C30,-46 837,-46 837,-46 843,-46 849,-52 849,-58 849,-58 849,-108 849,-108 849,-114 843,-120 837,-120 837,-120 30,-120 30,-120 24,-120 18,-114 18,-108 18,-108 18,-58 18,-58 18,-52 24,-46 30,-46"/>
<text text-anchor="middle" x="83.01" y="-108" font-family="Courier,monospace" font-size="10.00" fill="#8b8989">(external entities)</text>
</a>
</g>
</g>
<!-- sparql_csv_result -->
<g id="node1" class="node">
<title>sparql_csv_result</title>
<g id="a_node1"><a xlink:title="module">
<polygon fill="gainsboro" stroke="black" points="546.5,-257 391.5,-257 391.5,-261 379.5,-261 379.5,-191 546.5,-191 546.5,-257"/>
<polyline fill="none" stroke="black" points="379.5,-257 391.5,-257 "/>
<g id="a_node1_0"><a xlink:href="sparql_csv_result_module_xref_diagram.svg" xlink:title="Zoom">
<image xlink:href="zoom.png" width="11px" height="11px" preserveAspectRatio="xMinYMin meet" x="388" y="-253"/>
</a>
</g>
<text text-anchor="start" x="390.8" y="-233.8" font-family="Courier,monospace" font-size="9.00"> </text>
<text text-anchor="start" x="410.39" y="-233.2" font-family="Courier,monospace" font-size="11.00">sparql_csv_result</text>
<text text-anchor="start" x="533.8" y="-233.8" font-family="Courier,monospace" font-size="9.00"> </text>
<text text-anchor="start" x="390.8" y="-223.8" font-family="Courier,monospace" font-size="9.00"> </text>
<text text-anchor="start" x="453.9" y="-224.4" font-family="Courier,monospace" font-size="7.00">module</text>
<text text-anchor="start" x="533.8" y="-223.8" font-family="Courier,monospace" font-size="9.00"> </text>
<text text-anchor="start" x="390.8" y="-214.8" font-family="Courier,monospace" font-size="9.00"> </text>
<text text-anchor="start" x="390.8" y="-205.8" font-family="Courier,monospace" font-size="9.00"> </text>
<text text-anchor="start" x="398.99" y="-205.8" font-family="Courier,monospace" font-size="9.00">sparql_write_csv_result/3</text>
<text text-anchor="start" x="533.8" y="-205.8" font-family="Courier,monospace" font-size="9.00"> </text>
<text text-anchor="start" x="390.8" y="-196.8" font-family="Courier,monospace" font-size="9.00"> </text>
<text text-anchor="start" x="412.49" y="-196.8" font-family="Courier,monospace" font-size="9.00">rdf_io:write_table/4</text>
<text text-anchor="start" x="533.8" y="-196.8" font-family="Courier,monospace" font-size="9.00"> </text>
</a>
</g>
</g>
<!-- rdf_io -->
<g id="node2" class="node">
<title>rdf_io</title>
<g id="a_node2"><a xlink:title="module">
<polygon fill="gainsboro" stroke="black" stroke-dasharray="5,2" points="93.5,-92 40.5,-92 40.5,-96 28.5,-96 28.5,-56 93.5,-56 93.5,-92"/>
<polyline fill="none" stroke="black" stroke-dasharray="5,2" points="28.5,-92 40.5,-92 "/>
<text text-anchor="start" x="36.8" y="-75.8" font-family="Courier,monospace" font-size="9.00"> </text>
<text text-anchor="start" x="41.7" y="-75.2" font-family="Courier,monospace" font-size="11.00">rdf_io</text>
<text text-anchor="start" x="80.8" y="-75.8" font-family="Courier,monospace" font-size="9.00"> </text>
<text text-anchor="start" x="36.8" y="-65.8" font-family="Courier,monospace" font-size="9.00"> </text>
<text text-anchor="start" x="48.9" y="-66.4" font-family="Courier,monospace" font-size="7.00">module</text>
<text text-anchor="start" x="80.8" y="-65.8" font-family="Courier,monospace" font-size="9.00"> </text>
</a>
</g>
</g>
<!-- sparql_csv_result&#45;&gt;rdf_io -->
<g id="edge1" class="edge">
<title>sparql_csv_result&#45;&gt;rdf_io</title>
<path fill="none" stroke="black" d="M379.24,-212.12C302.79,-199.27 188.94,-172.6 103,-120 94.43,-114.76 86.49,-107.3 79.88,-99.95"/>
<polygon fill="black" stroke="black" points="75.92,-89.88 79.72,-99.77 70.58,-94.41 75.92,-89.88"/>
<g id="a_edge1&#45;label"><a xlink:title="provides">
<text text-anchor="middle" x="168.6" y="-138.8" font-family="Courier,monospace" font-size="9.00">provides</text>
</a>
</g>
</g>
<!-- prolog_dialect -->
<g id="node3" class="node">
<title>prolog_dialect</title>
<g id="a_node3"><a xlink:title="module">
<polygon fill="gainsboro" stroke="black" stroke-dasharray="5,2" points="230,-92 124,-92 124,-96 112,-96 112,-56 230,-56 230,-92"/>
<polyline fill="none" stroke="black" stroke-dasharray="5,2" points="112,-92 124,-92 "/>
<text text-anchor="start" x="119.8" y="-75.8" font-family="Courier,monospace" font-size="9.00"> </text>
<text text-anchor="start" x="124.79" y="-75.2" font-family="Courier,monospace" font-size="11.00">prolog_dialect</text>
<text text-anchor="start" x="216.8" y="-75.8" font-family="Courier,monospace" font-size="9.00"> </text>
<text text-anchor="start" x="119.8" y="-65.8" font-family="Courier,monospace" font-size="9.00"> </text>
<text text-anchor="start" x="158.4" y="-66.4" font-family="Courier,monospace" font-size="7.00">module</text>
<text text-anchor="start" x="216.8" y="-65.8" font-family="Courier,monospace" font-size="9.00"> </text>
</a>
</g>
</g>
<!-- sparql_csv_result&#45;&gt;prolog_dialect -->
<g id="edge2" class="edge">
<title>sparql_csv_result&#45;&gt;prolog_dialect</title>
<path fill="none" stroke="black" d="M379.4,-192.8C346.48,-179.83 308.78,-163.6 275.99,-146 250.57,-132.35 223.64,-114.06 203.42,-99.45"/>
<polygon fill="black" stroke="black" points="203.19,-99.28 195.98,-98.97 193.5,-92.2 203.19,-99.28"/>
<g id="a_edge2&#45;label"><a xlink:title="use_module">
<text text-anchor="middle" x="302" y="-138.8" font-family="Courier,monospace" font-size="9.00">use_module</text>
</a>
</g>
</g>
<!-- swi_option -->
<g id="node4" class="node">
<title>swi_option</title>
<g id="a_node4"><a xlink:title="module">
<polygon fill="gainsboro" stroke="black" stroke-dasharray="5,2" points="340,-92 260,-92 260,-96 248,-96 248,-56 340,-56 340,-92"/>
<polyline fill="none" stroke="black" stroke-dasharray="5,2" points="248,-92 260,-92 "/>
<text text-anchor="start" x="255.8" y="-75.8" font-family="Courier,monospace" font-size="9.00"> </text>
<text text-anchor="start" x="260.99" y="-75.2" font-family="Courier,monospace" font-size="11.00">swi_option</text>
<text text-anchor="start" x="326.8" y="-75.8" font-family="Courier,monospace" font-size="9.00"> </text>
<text text-anchor="start" x="255.8" y="-65.8" font-family="Courier,monospace" font-size="9.00"> </text>
<text text-anchor="start" x="281.4" y="-66.4" font-family="Courier,monospace" font-size="7.00">module</text>
<text text-anchor="start" x="326.8" y="-65.8" font-family="Courier,monospace" font-size="9.00"> </text>
</a>
</g>
</g>
<!-- sparql_csv_result&#45;&gt;swi_option -->
<g id="edge3" class="edge">
<title>sparql_csv_result&#45;&gt;swi_option</title>
<path fill="none" stroke="black" d="M402.83,-190.86C382.55,-178.41 360.61,-163.04 342.99,-146 329.91,-133.35 318.21,-116.71 309.52,-102.72"/>
<polygon fill="black" stroke="black" points="309.39,-102.5 302.88,-99.4 303.24,-92.2 309.39,-102.5"/>
<g id="a_edge3&#45;label"><a xlink:title="use_module">
<text text-anchor="middle" x="369" y="-138.8" font-family="Courier,monospace" font-size="9.00">use_module</text>
</a>
</g>
</g>
<!-- assoc -->
<g id="node5" class="node">
<title>assoc</title>
<g id="a_node5"><a xlink:title="module">
<polygon fill="gainsboro" stroke="black" stroke-dasharray="5,2" points="417.5,-92 370.5,-92 370.5,-96 358.5,-96 358.5,-56 417.5,-56 417.5,-92"/>
<polyline fill="none" stroke="black" stroke-dasharray="5,2" points="358.5,-92 370.5,-92 "/>
<text text-anchor="start" x="366.8" y="-75.8" font-family="Courier,monospace" font-size="9.00"> </text>
<text text-anchor="start" x="372" y="-75.2" font-family="Courier,monospace" font-size="11.00">assoc</text>
<text text-anchor="start" x="404.8" y="-75.8" font-family="Courier,monospace" font-size="9.00"> </text>
<text text-anchor="start" x="366.8" y="-65.8" font-family="Courier,monospace" font-size="9.00"> </text>
<text text-anchor="start" x="375.9" y="-66.4" font-family="Courier,monospace" font-size="7.00">module</text>
<text text-anchor="start" x="404.8" y="-65.8" font-family="Courier,monospace" font-size="9.00"> </text>
</a>
</g>
</g>
<!-- sparql_csv_result&#45;&gt;assoc -->
<g id="edge4" class="edge">
<title>sparql_csv_result&#45;&gt;assoc</title>
<path fill="none" stroke="black" d="M434.08,-190.83C423.59,-177.71 412.48,-161.9 404.99,-146 398.83,-132.93 394.79,-117.42 392.2,-104.24"/>
<polygon fill="black" stroke="black" points="392.13,-103.83 387.16,-98.6 390.07,-92 392.13,-103.83"/>
<g id="a_edge4&#45;label"><a xlink:title="use_module">
<text text-anchor="middle" x="431" y="-138.8" font-family="Courier,monospace" font-size="9.00">use_module</text>
</a>
</g>
</g>
<!-- csv -->
<g id="node6" class="node">
<title>csv</title>
<g id="a_node6"><a xlink:title="module">
<polygon fill="gainsboro" stroke="black" stroke-dasharray="5,2" points="490,-92 448,-92 448,-96 436,-96 436,-56 490,-56 490,-92"/>
<polyline fill="none" stroke="black" stroke-dasharray="5,2" points="436,-92 448,-92 "/>
<text text-anchor="start" x="445.8" y="-75.8" font-family="Courier,monospace" font-size="9.00"> </text>
<text text-anchor="start" x="453.6" y="-75.2" font-family="Courier,monospace" font-size="11.00">csv</text>
<text text-anchor="start" x="475.8" y="-75.8" font-family="Courier,monospace" font-size="9.00"> </text>
<text text-anchor="start" x="445.8" y="-65.8" font-family="Courier,monospace" font-size="9.00"> </text>
<text text-anchor="start" x="450.9" y="-66.4" font-family="Courier,monospace" font-size="7.00">module</text>
<text text-anchor="start" x="475.8" y="-65.8" font-family="Courier,monospace" font-size="9.00"> </text>
</a>
</g>
</g>
<!-- sparql_csv_result&#45;&gt;csv -->
<g id="edge5" class="edge">
<title>sparql_csv_result&#45;&gt;csv</title>
<path fill="none" stroke="black" d="M463,-190.89C463,-165.23 463,-129.56 463,-104.59"/>
<polygon fill="black" stroke="black" points="463,-104.29 459,-98.29 463,-92.29 463,-104.29"/>
<g id="a_edge5&#45;label"><a xlink:title="use_module">
<text text-anchor="middle" x="490" y="-138.8" font-family="Courier,monospace" font-size="9.00">use_module</text>
</a>
</g>
</g>
<!-- error -->
<g id="node7" class="node">
<title>error</title>
<g id="a_node7"><a xlink:title="module">
<polygon fill="gainsboro" stroke="black" stroke-dasharray="5,2" points="567.5,-92 520.5,-92 520.5,-96 508.5,-96 508.5,-56 567.5,-56 567.5,-92"/>
<polyline fill="none" stroke="black" stroke-dasharray="5,2" points="508.5,-92 520.5,-92 "/>
<text text-anchor="start" x="516.8" y="-75.8" font-family="Courier,monospace" font-size="9.00"> </text>
<text text-anchor="start" x="522" y="-75.2" font-family="Courier,monospace" font-size="11.00">error</text>
<text text-anchor="start" x="554.8" y="-75.8" font-family="Courier,monospace" font-size="9.00"> </text>
<text text-anchor="start" x="516.8" y="-65.8" font-family="Courier,monospace" font-size="9.00"> </text>
<text text-anchor="start" x="525.9" y="-66.4" font-family="Courier,monospace" font-size="7.00">module</text>
<text text-anchor="start" x="554.8" y="-65.8" font-family="Courier,monospace" font-size="9.00"> </text>
</a>
</g>
</g>
<!-- sparql_csv_result&#45;&gt;error -->
<g id="edge6" class="edge">
<title>sparql_csv_result&#45;&gt;error</title>
<path fill="none" stroke="black" d="M489.76,-190.84C499.74,-177.6 510.47,-161.7 518,-146 524.34,-132.79 529.01,-117.2 532.23,-104"/>
<polygon fill="black" stroke="black" points="532.25,-103.94 529.67,-97.21 534.89,-92.24 532.25,-103.94"/>
<g id="a_edge6&#45;label"><a xlink:title="use_module">
<text text-anchor="middle" x="548" y="-138.8" font-family="Courier,monospace" font-size="9.00">use_module</text>
</a>
</g>
</g>
<!-- rdf_db -->
<g id="node8" class="node">
<title>rdf_db</title>
<g id="a_node8"><a xlink:title="module">
<polygon fill="gainsboro" stroke="black" stroke-dasharray="5,2" points="650.5,-92 597.5,-92 597.5,-96 585.5,-96 585.5,-56 650.5,-56 650.5,-92"/>
<polyline fill="none" stroke="black" stroke-dasharray="5,2" points="585.5,-92 597.5,-92 "/>
<text text-anchor="start" x="593.8" y="-75.8" font-family="Courier,monospace" font-size="9.00"> </text>
<text text-anchor="start" x="598.7" y="-75.2" font-family="Courier,monospace" font-size="11.00">rdf_db</text>
<text text-anchor="start" x="637.8" y="-75.8" font-family="Courier,monospace" font-size="9.00"> </text>
<text text-anchor="start" x="593.8" y="-65.8" font-family="Courier,monospace" font-size="9.00"> </text>
<text text-anchor="start" x="605.9" y="-66.4" font-family="Courier,monospace" font-size="7.00">module</text>
<text text-anchor="start" x="637.8" y="-65.8" font-family="Courier,monospace" font-size="9.00"> </text>
</a>
</g>
</g>
<!-- sparql_csv_result&#45;&gt;rdf_db -->
<g id="edge7" class="edge">
<title>sparql_csv_result&#45;&gt;rdf_db</title>
<path fill="none" stroke="black" d="M522.99,-190.95C542.42,-178.65 563.05,-163.35 579,-146 590.45,-133.55 599.76,-117.12 606.4,-103.2"/>
<polygon fill="black" stroke="black" points="606.41,-103.18 605.23,-96.06 611.34,-92.24 606.41,-103.18"/>
<g id="a_edge7&#45;label"><a xlink:title="use_module">
<text text-anchor="middle" x="613" y="-138.8" font-family="Courier,monospace" font-size="9.00">use_module</text>
</a>
</g>
</g>
<!-- sgml_write -->
<g id="node9" class="node">
<title>sgml_write</title>
<g id="a_node9"><a xlink:title="module">
<polygon fill="gainsboro" stroke="black" stroke-dasharray="5,2" points="761,-92 681,-92 681,-96 669,-96 669,-56 761,-56 761,-92"/>
<polyline fill="none" stroke="black" stroke-dasharray="5,2" points="669,-92 681,-92 "/>
<text text-anchor="start" x="676.8" y="-75.8" font-family="Courier,monospace" font-size="9.00"> </text>
<text text-anchor="start" x="681.99" y="-75.2" font-family="Courier,monospace" font-size="11.00">sgml_write</text>
<text text-anchor="start" x="747.8" y="-75.8" font-family="Courier,monospace" font-size="9.00"> </text>
<text text-anchor="start" x="676.8" y="-65.8" font-family="Courier,monospace" font-size="9.00"> </text>
<text text-anchor="start" x="702.4" y="-66.4" font-family="Courier,monospace" font-size="7.00">module</text>
<text text-anchor="start" x="747.8" y="-65.8" font-family="Courier,monospace" font-size="9.00"> </text>
</a>
</g>
</g>
<!-- sparql_csv_result&#45;&gt;sgml_write -->
<g id="edge8" class="edge">
<title>sparql_csv_result&#45;&gt;sgml_write</title>
<path fill="none" stroke="black" d="M546.61,-195.17C578.49,-182.62 614.28,-166.06 644,-146 662.49,-133.52 680.23,-115.77 693.36,-101.15"/>
<polygon fill="black" stroke="black" points="693.39,-101.11 694.32,-93.96 701.28,-92.07 693.39,-101.11"/>
<g id="a_edge8&#45;label"><a xlink:title="use_module">
<text text-anchor="middle" x="681" y="-138.8" font-family="Courier,monospace" font-size="9.00">use_module</text>
</a>
</g>
</g>
<!-- rdf11 -->
<g id="node10" class="node">
<title>rdf11</title>
<g id="a_node10"><a xlink:title="module">
<polygon fill="gainsboro" stroke="black" stroke-dasharray="5,2" points="838.5,-92 791.5,-92 791.5,-96 779.5,-96 779.5,-56 838.5,-56 838.5,-92"/>
<polyline fill="none" stroke="black" stroke-dasharray="5,2" points="779.5,-92 791.5,-92 "/>
<text text-anchor="start" x="787.8" y="-75.8" font-family="Courier,monospace" font-size="9.00"> </text>
<text text-anchor="start" x="793" y="-75.2" font-family="Courier,monospace" font-size="11.00">rdf11</text>
<text text-anchor="start" x="825.8" y="-75.8" font-family="Courier,monospace" font-size="9.00"> </text>
<text text-anchor="start" x="787.8" y="-65.8" font-family="Courier,monospace" font-size="9.00"> </text>
<text text-anchor="start" x="796.9" y="-66.4" font-family="Courier,monospace" font-size="7.00">module</text>
<text text-anchor="start" x="825.8" y="-65.8" font-family="Courier,monospace" font-size="9.00"> </text>
</a>
</g>
</g>
<!-- sparql_csv_result&#45;&gt;rdf11 -->
<g id="edge9" class="edge">
<title>sparql_csv_result&#45;&gt;rdf11</title>
<path fill="none" stroke="black" d="M546.83,-209.62C612.6,-195.85 703.78,-169.21 770,-120 777.02,-114.78 783.67,-108.09 789.41,-101.48"/>
<polygon fill="black" stroke="black" points="789.55,-101.32 790.24,-94.14 797.13,-92.02 789.55,-101.32"/>
<g id="a_edge9&#45;label"><a xlink:title="use_module">
<text text-anchor="middle" x="767" y="-138.8" font-family="Courier,monospace" font-size="9.00">use_module</text>
</a>
</g>
</g>
</g>
</svg>
