<?xml version="1.0" encoding="UTF-8" standalone="no"?>
<!DOCTYPE svg PUBLIC "-//W3C//DTD SVG 1.1//EN"
 "http://www.w3.org/Graphics/SVG/1.1/DTD/svg11.dtd">
<!-- Generated by graphviz version 2.41.20190410.0829 (20190410.0829)
 -->
<!-- Title: text_properties.pl Pages: 1 -->
<svg width="590pt" height="445pt"
 viewBox="72.00 72.00 518.00 373.00" xmlns="http://www.w3.org/2000/svg" xmlns:xlink="http://www.w3.org/1999/xlink">
<g id="graph0" class="graph" transform="scale(1 1) rotate(0) translate(76 369)">
<title>text_properties.pl</title>
<polygon fill="white" stroke="transparent" points="-4,4 -4,-297 442,-297 442,4 -4,4"/>
<text text-anchor="start" x="8" y="-16" font-family="Courier,monospace" font-size="10.00" fill="#8b8989">ClioPatria &#45; an RDF application platform</text>
<text text-anchor="start" x="8" y="-6" font-family="Courier,monospace" font-size="10.00" fill="#8b8989">Generated on 2019/04/17, 13:04</text>
<g id="clust1" class="cluster">
<title>cluster_file_/Users/pmoura/ClioPatria/rdfql/text_properties.pl</title>
<g id="a_clust1"><a xlink:href="https://github.com/ClioPatria/ClioPatria/tree/add57aa2039eed4033cf96e96c293b2052e88f41/rdfql/text_properties.pl" xlink:title="https://github.com/ClioPatria/ClioPatria/tree/add57aa2039eed4033cf96e96c293b2052e88f41/rdfql/text_properties.pl">
<path fill="snow" stroke="#8b8989" d="M20,-36C20,-36 418,-36 418,-36 424,-36 430,-42 430,-48 430,-48 430,-273 430,-273 430,-279 424,-285 418,-285 418,-285 20,-285 20,-285 14,-285 8,-279 8,-273 8,-273 8,-48 8,-48 8,-42 14,-36 20,-36"/>
<text text-anchor="middle" x="70.01" y="-273" font-family="Courier,monospace" font-size="10.00" fill="#8b8989">text_properties.pl</text>
</a>
</g>
</g>
<g id="clust2" class="cluster">
<title>cluster_other</title>
<g id="a_clust2"><a xlink:title="(external entities)">
<path fill="white" stroke="#8b8989" d="M30,-46C30,-46 408,-46 408,-46 414,-46 420,-52 420,-58 420,-58 420,-108 420,-108 420,-114 414,-120 408,-120 408,-120 30,-120 30,-120 24,-120 18,-114 18,-108 18,-108 18,-58 18,-58 18,-52 24,-46 30,-46"/>
<text text-anchor="middle" x="83.01" y="-108" font-family="Courier,monospace" font-size="10.00" fill="#8b8989">(external entities)</text>
</a>
</g>
</g>
<!-- text_properties -->
<g id="node1" class="node">
<title>text_properties</title>
<g id="a_node1"><a xlink:title="module">
<polygon fill="gainsboro" stroke="black" points="301,-257 87,-257 87,-261 75,-261 75,-191 301,-191 301,-257"/>
<polyline fill="none" stroke="black" points="75,-257 87,-257 "/>
<g id="a_node1_0"><a xlink:href="text_properties_module_xref_diagram.svg" xlink:title="Zoom">
<image xlink:href="zoom.png" width="11px" height="11px" preserveAspectRatio="xMinYMin meet" x="83" y="-253"/>
</a>
</g>
<text text-anchor="start" x="85.8" y="-233.8" font-family="Courier,monospace" font-size="9.00"> </text>
<text text-anchor="start" x="141.49" y="-233.2" font-family="Courier,monospace" font-size="11.00">text_properties</text>
<text text-anchor="start" x="287.8" y="-233.8" font-family="Courier,monospace" font-size="9.00"> </text>
<text text-anchor="start" x="85.8" y="-223.8" font-family="Courier,monospace" font-size="9.00"> </text>
<text text-anchor="start" x="178.4" y="-224.4" font-family="Courier,monospace" font-size="7.00">module</text>
<text text-anchor="start" x="287.8" y="-223.8" font-family="Courier,monospace" font-size="9.00"> </text>
<text text-anchor="start" x="85.8" y="-214.8" font-family="Courier,monospace" font-size="9.00"> </text>
<text text-anchor="start" x="85.8" y="-205.8" font-family="Courier,monospace" font-size="9.00"> </text>
<text text-anchor="start" x="115.39" y="-205.8" font-family="Courier,monospace" font-size="9.00">sparql:functional_property/2</text>
<text text-anchor="start" x="287.8" y="-205.8" font-family="Courier,monospace" font-size="9.00"> </text>
<text text-anchor="start" x="85.8" y="-196.8" font-family="Courier,monospace" font-size="9.00"> </text>
<text text-anchor="start" x="93.78" y="-196.8" font-family="Courier,monospace" font-size="9.00">sparql:current_functional_property/3</text>
<text text-anchor="start" x="287.8" y="-196.8" font-family="Courier,monospace" font-size="9.00"> </text>
</a>
</g>
</g>
<!-- sparql -->
<g id="node2" class="node">
<title>sparql</title>
<g id="a_node2"><a xlink:title="module">
<polygon fill="gainsboro" stroke="black" stroke-dasharray="5,2" points="93.5,-92 40.5,-92 40.5,-96 28.5,-96 28.5,-56 93.5,-56 93.5,-92"/>
<polyline fill="none" stroke="black" stroke-dasharray="5,2" points="28.5,-92 40.5,-92 "/>
<text text-anchor="start" x="36.8" y="-75.8" font-family="Courier,monospace" font-size="9.00"> </text>
<text text-anchor="start" x="41.7" y="-75.2" font-family="Courier,monospace" font-size="11.00">sparql</text>
<text text-anchor="start" x="80.8" y="-75.8" font-family="Courier,monospace" font-size="9.00"> </text>
<text text-anchor="start" x="36.8" y="-65.8" font-family="Courier,monospace" font-size="9.00"> </text>
<text text-anchor="start" x="48.9" y="-66.4" font-family="Courier,monospace" font-size="7.00">module</text>
<text text-anchor="start" x="80.8" y="-65.8" font-family="Courier,monospace" font-size="9.00"> </text>
</a>
</g>
</g>
<!-- text_properties&#45;&gt;sparql -->
<g id="edge1" class="edge">
<title>text_properties&#45;&gt;sparql</title>
<path fill="none" stroke="black" d="M155.27,-190.89C141.99,-177.39 126.76,-161.29 113.79,-146 101.49,-131.49 88.73,-114.4 78.84,-100.62"/>
<polygon fill="black" stroke="black" points="75.64,-90.08 78.58,-100.26 69.94,-94.13 75.64,-90.08"/>
<g id="a_edge1&#45;label"><a xlink:title="provides">
<text text-anchor="middle" x="135.6" y="-138.8" font-family="Courier,monospace" font-size="9.00">provides</text>
</a>
</g>
</g>
<!-- rdf_db -->
<g id="node3" class="node">
<title>rdf_db</title>
<g id="a_node3"><a xlink:title="module">
<polygon fill="gainsboro" stroke="black" stroke-dasharray="5,2" points="176.5,-92 123.5,-92 123.5,-96 111.5,-96 111.5,-56 176.5,-56 176.5,-92"/>
<polyline fill="none" stroke="black" stroke-dasharray="5,2" points="111.5,-92 123.5,-92 "/>
<text text-anchor="start" x="119.8" y="-75.8" font-family="Courier,monospace" font-size="9.00"> </text>
<text text-anchor="start" x="124.7" y="-75.2" font-family="Courier,monospace" font-size="11.00">rdf_db</text>
<text text-anchor="start" x="163.8" y="-75.8" font-family="Courier,monospace" font-size="9.00"> </text>
<text text-anchor="start" x="119.8" y="-65.8" font-family="Courier,monospace" font-size="9.00"> </text>
<text text-anchor="start" x="131.9" y="-66.4" font-family="Courier,monospace" font-size="7.00">module</text>
<text text-anchor="start" x="163.8" y="-65.8" font-family="Courier,monospace" font-size="9.00"> </text>
</a>
</g>
</g>
<!-- text_properties&#45;&gt;rdf_db -->
<g id="edge2" class="edge">
<title>text_properties&#45;&gt;rdf_db</title>
<path fill="none" stroke="black" d="M177.75,-190.84C173.42,-177.06 168.37,-160.77 163.99,-146 159.92,-132.28 155.6,-117.01 152.01,-104.16"/>
<polygon fill="black" stroke="black" points="151.92,-103.82 146.46,-99.11 148.71,-92.25 151.92,-103.82"/>
<g id="a_edge2&#45;label"><a xlink:title="use_module">
<text text-anchor="middle" x="190" y="-138.8" font-family="Courier,monospace" font-size="9.00">use_module</text>
</a>
</g>
</g>
<!-- rdf_litindex -->
<g id="node4" class="node">
<title>rdf_litindex</title>
<g id="a_node4"><a xlink:title="module">
<polygon fill="gainsboro" stroke="black" stroke-dasharray="5,2" points="299.5,-92 206.5,-92 206.5,-96 194.5,-96 194.5,-56 299.5,-56 299.5,-92"/>
<polyline fill="none" stroke="black" stroke-dasharray="5,2" points="194.5,-92 206.5,-92 "/>
<text text-anchor="start" x="202.8" y="-75.8" font-family="Courier,monospace" font-size="9.00"> </text>
<text text-anchor="start" x="207.89" y="-75.2" font-family="Courier,monospace" font-size="11.00">rdf_litindex</text>
<text text-anchor="start" x="286.8" y="-75.8" font-family="Courier,monospace" font-size="9.00"> </text>
<text text-anchor="start" x="202.8" y="-65.8" font-family="Courier,monospace" font-size="9.00"> </text>
<text text-anchor="start" x="234.9" y="-66.4" font-family="Courier,monospace" font-size="7.00">module</text>
<text text-anchor="start" x="286.8" y="-65.8" font-family="Courier,monospace" font-size="9.00"> </text>
</a>
</g>
</g>
<!-- text_properties&#45;&gt;rdf_litindex -->
<g id="edge3" class="edge">
<title>text_properties&#45;&gt;rdf_litindex</title>
<path fill="none" stroke="black" d="M200.8,-190.89C211.17,-164.88 225.64,-128.57 235.61,-103.56"/>
<polygon fill="black" stroke="black" points="235.66,-103.44 234.17,-96.38 240.11,-92.29 235.66,-103.44"/>
<g id="a_edge3&#45;label"><a xlink:title="use_module">
<text text-anchor="middle" x="248" y="-138.8" font-family="Courier,monospace" font-size="9.00">use_module</text>
</a>
</g>
</g>
<!-- dcg_basics -->
<g id="node5" class="node">
<title>dcg_basics</title>
<g id="a_node5"><a xlink:title="module">
<polygon fill="gainsboro" stroke="black" stroke-dasharray="5,2" points="410,-92 330,-92 330,-96 318,-96 318,-56 410,-56 410,-92"/>
<polyline fill="none" stroke="black" stroke-dasharray="5,2" points="318,-92 330,-92 "/>
<text text-anchor="start" x="325.8" y="-75.8" font-family="Courier,monospace" font-size="9.00"> </text>
<text text-anchor="start" x="330.99" y="-75.2" font-family="Courier,monospace" font-size="11.00">dcg_basics</text>
<text text-anchor="start" x="396.8" y="-75.8" font-family="Courier,monospace" font-size="9.00"> </text>
<text text-anchor="start" x="325.8" y="-65.8" font-family="Courier,monospace" font-size="9.00"> </text>
<text text-anchor="start" x="351.4" y="-66.4" font-family="Courier,monospace" font-size="7.00">module</text>
<text text-anchor="start" x="396.8" y="-65.8" font-family="Courier,monospace" font-size="9.00"> </text>
</a>
</g>
</g>
<!-- text_properties&#45;&gt;dcg_basics -->
<g id="edge4" class="edge">
<title>text_properties&#45;&gt;dcg_basics</title>
<path fill="none" stroke="black" d="M226.19,-190.89C258.53,-163.69 304.24,-125.25 334,-100.23"/>
<polygon fill="black" stroke="black" points="334.25,-100.01 336.27,-93.09 343.44,-92.29 334.25,-100.01"/>
<g id="a_edge4&#45;label"><a xlink:title="use_module">
<text text-anchor="middle" x="313" y="-138.8" font-family="Courier,monospace" font-size="9.00">use_module</text>
</a>
</g>
</g>
</g>
</svg>
