<?xml version="1.0" encoding="UTF-8" standalone="no"?>
<!DOCTYPE svg PUBLIC "-//W3C//DTD SVG 1.1//EN"
 "http://www.w3.org/Graphics/SVG/1.1/DTD/svg11.dtd">
<!-- Generated by graphviz version 2.41.20190410.0829 (20190410.0829)
 -->
<!-- Title: url_cache.pl Pages: 1 -->
<svg width="1341pt" height="499pt"
 viewBox="72.00 72.00 1269.00 427.00" xmlns="http://www.w3.org/2000/svg" xmlns:xlink="http://www.w3.org/1999/xlink">
<g id="graph0" class="graph" transform="scale(1 1) rotate(0) translate(76 423)">
<title>url_cache.pl</title>
<polygon fill="white" stroke="transparent" points="-4,4 -4,-351 1193,-351 1193,4 -4,4"/>
<text text-anchor="start" x="8" y="-16" font-family="Courier,monospace" font-size="10.00" fill="#8b8989">ClioPatria &#45; an RDF application platform</text>
<text text-anchor="start" x="8" y="-6" font-family="Courier,monospace" font-size="10.00" fill="#8b8989">Generated on 2019/04/17, 13:04</text>
<g id="clust1" class="cluster">
<title>cluster_file_/Users/pmoura/ClioPatria/lib/http/url_cache.pl</title>
<g id="a_clust1"><a xlink:href="https://github.com/ClioPatria/ClioPatria/tree/add57aa2039eed4033cf96e96c293b2052e88f41/lib/http/url_cache.pl" xlink:title="https://github.com/ClioPatria/ClioPatria/tree/add57aa2039eed4033cf96e96c293b2052e88f41/lib/http/url_cache.pl">
<path fill="snow" stroke="#8b8989" d="M20,-36C20,-36 1169,-36 1169,-36 1175,-36 1181,-42 1181,-48 1181,-48 1181,-327 1181,-327 1181,-333 1175,-339 1169,-339 1169,-339 20,-339 20,-339 14,-339 8,-333 8,-327 8,-327 8,-48 8,-48 8,-42 14,-36 20,-36"/>
<text text-anchor="middle" x="52.01" y="-327" font-family="Courier,monospace" font-size="10.00" fill="#8b8989">url_cache.pl</text>
</a>
</g>
</g>
<g id="clust2" class="cluster">
<title>cluster_other</title>
<g id="a_clust2"><a xlink:title="(external entities)">
<path fill="white" stroke="#8b8989" d="M30,-46C30,-46 1095,-46 1095,-46 1101,-46 1107,-52 1107,-58 1107,-58 1107,-108 1107,-108 1107,-114 1101,-120 1095,-120 1095,-120 30,-120 30,-120 24,-120 18,-114 18,-108 18,-108 18,-58 18,-58 18,-52 24,-46 30,-46"/>
<text text-anchor="middle" x="83.01" y="-108" font-family="Courier,monospace" font-size="10.00" fill="#8b8989">(external entities)</text>
</a>
</g>
</g>
<!-- url_cache -->
<g id="node1" class="node">
<title>url_cache</title>
<g id="a_node1"><a xlink:title="module">
<polygon fill="gainsboro" stroke="black" points="698.5,-311 511.5,-311 511.5,-315 499.5,-315 499.5,-191 698.5,-191 698.5,-311"/>
<polyline fill="none" stroke="black" points="499.5,-311 511.5,-311 "/>
<g id="a_node1_0"><a xlink:href="url_cache_module_xref_diagram.svg" xlink:title="Zoom">
<image xlink:href="zoom.png" width="11px" height="11px" preserveAspectRatio="xMinYMin meet" x="508" y="-307"/>
</a>
</g>
<text text-anchor="start" x="510.8" y="-287.8" font-family="Courier,monospace" font-size="9.00"> </text>
<text text-anchor="start" x="572.8" y="-287.2" font-family="Courier,monospace" font-size="11.00">url_cache</text>
<text text-anchor="start" x="685.8" y="-287.8" font-family="Courier,monospace" font-size="9.00"> </text>
<text text-anchor="start" x="510.8" y="-277.8" font-family="Courier,monospace" font-size="9.00"> </text>
<text text-anchor="start" x="589.9" y="-278.4" font-family="Courier,monospace" font-size="7.00">module</text>
<text text-anchor="start" x="685.8" y="-277.8" font-family="Courier,monospace" font-size="9.00"> </text>
<text text-anchor="start" x="510.8" y="-268.8" font-family="Courier,monospace" font-size="9.00"> </text>
<text text-anchor="start" x="510.8" y="-259.8" font-family="Courier,monospace" font-size="9.00"> </text>
<text text-anchor="start" x="553.89" y="-259.8" font-family="Courier,monospace" font-size="9.00">url_cache_delete/1</text>
<text text-anchor="start" x="685.8" y="-259.8" font-family="Courier,monospace" font-size="9.00"> </text>
<text text-anchor="start" x="510.8" y="-250.8" font-family="Courier,monospace" font-size="9.00"> </text>
<text text-anchor="start" x="570.09" y="-250.8" font-family="Courier,monospace" font-size="9.00">url_cached/3</text>
<text text-anchor="start" x="685.8" y="-250.8" font-family="Courier,monospace" font-size="9.00"> </text>
<text text-anchor="start" x="510.8" y="-241.8" font-family="Courier,monospace" font-size="9.00"> </text>
<text text-anchor="start" x="559.29" y="-241.8" font-family="Courier,monospace" font-size="9.00">url_cache_file/4</text>
<text text-anchor="start" x="685.8" y="-241.8" font-family="Courier,monospace" font-size="9.00"> </text>
<text text-anchor="start" x="510.8" y="-232.8" font-family="Courier,monospace" font-size="9.00"> </text>
<text text-anchor="start" x="570.09" y="-232.8" font-family="Courier,monospace" font-size="9.00">url_cached/2</text>
<text text-anchor="start" x="685.8" y="-232.8" font-family="Courier,monospace" font-size="9.00"> </text>
<text text-anchor="start" x="510.8" y="-223.8" font-family="Courier,monospace" font-size="9.00"> </text>
<text text-anchor="start" x="572.8" y="-223.8" font-family="Courier,monospace" font-size="9.00">url_cache/3</text>
<text text-anchor="start" x="685.8" y="-223.8" font-family="Courier,monospace" font-size="9.00"> </text>
<text text-anchor="start" x="510.8" y="-214.8" font-family="Courier,monospace" font-size="9.00"> </text>
<text text-anchor="start" x="518.79" y="-214.8" font-family="Courier,monospace" font-size="9.00">url_cache_reset_server_status/0</text>
<text text-anchor="start" x="685.8" y="-214.8" font-family="Courier,monospace" font-size="9.00"> </text>
<text text-anchor="start" x="510.8" y="-205.8" font-family="Courier,monospace" font-size="9.00"> </text>
<text text-anchor="start" x="518.79" y="-205.8" font-family="Courier,monospace" font-size="9.00">url_cache_reset_server_status/1</text>
<text text-anchor="start" x="685.8" y="-205.8" font-family="Courier,monospace" font-size="9.00"> </text>
<text text-anchor="start" x="510.8" y="-196.8" font-family="Courier,monospace" font-size="9.00"> </text>
<text text-anchor="start" x="559.29" y="-196.8" font-family="Courier,monospace" font-size="9.00">prolog:message/3</text>
<text text-anchor="start" x="685.8" y="-196.8" font-family="Courier,monospace" font-size="9.00"> </text>
</a>
</g>
</g>
<!-- prolog_dialect -->
<g id="node2" class="node">
<title>prolog_dialect</title>
<g id="a_node2"><a xlink:title="module">
<polygon fill="gainsboro" stroke="black" stroke-dasharray="5,2" points="146,-92 40,-92 40,-96 28,-96 28,-56 146,-56 146,-92"/>
<polyline fill="none" stroke="black" stroke-dasharray="5,2" points="28,-92 40,-92 "/>
<text text-anchor="start" x="35.8" y="-75.8" font-family="Courier,monospace" font-size="9.00"> </text>
<text text-anchor="start" x="40.79" y="-75.2" font-family="Courier,monospace" font-size="11.00">prolog_dialect</text>
<text text-anchor="start" x="132.8" y="-75.8" font-family="Courier,monospace" font-size="9.00"> </text>
<text text-anchor="start" x="35.8" y="-65.8" font-family="Courier,monospace" font-size="9.00"> </text>
<text text-anchor="start" x="74.4" y="-66.4" font-family="Courier,monospace" font-size="7.00">module</text>
<text text-anchor="start" x="132.8" y="-65.8" font-family="Courier,monospace" font-size="9.00"> </text>
</a>
</g>
</g>
<!-- url_cache&#45;&gt;prolog_dialect -->
<g id="edge2" class="edge">
<title>url_cache&#45;&gt;prolog_dialect</title>
<path fill="none" stroke="black" d="M499.49,-231.64C406.89,-212.11 266.78,-176.16 155,-120 143.02,-113.98 130.59,-106.25 119.69,-98.91"/>
<polygon fill="black" stroke="black" points="119.64,-98.87 112.43,-98.75 109.77,-92.05 119.64,-98.87"/>
<g id="a_edge2&#45;label"><a xlink:title="use_module">
<text text-anchor="middle" x="227" y="-138.8" font-family="Courier,monospace" font-size="9.00">use_module</text>
</a>
</g>
</g>
<!-- settings -->
<g id="node3" class="node">
<title>settings</title>
<g id="a_node3"><a xlink:title="module">
<polygon fill="gainsboro" stroke="black" stroke-dasharray="5,2" points="242,-92 176,-92 176,-96 164,-96 164,-56 242,-56 242,-92"/>
<polyline fill="none" stroke="black" stroke-dasharray="5,2" points="164,-92 176,-92 "/>
<text text-anchor="start" x="171.8" y="-75.8" font-family="Courier,monospace" font-size="9.00"> </text>
<text text-anchor="start" x="176.6" y="-75.2" font-family="Courier,monospace" font-size="11.00">settings</text>
<text text-anchor="start" x="228.8" y="-75.8" font-family="Courier,monospace" font-size="9.00"> </text>
<text text-anchor="start" x="171.8" y="-65.8" font-family="Courier,monospace" font-size="9.00"> </text>
<text text-anchor="start" x="190.4" y="-66.4" font-family="Courier,monospace" font-size="7.00">module</text>
<text text-anchor="start" x="228.8" y="-65.8" font-family="Courier,monospace" font-size="9.00"> </text>
</a>
</g>
</g>
<!-- url_cache&#45;&gt;settings -->
<g id="edge3" class="edge">
<title>url_cache&#45;&gt;settings</title>
<path fill="none" stroke="black" d="M499.23,-225.13C426.64,-204.17 327.99,-169.6 251,-120 242.81,-114.73 234.76,-107.97 227.65,-101.31"/>
<polygon fill="black" stroke="black" points="227.18,-100.85 220.1,-99.5 218.63,-92.44 227.18,-100.85"/>
<g id="a_edge3&#45;label"><a xlink:title="use_module">
<text text-anchor="middle" x="321" y="-138.8" font-family="Courier,monospace" font-size="9.00">use_module</text>
</a>
</g>
</g>
<!-- files_ex -->
<g id="node4" class="node">
<title>files_ex</title>
<g id="a_node4"><a xlink:title="module">
<polygon fill="gainsboro" stroke="black" stroke-dasharray="5,2" points="338,-92 272,-92 272,-96 260,-96 260,-56 338,-56 338,-92"/>
<polyline fill="none" stroke="black" stroke-dasharray="5,2" points="260,-92 272,-92 "/>
<text text-anchor="start" x="267.8" y="-75.8" font-family="Courier,monospace" font-size="9.00"> </text>
<text text-anchor="start" x="272.6" y="-75.2" font-family="Courier,monospace" font-size="11.00">files_ex</text>
<text text-anchor="start" x="324.8" y="-75.8" font-family="Courier,monospace" font-size="9.00"> </text>
<text text-anchor="start" x="267.8" y="-65.8" font-family="Courier,monospace" font-size="9.00"> </text>
<text text-anchor="start" x="286.4" y="-66.4" font-family="Courier,monospace" font-size="7.00">module</text>
<text text-anchor="start" x="324.8" y="-65.8" font-family="Courier,monospace" font-size="9.00"> </text>
</a>
</g>
</g>
<!-- url_cache&#45;&gt;files_ex -->
<g id="edge4" class="edge">
<title>url_cache&#45;&gt;files_ex</title>
<path fill="none" stroke="black" d="M499.5,-208.4C451.36,-185.86 394.15,-155.38 348,-120 340.31,-114.11 332.4,-107.24 325.24,-100.68"/>
<polygon fill="black" stroke="black" points="324.78,-100.25 317.67,-99.06 316.03,-92.03 324.78,-100.25"/>
<g id="a_edge4&#45;label"><a xlink:title="use_module">
<text text-anchor="middle" x="406" y="-138.8" font-family="Courier,monospace" font-size="9.00">use_module</text>
</a>
</g>
</g>
<!-- error -->
<g id="node5" class="node">
<title>error</title>
<g id="a_node5"><a xlink:title="module">
<polygon fill="gainsboro" stroke="black" stroke-dasharray="5,2" points="415.5,-92 368.5,-92 368.5,-96 356.5,-96 356.5,-56 415.5,-56 415.5,-92"/>
<polyline fill="none" stroke="black" stroke-dasharray="5,2" points="356.5,-92 368.5,-92 "/>
<text text-anchor="start" x="364.8" y="-75.8" font-family="Courier,monospace" font-size="9.00"> </text>
<text text-anchor="start" x="370" y="-75.2" font-family="Courier,monospace" font-size="11.00">error</text>
<text text-anchor="start" x="402.8" y="-75.8" font-family="Courier,monospace" font-size="9.00"> </text>
<text text-anchor="start" x="364.8" y="-65.8" font-family="Courier,monospace" font-size="9.00"> </text>
<text text-anchor="start" x="373.9" y="-66.4" font-family="Courier,monospace" font-size="7.00">module</text>
<text text-anchor="start" x="402.8" y="-65.8" font-family="Courier,monospace" font-size="9.00"> </text>
</a>
</g>
</g>
<!-- url_cache&#45;&gt;error -->
<g id="edge5" class="edge">
<title>url_cache&#45;&gt;error</title>
<path fill="none" stroke="black" d="M512.01,-190.68C483.25,-169.61 451.78,-144.91 425,-120 418.94,-114.36 412.85,-107.85 407.35,-101.56"/>
<polygon fill="black" stroke="black" points="407.03,-101.18 400.1,-99.18 399.28,-92.02 407.03,-101.18"/>
<g id="a_edge5&#45;label"><a xlink:title="use_module">
<text text-anchor="middle" x="478" y="-138.8" font-family="Courier,monospace" font-size="9.00">use_module</text>
</a>
</g>
</g>
<!-- prolog_debug -->
<g id="node6" class="node">
<title>prolog_debug</title>
<g id="a_node6"><a xlink:title="module">
<polygon fill="gainsboro" stroke="black" stroke-dasharray="5,2" points="538.5,-92 445.5,-92 445.5,-96 433.5,-96 433.5,-56 538.5,-56 538.5,-92"/>
<polyline fill="none" stroke="black" stroke-dasharray="5,2" points="433.5,-92 445.5,-92 "/>
<text text-anchor="start" x="441.8" y="-75.8" font-family="Courier,monospace" font-size="9.00"> </text>
<text text-anchor="start" x="446.89" y="-75.2" font-family="Courier,monospace" font-size="11.00">prolog_debug</text>
<text text-anchor="start" x="525.8" y="-75.8" font-family="Courier,monospace" font-size="9.00"> </text>
<text text-anchor="start" x="441.8" y="-65.8" font-family="Courier,monospace" font-size="9.00"> </text>
<text text-anchor="start" x="473.9" y="-66.4" font-family="Courier,monospace" font-size="7.00">module</text>
<text text-anchor="start" x="525.8" y="-65.8" font-family="Courier,monospace" font-size="9.00"> </text>
</a>
</g>
</g>
<!-- url_cache&#45;&gt;prolog_debug -->
<g id="edge6" class="edge">
<title>url_cache&#45;&gt;prolog_debug</title>
<path fill="none" stroke="black" d="M560.74,-190.75C541.4,-160.79 518.85,-125.88 503.63,-102.3"/>
<polygon fill="black" stroke="black" points="503.49,-102.09 496.88,-99.22 496.98,-92.01 503.49,-102.09"/>
<g id="a_edge6&#45;label"><a xlink:title="use_module">
<text text-anchor="middle" x="556" y="-138.8" font-family="Courier,monospace" font-size="9.00">use_module</text>
</a>
</g>
</g>
<!-- http_open -->
<g id="node7" class="node">
<title>http_open</title>
<g id="a_node7"><a xlink:title="module">
<polygon fill="gainsboro" stroke="black" stroke-dasharray="5,2" points="641.5,-92 568.5,-92 568.5,-96 556.5,-96 556.5,-56 641.5,-56 641.5,-92"/>
<polyline fill="none" stroke="black" stroke-dasharray="5,2" points="556.5,-92 568.5,-92 "/>
<text text-anchor="start" x="564.8" y="-75.8" font-family="Courier,monospace" font-size="9.00"> </text>
<text text-anchor="start" x="569.8" y="-75.2" font-family="Courier,monospace" font-size="11.00">http_open</text>
<text text-anchor="start" x="628.8" y="-75.8" font-family="Courier,monospace" font-size="9.00"> </text>
<text text-anchor="start" x="564.8" y="-65.8" font-family="Courier,monospace" font-size="9.00"> </text>
<text text-anchor="start" x="586.9" y="-66.4" font-family="Courier,monospace" font-size="7.00">module</text>
<text text-anchor="start" x="628.8" y="-65.8" font-family="Courier,monospace" font-size="9.00"> </text>
</a>
</g>
</g>
<!-- url_cache&#45;&gt;http_open -->
<g id="edge7" class="edge">
<title>url_cache&#45;&gt;http_open</title>
<path fill="none" stroke="black" d="M599,-190.75C599,-161.61 599,-127.77 599,-104.24"/>
<polygon fill="black" stroke="black" points="599,-104.01 595,-98.01 599,-92.01 599,-104.01"/>
<g id="a_edge7&#45;label"><a xlink:title="use_module">
<text text-anchor="middle" x="626" y="-138.8" font-family="Courier,monospace" font-size="9.00">use_module</text>
</a>
</g>
</g>
<!-- url -->
<g id="node8" class="node">
<title>url</title>
<g id="a_node8"><a xlink:title="module">
<polygon fill="gainsboro" stroke="black" stroke-dasharray="5,2" points="714,-92 672,-92 672,-96 660,-96 660,-56 714,-56 714,-92"/>
<polyline fill="none" stroke="black" stroke-dasharray="5,2" points="660,-92 672,-92 "/>
<text text-anchor="start" x="669.8" y="-75.8" font-family="Courier,monospace" font-size="9.00"> </text>
<text text-anchor="start" x="677.6" y="-75.2" font-family="Courier,monospace" font-size="11.00">url</text>
<text text-anchor="start" x="699.8" y="-75.8" font-family="Courier,monospace" font-size="9.00"> </text>
<text text-anchor="start" x="669.8" y="-65.8" font-family="Courier,monospace" font-size="9.00"> </text>
<text text-anchor="start" x="674.9" y="-66.4" font-family="Courier,monospace" font-size="7.00">module</text>
<text text-anchor="start" x="699.8" y="-65.8" font-family="Courier,monospace" font-size="9.00"> </text>
</a>
</g>
</g>
<!-- url_cache&#45;&gt;url -->
<g id="edge8" class="edge">
<title>url_cache&#45;&gt;url</title>
<path fill="none" stroke="black" d="M633.41,-190.92C641.46,-176.39 649.79,-160.77 657,-146 663.74,-132.19 670.47,-116.48 675.85,-103.36"/>
<polygon fill="black" stroke="black" points="675.87,-103.29 674.41,-96.23 680.36,-92.16 675.87,-103.29"/>
<g id="a_edge8&#45;label"><a xlink:title="use_module">
<text text-anchor="middle" x="687" y="-138.8" font-family="Courier,monospace" font-size="9.00">use_module</text>
</a>
</g>
</g>
<!-- crypto_hash -->
<g id="node9" class="node">
<title>crypto_hash</title>
<g id="a_node9"><a xlink:title="module">
<polygon fill="gainsboro" stroke="black" stroke-dasharray="5,2" points="830,-92 744,-92 744,-96 732,-96 732,-56 830,-56 830,-92"/>
<polyline fill="none" stroke="black" stroke-dasharray="5,2" points="732,-92 744,-92 "/>
<text text-anchor="start" x="739.8" y="-75.8" font-family="Courier,monospace" font-size="9.00"> </text>
<text text-anchor="start" x="744.69" y="-75.2" font-family="Courier,monospace" font-size="11.00">crypto_hash</text>
<text text-anchor="start" x="816.8" y="-75.8" font-family="Courier,monospace" font-size="9.00"> </text>
<text text-anchor="start" x="739.8" y="-65.8" font-family="Courier,monospace" font-size="9.00"> </text>
<text text-anchor="start" x="768.4" y="-66.4" font-family="Courier,monospace" font-size="7.00">module</text>
<text text-anchor="start" x="816.8" y="-65.8" font-family="Courier,monospace" font-size="9.00"> </text>
</a>
</g>
</g>
<!-- url_cache&#45;&gt;crypto_hash -->
<g id="edge9" class="edge">
<title>url_cache&#45;&gt;crypto_hash</title>
<path fill="none" stroke="black" d="M669.56,-190.95C685.83,-176.62 702.81,-161.08 718,-146 732.21,-131.89 747.13,-115.18 758.87,-101.52"/>
<polygon fill="black" stroke="black" points="759.04,-101.33 759.88,-94.17 766.81,-92.19 759.04,-101.33"/>
<g id="a_edge9&#45;label"><a xlink:title="use_module">
<text text-anchor="middle" x="752" y="-138.8" font-family="Courier,monospace" font-size="9.00">use_module</text>
</a>
</g>
</g>
<!-- backward_compatibility -->
<g id="node10" class="node">
<title>backward_compatibility</title>
<g id="a_node10"><a xlink:title="module">
<polygon fill="gainsboro" stroke="black" stroke-dasharray="5,2" points="1019.5,-92 860.5,-92 860.5,-96 848.5,-96 848.5,-56 1019.5,-56 1019.5,-92"/>
<polyline fill="none" stroke="black" stroke-dasharray="5,2" points="848.5,-92 860.5,-92 "/>
<text text-anchor="start" x="856.8" y="-75.8" font-family="Courier,monospace" font-size="9.00"> </text>
<text text-anchor="start" x="861.89" y="-75.2" font-family="Courier,monospace" font-size="11.00">backward_compatibility</text>
<text text-anchor="start" x="1006.8" y="-75.8" font-family="Courier,monospace" font-size="9.00"> </text>
<text text-anchor="start" x="856.8" y="-65.8" font-family="Courier,monospace" font-size="9.00"> </text>
<text text-anchor="start" x="921.9" y="-66.4" font-family="Courier,monospace" font-size="7.00">module</text>
<text text-anchor="start" x="1006.8" y="-65.8" font-family="Courier,monospace" font-size="9.00"> </text>
</a>
</g>
</g>
<!-- url_cache&#45;&gt;backward_compatibility -->
<g id="edge10" class="edge">
<title>url_cache&#45;&gt;backward_compatibility</title>
<path fill="none" stroke="black" d="M698.6,-197.97C762.48,-164.6 842.22,-122.95 890.57,-97.69"/>
<polygon fill="black" stroke="black" points="890.64,-97.65 894.1,-91.33 901.27,-92.1 890.64,-97.65"/>
<g id="a_edge10&#45;label"><a xlink:title="use_module">
<text text-anchor="middle" x="833" y="-138.8" font-family="Courier,monospace" font-size="9.00">use_module</text>
</a>
</g>
</g>
<!-- lists -->
<g id="node11" class="node">
<title>lists</title>
<g id="a_node11"><a xlink:title="module">
<polygon fill="gainsboro" stroke="black" stroke-dasharray="5,2" points="1096.5,-92 1049.5,-92 1049.5,-96 1037.5,-96 1037.5,-56 1096.5,-56 1096.5,-92"/>
<polyline fill="none" stroke="black" stroke-dasharray="5,2" points="1037.5,-92 1049.5,-92 "/>
<text text-anchor="start" x="1045.8" y="-75.8" font-family="Courier,monospace" font-size="9.00"> </text>
<text text-anchor="start" x="1051" y="-75.2" font-family="Courier,monospace" font-size="11.00">lists</text>
<text text-anchor="start" x="1083.8" y="-75.8" font-family="Courier,monospace" font-size="9.00"> </text>
<text text-anchor="start" x="1045.8" y="-65.8" font-family="Courier,monospace" font-size="9.00"> </text>
<text text-anchor="start" x="1054.9" y="-66.4" font-family="Courier,monospace" font-size="7.00">module</text>
<text text-anchor="start" x="1083.8" y="-65.8" font-family="Courier,monospace" font-size="9.00"> </text>
</a>
</g>
</g>
<!-- url_cache&#45;&gt;lists -->
<g id="edge11" class="edge">
<title>url_cache&#45;&gt;lists</title>
<path fill="none" stroke="black" d="M698.93,-236.43C790.78,-220.27 927.66,-186.62 1029,-120 1036.35,-115.17 1043.05,-108.51 1048.71,-101.79"/>
<polygon fill="black" stroke="black" points="1048.85,-101.59 1049.37,-94.4 1056.2,-92.11 1048.85,-101.59"/>
<g id="a_edge11&#45;label"><a xlink:title="use_module">
<text text-anchor="middle" x="1025" y="-138.8" font-family="Courier,monospace" font-size="9.00">use_module</text>
</a>
</g>
</g>
<!-- prolog -->
<g id="node12" class="node">
<title>prolog</title>
<ellipse fill="white" stroke="black" cx="1144" cy="-74" rx="27.41" ry="18"/>
<text text-anchor="middle" x="1144" y="-71.3" font-family="Courier,monospace" font-size="9.00">prolog</text>
</g>
<!-- url_cache&#45;&gt;prolog -->
<g id="edge1" class="edge">
<title>url_cache&#45;&gt;prolog</title>
<path fill="none" stroke="black" d="M698.8,-233.77C792.57,-217 936.02,-187.45 1056,-146 1081.56,-137.17 1090.14,-137.21 1111,-120 1117.83,-114.36 1123.99,-107.02 1129.09,-99.9"/>
<polygon fill="black" stroke="black" points="1137.86,-93.1 1129.38,-99.46 1132.04,-89.2 1137.86,-93.1"/>
<g id="a_edge1&#45;label"><a xlink:title="provides">
<text text-anchor="middle" x="1103.6" y="-138.8" font-family="Courier,monospace" font-size="9.00">provides</text>
</a>
</g>
</g>
</g>
</svg>
