<?xml version="1.0" encoding="UTF-8" standalone="no"?>
<!DOCTYPE svg PUBLIC "-//W3C//DTD SVG 1.1//EN"
 "http://www.w3.org/Graphics/SVG/1.1/DTD/svg11.dtd">
<!-- Generated by graphviz version 2.41.20190410.0829 (20190410.0829)
 -->
<!-- Title: user.pl Pages: 1 -->
<svg width="2535pt" height="418pt"
 viewBox="72.00 72.00 2463.00 346.00" xmlns="http://www.w3.org/2000/svg" xmlns:xlink="http://www.w3.org/1999/xlink">
<g id="graph0" class="graph" transform="scale(1 1) rotate(0) translate(76 342)">
<title>user.pl</title>
<polygon fill="white" stroke="transparent" points="-4,4 -4,-270 2387,-270 2387,4 -4,4"/>
<text text-anchor="start" x="8" y="-16" font-family="Courier,monospace" font-size="10.00" fill="#8b8989">ClioPatria &#45; an RDF application platform</text>
<text text-anchor="start" x="8" y="-6" font-family="Courier,monospace" font-size="10.00" fill="#8b8989">Generated on 2019/04/17, 13:04</text>
<g id="clust1" class="cluster">
<title>cluster_file_/Users/pmoura/ClioPatria/applications/user.pl</title>
<g id="a_clust1"><a xlink:href="https://github.com/ClioPatria/ClioPatria/tree/add57aa2039eed4033cf96e96c293b2052e88f41/applications/user.pl" xlink:title="https://github.com/ClioPatria/ClioPatria/tree/add57aa2039eed4033cf96e96c293b2052e88f41/applications/user.pl">
<path fill="snow" stroke="#8b8989" d="M20,-36C20,-36 2363,-36 2363,-36 2369,-36 2375,-42 2375,-48 2375,-48 2375,-246 2375,-246 2375,-252 2369,-258 2363,-258 2363,-258 20,-258 20,-258 14,-258 8,-252 8,-246 8,-246 8,-48 8,-48 8,-42 14,-36 20,-36"/>
<text text-anchor="middle" x="37" y="-246" font-family="Courier,monospace" font-size="10.00" fill="#8b8989">user.pl</text>
</a>
</g>
</g>
<g id="clust2" class="cluster">
<title>cluster_other</title>
<g id="a_clust2"><a xlink:title="(external entities)">
<path fill="white" stroke="#8b8989" d="M30,-46C30,-46 2221,-46 2221,-46 2227,-46 2233,-52 2233,-58 2233,-58 2233,-108 2233,-108 2233,-114 2227,-120 2221,-120 2221,-120 30,-120 30,-120 24,-120 18,-114 18,-108 18,-108 18,-58 18,-58 18,-52 24,-46 30,-46"/>
<text text-anchor="middle" x="83.01" y="-108" font-family="Courier,monospace" font-size="10.00" fill="#8b8989">(external entities)</text>
</a>
</g>
</g>
<!-- cpa_user -->
<g id="node1" class="node">
<title>cpa_user</title>
<g id="a_node1"><a xlink:title="module">
<polygon fill="gainsboro" stroke="black" points="1194,-230 1122,-230 1122,-234 1110,-234 1110,-191 1194,-191 1194,-230"/>
<polyline fill="none" stroke="black" points="1110,-230 1122,-230 "/>
<g id="a_node1_0"><a xlink:href="cpa_user_module_xref_diagram.svg" xlink:title="Zoom">
<image xlink:href="zoom.png" width="11px" height="11px" preserveAspectRatio="xMinYMin meet" x="1118" y="-225.5"/>
</a>
</g>
<text text-anchor="start" x="1120.8" y="-206.3" font-family="Courier,monospace" font-size="9.00"> </text>
<text text-anchor="start" x="1128.6" y="-205.7" font-family="Courier,monospace" font-size="11.00">cpa_user</text>
<text text-anchor="start" x="1180.8" y="-206.3" font-family="Courier,monospace" font-size="9.00"> </text>
<text text-anchor="start" x="1120.8" y="-196.3" font-family="Courier,monospace" font-size="9.00"> </text>
<text text-anchor="start" x="1142.4" y="-196.9" font-family="Courier,monospace" font-size="7.00">module</text>
<text text-anchor="start" x="1180.8" y="-196.3" font-family="Courier,monospace" font-size="9.00"> </text>
</a>
</g>
</g>
<!-- http_dispatch -->
<g id="node2" class="node">
<title>http_dispatch</title>
<g id="a_node2"><a xlink:title="module">
<polygon fill="gainsboro" stroke="black" stroke-dasharray="5,2" points="139.5,-92 40.5,-92 40.5,-96 28.5,-96 28.5,-56 139.5,-56 139.5,-92"/>
<polyline fill="none" stroke="black" stroke-dasharray="5,2" points="28.5,-92 40.5,-92 "/>
<text text-anchor="start" x="36.8" y="-75.8" font-family="Courier,monospace" font-size="9.00"> </text>
<text text-anchor="start" x="41.59" y="-75.2" font-family="Courier,monospace" font-size="11.00">http_dispatch</text>
<text text-anchor="start" x="126.8" y="-75.8" font-family="Courier,monospace" font-size="9.00"> </text>
<text text-anchor="start" x="36.8" y="-65.8" font-family="Courier,monospace" font-size="9.00"> </text>
<text text-anchor="start" x="71.9" y="-66.4" font-family="Courier,monospace" font-size="7.00">module</text>
<text text-anchor="start" x="126.8" y="-65.8" font-family="Courier,monospace" font-size="9.00"> </text>
</a>
</g>
</g>
<!-- cpa_user&#45;&gt;http_dispatch -->
<g id="edge1" class="edge">
<title>cpa_user&#45;&gt;http_dispatch</title>
<path fill="none" stroke="black" d="M1109.98,-208.65C950.37,-205.09 381.9,-189.6 206.99,-146 172.81,-137.48 138.48,-116.36 114.81,-99.35"/>
<polygon fill="black" stroke="black" points="114.68,-99.26 107.48,-98.91 105.03,-92.13 114.68,-99.26"/>
<g id="a_edge1&#45;label"><a xlink:title="use_module">
<text text-anchor="middle" x="233" y="-138.8" font-family="Courier,monospace" font-size="9.00">use_module</text>
</a>
</g>
</g>
<!-- user_db -->
<g id="node3" class="node">
<title>user_db</title>
<g id="a_node3"><a xlink:title="module">
<polygon fill="gainsboro" stroke="black" stroke-dasharray="5,2" points="230,-92 170,-92 170,-96 158,-96 158,-56 230,-56 230,-92"/>
<polyline fill="none" stroke="black" stroke-dasharray="5,2" points="158,-92 170,-92 "/>
<text text-anchor="start" x="165.8" y="-75.8" font-family="Courier,monospace" font-size="9.00"> </text>
<text text-anchor="start" x="170.9" y="-75.2" font-family="Courier,monospace" font-size="11.00">user_db</text>
<text text-anchor="start" x="216.8" y="-75.8" font-family="Courier,monospace" font-size="9.00"> </text>
<text text-anchor="start" x="165.8" y="-65.8" font-family="Courier,monospace" font-size="9.00"> </text>
<text text-anchor="start" x="181.4" y="-66.4" font-family="Courier,monospace" font-size="7.00">module</text>
<text text-anchor="start" x="216.8" y="-65.8" font-family="Courier,monospace" font-size="9.00"> </text>
</a>
</g>
</g>
<!-- cpa_user&#45;&gt;user_db -->
<g id="edge3" class="edge">
<title>cpa_user&#45;&gt;user_db</title>
<path fill="none" stroke="black" d="M1109.98,-208.65C959.22,-205.25 446.16,-190.6 288.99,-146 264.9,-139.16 259.2,-134.8 239,-120 231.4,-114.43 223.88,-107.58 217.21,-100.92"/>
<polygon fill="black" stroke="black" points="217.05,-100.75 210.01,-99.19 208.74,-92.09 217.05,-100.75"/>
<g id="a_edge3&#45;label"><a xlink:title="use_module">
<text text-anchor="middle" x="315" y="-138.8" font-family="Courier,monospace" font-size="9.00">use_module</text>
</a>
</g>
</g>
<!-- sgml -->
<g id="node4" class="node">
<title>sgml</title>
<g id="a_node4"><a xlink:title="module">
<polygon fill="gainsboro" stroke="black" stroke-dasharray="5,2" points="302,-92 260,-92 260,-96 248,-96 248,-56 302,-56 302,-92"/>
<polyline fill="none" stroke="black" stroke-dasharray="5,2" points="248,-92 260,-92 "/>
<text text-anchor="start" x="256.8" y="-75.8" font-family="Courier,monospace" font-size="9.00"> </text>
<text text-anchor="start" x="261.8" y="-75.2" font-family="Courier,monospace" font-size="11.00">sgml</text>
<text text-anchor="start" x="287.8" y="-75.8" font-family="Courier,monospace" font-size="9.00"> </text>
<text text-anchor="start" x="256.8" y="-65.8" font-family="Courier,monospace" font-size="9.00"> </text>
<text text-anchor="start" x="262.4" y="-66.4" font-family="Courier,monospace" font-size="7.00">module</text>
<text text-anchor="start" x="287.8" y="-65.8" font-family="Courier,monospace" font-size="9.00"> </text>
</a>
</g>
</g>
<!-- cpa_user&#45;&gt;sgml -->
<g id="edge4" class="edge">
<title>cpa_user&#45;&gt;sgml</title>
<path fill="none" stroke="black" d="M1109.61,-208.93C994.5,-206.72 666.86,-196.16 399.99,-146 359.91,-138.47 346,-142.52 312,-120 304.75,-115.2 298.19,-108.54 292.68,-101.82"/>
<polygon fill="black" stroke="black" points="292.62,-101.73 285.81,-99.34 285.4,-92.14 292.62,-101.73"/>
<g id="a_edge4&#45;label"><a xlink:title="use_module">
<text text-anchor="middle" x="426" y="-138.8" font-family="Courier,monospace" font-size="9.00">use_module</text>
</a>
</g>
</g>
<!-- occurs -->
<g id="node5" class="node">
<title>occurs</title>
<g id="a_node5"><a xlink:title="module">
<polygon fill="gainsboro" stroke="black" stroke-dasharray="5,2" points="385.5,-92 332.5,-92 332.5,-96 320.5,-96 320.5,-56 385.5,-56 385.5,-92"/>
<polyline fill="none" stroke="black" stroke-dasharray="5,2" points="320.5,-92 332.5,-92 "/>
<text text-anchor="start" x="328.8" y="-75.8" font-family="Courier,monospace" font-size="9.00"> </text>
<text text-anchor="start" x="333.7" y="-75.2" font-family="Courier,monospace" font-size="11.00">occurs</text>
<text text-anchor="start" x="372.8" y="-75.8" font-family="Courier,monospace" font-size="9.00"> </text>
<text text-anchor="start" x="328.8" y="-65.8" font-family="Courier,monospace" font-size="9.00"> </text>
<text text-anchor="start" x="340.9" y="-66.4" font-family="Courier,monospace" font-size="7.00">module</text>
<text text-anchor="start" x="372.8" y="-65.8" font-family="Courier,monospace" font-size="9.00"> </text>
</a>
</g>
</g>
<!-- cpa_user&#45;&gt;occurs -->
<g id="edge5" class="edge">
<title>cpa_user&#45;&gt;occurs</title>
<path fill="none" stroke="black" d="M1109.98,-207.01C1007.58,-200.57 737.17,-181.37 513.99,-146 487.26,-141.76 418.52,-133.39 395,-120 386.83,-115.35 379.31,-108.58 372.96,-101.69"/>
<polygon fill="black" stroke="black" points="372.86,-101.57 365.92,-99.59 365.08,-92.42 372.86,-101.57"/>
<g id="a_edge5&#45;label"><a xlink:title="use_module">
<text text-anchor="middle" x="540" y="-138.8" font-family="Courier,monospace" font-size="9.00">use_module</text>
</a>
</g>
</g>
<!-- lists -->
<g id="node6" class="node">
<title>lists</title>
<g id="a_node6"><a xlink:title="module">
<polygon fill="gainsboro" stroke="black" stroke-dasharray="5,2" points="462.5,-92 415.5,-92 415.5,-96 403.5,-96 403.5,-56 462.5,-56 462.5,-92"/>
<polyline fill="none" stroke="black" stroke-dasharray="5,2" points="403.5,-92 415.5,-92 "/>
<text text-anchor="start" x="411.8" y="-75.8" font-family="Courier,monospace" font-size="9.00"> </text>
<text text-anchor="start" x="417" y="-75.2" font-family="Courier,monospace" font-size="11.00">lists</text>
<text text-anchor="start" x="449.8" y="-75.8" font-family="Courier,monospace" font-size="9.00"> </text>
<text text-anchor="start" x="411.8" y="-65.8" font-family="Courier,monospace" font-size="9.00"> </text>
<text text-anchor="start" x="420.9" y="-66.4" font-family="Courier,monospace" font-size="7.00">module</text>
<text text-anchor="start" x="449.8" y="-65.8" font-family="Courier,monospace" font-size="9.00"> </text>
</a>
</g>
</g>
<!-- cpa_user&#45;&gt;lists -->
<g id="edge6" class="edge">
<title>cpa_user&#45;&gt;lists</title>
<path fill="none" stroke="black" d="M1109.88,-205.65C1019.36,-197.12 799.66,-175.06 616.99,-146 596.85,-142.8 592.05,-140.71 572,-137 527.67,-128.8 511.29,-142.11 472,-120 464.13,-115.57 457.09,-108.93 451.23,-102.09"/>
<polygon fill="black" stroke="black" points="450.89,-101.66 444.05,-99.37 443.53,-92.18 450.89,-101.66"/>
<g id="a_edge6&#45;label"><a xlink:title="use_module">
<text text-anchor="middle" x="643" y="-138.8" font-family="Courier,monospace" font-size="9.00">use_module</text>
</a>
</g>
</g>
<!-- html_write -->
<g id="node7" class="node">
<title>html_write</title>
<g id="a_node7"><a xlink:title="module">
<polygon fill="gainsboro" stroke="black" stroke-dasharray="5,2" points="573,-92 493,-92 493,-96 481,-96 481,-56 573,-56 573,-92"/>
<polyline fill="none" stroke="black" stroke-dasharray="5,2" points="481,-92 493,-92 "/>
<text text-anchor="start" x="488.8" y="-75.8" font-family="Courier,monospace" font-size="9.00"> </text>
<text text-anchor="start" x="493.99" y="-75.2" font-family="Courier,monospace" font-size="11.00">html_write</text>
<text text-anchor="start" x="559.8" y="-75.8" font-family="Courier,monospace" font-size="9.00"> </text>
<text text-anchor="start" x="488.8" y="-65.8" font-family="Courier,monospace" font-size="9.00"> </text>
<text text-anchor="start" x="514.4" y="-66.4" font-family="Courier,monospace" font-size="7.00">module</text>
<text text-anchor="start" x="559.8" y="-65.8" font-family="Courier,monospace" font-size="9.00"> </text>
</a>
</g>
</g>
<!-- cpa_user&#45;&gt;html_write -->
<g id="edge7" class="edge">
<title>cpa_user&#45;&gt;html_write</title>
<path fill="none" stroke="black" d="M1109.8,-204.88C1031.01,-195.92 856.34,-174.56 710.99,-146 694.81,-142.82 691.11,-140.5 675,-137 634.37,-128.17 620.8,-137.33 583,-120 572.18,-115.04 561.64,-107.52 552.68,-100.04"/>
<polygon fill="black" stroke="black" points="552.63,-100 545.49,-99.03 543.63,-92.06 552.63,-100"/>
<g id="a_edge7&#45;label"><a xlink:title="use_module">
<text text-anchor="middle" x="737" y="-138.8" font-family="Courier,monospace" font-size="9.00">use_module</text>
</a>
</g>
</g>
<!-- http_host -->
<g id="node8" class="node">
<title>http_host</title>
<g id="a_node8"><a xlink:title="module">
<polygon fill="gainsboro" stroke="black" stroke-dasharray="5,2" points="676.5,-92 603.5,-92 603.5,-96 591.5,-96 591.5,-56 676.5,-56 676.5,-92"/>
<polyline fill="none" stroke="black" stroke-dasharray="5,2" points="591.5,-92 603.5,-92 "/>
<text text-anchor="start" x="599.8" y="-75.8" font-family="Courier,monospace" font-size="9.00"> </text>
<text text-anchor="start" x="604.8" y="-75.2" font-family="Courier,monospace" font-size="11.00">http_host</text>
<text text-anchor="start" x="663.8" y="-75.8" font-family="Courier,monospace" font-size="9.00"> </text>
<text text-anchor="start" x="599.8" y="-65.8" font-family="Courier,monospace" font-size="9.00"> </text>
<text text-anchor="start" x="621.9" y="-66.4" font-family="Courier,monospace" font-size="7.00">module</text>
<text text-anchor="start" x="663.8" y="-65.8" font-family="Courier,monospace" font-size="9.00"> </text>
</a>
</g>
</g>
<!-- cpa_user&#45;&gt;http_host -->
<g id="edge8" class="edge">
<title>cpa_user&#45;&gt;http_host</title>
<path fill="none" stroke="black" d="M1109.6,-201.66C996.52,-180.71 695.61,-124.7 686,-120 675.98,-115.1 666.34,-107.78 658.15,-100.47"/>
<polygon fill="black" stroke="black" points="657.96,-100.28 650.85,-99.05 649.26,-92.02 657.96,-100.28"/>
<g id="a_edge8&#45;label"><a xlink:title="use_module">
<text text-anchor="middle" x="830" y="-138.8" font-family="Courier,monospace" font-size="9.00">use_module</text>
</a>
</g>
</g>
<!-- server_statistics -->
<g id="node9" class="node">
<title>server_statistics</title>
<g id="a_node9"><a xlink:title="module">
<polygon fill="gainsboro" stroke="black" stroke-dasharray="5,2" points="833,-92 707,-92 707,-96 695,-96 695,-56 833,-56 833,-92"/>
<polyline fill="none" stroke="black" stroke-dasharray="5,2" points="695,-92 707,-92 "/>
<text text-anchor="start" x="702.8" y="-75.8" font-family="Courier,monospace" font-size="9.00"> </text>
<text text-anchor="start" x="707.89" y="-75.2" font-family="Courier,monospace" font-size="11.00">server_statistics</text>
<text text-anchor="start" x="819.8" y="-75.8" font-family="Courier,monospace" font-size="9.00"> </text>
<text text-anchor="start" x="702.8" y="-65.8" font-family="Courier,monospace" font-size="9.00"> </text>
<text text-anchor="start" x="751.4" y="-66.4" font-family="Courier,monospace" font-size="7.00">module</text>
<text text-anchor="start" x="819.8" y="-65.8" font-family="Courier,monospace" font-size="9.00"> </text>
</a>
</g>
</g>
<!-- cpa_user&#45;&gt;server_statistics -->
<g id="edge9" class="edge">
<title>cpa_user&#45;&gt;server_statistics</title>
<path fill="none" stroke="black" d="M1109.95,-201.93C1058.55,-192.03 969.34,-172.75 895.99,-146 871.34,-137.01 866.18,-132.28 843,-120 830.05,-113.14 816.11,-105.35 803.59,-98.19"/>
<polygon fill="black" stroke="black" points="803.42,-98.09 796.23,-98.56 793.03,-92.1 803.42,-98.09"/>
<g id="a_edge9&#45;label"><a xlink:title="use_module">
<text text-anchor="middle" x="922" y="-138.8" font-family="Courier,monospace" font-size="9.00">use_module</text>
</a>
</g>
</g>
<!-- rdf_db -->
<g id="node10" class="node">
<title>rdf_db</title>
<g id="a_node10"><a xlink:title="module">
<polygon fill="gainsboro" stroke="black" stroke-dasharray="5,2" points="916.5,-92 863.5,-92 863.5,-96 851.5,-96 851.5,-56 916.5,-56 916.5,-92"/>
<polyline fill="none" stroke="black" stroke-dasharray="5,2" points="851.5,-92 863.5,-92 "/>
<text text-anchor="start" x="859.8" y="-75.8" font-family="Courier,monospace" font-size="9.00"> </text>
<text text-anchor="start" x="864.7" y="-75.2" font-family="Courier,monospace" font-size="11.00">rdf_db</text>
<text text-anchor="start" x="903.8" y="-75.8" font-family="Courier,monospace" font-size="9.00"> </text>
<text text-anchor="start" x="859.8" y="-65.8" font-family="Courier,monospace" font-size="9.00"> </text>
<text text-anchor="start" x="871.9" y="-66.4" font-family="Courier,monospace" font-size="7.00">module</text>
<text text-anchor="start" x="903.8" y="-65.8" font-family="Courier,monospace" font-size="9.00"> </text>
</a>
</g>
</g>
<!-- cpa_user&#45;&gt;rdf_db -->
<g id="edge10" class="edge">
<title>cpa_user&#45;&gt;rdf_db</title>
<path fill="none" stroke="black" d="M1109.73,-198.85C1062.19,-185.54 984.05,-159.59 926,-120 918.53,-114.9 911.4,-108.26 905.21,-101.64"/>
<polygon fill="black" stroke="black" points="904.8,-101.18 897.84,-99.31 896.89,-92.16 904.8,-101.18"/>
<g id="a_edge10&#45;label"><a xlink:title="use_module">
<text text-anchor="middle" x="992" y="-138.8" font-family="Courier,monospace" font-size="9.00">use_module</text>
</a>
</g>
</g>
<!-- html_basics -->
<g id="node11" class="node">
<title>html_basics</title>
<g id="a_node11"><a xlink:title="module">
<polygon fill="gainsboro" stroke="black" stroke-dasharray="5,2" points="1033,-92 947,-92 947,-96 935,-96 935,-56 1033,-56 1033,-92"/>
<polyline fill="none" stroke="black" stroke-dasharray="5,2" points="935,-92 947,-92 "/>
<text text-anchor="start" x="942.8" y="-75.8" font-family="Courier,monospace" font-size="9.00"> </text>
<text text-anchor="start" x="947.69" y="-75.2" font-family="Courier,monospace" font-size="11.00">html_basics</text>
<text text-anchor="start" x="1019.8" y="-75.8" font-family="Courier,monospace" font-size="9.00"> </text>
<text text-anchor="start" x="942.8" y="-65.8" font-family="Courier,monospace" font-size="9.00"> </text>
<text text-anchor="start" x="971.4" y="-66.4" font-family="Courier,monospace" font-size="7.00">module</text>
<text text-anchor="start" x="1019.8" y="-65.8" font-family="Courier,monospace" font-size="9.00"> </text>
</a>
</g>
</g>
<!-- cpa_user&#45;&gt;html_basics -->
<g id="edge11" class="edge">
<title>cpa_user&#45;&gt;html_basics</title>
<path fill="none" stroke="black" d="M1123.77,-190.91C1105.7,-178.69 1081.97,-162.04 1061.99,-146 1044.19,-131.71 1025.23,-114.49 1010.46,-100.6"/>
<polygon fill="black" stroke="black" points="1010.11,-100.27 1003.01,-99.04 1001.41,-92.01 1010.11,-100.27"/>
<g id="a_edge11&#45;label"><a xlink:title="use_module">
<text text-anchor="middle" x="1088" y="-138.8" font-family="Courier,monospace" font-size="9.00">use_module</text>
</a>
</g>
</g>
<!-- aggregate -->
<g id="node12" class="node">
<title>aggregate</title>
<g id="a_node12"><a xlink:title="module">
<polygon fill="gainsboro" stroke="black" stroke-dasharray="5,2" points="1136.5,-92 1063.5,-92 1063.5,-96 1051.5,-96 1051.5,-56 1136.5,-56 1136.5,-92"/>
<polyline fill="none" stroke="black" stroke-dasharray="5,2" points="1051.5,-92 1063.5,-92 "/>
<text text-anchor="start" x="1059.8" y="-75.8" font-family="Courier,monospace" font-size="9.00"> </text>
<text text-anchor="start" x="1064.8" y="-75.2" font-family="Courier,monospace" font-size="11.00">aggregate</text>
<text text-anchor="start" x="1123.8" y="-75.8" font-family="Courier,monospace" font-size="9.00"> </text>
<text text-anchor="start" x="1059.8" y="-65.8" font-family="Courier,monospace" font-size="9.00"> </text>
<text text-anchor="start" x="1081.9" y="-66.4" font-family="Courier,monospace" font-size="7.00">module</text>
<text text-anchor="start" x="1123.8" y="-65.8" font-family="Courier,monospace" font-size="9.00"> </text>
</a>
</g>
</g>
<!-- cpa_user&#45;&gt;aggregate -->
<g id="edge12" class="edge">
<title>cpa_user&#45;&gt;aggregate</title>
<path fill="none" stroke="black" d="M1143.71,-190.92C1138.1,-178.28 1130.53,-161.16 1123.99,-146 1117.94,-131.99 1111.33,-116.36 1105.85,-103.35"/>
<polygon fill="black" stroke="black" points="1105.84,-103.31 1099.83,-99.33 1101.2,-92.25 1105.84,-103.31"/>
<g id="a_edge12&#45;label"><a xlink:title="use_module">
<text text-anchor="middle" x="1150" y="-138.8" font-family="Courier,monospace" font-size="9.00">use_module</text>
</a>
</g>
</g>
<!-- rdfql_queries -->
<g id="node13" class="node">
<title>rdfql_queries</title>
<g id="a_node13"><a xlink:title="module">
<polygon fill="gainsboro" stroke="black" stroke-dasharray="5,2" points="1265.5,-92 1166.5,-92 1166.5,-96 1154.5,-96 1154.5,-56 1265.5,-56 1265.5,-92"/>
<polyline fill="none" stroke="black" stroke-dasharray="5,2" points="1154.5,-92 1166.5,-92 "/>
<text text-anchor="start" x="1162.8" y="-75.8" font-family="Courier,monospace" font-size="9.00"> </text>
<text text-anchor="start" x="1167.59" y="-75.2" font-family="Courier,monospace" font-size="11.00">rdfql_queries</text>
<text text-anchor="start" x="1252.8" y="-75.8" font-family="Courier,monospace" font-size="9.00"> </text>
<text text-anchor="start" x="1162.8" y="-65.8" font-family="Courier,monospace" font-size="9.00"> </text>
<text text-anchor="start" x="1197.9" y="-66.4" font-family="Courier,monospace" font-size="7.00">module</text>
<text text-anchor="start" x="1252.8" y="-65.8" font-family="Courier,monospace" font-size="9.00"> </text>
</a>
</g>
</g>
<!-- cpa_user&#45;&gt;rdfql_queries -->
<g id="edge13" class="edge">
<title>cpa_user&#45;&gt;rdfql_queries</title>
<path fill="none" stroke="black" d="M1160.06,-190.8C1169.84,-168.14 1186.4,-129.73 1197.75,-103.41"/>
<polygon fill="black" stroke="black" points="1197.8,-103.28 1196.51,-96.19 1202.55,-92.27 1197.8,-103.28"/>
<g id="a_edge13&#45;label"><a xlink:title="use_module">
<text text-anchor="middle" x="1209" y="-138.8" font-family="Courier,monospace" font-size="9.00">use_module</text>
</a>
</g>
</g>
<!-- http_path -->
<g id="node14" class="node">
<title>http_path</title>
<g id="a_node14"><a xlink:title="module">
<polygon fill="gainsboro" stroke="black" stroke-dasharray="5,2" points="1368.5,-92 1295.5,-92 1295.5,-96 1283.5,-96 1283.5,-56 1368.5,-56 1368.5,-92"/>
<polyline fill="none" stroke="black" stroke-dasharray="5,2" points="1283.5,-92 1295.5,-92 "/>
<text text-anchor="start" x="1291.8" y="-75.8" font-family="Courier,monospace" font-size="9.00"> </text>
<text text-anchor="start" x="1296.8" y="-75.2" font-family="Courier,monospace" font-size="11.00">http_path</text>
<text text-anchor="start" x="1355.8" y="-75.8" font-family="Courier,monospace" font-size="9.00"> </text>
<text text-anchor="start" x="1291.8" y="-65.8" font-family="Courier,monospace" font-size="9.00"> </text>
<text text-anchor="start" x="1313.9" y="-66.4" font-family="Courier,monospace" font-size="7.00">module</text>
<text text-anchor="start" x="1355.8" y="-65.8" font-family="Courier,monospace" font-size="9.00"> </text>
</a>
</g>
</g>
<!-- cpa_user&#45;&gt;http_path -->
<g id="edge14" class="edge">
<title>cpa_user&#45;&gt;http_path</title>
<path fill="none" stroke="black" d="M1179.48,-190.73C1204.81,-173.14 1243.2,-145.77 1275,-120 1282.74,-113.73 1290.92,-106.7 1298.41,-100.1"/>
<polygon fill="black" stroke="black" points="1298.48,-100.04 1300.29,-93.06 1307.43,-92.05 1298.48,-100.04"/>
<g id="a_edge14&#45;label"><a xlink:title="use_module">
<text text-anchor="middle" x="1279" y="-138.8" font-family="Courier,monospace" font-size="9.00">use_module</text>
</a>
</g>
</g>
<!-- html_head -->
<g id="node15" class="node">
<title>html_head</title>
<g id="a_node15"><a xlink:title="module">
<polygon fill="gainsboro" stroke="black" stroke-dasharray="5,2" points="1471.5,-92 1398.5,-92 1398.5,-96 1386.5,-96 1386.5,-56 1471.5,-56 1471.5,-92"/>
<polyline fill="none" stroke="black" stroke-dasharray="5,2" points="1386.5,-92 1398.5,-92 "/>
<text text-anchor="start" x="1394.8" y="-75.8" font-family="Courier,monospace" font-size="9.00"> </text>
<text text-anchor="start" x="1399.8" y="-75.2" font-family="Courier,monospace" font-size="11.00">html_head</text>
<text text-anchor="start" x="1458.8" y="-75.8" font-family="Courier,monospace" font-size="9.00"> </text>
<text text-anchor="start" x="1394.8" y="-65.8" font-family="Courier,monospace" font-size="9.00"> </text>
<text text-anchor="start" x="1416.9" y="-66.4" font-family="Courier,monospace" font-size="7.00">module</text>
<text text-anchor="start" x="1458.8" y="-65.8" font-family="Courier,monospace" font-size="9.00"> </text>
</a>
</g>
</g>
<!-- cpa_user&#45;&gt;html_head -->
<g id="edge15" class="edge">
<title>cpa_user&#45;&gt;html_head</title>
<path fill="none" stroke="black" d="M1194.01,-197.67C1240.98,-183.38 1318.28,-156.62 1378,-120 1387.02,-114.47 1395.97,-107.3 1403.8,-100.32"/>
<polygon fill="black" stroke="black" points="1403.93,-100.19 1405.6,-93.17 1412.71,-92.01 1403.93,-100.19"/>
<g id="a_edge15&#45;label"><a xlink:title="use_module">
<text text-anchor="middle" x="1370" y="-138.8" font-family="Courier,monospace" font-size="9.00">use_module</text>
</a>
</g>
</g>
<!-- javascript -->
<g id="node16" class="node">
<title>javascript</title>
<g id="a_node16"><a xlink:title="module">
<polygon fill="gainsboro" stroke="black" stroke-dasharray="5,2" points="1582,-92 1502,-92 1502,-96 1490,-96 1490,-56 1582,-56 1582,-92"/>
<polyline fill="none" stroke="black" stroke-dasharray="5,2" points="1490,-92 1502,-92 "/>
<text text-anchor="start" x="1497.8" y="-75.8" font-family="Courier,monospace" font-size="9.00"> </text>
<text text-anchor="start" x="1502.99" y="-75.2" font-family="Courier,monospace" font-size="11.00">javascript</text>
<text text-anchor="start" x="1568.8" y="-75.8" font-family="Courier,monospace" font-size="9.00"> </text>
<text text-anchor="start" x="1497.8" y="-65.8" font-family="Courier,monospace" font-size="9.00"> </text>
<text text-anchor="start" x="1523.4" y="-66.4" font-family="Courier,monospace" font-size="7.00">module</text>
<text text-anchor="start" x="1568.8" y="-65.8" font-family="Courier,monospace" font-size="9.00"> </text>
</a>
</g>
</g>
<!-- cpa_user&#45;&gt;javascript -->
<g id="edge16" class="edge">
<title>cpa_user&#45;&gt;javascript</title>
<path fill="none" stroke="black" d="M1194.08,-204.45C1259.01,-195.29 1386.07,-171.86 1481,-120 1490.91,-114.59 1500.77,-107.29 1509.34,-100.15"/>
<polygon fill="black" stroke="black" points="1509.35,-100.14 1511.26,-93.18 1518.41,-92.26 1509.35,-100.14"/>
<g id="a_edge16&#45;label"><a xlink:title="use_module">
<text text-anchor="middle" x="1466" y="-138.8" font-family="Courier,monospace" font-size="9.00">use_module</text>
</a>
</g>
</g>
<!-- rdf_library -->
<g id="node17" class="node">
<title>rdf_library</title>
<g id="a_node17"><a xlink:title="module">
<polygon fill="gainsboro" stroke="black" stroke-dasharray="5,2" points="1698,-92 1612,-92 1612,-96 1600,-96 1600,-56 1698,-56 1698,-92"/>
<polyline fill="none" stroke="black" stroke-dasharray="5,2" points="1600,-92 1612,-92 "/>
<text text-anchor="start" x="1607.8" y="-75.8" font-family="Courier,monospace" font-size="9.00"> </text>
<text text-anchor="start" x="1612.69" y="-75.2" font-family="Courier,monospace" font-size="11.00">rdf_library</text>
<text text-anchor="start" x="1684.8" y="-75.8" font-family="Courier,monospace" font-size="9.00"> </text>
<text text-anchor="start" x="1607.8" y="-65.8" font-family="Courier,monospace" font-size="9.00"> </text>
<text text-anchor="start" x="1636.4" y="-66.4" font-family="Courier,monospace" font-size="7.00">module</text>
<text text-anchor="start" x="1684.8" y="-65.8" font-family="Courier,monospace" font-size="9.00"> </text>
</a>
</g>
</g>
<!-- cpa_user&#45;&gt;rdf_library -->
<g id="edge17" class="edge">
<title>cpa_user&#45;&gt;rdf_library</title>
<path fill="none" stroke="black" d="M1194.29,-208.13C1275.44,-203.99 1456.81,-187.3 1591,-120 1601.71,-114.63 1612.37,-107.14 1621.58,-99.8"/>
<polygon fill="black" stroke="black" points="1621.71,-99.69 1623.77,-92.78 1630.94,-92.02 1621.71,-99.69"/>
<g id="a_edge17&#45;label"><a xlink:title="use_module">
<text text-anchor="middle" x="1573" y="-138.8" font-family="Courier,monospace" font-size="9.00">use_module</text>
</a>
</g>
</g>
<!-- api_rdflib -->
<g id="node18" class="node">
<title>api_rdflib</title>
<g id="a_node18"><a xlink:title="module">
<polygon fill="gainsboro" stroke="black" stroke-dasharray="5,2" points="1808,-92 1728,-92 1728,-96 1716,-96 1716,-56 1808,-56 1808,-92"/>
<polyline fill="none" stroke="black" stroke-dasharray="5,2" points="1716,-92 1728,-92 "/>
<text text-anchor="start" x="1723.8" y="-75.8" font-family="Courier,monospace" font-size="9.00"> </text>
<text text-anchor="start" x="1728.99" y="-75.2" font-family="Courier,monospace" font-size="11.00">api_rdflib</text>
<text text-anchor="start" x="1794.8" y="-75.8" font-family="Courier,monospace" font-size="9.00"> </text>
<text text-anchor="start" x="1723.8" y="-65.8" font-family="Courier,monospace" font-size="9.00"> </text>
<text text-anchor="start" x="1749.4" y="-66.4" font-family="Courier,monospace" font-size="7.00">module</text>
<text text-anchor="start" x="1794.8" y="-65.8" font-family="Courier,monospace" font-size="9.00"> </text>
</a>
</g>
</g>
<!-- cpa_user&#45;&gt;api_rdflib -->
<g id="edge18" class="edge">
<title>cpa_user&#45;&gt;api_rdflib</title>
<path fill="none" stroke="black" d="M1194,-205.13C1274.16,-196.45 1454.3,-175.32 1604,-146 1650.33,-136.92 1664.83,-141.23 1707,-120 1717.25,-114.84 1727.31,-107.49 1735.97,-100.22"/>
<polygon fill="black" stroke="black" points="1736.08,-100.12 1737.93,-93.15 1745.08,-92.17 1736.08,-100.12"/>
<g id="a_edge18&#45;label"><a xlink:title="use_module">
<text text-anchor="middle" x="1685" y="-138.8" font-family="Courier,monospace" font-size="9.00">use_module</text>
</a>
</g>
</g>
<!-- prolog_debug -->
<g id="node19" class="node">
<title>prolog_debug</title>
<g id="a_node19"><a xlink:title="module">
<polygon fill="gainsboro" stroke="black" stroke-dasharray="5,2" points="1931.5,-92 1838.5,-92 1838.5,-96 1826.5,-96 1826.5,-56 1931.5,-56 1931.5,-92"/>
<polyline fill="none" stroke="black" stroke-dasharray="5,2" points="1826.5,-92 1838.5,-92 "/>
<text text-anchor="start" x="1834.8" y="-75.8" font-family="Courier,monospace" font-size="9.00"> </text>
<text text-anchor="start" x="1839.89" y="-75.2" font-family="Courier,monospace" font-size="11.00">prolog_debug</text>
<text text-anchor="start" x="1918.8" y="-75.8" font-family="Courier,monospace" font-size="9.00"> </text>
<text text-anchor="start" x="1834.8" y="-65.8" font-family="Courier,monospace" font-size="9.00"> </text>
<text text-anchor="start" x="1866.9" y="-66.4" font-family="Courier,monospace" font-size="7.00">module</text>
<text text-anchor="start" x="1918.8" y="-65.8" font-family="Courier,monospace" font-size="9.00"> </text>
</a>
</g>
</g>
<!-- cpa_user&#45;&gt;prolog_debug -->
<g id="edge19" class="edge">
<title>cpa_user&#45;&gt;prolog_debug</title>
<path fill="none" stroke="black" d="M1194.04,-206.79C1288.14,-200.27 1522.67,-181.59 1716,-146 1761.59,-137.61 1775.06,-139.74 1817,-120 1828.43,-114.62 1839.92,-107.04 1849.84,-99.62"/>
<polygon fill="black" stroke="black" points="1850.08,-99.44 1852.36,-92.59 1859.55,-92.06 1850.08,-99.44"/>
<g id="a_edge19&#45;label"><a xlink:title="use_module">
<text text-anchor="middle" x="1794" y="-138.8" font-family="Courier,monospace" font-size="9.00">use_module</text>
</a>
</g>
</g>
<!-- http_open -->
<g id="node20" class="node">
<title>http_open</title>
<g id="a_node20"><a xlink:title="module">
<polygon fill="gainsboro" stroke="black" stroke-dasharray="5,2" points="2034.5,-92 1961.5,-92 1961.5,-96 1949.5,-96 1949.5,-56 2034.5,-56 2034.5,-92"/>
<polyline fill="none" stroke="black" stroke-dasharray="5,2" points="1949.5,-92 1961.5,-92 "/>
<text text-anchor="start" x="1957.8" y="-75.8" font-family="Courier,monospace" font-size="9.00"> </text>
<text text-anchor="start" x="1962.8" y="-75.2" font-family="Courier,monospace" font-size="11.00">http_open</text>
<text text-anchor="start" x="2021.8" y="-75.8" font-family="Courier,monospace" font-size="9.00"> </text>
<text text-anchor="start" x="1957.8" y="-65.8" font-family="Courier,monospace" font-size="9.00"> </text>
<text text-anchor="start" x="1979.9" y="-66.4" font-family="Courier,monospace" font-size="7.00">module</text>
<text text-anchor="start" x="2021.8" y="-65.8" font-family="Courier,monospace" font-size="9.00"> </text>
</a>
</g>
</g>
<!-- cpa_user&#45;&gt;http_open -->
<g id="edge20" class="edge">
<title>cpa_user&#45;&gt;http_open</title>
<path fill="none" stroke="black" d="M1194.36,-207.37C1300.87,-201.6 1588.25,-183.55 1825,-146 1877.18,-137.72 1893.94,-144.01 1941,-120 1950.68,-115.06 1959.99,-107.86 1967.94,-100.66"/>
<polygon fill="black" stroke="black" points="1967.94,-100.66 1969.5,-93.62 1976.6,-92.35 1967.94,-100.66"/>
<g id="a_edge20&#45;label"><a xlink:title="use_module">
<text text-anchor="middle" x="1921" y="-138.8" font-family="Courier,monospace" font-size="9.00">use_module</text>
</a>
</g>
</g>
<!-- xml_result -->
<g id="node21" class="node">
<title>xml_result</title>
<g id="a_node21"><a xlink:title="module">
<polygon fill="gainsboro" stroke="black" stroke-dasharray="5,2" points="2145,-92 2065,-92 2065,-96 2053,-96 2053,-56 2145,-56 2145,-92"/>
<polyline fill="none" stroke="black" stroke-dasharray="5,2" points="2053,-92 2065,-92 "/>
<text text-anchor="start" x="2060.8" y="-75.8" font-family="Courier,monospace" font-size="9.00"> </text>
<text text-anchor="start" x="2065.99" y="-75.2" font-family="Courier,monospace" font-size="11.00">xml_result</text>
<text text-anchor="start" x="2131.8" y="-75.8" font-family="Courier,monospace" font-size="9.00"> </text>
<text text-anchor="start" x="2060.8" y="-65.8" font-family="Courier,monospace" font-size="9.00"> </text>
<text text-anchor="start" x="2086.4" y="-66.4" font-family="Courier,monospace" font-size="7.00">module</text>
<text text-anchor="start" x="2131.8" y="-65.8" font-family="Courier,monospace" font-size="9.00"> </text>
</a>
</g>
</g>
<!-- cpa_user&#45;&gt;xml_result -->
<g id="edge21" class="edge">
<title>cpa_user&#45;&gt;xml_result</title>
<path fill="none" stroke="black" d="M1194.01,-209.06C1313.54,-207.18 1665.37,-197.36 1952,-146 1993.82,-138.51 2006.32,-139.64 2044,-120 2054.17,-114.7 2064.21,-107.31 2072.88,-100.05"/>
<polygon fill="black" stroke="black" points="2072.99,-99.95 2074.85,-92.98 2082,-92.02 2072.99,-99.95"/>
<g id="a_edge21&#45;label"><a xlink:title="use_module">
<text text-anchor="middle" x="2028" y="-138.8" font-family="Courier,monospace" font-size="9.00">use_module</text>
</a>
</g>
</g>
<!-- apply -->
<g id="node22" class="node">
<title>apply</title>
<g id="a_node22"><a xlink:title="module">
<polygon fill="gainsboro" stroke="black" stroke-dasharray="5,2" points="2222.5,-92 2175.5,-92 2175.5,-96 2163.5,-96 2163.5,-56 2222.5,-56 2222.5,-92"/>
<polyline fill="none" stroke="black" stroke-dasharray="5,2" points="2163.5,-92 2175.5,-92 "/>
<text text-anchor="start" x="2171.8" y="-75.8" font-family="Courier,monospace" font-size="9.00"> </text>
<text text-anchor="start" x="2177" y="-75.2" font-family="Courier,monospace" font-size="11.00">apply</text>
<text text-anchor="start" x="2209.8" y="-75.8" font-family="Courier,monospace" font-size="9.00"> </text>
<text text-anchor="start" x="2171.8" y="-65.8" font-family="Courier,monospace" font-size="9.00"> </text>
<text text-anchor="start" x="2180.9" y="-66.4" font-family="Courier,monospace" font-size="7.00">module</text>
<text text-anchor="start" x="2209.8" y="-65.8" font-family="Courier,monospace" font-size="9.00"> </text>
</a>
</g>
</g>
<!-- cpa_user&#45;&gt;apply -->
<g id="edge22" class="edge">
<title>cpa_user&#45;&gt;apply</title>
<path fill="none" stroke="black" d="M1194.39,-209.49C1324.54,-208.83 1729.49,-202.06 2059,-146 2102.15,-138.66 2116.96,-143.32 2154,-120 2161.52,-115.26 2168.39,-108.63 2174.2,-101.91"/>
<polygon fill="black" stroke="black" points="2174.44,-101.61 2175.04,-94.42 2181.9,-92.21 2174.44,-101.61"/>
<g id="a_edge22&#45;label"><a xlink:title="use_module">
<text text-anchor="middle" x="2143" y="-138.8" font-family="Courier,monospace" font-size="9.00">use_module</text>
</a>
</g>
</g>
<!-- prolog_statistics -->
<g id="node23" class="node">
<title>prolog_statistics</title>
<ellipse fill="white" stroke="black" cx="2304" cy="-74" rx="61.31" ry="18"/>
<text text-anchor="middle" x="2304" y="-71.3" font-family="Courier,monospace" font-size="9.00">prolog_statistics</text>
</g>
<!-- cpa_user&#45;&gt;prolog_statistics -->
<g id="edge2" class="edge">
<title>cpa_user&#45;&gt;prolog_statistics</title>
<path fill="none" stroke="black" d="M1194.2,-208.72C1362.12,-205.35 1982.91,-190.08 2174,-146 2210.84,-137.5 2248.23,-115.35 2273.4,-98.03"/>
<polygon fill="black" stroke="black" points="2273.6,-97.89 2276.19,-91.16 2283.4,-90.96 2273.6,-97.89"/>
<g id="a_edge2&#45;label"><a xlink:title="use_module">
<text text-anchor="middle" x="2227" y="-138.8" font-family="Courier,monospace" font-size="9.00">use_module</text>
</a>
</g>
</g>
</g>
</svg>
