<?xml version="1.0" encoding="UTF-8" standalone="no"?>
<!DOCTYPE svg PUBLIC "-//W3C//DTD SVG 1.1//EN"
 "http://www.w3.org/Graphics/SVG/1.1/DTD/svg11.dtd">
<!-- Generated by graphviz version 2.41.20190410.0829 (20190410.0829)
 -->
<!-- Title: user_db.pl Pages: 1 -->
<svg width="1485pt" height="643pt"
 viewBox="72.00 72.00 1413.00 571.00" xmlns="http://www.w3.org/2000/svg" xmlns:xlink="http://www.w3.org/1999/xlink">
<g id="graph0" class="graph" transform="scale(1 1) rotate(0) translate(76 567)">
<title>user_db.pl</title>
<polygon fill="white" stroke="transparent" points="-4,4 -4,-495 1337,-495 1337,4 -4,4"/>
<text text-anchor="start" x="8" y="-16" font-family="Courier,monospace" font-size="10.00" fill="#8b8989">ClioPatria &#45; an RDF application platform</text>
<text text-anchor="start" x="8" y="-6" font-family="Courier,monospace" font-size="10.00" fill="#8b8989">Generated on 2019/04/17, 13:04</text>
<g id="clust1" class="cluster">
<title>cluster_file_/Users/pmoura/ClioPatria/user/user_db.pl</title>
<g id="a_clust1"><a xlink:href="https://github.com/ClioPatria/ClioPatria/tree/add57aa2039eed4033cf96e96c293b2052e88f41/user/user_db.pl" xlink:title="https://github.com/ClioPatria/ClioPatria/tree/add57aa2039eed4033cf96e96c293b2052e88f41/user/user_db.pl">
<path fill="snow" stroke="#8b8989" d="M20,-36C20,-36 1313,-36 1313,-36 1319,-36 1325,-42 1325,-48 1325,-48 1325,-471 1325,-471 1325,-477 1319,-483 1313,-483 1313,-483 20,-483 20,-483 14,-483 8,-477 8,-471 8,-471 8,-48 8,-48 8,-42 14,-36 20,-36"/>
<text text-anchor="middle" x="46" y="-471" font-family="Courier,monospace" font-size="10.00" fill="#8b8989">user_db.pl</text>
</a>
</g>
</g>
<g id="clust2" class="cluster">
<title>cluster_other</title>
<g id="a_clust2"><a xlink:title="(external entities)">
<path fill="white" stroke="#8b8989" d="M30,-46C30,-46 1303,-46 1303,-46 1309,-46 1315,-52 1315,-58 1315,-58 1315,-108 1315,-108 1315,-114 1309,-120 1303,-120 1303,-120 30,-120 30,-120 24,-120 18,-114 18,-108 18,-108 18,-58 18,-58 18,-52 24,-46 30,-46"/>
<text text-anchor="middle" x="83.01" y="-108" font-family="Courier,monospace" font-size="10.00" fill="#8b8989">(external entities)</text>
</a>
</g>
</g>
<!-- user_db -->
<g id="node1" class="node">
<title>user_db</title>
<g id="a_node1"><a xlink:title="module">
<polygon fill="gainsboro" stroke="black" points="698,-455 538,-455 538,-459 526,-459 526,-191 698,-191 698,-455"/>
<polyline fill="none" stroke="black" points="526,-455 538,-455 "/>
<g id="a_node1_0"><a xlink:href="user_db_module_xref_diagram.svg" xlink:title="Zoom">
<image xlink:href="zoom.png" width="11px" height="11px" preserveAspectRatio="xMinYMin meet" x="534" y="-451"/>
</a>
</g>
<text text-anchor="start" x="536.8" y="-431.8" font-family="Courier,monospace" font-size="9.00"> </text>
<text text-anchor="start" x="591.9" y="-431.2" font-family="Courier,monospace" font-size="11.00">user_db</text>
<text text-anchor="start" x="684.8" y="-431.8" font-family="Courier,monospace" font-size="9.00"> </text>
<text text-anchor="start" x="536.8" y="-421.8" font-family="Courier,monospace" font-size="9.00"> </text>
<text text-anchor="start" x="602.4" y="-422.4" font-family="Courier,monospace" font-size="7.00">module</text>
<text text-anchor="start" x="684.8" y="-421.8" font-family="Courier,monospace" font-size="9.00"> </text>
<text text-anchor="start" x="536.8" y="-412.8" font-family="Courier,monospace" font-size="9.00"> </text>
<text text-anchor="start" x="536.8" y="-403.8" font-family="Courier,monospace" font-size="9.00"> </text>
<text text-anchor="start" x="582.59" y="-403.8" font-family="Courier,monospace" font-size="9.00">authorized/1</text>
<text text-anchor="start" x="684.8" y="-403.8" font-family="Courier,monospace" font-size="9.00"> </text>
<text text-anchor="start" x="536.8" y="-394.8" font-family="Courier,monospace" font-size="9.00"> </text>
<text text-anchor="start" x="571.79" y="-394.8" font-family="Courier,monospace" font-size="9.00">deny_all_users/1</text>
<text text-anchor="start" x="684.8" y="-394.8" font-family="Courier,monospace" font-size="9.00"> </text>
<text text-anchor="start" x="536.8" y="-385.8" font-family="Courier,monospace" font-size="9.00"> </text>
<text text-anchor="start" x="577.19" y="-385.8" font-family="Courier,monospace" font-size="9.00">current_user/1</text>
<text text-anchor="start" x="684.8" y="-385.8" font-family="Courier,monospace" font-size="9.00"> </text>
<text text-anchor="start" x="536.8" y="-376.8" font-family="Courier,monospace" font-size="9.00"> </text>
<text text-anchor="start" x="585.3" y="-376.8" font-family="Courier,monospace" font-size="9.00">logged_on/1</text>
<text text-anchor="start" x="684.8" y="-376.8" font-family="Courier,monospace" font-size="9.00"> </text>
<text text-anchor="start" x="536.8" y="-367.8" font-family="Courier,monospace" font-size="9.00"> </text>
<text text-anchor="start" x="585.3" y="-367.8" font-family="Courier,monospace" font-size="9.00">logged_on/2</text>
<text text-anchor="start" x="684.8" y="-367.8" font-family="Courier,monospace" font-size="9.00"> </text>
<text text-anchor="start" x="536.8" y="-358.8" font-family="Courier,monospace" font-size="9.00"> </text>
<text text-anchor="start" x="566.39" y="-358.8" font-family="Courier,monospace" font-size="9.00">ensure_logged_on/1</text>
<text text-anchor="start" x="684.8" y="-358.8" font-family="Courier,monospace" font-size="9.00"> </text>
<text text-anchor="start" x="536.8" y="-349.8" font-family="Courier,monospace" font-size="9.00"> </text>
<text text-anchor="start" x="596.1" y="-349.8" font-family="Courier,monospace" font-size="9.00">login/1</text>
<text text-anchor="start" x="684.8" y="-349.8" font-family="Courier,monospace" font-size="9.00"> </text>
<text text-anchor="start" x="536.8" y="-340.8" font-family="Courier,monospace" font-size="9.00"> </text>
<text text-anchor="start" x="596.1" y="-340.8" font-family="Courier,monospace" font-size="9.00">login/2</text>
<text text-anchor="start" x="684.8" y="-340.8" font-family="Courier,monospace" font-size="9.00"> </text>
<text text-anchor="start" x="536.8" y="-331.8" font-family="Courier,monospace" font-size="9.00"> </text>
<text text-anchor="start" x="574.49" y="-331.8" font-family="Courier,monospace" font-size="9.00">password_hash/2</text>
<text text-anchor="start" x="684.8" y="-331.8" font-family="Courier,monospace" font-size="9.00"> </text>
<text text-anchor="start" x="536.8" y="-322.8" font-family="Courier,monospace" font-size="9.00"> </text>
<text text-anchor="start" x="563.69" y="-322.8" font-family="Courier,monospace" font-size="9.00">validate_password/2</text>
<text text-anchor="start" x="684.8" y="-322.8" font-family="Courier,monospace" font-size="9.00"> </text>
<text text-anchor="start" x="536.8" y="-313.8" font-family="Courier,monospace" font-size="9.00"> </text>
<text text-anchor="start" x="566.39" y="-313.8" font-family="Courier,monospace" font-size="9.00">check_permission/2</text>
<text text-anchor="start" x="684.8" y="-313.8" font-family="Courier,monospace" font-size="9.00"> </text>
<text text-anchor="start" x="536.8" y="-304.8" font-family="Courier,monospace" font-size="9.00"> </text>
<text text-anchor="start" x="574.49" y="-304.8" font-family="Courier,monospace" font-size="9.00">user_property/2</text>
<text text-anchor="start" x="684.8" y="-304.8" font-family="Courier,monospace" font-size="9.00"> </text>
<text text-anchor="start" x="536.8" y="-295.8" font-family="Courier,monospace" font-size="9.00"> </text>
<text text-anchor="start" x="544.79" y="-295.8" font-family="Courier,monospace" font-size="9.00">openid_server_properties/2</text>
<text text-anchor="start" x="684.8" y="-295.8" font-family="Courier,monospace" font-size="9.00"> </text>
<text text-anchor="start" x="536.8" y="-286.8" font-family="Courier,monospace" font-size="9.00"> </text>
<text text-anchor="start" x="563.69" y="-286.8" font-family="Courier,monospace" font-size="9.00">openid_del_server/1</text>
<text text-anchor="start" x="684.8" y="-286.8" font-family="Courier,monospace" font-size="9.00"> </text>
<text text-anchor="start" x="536.8" y="-277.8" font-family="Courier,monospace" font-size="9.00"> </text>
<text text-anchor="start" x="550.19" y="-277.8" font-family="Courier,monospace" font-size="9.00">openid_server_property/2</text>
<text text-anchor="start" x="684.8" y="-277.8" font-family="Courier,monospace" font-size="9.00"> </text>
<text text-anchor="start" x="536.8" y="-268.8" font-family="Courier,monospace" font-size="9.00"> </text>
<text text-anchor="start" x="552.89" y="-268.8" font-family="Courier,monospace" font-size="9.00">openid_current_server/1</text>
<text text-anchor="start" x="684.8" y="-268.8" font-family="Courier,monospace" font-size="9.00"> </text>
<text text-anchor="start" x="536.8" y="-259.8" font-family="Courier,monospace" font-size="9.00"> </text>
<text text-anchor="start" x="558.29" y="-259.8" font-family="Courier,monospace" font-size="9.00">openid_set_property/2</text>
<text text-anchor="start" x="684.8" y="-259.8" font-family="Courier,monospace" font-size="9.00"> </text>
<text text-anchor="start" x="536.8" y="-250.8" font-family="Courier,monospace" font-size="9.00"> </text>
<text text-anchor="start" x="563.69" y="-250.8" font-family="Courier,monospace" font-size="9.00">openid_add_server/2</text>
<text text-anchor="start" x="684.8" y="-250.8" font-family="Courier,monospace" font-size="9.00"> </text>
<text text-anchor="start" x="536.8" y="-241.8" font-family="Courier,monospace" font-size="9.00"> </text>
<text text-anchor="start" x="588" y="-241.8" font-family="Courier,monospace" font-size="9.00">user_del/1</text>
<text text-anchor="start" x="684.8" y="-241.8" font-family="Courier,monospace" font-size="9.00"> </text>
<text text-anchor="start" x="536.8" y="-232.8" font-family="Courier,monospace" font-size="9.00"> </text>
<text text-anchor="start" x="563.69" y="-232.8" font-family="Courier,monospace" font-size="9.00">set_user_property/2</text>
<text text-anchor="start" x="684.8" y="-232.8" font-family="Courier,monospace" font-size="9.00"> </text>
<text text-anchor="start" x="536.8" y="-223.8" font-family="Courier,monospace" font-size="9.00"> </text>
<text text-anchor="start" x="588" y="-223.8" font-family="Courier,monospace" font-size="9.00">user_add/2</text>
<text text-anchor="start" x="684.8" y="-223.8" font-family="Courier,monospace" font-size="9.00"> </text>
<text text-anchor="start" x="536.8" y="-214.8" font-family="Courier,monospace" font-size="9.00"> </text>
<text text-anchor="start" x="593.4" y="-214.8" font-family="Courier,monospace" font-size="9.00">logout/1</text>
<text text-anchor="start" x="684.8" y="-214.8" font-family="Courier,monospace" font-size="9.00"> </text>
<text text-anchor="start" x="536.8" y="-205.8" font-family="Courier,monospace" font-size="9.00"> </text>
<text text-anchor="start" x="563.69" y="-205.8" font-family="Courier,monospace" font-size="9.00">set_user_database/1</text>
<text text-anchor="start" x="684.8" y="-205.8" font-family="Courier,monospace" font-size="9.00"> </text>
<text text-anchor="start" x="536.8" y="-196.8" font-family="Courier,monospace" font-size="9.00"> </text>
<text text-anchor="start" x="550.19" y="-196.8" font-family="Courier,monospace" font-size="9.00">persistency:persistent/3</text>
<text text-anchor="start" x="684.8" y="-196.8" font-family="Courier,monospace" font-size="9.00"> </text>
</a>
</g>
</g>
<!-- persistency -->
<g id="node2" class="node">
<title>persistency</title>
<g id="a_node2"><a xlink:title="module">
<polygon fill="gainsboro" stroke="black" stroke-dasharray="5,2" points="126,-92 40,-92 40,-96 28,-96 28,-56 126,-56 126,-92"/>
<polyline fill="none" stroke="black" stroke-dasharray="5,2" points="28,-92 40,-92 "/>
<text text-anchor="start" x="35.8" y="-75.8" font-family="Courier,monospace" font-size="9.00"> </text>
<text text-anchor="start" x="40.69" y="-75.2" font-family="Courier,monospace" font-size="11.00">persistency</text>
<text text-anchor="start" x="112.8" y="-75.8" font-family="Courier,monospace" font-size="9.00"> </text>
<text text-anchor="start" x="35.8" y="-65.8" font-family="Courier,monospace" font-size="9.00"> </text>
<text text-anchor="start" x="64.4" y="-66.4" font-family="Courier,monospace" font-size="7.00">module</text>
<text text-anchor="start" x="112.8" y="-65.8" font-family="Courier,monospace" font-size="9.00"> </text>
</a>
</g>
</g>
<!-- user_db&#45;&gt;persistency -->
<g id="edge1" class="edge">
<title>user_db&#45;&gt;persistency</title>
<path fill="none" stroke="black" d="M525.8,-288.02C439.79,-253.68 304.2,-198.35 188.79,-146 164.97,-135.2 158.23,-133.77 136,-120 125.58,-113.55 114.76,-105.67 105.27,-98.33"/>
<polygon fill="black" stroke="black" points="99.49,-89.31 105.17,-98.25 95.15,-94.81 99.49,-89.31"/>
<g id="a_edge1&#45;label"><a xlink:title="provides">
<text text-anchor="middle" x="209.6" y="-138.8" font-family="Courier,monospace" font-size="9.00">provides</text>
</a>
</g>
</g>
<!-- error -->
<g id="node3" class="node">
<title>error</title>
<g id="a_node3"><a xlink:title="module">
<polygon fill="gainsboro" stroke="black" stroke-dasharray="5,2" points="203.5,-92 156.5,-92 156.5,-96 144.5,-96 144.5,-56 203.5,-56 203.5,-92"/>
<polyline fill="none" stroke="black" stroke-dasharray="5,2" points="144.5,-92 156.5,-92 "/>
<text text-anchor="start" x="152.8" y="-75.8" font-family="Courier,monospace" font-size="9.00"> </text>
<text text-anchor="start" x="158" y="-75.2" font-family="Courier,monospace" font-size="11.00">error</text>
<text text-anchor="start" x="190.8" y="-75.8" font-family="Courier,monospace" font-size="9.00"> </text>
<text text-anchor="start" x="152.8" y="-65.8" font-family="Courier,monospace" font-size="9.00"> </text>
<text text-anchor="start" x="161.9" y="-66.4" font-family="Courier,monospace" font-size="7.00">module</text>
<text text-anchor="start" x="190.8" y="-65.8" font-family="Courier,monospace" font-size="9.00"> </text>
</a>
</g>
</g>
<!-- user_db&#45;&gt;error -->
<g id="edge2" class="edge">
<title>user_db&#45;&gt;error</title>
<path fill="none" stroke="black" d="M525.96,-283.87C451.97,-250.16 343.08,-198.33 251.99,-146 233.93,-135.63 228.63,-133.77 213,-120 206.79,-114.53 200.65,-108.08 195.14,-101.79"/>
<polygon fill="black" stroke="black" points="194.82,-101.41 187.89,-99.39 187.09,-92.23 194.82,-101.41"/>
<g id="a_edge2&#45;label"><a xlink:title="use_module">
<text text-anchor="middle" x="278" y="-138.8" font-family="Courier,monospace" font-size="9.00">use_module</text>
</a>
</g>
</g>
<!-- lists -->
<g id="node4" class="node">
<title>lists</title>
<g id="a_node4"><a xlink:title="module">
<polygon fill="gainsboro" stroke="black" stroke-dasharray="5,2" points="280.5,-92 233.5,-92 233.5,-96 221.5,-96 221.5,-56 280.5,-56 280.5,-92"/>
<polyline fill="none" stroke="black" stroke-dasharray="5,2" points="221.5,-92 233.5,-92 "/>
<text text-anchor="start" x="229.8" y="-75.8" font-family="Courier,monospace" font-size="9.00"> </text>
<text text-anchor="start" x="235" y="-75.2" font-family="Courier,monospace" font-size="11.00">lists</text>
<text text-anchor="start" x="267.8" y="-75.8" font-family="Courier,monospace" font-size="9.00"> </text>
<text text-anchor="start" x="229.8" y="-65.8" font-family="Courier,monospace" font-size="9.00"> </text>
<text text-anchor="start" x="238.9" y="-66.4" font-family="Courier,monospace" font-size="7.00">module</text>
<text text-anchor="start" x="267.8" y="-65.8" font-family="Courier,monospace" font-size="9.00"> </text>
</a>
</g>
</g>
<!-- user_db&#45;&gt;lists -->
<g id="edge3" class="edge">
<title>user_db&#45;&gt;lists</title>
<path fill="none" stroke="black" d="M525.88,-273.22C467.49,-239.27 389.21,-192.01 322.99,-146 307.66,-135.35 303.51,-132.89 290,-120 284.11,-114.38 278.15,-107.96 272.73,-101.76"/>
<polygon fill="black" stroke="black" points="272.5,-101.49 265.57,-99.52 264.73,-92.35 272.5,-101.49"/>
<g id="a_edge3&#45;label"><a xlink:title="use_module">
<text text-anchor="middle" x="349" y="-138.8" font-family="Courier,monospace" font-size="9.00">use_module</text>
</a>
</g>
</g>
<!-- uri -->
<g id="node5" class="node">
<title>uri</title>
<g id="a_node5"><a xlink:title="module">
<polygon fill="gainsboro" stroke="black" stroke-dasharray="5,2" points="353,-92 311,-92 311,-96 299,-96 299,-56 353,-56 353,-92"/>
<polyline fill="none" stroke="black" stroke-dasharray="5,2" points="299,-92 311,-92 "/>
<text text-anchor="start" x="308.8" y="-75.8" font-family="Courier,monospace" font-size="9.00"> </text>
<text text-anchor="start" x="316.6" y="-75.2" font-family="Courier,monospace" font-size="11.00">uri</text>
<text text-anchor="start" x="338.8" y="-75.8" font-family="Courier,monospace" font-size="9.00"> </text>
<text text-anchor="start" x="308.8" y="-65.8" font-family="Courier,monospace" font-size="9.00"> </text>
<text text-anchor="start" x="313.9" y="-66.4" font-family="Courier,monospace" font-size="7.00">module</text>
<text text-anchor="start" x="338.8" y="-65.8" font-family="Courier,monospace" font-size="9.00"> </text>
</a>
</g>
</g>
<!-- user_db&#45;&gt;uri -->
<g id="edge4" class="edge">
<title>user_db&#45;&gt;uri</title>
<path fill="none" stroke="black" d="M525.99,-259.11C476.28,-221.11 413.75,-170.41 363,-120 357.35,-114.39 351.67,-107.97 346.52,-101.77"/>
<polygon fill="black" stroke="black" points="346.47,-101.71 339.59,-99.55 338.94,-92.36 346.47,-101.71"/>
<g id="a_edge4&#45;label"><a xlink:title="use_module">
<text text-anchor="middle" x="415" y="-138.8" font-family="Courier,monospace" font-size="9.00">use_module</text>
</a>
</g>
</g>
<!-- http_session -->
<g id="node6" class="node">
<title>http_session</title>
<g id="a_node6"><a xlink:title="module">
<polygon fill="gainsboro" stroke="black" stroke-dasharray="5,2" points="476.5,-92 383.5,-92 383.5,-96 371.5,-96 371.5,-56 476.5,-56 476.5,-92"/>
<polyline fill="none" stroke="black" stroke-dasharray="5,2" points="371.5,-92 383.5,-92 "/>
<text text-anchor="start" x="379.8" y="-75.8" font-family="Courier,monospace" font-size="9.00"> </text>
<text text-anchor="start" x="384.89" y="-75.2" font-family="Courier,monospace" font-size="11.00">http_session</text>
<text text-anchor="start" x="463.8" y="-75.8" font-family="Courier,monospace" font-size="9.00"> </text>
<text text-anchor="start" x="379.8" y="-65.8" font-family="Courier,monospace" font-size="9.00"> </text>
<text text-anchor="start" x="411.9" y="-66.4" font-family="Courier,monospace" font-size="7.00">module</text>
<text text-anchor="start" x="463.8" y="-65.8" font-family="Courier,monospace" font-size="9.00"> </text>
</a>
</g>
</g>
<!-- user_db&#45;&gt;http_session -->
<g id="edge5" class="edge">
<title>user_db&#45;&gt;http_session</title>
<path fill="none" stroke="black" d="M525.98,-208.98C495.73,-169.24 464.36,-128.03 444.55,-101.99"/>
<polygon fill="black" stroke="black" points="444.31,-101.69 437.5,-99.34 437.05,-92.14 444.31,-101.69"/>
<g id="a_edge5&#45;label"><a xlink:title="use_module">
<text text-anchor="middle" x="501" y="-138.8" font-family="Courier,monospace" font-size="9.00">use_module</text>
</a>
</g>
</g>
<!-- http_openid -->
<g id="node7" class="node">
<title>http_openid</title>
<g id="a_node7"><a xlink:title="module">
<polygon fill="gainsboro" stroke="black" stroke-dasharray="5,2" points="593,-92 507,-92 507,-96 495,-96 495,-56 593,-56 593,-92"/>
<polyline fill="none" stroke="black" stroke-dasharray="5,2" points="495,-92 507,-92 "/>
<text text-anchor="start" x="502.8" y="-75.8" font-family="Courier,monospace" font-size="9.00"> </text>
<text text-anchor="start" x="507.69" y="-75.2" font-family="Courier,monospace" font-size="11.00">http_openid</text>
<text text-anchor="start" x="579.8" y="-75.8" font-family="Courier,monospace" font-size="9.00"> </text>
<text text-anchor="start" x="502.8" y="-65.8" font-family="Courier,monospace" font-size="9.00"> </text>
<text text-anchor="start" x="531.4" y="-66.4" font-family="Courier,monospace" font-size="7.00">module</text>
<text text-anchor="start" x="579.8" y="-65.8" font-family="Courier,monospace" font-size="9.00"> </text>
</a>
</g>
</g>
<!-- user_db&#45;&gt;http_openid -->
<g id="edge6" class="edge">
<title>user_db&#45;&gt;http_openid</title>
<path fill="none" stroke="black" d="M575.91,-190.91C566.87,-158.09 558.04,-125.99 551.96,-103.92"/>
<polygon fill="black" stroke="black" points="551.91,-103.73 546.46,-99.01 548.72,-92.16 551.91,-103.73"/>
<g id="a_edge6&#45;label"><a xlink:title="use_module">
<text text-anchor="middle" x="589" y="-138.8" font-family="Courier,monospace" font-size="9.00">use_module</text>
</a>
</g>
</g>
<!-- cliopatria_openid -->
<g id="node8" class="node">
<title>cliopatria_openid</title>
<g id="a_node8"><a xlink:title="module">
<polygon fill="gainsboro" stroke="black" stroke-dasharray="5,2" points="749,-92 623,-92 623,-96 611,-96 611,-56 749,-56 749,-92"/>
<polyline fill="none" stroke="black" stroke-dasharray="5,2" points="611,-92 623,-92 "/>
<text text-anchor="start" x="618.8" y="-75.8" font-family="Courier,monospace" font-size="9.00"> </text>
<text text-anchor="start" x="623.89" y="-75.2" font-family="Courier,monospace" font-size="11.00">cliopatria_openid</text>
<text text-anchor="start" x="735.8" y="-75.8" font-family="Courier,monospace" font-size="9.00"> </text>
<text text-anchor="start" x="618.8" y="-65.8" font-family="Courier,monospace" font-size="9.00"> </text>
<text text-anchor="start" x="667.4" y="-66.4" font-family="Courier,monospace" font-size="7.00">module</text>
<text text-anchor="start" x="735.8" y="-65.8" font-family="Courier,monospace" font-size="9.00"> </text>
</a>
</g>
</g>
<!-- user_db&#45;&gt;cliopatria_openid -->
<g id="edge7" class="edge">
<title>user_db&#45;&gt;cliopatria_openid</title>
<path fill="none" stroke="black" d="M648.09,-190.91C657.13,-158.09 665.96,-125.99 672.04,-103.92"/>
<polygon fill="black" stroke="black" points="672.09,-103.73 669.83,-96.88 675.28,-92.16 672.09,-103.73"/>
<g id="a_edge7&#45;label"><a xlink:title="use_module">
<text text-anchor="middle" x="688" y="-138.8" font-family="Courier,monospace" font-size="9.00">use_module</text>
</a>
</g>
</g>
<!-- crypt -->
<g id="node9" class="node">
<title>crypt</title>
<g id="a_node9"><a xlink:title="module">
<polygon fill="gainsboro" stroke="black" stroke-dasharray="5,2" points="826.5,-92 779.5,-92 779.5,-96 767.5,-96 767.5,-56 826.5,-56 826.5,-92"/>
<polyline fill="none" stroke="black" stroke-dasharray="5,2" points="767.5,-92 779.5,-92 "/>
<text text-anchor="start" x="775.8" y="-75.8" font-family="Courier,monospace" font-size="9.00"> </text>
<text text-anchor="start" x="781" y="-75.2" font-family="Courier,monospace" font-size="11.00">crypt</text>
<text text-anchor="start" x="813.8" y="-75.8" font-family="Courier,monospace" font-size="9.00"> </text>
<text text-anchor="start" x="775.8" y="-65.8" font-family="Courier,monospace" font-size="9.00"> </text>
<text text-anchor="start" x="784.9" y="-66.4" font-family="Courier,monospace" font-size="7.00">module</text>
<text text-anchor="start" x="813.8" y="-65.8" font-family="Courier,monospace" font-size="9.00"> </text>
</a>
</g>
</g>
<!-- user_db&#45;&gt;crypt -->
<g id="edge8" class="edge">
<title>user_db&#45;&gt;crypt</title>
<path fill="none" stroke="black" d="M698,-207.18C727.36,-167.98 757.59,-127.61 776.8,-101.97"/>
<polygon fill="black" stroke="black" points="776.88,-101.86 777.28,-94.66 784.08,-92.25 776.88,-101.86"/>
<g id="a_edge8&#45;label"><a xlink:title="use_module">
<text text-anchor="middle" x="774" y="-138.8" font-family="Courier,monospace" font-size="9.00">use_module</text>
</a>
</g>
</g>
<!-- httpd_wrapper -->
<g id="node10" class="node">
<title>httpd_wrapper</title>
<g id="a_node10"><a xlink:title="module">
<polygon fill="gainsboro" stroke="black" stroke-dasharray="5,2" points="955.5,-92 856.5,-92 856.5,-96 844.5,-96 844.5,-56 955.5,-56 955.5,-92"/>
<polyline fill="none" stroke="black" stroke-dasharray="5,2" points="844.5,-92 856.5,-92 "/>
<text text-anchor="start" x="852.8" y="-75.8" font-family="Courier,monospace" font-size="9.00"> </text>
<text text-anchor="start" x="857.59" y="-75.2" font-family="Courier,monospace" font-size="11.00">httpd_wrapper</text>
<text text-anchor="start" x="942.8" y="-75.8" font-family="Courier,monospace" font-size="9.00"> </text>
<text text-anchor="start" x="852.8" y="-65.8" font-family="Courier,monospace" font-size="9.00"> </text>
<text text-anchor="start" x="887.9" y="-66.4" font-family="Courier,monospace" font-size="7.00">module</text>
<text text-anchor="start" x="942.8" y="-65.8" font-family="Courier,monospace" font-size="9.00"> </text>
</a>
</g>
</g>
<!-- user_db&#45;&gt;httpd_wrapper -->
<g id="edge9" class="edge">
<title>user_db&#45;&gt;httpd_wrapper</title>
<path fill="none" stroke="black" d="M698.02,-248.23C756.67,-197.93 830.72,-134.42 870.87,-99.98"/>
<polygon fill="black" stroke="black" points="870.98,-99.89 872.93,-92.95 880.09,-92.08 870.98,-99.89"/>
<g id="a_edge9&#45;label"><a xlink:title="use_module">
<text text-anchor="middle" x="849" y="-138.8" font-family="Courier,monospace" font-size="9.00">use_module</text>
</a>
</g>
</g>
<!-- authenticate -->
<g id="node11" class="node">
<title>authenticate</title>
<g id="a_node11"><a xlink:title="module">
<polygon fill="gainsboro" stroke="black" stroke-dasharray="5,2" points="1078.5,-92 985.5,-92 985.5,-96 973.5,-96 973.5,-56 1078.5,-56 1078.5,-92"/>
<polyline fill="none" stroke="black" stroke-dasharray="5,2" points="973.5,-92 985.5,-92 "/>
<text text-anchor="start" x="981.8" y="-75.8" font-family="Courier,monospace" font-size="9.00"> </text>
<text text-anchor="start" x="986.89" y="-75.2" font-family="Courier,monospace" font-size="11.00">authenticate</text>
<text text-anchor="start" x="1065.8" y="-75.8" font-family="Courier,monospace" font-size="9.00"> </text>
<text text-anchor="start" x="981.8" y="-65.8" font-family="Courier,monospace" font-size="9.00"> </text>
<text text-anchor="start" x="1013.9" y="-66.4" font-family="Courier,monospace" font-size="7.00">module</text>
<text text-anchor="start" x="1065.8" y="-65.8" font-family="Courier,monospace" font-size="9.00"> </text>
</a>
</g>
</g>
<!-- user_db&#45;&gt;authenticate -->
<g id="edge10" class="edge">
<title>user_db&#45;&gt;authenticate</title>
<path fill="none" stroke="black" d="M698.17,-276.33C770.68,-237.05 876.42,-177.74 965,-120 974.8,-113.61 985.14,-106.24 994.47,-99.33"/>
<polygon fill="black" stroke="black" points="994.53,-99.29 996.93,-92.49 1004.13,-92.09 994.53,-99.29"/>
<g id="a_edge10&#45;label"><a xlink:title="use_module">
<text text-anchor="middle" x="964" y="-138.8" font-family="Courier,monospace" font-size="9.00">use_module</text>
</a>
</g>
</g>
<!-- broadcast -->
<g id="node12" class="node">
<title>broadcast</title>
<g id="a_node12"><a xlink:title="module">
<polygon fill="gainsboro" stroke="black" stroke-dasharray="5,2" points="1181.5,-92 1108.5,-92 1108.5,-96 1096.5,-96 1096.5,-56 1181.5,-56 1181.5,-92"/>
<polyline fill="none" stroke="black" stroke-dasharray="5,2" points="1096.5,-92 1108.5,-92 "/>
<text text-anchor="start" x="1104.8" y="-75.8" font-family="Courier,monospace" font-size="9.00"> </text>
<text text-anchor="start" x="1109.8" y="-75.2" font-family="Courier,monospace" font-size="11.00">broadcast</text>
<text text-anchor="start" x="1168.8" y="-75.8" font-family="Courier,monospace" font-size="9.00"> </text>
<text text-anchor="start" x="1104.8" y="-65.8" font-family="Courier,monospace" font-size="9.00"> </text>
<text text-anchor="start" x="1126.9" y="-66.4" font-family="Courier,monospace" font-size="7.00">module</text>
<text text-anchor="start" x="1168.8" y="-65.8" font-family="Courier,monospace" font-size="9.00"> </text>
</a>
</g>
</g>
<!-- user_db&#45;&gt;broadcast -->
<g id="edge11" class="edge">
<title>user_db&#45;&gt;broadcast</title>
<path fill="none" stroke="black" d="M698.16,-294.86C796.75,-261.71 960.96,-200.03 1088,-120 1096.81,-114.45 1105.6,-107.39 1113.34,-100.51"/>
<polygon fill="black" stroke="black" points="1113.37,-100.48 1115.07,-93.47 1122.19,-92.33 1113.37,-100.48"/>
<g id="a_edge11&#45;label"><a xlink:title="use_module">
<text text-anchor="middle" x="1079" y="-138.8" font-family="Courier,monospace" font-size="9.00">use_module</text>
</a>
</g>
</g>
<!-- prolog_debug -->
<g id="node13" class="node">
<title>prolog_debug</title>
<g id="a_node13"><a xlink:title="module">
<polygon fill="gainsboro" stroke="black" stroke-dasharray="5,2" points="1304.5,-92 1211.5,-92 1211.5,-96 1199.5,-96 1199.5,-56 1304.5,-56 1304.5,-92"/>
<polyline fill="none" stroke="black" stroke-dasharray="5,2" points="1199.5,-92 1211.5,-92 "/>
<text text-anchor="start" x="1207.8" y="-75.8" font-family="Courier,monospace" font-size="9.00"> </text>
<text text-anchor="start" x="1212.89" y="-75.2" font-family="Courier,monospace" font-size="11.00">prolog_debug</text>
<text text-anchor="start" x="1291.8" y="-75.8" font-family="Courier,monospace" font-size="9.00"> </text>
<text text-anchor="start" x="1207.8" y="-65.8" font-family="Courier,monospace" font-size="9.00"> </text>
<text text-anchor="start" x="1239.9" y="-66.4" font-family="Courier,monospace" font-size="7.00">module</text>
<text text-anchor="start" x="1291.8" y="-65.8" font-family="Courier,monospace" font-size="9.00"> </text>
</a>
</g>
</g>
<!-- user_db&#45;&gt;prolog_debug -->
<g id="edge12" class="edge">
<title>user_db&#45;&gt;prolog_debug</title>
<path fill="none" stroke="black" d="M698.24,-300.64C814.36,-269.96 1025.53,-207.34 1191,-120 1201.88,-114.26 1212.96,-106.7 1222.63,-99.43"/>
<polygon fill="black" stroke="black" points="1222.66,-99.41 1224.94,-92.57 1232.13,-92.04 1222.66,-99.41"/>
<g id="a_edge12&#45;label"><a xlink:title="use_module">
<text text-anchor="middle" x="1173" y="-138.8" font-family="Courier,monospace" font-size="9.00">use_module</text>
</a>
</g>
</g>
</g>
</svg>
