<?xml version="1.0" encoding="UTF-8" standalone="no"?>
<!DOCTYPE svg PUBLIC "-//W3C//DTD SVG 1.1//EN"
 "http://www.w3.org/Graphics/SVG/1.1/DTD/svg11.dtd">
<!-- Generated by graphviz version 2.41.20190410.0829 (20190410.0829)
 -->
<!-- Title: version.pl Pages: 1 -->
<svg width="610pt" height="481pt"
 viewBox="72.00 72.00 538.00 409.00" xmlns="http://www.w3.org/2000/svg" xmlns:xlink="http://www.w3.org/1999/xlink">
<g id="graph0" class="graph" transform="scale(1 1) rotate(0) translate(76 405)">
<title>version.pl</title>
<polygon fill="white" stroke="transparent" points="-4,4 -4,-333 462,-333 462,4 -4,4"/>
<text text-anchor="start" x="8" y="-16" font-family="Courier,monospace" font-size="10.00" fill="#8b8989">ClioPatria &#45; an RDF application platform</text>
<text text-anchor="start" x="8" y="-6" font-family="Courier,monospace" font-size="10.00" fill="#8b8989">Generated on 2019/04/17, 13:04</text>
<g id="clust1" class="cluster">
<title>cluster_file_/Users/pmoura/ClioPatria/lib/version.pl</title>
<g id="a_clust1"><a xlink:href="https://github.com/ClioPatria/ClioPatria/tree/add57aa2039eed4033cf96e96c293b2052e88f41/lib/version.pl" xlink:title="https://github.com/ClioPatria/ClioPatria/tree/add57aa2039eed4033cf96e96c293b2052e88f41/lib/version.pl">
<path fill="snow" stroke="#8b8989" d="M20,-36C20,-36 438,-36 438,-36 444,-36 450,-42 450,-48 450,-48 450,-309 450,-309 450,-315 444,-321 438,-321 438,-321 20,-321 20,-321 14,-321 8,-315 8,-309 8,-309 8,-48 8,-48 8,-42 14,-36 20,-36"/>
<text text-anchor="middle" x="46" y="-309" font-family="Courier,monospace" font-size="10.00" fill="#8b8989">version.pl</text>
</a>
</g>
</g>
<g id="clust2" class="cluster">
<title>cluster_other</title>
<g id="a_clust2"><a xlink:title="(external entities)">
<path fill="white" stroke="#8b8989" d="M30,-46C30,-46 292,-46 292,-46 298,-46 304,-52 304,-58 304,-58 304,-108 304,-108 304,-114 298,-120 292,-120 292,-120 30,-120 30,-120 24,-120 18,-114 18,-108 18,-108 18,-58 18,-58 18,-52 24,-46 30,-46"/>
<text text-anchor="middle" x="83.01" y="-108" font-family="Courier,monospace" font-size="10.00" fill="#8b8989">(external entities)</text>
</a>
</g>
</g>
<!-- prolog_version -->
<g id="node1" class="node">
<title>prolog_version</title>
<g id="a_node1"><a xlink:title="module">
<polygon fill="gainsboro" stroke="black" points="329,-293 191,-293 191,-297 179,-297 179,-191 329,-191 329,-293"/>
<polyline fill="none" stroke="black" points="179,-293 191,-293 "/>
<g id="a_node1_0"><a xlink:href="prolog_version_module_xref_diagram.svg" xlink:title="Zoom">
<image xlink:href="zoom.png" width="11px" height="11px" preserveAspectRatio="xMinYMin meet" x="187" y="-289"/>
</a>
</g>
<text text-anchor="start" x="189.8" y="-269.8" font-family="Courier,monospace" font-size="9.00"> </text>
<text text-anchor="start" x="210.79" y="-269.2" font-family="Courier,monospace" font-size="11.00">prolog_version</text>
<text text-anchor="start" x="315.8" y="-269.8" font-family="Courier,monospace" font-size="9.00"> </text>
<text text-anchor="start" x="189.8" y="-259.8" font-family="Courier,monospace" font-size="9.00"> </text>
<text text-anchor="start" x="244.4" y="-260.4" font-family="Courier,monospace" font-size="7.00">module</text>
<text text-anchor="start" x="315.8" y="-259.8" font-family="Courier,monospace" font-size="9.00"> </text>
<text text-anchor="start" x="189.8" y="-250.8" font-family="Courier,monospace" font-size="9.00"> </text>
<text text-anchor="start" x="189.8" y="-241.8" font-family="Courier,monospace" font-size="9.00"> </text>
<text text-anchor="start" x="200.29" y="-241.8" font-family="Courier,monospace" font-size="9.00">git_update_versions/1</text>
<text text-anchor="start" x="315.8" y="-241.8" font-family="Courier,monospace" font-size="9.00"> </text>
<text text-anchor="start" x="189.8" y="-232.8" font-family="Courier,monospace" font-size="9.00"> </text>
<text text-anchor="start" x="200.29" y="-232.8" font-family="Courier,monospace" font-size="9.00">git_module_property/2</text>
<text text-anchor="start" x="315.8" y="-232.8" font-family="Courier,monospace" font-size="9.00"> </text>
<text text-anchor="start" x="189.8" y="-223.8" font-family="Courier,monospace" font-size="9.00"> </text>
<text text-anchor="start" x="197.59" y="-223.8" font-family="Courier,monospace" font-size="9.00">check_prolog_version/1</text>
<text text-anchor="start" x="315.8" y="-223.8" font-family="Courier,monospace" font-size="9.00"> </text>
<text text-anchor="start" x="189.8" y="-214.8" font-family="Courier,monospace" font-size="9.00"> </text>
<text text-anchor="start" x="200.29" y="-214.8" font-family="Courier,monospace" font-size="9.00">register_git_module/2</text>
<text text-anchor="start" x="315.8" y="-214.8" font-family="Courier,monospace" font-size="9.00"> </text>
<text text-anchor="start" x="189.8" y="-205.8" font-family="Courier,monospace" font-size="9.00"> </text>
<text text-anchor="start" x="213.79" y="-205.8" font-family="Courier,monospace" font-size="9.00">prolog:message/3</text>
<text text-anchor="start" x="315.8" y="-205.8" font-family="Courier,monospace" font-size="9.00"> </text>
<text text-anchor="start" x="189.8" y="-196.8" font-family="Courier,monospace" font-size="9.00"> </text>
<text text-anchor="start" x="205.69" y="-196.8" font-family="Courier,monospace" font-size="9.00">user:message_hook/3</text>
<text text-anchor="start" x="315.8" y="-196.8" font-family="Courier,monospace" font-size="9.00"> </text>
</a>
</g>
</g>
<!-- swi_option -->
<g id="node2" class="node">
<title>swi_option</title>
<g id="a_node2"><a xlink:title="module">
<polygon fill="gainsboro" stroke="black" stroke-dasharray="5,2" points="120,-92 40,-92 40,-96 28,-96 28,-56 120,-56 120,-92"/>
<polyline fill="none" stroke="black" stroke-dasharray="5,2" points="28,-92 40,-92 "/>
<text text-anchor="start" x="35.8" y="-75.8" font-family="Courier,monospace" font-size="9.00"> </text>
<text text-anchor="start" x="40.99" y="-75.2" font-family="Courier,monospace" font-size="11.00">swi_option</text>
<text text-anchor="start" x="106.8" y="-75.8" font-family="Courier,monospace" font-size="9.00"> </text>
<text text-anchor="start" x="35.8" y="-65.8" font-family="Courier,monospace" font-size="9.00"> </text>
<text text-anchor="start" x="61.4" y="-66.4" font-family="Courier,monospace" font-size="7.00">module</text>
<text text-anchor="start" x="106.8" y="-65.8" font-family="Courier,monospace" font-size="9.00"> </text>
</a>
</g>
</g>
<!-- prolog_version&#45;&gt;swi_option -->
<g id="edge3" class="edge">
<title>prolog_version&#45;&gt;swi_option</title>
<path fill="none" stroke="black" d="M186.67,-190.85C169.28,-176.95 150.97,-161.42 134.99,-146 120.69,-132.2 106.13,-115.38 94.82,-101.58"/>
<polygon fill="black" stroke="black" points="94.75,-101.48 87.87,-99.32 87.22,-92.14 94.75,-101.48"/>
<g id="a_edge3&#45;label"><a xlink:title="use_module">
<text text-anchor="middle" x="161" y="-138.8" font-family="Courier,monospace" font-size="9.00">use_module</text>
</a>
</g>
</g>
<!-- clio_git -->
<g id="node3" class="node">
<title>clio_git</title>
<g id="a_node3"><a xlink:title="module">
<polygon fill="gainsboro" stroke="black" stroke-dasharray="5,2" points="216,-92 150,-92 150,-96 138,-96 138,-56 216,-56 216,-92"/>
<polyline fill="none" stroke="black" stroke-dasharray="5,2" points="138,-92 150,-92 "/>
<text text-anchor="start" x="145.8" y="-75.8" font-family="Courier,monospace" font-size="9.00"> </text>
<text text-anchor="start" x="150.6" y="-75.2" font-family="Courier,monospace" font-size="11.00">clio_git</text>
<text text-anchor="start" x="202.8" y="-75.8" font-family="Courier,monospace" font-size="9.00"> </text>
<text text-anchor="start" x="145.8" y="-65.8" font-family="Courier,monospace" font-size="9.00"> </text>
<text text-anchor="start" x="164.4" y="-66.4" font-family="Courier,monospace" font-size="7.00">module</text>
<text text-anchor="start" x="202.8" y="-65.8" font-family="Courier,monospace" font-size="9.00"> </text>
</a>
</g>
</g>
<!-- prolog_version&#45;&gt;clio_git -->
<g id="edge4" class="edge">
<title>prolog_version&#45;&gt;clio_git</title>
<path fill="none" stroke="black" d="M219.59,-190.68C211.03,-176.64 202.46,-161.1 195.99,-146 190.3,-132.72 185.93,-117.29 182.82,-104.22"/>
<polygon fill="black" stroke="black" points="182.73,-103.81 177.53,-98.82 180.13,-92.1 182.73,-103.81"/>
<g id="a_edge4&#45;label"><a xlink:title="use_module">
<text text-anchor="middle" x="222" y="-138.8" font-family="Courier,monospace" font-size="9.00">use_module</text>
</a>
</g>
</g>
<!-- lists -->
<g id="node4" class="node">
<title>lists</title>
<g id="a_node4"><a xlink:title="module">
<polygon fill="gainsboro" stroke="black" stroke-dasharray="5,2" points="293.5,-92 246.5,-92 246.5,-96 234.5,-96 234.5,-56 293.5,-56 293.5,-92"/>
<polyline fill="none" stroke="black" stroke-dasharray="5,2" points="234.5,-92 246.5,-92 "/>
<text text-anchor="start" x="242.8" y="-75.8" font-family="Courier,monospace" font-size="9.00"> </text>
<text text-anchor="start" x="248" y="-75.2" font-family="Courier,monospace" font-size="11.00">lists</text>
<text text-anchor="start" x="280.8" y="-75.8" font-family="Courier,monospace" font-size="9.00"> </text>
<text text-anchor="start" x="242.8" y="-65.8" font-family="Courier,monospace" font-size="9.00"> </text>
<text text-anchor="start" x="251.9" y="-66.4" font-family="Courier,monospace" font-size="7.00">module</text>
<text text-anchor="start" x="280.8" y="-65.8" font-family="Courier,monospace" font-size="9.00"> </text>
</a>
</g>
</g>
<!-- prolog_version&#45;&gt;lists -->
<g id="edge5" class="edge">
<title>prolog_version&#45;&gt;lists</title>
<path fill="none" stroke="black" d="M253.11,-190.95C253.17,-173.82 253.64,-154.55 254.99,-137 255.82,-126.25 257.36,-114.53 258.93,-104.2"/>
<polygon fill="black" stroke="black" points="258.98,-103.88 255.99,-97.32 260.89,-92.04 258.98,-103.88"/>
<g id="a_edge5&#45;label"><a xlink:title="use_module">
<text text-anchor="middle" x="281" y="-138.8" font-family="Courier,monospace" font-size="9.00">use_module</text>
</a>
</g>
</g>
<!-- prolog -->
<g id="node5" class="node">
<title>prolog</title>
<ellipse fill="white" stroke="black" cx="341" cy="-74" rx="27.41" ry="18"/>
<text text-anchor="middle" x="341" y="-71.3" font-family="Courier,monospace" font-size="9.00">prolog</text>
</g>
<!-- prolog_version&#45;&gt;prolog -->
<g id="edge1" class="edge">
<title>prolog_version&#45;&gt;prolog</title>
<path fill="none" stroke="black" d="M284.36,-190.74C292.65,-176.45 301.43,-160.75 309,-146 316.55,-131.29 324.19,-114.43 330.11,-100.83"/>
<polygon fill="black" stroke="black" points="337.31,-92.96 330.14,-100.76 330.88,-90.2 337.31,-92.96"/>
<g id="a_edge1&#45;label"><a xlink:title="provides">
<text text-anchor="middle" x="333.6" y="-138.8" font-family="Courier,monospace" font-size="9.00">provides</text>
</a>
</g>
</g>
<!-- user -->
<g id="node6" class="node">
<title>user</title>
<ellipse fill="white" stroke="black" cx="413" cy="-74" rx="27" ry="18"/>
<text text-anchor="middle" x="413" y="-71.3" font-family="Courier,monospace" font-size="9.00">user</text>
</g>
<!-- prolog_version&#45;&gt;user -->
<g id="edge2" class="edge">
<title>prolog_version&#45;&gt;user</title>
<path fill="none" stroke="black" d="M313.32,-190.82C328.74,-176.85 344.95,-161.3 359,-146 372.62,-131.17 386.33,-113.09 396.53,-98.89"/>
<polygon fill="black" stroke="black" points="405.25,-92.63 396.62,-98.77 399.54,-88.58 405.25,-92.63"/>
<g id="a_edge2&#45;label"><a xlink:title="provides">
<text text-anchor="middle" x="386.6" y="-138.8" font-family="Courier,monospace" font-size="9.00">provides</text>
</a>
</g>
</g>
</g>
</svg>
