<?xml version="1.0" encoding="UTF-8" standalone="no"?>
<!DOCTYPE svg PUBLIC "-//W3C//DTD SVG 1.1//EN"
 "http://www.w3.org/Graphics/SVG/1.1/DTD/svg11.dtd">
<!-- Generated by graphviz version 2.41.20190410.0829 (20190410.0829)
 -->
<!-- Title: void.pl Pages: 1 -->
<svg width="1029pt" height="418pt"
 viewBox="72.00 72.00 957.00 346.00" xmlns="http://www.w3.org/2000/svg" xmlns:xlink="http://www.w3.org/1999/xlink">
<g id="graph0" class="graph" transform="scale(1 1) rotate(0) translate(76 342)">
<title>void.pl</title>
<polygon fill="white" stroke="transparent" points="-4,4 -4,-270 881,-270 881,4 -4,4"/>
<text text-anchor="start" x="8" y="-16" font-family="Courier,monospace" font-size="10.00" fill="#8b8989">ClioPatria &#45; an RDF application platform</text>
<text text-anchor="start" x="8" y="-6" font-family="Courier,monospace" font-size="10.00" fill="#8b8989">Generated on 2019/04/17, 13:04</text>
<g id="clust1" class="cluster">
<title>cluster_file_/Users/pmoura/ClioPatria/api/void.pl</title>
<g id="a_clust1"><a xlink:href="https://github.com/ClioPatria/ClioPatria/tree/add57aa2039eed4033cf96e96c293b2052e88f41/api/void.pl" xlink:title="https://github.com/ClioPatria/ClioPatria/tree/add57aa2039eed4033cf96e96c293b2052e88f41/api/void.pl">
<path fill="snow" stroke="#8b8989" d="M20,-36C20,-36 857,-36 857,-36 863,-36 869,-42 869,-48 869,-48 869,-246 869,-246 869,-252 863,-258 857,-258 857,-258 20,-258 20,-258 14,-258 8,-252 8,-246 8,-246 8,-48 8,-48 8,-42 14,-36 20,-36"/>
<text text-anchor="middle" x="37" y="-246" font-family="Courier,monospace" font-size="10.00" fill="#8b8989">void.pl</text>
</a>
</g>
</g>
<g id="clust2" class="cluster">
<title>cluster_other</title>
<g id="a_clust2"><a xlink:title="(external entities)">
<path fill="white" stroke="#8b8989" d="M30,-46C30,-46 847,-46 847,-46 853,-46 859,-52 859,-58 859,-58 859,-108 859,-108 859,-114 853,-120 847,-120 847,-120 30,-120 30,-120 24,-120 18,-114 18,-108 18,-108 18,-58 18,-58 18,-52 24,-46 30,-46"/>
<text text-anchor="middle" x="83.01" y="-108" font-family="Courier,monospace" font-size="10.00" fill="#8b8989">(external entities)</text>
</a>
</g>
</g>
<!-- api_void -->
<g id="node1" class="node">
<title>api_void</title>
<g id="a_node1"><a xlink:title="module">
<polygon fill="gainsboro" stroke="black" points="498,-230 426,-230 426,-234 414,-234 414,-191 498,-191 498,-230"/>
<polyline fill="none" stroke="black" points="414,-230 426,-230 "/>
<g id="a_node1_0"><a xlink:href="api_void_module_xref_diagram.svg" xlink:title="Zoom">
<image xlink:href="zoom.png" width="11px" height="11px" preserveAspectRatio="xMinYMin meet" x="422" y="-225.5"/>
</a>
</g>
<text text-anchor="start" x="424.8" y="-206.3" font-family="Courier,monospace" font-size="9.00"> </text>
<text text-anchor="start" x="432.6" y="-205.7" font-family="Courier,monospace" font-size="11.00">api_void</text>
<text text-anchor="start" x="484.8" y="-206.3" font-family="Courier,monospace" font-size="9.00"> </text>
<text text-anchor="start" x="424.8" y="-196.3" font-family="Courier,monospace" font-size="9.00"> </text>
<text text-anchor="start" x="446.4" y="-196.9" font-family="Courier,monospace" font-size="7.00">module</text>
<text text-anchor="start" x="484.8" y="-196.3" font-family="Courier,monospace" font-size="9.00"> </text>
</a>
</g>
</g>
<!-- settings -->
<g id="node2" class="node">
<title>settings</title>
<g id="a_node2"><a xlink:title="module">
<polygon fill="gainsboro" stroke="black" stroke-dasharray="5,2" points="106,-92 40,-92 40,-96 28,-96 28,-56 106,-56 106,-92"/>
<polyline fill="none" stroke="black" stroke-dasharray="5,2" points="28,-92 40,-92 "/>
<text text-anchor="start" x="35.8" y="-75.8" font-family="Courier,monospace" font-size="9.00"> </text>
<text text-anchor="start" x="40.6" y="-75.2" font-family="Courier,monospace" font-size="11.00">settings</text>
<text text-anchor="start" x="92.8" y="-75.8" font-family="Courier,monospace" font-size="9.00"> </text>
<text text-anchor="start" x="35.8" y="-65.8" font-family="Courier,monospace" font-size="9.00"> </text>
<text text-anchor="start" x="54.4" y="-66.4" font-family="Courier,monospace" font-size="7.00">module</text>
<text text-anchor="start" x="92.8" y="-65.8" font-family="Courier,monospace" font-size="9.00"> </text>
</a>
</g>
</g>
<!-- api_void&#45;&gt;settings -->
<g id="edge1" class="edge">
<title>api_void&#45;&gt;settings</title>
<path fill="none" stroke="black" d="M413.83,-205.02C347.08,-196.53 214.56,-173.86 116,-120 106.78,-114.96 97.92,-107.82 90.33,-100.7"/>
<polygon fill="black" stroke="black" points="90.28,-100.65 83.2,-99.25 81.77,-92.18 90.28,-100.65"/>
<g id="a_edge1&#45;label"><a xlink:title="use_module">
<text text-anchor="middle" x="194" y="-138.8" font-family="Courier,monospace" font-size="9.00">use_module</text>
</a>
</g>
</g>
<!-- http_dispatch -->
<g id="node3" class="node">
<title>http_dispatch</title>
<g id="a_node3"><a xlink:title="module">
<polygon fill="gainsboro" stroke="black" stroke-dasharray="5,2" points="235.5,-92 136.5,-92 136.5,-96 124.5,-96 124.5,-56 235.5,-56 235.5,-92"/>
<polyline fill="none" stroke="black" stroke-dasharray="5,2" points="124.5,-92 136.5,-92 "/>
<text text-anchor="start" x="132.8" y="-75.8" font-family="Courier,monospace" font-size="9.00"> </text>
<text text-anchor="start" x="137.59" y="-75.2" font-family="Courier,monospace" font-size="11.00">http_dispatch</text>
<text text-anchor="start" x="222.8" y="-75.8" font-family="Courier,monospace" font-size="9.00"> </text>
<text text-anchor="start" x="132.8" y="-65.8" font-family="Courier,monospace" font-size="9.00"> </text>
<text text-anchor="start" x="167.9" y="-66.4" font-family="Courier,monospace" font-size="7.00">module</text>
<text text-anchor="start" x="222.8" y="-65.8" font-family="Courier,monospace" font-size="9.00"> </text>
</a>
</g>
</g>
<!-- api_void&#45;&gt;http_dispatch -->
<g id="edge2" class="edge">
<title>api_void&#45;&gt;http_dispatch</title>
<path fill="none" stroke="black" d="M413.76,-195.81C369.83,-180.63 299.92,-153.75 245,-120 234.5,-113.55 223.37,-106.08 213.34,-99.11"/>
<polygon fill="black" stroke="black" points="213.17,-99 205.96,-98.81 203.36,-92.09 213.17,-99"/>
<g id="a_edge2&#45;label"><a xlink:title="use_module">
<text text-anchor="middle" x="315" y="-138.8" font-family="Courier,monospace" font-size="9.00">use_module</text>
</a>
</g>
</g>
<!-- rdf_db -->
<g id="node4" class="node">
<title>rdf_db</title>
<g id="a_node4"><a xlink:title="module">
<polygon fill="gainsboro" stroke="black" stroke-dasharray="5,2" points="318.5,-92 265.5,-92 265.5,-96 253.5,-96 253.5,-56 318.5,-56 318.5,-92"/>
<polyline fill="none" stroke="black" stroke-dasharray="5,2" points="253.5,-92 265.5,-92 "/>
<text text-anchor="start" x="261.8" y="-75.8" font-family="Courier,monospace" font-size="9.00"> </text>
<text text-anchor="start" x="266.7" y="-75.2" font-family="Courier,monospace" font-size="11.00">rdf_db</text>
<text text-anchor="start" x="305.8" y="-75.8" font-family="Courier,monospace" font-size="9.00"> </text>
<text text-anchor="start" x="261.8" y="-65.8" font-family="Courier,monospace" font-size="9.00"> </text>
<text text-anchor="start" x="273.9" y="-66.4" font-family="Courier,monospace" font-size="7.00">module</text>
<text text-anchor="start" x="305.8" y="-65.8" font-family="Courier,monospace" font-size="9.00"> </text>
</a>
</g>
</g>
<!-- api_void&#45;&gt;rdf_db -->
<g id="edge3" class="edge">
<title>api_void&#45;&gt;rdf_db</title>
<path fill="none" stroke="black" d="M425.72,-190.9C398.93,-173.86 359.33,-147.2 328,-120 321.39,-114.26 314.7,-107.58 308.67,-101.15"/>
<polygon fill="black" stroke="black" points="308.46,-100.93 301.47,-99.18 300.38,-92.05 308.46,-100.93"/>
<g id="a_edge3&#45;label"><a xlink:title="use_module">
<text text-anchor="middle" x="384" y="-138.8" font-family="Courier,monospace" font-size="9.00">use_module</text>
</a>
</g>
</g>
<!-- rdf_turtle_write -->
<g id="node5" class="node">
<title>rdf_turtle_write</title>
<g id="a_node5"><a xlink:title="module">
<polygon fill="gainsboro" stroke="black" stroke-dasharray="5,2" points="467.5,-92 348.5,-92 348.5,-96 336.5,-96 336.5,-56 467.5,-56 467.5,-92"/>
<polyline fill="none" stroke="black" stroke-dasharray="5,2" points="336.5,-92 348.5,-92 "/>
<text text-anchor="start" x="344.8" y="-75.8" font-family="Courier,monospace" font-size="9.00"> </text>
<text text-anchor="start" x="349.69" y="-75.2" font-family="Courier,monospace" font-size="11.00">rdf_turtle_write</text>
<text text-anchor="start" x="454.8" y="-75.8" font-family="Courier,monospace" font-size="9.00"> </text>
<text text-anchor="start" x="344.8" y="-65.8" font-family="Courier,monospace" font-size="9.00"> </text>
<text text-anchor="start" x="389.9" y="-66.4" font-family="Courier,monospace" font-size="7.00">module</text>
<text text-anchor="start" x="454.8" y="-65.8" font-family="Courier,monospace" font-size="9.00"> </text>
</a>
</g>
</g>
<!-- api_void&#45;&gt;rdf_turtle_write -->
<g id="edge4" class="edge">
<title>api_void&#45;&gt;rdf_turtle_write</title>
<path fill="none" stroke="black" d="M447.35,-190.74C441.64,-178.17 434.12,-161.2 427.99,-146 422.41,-132.16 416.66,-116.61 412,-103.6"/>
<polygon fill="black" stroke="black" points="411.91,-103.35 406.13,-99.04 407.89,-92.04 411.91,-103.35"/>
<g id="a_edge4&#45;label"><a xlink:title="use_module">
<text text-anchor="middle" x="454" y="-138.8" font-family="Courier,monospace" font-size="9.00">use_module</text>
</a>
</g>
</g>
<!-- lists -->
<g id="node6" class="node">
<title>lists</title>
<g id="a_node6"><a xlink:title="module">
<polygon fill="gainsboro" stroke="black" stroke-dasharray="5,2" points="544.5,-92 497.5,-92 497.5,-96 485.5,-96 485.5,-56 544.5,-56 544.5,-92"/>
<polyline fill="none" stroke="black" stroke-dasharray="5,2" points="485.5,-92 497.5,-92 "/>
<text text-anchor="start" x="493.8" y="-75.8" font-family="Courier,monospace" font-size="9.00"> </text>
<text text-anchor="start" x="499" y="-75.2" font-family="Courier,monospace" font-size="11.00">lists</text>
<text text-anchor="start" x="531.8" y="-75.8" font-family="Courier,monospace" font-size="9.00"> </text>
<text text-anchor="start" x="493.8" y="-65.8" font-family="Courier,monospace" font-size="9.00"> </text>
<text text-anchor="start" x="502.9" y="-66.4" font-family="Courier,monospace" font-size="7.00">module</text>
<text text-anchor="start" x="531.8" y="-65.8" font-family="Courier,monospace" font-size="9.00"> </text>
</a>
</g>
</g>
<!-- api_void&#45;&gt;lists -->
<g id="edge5" class="edge">
<title>api_void&#45;&gt;lists</title>
<path fill="none" stroke="black" d="M464.2,-190.8C474.14,-168.14 490.99,-129.73 502.54,-103.41"/>
<polygon fill="black" stroke="black" points="502.61,-103.25 501.35,-96.15 507.43,-92.27 502.61,-103.25"/>
<g id="a_edge5&#45;label"><a xlink:title="use_module">
<text text-anchor="middle" x="514" y="-138.8" font-family="Courier,monospace" font-size="9.00">use_module</text>
</a>
</g>
</g>
<!-- httpd_wrapper -->
<g id="node7" class="node">
<title>httpd_wrapper</title>
<g id="a_node7"><a xlink:title="module">
<polygon fill="gainsboro" stroke="black" stroke-dasharray="5,2" points="673.5,-92 574.5,-92 574.5,-96 562.5,-96 562.5,-56 673.5,-56 673.5,-92"/>
<polyline fill="none" stroke="black" stroke-dasharray="5,2" points="562.5,-92 574.5,-92 "/>
<text text-anchor="start" x="570.8" y="-75.8" font-family="Courier,monospace" font-size="9.00"> </text>
<text text-anchor="start" x="575.59" y="-75.2" font-family="Courier,monospace" font-size="11.00">httpd_wrapper</text>
<text text-anchor="start" x="660.8" y="-75.8" font-family="Courier,monospace" font-size="9.00"> </text>
<text text-anchor="start" x="570.8" y="-65.8" font-family="Courier,monospace" font-size="9.00"> </text>
<text text-anchor="start" x="605.9" y="-66.4" font-family="Courier,monospace" font-size="7.00">module</text>
<text text-anchor="start" x="660.8" y="-65.8" font-family="Courier,monospace" font-size="9.00"> </text>
</a>
</g>
</g>
<!-- api_void&#45;&gt;httpd_wrapper -->
<g id="edge6" class="edge">
<title>api_void&#45;&gt;httpd_wrapper</title>
<path fill="none" stroke="black" d="M484.47,-190.81C502.36,-178.69 525.62,-162.18 545,-146 561.92,-131.87 579.68,-114.66 593.44,-100.73"/>
<polygon fill="black" stroke="black" points="593.48,-100.69 594.81,-93.6 601.86,-92.11 593.48,-100.69"/>
<g id="a_edge6&#45;label"><a xlink:title="use_module">
<text text-anchor="middle" x="580" y="-138.8" font-family="Courier,monospace" font-size="9.00">use_module</text>
</a>
</g>
</g>
<!-- http_host -->
<g id="node8" class="node">
<title>http_host</title>
<g id="a_node8"><a xlink:title="module">
<polygon fill="gainsboro" stroke="black" stroke-dasharray="5,2" points="776.5,-92 703.5,-92 703.5,-96 691.5,-96 691.5,-56 776.5,-56 776.5,-92"/>
<polyline fill="none" stroke="black" stroke-dasharray="5,2" points="691.5,-92 703.5,-92 "/>
<text text-anchor="start" x="699.8" y="-75.8" font-family="Courier,monospace" font-size="9.00"> </text>
<text text-anchor="start" x="704.8" y="-75.2" font-family="Courier,monospace" font-size="11.00">http_host</text>
<text text-anchor="start" x="763.8" y="-75.8" font-family="Courier,monospace" font-size="9.00"> </text>
<text text-anchor="start" x="699.8" y="-65.8" font-family="Courier,monospace" font-size="9.00"> </text>
<text text-anchor="start" x="721.9" y="-66.4" font-family="Courier,monospace" font-size="7.00">module</text>
<text text-anchor="start" x="763.8" y="-65.8" font-family="Courier,monospace" font-size="9.00"> </text>
</a>
</g>
</g>
<!-- api_void&#45;&gt;http_host -->
<g id="edge7" class="edge">
<title>api_void&#45;&gt;http_host</title>
<path fill="none" stroke="black" d="M498.2,-197.7C545.38,-183.45 623.02,-156.71 683,-120 692.02,-114.48 700.97,-107.31 708.8,-100.33"/>
<polygon fill="black" stroke="black" points="708.94,-100.2 710.6,-93.18 717.72,-92.02 708.94,-100.2"/>
<g id="a_edge7&#45;label"><a xlink:title="use_module">
<text text-anchor="middle" x="675" y="-138.8" font-family="Courier,monospace" font-size="9.00">use_module</text>
</a>
</g>
</g>
<!-- uri -->
<g id="node9" class="node">
<title>uri</title>
<g id="a_node9"><a xlink:title="module">
<polygon fill="gainsboro" stroke="black" stroke-dasharray="5,2" points="849,-92 807,-92 807,-96 795,-96 795,-56 849,-56 849,-92"/>
<polyline fill="none" stroke="black" stroke-dasharray="5,2" points="795,-92 807,-92 "/>
<text text-anchor="start" x="804.8" y="-75.8" font-family="Courier,monospace" font-size="9.00"> </text>
<text text-anchor="start" x="812.6" y="-75.2" font-family="Courier,monospace" font-size="11.00">uri</text>
<text text-anchor="start" x="834.8" y="-75.8" font-family="Courier,monospace" font-size="9.00"> </text>
<text text-anchor="start" x="804.8" y="-65.8" font-family="Courier,monospace" font-size="9.00"> </text>
<text text-anchor="start" x="809.9" y="-66.4" font-family="Courier,monospace" font-size="7.00">module</text>
<text text-anchor="start" x="834.8" y="-65.8" font-family="Courier,monospace" font-size="9.00"> </text>
</a>
</g>
</g>
<!-- api_void&#45;&gt;uri -->
<g id="edge8" class="edge">
<title>api_void&#45;&gt;uri</title>
<path fill="none" stroke="black" d="M498.04,-207.01C564.64,-201.24 696.05,-182.22 786,-120 792.91,-115.22 799.16,-108.73 804.44,-102.17"/>
<polygon fill="black" stroke="black" points="804.79,-101.7 805.12,-94.5 811.9,-92.04 804.79,-101.7"/>
<g id="a_edge8&#45;label"><a xlink:title="use_module">
<text text-anchor="middle" x="781" y="-138.8" font-family="Courier,monospace" font-size="9.00">use_module</text>
</a>
</g>
</g>
</g>
</svg>
