<?xml version="1.0" encoding="UTF-8" standalone="no"?>
<!DOCTYPE svg PUBLIC "-//W3C//DTD SVG 1.1//EN"
 "http://www.w3.org/Graphics/SVG/1.1/DTD/svg11.dtd">
<!-- Generated by graphviz version 2.41.20190410.0829 (20190410.0829)
 -->
<!-- Title: yasgui.pl Pages: 1 -->
<svg width="800pt" height="436pt"
 viewBox="72.00 72.00 728.00 364.00" xmlns="http://www.w3.org/2000/svg" xmlns:xlink="http://www.w3.org/1999/xlink">
<g id="graph0" class="graph" transform="scale(1 1) rotate(0) translate(76 360)">
<title>yasgui.pl</title>
<polygon fill="white" stroke="transparent" points="-4,4 -4,-288 652,-288 652,4 -4,4"/>
<text text-anchor="start" x="8" y="-16" font-family="Courier,monospace" font-size="10.00" fill="#8b8989">ClioPatria &#45; an RDF application platform</text>
<text text-anchor="start" x="8" y="-6" font-family="Courier,monospace" font-size="10.00" fill="#8b8989">Generated on 2019/04/17, 13:04</text>
<g id="clust1" class="cluster">
<title>cluster_file_/Users/pmoura/ClioPatria/applications/yasgui.pl</title>
<g id="a_clust1"><a xlink:href="https://github.com/ClioPatria/ClioPatria/tree/add57aa2039eed4033cf96e96c293b2052e88f41/applications/yasgui.pl" xlink:title="https://github.com/ClioPatria/ClioPatria/tree/add57aa2039eed4033cf96e96c293b2052e88f41/applications/yasgui.pl">
<path fill="snow" stroke="#8b8989" d="M20,-36C20,-36 628,-36 628,-36 634,-36 640,-42 640,-48 640,-48 640,-264 640,-264 640,-270 634,-276 628,-276 628,-276 20,-276 20,-276 14,-276 8,-270 8,-264 8,-264 8,-48 8,-48 8,-42 14,-36 20,-36"/>
<text text-anchor="middle" x="43" y="-264" font-family="Courier,monospace" font-size="10.00" fill="#8b8989">yasgui.pl</text>
</a>
</g>
</g>
<g id="clust2" class="cluster">
<title>cluster_other</title>
<g id="a_clust2"><a xlink:title="(external entities)">
<path fill="white" stroke="#8b8989" d="M30,-46C30,-46 618,-46 618,-46 624,-46 630,-52 630,-58 630,-58 630,-108 630,-108 630,-114 624,-120 618,-120 618,-120 30,-120 30,-120 24,-120 18,-114 18,-108 18,-108 18,-58 18,-58 18,-52 24,-46 30,-46"/>
<text text-anchor="middle" x="83.01" y="-108" font-family="Courier,monospace" font-size="10.00" fill="#8b8989">(external entities)</text>
</a>
</g>
</g>
<!-- yasgui -->
<g id="node1" class="node">
<title>yasgui</title>
<g id="a_node1"><a xlink:title="module">
<polygon fill="gainsboro" stroke="black" points="408,-248 324,-248 324,-252 312,-252 312,-191 408,-191 408,-248"/>
<polyline fill="none" stroke="black" points="312,-248 324,-248 "/>
<g id="a_node1_0"><a xlink:href="yasgui_module_xref_diagram.svg" xlink:title="Zoom">
<image xlink:href="zoom.png" width="11px" height="11px" preserveAspectRatio="xMinYMin meet" x="320" y="-243.5"/>
</a>
</g>
<text text-anchor="start" x="322.8" y="-224.3" font-family="Courier,monospace" font-size="9.00"> </text>
<text text-anchor="start" x="343.2" y="-223.7" font-family="Courier,monospace" font-size="11.00">yasgui</text>
<text text-anchor="start" x="394.8" y="-224.3" font-family="Courier,monospace" font-size="9.00"> </text>
<text text-anchor="start" x="322.8" y="-214.3" font-family="Courier,monospace" font-size="9.00"> </text>
<text text-anchor="start" x="350.4" y="-214.9" font-family="Courier,monospace" font-size="7.00">module</text>
<text text-anchor="start" x="394.8" y="-214.3" font-family="Courier,monospace" font-size="9.00"> </text>
<text text-anchor="start" x="322.8" y="-205.3" font-family="Courier,monospace" font-size="9.00"> </text>
<text text-anchor="start" x="322.8" y="-196.3" font-family="Courier,monospace" font-size="9.00"> </text>
<text text-anchor="start" x="330.59" y="-196.3" font-family="Courier,monospace" font-size="9.00">has_yasgui/0</text>
<text text-anchor="start" x="394.8" y="-196.3" font-family="Courier,monospace" font-size="9.00"> </text>
</a>
</g>
</g>
<!-- http_dispatch -->
<g id="node2" class="node">
<title>http_dispatch</title>
<g id="a_node2"><a xlink:title="module">
<polygon fill="gainsboro" stroke="black" stroke-dasharray="5,2" points="139.5,-92 40.5,-92 40.5,-96 28.5,-96 28.5,-56 139.5,-56 139.5,-92"/>
<polyline fill="none" stroke="black" stroke-dasharray="5,2" points="28.5,-92 40.5,-92 "/>
<text text-anchor="start" x="36.8" y="-75.8" font-family="Courier,monospace" font-size="9.00"> </text>
<text text-anchor="start" x="41.59" y="-75.2" font-family="Courier,monospace" font-size="11.00">http_dispatch</text>
<text text-anchor="start" x="126.8" y="-75.8" font-family="Courier,monospace" font-size="9.00"> </text>
<text text-anchor="start" x="36.8" y="-65.8" font-family="Courier,monospace" font-size="9.00"> </text>
<text text-anchor="start" x="71.9" y="-66.4" font-family="Courier,monospace" font-size="7.00">module</text>
<text text-anchor="start" x="126.8" y="-65.8" font-family="Courier,monospace" font-size="9.00"> </text>
</a>
</g>
</g>
<!-- yasgui&#45;&gt;http_dispatch -->
<g id="edge1" class="edge">
<title>yasgui&#45;&gt;http_dispatch</title>
<path fill="none" stroke="black" d="M311.92,-198.81C268.38,-180.35 202.99,-151 149,-120 138.13,-113.76 126.75,-106.25 116.6,-99.17"/>
<polygon fill="black" stroke="black" points="116.33,-98.97 109.12,-98.75 106.55,-92.01 116.33,-98.97"/>
<g id="a_edge1&#45;label"><a xlink:title="use_module">
<text text-anchor="middle" x="220" y="-138.8" font-family="Courier,monospace" font-size="9.00">use_module</text>
</a>
</g>
</g>
<!-- http_server_files -->
<g id="node3" class="node">
<title>http_server_files</title>
<g id="a_node3"><a xlink:title="module">
<polygon fill="gainsboro" stroke="black" stroke-dasharray="5,2" points="296,-92 170,-92 170,-96 158,-96 158,-56 296,-56 296,-92"/>
<polyline fill="none" stroke="black" stroke-dasharray="5,2" points="158,-92 170,-92 "/>
<text text-anchor="start" x="165.8" y="-75.8" font-family="Courier,monospace" font-size="9.00"> </text>
<text text-anchor="start" x="170.89" y="-75.2" font-family="Courier,monospace" font-size="11.00">http_server_files</text>
<text text-anchor="start" x="282.8" y="-75.8" font-family="Courier,monospace" font-size="9.00"> </text>
<text text-anchor="start" x="165.8" y="-65.8" font-family="Courier,monospace" font-size="9.00"> </text>
<text text-anchor="start" x="214.4" y="-66.4" font-family="Courier,monospace" font-size="7.00">module</text>
<text text-anchor="start" x="282.8" y="-65.8" font-family="Courier,monospace" font-size="9.00"> </text>
</a>
</g>
</g>
<!-- yasgui&#45;&gt;http_server_files -->
<g id="edge2" class="edge">
<title>yasgui&#45;&gt;http_server_files</title>
<path fill="none" stroke="black" d="M334.36,-190.83C310.39,-164.98 274.88,-126.66 251.34,-101.27"/>
<polygon fill="black" stroke="black" points="251.12,-101.02 244.11,-99.34 242.96,-92.22 251.12,-101.02"/>
<g id="a_edge2&#45;label"><a xlink:title="use_module">
<text text-anchor="middle" x="316" y="-138.8" font-family="Courier,monospace" font-size="9.00">use_module</text>
</a>
</g>
</g>
<!-- html_write -->
<g id="node4" class="node">
<title>html_write</title>
<g id="a_node4"><a xlink:title="module">
<polygon fill="gainsboro" stroke="black" stroke-dasharray="5,2" points="406,-92 326,-92 326,-96 314,-96 314,-56 406,-56 406,-92"/>
<polyline fill="none" stroke="black" stroke-dasharray="5,2" points="314,-92 326,-92 "/>
<text text-anchor="start" x="321.8" y="-75.8" font-family="Courier,monospace" font-size="9.00"> </text>
<text text-anchor="start" x="326.99" y="-75.2" font-family="Courier,monospace" font-size="11.00">html_write</text>
<text text-anchor="start" x="392.8" y="-75.8" font-family="Courier,monospace" font-size="9.00"> </text>
<text text-anchor="start" x="321.8" y="-65.8" font-family="Courier,monospace" font-size="9.00"> </text>
<text text-anchor="start" x="347.4" y="-66.4" font-family="Courier,monospace" font-size="7.00">module</text>
<text text-anchor="start" x="392.8" y="-65.8" font-family="Courier,monospace" font-size="9.00"> </text>
</a>
</g>
</g>
<!-- yasgui&#45;&gt;html_write -->
<g id="edge3" class="edge">
<title>yasgui&#45;&gt;html_write</title>
<path fill="none" stroke="black" d="M360,-190.83C360,-166 360,-129.68 360,-104.34"/>
<polygon fill="black" stroke="black" points="360,-104.22 356,-98.22 360,-92.22 360,-104.22"/>
<g id="a_edge3&#45;label"><a xlink:title="use_module">
<text text-anchor="middle" x="387" y="-138.8" font-family="Courier,monospace" font-size="9.00">use_module</text>
</a>
</g>
</g>
<!-- html_head -->
<g id="node5" class="node">
<title>html_head</title>
<g id="a_node5"><a xlink:title="module">
<polygon fill="gainsboro" stroke="black" stroke-dasharray="5,2" points="509.5,-92 436.5,-92 436.5,-96 424.5,-96 424.5,-56 509.5,-56 509.5,-92"/>
<polyline fill="none" stroke="black" stroke-dasharray="5,2" points="424.5,-92 436.5,-92 "/>
<text text-anchor="start" x="432.8" y="-75.8" font-family="Courier,monospace" font-size="9.00"> </text>
<text text-anchor="start" x="437.8" y="-75.2" font-family="Courier,monospace" font-size="11.00">html_head</text>
<text text-anchor="start" x="496.8" y="-75.8" font-family="Courier,monospace" font-size="9.00"> </text>
<text text-anchor="start" x="432.8" y="-65.8" font-family="Courier,monospace" font-size="9.00"> </text>
<text text-anchor="start" x="454.9" y="-66.4" font-family="Courier,monospace" font-size="7.00">module</text>
<text text-anchor="start" x="496.8" y="-65.8" font-family="Courier,monospace" font-size="9.00"> </text>
</a>
</g>
</g>
<!-- yasgui&#45;&gt;html_head -->
<g id="edge4" class="edge">
<title>yasgui&#45;&gt;html_head</title>
<path fill="none" stroke="black" d="M382.78,-190.97C393.66,-177.58 406.75,-161.13 418,-146 428.58,-131.78 439.85,-115.53 448.91,-102.17"/>
<polygon fill="black" stroke="black" points="448.94,-102.12 448.98,-94.91 455.65,-92.17 448.94,-102.12"/>
<g id="a_edge4&#45;label"><a xlink:title="use_module">
<text text-anchor="middle" x="450" y="-138.8" font-family="Courier,monospace" font-size="9.00">use_module</text>
</a>
</g>
</g>
<!-- javascript -->
<g id="node6" class="node">
<title>javascript</title>
<g id="a_node6"><a xlink:title="module">
<polygon fill="gainsboro" stroke="black" stroke-dasharray="5,2" points="620,-92 540,-92 540,-96 528,-96 528,-56 620,-56 620,-92"/>
<polyline fill="none" stroke="black" stroke-dasharray="5,2" points="528,-92 540,-92 "/>
<text text-anchor="start" x="535.8" y="-75.8" font-family="Courier,monospace" font-size="9.00"> </text>
<text text-anchor="start" x="540.99" y="-75.2" font-family="Courier,monospace" font-size="11.00">javascript</text>
<text text-anchor="start" x="606.8" y="-75.8" font-family="Courier,monospace" font-size="9.00"> </text>
<text text-anchor="start" x="535.8" y="-65.8" font-family="Courier,monospace" font-size="9.00"> </text>
<text text-anchor="start" x="561.4" y="-66.4" font-family="Courier,monospace" font-size="7.00">module</text>
<text text-anchor="start" x="606.8" y="-65.8" font-family="Courier,monospace" font-size="9.00"> </text>
</a>
</g>
</g>
<!-- yasgui&#45;&gt;javascript -->
<g id="edge5" class="edge">
<title>yasgui&#45;&gt;javascript</title>
<path fill="none" stroke="black" d="M408.05,-191.72C440.36,-173 483.39,-146.67 519,-120 527.42,-113.69 536.34,-106.59 544.49,-99.92"/>
<polygon fill="black" stroke="black" points="544.71,-99.74 546.78,-92.83 553.96,-92.09 544.71,-99.74"/>
<g id="a_edge5&#45;label"><a xlink:title="use_module">
<text text-anchor="middle" x="521" y="-138.8" font-family="Courier,monospace" font-size="9.00">use_module</text>
</a>
</g>
</g>
</g>
</svg>
