<?xml version="1.0" encoding="UTF-8" standalone="no"?>
<!DOCTYPE svg PUBLIC "-//W3C//DTD SVG 1.1//EN"
 "http://www.w3.org/Graphics/SVG/1.1/DTD/svg11.dtd">
<!-- Generated by graphviz version 2.41.20190410.0829 (20190410.0829)
 -->
<!-- Title: yui_resources.pl Pages: 1 -->
<svg width="487pt" height="445pt"
 viewBox="72.00 72.00 415.00 373.00" xmlns="http://www.w3.org/2000/svg" xmlns:xlink="http://www.w3.org/1999/xlink">
<g id="graph0" class="graph" transform="scale(1 1) rotate(0) translate(76 369)">
<title>yui_resources.pl</title>
<polygon fill="white" stroke="transparent" points="-4,4 -4,-297 339,-297 339,4 -4,4"/>
<text text-anchor="start" x="8" y="-16" font-family="Courier,monospace" font-size="10.00" fill="#8b8989">ClioPatria &#45; an RDF application platform</text>
<text text-anchor="start" x="8" y="-6" font-family="Courier,monospace" font-size="10.00" fill="#8b8989">Generated on 2019/04/17, 13:04</text>
<g id="clust1" class="cluster">
<title>cluster_file_/Users/pmoura/ClioPatria/lib/http/yui_resources.pl</title>
<g id="a_clust1"><a xlink:href="https://github.com/ClioPatria/ClioPatria/tree/add57aa2039eed4033cf96e96c293b2052e88f41/lib/http/yui_resources.pl" xlink:title="https://github.com/ClioPatria/ClioPatria/tree/add57aa2039eed4033cf96e96c293b2052e88f41/lib/http/yui_resources.pl">
<path fill="snow" stroke="#8b8989" d="M20,-36C20,-36 315,-36 315,-36 321,-36 327,-42 327,-48 327,-48 327,-273 327,-273 327,-279 321,-285 315,-285 315,-285 20,-285 20,-285 14,-285 8,-279 8,-273 8,-273 8,-48 8,-48 8,-42 14,-36 20,-36"/>
<text text-anchor="middle" x="64.01" y="-273" font-family="Courier,monospace" font-size="10.00" fill="#8b8989">yui_resources.pl</text>
</a>
</g>
</g>
<g id="clust2" class="cluster">
<title>cluster_other</title>
<g id="a_clust2"><a xlink:title="(external entities)">
<path fill="white" stroke="#8b8989" d="M30,-46C30,-46 241,-46 241,-46 247,-46 253,-52 253,-58 253,-58 253,-108 253,-108 253,-114 247,-120 241,-120 241,-120 30,-120 30,-120 24,-120 18,-114 18,-108 18,-108 18,-58 18,-58 18,-52 24,-46 30,-46"/>
<text text-anchor="middle" x="83.01" y="-108" font-family="Courier,monospace" font-size="10.00" fill="#8b8989">(external entities)</text>
</a>
</g>
</g>
<!-- yui_resources -->
<g id="node1" class="node">
<title>yui_resources</title>
<g id="a_node1"><a xlink:title="module">
<polygon fill="gainsboro" stroke="black" points="270.5,-257 115.5,-257 115.5,-261 103.5,-261 103.5,-191 270.5,-191 270.5,-257"/>
<polyline fill="none" stroke="black" points="103.5,-257 115.5,-257 "/>
<g id="a_node1_0"><a xlink:href="yui_resources_module_xref_diagram.svg" xlink:title="Zoom">
<image xlink:href="zoom.png" width="11px" height="11px" preserveAspectRatio="xMinYMin meet" x="112" y="-253"/>
</a>
</g>
<text text-anchor="start" x="114.8" y="-233.8" font-family="Courier,monospace" font-size="9.00"> </text>
<text text-anchor="start" x="147.59" y="-233.2" font-family="Courier,monospace" font-size="11.00">yui_resources</text>
<text text-anchor="start" x="257.8" y="-233.8" font-family="Courier,monospace" font-size="9.00"> </text>
<text text-anchor="start" x="114.8" y="-223.8" font-family="Courier,monospace" font-size="9.00"> </text>
<text text-anchor="start" x="177.9" y="-224.4" font-family="Courier,monospace" font-size="7.00">module</text>
<text text-anchor="start" x="257.8" y="-223.8" font-family="Courier,monospace" font-size="9.00"> </text>
<text text-anchor="start" x="114.8" y="-214.8" font-family="Courier,monospace" font-size="9.00"> </text>
<text text-anchor="start" x="114.8" y="-205.8" font-family="Courier,monospace" font-size="9.00"> </text>
<text text-anchor="start" x="149.99" y="-205.8" font-family="Courier,monospace" font-size="9.00">http:location/3</text>
<text text-anchor="start" x="257.8" y="-205.8" font-family="Courier,monospace" font-size="9.00"> </text>
<text text-anchor="start" x="114.8" y="-196.8" font-family="Courier,monospace" font-size="9.00"> </text>
<text text-anchor="start" x="122.99" y="-196.8" font-family="Courier,monospace" font-size="9.00">html_head:html_resource/3</text>
<text text-anchor="start" x="257.8" y="-196.8" font-family="Courier,monospace" font-size="9.00"> </text>
</a>
</g>
</g>
<!-- html_head -->
<g id="node2" class="node">
<title>html_head</title>
<g id="a_node2"><a xlink:title="module">
<polygon fill="gainsboro" stroke="black" stroke-dasharray="5,2" points="113.5,-92 40.5,-92 40.5,-96 28.5,-96 28.5,-56 113.5,-56 113.5,-92"/>
<polyline fill="none" stroke="black" stroke-dasharray="5,2" points="28.5,-92 40.5,-92 "/>
<text text-anchor="start" x="36.8" y="-75.8" font-family="Courier,monospace" font-size="9.00"> </text>
<text text-anchor="start" x="41.8" y="-75.2" font-family="Courier,monospace" font-size="11.00">html_head</text>
<text text-anchor="start" x="100.8" y="-75.8" font-family="Courier,monospace" font-size="9.00"> </text>
<text text-anchor="start" x="36.8" y="-65.8" font-family="Courier,monospace" font-size="9.00"> </text>
<text text-anchor="start" x="58.9" y="-66.4" font-family="Courier,monospace" font-size="7.00">module</text>
<text text-anchor="start" x="100.8" y="-65.8" font-family="Courier,monospace" font-size="9.00"> </text>
</a>
</g>
</g>
<!-- yui_resources&#45;&gt;html_head -->
<g id="edge1" class="edge">
<title>yui_resources&#45;&gt;html_head</title>
<path fill="none" stroke="black" d="M161.83,-190.89C140.52,-163.69 110.39,-125.25 90.77,-100.23"/>
<polygon fill="black" stroke="black" points="87.31,-90.13 90.72,-100.16 81.8,-94.45 87.31,-90.13"/>
<g id="a_edge1&#45;label"><a xlink:title="provides">
<text text-anchor="middle" x="146.6" y="-138.8" font-family="Courier,monospace" font-size="9.00">provides</text>
</a>
</g>
</g>
<!-- http_dispatch -->
<g id="node3" class="node">
<title>http_dispatch</title>
<g id="a_node3"><a xlink:title="module">
<polygon fill="gainsboro" stroke="black" stroke-dasharray="5,2" points="242.5,-92 143.5,-92 143.5,-96 131.5,-96 131.5,-56 242.5,-56 242.5,-92"/>
<polyline fill="none" stroke="black" stroke-dasharray="5,2" points="131.5,-92 143.5,-92 "/>
<text text-anchor="start" x="139.8" y="-75.8" font-family="Courier,monospace" font-size="9.00"> </text>
<text text-anchor="start" x="144.59" y="-75.2" font-family="Courier,monospace" font-size="11.00">http_dispatch</text>
<text text-anchor="start" x="229.8" y="-75.8" font-family="Courier,monospace" font-size="9.00"> </text>
<text text-anchor="start" x="139.8" y="-65.8" font-family="Courier,monospace" font-size="9.00"> </text>
<text text-anchor="start" x="174.9" y="-66.4" font-family="Courier,monospace" font-size="7.00">module</text>
<text text-anchor="start" x="229.8" y="-65.8" font-family="Courier,monospace" font-size="9.00"> </text>
</a>
</g>
</g>
<!-- yui_resources&#45;&gt;http_dispatch -->
<g id="edge3" class="edge">
<title>yui_resources&#45;&gt;http_dispatch</title>
<path fill="none" stroke="black" d="M187,-190.89C187,-165.23 187,-129.56 187,-104.59"/>
<polygon fill="black" stroke="black" points="187,-104.29 183,-98.29 187,-92.29 187,-104.29"/>
<g id="a_edge3&#45;label"><a xlink:title="use_module">
<text text-anchor="middle" x="214" y="-138.8" font-family="Courier,monospace" font-size="9.00">use_module</text>
</a>
</g>
</g>
<!-- http -->
<g id="node4" class="node">
<title>http</title>
<ellipse fill="white" stroke="black" cx="290" cy="-74" rx="27" ry="18"/>
<text text-anchor="middle" x="290" y="-71.3" font-family="Courier,monospace" font-size="9.00">http</text>
</g>
<!-- yui_resources&#45;&gt;http -->
<g id="edge2" class="edge">
<title>yui_resources&#45;&gt;http</title>
<path fill="none" stroke="black" d="M212.14,-190.83C222.57,-177.19 234.62,-161 245,-146 255.39,-130.98 266.37,-113.68 274.89,-99.92"/>
<polygon fill="black" stroke="black" points="283.33,-92.86 275.12,-99.55 277.37,-89.2 283.33,-92.86"/>
<g id="a_edge2&#45;label"><a xlink:title="provides">
<text text-anchor="middle" x="271.6" y="-138.8" font-family="Courier,monospace" font-size="9.00">provides</text>
</a>
</g>
</g>
</g>
</svg>
