<?xml version="1.0" encoding="UTF-8" standalone="no"?>
<!DOCTYPE svg PUBLIC "-//W3C//DTD SVG 1.1//EN"
 "http://www.w3.org/Graphics/SVG/1.1/DTD/svg11.dtd">
<!-- Generated by graphviz version 2.41.20190410.0829 (20190410.0829)
 -->
<!-- Title: fairy_module Pages: 1 -->
<svg width="456pt" height="288pt"
 viewBox="72.00 72.00 384.00 216.00" xmlns="http://www.w3.org/2000/svg" xmlns:xlink="http://www.w3.org/1999/xlink">
<g id="graph0" class="graph" transform="scale(1 1) rotate(0) translate(76 212)">
<title>fairy_module</title>
<polygon fill="white" stroke="transparent" points="-4,4 -4,-140 308,-140 308,4 -4,4"/>
<text text-anchor="start" x="8" y="-26" font-family="Courier,monospace" font-size="10.00" fill="dimgray">TaleSpin application</text>
<text text-anchor="start" x="8" y="-16" font-family="Courier,monospace" font-size="10.00" fill="dimgray">Cross&#45;referencing diagram for module fairy</text>
<text text-anchor="start" x="8" y="-6" font-family="Courier,monospace" font-size="10.00" fill="dimgray">Generated on 2019/04/30, 21:26</text>
<g id="clust1" class="cluster">
<title>cluster_fairy_module</title>
<g id="a_clust1"><a xlink:title="fairy">
<path fill="snow" stroke="dimgray" d="M20,-46C20,-46 284,-46 284,-46 290,-46 296,-52 296,-58 296,-58 296,-116 296,-116 296,-122 290,-128 284,-128 284,-128 20,-128 20,-128 14,-128 8,-122 8,-116 8,-116 8,-58 8,-58 8,-52 14,-46 20,-46"/>
<g id="a_clust1_0"><a xlink:href="https://github.com/SWI-Prolog-Education/talespin-annie/tree/d750de657fdf5657d36e68835115c8d12ac7f2c6/fairy.pl" xlink:title="https://github.com/SWI&#45;Prolog&#45;Education/talespin&#45;annie/tree/d750de657fdf5657d36e68835115c8d12ac7f2c6/fairy.pl">
<text text-anchor="start" x="20" y="-112" font-family="Courier,monospace" font-size="10.00" fill="dimgray">fairy</text>
</a>
</g>
</a>
</g>
</g>
<!-- action/2 -->
<g id="node1" class="node">
<title>action/2</title>
<g id="a_node1"><a xlink:href="https://github.com/SWI-Prolog-Education/talespin-annie/tree/d750de657fdf5657d36e68835115c8d12ac7f2c6/fairy.pl#L19" xlink:title="https://github.com/SWI&#45;Prolog&#45;Education/talespin&#45;annie/tree/d750de657fdf5657d36e68835115c8d12ac7f2c6/fairy.pl#L19">
<polygon fill="cornsilk" stroke="black" points="286,-92 208,-92 208,-56 286,-56 286,-92"/>
<text text-anchor="start" x="215.8" y="-75.8" font-family="Courier,monospace" font-size="9.00"> </text>
<text text-anchor="start" x="220.6" y="-75.2" font-family="Courier,monospace" font-size="11.00">action/2</text>
<text text-anchor="start" x="272.8" y="-75.8" font-family="Courier,monospace" font-size="9.00"> </text>
<text text-anchor="start" x="215.8" y="-65.8" font-family="Courier,monospace" font-size="9.00"> </text>
<text text-anchor="start" x="236.5" y="-66.4" font-family="Courier,monospace" font-size="7.00">local</text>
<text text-anchor="start" x="272.8" y="-65.8" font-family="Courier,monospace" font-size="9.00"> </text>
</a>
</g>
</g>
<!-- planner:max_plan_len/2 -->
<g id="node2" class="node">
<title>planner:max_plan_len/2</title>
<g id="a_node2"><a xlink:href="https://github.com/SWI-Prolog-Education/talespin-annie/tree/d750de657fdf5657d36e68835115c8d12ac7f2c6/fairy.pl#L17" xlink:title="https://github.com/SWI&#45;Prolog&#45;Education/talespin&#45;annie/tree/d750de657fdf5657d36e68835115c8d12ac7f2c6/fairy.pl#L17">
<polygon fill="skyblue" stroke="black" points="189.5,-92 18.5,-92 18.5,-56 189.5,-56 189.5,-92"/>
<text text-anchor="start" x="26.8" y="-75.8" font-family="Courier,monospace" font-size="9.00"> </text>
<text text-anchor="start" x="31.89" y="-75.2" font-family="Courier,monospace" font-size="11.00">planner:max_plan_len/2</text>
<text text-anchor="start" x="176.8" y="-75.8" font-family="Courier,monospace" font-size="9.00"> </text>
<text text-anchor="start" x="26.8" y="-65.8" font-family="Courier,monospace" font-size="9.00"> </text>
<text text-anchor="start" x="85.6" y="-66.4" font-family="Courier,monospace" font-size="7.00">multifile</text>
<text text-anchor="start" x="176.8" y="-65.8" font-family="Courier,monospace" font-size="9.00"> </text>
</a>
</g>
</g>
</g>
</svg>
