<?xml version="1.0" encoding="UTF-8" standalone="no"?>
<!DOCTYPE svg PUBLIC "-//W3C//DTD SVG 1.1//EN"
 "http://www.w3.org/Graphics/SVG/1.1/DTD/svg11.dtd">
<!-- Generated by graphviz version 2.41.20190410.0829 (20190410.0829)
 -->
<!-- Title: talespin Pages: 1 -->
<svg width="348pt" height="408pt"
 viewBox="72.00 72.00 276.03 336.00" xmlns="http://www.w3.org/2000/svg" xmlns:xlink="http://www.w3.org/1999/xlink">
<g id="graph0" class="graph" transform="scale(1 1) rotate(0) translate(76 332)">
<title>talespin</title>
<polygon fill="white" stroke="transparent" points="-4,4 -4,-260 200.03,-260 200.03,4 -4,4"/>
<text text-anchor="start" x="8" y="-26" font-family="Courier,monospace" font-size="10.00" fill="dimgray">TaleSpin application</text>
<text text-anchor="start" x="8" y="-16" font-family="Courier,monospace" font-size="10.00" fill="dimgray">Directory dependency diagram</text>
<text text-anchor="start" x="8" y="-6" font-family="Courier,monospace" font-size="10.00" fill="dimgray">Generated on 2019/04/30, 21:26</text>
<g id="clust1" class="cluster">
<title>cluster_directory_talespin</title>
<g id="a_clust1"><a xlink:title="./">
<path fill="whitesmoke" stroke="dimgray" d="M65.01,-46C65.01,-46 131.01,-46 131.01,-46 137.01,-46 143.01,-52 143.01,-58 143.01,-58 143.01,-236 143.01,-236 143.01,-242 137.01,-248 131.01,-248 131.01,-248 65.01,-248 65.01,-248 59.01,-248 53.01,-242 53.01,-236 53.01,-236 53.01,-58 53.01,-58 53.01,-52 59.01,-46 65.01,-46"/>
<g id="a_clust1_0"><a xlink:href="https://github.com/SWI-Prolog-Education/talespin-annie/tree/d750de657fdf5657d36e68835115c8d12ac7f2c6/" xlink:title="https://github.com/SWI&#45;Prolog&#45;Education/talespin&#45;annie/tree/d750de657fdf5657d36e68835115c8d12ac7f2c6/">
<text text-anchor="start" x="65.01" y="-232" font-family="Courier,monospace" font-size="10.00" fill="dimgray">./</text>
</a>
</g>
</a>
</g>
</g>
<!-- /Users/pmoura/talespin&#45;annie/ -->
<g id="node1" class="node">
<title>/Users/pmoura/talespin&#45;annie/</title>
<g id="a_node1"><a xlink:href="https://github.com/SWI-Prolog-Education/talespin-annie/tree/d750de657fdf5657d36e68835115c8d12ac7f2c6/" xlink:title="https://github.com/SWI&#45;Prolog&#45;Education/talespin&#45;annie/tree/d750de657fdf5657d36e68835115c8d12ac7f2c6/">
<polygon fill="lightsalmon" stroke="black" points="132.51,-212 75.51,-212 75.51,-216 63.51,-216 63.51,-173 132.51,-173 132.51,-212"/>
<polyline fill="none" stroke="black" points="63.51,-212 75.51,-212 "/>
<g id="a_node1_1"><a xlink:href="talespin_file_dependency_diagram.svg" xlink:title="Zoom">
<image xlink:href="zoom.png" width="11px" height="11px" preserveAspectRatio="xMinYMin meet" x="72.0146" y="-207.5"/>
</a>
</g>
<text text-anchor="start" x="74.81" y="-188.3" font-family="Courier,monospace" font-size="9.00"> </text>
<text text-anchor="start" x="94.91" y="-187.7" font-family="Courier,monospace" font-size="11.00">./</text>
<text text-anchor="start" x="119.81" y="-188.3" font-family="Courier,monospace" font-size="9.00"> </text>
<text text-anchor="start" x="74.81" y="-178.3" font-family="Courier,monospace" font-size="9.00"> </text>
<text text-anchor="start" x="82.61" y="-178.9" font-family="Courier,monospace" font-size="7.00">directory</text>
<text text-anchor="start" x="119.81" y="-178.3" font-family="Courier,monospace" font-size="9.00"> </text>
</a>
</g>
</g>
<!-- /Users/pmoura/lib/swipl/library/ -->
<g id="node2" class="node">
<title>/Users/pmoura/lib/swipl/library/</title>
<g id="a_node2"><a xlink:href="https://github.com/SWI-Prolog/swipl-devel/tree/master/library/" xlink:title="https://github.com/SWI&#45;Prolog/swipl&#45;devel/tree/master/library/">
<polygon fill="salmon" stroke="black" stroke-dasharray="5,2" points="126.51,-92 75.51,-92 75.51,-96 63.51,-96 63.51,-56 126.51,-56 126.51,-92"/>
<polyline fill="none" stroke="black" stroke-dasharray="5,2" points="63.51,-92 75.51,-92 "/>
<text text-anchor="start" x="71.81" y="-75.8" font-family="Courier,monospace" font-size="9.00"> </text>
<text text-anchor="start" x="88.91" y="-75.2" font-family="Courier,monospace" font-size="11.00">./</text>
<text text-anchor="start" x="113.81" y="-75.8" font-family="Courier,monospace" font-size="9.00"> </text>
<text text-anchor="start" x="71.81" y="-65.8" font-family="Courier,monospace" font-size="9.00"> </text>
<text text-anchor="start" x="76.61" y="-66.4" font-family="Courier,monospace" font-size="7.00">directory</text>
<text text-anchor="start" x="113.81" y="-65.8" font-family="Courier,monospace" font-size="9.00"> </text>
</a>
</g>
</g>
<!-- /Users/pmoura/talespin&#45;annie/&#45;&gt;/Users/pmoura/lib/swipl/library/ -->
<g id="edge1" class="edge">
<title>/Users/pmoura/talespin&#45;annie/&#45;&gt;/Users/pmoura/lib/swipl/library/</title>
<g id="a_edge1"><a xlink:href="https://github.com/SWI-Prolog-Education/talespin-annie/tree/d750de657fdf5657d36e68835115c8d12ac7f2c6/" xlink:title="depends">
<path fill="none" stroke="black" d="M97.53,-172.78C97.04,-153.74 96.28,-124.04 95.72,-102.36"/>
<polygon fill="black" stroke="black" points="99.21,-102.06 95.46,-92.15 92.22,-102.24 99.21,-102.06"/>
</a>
</g>
<g id="a_edge1&#45;label"><a xlink:href="https://github.com/SWI-Prolog-Education/talespin-annie/tree/d750de657fdf5657d36e68835115c8d12ac7f2c6/" xlink:title="https://github.com/SWI&#45;Prolog&#45;Education/talespin&#45;annie/tree/d750de657fdf5657d36e68835115c8d12ac7f2c6/">
<text text-anchor="start" x="96.01" y="-129.8" font-family="Courier,monospace" font-size="9.00">depends</text>
</a>
</g>
</g>
</g>
</svg>
