<?xml version="1.0" encoding="UTF-8" standalone="no"?>
<!DOCTYPE svg PUBLIC "-//W3C//DTD SVG 1.1//EN"
 "http://www.w3.org/Graphics/SVG/1.1/DTD/svg11.dtd">
<!-- Generated by graphviz version 2.41.20190410.0829 (20190410.0829)
 -->
<!-- Title: talespin Pages: 1 -->
<svg width="776pt" height="763pt"
 viewBox="72.00 72.00 704.00 691.00" xmlns="http://www.w3.org/2000/svg" xmlns:xlink="http://www.w3.org/1999/xlink">
<g id="graph0" class="graph" transform="scale(1 1) rotate(0) translate(76 687)">
<title>talespin</title>
<polygon fill="white" stroke="transparent" points="-4,4 -4,-615 628,-615 628,4 -4,4"/>
<text text-anchor="start" x="8" y="-26" font-family="Courier,monospace" font-size="10.00" fill="dimgray">TaleSpin application</text>
<text text-anchor="start" x="8" y="-16" font-family="Courier,monospace" font-size="10.00" fill="dimgray">Uses diagram</text>
<text text-anchor="start" x="8" y="-6" font-family="Courier,monospace" font-size="10.00" fill="dimgray">Generated on 2019/04/30, 21:26</text>
<g id="clust1" class="cluster">
<title>cluster_directory_talespin</title>
<g id="a_clust1"><a xlink:title="./">
<path fill="whitesmoke" stroke="dimgray" d="M20,-46C20,-46 604,-46 604,-46 610,-46 616,-52 616,-58 616,-58 616,-591 616,-591 616,-597 610,-603 604,-603 604,-603 20,-603 20,-603 14,-603 8,-597 8,-591 8,-591 8,-58 8,-58 8,-52 14,-46 20,-46"/>
<g id="a_clust1_0"><a xlink:href="https://github.com/SWI-Prolog-Education/talespin-annie/tree/d750de657fdf5657d36e68835115c8d12ac7f2c6/" xlink:title="https://github.com/SWI&#45;Prolog&#45;Education/talespin&#45;annie/tree/d750de657fdf5657d36e68835115c8d12ac7f2c6/">
<text text-anchor="start" x="20" y="-587" font-family="Courier,monospace" font-size="10.00" fill="dimgray">./</text>
</a>
</g>
</a>
</g>
</g>
<g id="clust2" class="cluster">
<title>cluster_file_/Users/pmoura/talespin&#45;annie/run.pl</title>
<g id="a_clust2"><a xlink:title="run.pl">
<path fill="snow" stroke="dimgray" d="M302,-464C302,-464 400,-464 400,-464 406,-464 412,-470 412,-476 412,-476 412,-555 412,-555 412,-561 406,-567 400,-567 400,-567 302,-567 302,-567 296,-567 290,-561 290,-555 290,-555 290,-476 290,-476 290,-470 296,-464 302,-464"/>
<g id="a_clust2_1"><a xlink:href="https://github.com/SWI-Prolog-Education/talespin-annie/tree/d750de657fdf5657d36e68835115c8d12ac7f2c6/run.pl" xlink:title="https://github.com/SWI&#45;Prolog&#45;Education/talespin&#45;annie/tree/d750de657fdf5657d36e68835115c8d12ac7f2c6/run.pl">
<text text-anchor="start" x="302" y="-551" font-family="Courier,monospace" font-size="10.00" fill="dimgray">run.pl</text>
</a>
</g>
</a>
</g>
</g>
<g id="clust3" class="cluster">
<title>cluster_file_/Users/pmoura/talespin&#45;annie/talespin.pl</title>
<g id="a_clust3"><a xlink:title="talespin.pl">
<path fill="snow" stroke="dimgray" d="M152,-318C152,-318 232,-318 232,-318 238,-318 244,-324 244,-330 244,-330 244,-409 244,-409 244,-415 238,-421 232,-421 232,-421 152,-421 152,-421 146,-421 140,-415 140,-409 140,-409 140,-330 140,-330 140,-324 146,-318 152,-318"/>
<g id="a_clust3_2"><a xlink:href="https://github.com/SWI-Prolog-Education/talespin-annie/tree/d750de657fdf5657d36e68835115c8d12ac7f2c6/talespin.pl" xlink:title="https://github.com/SWI&#45;Prolog&#45;Education/talespin&#45;annie/tree/d750de657fdf5657d36e68835115c8d12ac7f2c6/talespin.pl">
<text text-anchor="start" x="151.99" y="-405" font-family="Courier,monospace" font-size="10.00" fill="dimgray">talespin.pl</text>
</a>
</g>
</a>
</g>
</g>
<g id="clust4" class="cluster">
<title>cluster_file_/Users/pmoura/talespin&#45;annie/planner.pl</title>
<g id="a_clust4"><a xlink:title="planner.pl">
<path fill="snow" stroke="dimgray" d="M202,-163C202,-163 332,-163 332,-163 338,-163 344,-169 344,-175 344,-175 344,-263 344,-263 344,-269 338,-275 332,-275 332,-275 202,-275 202,-275 196,-275 190,-269 190,-263 190,-263 190,-175 190,-175 190,-169 196,-163 202,-163"/>
<g id="a_clust4_3"><a xlink:href="https://github.com/SWI-Prolog-Education/talespin-annie/tree/d750de657fdf5657d36e68835115c8d12ac7f2c6/planner.pl" xlink:title="https://github.com/SWI&#45;Prolog&#45;Education/talespin&#45;annie/tree/d750de657fdf5657d36e68835115c8d12ac7f2c6/planner.pl">
<text text-anchor="start" x="202" y="-259" font-family="Courier,monospace" font-size="10.00" fill="dimgray">planner.pl</text>
</a>
</g>
</a>
</g>
</g>
<g id="clust5" class="cluster">
<title>cluster_file_/Users/pmoura/talespin&#45;annie/anglify.pl</title>
<g id="a_clust5"><a xlink:title="anglify.pl">
<path fill="snow" stroke="dimgray" d="M266,-318C266,-318 342,-318 342,-318 348,-318 354,-324 354,-330 354,-330 354,-409 354,-409 354,-415 348,-421 342,-421 342,-421 266,-421 266,-421 260,-421 254,-415 254,-409 254,-409 254,-330 254,-330 254,-324 260,-318 266,-318"/>
<g id="a_clust5_4"><a xlink:href="https://github.com/SWI-Prolog-Education/talespin-annie/tree/d750de657fdf5657d36e68835115c8d12ac7f2c6/anglify.pl" xlink:title="https://github.com/SWI&#45;Prolog&#45;Education/talespin&#45;annie/tree/d750de657fdf5657d36e68835115c8d12ac7f2c6/anglify.pl">
<text text-anchor="start" x="266" y="-405" font-family="Courier,monospace" font-size="10.00" fill="dimgray">anglify.pl</text>
</a>
</g>
</a>
</g>
</g>
<g id="clust6" class="cluster">
<title>cluster_file_/Users/pmoura/talespin&#45;annie/fairy.pl</title>
<g id="a_clust6"><a xlink:title="fairy.pl">
<path fill="snow" stroke="dimgray" d="M61,-464C61,-464 207,-464 207,-464 213,-464 219,-470 219,-476 219,-476 219,-555 219,-555 219,-561 213,-567 207,-567 207,-567 61,-567 61,-567 55,-567 49,-561 49,-555 49,-555 49,-476 49,-476 49,-470 55,-464 61,-464"/>
<g id="a_clust6_5"><a xlink:href="https://github.com/SWI-Prolog-Education/talespin-annie/tree/d750de657fdf5657d36e68835115c8d12ac7f2c6/fairy.pl" xlink:title="https://github.com/SWI&#45;Prolog&#45;Education/talespin&#45;annie/tree/d750de657fdf5657d36e68835115c8d12ac7f2c6/fairy.pl">
<text text-anchor="start" x="61" y="-551" font-family="Courier,monospace" font-size="10.00" fill="dimgray">fairy.pl</text>
</a>
</g>
</a>
</g>
</g>
<g id="clust7" class="cluster">
<title>cluster_file_/Users/pmoura/talespin&#45;annie/snail.pl</title>
<g id="a_clust7"><a xlink:title="snail.pl">
<path fill="snow" stroke="dimgray" d="M448,-167.5C448,-167.5 594,-167.5 594,-167.5 600,-167.5 606,-173.5 606,-179.5 606,-179.5 606,-258.5 606,-258.5 606,-264.5 600,-270.5 594,-270.5 594,-270.5 448,-270.5 448,-270.5 442,-270.5 436,-264.5 436,-258.5 436,-258.5 436,-179.5 436,-179.5 436,-173.5 442,-167.5 448,-167.5"/>
<g id="a_clust7_6"><a xlink:href="https://github.com/SWI-Prolog-Education/talespin-annie/tree/d750de657fdf5657d36e68835115c8d12ac7f2c6/snail.pl" xlink:title="https://github.com/SWI&#45;Prolog&#45;Education/talespin&#45;annie/tree/d750de657fdf5657d36e68835115c8d12ac7f2c6/snail.pl">
<text text-anchor="start" x="448" y="-254.5" font-family="Courier,monospace" font-size="10.00" fill="dimgray">snail.pl</text>
</a>
</g>
</a>
</g>
</g>
<!-- run -->
<g id="node1" class="node">
<title>run</title>
<g id="a_node1"><a xlink:title="module">
<polygon fill="plum" stroke="black" points="402,-531 312,-531 312,-535 300,-535 300,-474 402,-474 402,-531"/>
<polyline fill="none" stroke="black" points="300,-531 312,-531 "/>
<g id="a_node1_7"><a xlink:href="run_module_xref_diagram.svg" xlink:title="Zoom">
<image xlink:href="zoom.png" width="11px" height="11px" preserveAspectRatio="xMinYMin meet" x="308" y="-526.5"/>
</a>
</g>
<text text-anchor="start" x="310.8" y="-507.3" font-family="Courier,monospace" font-size="9.00"> </text>
<text text-anchor="start" x="344.1" y="-506.7" font-family="Courier,monospace" font-size="11.00">run</text>
<text text-anchor="start" x="388.8" y="-507.3" font-family="Courier,monospace" font-size="9.00"> </text>
<text text-anchor="start" x="310.8" y="-497.3" font-family="Courier,monospace" font-size="9.00"> </text>
<text text-anchor="start" x="341.4" y="-497.9" font-family="Courier,monospace" font-size="7.00">module</text>
<text text-anchor="start" x="388.8" y="-497.3" font-family="Courier,monospace" font-size="9.00"> </text>
<text text-anchor="start" x="310.8" y="-488.3" font-family="Courier,monospace" font-size="9.00"> </text>
<text text-anchor="start" x="310.8" y="-479.3" font-family="Courier,monospace" font-size="9.00"> </text>
<text text-anchor="start" x="318.89" y="-479.3" font-family="Courier,monospace" font-size="9.00">print_story/0</text>
<text text-anchor="start" x="388.8" y="-479.3" font-family="Courier,monospace" font-size="9.00"> </text>
</a>
</g>
</g>
<!-- talespin -->
<g id="node2" class="node">
<title>talespin</title>
<g id="a_node2"><a xlink:title="module">
<polygon fill="plum" stroke="black" points="234,-385 162,-385 162,-389 150,-389 150,-328 234,-328 234,-385"/>
<polyline fill="none" stroke="black" points="150,-385 162,-385 "/>
<g id="a_node2_8"><a xlink:href="talespin_module_xref_diagram.svg" xlink:title="Zoom">
<image xlink:href="zoom.png" width="11px" height="11px" preserveAspectRatio="xMinYMin meet" x="158" y="-380.5"/>
</a>
</g>
<text text-anchor="start" x="160.8" y="-361.3" font-family="Courier,monospace" font-size="9.00"> </text>
<text text-anchor="start" x="168.6" y="-360.7" font-family="Courier,monospace" font-size="11.00">talespin</text>
<text text-anchor="start" x="220.8" y="-361.3" font-family="Courier,monospace" font-size="9.00"> </text>
<text text-anchor="start" x="160.8" y="-351.3" font-family="Courier,monospace" font-size="9.00"> </text>
<text text-anchor="start" x="182.4" y="-351.9" font-family="Courier,monospace" font-size="7.00">module</text>
<text text-anchor="start" x="220.8" y="-351.3" font-family="Courier,monospace" font-size="9.00"> </text>
<text text-anchor="start" x="160.8" y="-342.3" font-family="Courier,monospace" font-size="9.00"> </text>
<text text-anchor="start" x="160.8" y="-333.3" font-family="Courier,monospace" font-size="9.00"> </text>
<text text-anchor="start" x="176.1" y="-333.3" font-family="Courier,monospace" font-size="9.00">story/4</text>
<text text-anchor="start" x="220.8" y="-333.3" font-family="Courier,monospace" font-size="9.00"> </text>
</a>
</g>
</g>
<!-- run&#45;&gt;talespin -->
<g id="edge2" class="edge">
<title>run&#45;&gt;talespin</title>
<path fill="none" stroke="black" d="M307.78,-473.72C292.7,-463.24 276.04,-450.76 261.99,-438 246.95,-424.34 231.95,-407.61 219.72,-392.94"/>
<polygon fill="black" stroke="black" points="222.28,-390.55 213.22,-385.04 216.87,-394.99 222.28,-390.55"/>
<g id="a_edge2&#45;label"><a xlink:title="use_module">
<text text-anchor="middle" x="288" y="-430.8" font-family="Courier,monospace" font-size="9.00">use_module</text>
</a>
</g>
</g>
<!-- anglify -->
<g id="node4" class="node">
<title>anglify</title>
<g id="a_node4"><a xlink:title="module">
<polygon fill="plum" stroke="black" points="344,-385 276,-385 276,-389 264,-389 264,-328 344,-328 344,-385"/>
<polyline fill="none" stroke="black" points="264,-385 276,-385 "/>
<g id="a_node4_9"><a xlink:href="anglify_module_xref_diagram.svg" xlink:title="Zoom">
<image xlink:href="zoom.png" width="11px" height="11px" preserveAspectRatio="xMinYMin meet" x="272" y="-380.5"/>
</a>
</g>
<text text-anchor="start" x="274.8" y="-361.3" font-family="Courier,monospace" font-size="9.00"> </text>
<text text-anchor="start" x="283.9" y="-360.7" font-family="Courier,monospace" font-size="11.00">anglify</text>
<text text-anchor="start" x="330.8" y="-361.3" font-family="Courier,monospace" font-size="9.00"> </text>
<text text-anchor="start" x="274.8" y="-351.3" font-family="Courier,monospace" font-size="9.00"> </text>
<text text-anchor="start" x="294.4" y="-351.9" font-family="Courier,monospace" font-size="7.00">module</text>
<text text-anchor="start" x="330.8" y="-351.3" font-family="Courier,monospace" font-size="9.00"> </text>
<text text-anchor="start" x="274.8" y="-342.3" font-family="Courier,monospace" font-size="9.00"> </text>
<text text-anchor="start" x="274.8" y="-333.3" font-family="Courier,monospace" font-size="9.00"> </text>
<text text-anchor="start" x="282.7" y="-333.3" font-family="Courier,monospace" font-size="9.00">anglify/2</text>
<text text-anchor="start" x="330.8" y="-333.3" font-family="Courier,monospace" font-size="9.00"> </text>
</a>
</g>
</g>
<!-- run&#45;&gt;anglify -->
<g id="edge4" class="edge">
<title>run&#45;&gt;anglify</title>
<path fill="none" stroke="black" d="M337.46,-473.8C332.45,-462.83 327.01,-450 322.99,-438 318.37,-424.22 314.44,-408.76 311.37,-395.09"/>
<polygon fill="black" stroke="black" points="314.73,-394.08 309.19,-385.05 307.89,-395.57 314.73,-394.08"/>
<g id="a_edge4&#45;label"><a xlink:title="use_module">
<text text-anchor="middle" x="349" y="-430.8" font-family="Courier,monospace" font-size="9.00">use_module</text>
</a>
</g>
</g>
<!-- snail -->
<g id="node6" class="node">
<title>snail</title>
<g id="a_node6"><a xlink:title="module">
<polygon fill="plum" stroke="black" points="596,-234.5 458,-234.5 458,-238.5 446,-238.5 446,-177.5 596,-177.5 596,-234.5"/>
<polyline fill="none" stroke="black" points="446,-234.5 458,-234.5 "/>
<g id="a_node6_10"><a xlink:href="snail_module_xref_diagram.svg" xlink:title="Zoom">
<image xlink:href="zoom.png" width="11px" height="11px" preserveAspectRatio="xMinYMin meet" x="454" y="-230"/>
</a>
</g>
<text text-anchor="start" x="456.8" y="-210.8" font-family="Courier,monospace" font-size="9.00"> </text>
<text text-anchor="start" x="507.5" y="-210.2" font-family="Courier,monospace" font-size="11.00">snail</text>
<text text-anchor="start" x="582.8" y="-210.8" font-family="Courier,monospace" font-size="9.00"> </text>
<text text-anchor="start" x="456.8" y="-200.8" font-family="Courier,monospace" font-size="9.00"> </text>
<text text-anchor="start" x="511.4" y="-201.4" font-family="Courier,monospace" font-size="7.00">module</text>
<text text-anchor="start" x="582.8" y="-200.8" font-family="Courier,monospace" font-size="9.00"> </text>
<text text-anchor="start" x="456.8" y="-191.8" font-family="Courier,monospace" font-size="9.00"> </text>
<text text-anchor="start" x="456.8" y="-182.8" font-family="Courier,monospace" font-size="9.00"> </text>
<text text-anchor="start" x="464.59" y="-182.8" font-family="Courier,monospace" font-size="9.00">planner:max_plan_len/2</text>
<text text-anchor="start" x="582.8" y="-182.8" font-family="Courier,monospace" font-size="9.00"> </text>
</a>
</g>
</g>
<!-- run&#45;&gt;snail -->
<g id="edge1" class="edge">
<title>run&#45;&gt;snail</title>
<path fill="none" stroke="black" d="M364.82,-473.73C369.57,-462.85 374.36,-450.1 377,-438 388.4,-385.85 356.63,-364.96 382,-318 397.59,-289.14 416.21,-295.28 442,-275 455.43,-264.44 469.7,-252.42 482.36,-241.46"/>
<polygon fill="black" stroke="black" points="484.77,-243.99 490.02,-234.79 480.18,-238.72 484.77,-243.99"/>
<g id="a_edge1&#45;label"><a xlink:title="use_module">
<text text-anchor="middle" x="409" y="-353.8" font-family="Courier,monospace" font-size="9.00">use_module</text>
</a>
</g>
</g>
<!-- prolog_pretty_print -->
<g id="node7" class="node">
<title>prolog_pretty_print</title>
<g id="a_node7"><a xlink:href="https://github.com/SWI-Prolog/swipl-devel/tree/master/library/pprint.pl" xlink:title="https://github.com/SWI&#45;Prolog/swipl&#45;devel/tree/master/library/pprint.pl">
<polygon fill="thistle" stroke="black" stroke-dasharray="5,2" points="605.5,-374.5 466.5,-374.5 466.5,-378.5 454.5,-378.5 454.5,-338.5 605.5,-338.5 605.5,-374.5"/>
<polyline fill="none" stroke="black" stroke-dasharray="5,2" points="454.5,-374.5 466.5,-374.5 "/>
<text text-anchor="start" x="462.8" y="-358.3" font-family="Courier,monospace" font-size="9.00"> </text>
<text text-anchor="start" x="467.79" y="-357.7" font-family="Courier,monospace" font-size="11.00">prolog_pretty_print</text>
<text text-anchor="start" x="592.8" y="-358.3" font-family="Courier,monospace" font-size="9.00"> </text>
<text text-anchor="start" x="462.8" y="-348.3" font-family="Courier,monospace" font-size="9.00"> </text>
<text text-anchor="start" x="517.9" y="-348.9" font-family="Courier,monospace" font-size="7.00">module</text>
<text text-anchor="start" x="592.8" y="-348.3" font-family="Courier,monospace" font-size="9.00"> </text>
</a>
</g>
</g>
<!-- run&#45;&gt;prolog_pretty_print -->
<g id="edge3" class="edge">
<title>run&#45;&gt;prolog_pretty_print</title>
<path fill="none" stroke="black" d="M385.51,-473.74C418.99,-446.8 469.23,-406.38 500.79,-381"/>
<polygon fill="black" stroke="black" points="503.18,-383.57 508.77,-374.58 498.79,-378.12 503.18,-383.57"/>
<g id="a_edge3&#45;label"><a xlink:title="use_module">
<text text-anchor="middle" x="467" y="-430.8" font-family="Courier,monospace" font-size="9.00">use_module</text>
</a>
</g>
</g>
<!-- planner -->
<g id="node3" class="node">
<title>planner</title>
<g id="a_node3"><a xlink:title="module">
<polygon fill="plum" stroke="black" points="334,-239 212,-239 212,-243 200,-243 200,-173 334,-173 334,-239"/>
<polyline fill="none" stroke="black" points="200,-239 212,-239 "/>
<g id="a_node3_11"><a xlink:href="planner_module_xref_diagram.svg" xlink:title="Zoom">
<image xlink:href="zoom.png" width="11px" height="11px" preserveAspectRatio="xMinYMin meet" x="208" y="-235"/>
</a>
</g>
<text text-anchor="start" x="210.8" y="-215.8" font-family="Courier,monospace" font-size="9.00"> </text>
<text text-anchor="start" x="246.9" y="-215.2" font-family="Courier,monospace" font-size="11.00">planner</text>
<text text-anchor="start" x="320.8" y="-215.8" font-family="Courier,monospace" font-size="9.00"> </text>
<text text-anchor="start" x="210.8" y="-205.8" font-family="Courier,monospace" font-size="9.00"> </text>
<text text-anchor="start" x="257.4" y="-206.4" font-family="Courier,monospace" font-size="7.00">module</text>
<text text-anchor="start" x="320.8" y="-205.8" font-family="Courier,monospace" font-size="9.00"> </text>
<text text-anchor="start" x="210.8" y="-196.8" font-family="Courier,monospace" font-size="9.00"> </text>
<text text-anchor="start" x="210.8" y="-187.8" font-family="Courier,monospace" font-size="9.00"> </text>
<text text-anchor="start" x="253.8" y="-187.8" font-family="Courier,monospace" font-size="9.00">plan/4</text>
<text text-anchor="start" x="320.8" y="-187.8" font-family="Courier,monospace" font-size="9.00"> </text>
<text text-anchor="start" x="210.8" y="-178.8" font-family="Courier,monospace" font-size="9.00"> </text>
<text text-anchor="start" x="218.69" y="-178.8" font-family="Courier,monospace" font-size="9.00">apply_action_dict/3</text>
<text text-anchor="start" x="320.8" y="-178.8" font-family="Courier,monospace" font-size="9.00"> </text>
</a>
</g>
</g>
<!-- talespin&#45;&gt;planner -->
<g id="edge5" class="edge">
<title>talespin&#45;&gt;planner</title>
<path fill="none" stroke="black" d="M205.93,-327.92C217.25,-305.51 233.39,-273.56 246.23,-248.13"/>
<polygon fill="black" stroke="black" points="249.41,-249.59 250.8,-239.08 243.16,-246.43 249.41,-249.59"/>
<g id="a_edge5&#45;label"><a xlink:title="use_module">
<text text-anchor="middle" x="254" y="-284.8" font-family="Courier,monospace" font-size="9.00">use_module</text>
</a>
</g>
</g>
<!-- lists -->
<g id="node8" class="node">
<title>lists</title>
<g id="a_node8"><a xlink:href="https://github.com/SWI-Prolog/swipl-devel/tree/master/library/lists.pl" xlink:title="https://github.com/SWI&#45;Prolog/swipl&#45;devel/tree/master/library/lists.pl">
<polygon fill="thistle" stroke="black" stroke-dasharray="5,2" points="510.5,-92 463.5,-92 463.5,-96 451.5,-96 451.5,-56 510.5,-56 510.5,-92"/>
<polyline fill="none" stroke="black" stroke-dasharray="5,2" points="451.5,-92 463.5,-92 "/>
<text text-anchor="start" x="459.8" y="-75.8" font-family="Courier,monospace" font-size="9.00"> </text>
<text text-anchor="start" x="465" y="-75.2" font-family="Courier,monospace" font-size="11.00">lists</text>
<text text-anchor="start" x="497.8" y="-75.8" font-family="Courier,monospace" font-size="9.00"> </text>
<text text-anchor="start" x="459.8" y="-65.8" font-family="Courier,monospace" font-size="9.00"> </text>
<text text-anchor="start" x="468.9" y="-66.4" font-family="Courier,monospace" font-size="7.00">module</text>
<text text-anchor="start" x="497.8" y="-65.8" font-family="Courier,monospace" font-size="9.00"> </text>
</a>
</g>
</g>
<!-- talespin&#45;&gt;lists -->
<g id="edge6" class="edge">
<title>talespin&#45;&gt;lists</title>
<path fill="none" stroke="black" d="M233.01,-327.84C238.64,-324.38 244.4,-321.01 250,-318 291.88,-295.46 317.02,-311.09 348,-275 381.57,-235.9 342.59,-200.45 377.99,-163 403.39,-136.13 430.2,-162.46 457,-137 466.74,-127.75 472.59,-114.09 476.06,-101.95"/>
<polygon fill="black" stroke="black" points="479.46,-102.78 478.46,-92.23 472.67,-101.1 479.46,-102.78"/>
<g id="a_edge6&#45;label"><a xlink:title="use_module">
<text text-anchor="middle" x="404" y="-203.3" font-family="Courier,monospace" font-size="9.00">use_module</text>
</a>
</g>
</g>
<!-- random -->
<g id="node9" class="node">
<title>random</title>
<g id="a_node9"><a xlink:href="https://github.com/SWI-Prolog/swipl-devel/tree/master/library/random.pl" xlink:title="https://github.com/SWI&#45;Prolog/swipl&#45;devel/tree/master/library/random.pl">
<polygon fill="thistle" stroke="black" stroke-dasharray="5,2" points="88.5,-92 35.5,-92 35.5,-96 23.5,-96 23.5,-56 88.5,-56 88.5,-92"/>
<polyline fill="none" stroke="black" stroke-dasharray="5,2" points="23.5,-92 35.5,-92 "/>
<text text-anchor="start" x="31.8" y="-75.8" font-family="Courier,monospace" font-size="9.00"> </text>
<text text-anchor="start" x="36.7" y="-75.2" font-family="Courier,monospace" font-size="11.00">random</text>
<text text-anchor="start" x="75.8" y="-75.8" font-family="Courier,monospace" font-size="9.00"> </text>
<text text-anchor="start" x="31.8" y="-65.8" font-family="Courier,monospace" font-size="9.00"> </text>
<text text-anchor="start" x="43.9" y="-66.4" font-family="Courier,monospace" font-size="7.00">module</text>
<text text-anchor="start" x="75.8" y="-65.8" font-family="Courier,monospace" font-size="9.00"> </text>
</a>
</g>
</g>
<!-- talespin&#45;&gt;random -->
<g id="edge7" class="edge">
<title>talespin&#45;&gt;random</title>
<path fill="none" stroke="black" d="M149.95,-343.61C117.37,-331.94 74.44,-310.6 53.99,-275 22.57,-220.29 36.76,-142.5 47.65,-101.95"/>
<polygon fill="black" stroke="black" points="51.04,-102.82 50.38,-92.24 44.3,-100.92 51.04,-102.82"/>
<g id="a_edge7&#45;label"><a xlink:title="use_module">
<text text-anchor="middle" x="80" y="-203.3" font-family="Courier,monospace" font-size="9.00">use_module</text>
</a>
</g>
</g>
<!-- apply -->
<g id="node10" class="node">
<title>apply</title>
<g id="a_node10"><a xlink:href="https://github.com/SWI-Prolog/swipl-devel/tree/master/library/apply.pl" xlink:title="https://github.com/SWI&#45;Prolog/swipl&#45;devel/tree/master/library/apply.pl">
<polygon fill="thistle" stroke="black" stroke-dasharray="5,2" points="183.5,-92 136.5,-92 136.5,-96 124.5,-96 124.5,-56 183.5,-56 183.5,-92"/>
<polyline fill="none" stroke="black" stroke-dasharray="5,2" points="124.5,-92 136.5,-92 "/>
<text text-anchor="start" x="132.8" y="-75.8" font-family="Courier,monospace" font-size="9.00"> </text>
<text text-anchor="start" x="138" y="-75.2" font-family="Courier,monospace" font-size="11.00">apply</text>
<text text-anchor="start" x="170.8" y="-75.8" font-family="Courier,monospace" font-size="9.00"> </text>
<text text-anchor="start" x="132.8" y="-65.8" font-family="Courier,monospace" font-size="9.00"> </text>
<text text-anchor="start" x="141.9" y="-66.4" font-family="Courier,monospace" font-size="7.00">module</text>
<text text-anchor="start" x="170.8" y="-65.8" font-family="Courier,monospace" font-size="9.00"> </text>
</a>
</g>
</g>
<!-- talespin&#45;&gt;apply -->
<g id="edge8" class="edge">
<title>talespin&#45;&gt;apply</title>
<path fill="none" stroke="black" d="M164.99,-327.74C152.63,-313.23 139.16,-294.47 131.99,-275 109.37,-213.58 105.88,-191.18 123,-128 125.58,-118.48 130.34,-108.92 135.38,-100.59"/>
<polygon fill="black" stroke="black" points="138.38,-102.39 140.85,-92.09 132.49,-98.6 138.38,-102.39"/>
<g id="a_edge8&#45;label"><a xlink:title="use_module">
<text text-anchor="middle" x="158" y="-203.3" font-family="Courier,monospace" font-size="9.00">use_module</text>
</a>
</g>
</g>
<!-- planner&#45;&gt;lists -->
<g id="edge9" class="edge">
<title>planner&#45;&gt;lists</title>
<path fill="none" stroke="black" d="M320.76,-172.91C326.56,-169.53 332.39,-166.18 338,-163 359.11,-151.04 365.16,-149.42 386,-137 406.79,-124.61 429.51,-109.83 447.52,-97.81"/>
<polygon fill="black" stroke="black" points="449.6,-100.63 455.95,-92.15 445.7,-94.82 449.6,-100.63"/>
<g id="a_edge9&#45;label"><a xlink:title="use_module">
<text text-anchor="middle" x="426" y="-129.8" font-family="Courier,monospace" font-size="9.00">use_module</text>
</a>
</g>
</g>
<!-- planner&#45;&gt;random -->
<g id="edge12" class="edge">
<title>planner&#45;&gt;random</title>
<path fill="none" stroke="black" d="M214.21,-172.99C208.12,-169.53 201.96,-166.13 196,-163 171.71,-150.22 163.6,-151 139.99,-137 120.79,-125.61 100.62,-110.83 84.86,-98.55"/>
<polygon fill="black" stroke="black" points="86.61,-95.48 76.59,-92.03 82.27,-100.97 86.61,-95.48"/>
<g id="a_edge12&#45;label"><a xlink:title="use_module">
<text text-anchor="middle" x="166" y="-129.8" font-family="Courier,monospace" font-size="9.00">use_module</text>
</a>
</g>
</g>
<!-- planner&#45;&gt;apply -->
<g id="edge13" class="edge">
<title>planner&#45;&gt;apply</title>
<path fill="none" stroke="black" d="M237.61,-172.68C227.5,-161.46 216.18,-148.74 205.99,-137 195.55,-124.96 184.15,-111.41 174.69,-100.06"/>
<polygon fill="black" stroke="black" points="177.27,-97.69 168.19,-92.24 171.89,-102.16 177.27,-97.69"/>
<g id="a_edge13&#45;label"><a xlink:title="use_module">
<text text-anchor="middle" x="232" y="-129.8" font-family="Courier,monospace" font-size="9.00">use_module</text>
</a>
</g>
</g>
<!-- ordsets -->
<g id="node11" class="node">
<title>ordsets</title>
<g id="a_node11"><a xlink:href="https://github.com/SWI-Prolog/swipl-devel/tree/master/library/ordsets.pl" xlink:title="https://github.com/SWI&#45;Prolog/swipl&#45;devel/tree/master/library/ordsets.pl">
<polygon fill="thistle" stroke="black" stroke-dasharray="5,2" points="406,-92 346,-92 346,-96 334,-96 334,-56 406,-56 406,-92"/>
<polyline fill="none" stroke="black" stroke-dasharray="5,2" points="334,-92 346,-92 "/>
<text text-anchor="start" x="341.8" y="-75.8" font-family="Courier,monospace" font-size="9.00"> </text>
<text text-anchor="start" x="346.9" y="-75.2" font-family="Courier,monospace" font-size="11.00">ordsets</text>
<text text-anchor="start" x="392.8" y="-75.8" font-family="Courier,monospace" font-size="9.00"> </text>
<text text-anchor="start" x="341.8" y="-65.8" font-family="Courier,monospace" font-size="9.00"> </text>
<text text-anchor="start" x="357.4" y="-66.4" font-family="Courier,monospace" font-size="7.00">module</text>
<text text-anchor="start" x="392.8" y="-65.8" font-family="Courier,monospace" font-size="9.00"> </text>
</a>
</g>
</g>
<!-- planner&#45;&gt;ordsets -->
<g id="edge10" class="edge">
<title>planner&#45;&gt;ordsets</title>
<path fill="none" stroke="black" d="M293.16,-172.94C302.33,-161.63 312.67,-148.79 322,-137 331.49,-125.01 341.9,-111.6 350.59,-100.33"/>
<polygon fill="black" stroke="black" points="353.53,-102.24 356.85,-92.18 347.98,-97.97 353.53,-102.24"/>
<g id="a_edge10&#45;label"><a xlink:title="use_module">
<text text-anchor="middle" x="355" y="-129.8" font-family="Courier,monospace" font-size="9.00">use_module</text>
</a>
</g>
</g>
<!-- prolog_debug -->
<g id="node12" class="node">
<title>prolog_debug</title>
<g id="a_node12"><a xlink:href="https://github.com/SWI-Prolog/swipl-devel/tree/master/library/debug.pl" xlink:title="https://github.com/SWI&#45;Prolog/swipl&#45;devel/tree/master/library/debug.pl">
<polygon fill="thistle" stroke="black" stroke-dasharray="5,2" points="315.5,-92 222.5,-92 222.5,-96 210.5,-96 210.5,-56 315.5,-56 315.5,-92"/>
<polyline fill="none" stroke="black" stroke-dasharray="5,2" points="210.5,-92 222.5,-92 "/>
<text text-anchor="start" x="218.8" y="-75.8" font-family="Courier,monospace" font-size="9.00"> </text>
<text text-anchor="start" x="223.89" y="-75.2" font-family="Courier,monospace" font-size="11.00">prolog_debug</text>
<text text-anchor="start" x="302.8" y="-75.8" font-family="Courier,monospace" font-size="9.00"> </text>
<text text-anchor="start" x="218.8" y="-65.8" font-family="Courier,monospace" font-size="9.00"> </text>
<text text-anchor="start" x="250.9" y="-66.4" font-family="Courier,monospace" font-size="7.00">module</text>
<text text-anchor="start" x="302.8" y="-65.8" font-family="Courier,monospace" font-size="9.00"> </text>
</a>
</g>
</g>
<!-- planner&#45;&gt;prolog_debug -->
<g id="edge11" class="edge">
<title>planner&#45;&gt;prolog_debug</title>
<path fill="none" stroke="black" d="M266.01,-172.87C265.34,-151.2 264.47,-122.91 263.84,-102.33"/>
<polygon fill="black" stroke="black" points="267.33,-101.95 263.52,-92.06 260.33,-102.16 267.33,-101.95"/>
<g id="a_edge11&#45;label"><a xlink:title="use_module">
<text text-anchor="middle" x="291" y="-129.8" font-family="Courier,monospace" font-size="9.00">use_module</text>
</a>
</g>
</g>
<!-- fairy -->
<g id="node5" class="node">
<title>fairy</title>
<g id="a_node5"><a xlink:title="module">
<polygon fill="plum" stroke="black" points="209,-531 71,-531 71,-535 59,-535 59,-474 209,-474 209,-531"/>
<polyline fill="none" stroke="black" points="59,-531 71,-531 "/>
<g id="a_node5_12"><a xlink:href="fairy_module_xref_diagram.svg" xlink:title="Zoom">
<image xlink:href="zoom.png" width="11px" height="11px" preserveAspectRatio="xMinYMin meet" x="67" y="-526.5"/>
</a>
</g>
<text text-anchor="start" x="69.8" y="-507.3" font-family="Courier,monospace" font-size="9.00"> </text>
<text text-anchor="start" x="120.5" y="-506.7" font-family="Courier,monospace" font-size="11.00">fairy</text>
<text text-anchor="start" x="195.8" y="-507.3" font-family="Courier,monospace" font-size="9.00"> </text>
<text text-anchor="start" x="69.8" y="-497.3" font-family="Courier,monospace" font-size="9.00"> </text>
<text text-anchor="start" x="124.4" y="-497.9" font-family="Courier,monospace" font-size="7.00">module</text>
<text text-anchor="start" x="195.8" y="-497.3" font-family="Courier,monospace" font-size="9.00"> </text>
<text text-anchor="start" x="69.8" y="-488.3" font-family="Courier,monospace" font-size="9.00"> </text>
<text text-anchor="start" x="69.8" y="-479.3" font-family="Courier,monospace" font-size="9.00"> </text>
<text text-anchor="start" x="77.59" y="-479.3" font-family="Courier,monospace" font-size="9.00">planner:max_plan_len/2</text>
<text text-anchor="start" x="195.8" y="-479.3" font-family="Courier,monospace" font-size="9.00"> </text>
</a>
</g>
</g>
<!-- snail&#45;&gt;lists -->
<g id="edge14" class="edge">
<title>snail&#45;&gt;lists</title>
<path fill="none" stroke="black" d="M512.52,-177.43C505.67,-155.17 496.08,-124.02 489.29,-101.93"/>
<polygon fill="black" stroke="black" points="492.57,-100.72 486.29,-92.19 485.88,-102.77 492.57,-100.72"/>
<g id="a_edge14&#45;label"><a xlink:title="use_module">
<text text-anchor="middle" x="526" y="-129.8" font-family="Courier,monospace" font-size="9.00">use_module</text>
</a>
</g>
</g>
</g>
</svg>
