<?xml version="1.0" encoding="UTF-8" standalone="no"?>
<!DOCTYPE svg PUBLIC "-//W3C//DTD SVG 1.1//EN"
 "http://www.w3.org/Graphics/SVG/1.1/DTD/svg11.dtd">
<!-- Generated by graphviz version 2.41.20190410.0829 (20190410.0829)
 -->
<!-- Title: talespin Pages: 1 -->
<svg width="348pt" height="291pt"
 viewBox="72.00 72.00 276.03 219.00" xmlns="http://www.w3.org/2000/svg" xmlns:xlink="http://www.w3.org/1999/xlink">
<g id="graph0" class="graph" transform="scale(1 1) rotate(0) translate(76 215)">
<title>talespin</title>
<polygon fill="white" stroke="transparent" points="-4,4 -4,-143 200.03,-143 200.03,4 -4,4"/>
<text text-anchor="start" x="8" y="-26" font-family="Courier,monospace" font-size="10.00" fill="dimgray">TaleSpin application</text>
<text text-anchor="start" x="8" y="-16" font-family="Courier,monospace" font-size="10.00" fill="dimgray">Directory load diagram</text>
<text text-anchor="start" x="8" y="-6" font-family="Courier,monospace" font-size="10.00" fill="dimgray">Generated on 2019/04/30, 21:26</text>
<g id="clust1" class="cluster">
<title>cluster_directory_talespin</title>
<g id="a_clust1"><a xlink:title="./">
<path fill="whitesmoke" stroke="dimgray" d="M65.01,-46C65.01,-46 131.01,-46 131.01,-46 137.01,-46 143.01,-52 143.01,-58 143.01,-58 143.01,-119 143.01,-119 143.01,-125 137.01,-131 131.01,-131 131.01,-131 65.01,-131 65.01,-131 59.01,-131 53.01,-125 53.01,-119 53.01,-119 53.01,-58 53.01,-58 53.01,-52 59.01,-46 65.01,-46"/>
<g id="a_clust1_0"><a xlink:href="https://github.com/SWI-Prolog-Education/talespin-annie/tree/d750de657fdf5657d36e68835115c8d12ac7f2c6/" xlink:title="https://github.com/SWI&#45;Prolog&#45;Education/talespin&#45;annie/tree/d750de657fdf5657d36e68835115c8d12ac7f2c6/">
<text text-anchor="start" x="65.01" y="-115" font-family="Courier,monospace" font-size="10.00" fill="dimgray">./</text>
</a>
</g>
</a>
</g>
</g>
<!-- /Users/pmoura/talespin&#45;annie/ -->
<g id="node1" class="node">
<title>/Users/pmoura/talespin&#45;annie/</title>
<g id="a_node1"><a xlink:href="https://github.com/SWI-Prolog-Education/talespin-annie/tree/d750de657fdf5657d36e68835115c8d12ac7f2c6/" xlink:title="https://github.com/SWI&#45;Prolog&#45;Education/talespin&#45;annie/tree/d750de657fdf5657d36e68835115c8d12ac7f2c6/">
<polygon fill="lightsalmon" stroke="black" points="132.51,-95 75.51,-95 75.51,-99 63.51,-99 63.51,-56 132.51,-56 132.51,-95"/>
<polyline fill="none" stroke="black" points="63.51,-95 75.51,-95 "/>
<g id="a_node1_1"><a xlink:href="talespin_file_load_diagram.svg" xlink:title="Zoom">
<image xlink:href="zoom.png" width="11px" height="11px" preserveAspectRatio="xMinYMin meet" x="72.0146" y="-90.5"/>
</a>
</g>
<text text-anchor="start" x="74.81" y="-71.3" font-family="Courier,monospace" font-size="9.00"> </text>
<text text-anchor="start" x="94.91" y="-70.7" font-family="Courier,monospace" font-size="11.00">./</text>
<text text-anchor="start" x="119.81" y="-71.3" font-family="Courier,monospace" font-size="9.00"> </text>
<text text-anchor="start" x="74.81" y="-61.3" font-family="Courier,monospace" font-size="9.00"> </text>
<text text-anchor="start" x="82.61" y="-61.9" font-family="Courier,monospace" font-size="7.00">directory</text>
<text text-anchor="start" x="119.81" y="-61.3" font-family="Courier,monospace" font-size="9.00"> </text>
</a>
</g>
</g>
</g>
</svg>
