<?xml version="1.0" encoding="UTF-8" standalone="no"?>
<!DOCTYPE svg PUBLIC "-//W3C//DTD SVG 1.1//EN"
 "http://www.w3.org/Graphics/SVG/1.1/DTD/svg11.dtd">
<!-- Generated by graphviz version 2.41.20190410.0829 (20190410.0829)
 -->
<!-- Title: talespin Pages: 1 -->
<svg width="924pt" height="763pt"
 viewBox="72.00 72.00 852.00 691.00" xmlns="http://www.w3.org/2000/svg" xmlns:xlink="http://www.w3.org/1999/xlink">
<g id="graph0" class="graph" transform="scale(1 1) rotate(0) translate(76 687)">
<title>talespin</title>
<polygon fill="white" stroke="transparent" points="-4,4 -4,-615 776,-615 776,4 -4,4"/>
<text text-anchor="start" x="8" y="-26" font-family="Courier,monospace" font-size="10.00" fill="dimgray">TaleSpin application</text>
<text text-anchor="start" x="8" y="-16" font-family="Courier,monospace" font-size="10.00" fill="dimgray">Entity diagram</text>
<text text-anchor="start" x="8" y="-6" font-family="Courier,monospace" font-size="10.00" fill="dimgray">Generated on 2019/04/30, 21:26</text>
<g id="clust1" class="cluster">
<title>cluster_directory_talespin</title>
<g id="a_clust1"><a xlink:title="./">
<path fill="whitesmoke" stroke="dimgray" d="M20,-46C20,-46 752,-46 752,-46 758,-46 764,-52 764,-58 764,-58 764,-591 764,-591 764,-597 758,-603 752,-603 752,-603 20,-603 20,-603 14,-603 8,-597 8,-591 8,-591 8,-58 8,-58 8,-52 14,-46 20,-46"/>
<g id="a_clust1_0"><a xlink:href="https://github.com/SWI-Prolog-Education/talespin-annie/tree/d750de657fdf5657d36e68835115c8d12ac7f2c6/" xlink:title="https://github.com/SWI&#45;Prolog&#45;Education/talespin&#45;annie/tree/d750de657fdf5657d36e68835115c8d12ac7f2c6/">
<text text-anchor="start" x="20" y="-587" font-family="Courier,monospace" font-size="10.00" fill="dimgray">./</text>
</a>
</g>
</a>
</g>
</g>
<g id="clust2" class="cluster">
<title>cluster_file_/Users/pmoura/talespin&#45;annie/run.pl</title>
<g id="a_clust2"><a xlink:title="run.pl">
<path fill="snow" stroke="dimgray" d="M385,-464C385,-464 483,-464 483,-464 489,-464 495,-470 495,-476 495,-476 495,-555 495,-555 495,-561 489,-567 483,-567 483,-567 385,-567 385,-567 379,-567 373,-561 373,-555 373,-555 373,-476 373,-476 373,-470 379,-464 385,-464"/>
<g id="a_clust2_1"><a xlink:href="https://github.com/SWI-Prolog-Education/talespin-annie/tree/d750de657fdf5657d36e68835115c8d12ac7f2c6/run.pl" xlink:title="https://github.com/SWI&#45;Prolog&#45;Education/talespin&#45;annie/tree/d750de657fdf5657d36e68835115c8d12ac7f2c6/run.pl">
<text text-anchor="start" x="385" y="-551" font-family="Courier,monospace" font-size="10.00" fill="dimgray">run.pl</text>
</a>
</g>
</a>
</g>
</g>
<g id="clust3" class="cluster">
<title>cluster_file_/Users/pmoura/talespin&#45;annie/talespin.pl</title>
<g id="a_clust3"><a xlink:title="talespin.pl">
<path fill="snow" stroke="dimgray" d="M30,-318C30,-318 110,-318 110,-318 116,-318 122,-324 122,-330 122,-330 122,-409 122,-409 122,-415 116,-421 110,-421 110,-421 30,-421 30,-421 24,-421 18,-415 18,-409 18,-409 18,-330 18,-330 18,-324 24,-318 30,-318"/>
<g id="a_clust3_2"><a xlink:href="https://github.com/SWI-Prolog-Education/talespin-annie/tree/d750de657fdf5657d36e68835115c8d12ac7f2c6/talespin.pl" xlink:title="https://github.com/SWI&#45;Prolog&#45;Education/talespin&#45;annie/tree/d750de657fdf5657d36e68835115c8d12ac7f2c6/talespin.pl">
<text text-anchor="start" x="29.99" y="-405" font-family="Courier,monospace" font-size="10.00" fill="dimgray">talespin.pl</text>
</a>
</g>
</a>
</g>
</g>
<g id="clust4" class="cluster">
<title>cluster_file_/Users/pmoura/talespin&#45;annie/planner.pl</title>
<g id="a_clust4"><a xlink:title="planner.pl">
<path fill="snow" stroke="dimgray" d="M203,-163C203,-163 333,-163 333,-163 339,-163 345,-169 345,-175 345,-175 345,-263 345,-263 345,-269 339,-275 333,-275 333,-275 203,-275 203,-275 197,-275 191,-269 191,-263 191,-263 191,-175 191,-175 191,-169 197,-163 203,-163"/>
<g id="a_clust4_3"><a xlink:href="https://github.com/SWI-Prolog-Education/talespin-annie/tree/d750de657fdf5657d36e68835115c8d12ac7f2c6/planner.pl" xlink:title="https://github.com/SWI&#45;Prolog&#45;Education/talespin&#45;annie/tree/d750de657fdf5657d36e68835115c8d12ac7f2c6/planner.pl">
<text text-anchor="start" x="203" y="-259" font-family="Courier,monospace" font-size="10.00" fill="dimgray">planner.pl</text>
</a>
</g>
</a>
</g>
</g>
<g id="clust5" class="cluster">
<title>cluster_file_/Users/pmoura/talespin&#45;annie/anglify.pl</title>
<g id="a_clust5"><a xlink:title="anglify.pl">
<path fill="snow" stroke="dimgray" d="M324,-318C324,-318 400,-318 400,-318 406,-318 412,-324 412,-330 412,-330 412,-409 412,-409 412,-415 406,-421 400,-421 400,-421 324,-421 324,-421 318,-421 312,-415 312,-409 312,-409 312,-330 312,-330 312,-324 318,-318 324,-318"/>
<g id="a_clust5_4"><a xlink:href="https://github.com/SWI-Prolog-Education/talespin-annie/tree/d750de657fdf5657d36e68835115c8d12ac7f2c6/anglify.pl" xlink:title="https://github.com/SWI&#45;Prolog&#45;Education/talespin&#45;annie/tree/d750de657fdf5657d36e68835115c8d12ac7f2c6/anglify.pl">
<text text-anchor="start" x="324" y="-405" font-family="Courier,monospace" font-size="10.00" fill="dimgray">anglify.pl</text>
</a>
</g>
</a>
</g>
</g>
<g id="clust6" class="cluster">
<title>cluster_file_/Users/pmoura/talespin&#45;annie/fairy.pl</title>
<g id="a_clust6"><a xlink:title="fairy.pl">
<path fill="snow" stroke="dimgray" d="M144,-318C144,-318 290,-318 290,-318 296,-318 302,-324 302,-330 302,-330 302,-409 302,-409 302,-415 296,-421 290,-421 290,-421 144,-421 144,-421 138,-421 132,-415 132,-409 132,-409 132,-330 132,-330 132,-324 138,-318 144,-318"/>
<g id="a_clust6_5"><a xlink:href="https://github.com/SWI-Prolog-Education/talespin-annie/tree/d750de657fdf5657d36e68835115c8d12ac7f2c6/fairy.pl" xlink:title="https://github.com/SWI&#45;Prolog&#45;Education/talespin&#45;annie/tree/d750de657fdf5657d36e68835115c8d12ac7f2c6/fairy.pl">
<text text-anchor="start" x="144" y="-405" font-family="Courier,monospace" font-size="10.00" fill="dimgray">fairy.pl</text>
</a>
</g>
</a>
</g>
</g>
<g id="clust7" class="cluster">
<title>cluster_file_/Users/pmoura/talespin&#45;annie/snail.pl</title>
<g id="a_clust7"><a xlink:title="snail.pl">
<path fill="snow" stroke="dimgray" d="M434,-318C434,-318 580,-318 580,-318 586,-318 592,-324 592,-330 592,-330 592,-409 592,-409 592,-415 586,-421 580,-421 580,-421 434,-421 434,-421 428,-421 422,-415 422,-409 422,-409 422,-330 422,-330 422,-324 428,-318 434,-318"/>
<g id="a_clust7_6"><a xlink:href="https://github.com/SWI-Prolog-Education/talespin-annie/tree/d750de657fdf5657d36e68835115c8d12ac7f2c6/snail.pl" xlink:title="https://github.com/SWI&#45;Prolog&#45;Education/talespin&#45;annie/tree/d750de657fdf5657d36e68835115c8d12ac7f2c6/snail.pl">
<text text-anchor="start" x="434" y="-405" font-family="Courier,monospace" font-size="10.00" fill="dimgray">snail.pl</text>
</a>
</g>
</a>
</g>
</g>
<!-- run -->
<g id="node1" class="node">
<title>run</title>
<g id="a_node1"><a xlink:title="module">
<polygon fill="plum" stroke="black" points="485,-531 395,-531 395,-535 383,-535 383,-474 485,-474 485,-531"/>
<polyline fill="none" stroke="black" points="383,-531 395,-531 "/>
<g id="a_node1_7"><a xlink:href="run_module_xref_diagram.svg" xlink:title="Zoom">
<image xlink:href="zoom.png" width="11px" height="11px" preserveAspectRatio="xMinYMin meet" x="391" y="-526.5"/>
</a>
</g>
<text text-anchor="start" x="393.8" y="-507.3" font-family="Courier,monospace" font-size="9.00"> </text>
<text text-anchor="start" x="427.1" y="-506.7" font-family="Courier,monospace" font-size="11.00">run</text>
<text text-anchor="start" x="471.8" y="-507.3" font-family="Courier,monospace" font-size="9.00"> </text>
<text text-anchor="start" x="393.8" y="-497.3" font-family="Courier,monospace" font-size="9.00"> </text>
<text text-anchor="start" x="424.4" y="-497.9" font-family="Courier,monospace" font-size="7.00">module</text>
<text text-anchor="start" x="471.8" y="-497.3" font-family="Courier,monospace" font-size="9.00"> </text>
<text text-anchor="start" x="393.8" y="-488.3" font-family="Courier,monospace" font-size="9.00"> </text>
<text text-anchor="start" x="393.8" y="-479.3" font-family="Courier,monospace" font-size="9.00"> </text>
<text text-anchor="start" x="401.89" y="-479.3" font-family="Courier,monospace" font-size="9.00">print_story/0</text>
<text text-anchor="start" x="471.8" y="-479.3" font-family="Courier,monospace" font-size="9.00"> </text>
</a>
</g>
</g>
<!-- talespin -->
<g id="node2" class="node">
<title>talespin</title>
<g id="a_node2"><a xlink:title="module">
<polygon fill="plum" stroke="black" points="112,-385 40,-385 40,-389 28,-389 28,-328 112,-328 112,-385"/>
<polyline fill="none" stroke="black" points="28,-385 40,-385 "/>
<g id="a_node2_8"><a xlink:href="talespin_module_xref_diagram.svg" xlink:title="Zoom">
<image xlink:href="zoom.png" width="11px" height="11px" preserveAspectRatio="xMinYMin meet" x="36" y="-380.5"/>
</a>
</g>
<text text-anchor="start" x="38.8" y="-361.3" font-family="Courier,monospace" font-size="9.00"> </text>
<text text-anchor="start" x="46.6" y="-360.7" font-family="Courier,monospace" font-size="11.00">talespin</text>
<text text-anchor="start" x="98.8" y="-361.3" font-family="Courier,monospace" font-size="9.00"> </text>
<text text-anchor="start" x="38.8" y="-351.3" font-family="Courier,monospace" font-size="9.00"> </text>
<text text-anchor="start" x="60.4" y="-351.9" font-family="Courier,monospace" font-size="7.00">module</text>
<text text-anchor="start" x="98.8" y="-351.3" font-family="Courier,monospace" font-size="9.00"> </text>
<text text-anchor="start" x="38.8" y="-342.3" font-family="Courier,monospace" font-size="9.00"> </text>
<text text-anchor="start" x="38.8" y="-333.3" font-family="Courier,monospace" font-size="9.00"> </text>
<text text-anchor="start" x="54.1" y="-333.3" font-family="Courier,monospace" font-size="9.00">story/4</text>
<text text-anchor="start" x="98.8" y="-333.3" font-family="Courier,monospace" font-size="9.00"> </text>
</a>
</g>
</g>
<!-- run&#45;&gt;talespin -->
<g id="edge2" class="edge">
<title>run&#45;&gt;talespin</title>
<path fill="none" stroke="black" d="M382.9,-496.98C319.19,-489.43 208.85,-469.9 128,-421 115.99,-413.73 104.97,-403.24 95.85,-392.87"/>
<polygon fill="black" stroke="black" points="98.36,-390.42 89.25,-385.01 93,-394.92 98.36,-390.42"/>
<g id="a_edge2&#45;label"><a xlink:title="use_module">
<text text-anchor="middle" x="185" y="-430.8" font-family="Courier,monospace" font-size="9.00">use_module</text>
</a>
</g>
</g>
<!-- anglify -->
<g id="node4" class="node">
<title>anglify</title>
<g id="a_node4"><a xlink:title="module">
<polygon fill="plum" stroke="black" points="402,-385 334,-385 334,-389 322,-389 322,-328 402,-328 402,-385"/>
<polyline fill="none" stroke="black" points="322,-385 334,-385 "/>
<g id="a_node4_9"><a xlink:href="anglify_module_xref_diagram.svg" xlink:title="Zoom">
<image xlink:href="zoom.png" width="11px" height="11px" preserveAspectRatio="xMinYMin meet" x="330" y="-380.5"/>
</a>
</g>
<text text-anchor="start" x="332.8" y="-361.3" font-family="Courier,monospace" font-size="9.00"> </text>
<text text-anchor="start" x="341.9" y="-360.7" font-family="Courier,monospace" font-size="11.00">anglify</text>
<text text-anchor="start" x="388.8" y="-361.3" font-family="Courier,monospace" font-size="9.00"> </text>
<text text-anchor="start" x="332.8" y="-351.3" font-family="Courier,monospace" font-size="9.00"> </text>
<text text-anchor="start" x="352.4" y="-351.9" font-family="Courier,monospace" font-size="7.00">module</text>
<text text-anchor="start" x="388.8" y="-351.3" font-family="Courier,monospace" font-size="9.00"> </text>
<text text-anchor="start" x="332.8" y="-342.3" font-family="Courier,monospace" font-size="9.00"> </text>
<text text-anchor="start" x="332.8" y="-333.3" font-family="Courier,monospace" font-size="9.00"> </text>
<text text-anchor="start" x="340.7" y="-333.3" font-family="Courier,monospace" font-size="9.00">anglify/2</text>
<text text-anchor="start" x="388.8" y="-333.3" font-family="Courier,monospace" font-size="9.00"> </text>
</a>
</g>
</g>
<!-- run&#45;&gt;anglify -->
<g id="edge4" class="edge">
<title>run&#45;&gt;anglify</title>
<path fill="none" stroke="black" d="M420.12,-473.74C408.81,-451.12 392.76,-419.01 380.38,-394.27"/>
<polygon fill="black" stroke="black" points="383.44,-392.56 375.84,-385.18 377.18,-395.69 383.44,-392.56"/>
<g id="a_edge4&#45;label"><a xlink:title="use_module">
<text text-anchor="middle" x="427" y="-430.8" font-family="Courier,monospace" font-size="9.00">use_module</text>
</a>
</g>
</g>
<!-- snail -->
<g id="node6" class="node">
<title>snail</title>
<g id="a_node6"><a xlink:title="module">
<polygon fill="plum" stroke="black" points="582,-385 444,-385 444,-389 432,-389 432,-328 582,-328 582,-385"/>
<polyline fill="none" stroke="black" points="432,-385 444,-385 "/>
<g id="a_node6_10"><a xlink:href="snail_module_xref_diagram.svg" xlink:title="Zoom">
<image xlink:href="zoom.png" width="11px" height="11px" preserveAspectRatio="xMinYMin meet" x="440" y="-380.5"/>
</a>
</g>
<text text-anchor="start" x="442.8" y="-361.3" font-family="Courier,monospace" font-size="9.00"> </text>
<text text-anchor="start" x="493.5" y="-360.7" font-family="Courier,monospace" font-size="11.00">snail</text>
<text text-anchor="start" x="568.8" y="-361.3" font-family="Courier,monospace" font-size="9.00"> </text>
<text text-anchor="start" x="442.8" y="-351.3" font-family="Courier,monospace" font-size="9.00"> </text>
<text text-anchor="start" x="497.4" y="-351.9" font-family="Courier,monospace" font-size="7.00">module</text>
<text text-anchor="start" x="568.8" y="-351.3" font-family="Courier,monospace" font-size="9.00"> </text>
<text text-anchor="start" x="442.8" y="-342.3" font-family="Courier,monospace" font-size="9.00"> </text>
<text text-anchor="start" x="442.8" y="-333.3" font-family="Courier,monospace" font-size="9.00"> </text>
<text text-anchor="start" x="450.59" y="-333.3" font-family="Courier,monospace" font-size="9.00">planner:max_plan_len/2</text>
<text text-anchor="start" x="568.8" y="-333.3" font-family="Courier,monospace" font-size="9.00"> </text>
</a>
</g>
</g>
<!-- run&#45;&gt;snail -->
<g id="edge1" class="edge">
<title>run&#45;&gt;snail</title>
<path fill="none" stroke="black" d="M448.08,-473.74C459.54,-451.12 475.82,-419.01 488.36,-394.27"/>
<polygon fill="black" stroke="black" points="491.57,-395.68 492.97,-385.18 485.32,-392.52 491.57,-395.68"/>
<g id="a_edge1&#45;label"><a xlink:title="use_module">
<text text-anchor="middle" x="497" y="-430.8" font-family="Courier,monospace" font-size="9.00">use_module</text>
</a>
</g>
</g>
<!-- prolog_pretty_print -->
<g id="node7" class="node">
<title>prolog_pretty_print</title>
<g id="a_node7"><a xlink:href="https://github.com/SWI-Prolog/swipl-devel/tree/master/library/pprint.pl" xlink:title="https://github.com/SWI&#45;Prolog/swipl&#45;devel/tree/master/library/pprint.pl">
<polygon fill="thistle" stroke="black" stroke-dasharray="5,2" points="753.5,-374.5 614.5,-374.5 614.5,-378.5 602.5,-378.5 602.5,-338.5 753.5,-338.5 753.5,-374.5"/>
<polyline fill="none" stroke="black" stroke-dasharray="5,2" points="602.5,-374.5 614.5,-374.5 "/>
<text text-anchor="start" x="610.8" y="-358.3" font-family="Courier,monospace" font-size="9.00"> </text>
<text text-anchor="start" x="615.79" y="-357.7" font-family="Courier,monospace" font-size="11.00">prolog_pretty_print</text>
<text text-anchor="start" x="740.8" y="-358.3" font-family="Courier,monospace" font-size="9.00"> </text>
<text text-anchor="start" x="610.8" y="-348.3" font-family="Courier,monospace" font-size="9.00"> </text>
<text text-anchor="start" x="665.9" y="-348.9" font-family="Courier,monospace" font-size="7.00">module</text>
<text text-anchor="start" x="740.8" y="-348.3" font-family="Courier,monospace" font-size="9.00"> </text>
</a>
</g>
</g>
<!-- run&#45;&gt;prolog_pretty_print -->
<g id="edge3" class="edge">
<title>run&#45;&gt;prolog_pretty_print</title>
<path fill="none" stroke="black" d="M485.02,-479.31C517.63,-464.36 560.35,-443.36 596,-421 614.92,-409.14 634.76,-393.86 650.18,-381.27"/>
<polygon fill="black" stroke="black" points="652.78,-383.66 658.26,-374.59 648.32,-378.26 652.78,-383.66"/>
<g id="a_edge3&#45;label"><a xlink:title="use_module">
<text text-anchor="middle" x="606" y="-430.8" font-family="Courier,monospace" font-size="9.00">use_module</text>
</a>
</g>
</g>
<!-- planner -->
<g id="node3" class="node">
<title>planner</title>
<g id="a_node3"><a xlink:title="module">
<polygon fill="plum" stroke="black" points="335,-239 213,-239 213,-243 201,-243 201,-173 335,-173 335,-239"/>
<polyline fill="none" stroke="black" points="201,-239 213,-239 "/>
<g id="a_node3_11"><a xlink:href="planner_module_xref_diagram.svg" xlink:title="Zoom">
<image xlink:href="zoom.png" width="11px" height="11px" preserveAspectRatio="xMinYMin meet" x="209" y="-235"/>
</a>
</g>
<text text-anchor="start" x="211.8" y="-215.8" font-family="Courier,monospace" font-size="9.00"> </text>
<text text-anchor="start" x="247.9" y="-215.2" font-family="Courier,monospace" font-size="11.00">planner</text>
<text text-anchor="start" x="321.8" y="-215.8" font-family="Courier,monospace" font-size="9.00"> </text>
<text text-anchor="start" x="211.8" y="-205.8" font-family="Courier,monospace" font-size="9.00"> </text>
<text text-anchor="start" x="258.4" y="-206.4" font-family="Courier,monospace" font-size="7.00">module</text>
<text text-anchor="start" x="321.8" y="-205.8" font-family="Courier,monospace" font-size="9.00"> </text>
<text text-anchor="start" x="211.8" y="-196.8" font-family="Courier,monospace" font-size="9.00"> </text>
<text text-anchor="start" x="211.8" y="-187.8" font-family="Courier,monospace" font-size="9.00"> </text>
<text text-anchor="start" x="254.8" y="-187.8" font-family="Courier,monospace" font-size="9.00">plan/4</text>
<text text-anchor="start" x="321.8" y="-187.8" font-family="Courier,monospace" font-size="9.00"> </text>
<text text-anchor="start" x="211.8" y="-178.8" font-family="Courier,monospace" font-size="9.00"> </text>
<text text-anchor="start" x="219.69" y="-178.8" font-family="Courier,monospace" font-size="9.00">apply_action_dict/3</text>
<text text-anchor="start" x="321.8" y="-178.8" font-family="Courier,monospace" font-size="9.00"> </text>
</a>
</g>
</g>
<!-- talespin&#45;&gt;planner -->
<g id="edge5" class="edge">
<title>talespin&#45;&gt;planner</title>
<path fill="none" stroke="black" d="M109.89,-327.84C130.72,-313.82 156.84,-296.86 180.99,-283 187.89,-279.04 190.5,-279.58 197,-275 208.79,-266.7 220.53,-256.47 230.97,-246.49"/>
<polygon fill="black" stroke="black" points="233.62,-248.79 238.33,-239.29 228.73,-243.78 233.62,-248.79"/>
<g id="a_edge5&#45;label"><a xlink:title="use_module">
<text text-anchor="middle" x="207" y="-284.8" font-family="Courier,monospace" font-size="9.00">use_module</text>
</a>
</g>
</g>
<!-- lists -->
<g id="node8" class="node">
<title>lists</title>
<g id="a_node8"><a xlink:href="https://github.com/SWI-Prolog/swipl-devel/tree/master/library/lists.pl" xlink:title="https://github.com/SWI&#45;Prolog/swipl&#45;devel/tree/master/library/lists.pl">
<polygon fill="thistle" stroke="black" stroke-dasharray="5,2" points="511.5,-92 464.5,-92 464.5,-96 452.5,-96 452.5,-56 511.5,-56 511.5,-92"/>
<polyline fill="none" stroke="black" stroke-dasharray="5,2" points="452.5,-92 464.5,-92 "/>
<text text-anchor="start" x="460.8" y="-75.8" font-family="Courier,monospace" font-size="9.00"> </text>
<text text-anchor="start" x="466" y="-75.2" font-family="Courier,monospace" font-size="11.00">lists</text>
<text text-anchor="start" x="498.8" y="-75.8" font-family="Courier,monospace" font-size="9.00"> </text>
<text text-anchor="start" x="460.8" y="-65.8" font-family="Courier,monospace" font-size="9.00"> </text>
<text text-anchor="start" x="469.9" y="-66.4" font-family="Courier,monospace" font-size="7.00">module</text>
<text text-anchor="start" x="498.8" y="-65.8" font-family="Courier,monospace" font-size="9.00"> </text>
</a>
</g>
</g>
<!-- talespin&#45;&gt;lists -->
<g id="edge6" class="edge">
<title>talespin&#45;&gt;lists</title>
<path fill="none" stroke="black" d="M107.81,-327.95C114.31,-324.14 121.18,-320.63 128,-318 221.36,-282 265.57,-330.25 349,-275 414.16,-231.84 419.24,-204.87 458,-137 464.27,-126.03 469.56,-113.1 473.57,-101.9"/>
<polygon fill="black" stroke="black" points="476.97,-102.79 476.88,-92.2 470.34,-100.53 476.97,-102.79"/>
<g id="a_edge6&#45;label"><a xlink:title="use_module">
<text text-anchor="middle" x="470" y="-203.3" font-family="Courier,monospace" font-size="9.00">use_module</text>
</a>
</g>
</g>
<!-- random -->
<g id="node9" class="node">
<title>random</title>
<g id="a_node9"><a xlink:href="https://github.com/SWI-Prolog/swipl-devel/tree/master/library/random.pl" xlink:title="https://github.com/SWI&#45;Prolog/swipl&#45;devel/tree/master/library/random.pl">
<polygon fill="thistle" stroke="black" stroke-dasharray="5,2" points="183.5,-92 130.5,-92 130.5,-96 118.5,-96 118.5,-56 183.5,-56 183.5,-92"/>
<polyline fill="none" stroke="black" stroke-dasharray="5,2" points="118.5,-92 130.5,-92 "/>
<text text-anchor="start" x="126.8" y="-75.8" font-family="Courier,monospace" font-size="9.00"> </text>
<text text-anchor="start" x="131.7" y="-75.2" font-family="Courier,monospace" font-size="11.00">random</text>
<text text-anchor="start" x="170.8" y="-75.8" font-family="Courier,monospace" font-size="9.00"> </text>
<text text-anchor="start" x="126.8" y="-65.8" font-family="Courier,monospace" font-size="9.00"> </text>
<text text-anchor="start" x="138.9" y="-66.4" font-family="Courier,monospace" font-size="7.00">module</text>
<text text-anchor="start" x="170.8" y="-65.8" font-family="Courier,monospace" font-size="9.00"> </text>
</a>
</g>
</g>
<!-- talespin&#45;&gt;random -->
<g id="edge7" class="edge">
<title>talespin&#45;&gt;random</title>
<path fill="none" stroke="black" d="M83.83,-327.84C90.9,-312.6 99.03,-293.14 104,-275 121.42,-211.41 104.31,-190.93 124,-128 126.87,-118.83 131.21,-109.33 135.59,-100.95"/>
<polygon fill="black" stroke="black" points="138.73,-102.49 140.46,-92.04 132.59,-99.13 138.73,-102.49"/>
<g id="a_edge7&#45;label"><a xlink:title="use_module">
<text text-anchor="middle" x="142" y="-203.3" font-family="Courier,monospace" font-size="9.00">use_module</text>
</a>
</g>
</g>
<!-- apply -->
<g id="node10" class="node">
<title>apply</title>
<g id="a_node10"><a xlink:href="https://github.com/SWI-Prolog/swipl-devel/tree/master/library/apply.pl" xlink:title="https://github.com/SWI&#45;Prolog/swipl&#45;devel/tree/master/library/apply.pl">
<polygon fill="thistle" stroke="black" stroke-dasharray="5,2" points="82.5,-92 35.5,-92 35.5,-96 23.5,-96 23.5,-56 82.5,-56 82.5,-92"/>
<polyline fill="none" stroke="black" stroke-dasharray="5,2" points="23.5,-92 35.5,-92 "/>
<text text-anchor="start" x="31.8" y="-75.8" font-family="Courier,monospace" font-size="9.00"> </text>
<text text-anchor="start" x="37" y="-75.2" font-family="Courier,monospace" font-size="11.00">apply</text>
<text text-anchor="start" x="69.8" y="-75.8" font-family="Courier,monospace" font-size="9.00"> </text>
<text text-anchor="start" x="31.8" y="-65.8" font-family="Courier,monospace" font-size="9.00"> </text>
<text text-anchor="start" x="40.9" y="-66.4" font-family="Courier,monospace" font-size="7.00">module</text>
<text text-anchor="start" x="69.8" y="-65.8" font-family="Courier,monospace" font-size="9.00"> </text>
</a>
</g>
</g>
<!-- talespin&#45;&gt;apply -->
<g id="edge8" class="edge">
<title>talespin&#45;&gt;apply</title>
<path fill="none" stroke="black" d="M61.36,-327.87C57,-312.48 52.18,-292.87 49.99,-275 42.5,-213.82 46.84,-141.34 50.21,-102.64"/>
<polygon fill="black" stroke="black" points="53.74,-102.48 51.17,-92.21 46.77,-101.84 53.74,-102.48"/>
<g id="a_edge8&#45;label"><a xlink:title="use_module">
<text text-anchor="middle" x="76" y="-203.3" font-family="Courier,monospace" font-size="9.00">use_module</text>
</a>
</g>
</g>
<!-- planner&#45;&gt;lists -->
<g id="edge9" class="edge">
<title>planner&#45;&gt;lists</title>
<path fill="none" stroke="black" d="M321.76,-172.91C327.56,-169.53 333.39,-166.18 339,-163 360.11,-151.04 366.16,-149.42 387,-137 407.79,-124.61 430.51,-109.83 448.52,-97.81"/>
<polygon fill="black" stroke="black" points="450.6,-100.63 456.95,-92.15 446.7,-94.82 450.6,-100.63"/>
<g id="a_edge9&#45;label"><a xlink:title="use_module">
<text text-anchor="middle" x="427" y="-129.8" font-family="Courier,monospace" font-size="9.00">use_module</text>
</a>
</g>
</g>
<!-- planner&#45;&gt;random -->
<g id="edge12" class="edge">
<title>planner&#45;&gt;random</title>
<path fill="none" stroke="black" d="M239.08,-172.87C218.68,-150.2 191.76,-120.29 173.08,-99.53"/>
<polygon fill="black" stroke="black" points="175.64,-97.15 166.35,-92.06 170.44,-101.83 175.64,-97.15"/>
<g id="a_edge12&#45;label"><a xlink:title="use_module">
<text text-anchor="middle" x="232" y="-129.8" font-family="Courier,monospace" font-size="9.00">use_module</text>
</a>
</g>
</g>
<!-- planner&#45;&gt;apply -->
<g id="edge13" class="edge">
<title>planner&#45;&gt;apply</title>
<path fill="none" stroke="black" d="M215.21,-172.99C209.12,-169.53 202.96,-166.13 197,-163 172.71,-150.22 164.75,-150.74 140.99,-137 121.01,-125.45 99.84,-110.62 83.27,-98.36"/>
<polygon fill="black" stroke="black" points="85.16,-95.4 75.05,-92.21 80.96,-101 85.16,-95.4"/>
<g id="a_edge13&#45;label"><a xlink:title="use_module">
<text text-anchor="middle" x="167" y="-129.8" font-family="Courier,monospace" font-size="9.00">use_module</text>
</a>
</g>
</g>
<!-- ordsets -->
<g id="node11" class="node">
<title>ordsets</title>
<g id="a_node11"><a xlink:href="https://github.com/SWI-Prolog/swipl-devel/tree/master/library/ordsets.pl" xlink:title="https://github.com/SWI&#45;Prolog/swipl&#45;devel/tree/master/library/ordsets.pl">
<polygon fill="thistle" stroke="black" stroke-dasharray="5,2" points="406,-92 346,-92 346,-96 334,-96 334,-56 406,-56 406,-92"/>
<polyline fill="none" stroke="black" stroke-dasharray="5,2" points="334,-92 346,-92 "/>
<text text-anchor="start" x="341.8" y="-75.8" font-family="Courier,monospace" font-size="9.00"> </text>
<text text-anchor="start" x="346.9" y="-75.2" font-family="Courier,monospace" font-size="11.00">ordsets</text>
<text text-anchor="start" x="392.8" y="-75.8" font-family="Courier,monospace" font-size="9.00"> </text>
<text text-anchor="start" x="341.8" y="-65.8" font-family="Courier,monospace" font-size="9.00"> </text>
<text text-anchor="start" x="357.4" y="-66.4" font-family="Courier,monospace" font-size="7.00">module</text>
<text text-anchor="start" x="392.8" y="-65.8" font-family="Courier,monospace" font-size="9.00"> </text>
</a>
</g>
</g>
<!-- planner&#45;&gt;ordsets -->
<g id="edge10" class="edge">
<title>planner&#45;&gt;ordsets</title>
<path fill="none" stroke="black" d="M294.23,-173C303.41,-161.69 313.73,-148.83 323,-137 332.36,-125.05 342.55,-111.65 351.05,-100.37"/>
<polygon fill="black" stroke="black" points="353.97,-102.31 357.18,-92.22 348.37,-98.11 353.97,-102.31"/>
<g id="a_edge10&#45;label"><a xlink:title="use_module">
<text text-anchor="middle" x="356" y="-129.8" font-family="Courier,monospace" font-size="9.00">use_module</text>
</a>
</g>
</g>
<!-- prolog_debug -->
<g id="node12" class="node">
<title>prolog_debug</title>
<g id="a_node12"><a xlink:href="https://github.com/SWI-Prolog/swipl-devel/tree/master/library/debug.pl" xlink:title="https://github.com/SWI&#45;Prolog/swipl&#45;devel/tree/master/library/debug.pl">
<polygon fill="thistle" stroke="black" stroke-dasharray="5,2" points="315.5,-92 222.5,-92 222.5,-96 210.5,-96 210.5,-56 315.5,-56 315.5,-92"/>
<polyline fill="none" stroke="black" stroke-dasharray="5,2" points="210.5,-92 222.5,-92 "/>
<text text-anchor="start" x="218.8" y="-75.8" font-family="Courier,monospace" font-size="9.00"> </text>
<text text-anchor="start" x="223.89" y="-75.2" font-family="Courier,monospace" font-size="11.00">prolog_debug</text>
<text text-anchor="start" x="302.8" y="-75.8" font-family="Courier,monospace" font-size="9.00"> </text>
<text text-anchor="start" x="218.8" y="-65.8" font-family="Courier,monospace" font-size="9.00"> </text>
<text text-anchor="start" x="250.9" y="-66.4" font-family="Courier,monospace" font-size="7.00">module</text>
<text text-anchor="start" x="302.8" y="-65.8" font-family="Courier,monospace" font-size="9.00"> </text>
</a>
</g>
</g>
<!-- planner&#45;&gt;prolog_debug -->
<g id="edge11" class="edge">
<title>planner&#45;&gt;prolog_debug</title>
<path fill="none" stroke="black" d="M266.76,-172.87C265.93,-151.2 264.84,-122.91 264.05,-102.33"/>
<polygon fill="black" stroke="black" points="267.54,-101.92 263.66,-92.06 260.54,-102.19 267.54,-101.92"/>
<g id="a_edge11&#45;label"><a xlink:title="use_module">
<text text-anchor="middle" x="292" y="-129.8" font-family="Courier,monospace" font-size="9.00">use_module</text>
</a>
</g>
</g>
<!-- fairy -->
<g id="node5" class="node">
<title>fairy</title>
<g id="a_node5"><a xlink:title="module">
<polygon fill="plum" stroke="black" points="292,-385 154,-385 154,-389 142,-389 142,-328 292,-328 292,-385"/>
<polyline fill="none" stroke="black" points="142,-385 154,-385 "/>
<g id="a_node5_12"><a xlink:href="fairy_module_xref_diagram.svg" xlink:title="Zoom">
<image xlink:href="zoom.png" width="11px" height="11px" preserveAspectRatio="xMinYMin meet" x="150" y="-380.5"/>
</a>
</g>
<text text-anchor="start" x="152.8" y="-361.3" font-family="Courier,monospace" font-size="9.00"> </text>
<text text-anchor="start" x="203.5" y="-360.7" font-family="Courier,monospace" font-size="11.00">fairy</text>
<text text-anchor="start" x="278.8" y="-361.3" font-family="Courier,monospace" font-size="9.00"> </text>
<text text-anchor="start" x="152.8" y="-351.3" font-family="Courier,monospace" font-size="9.00"> </text>
<text text-anchor="start" x="207.4" y="-351.9" font-family="Courier,monospace" font-size="7.00">module</text>
<text text-anchor="start" x="278.8" y="-351.3" font-family="Courier,monospace" font-size="9.00"> </text>
<text text-anchor="start" x="152.8" y="-342.3" font-family="Courier,monospace" font-size="9.00"> </text>
<text text-anchor="start" x="152.8" y="-333.3" font-family="Courier,monospace" font-size="9.00"> </text>
<text text-anchor="start" x="160.59" y="-333.3" font-family="Courier,monospace" font-size="9.00">planner:max_plan_len/2</text>
<text text-anchor="start" x="278.8" y="-333.3" font-family="Courier,monospace" font-size="9.00"> </text>
</a>
</g>
</g>
<!-- fairy&#45;&gt;planner -->
<g id="edge14" class="edge">
<title>fairy&#45;&gt;planner</title>
<path fill="none" stroke="black" d="M226.47,-327.92C234.1,-305.7 244.95,-274.12 253.65,-248.8"/>
<polygon fill="black" stroke="black" points="260.29,-240.22 253.73,-248.54 253.67,-237.95 260.29,-240.22"/>
<g id="a_edge14&#45;label"><a xlink:title="provides">
<text text-anchor="middle" x="261.6" y="-284.8" font-family="Courier,monospace" font-size="9.00">provides</text>
</a>
</g>
</g>
<!-- snail&#45;&gt;planner -->
<g id="edge15" class="edge">
<title>snail&#45;&gt;planner</title>
<path fill="none" stroke="black" d="M444.09,-327.86C404.39,-309.94 357.28,-287.65 339,-275 327.03,-266.72 315.15,-256.4 304.64,-246.33"/>
<polygon fill="black" stroke="black" points="299.69,-236.58 304.38,-246.08 294.79,-241.57 299.69,-236.58"/>
<g id="a_edge15&#45;label"><a xlink:title="provides">
<text text-anchor="middle" x="386.6" y="-284.8" font-family="Courier,monospace" font-size="9.00">provides</text>
</a>
</g>
</g>
<!-- snail&#45;&gt;lists -->
<g id="edge16" class="edge">
<title>snail&#45;&gt;lists</title>
<path fill="none" stroke="black" d="M521.56,-327.65C528.65,-312.52 536.41,-293.23 540,-275 549.62,-226.16 554.3,-210.68 540,-163 533.02,-139.72 517.66,-116.9 504.51,-100.34"/>
<polygon fill="black" stroke="black" points="506.94,-97.78 497.88,-92.28 501.53,-102.23 506.94,-97.78"/>
<g id="a_edge16&#45;label"><a xlink:title="use_module">
<text text-anchor="middle" x="576" y="-203.3" font-family="Courier,monospace" font-size="9.00">use_module</text>
</a>
</g>
</g>
</g>
</svg>
