<?xml version="1.0" encoding="UTF-8" standalone="no"?>
<!DOCTYPE svg PUBLIC "-//W3C//DTD SVG 1.1//EN"
 "http://www.w3.org/Graphics/SVG/1.1/DTD/svg11.dtd">
<!-- Generated by graphviz version 2.41.20190410.0829 (20190410.0829)
 -->
<!-- Title: talespin Pages: 1 -->
<svg width="1058pt" height="364pt"
 viewBox="72.00 72.00 986.00 292.00" xmlns="http://www.w3.org/2000/svg" xmlns:xlink="http://www.w3.org/1999/xlink">
<g id="graph0" class="graph" transform="scale(1 1) rotate(0) translate(76 288)">
<title>talespin</title>
<polygon fill="white" stroke="transparent" points="-4,4 -4,-216 910,-216 910,4 -4,4"/>
<text text-anchor="start" x="8" y="-26" font-family="Courier,monospace" font-size="10.00" fill="dimgray">TaleSpin application</text>
<text text-anchor="start" x="8" y="-16" font-family="Courier,monospace" font-size="10.00" fill="dimgray">Inheritance diagram</text>
<text text-anchor="start" x="8" y="-6" font-family="Courier,monospace" font-size="10.00" fill="dimgray">Generated on 2019/04/30, 21:26</text>
<g id="clust1" class="cluster">
<title>cluster_directory_talespin</title>
<g id="a_clust1"><a xlink:title="./">
<path fill="whitesmoke" stroke="dimgray" d="M20,-46C20,-46 886,-46 886,-46 892,-46 898,-52 898,-58 898,-58 898,-192 898,-192 898,-198 892,-204 886,-204 886,-204 20,-204 20,-204 14,-204 8,-198 8,-192 8,-192 8,-58 8,-58 8,-52 14,-46 20,-46"/>
<g id="a_clust1_0"><a xlink:href="https://github.com/SWI-Prolog-Education/talespin-annie/tree/d750de657fdf5657d36e68835115c8d12ac7f2c6/" xlink:title="https://github.com/SWI&#45;Prolog&#45;Education/talespin&#45;annie/tree/d750de657fdf5657d36e68835115c8d12ac7f2c6/">
<text text-anchor="start" x="20" y="-188" font-family="Courier,monospace" font-size="10.00" fill="dimgray">./</text>
</a>
</g>
</a>
</g>
</g>
<g id="clust2" class="cluster">
<title>cluster_file_/Users/pmoura/talespin&#45;annie/run.pl</title>
<g id="a_clust2"><a xlink:title="run.pl">
<path fill="snow" stroke="dimgray" d="M778,-60.5C778,-60.5 876,-60.5 876,-60.5 882,-60.5 888,-66.5 888,-72.5 888,-72.5 888,-151.5 888,-151.5 888,-157.5 882,-163.5 876,-163.5 876,-163.5 778,-163.5 778,-163.5 772,-163.5 766,-157.5 766,-151.5 766,-151.5 766,-72.5 766,-72.5 766,-66.5 772,-60.5 778,-60.5"/>
<g id="a_clust2_1"><a xlink:href="https://github.com/SWI-Prolog-Education/talespin-annie/tree/d750de657fdf5657d36e68835115c8d12ac7f2c6/run.pl" xlink:title="https://github.com/SWI&#45;Prolog&#45;Education/talespin&#45;annie/tree/d750de657fdf5657d36e68835115c8d12ac7f2c6/run.pl">
<text text-anchor="start" x="778" y="-147.5" font-family="Courier,monospace" font-size="10.00" fill="dimgray">run.pl</text>
</a>
</g>
</a>
</g>
</g>
<g id="clust3" class="cluster">
<title>cluster_file_/Users/pmoura/talespin&#45;annie/talespin.pl</title>
<g id="a_clust3"><a xlink:title="talespin.pl">
<path fill="snow" stroke="dimgray" d="M664,-60.5C664,-60.5 744,-60.5 744,-60.5 750,-60.5 756,-66.5 756,-72.5 756,-72.5 756,-151.5 756,-151.5 756,-157.5 750,-163.5 744,-163.5 744,-163.5 664,-163.5 664,-163.5 658,-163.5 652,-157.5 652,-151.5 652,-151.5 652,-72.5 652,-72.5 652,-66.5 658,-60.5 664,-60.5"/>
<g id="a_clust3_2"><a xlink:href="https://github.com/SWI-Prolog-Education/talespin-annie/tree/d750de657fdf5657d36e68835115c8d12ac7f2c6/talespin.pl" xlink:title="https://github.com/SWI&#45;Prolog&#45;Education/talespin&#45;annie/tree/d750de657fdf5657d36e68835115c8d12ac7f2c6/talespin.pl">
<text text-anchor="start" x="663.99" y="-147.5" font-family="Courier,monospace" font-size="10.00" fill="dimgray">talespin.pl</text>
</a>
</g>
</a>
</g>
</g>
<g id="clust4" class="cluster">
<title>cluster_file_/Users/pmoura/talespin&#45;annie/planner.pl</title>
<g id="a_clust4"><a xlink:title="planner.pl">
<path fill="snow" stroke="dimgray" d="M500,-56C500,-56 630,-56 630,-56 636,-56 642,-62 642,-68 642,-68 642,-156 642,-156 642,-162 636,-168 630,-168 630,-168 500,-168 500,-168 494,-168 488,-162 488,-156 488,-156 488,-68 488,-68 488,-62 494,-56 500,-56"/>
<g id="a_clust4_3"><a xlink:href="https://github.com/SWI-Prolog-Education/talespin-annie/tree/d750de657fdf5657d36e68835115c8d12ac7f2c6/planner.pl" xlink:title="https://github.com/SWI&#45;Prolog&#45;Education/talespin&#45;annie/tree/d750de657fdf5657d36e68835115c8d12ac7f2c6/planner.pl">
<text text-anchor="start" x="500" y="-152" font-family="Courier,monospace" font-size="10.00" fill="dimgray">planner.pl</text>
</a>
</g>
</a>
</g>
</g>
<g id="clust5" class="cluster">
<title>cluster_file_/Users/pmoura/talespin&#45;annie/anglify.pl</title>
<g id="a_clust5"><a xlink:title="anglify.pl">
<path fill="snow" stroke="dimgray" d="M390,-60.5C390,-60.5 466,-60.5 466,-60.5 472,-60.5 478,-66.5 478,-72.5 478,-72.5 478,-151.5 478,-151.5 478,-157.5 472,-163.5 466,-163.5 466,-163.5 390,-163.5 390,-163.5 384,-163.5 378,-157.5 378,-151.5 378,-151.5 378,-72.5 378,-72.5 378,-66.5 384,-60.5 390,-60.5"/>
<g id="a_clust5_4"><a xlink:href="https://github.com/SWI-Prolog-Education/talespin-annie/tree/d750de657fdf5657d36e68835115c8d12ac7f2c6/anglify.pl" xlink:title="https://github.com/SWI&#45;Prolog&#45;Education/talespin&#45;annie/tree/d750de657fdf5657d36e68835115c8d12ac7f2c6/anglify.pl">
<text text-anchor="start" x="390" y="-147.5" font-family="Courier,monospace" font-size="10.00" fill="dimgray">anglify.pl</text>
</a>
</g>
</a>
</g>
</g>
<g id="clust6" class="cluster">
<title>cluster_file_/Users/pmoura/talespin&#45;annie/fairy.pl</title>
<g id="a_clust6"><a xlink:title="fairy.pl">
<path fill="snow" stroke="dimgray" d="M210,-60.5C210,-60.5 356,-60.5 356,-60.5 362,-60.5 368,-66.5 368,-72.5 368,-72.5 368,-151.5 368,-151.5 368,-157.5 362,-163.5 356,-163.5 356,-163.5 210,-163.5 210,-163.5 204,-163.5 198,-157.5 198,-151.5 198,-151.5 198,-72.5 198,-72.5 198,-66.5 204,-60.5 210,-60.5"/>
<g id="a_clust6_5"><a xlink:href="https://github.com/SWI-Prolog-Education/talespin-annie/tree/d750de657fdf5657d36e68835115c8d12ac7f2c6/fairy.pl" xlink:title="https://github.com/SWI&#45;Prolog&#45;Education/talespin&#45;annie/tree/d750de657fdf5657d36e68835115c8d12ac7f2c6/fairy.pl">
<text text-anchor="start" x="210" y="-147.5" font-family="Courier,monospace" font-size="10.00" fill="dimgray">fairy.pl</text>
</a>
</g>
</a>
</g>
</g>
<g id="clust7" class="cluster">
<title>cluster_file_/Users/pmoura/talespin&#45;annie/snail.pl</title>
<g id="a_clust7"><a xlink:title="snail.pl">
<path fill="snow" stroke="dimgray" d="M30,-60.5C30,-60.5 176,-60.5 176,-60.5 182,-60.5 188,-66.5 188,-72.5 188,-72.5 188,-151.5 188,-151.5 188,-157.5 182,-163.5 176,-163.5 176,-163.5 30,-163.5 30,-163.5 24,-163.5 18,-157.5 18,-151.5 18,-151.5 18,-72.5 18,-72.5 18,-66.5 24,-60.5 30,-60.5"/>
<g id="a_clust7_6"><a xlink:href="https://github.com/SWI-Prolog-Education/talespin-annie/tree/d750de657fdf5657d36e68835115c8d12ac7f2c6/snail.pl" xlink:title="https://github.com/SWI&#45;Prolog&#45;Education/talespin&#45;annie/tree/d750de657fdf5657d36e68835115c8d12ac7f2c6/snail.pl">
<text text-anchor="start" x="30" y="-147.5" font-family="Courier,monospace" font-size="10.00" fill="dimgray">snail.pl</text>
</a>
</g>
</a>
</g>
</g>
<!-- run -->
<g id="node1" class="node">
<title>run</title>
<g id="a_node1"><a xlink:title="module">
<polygon fill="plum" stroke="black" points="878,-127.5 788,-127.5 788,-131.5 776,-131.5 776,-70.5 878,-70.5 878,-127.5"/>
<polyline fill="none" stroke="black" points="776,-127.5 788,-127.5 "/>
<g id="a_node1_7"><a xlink:href="run_module_xref_diagram.svg" xlink:title="Zoom">
<image xlink:href="zoom.png" width="11px" height="11px" preserveAspectRatio="xMinYMin meet" x="784" y="-123"/>
</a>
</g>
<text text-anchor="start" x="786.8" y="-103.8" font-family="Courier,monospace" font-size="9.00"> </text>
<text text-anchor="start" x="820.1" y="-103.2" font-family="Courier,monospace" font-size="11.00">run</text>
<text text-anchor="start" x="864.8" y="-103.8" font-family="Courier,monospace" font-size="9.00"> </text>
<text text-anchor="start" x="786.8" y="-93.8" font-family="Courier,monospace" font-size="9.00"> </text>
<text text-anchor="start" x="817.4" y="-94.4" font-family="Courier,monospace" font-size="7.00">module</text>
<text text-anchor="start" x="864.8" y="-93.8" font-family="Courier,monospace" font-size="9.00"> </text>
<text text-anchor="start" x="786.8" y="-84.8" font-family="Courier,monospace" font-size="9.00"> </text>
<text text-anchor="start" x="786.8" y="-75.8" font-family="Courier,monospace" font-size="9.00"> </text>
<text text-anchor="start" x="794.89" y="-75.8" font-family="Courier,monospace" font-size="9.00">print_story/0</text>
<text text-anchor="start" x="864.8" y="-75.8" font-family="Courier,monospace" font-size="9.00"> </text>
</a>
</g>
</g>
<!-- talespin -->
<g id="node2" class="node">
<title>talespin</title>
<g id="a_node2"><a xlink:title="module">
<polygon fill="plum" stroke="black" points="746,-127.5 674,-127.5 674,-131.5 662,-131.5 662,-70.5 746,-70.5 746,-127.5"/>
<polyline fill="none" stroke="black" points="662,-127.5 674,-127.5 "/>
<g id="a_node2_8"><a xlink:href="talespin_module_xref_diagram.svg" xlink:title="Zoom">
<image xlink:href="zoom.png" width="11px" height="11px" preserveAspectRatio="xMinYMin meet" x="670" y="-123"/>
</a>
</g>
<text text-anchor="start" x="672.8" y="-103.8" font-family="Courier,monospace" font-size="9.00"> </text>
<text text-anchor="start" x="680.6" y="-103.2" font-family="Courier,monospace" font-size="11.00">talespin</text>
<text text-anchor="start" x="732.8" y="-103.8" font-family="Courier,monospace" font-size="9.00"> </text>
<text text-anchor="start" x="672.8" y="-93.8" font-family="Courier,monospace" font-size="9.00"> </text>
<text text-anchor="start" x="694.4" y="-94.4" font-family="Courier,monospace" font-size="7.00">module</text>
<text text-anchor="start" x="732.8" y="-93.8" font-family="Courier,monospace" font-size="9.00"> </text>
<text text-anchor="start" x="672.8" y="-84.8" font-family="Courier,monospace" font-size="9.00"> </text>
<text text-anchor="start" x="672.8" y="-75.8" font-family="Courier,monospace" font-size="9.00"> </text>
<text text-anchor="start" x="688.1" y="-75.8" font-family="Courier,monospace" font-size="9.00">story/4</text>
<text text-anchor="start" x="732.8" y="-75.8" font-family="Courier,monospace" font-size="9.00"> </text>
</a>
</g>
</g>
<!-- planner -->
<g id="node3" class="node">
<title>planner</title>
<g id="a_node3"><a xlink:title="module">
<polygon fill="plum" stroke="black" points="632,-132 510,-132 510,-136 498,-136 498,-66 632,-66 632,-132"/>
<polyline fill="none" stroke="black" points="498,-132 510,-132 "/>
<g id="a_node3_9"><a xlink:href="planner_module_xref_diagram.svg" xlink:title="Zoom">
<image xlink:href="zoom.png" width="11px" height="11px" preserveAspectRatio="xMinYMin meet" x="506" y="-128"/>
</a>
</g>
<text text-anchor="start" x="508.8" y="-108.8" font-family="Courier,monospace" font-size="9.00"> </text>
<text text-anchor="start" x="544.9" y="-108.2" font-family="Courier,monospace" font-size="11.00">planner</text>
<text text-anchor="start" x="618.8" y="-108.8" font-family="Courier,monospace" font-size="9.00"> </text>
<text text-anchor="start" x="508.8" y="-98.8" font-family="Courier,monospace" font-size="9.00"> </text>
<text text-anchor="start" x="555.4" y="-99.4" font-family="Courier,monospace" font-size="7.00">module</text>
<text text-anchor="start" x="618.8" y="-98.8" font-family="Courier,monospace" font-size="9.00"> </text>
<text text-anchor="start" x="508.8" y="-89.8" font-family="Courier,monospace" font-size="9.00"> </text>
<text text-anchor="start" x="508.8" y="-80.8" font-family="Courier,monospace" font-size="9.00"> </text>
<text text-anchor="start" x="551.8" y="-80.8" font-family="Courier,monospace" font-size="9.00">plan/4</text>
<text text-anchor="start" x="618.8" y="-80.8" font-family="Courier,monospace" font-size="9.00"> </text>
<text text-anchor="start" x="508.8" y="-71.8" font-family="Courier,monospace" font-size="9.00"> </text>
<text text-anchor="start" x="516.69" y="-71.8" font-family="Courier,monospace" font-size="9.00">apply_action_dict/3</text>
<text text-anchor="start" x="618.8" y="-71.8" font-family="Courier,monospace" font-size="9.00"> </text>
</a>
</g>
</g>
<!-- anglify -->
<g id="node4" class="node">
<title>anglify</title>
<g id="a_node4"><a xlink:title="module">
<polygon fill="plum" stroke="black" points="468,-127.5 400,-127.5 400,-131.5 388,-131.5 388,-70.5 468,-70.5 468,-127.5"/>
<polyline fill="none" stroke="black" points="388,-127.5 400,-127.5 "/>
<g id="a_node4_10"><a xlink:href="anglify_module_xref_diagram.svg" xlink:title="Zoom">
<image xlink:href="zoom.png" width="11px" height="11px" preserveAspectRatio="xMinYMin meet" x="396" y="-123"/>
</a>
</g>
<text text-anchor="start" x="398.8" y="-103.8" font-family="Courier,monospace" font-size="9.00"> </text>
<text text-anchor="start" x="407.9" y="-103.2" font-family="Courier,monospace" font-size="11.00">anglify</text>
<text text-anchor="start" x="454.8" y="-103.8" font-family="Courier,monospace" font-size="9.00"> </text>
<text text-anchor="start" x="398.8" y="-93.8" font-family="Courier,monospace" font-size="9.00"> </text>
<text text-anchor="start" x="418.4" y="-94.4" font-family="Courier,monospace" font-size="7.00">module</text>
<text text-anchor="start" x="454.8" y="-93.8" font-family="Courier,monospace" font-size="9.00"> </text>
<text text-anchor="start" x="398.8" y="-84.8" font-family="Courier,monospace" font-size="9.00"> </text>
<text text-anchor="start" x="398.8" y="-75.8" font-family="Courier,monospace" font-size="9.00"> </text>
<text text-anchor="start" x="406.7" y="-75.8" font-family="Courier,monospace" font-size="9.00">anglify/2</text>
<text text-anchor="start" x="454.8" y="-75.8" font-family="Courier,monospace" font-size="9.00"> </text>
</a>
</g>
</g>
<!-- fairy -->
<g id="node5" class="node">
<title>fairy</title>
<g id="a_node5"><a xlink:title="module">
<polygon fill="plum" stroke="black" points="358,-127.5 220,-127.5 220,-131.5 208,-131.5 208,-70.5 358,-70.5 358,-127.5"/>
<polyline fill="none" stroke="black" points="208,-127.5 220,-127.5 "/>
<g id="a_node5_11"><a xlink:href="fairy_module_xref_diagram.svg" xlink:title="Zoom">
<image xlink:href="zoom.png" width="11px" height="11px" preserveAspectRatio="xMinYMin meet" x="216" y="-123"/>
</a>
</g>
<text text-anchor="start" x="218.8" y="-103.8" font-family="Courier,monospace" font-size="9.00"> </text>
<text text-anchor="start" x="269.5" y="-103.2" font-family="Courier,monospace" font-size="11.00">fairy</text>
<text text-anchor="start" x="344.8" y="-103.8" font-family="Courier,monospace" font-size="9.00"> </text>
<text text-anchor="start" x="218.8" y="-93.8" font-family="Courier,monospace" font-size="9.00"> </text>
<text text-anchor="start" x="273.4" y="-94.4" font-family="Courier,monospace" font-size="7.00">module</text>
<text text-anchor="start" x="344.8" y="-93.8" font-family="Courier,monospace" font-size="9.00"> </text>
<text text-anchor="start" x="218.8" y="-84.8" font-family="Courier,monospace" font-size="9.00"> </text>
<text text-anchor="start" x="218.8" y="-75.8" font-family="Courier,monospace" font-size="9.00"> </text>
<text text-anchor="start" x="226.59" y="-75.8" font-family="Courier,monospace" font-size="9.00">planner:max_plan_len/2</text>
<text text-anchor="start" x="344.8" y="-75.8" font-family="Courier,monospace" font-size="9.00"> </text>
</a>
</g>
</g>
<!-- snail -->
<g id="node6" class="node">
<title>snail</title>
<g id="a_node6"><a xlink:title="module">
<polygon fill="plum" stroke="black" points="178,-127.5 40,-127.5 40,-131.5 28,-131.5 28,-70.5 178,-70.5 178,-127.5"/>
<polyline fill="none" stroke="black" points="28,-127.5 40,-127.5 "/>
<g id="a_node6_12"><a xlink:href="snail_module_xref_diagram.svg" xlink:title="Zoom">
<image xlink:href="zoom.png" width="11px" height="11px" preserveAspectRatio="xMinYMin meet" x="36" y="-123"/>
</a>
</g>
<text text-anchor="start" x="38.8" y="-103.8" font-family="Courier,monospace" font-size="9.00"> </text>
<text text-anchor="start" x="89.5" y="-103.2" font-family="Courier,monospace" font-size="11.00">snail</text>
<text text-anchor="start" x="164.8" y="-103.8" font-family="Courier,monospace" font-size="9.00"> </text>
<text text-anchor="start" x="38.8" y="-93.8" font-family="Courier,monospace" font-size="9.00"> </text>
<text text-anchor="start" x="93.4" y="-94.4" font-family="Courier,monospace" font-size="7.00">module</text>
<text text-anchor="start" x="164.8" y="-93.8" font-family="Courier,monospace" font-size="9.00"> </text>
<text text-anchor="start" x="38.8" y="-84.8" font-family="Courier,monospace" font-size="9.00"> </text>
<text text-anchor="start" x="38.8" y="-75.8" font-family="Courier,monospace" font-size="9.00"> </text>
<text text-anchor="start" x="46.59" y="-75.8" font-family="Courier,monospace" font-size="9.00">planner:max_plan_len/2</text>
<text text-anchor="start" x="164.8" y="-75.8" font-family="Courier,monospace" font-size="9.00"> </text>
</a>
</g>
</g>
</g>
</svg>
