<?xml version="1.0" encoding="UTF-8" standalone="no"?>
<!DOCTYPE svg PUBLIC "-//W3C//DTD SVG 1.1//EN"
 "http://www.w3.org/Graphics/SVG/1.1/DTD/svg11.dtd">
<!-- Generated by graphviz version 2.41.20190410.0829 (20190410.0829)
 -->
<!-- Title: talespin Pages: 1 -->
<svg width="820pt" height="790pt"
 viewBox="72.00 72.00 748.00 718.00" xmlns="http://www.w3.org/2000/svg" xmlns:xlink="http://www.w3.org/1999/xlink">
<g id="graph0" class="graph" transform="scale(1 1) rotate(0) translate(76 714)">
<title>talespin</title>
<polygon fill="white" stroke="transparent" points="-4,4 -4,-642 672,-642 672,4 -4,4"/>
<text text-anchor="start" x="8" y="-26" font-family="Courier,monospace" font-size="10.00" fill="dimgray">TaleSpin application</text>
<text text-anchor="start" x="8" y="-16" font-family="Courier,monospace" font-size="10.00" fill="dimgray">Cross&#45;referencing diagram</text>
<text text-anchor="start" x="8" y="-6" font-family="Courier,monospace" font-size="10.00" fill="dimgray">Generated on 2019/04/30, 21:26</text>
<g id="clust1" class="cluster">
<title>cluster_directory_talespin</title>
<g id="a_clust1"><a xlink:title="./">
<path fill="whitesmoke" stroke="dimgray" d="M20,-46C20,-46 648,-46 648,-46 654,-46 660,-52 660,-58 660,-58 660,-618 660,-618 660,-624 654,-630 648,-630 648,-630 20,-630 20,-630 14,-630 8,-624 8,-618 8,-618 8,-58 8,-58 8,-52 14,-46 20,-46"/>
<g id="a_clust1_0"><a xlink:href="https://github.com/SWI-Prolog-Education/talespin-annie/tree/d750de657fdf5657d36e68835115c8d12ac7f2c6/" xlink:title="https://github.com/SWI&#45;Prolog&#45;Education/talespin&#45;annie/tree/d750de657fdf5657d36e68835115c8d12ac7f2c6/">
<text text-anchor="start" x="20" y="-614" font-family="Courier,monospace" font-size="10.00" fill="dimgray">./</text>
</a>
</g>
</a>
</g>
</g>
<g id="clust2" class="cluster">
<title>cluster_file_/Users/pmoura/talespin&#45;annie/run.pl</title>
<g id="a_clust2"><a xlink:title="run.pl">
<path fill="snow" stroke="dimgray" d="M308,-491C308,-491 406,-491 406,-491 412,-491 418,-497 418,-503 418,-503 418,-582 418,-582 418,-588 412,-594 406,-594 406,-594 308,-594 308,-594 302,-594 296,-588 296,-582 296,-582 296,-503 296,-503 296,-497 302,-491 308,-491"/>
<g id="a_clust2_1"><a xlink:href="https://github.com/SWI-Prolog-Education/talespin-annie/tree/d750de657fdf5657d36e68835115c8d12ac7f2c6/run.pl" xlink:title="https://github.com/SWI&#45;Prolog&#45;Education/talespin&#45;annie/tree/d750de657fdf5657d36e68835115c8d12ac7f2c6/run.pl">
<text text-anchor="start" x="308" y="-578" font-family="Courier,monospace" font-size="10.00" fill="dimgray">run.pl</text>
</a>
</g>
</a>
</g>
</g>
<g id="clust3" class="cluster">
<title>cluster_file_/Users/pmoura/talespin&#45;annie/talespin.pl</title>
<g id="a_clust3"><a xlink:title="talespin.pl">
<path fill="snow" stroke="dimgray" d="M159,-345C159,-345 239,-345 239,-345 245,-345 251,-351 251,-357 251,-357 251,-436 251,-436 251,-442 245,-448 239,-448 239,-448 159,-448 159,-448 153,-448 147,-442 147,-436 147,-436 147,-357 147,-357 147,-351 153,-345 159,-345"/>
<g id="a_clust3_2"><a xlink:href="https://github.com/SWI-Prolog-Education/talespin-annie/tree/d750de657fdf5657d36e68835115c8d12ac7f2c6/talespin.pl" xlink:title="https://github.com/SWI&#45;Prolog&#45;Education/talespin&#45;annie/tree/d750de657fdf5657d36e68835115c8d12ac7f2c6/talespin.pl">
<text text-anchor="start" x="158.99" y="-432" font-family="Courier,monospace" font-size="10.00" fill="dimgray">talespin.pl</text>
</a>
</g>
</a>
</g>
</g>
<g id="clust4" class="cluster">
<title>cluster_file_/Users/pmoura/talespin&#45;annie/planner.pl</title>
<g id="a_clust4"><a xlink:title="planner.pl">
<path fill="snow" stroke="dimgray" d="M251,-181C251,-181 381,-181 381,-181 387,-181 393,-187 393,-193 393,-193 393,-281 393,-281 393,-287 387,-293 381,-293 381,-293 251,-293 251,-293 245,-293 239,-287 239,-281 239,-281 239,-193 239,-193 239,-187 245,-181 251,-181"/>
<g id="a_clust4_3"><a xlink:href="https://github.com/SWI-Prolog-Education/talespin-annie/tree/d750de657fdf5657d36e68835115c8d12ac7f2c6/planner.pl" xlink:title="https://github.com/SWI&#45;Prolog&#45;Education/talespin&#45;annie/tree/d750de657fdf5657d36e68835115c8d12ac7f2c6/planner.pl">
<text text-anchor="start" x="251" y="-277" font-family="Courier,monospace" font-size="10.00" fill="dimgray">planner.pl</text>
</a>
</g>
</a>
</g>
</g>
<g id="clust5" class="cluster">
<title>cluster_file_/Users/pmoura/talespin&#45;annie/anglify.pl</title>
<g id="a_clust5"><a xlink:title="anglify.pl">
<path fill="snow" stroke="dimgray" d="M273,-345C273,-345 349,-345 349,-345 355,-345 361,-351 361,-357 361,-357 361,-436 361,-436 361,-442 355,-448 349,-448 349,-448 273,-448 273,-448 267,-448 261,-442 261,-436 261,-436 261,-357 261,-357 261,-351 267,-345 273,-345"/>
<g id="a_clust5_4"><a xlink:href="https://github.com/SWI-Prolog-Education/talespin-annie/tree/d750de657fdf5657d36e68835115c8d12ac7f2c6/anglify.pl" xlink:title="https://github.com/SWI&#45;Prolog&#45;Education/talespin&#45;annie/tree/d750de657fdf5657d36e68835115c8d12ac7f2c6/anglify.pl">
<text text-anchor="start" x="273" y="-432" font-family="Courier,monospace" font-size="10.00" fill="dimgray">anglify.pl</text>
</a>
</g>
</a>
</g>
</g>
<g id="clust6" class="cluster">
<title>cluster_file_/Users/pmoura/talespin&#45;annie/fairy.pl</title>
<g id="a_clust6"><a xlink:title="fairy.pl">
<path fill="snow" stroke="dimgray" d="M63,-491C63,-491 209,-491 209,-491 215,-491 221,-497 221,-503 221,-503 221,-582 221,-582 221,-588 215,-594 209,-594 209,-594 63,-594 63,-594 57,-594 51,-588 51,-582 51,-582 51,-503 51,-503 51,-497 57,-491 63,-491"/>
<g id="a_clust6_5"><a xlink:href="https://github.com/SWI-Prolog-Education/talespin-annie/tree/d750de657fdf5657d36e68835115c8d12ac7f2c6/fairy.pl" xlink:title="https://github.com/SWI&#45;Prolog&#45;Education/talespin&#45;annie/tree/d750de657fdf5657d36e68835115c8d12ac7f2c6/fairy.pl">
<text text-anchor="start" x="63" y="-578" font-family="Courier,monospace" font-size="10.00" fill="dimgray">fairy.pl</text>
</a>
</g>
</a>
</g>
</g>
<g id="clust7" class="cluster">
<title>cluster_file_/Users/pmoura/talespin&#45;annie/snail.pl</title>
<g id="a_clust7"><a xlink:title="snail.pl">
<path fill="snow" stroke="dimgray" d="M492,-185.5C492,-185.5 638,-185.5 638,-185.5 644,-185.5 650,-191.5 650,-197.5 650,-197.5 650,-276.5 650,-276.5 650,-282.5 644,-288.5 638,-288.5 638,-288.5 492,-288.5 492,-288.5 486,-288.5 480,-282.5 480,-276.5 480,-276.5 480,-197.5 480,-197.5 480,-191.5 486,-185.5 492,-185.5"/>
<g id="a_clust7_6"><a xlink:href="https://github.com/SWI-Prolog-Education/talespin-annie/tree/d750de657fdf5657d36e68835115c8d12ac7f2c6/snail.pl" xlink:title="https://github.com/SWI&#45;Prolog&#45;Education/talespin&#45;annie/tree/d750de657fdf5657d36e68835115c8d12ac7f2c6/snail.pl">
<text text-anchor="start" x="492" y="-272.5" font-family="Courier,monospace" font-size="10.00" fill="dimgray">snail.pl</text>
</a>
</g>
</a>
</g>
</g>
<!-- run -->
<g id="node1" class="node">
<title>run</title>
<g id="a_node1"><a xlink:title="module">
<polygon fill="plum" stroke="black" points="408,-558 318,-558 318,-562 306,-562 306,-501 408,-501 408,-558"/>
<polyline fill="none" stroke="black" points="306,-558 318,-558 "/>
<g id="a_node1_7"><a xlink:href="run_module_xref_diagram.svg" xlink:title="Zoom">
<image xlink:href="zoom.png" width="11px" height="11px" preserveAspectRatio="xMinYMin meet" x="314" y="-553.5"/>
</a>
</g>
<text text-anchor="start" x="316.8" y="-534.3" font-family="Courier,monospace" font-size="9.00"> </text>
<text text-anchor="start" x="350.1" y="-533.7" font-family="Courier,monospace" font-size="11.00">run</text>
<text text-anchor="start" x="394.8" y="-534.3" font-family="Courier,monospace" font-size="9.00"> </text>
<text text-anchor="start" x="316.8" y="-524.3" font-family="Courier,monospace" font-size="9.00"> </text>
<text text-anchor="start" x="347.4" y="-524.9" font-family="Courier,monospace" font-size="7.00">module</text>
<text text-anchor="start" x="394.8" y="-524.3" font-family="Courier,monospace" font-size="9.00"> </text>
<text text-anchor="start" x="316.8" y="-515.3" font-family="Courier,monospace" font-size="9.00"> </text>
<text text-anchor="start" x="316.8" y="-506.3" font-family="Courier,monospace" font-size="9.00"> </text>
<text text-anchor="start" x="324.89" y="-506.3" font-family="Courier,monospace" font-size="9.00">print_story/0</text>
<text text-anchor="start" x="394.8" y="-506.3" font-family="Courier,monospace" font-size="9.00"> </text>
</a>
</g>
</g>
<!-- talespin -->
<g id="node2" class="node">
<title>talespin</title>
<g id="a_node2"><a xlink:title="module">
<polygon fill="plum" stroke="black" points="241,-412 169,-412 169,-416 157,-416 157,-355 241,-355 241,-412"/>
<polyline fill="none" stroke="black" points="157,-412 169,-412 "/>
<g id="a_node2_8"><a xlink:href="talespin_module_xref_diagram.svg" xlink:title="Zoom">
<image xlink:href="zoom.png" width="11px" height="11px" preserveAspectRatio="xMinYMin meet" x="165" y="-407.5"/>
</a>
</g>
<text text-anchor="start" x="167.8" y="-388.3" font-family="Courier,monospace" font-size="9.00"> </text>
<text text-anchor="start" x="175.6" y="-387.7" font-family="Courier,monospace" font-size="11.00">talespin</text>
<text text-anchor="start" x="227.8" y="-388.3" font-family="Courier,monospace" font-size="9.00"> </text>
<text text-anchor="start" x="167.8" y="-378.3" font-family="Courier,monospace" font-size="9.00"> </text>
<text text-anchor="start" x="189.4" y="-378.9" font-family="Courier,monospace" font-size="7.00">module</text>
<text text-anchor="start" x="227.8" y="-378.3" font-family="Courier,monospace" font-size="9.00"> </text>
<text text-anchor="start" x="167.8" y="-369.3" font-family="Courier,monospace" font-size="9.00"> </text>
<text text-anchor="start" x="167.8" y="-360.3" font-family="Courier,monospace" font-size="9.00"> </text>
<text text-anchor="start" x="183.1" y="-360.3" font-family="Courier,monospace" font-size="9.00">story/4</text>
<text text-anchor="start" x="227.8" y="-360.3" font-family="Courier,monospace" font-size="9.00"> </text>
</a>
</g>
</g>
<!-- run&#45;&gt;talespin -->
<g id="edge4" class="edge">
<title>run&#45;&gt;talespin</title>
<path fill="none" stroke="black" d="M319.78,-500.73C300.46,-485.77 276.82,-466.62 257,-448 247.64,-439.21 238.02,-429.16 229.38,-419.68"/>
<polygon fill="black" stroke="black" points="231.97,-417.33 222.68,-412.24 226.77,-422.02 231.97,-417.33"/>
<g id="a_edge4&#45;label"><a xlink:title="calls">
<text text-anchor="start" x="275" y="-457.8" font-family="Courier,monospace" font-size="9.00">story/4</text>
</a>
</g>
</g>
<!-- anglify -->
<g id="node4" class="node">
<title>anglify</title>
<g id="a_node4"><a xlink:title="module">
<polygon fill="plum" stroke="black" points="351,-412 283,-412 283,-416 271,-416 271,-355 351,-355 351,-412"/>
<polyline fill="none" stroke="black" points="271,-412 283,-412 "/>
<g id="a_node4_9"><a xlink:href="anglify_module_xref_diagram.svg" xlink:title="Zoom">
<image xlink:href="zoom.png" width="11px" height="11px" preserveAspectRatio="xMinYMin meet" x="279" y="-407.5"/>
</a>
</g>
<text text-anchor="start" x="281.8" y="-388.3" font-family="Courier,monospace" font-size="9.00"> </text>
<text text-anchor="start" x="290.9" y="-387.7" font-family="Courier,monospace" font-size="11.00">anglify</text>
<text text-anchor="start" x="337.8" y="-388.3" font-family="Courier,monospace" font-size="9.00"> </text>
<text text-anchor="start" x="281.8" y="-378.3" font-family="Courier,monospace" font-size="9.00"> </text>
<text text-anchor="start" x="301.4" y="-378.9" font-family="Courier,monospace" font-size="7.00">module</text>
<text text-anchor="start" x="337.8" y="-378.3" font-family="Courier,monospace" font-size="9.00"> </text>
<text text-anchor="start" x="281.8" y="-369.3" font-family="Courier,monospace" font-size="9.00"> </text>
<text text-anchor="start" x="281.8" y="-360.3" font-family="Courier,monospace" font-size="9.00"> </text>
<text text-anchor="start" x="289.7" y="-360.3" font-family="Courier,monospace" font-size="9.00">anglify/2</text>
<text text-anchor="start" x="337.8" y="-360.3" font-family="Courier,monospace" font-size="9.00"> </text>
</a>
</g>
</g>
<!-- run&#45;&gt;anglify -->
<g id="edge1" class="edge">
<title>run&#45;&gt;anglify</title>
<path fill="none" stroke="black" d="M347.33,-500.75C343.52,-489.66 339.17,-476.75 335.39,-465 330.9,-451.04 326.18,-435.65 322.1,-422.09"/>
<polygon fill="black" stroke="black" points="325.35,-420.72 319.12,-412.14 318.64,-422.73 325.35,-420.72"/>
<g id="a_edge1&#45;label"><a xlink:title="calls">
<text text-anchor="start" x="335" y="-457.8" font-family="Courier,monospace" font-size="9.00">anglify/2</text>
</a>
</g>
</g>
<!-- snail -->
<g id="node6" class="node">
<title>snail</title>
<g id="a_node6"><a xlink:title="module">
<polygon fill="plum" stroke="black" points="640,-252.5 502,-252.5 502,-256.5 490,-256.5 490,-195.5 640,-195.5 640,-252.5"/>
<polyline fill="none" stroke="black" points="490,-252.5 502,-252.5 "/>
<g id="a_node6_10"><a xlink:href="snail_module_xref_diagram.svg" xlink:title="Zoom">
<image xlink:href="zoom.png" width="11px" height="11px" preserveAspectRatio="xMinYMin meet" x="498" y="-248"/>
</a>
</g>
<text text-anchor="start" x="500.8" y="-228.8" font-family="Courier,monospace" font-size="9.00"> </text>
<text text-anchor="start" x="551.5" y="-228.2" font-family="Courier,monospace" font-size="11.00">snail</text>
<text text-anchor="start" x="626.8" y="-228.8" font-family="Courier,monospace" font-size="9.00"> </text>
<text text-anchor="start" x="500.8" y="-218.8" font-family="Courier,monospace" font-size="9.00"> </text>
<text text-anchor="start" x="555.4" y="-219.4" font-family="Courier,monospace" font-size="7.00">module</text>
<text text-anchor="start" x="626.8" y="-218.8" font-family="Courier,monospace" font-size="9.00"> </text>
<text text-anchor="start" x="500.8" y="-209.8" font-family="Courier,monospace" font-size="9.00"> </text>
<text text-anchor="start" x="500.8" y="-200.8" font-family="Courier,monospace" font-size="9.00"> </text>
<text text-anchor="start" x="508.59" y="-200.8" font-family="Courier,monospace" font-size="9.00">planner:max_plan_len/2</text>
<text text-anchor="start" x="626.8" y="-200.8" font-family="Courier,monospace" font-size="9.00"> </text>
</a>
</g>
</g>
<!-- run&#45;&gt;snail -->
<g id="edge3" class="edge">
<title>run&#45;&gt;snail</title>
<path fill="none" stroke="black" d="M371.35,-500.78C376.29,-489.91 381.26,-477.15 384,-465 395.74,-412.93 360.64,-390.22 389,-345 414.99,-303.56 445.67,-320.68 486,-293 500.46,-283.08 515.29,-270.93 528.14,-259.65"/>
<polygon fill="black" stroke="black" points="530.72,-262.04 535.86,-252.78 526.07,-256.81 530.72,-262.04"/>
<g id="a_edge3&#45;label"><a xlink:title="calls">
<text text-anchor="start" x="389" y="-380.8" font-family="Courier,monospace" font-size="9.00">init_conditions/1</text>
</a>
</g>
</g>
<!-- prolog_pretty_print -->
<g id="node7" class="node">
<title>prolog_pretty_print</title>
<g id="a_node7"><a xlink:title="module">
<polygon fill="thistle" stroke="black" stroke-dasharray="5,2" points="649.5,-401.5 510.5,-401.5 510.5,-405.5 498.5,-405.5 498.5,-365.5 649.5,-365.5 649.5,-401.5"/>
<polyline fill="none" stroke="black" stroke-dasharray="5,2" points="498.5,-401.5 510.5,-401.5 "/>
<text text-anchor="start" x="506.8" y="-385.3" font-family="Courier,monospace" font-size="9.00"> </text>
<text text-anchor="start" x="511.79" y="-384.7" font-family="Courier,monospace" font-size="11.00">prolog_pretty_print</text>
<text text-anchor="start" x="636.8" y="-385.3" font-family="Courier,monospace" font-size="9.00"> </text>
<text text-anchor="start" x="506.8" y="-375.3" font-family="Courier,monospace" font-size="9.00"> </text>
<text text-anchor="start" x="561.9" y="-375.9" font-family="Courier,monospace" font-size="7.00">module</text>
<text text-anchor="start" x="636.8" y="-375.3" font-family="Courier,monospace" font-size="9.00"> </text>
</a>
</g>
</g>
<!-- run&#45;&gt;prolog_pretty_print -->
<g id="edge2" class="edge">
<title>run&#45;&gt;prolog_pretty_print</title>
<path fill="none" stroke="black" d="M402.43,-500.82C427.09,-485.58 457.96,-466.13 485,-448 504.33,-435.04 525.57,-419.93 542.44,-407.69"/>
<polygon fill="black" stroke="black" points="544.81,-410.3 550.84,-401.59 540.69,-404.64 544.81,-410.3"/>
<g id="a_edge2&#45;label"><a xlink:title="calls">
<text text-anchor="start" x="471" y="-457.8" font-family="Courier,monospace" font-size="9.00">print_term/2</text>
</a>
</g>
</g>
<!-- planner -->
<g id="node3" class="node">
<title>planner</title>
<g id="a_node3"><a xlink:title="module">
<polygon fill="plum" stroke="black" points="383,-257 261,-257 261,-261 249,-261 249,-191 383,-191 383,-257"/>
<polyline fill="none" stroke="black" points="249,-257 261,-257 "/>
<g id="a_node3_11"><a xlink:href="planner_module_xref_diagram.svg" xlink:title="Zoom">
<image xlink:href="zoom.png" width="11px" height="11px" preserveAspectRatio="xMinYMin meet" x="257" y="-253"/>
</a>
</g>
<text text-anchor="start" x="259.8" y="-233.8" font-family="Courier,monospace" font-size="9.00"> </text>
<text text-anchor="start" x="295.9" y="-233.2" font-family="Courier,monospace" font-size="11.00">planner</text>
<text text-anchor="start" x="369.8" y="-233.8" font-family="Courier,monospace" font-size="9.00"> </text>
<text text-anchor="start" x="259.8" y="-223.8" font-family="Courier,monospace" font-size="9.00"> </text>
<text text-anchor="start" x="306.4" y="-224.4" font-family="Courier,monospace" font-size="7.00">module</text>
<text text-anchor="start" x="369.8" y="-223.8" font-family="Courier,monospace" font-size="9.00"> </text>
<text text-anchor="start" x="259.8" y="-214.8" font-family="Courier,monospace" font-size="9.00"> </text>
<text text-anchor="start" x="259.8" y="-205.8" font-family="Courier,monospace" font-size="9.00"> </text>
<text text-anchor="start" x="302.8" y="-205.8" font-family="Courier,monospace" font-size="9.00">plan/4</text>
<text text-anchor="start" x="369.8" y="-205.8" font-family="Courier,monospace" font-size="9.00"> </text>
<text text-anchor="start" x="259.8" y="-196.8" font-family="Courier,monospace" font-size="9.00"> </text>
<text text-anchor="start" x="267.69" y="-196.8" font-family="Courier,monospace" font-size="9.00">apply_action_dict/3</text>
<text text-anchor="start" x="369.8" y="-196.8" font-family="Courier,monospace" font-size="9.00"> </text>
</a>
</g>
</g>
<!-- talespin&#45;&gt;planner -->
<g id="edge7" class="edge">
<title>talespin&#45;&gt;planner</title>
<path fill="none" stroke="black" d="M217.17,-354.98C227.89,-339.01 241.89,-318.64 255,-301 263.77,-289.2 273.62,-276.65 282.8,-265.23"/>
<polygon fill="black" stroke="black" points="285.78,-267.11 289.34,-257.13 280.33,-262.71 285.78,-267.11"/>
<g id="a_edge7&#45;label"><a xlink:title="calls">
<text text-anchor="start" x="255" y="-311.8" font-family="Courier,monospace" font-size="9.00">apply_action_dict/3</text>
<text text-anchor="start" x="290.11" y="-302.8" font-family="Courier,monospace" font-size="9.00">plan/4</text>
</a>
</g>
</g>
<!-- apply -->
<g id="node8" class="node">
<title>apply</title>
<g id="a_node8"><a xlink:title="module">
<polygon fill="thistle" stroke="black" stroke-dasharray="5,2" points="90.5,-92 43.5,-92 43.5,-96 31.5,-96 31.5,-56 90.5,-56 90.5,-92"/>
<polyline fill="none" stroke="black" stroke-dasharray="5,2" points="31.5,-92 43.5,-92 "/>
<text text-anchor="start" x="39.8" y="-75.8" font-family="Courier,monospace" font-size="9.00"> </text>
<text text-anchor="start" x="45" y="-75.2" font-family="Courier,monospace" font-size="11.00">apply</text>
<text text-anchor="start" x="77.8" y="-75.8" font-family="Courier,monospace" font-size="9.00"> </text>
<text text-anchor="start" x="39.8" y="-65.8" font-family="Courier,monospace" font-size="9.00"> </text>
<text text-anchor="start" x="48.9" y="-66.4" font-family="Courier,monospace" font-size="7.00">module</text>
<text text-anchor="start" x="77.8" y="-65.8" font-family="Courier,monospace" font-size="9.00"> </text>
</a>
</g>
</g>
<!-- talespin&#45;&gt;apply -->
<g id="edge5" class="edge">
<title>talespin&#45;&gt;apply</title>
<path fill="none" stroke="black" d="M156.91,-372.08C118.43,-360.08 63.78,-336.21 38.39,-293 2.54,-231.98 30.72,-144.54 48.81,-101.29"/>
<polygon fill="black" stroke="black" points="52.07,-102.59 52.82,-92.02 45.64,-99.81 52.07,-102.59"/>
<g id="a_edge5&#45;label"><a xlink:title="calls">
<text text-anchor="start" x="38" y="-221.3" font-family="Courier,monospace" font-size="9.00">maplist/2</text>
</a>
</g>
</g>
<!-- lists -->
<g id="node9" class="node">
<title>lists</title>
<g id="a_node9"><a xlink:title="module">
<polygon fill="thistle" stroke="black" stroke-dasharray="5,2" points="570.5,-92 523.5,-92 523.5,-96 511.5,-96 511.5,-56 570.5,-56 570.5,-92"/>
<polyline fill="none" stroke="black" stroke-dasharray="5,2" points="511.5,-92 523.5,-92 "/>
<text text-anchor="start" x="519.8" y="-75.8" font-family="Courier,monospace" font-size="9.00"> </text>
<text text-anchor="start" x="525" y="-75.2" font-family="Courier,monospace" font-size="11.00">lists</text>
<text text-anchor="start" x="557.8" y="-75.8" font-family="Courier,monospace" font-size="9.00"> </text>
<text text-anchor="start" x="519.8" y="-65.8" font-family="Courier,monospace" font-size="9.00"> </text>
<text text-anchor="start" x="528.9" y="-66.4" font-family="Courier,monospace" font-size="7.00">module</text>
<text text-anchor="start" x="557.8" y="-65.8" font-family="Courier,monospace" font-size="9.00"> </text>
</a>
</g>
</g>
<!-- talespin&#45;&gt;lists -->
<g id="edge6" class="edge">
<title>talespin&#45;&gt;lists</title>
<path fill="none" stroke="black" d="M237.96,-354.86C244.15,-351.2 250.62,-347.76 257,-345 301.12,-325.91 318.52,-339.51 362,-319 379.53,-310.73 386.08,-309.01 397,-293 426.06,-250.39 390.38,-216.92 427.39,-181 463.01,-146.43 504.06,-192.99 536,-155 542.53,-147.24 543.24,-122.37 542.65,-102.39"/>
<polygon fill="black" stroke="black" points="546.14,-102.08 542.23,-92.23 539.14,-102.37 546.14,-102.08"/>
<g id="a_edge6&#45;label"><a xlink:title="calls">
<text text-anchor="start" x="427" y="-221.3" font-family="Courier,monospace" font-size="9.00">flatten/2</text>
</a>
</g>
</g>
<!-- random -->
<g id="node10" class="node">
<title>random</title>
<g id="a_node10"><a xlink:title="module">
<polygon fill="thistle" stroke="black" stroke-dasharray="5,2" points="198.5,-92 145.5,-92 145.5,-96 133.5,-96 133.5,-56 198.5,-56 198.5,-92"/>
<polyline fill="none" stroke="black" stroke-dasharray="5,2" points="133.5,-92 145.5,-92 "/>
<text text-anchor="start" x="141.8" y="-75.8" font-family="Courier,monospace" font-size="9.00"> </text>
<text text-anchor="start" x="146.7" y="-75.2" font-family="Courier,monospace" font-size="11.00">random</text>
<text text-anchor="start" x="185.8" y="-75.8" font-family="Courier,monospace" font-size="9.00"> </text>
<text text-anchor="start" x="141.8" y="-65.8" font-family="Courier,monospace" font-size="9.00"> </text>
<text text-anchor="start" x="153.9" y="-66.4" font-family="Courier,monospace" font-size="7.00">module</text>
<text text-anchor="start" x="185.8" y="-65.8" font-family="Courier,monospace" font-size="9.00"> </text>
</a>
</g>
</g>
<!-- talespin&#45;&gt;random -->
<g id="edge8" class="edge">
<title>talespin&#45;&gt;random</title>
<path fill="none" stroke="black" d="M171.77,-354.76C156.69,-338.06 138.69,-315.69 126.98,-293 97.75,-236.36 96.75,-218.13 88,-155 86.35,-143.11 82.38,-138.6 88,-128 95.93,-113.02 110.2,-101.49 124.39,-93.07"/>
<polygon fill="black" stroke="black" points="126.09,-96.13 133.15,-88.22 122.71,-90 126.09,-96.13"/>
<g id="a_edge8&#45;label"><a xlink:title="calls">
<text text-anchor="start" x="126" y="-221.3" font-family="Courier,monospace" font-size="9.00">random_permutation/2</text>
</a>
</g>
</g>
<!-- planner&#45;&gt;apply -->
<g id="edge9" class="edge">
<title>planner&#45;&gt;apply</title>
<path fill="none" stroke="black" d="M266.22,-190.83C259.27,-187.15 252.08,-183.74 245,-181 192.25,-160.54 168.05,-185.48 120.39,-155 99.92,-141.91 84.03,-119.09 73.85,-101.16"/>
<polygon fill="black" stroke="black" points="76.9,-99.44 69.06,-92.31 70.75,-102.77 76.9,-99.44"/>
<g id="a_edge9&#45;label"><a xlink:title="calls">
<text text-anchor="start" x="120" y="-143.3" font-family="Courier,monospace" font-size="9.00">maplist/2</text>
<text text-anchor="start" x="120" y="-134.3" font-family="Courier,monospace" font-size="9.00">maplist/3</text>
</a>
</g>
</g>
<!-- planner&#45;&gt;lists -->
<g id="edge10" class="edge">
<title>planner&#45;&gt;lists</title>
<path fill="none" stroke="black" d="M367.7,-190.81C374.1,-187.31 380.63,-183.95 387,-181 419.01,-166.17 432.39,-174.18 462,-155 475.82,-146.04 475.89,-139.79 487.39,-128 496.67,-118.48 507.03,-108.18 516.14,-99.2"/>
<polygon fill="black" stroke="black" points="518.77,-101.53 523.46,-92.03 513.87,-96.53 518.77,-101.53"/>
<g id="a_edge10&#45;label"><a xlink:title="calls">
<text text-anchor="start" x="489.7" y="-147.8" font-family="Courier,monospace" font-size="9.00">append/3</text>
<text text-anchor="start" x="489.7" y="-138.8" font-family="Courier,monospace" font-size="9.00">member/2</text>
<text text-anchor="start" x="487" y="-129.8" font-family="Courier,monospace" font-size="9.00">reverse/2</text>
</a>
</g>
</g>
<!-- planner&#45;&gt;random -->
<g id="edge13" class="edge">
<title>planner&#45;&gt;random</title>
<path fill="none" stroke="black" d="M263.25,-190.92C257.15,-187.47 250.98,-184.09 245,-181 219.91,-168.01 205.25,-176.56 186.98,-155 174.65,-140.44 169.46,-119.44 167.33,-102.61"/>
<polygon fill="black" stroke="black" points="170.78,-101.87 166.33,-92.26 163.81,-102.55 170.78,-101.87"/>
<g id="a_edge13&#45;label"><a xlink:title="calls">
<text text-anchor="start" x="186" y="-138.8" font-family="Courier,monospace" font-size="9.00">random_permutation/2</text>
</a>
</g>
</g>
<!-- ordsets -->
<g id="node11" class="node">
<title>ordsets</title>
<g id="a_node11"><a xlink:title="module">
<polygon fill="thistle" stroke="black" stroke-dasharray="5,2" points="433,-92 373,-92 373,-96 361,-96 361,-56 433,-56 433,-92"/>
<polyline fill="none" stroke="black" stroke-dasharray="5,2" points="361,-92 373,-92 "/>
<text text-anchor="start" x="368.8" y="-75.8" font-family="Courier,monospace" font-size="9.00"> </text>
<text text-anchor="start" x="373.9" y="-75.2" font-family="Courier,monospace" font-size="11.00">ordsets</text>
<text text-anchor="start" x="419.8" y="-75.8" font-family="Courier,monospace" font-size="9.00"> </text>
<text text-anchor="start" x="368.8" y="-65.8" font-family="Courier,monospace" font-size="9.00"> </text>
<text text-anchor="start" x="384.4" y="-66.4" font-family="Courier,monospace" font-size="7.00">module</text>
<text text-anchor="start" x="419.8" y="-65.8" font-family="Courier,monospace" font-size="9.00"> </text>
</a>
</g>
</g>
<!-- planner&#45;&gt;ordsets -->
<g id="edge11" class="edge">
<title>planner&#45;&gt;ordsets</title>
<path fill="none" stroke="black" d="M333.58,-190.89C348.26,-164.05 368.95,-126.25 382.65,-101.21"/>
<polygon fill="black" stroke="black" points="385.81,-102.74 387.54,-92.29 379.67,-99.38 385.81,-102.74"/>
<g id="a_edge11&#45;label"><a xlink:title="calls">
<text text-anchor="start" x="366" y="-143.3" font-family="Courier,monospace" font-size="9.00">list_to_ord_set/2</text>
<text text-anchor="start" x="382.2" y="-134.3" font-family="Courier,monospace" font-size="9.00">ord_union/3</text>
</a>
</g>
</g>
<!-- prolog_debug -->
<g id="node12" class="node">
<title>prolog_debug</title>
<g id="a_node12"><a xlink:title="module">
<polygon fill="thistle" stroke="black" stroke-dasharray="5,2" points="342.5,-92 249.5,-92 249.5,-96 237.5,-96 237.5,-56 342.5,-56 342.5,-92"/>
<polyline fill="none" stroke="black" stroke-dasharray="5,2" points="237.5,-92 249.5,-92 "/>
<text text-anchor="start" x="245.8" y="-75.8" font-family="Courier,monospace" font-size="9.00"> </text>
<text text-anchor="start" x="250.89" y="-75.2" font-family="Courier,monospace" font-size="11.00">prolog_debug</text>
<text text-anchor="start" x="329.8" y="-75.8" font-family="Courier,monospace" font-size="9.00"> </text>
<text text-anchor="start" x="245.8" y="-65.8" font-family="Courier,monospace" font-size="9.00"> </text>
<text text-anchor="start" x="277.9" y="-66.4" font-family="Courier,monospace" font-size="7.00">module</text>
<text text-anchor="start" x="329.8" y="-65.8" font-family="Courier,monospace" font-size="9.00"> </text>
</a>
</g>
</g>
<!-- planner&#45;&gt;prolog_debug -->
<g id="edge12" class="edge">
<title>planner&#45;&gt;prolog_debug</title>
<path fill="none" stroke="black" d="M310.36,-190.89C305.71,-164.4 299.18,-127.25 294.78,-102.21"/>
<polygon fill="black" stroke="black" points="298.21,-101.53 293.04,-92.29 291.32,-102.74 298.21,-101.53"/>
<g id="a_edge12&#45;label"><a xlink:title="calls">
<text text-anchor="start" x="303" y="-138.8" font-family="Courier,monospace" font-size="9.00">debug/3</text>
</a>
</g>
</g>
<!-- fairy -->
<g id="node5" class="node">
<title>fairy</title>
<g id="a_node5"><a xlink:title="module">
<polygon fill="plum" stroke="black" points="211,-558 73,-558 73,-562 61,-562 61,-501 211,-501 211,-558"/>
<polyline fill="none" stroke="black" points="61,-558 73,-558 "/>
<g id="a_node5_12"><a xlink:href="fairy_module_xref_diagram.svg" xlink:title="Zoom">
<image xlink:href="zoom.png" width="11px" height="11px" preserveAspectRatio="xMinYMin meet" x="69" y="-553.5"/>
</a>
</g>
<text text-anchor="start" x="71.8" y="-534.3" font-family="Courier,monospace" font-size="9.00"> </text>
<text text-anchor="start" x="122.5" y="-533.7" font-family="Courier,monospace" font-size="11.00">fairy</text>
<text text-anchor="start" x="197.8" y="-534.3" font-family="Courier,monospace" font-size="9.00"> </text>
<text text-anchor="start" x="71.8" y="-524.3" font-family="Courier,monospace" font-size="9.00"> </text>
<text text-anchor="start" x="126.4" y="-524.9" font-family="Courier,monospace" font-size="7.00">module</text>
<text text-anchor="start" x="197.8" y="-524.3" font-family="Courier,monospace" font-size="9.00"> </text>
<text text-anchor="start" x="71.8" y="-515.3" font-family="Courier,monospace" font-size="9.00"> </text>
<text text-anchor="start" x="71.8" y="-506.3" font-family="Courier,monospace" font-size="9.00"> </text>
<text text-anchor="start" x="79.59" y="-506.3" font-family="Courier,monospace" font-size="9.00">planner:max_plan_len/2</text>
<text text-anchor="start" x="197.8" y="-506.3" font-family="Courier,monospace" font-size="9.00"> </text>
</a>
</g>
</g>
<!-- snail&#45;&gt;lists -->
<g id="edge14" class="edge">
<title>snail&#45;&gt;lists</title>
<path fill="none" stroke="black" d="M560.49,-195.16C556.17,-168.52 549.69,-128.59 545.41,-102.17"/>
<polygon fill="black" stroke="black" points="548.83,-101.4 543.77,-92.09 541.92,-102.52 548.83,-101.4"/>
<g id="a_edge14&#45;label"><a xlink:title="calls">
<text text-anchor="start" x="553" y="-143.3" font-family="Courier,monospace" font-size="9.00">append/3</text>
<text text-anchor="start" x="553" y="-134.3" font-family="Courier,monospace" font-size="9.00">member/2</text>
</a>
</g>
</g>
</g>
</svg>
