<?xml version="1.0" encoding="UTF-8" standalone="no"?>
<!DOCTYPE svg PUBLIC "-//W3C//DTD SVG 1.1//EN"
 "http://www.w3.org/Graphics/SVG/1.1/DTD/svg11.dtd">
<!-- Generated by graphviz version 2.39.20161028.1504 (20161028.1504)
 -->
<!-- Title: assertions Pages: 1 -->
<svg width="584pt" height="987pt"
 viewBox="72.00 72.00 512.00 915.00" xmlns="http://www.w3.org/2000/svg" xmlns:xlink="http://www.w3.org/1999/xlink">
<g id="graph0" class="graph" transform="scale(1 1) rotate(0) translate(76 911)">
<title>assertions</title>
<polygon fill="#ffffff" stroke="transparent" points="-4,4 -4,-839 436,-839 436,4 -4,4"/>
<text text-anchor="start" x="8" y="-18" font-family="Courier,monospace" font-size="10.00" fill="#8b8989">assertions tool</text>
<text text-anchor="start" x="8" y="-7" font-family="Courier,monospace" font-size="10.00" fill="#8b8989">Generated on 2016/11/04, 00:49</text>
<g id="clust1" class="cluster">
<title>cluster_library_assertions</title>
<g id="a_clust1"><a xlink:href="https://github.com/LogtalkDotOrg/logtalk3/tree/master/tools/assertions/" xlink:title="https://github.com/LogtalkDotOrg/logtalk3/tree/master/tools/assertions/">
<path fill="#eee9e9" stroke="#8b8989" d="M20,-38C20,-38 412,-38 412,-38 418,-38 424,-44 424,-50 424,-50 424,-815 424,-815 424,-821 418,-827 412,-827 412,-827 20,-827 20,-827 14,-827 8,-821 8,-815 8,-815 8,-50 8,-50 8,-44 14,-38 20,-38"/>
<text text-anchor="middle" x="46.5" y="-45" font-family="Courier,monospace" font-size="10.00" fill="#8b8989">assertions</text>
</a>
</g>
</g>
<g id="clust3" class="cluster">
<title>cluster_file_/Users/pmoura/logtalk/tools/assertions/assertions.lgt</title>
<g id="a_clust3"><a xlink:href="https://github.com/LogtalkDotOrg/logtalk3/tree/master/tools/assertions/assertions.lgt" xlink:title="https://github.com/LogtalkDotOrg/logtalk3/tree/master/tools/assertions/assertions.lgt">
<path fill="#fffafa" stroke="#8b8989" d="M266,-67C266,-67 402,-67 402,-67 408,-67 414,-73 414,-79 414,-79 414,-577 414,-577 414,-583 408,-589 402,-589 402,-589 266,-589 266,-589 260,-589 254,-583 254,-577 254,-577 254,-79 254,-79 254,-73 260,-67 266,-67"/>
<text text-anchor="middle" x="304.5" y="-74" font-family="Courier,monospace" font-size="10.00" fill="#8b8989">assertions.lgt</text>
</a>
</g>
</g>
<g id="clust4" class="cluster">
<title>cluster_file_/Users/pmoura/logtalk/tools/assertions/assertions_messages.lgt</title>
<g id="a_clust4"><a xlink:href="https://github.com/LogtalkDotOrg/logtalk3/tree/master/tools/assertions/assertions_messages.lgt" xlink:title="https://github.com/LogtalkDotOrg/logtalk3/tree/master/tools/assertions/assertions_messages.lgt">
<path fill="#fffafa" stroke="#8b8989" d="M30,-479C30,-479 232,-479 232,-479 238,-479 244,-485 244,-491 244,-491 244,-577 244,-577 244,-583 238,-589 232,-589 232,-589 30,-589 30,-589 24,-589 18,-583 18,-577 18,-577 18,-491 18,-491 18,-485 24,-479 30,-479"/>
<text text-anchor="middle" x="95.5" y="-486" font-family="Courier,monospace" font-size="10.00" fill="#8b8989">assertions_messages.lgt</text>
</a>
</g>
</g>
<g id="clust5" class="cluster">
<title>cluster_other</title>
<g id="a_clust5"><a xlink:title="(external entities)">
<path fill="#ffffff" stroke="#8b8989" d="M164,-742C164,-742 382,-742 382,-742 388,-742 394,-748 394,-754 394,-754 394,-805 394,-805 394,-811 388,-817 382,-817 382,-817 164,-817 164,-817 158,-817 152,-811 152,-805 152,-805 152,-754 152,-754 152,-748 158,-742 164,-742"/>
<text text-anchor="middle" x="217.5" y="-749" font-family="Courier,monospace" font-size="10.00" fill="#8b8989">(external entities)</text>
</a>
</g>
</g>
<!-- assertions(Mode) -->
<g id="node1" class="node">
<title>assertions(Mode)</title>
<g id="a_node1"><a xlink:href="http://logtalk.org/library/assertions_1.html" xlink:title="http://logtalk.org/library/assertions_1.html">
<polygon fill="#f5f5dc" stroke="#000000" points="403.5,-579 264.5,-579 264.5,-508 403.5,-508 403.5,-579"/>
</a>
</g>
<g id="a_node1_0"><a xlink:href="assertions_1_object_xref_diagram.svg" xlink:title="Zoom">
<image xlink:href="zoom.png" width="11px" height="11px" preserveAspectRatio="xMinYMin meet" x="273" y="-574.5"/>
</a>
</g>
<g><a xlink:href="http://logtalk.org/library/assertions_1.html" xlink:title="http://logtalk.org/library/assertions_1.html">
<text text-anchor="start" x="275.5" y="-555.3" font-family="Courier,monospace" font-size="9.00" fill="#000000"> </text>
<text text-anchor="start" x="284" y="-554.7" font-family="Courier,monospace" font-size="11.00" fill="#000000">assertions(Mode)</text>
<text text-anchor="start" x="390" y="-555.3" font-family="Courier,monospace" font-size="9.00" fill="#000000"> </text>
<text text-anchor="start" x="275.5" y="-544.3" font-family="Courier,monospace" font-size="9.00" fill="#000000"> </text>
<text text-anchor="start" x="318" y="-544.9" font-family="Courier,monospace" font-size="7.00" fill="#000000">prototype</text>
<text text-anchor="start" x="390" y="-544.3" font-family="Courier,monospace" font-size="9.00" fill="#000000"> </text>
<text text-anchor="start" x="275.5" y="-534.3" font-family="Courier,monospace" font-size="9.00" fill="#000000"> </text>
<text text-anchor="start" x="275.5" y="-524.3" font-family="Courier,monospace" font-size="9.00" fill="#000000"> </text>
<text text-anchor="start" x="307" y="-524.3" font-family="Courier,monospace" font-size="9.00" fill="#000000">assertion/1</text>
<text text-anchor="start" x="390" y="-524.3" font-family="Courier,monospace" font-size="9.00" fill="#000000"> </text>
<text text-anchor="start" x="275.5" y="-514.3" font-family="Courier,monospace" font-size="9.00" fill="#000000"> </text>
<text text-anchor="start" x="307" y="-514.3" font-family="Courier,monospace" font-size="9.00" fill="#000000">assertion/2</text>
<text text-anchor="start" x="390" y="-514.3" font-family="Courier,monospace" font-size="9.00" fill="#000000"> </text>
</a>
</g>
</g>
<!-- expanding -->
<g id="node4" class="node">
<title>expanding</title>
<g id="a_node4"><a xlink:title="built&#45;in protocol">
<polygon fill="#7fffd4" stroke="#000000" stroke-dasharray="5,2" points="378,-807 284,-807 284,-771 384,-771 384,-801 378,-807"/>
<polyline fill="none" stroke="#000000" stroke-dasharray="5,2" points="378,-807 378,-801 "/>
<polyline fill="none" stroke="#000000" stroke-dasharray="5,2" points="384,-801 378,-801 "/>
<text text-anchor="start" x="292" y="-791.8" font-family="Courier,monospace" font-size="9.00" fill="#000000"> </text>
<text text-anchor="start" x="304" y="-791.2" font-family="Courier,monospace" font-size="11.00" fill="#000000">expanding</text>
<text text-anchor="start" x="370" y="-791.8" font-family="Courier,monospace" font-size="9.00" fill="#000000"> </text>
<text text-anchor="start" x="292" y="-780.8" font-family="Courier,monospace" font-size="9.00" fill="#000000"> </text>
<text text-anchor="start" x="298" y="-781.4" font-family="Courier,monospace" font-size="7.00" fill="#000000">built&#45;in protocol</text>
<text text-anchor="start" x="370" y="-780.8" font-family="Courier,monospace" font-size="9.00" fill="#000000"> </text>
</a>
</g>
</g>
<!-- assertions(Mode)&#45;&gt;expanding -->
<g id="edge1" class="edge">
<title>assertions(Mode)&#45;&gt;expanding</title>
<g id="a_edge1"><a xlink:title="implements">
<path fill="none" stroke="#000000" d="M334,-579.198C334,-629.068 334,-718.433 334,-762.686"/>
<ellipse fill="#000000" stroke="#000000" cx="334" cy="-766.91" rx="4" ry="4"/>
</a>
</g>
<text text-anchor="start" x="334" y="-672.8" font-family="Courier,monospace" font-size="9.00" fill="#000000">implements</text>
</g>
<!-- logtalk -->
<g id="node5" class="node">
<title>logtalk</title>
<g id="a_node5"><a xlink:title="built&#45;in prototype">
<polygon fill="#f5f5dc" stroke="#000000" stroke-dasharray="5,2" points="266,-807 162,-807 162,-771 266,-771 266,-807"/>
<text text-anchor="start" x="170" y="-791.8" font-family="Courier,monospace" font-size="9.00" fill="#000000"> </text>
<text text-anchor="start" x="190.5" y="-791.2" font-family="Courier,monospace" font-size="11.00" fill="#000000">logtalk</text>
<text text-anchor="start" x="252" y="-791.8" font-family="Courier,monospace" font-size="9.00" fill="#000000"> </text>
<text text-anchor="start" x="170" y="-780.8" font-family="Courier,monospace" font-size="9.00" fill="#000000"> </text>
<text text-anchor="start" x="176" y="-781.4" font-family="Courier,monospace" font-size="7.00" fill="#000000">built&#45;in prototype</text>
<text text-anchor="start" x="252" y="-780.8" font-family="Courier,monospace" font-size="9.00" fill="#000000"> </text>
</a>
</g>
</g>
<!-- assertions(Mode)&#45;&gt;logtalk -->
<g id="edge2" class="edge">
<title>assertions(Mode)&#45;&gt;logtalk</title>
<g id="a_edge2"><a xlink:title="uses">
<path fill="none" stroke="#000000" d="M316.551,-579.198C292.683,-628.029 250.305,-714.726 228.242,-759.862"/>
<polygon fill="#000000" stroke="#000000" points="228.112,-760.129 229.071,-767.277 222.842,-770.91 228.112,-760.129"/>
</a>
</g>
<text text-anchor="start" x="272" y="-672.8" font-family="Courier,monospace" font-size="9.00" fill="#000000">uses</text>
</g>
<!-- assertions -->
<g id="node2" class="node">
<title>assertions</title>
<g id="a_node2"><a xlink:href="http://logtalk.org/library/assertions_0.html" xlink:title="http://logtalk.org/library/assertions_0.html">
<polygon fill="#f5f5dc" stroke="#000000" points="381.5,-132 286.5,-132 286.5,-96 381.5,-96 381.5,-132"/>
<text text-anchor="start" x="295" y="-116.8" font-family="Courier,monospace" font-size="9.00" fill="#000000"> </text>
<text text-anchor="start" x="301" y="-116.2" font-family="Courier,monospace" font-size="11.00" fill="#000000">assertions</text>
<text text-anchor="start" x="368" y="-116.8" font-family="Courier,monospace" font-size="9.00" fill="#000000"> </text>
<text text-anchor="start" x="295" y="-105.8" font-family="Courier,monospace" font-size="9.00" fill="#000000"> </text>
<text text-anchor="start" x="315.5" y="-106.4" font-family="Courier,monospace" font-size="7.00" fill="#000000">prototype</text>
<text text-anchor="start" x="368" y="-105.8" font-family="Courier,monospace" font-size="9.00" fill="#000000"> </text>
</a>
</g>
</g>
<!-- assertions&#45;&gt;assertions(Mode) -->
<g id="edge3" class="edge">
<title>assertions&#45;&gt;assertions(Mode)</title>
<g id="a_edge3"><a xlink:title="extends">
<path fill="none" stroke="#000000" d="M334,-132.212C334,-153.942 334,-191.372 334,-223.5 334,-223.5 334,-223.5 334,-416.5 334,-443.389 334,-473.48 334,-497.621"/>
<polygon fill="#000000" stroke="#000000" points="334,-507.917 329.5,-497.917 334,-502.917 334,-497.917 334,-497.917 334,-497.917 334,-502.917 338.5,-497.917 334,-507.917 334,-507.917"/>
</a>
</g>
<text text-anchor="start" x="334" y="-317.8" font-family="Courier,monospace" font-size="9.00" fill="#000000">extends</text>
</g>
<!-- assertions_messages -->
<g id="node3" class="node">
<title>assertions_messages</title>
<g id="a_node3"><a xlink:href="http://logtalk.org/library/assertions_messages_0.html" xlink:title="http://logtalk.org/library/assertions_messages_0.html">
<polygon fill="#e0ffff" stroke="#000000" points="234,-579 28,-579 28,-575 24,-575 24,-571 28,-571 28,-516 24,-516 24,-512 28,-512 28,-508 234,-508 234,-579"/>
<polyline fill="none" stroke="#000000" points="28,-575 32,-575 32,-571 28,-571 "/>
<polyline fill="none" stroke="#000000" points="28,-516 32,-516 32,-512 28,-512 "/>
</a>
</g>
<g id="a_node3_1"><a xlink:href="assertions_messages_category_xref_diagram.svg" xlink:title="Zoom">
<image xlink:href="zoom.png" width="11px" height="11px" preserveAspectRatio="xMinYMin meet" x="36" y="-574.5"/>
</a>
</g>
<g><a xlink:href="http://logtalk.org/library/assertions_messages_0.html" xlink:title="http://logtalk.org/library/assertions_messages_0.html">
<text text-anchor="start" x="38.5" y="-555.3" font-family="Courier,monospace" font-size="9.00" fill="#000000"> </text>
<text text-anchor="start" x="70.5" y="-554.7" font-family="Courier,monospace" font-size="11.00" fill="#000000">assertions_messages</text>
<text text-anchor="start" x="220" y="-555.3" font-family="Courier,monospace" font-size="9.00" fill="#000000"> </text>
<text text-anchor="start" x="38.5" y="-544.3" font-family="Courier,monospace" font-size="9.00" fill="#000000"> </text>
<text text-anchor="start" x="116.5" y="-544.9" font-family="Courier,monospace" font-size="7.00" fill="#000000">category</text>
<text text-anchor="start" x="220" y="-544.3" font-family="Courier,monospace" font-size="9.00" fill="#000000"> </text>
<text text-anchor="start" x="38.5" y="-534.3" font-family="Courier,monospace" font-size="9.00" fill="#000000"> </text>
<text text-anchor="start" x="38.5" y="-524.3" font-family="Courier,monospace" font-size="9.00" fill="#000000"> </text>
<text text-anchor="start" x="47" y="-524.3" font-family="Courier,monospace" font-size="9.00" fill="#000000">logtalk::message_prefix_stream/4</text>
<text text-anchor="start" x="220" y="-524.3" font-family="Courier,monospace" font-size="9.00" fill="#000000"> </text>
<text text-anchor="start" x="38.5" y="-514.3" font-family="Courier,monospace" font-size="9.00" fill="#000000"> </text>
<text text-anchor="start" x="63" y="-514.3" font-family="Courier,monospace" font-size="9.00" fill="#000000">logtalk::message_tokens//2</text>
<text text-anchor="start" x="220" y="-514.3" font-family="Courier,monospace" font-size="9.00" fill="#000000"> </text>
</a>
</g>
</g>
<!-- assertions_messages&#45;&gt;logtalk -->
<g id="edge4" class="edge">
<title>assertions_messages&#45;&gt;logtalk</title>
<g id="a_edge4"><a xlink:title="provides">
<path fill="none" stroke="#000000" d="M143.069,-579.198C159.754,-628.548 189.514,-716.575 204.631,-761.289"/>
<polygon fill="#000000" stroke="#000000" points="204.569,-772.031 204.681,-761.437 211.2,-769.789 204.569,-772.031"/>
</a>
</g>
<text text-anchor="start" x="177" y="-672.8" font-family="Courier,monospace" font-size="9.00" fill="#000000">provides</text>
</g>
</g>
</svg>
