<?xml version="1.0" encoding="UTF-8" standalone="no"?>
<!DOCTYPE svg PUBLIC "-//W3C//DTD SVG 1.1//EN"
 "http://www.w3.org/Graphics/SVG/1.1/DTD/svg11.dtd">
<!-- Generated by graphviz version 2.39.20161028.1504 (20161028.1504)
 -->
<!-- Title: assertions_1_object Pages: 1 -->
<svg width="699pt" height="513pt"
 viewBox="72.00 72.00 627.00 440.85" xmlns="http://www.w3.org/2000/svg" xmlns:xlink="http://www.w3.org/1999/xlink">
<g id="graph0" class="graph" transform="scale(1 1) rotate(0) translate(76 436.853)">
<title>assertions_1_object</title>
<polygon fill="#ffffff" stroke="transparent" points="-4,4 -4,-364.853 551,-364.853 551,4 -4,4"/>
<text text-anchor="start" x="8" y="-7" font-family="Courier,monospace" font-size="10.00" fill="#8b8989">Generated on 2016/11/04, 00:44</text>
<g id="clust1" class="cluster">
<title>cluster_assertions_1_object</title>
<g id="a_clust1"><a xlink:href="https://github.com/LogtalkDotOrg/logtalk3/tree/master/tools/assertions/assertions.lgt" xlink:title="https://github.com/LogtalkDotOrg/logtalk3/tree/master/tools/assertions/assertions.lgt">
<path fill="#fffafa" stroke="#8b8989" d="M20,-27C20,-27 527,-27 527,-27 533,-27 539,-33 539,-39 539,-39 539,-340.853 539,-340.853 539,-346.853 533,-352.853 527,-352.853 527,-352.853 20,-352.853 20,-352.853 14,-352.853 8,-346.853 8,-340.853 8,-340.853 8,-39 8,-39 8,-33 14,-27 20,-27"/>
<text text-anchor="middle" x="64.5" y="-340.853" font-family="Courier,monospace" font-size="10.00" fill="#8b8989">assertions(Mode)</text>
</a>
</g>
</g>
<g id="clust2" class="cluster">
<title>cluster_other</title>
<g id="a_clust2"><a xlink:title="(external predicates)">
<path fill="#ffffff" stroke="#8b8989" d="M234,-37C234,-37 494,-37 494,-37 500,-37 506,-43 506,-49 506,-49 506,-106.426 506,-106.426 506,-112.426 500,-118.426 494,-118.426 494,-118.426 234,-118.426 234,-118.426 228,-118.426 222,-112.426 222,-106.426 222,-106.426 222,-49 222,-49 222,-43 228,-37 234,-37"/>
<text text-anchor="middle" x="293.5" y="-106.426" font-family="Courier,monospace" font-size="10.00" fill="#8b8989">(external predicates)</text>
</a>
</g>
</g>
<!-- assertion/1 -->
<g id="node1" class="node">
<title>assertion/1</title>
<g id="a_node1"><a xlink:href="http://logtalk.org/library/assertions_1.html#assertion/1" xlink:title="http://logtalk.org/library/assertions_1.html#assertion/1">
<ellipse fill="#00ff7f" stroke="#000000" cx="458" cy="-302.64" rx="71.3357" ry="21.4286"/>
<text text-anchor="start" x="416" y="-305.44" font-family="Courier,monospace" font-size="9.00" fill="#000000"> </text>
<text text-anchor="start" x="422" y="-304.84" font-family="Courier,monospace" font-size="11.00" fill="#000000">assertion/1</text>
<text text-anchor="start" x="495" y="-305.44" font-family="Courier,monospace" font-size="9.00" fill="#000000"> </text>
<text text-anchor="start" x="416" y="-294.44" font-family="Courier,monospace" font-size="9.00" fill="#000000"> </text>
<text text-anchor="start" x="445.5" y="-295.04" font-family="Courier,monospace" font-size="7.00" fill="#000000">public</text>
<text text-anchor="start" x="495" y="-294.44" font-family="Courier,monospace" font-size="9.00" fill="#000000"> </text>
</a>
</g>
</g>
<!-- logtalk::print_message/3 -->
<g id="node4" class="node">
<title>logtalk::print_message/3</title>
<g id="a_node4"><a xlink:href="http://logtalk.org/library/logtalk_0.html#print_message/3" xlink:title="http://logtalk.org/library/logtalk_0.html#print_message/3">
<ellipse fill="#d3d3d3" stroke="#000000" stroke-dasharray="5,2" cx="364" cy="-68.2132" rx="132.458" ry="21.4286"/>
<text text-anchor="start" x="279" y="-71.0132" font-family="Courier,monospace" font-size="9.00" fill="#000000"> </text>
<text text-anchor="start" x="285" y="-70.4132" font-family="Courier,monospace" font-size="11.00" fill="#000000">logtalk::print_message/3</text>
<text text-anchor="start" x="444" y="-71.0132" font-family="Courier,monospace" font-size="9.00" fill="#000000"> </text>
<text text-anchor="start" x="279" y="-60.0132" font-family="Courier,monospace" font-size="9.00" fill="#000000"> </text>
<text text-anchor="start" x="347.5" y="-60.6132" font-family="Courier,monospace" font-size="7.00" fill="#000000">external</text>
<text text-anchor="start" x="444" y="-60.0132" font-family="Courier,monospace" font-size="9.00" fill="#000000"> </text>
</a>
</g>
</g>
<!-- assertion/1&#45;&gt;logtalk::print_message/3 -->
<g id="edge1" class="edge">
<title>assertion/1&#45;&gt;logtalk::print_message/3</title>
<g id="a_edge1"><a xlink:title="calls">
<path fill="none" stroke="#000000" d="M449.492,-281.422C433.001,-240.294 396.59,-149.488 377.03,-100.709"/>
<polygon fill="#000000" stroke="#000000" points="377.022,-100.689 371.077,-96.6091 372.556,-89.5514 377.022,-100.689"/>
</a>
</g>
<text text-anchor="start" x="412" y="-183.226" font-family="Courier,monospace" font-size="9.00" fill="#000000">calls</text>
</g>
<!-- assertion/2 -->
<g id="node2" class="node">
<title>assertion/2</title>
<g id="a_node2"><a xlink:href="http://logtalk.org/library/assertions_1.html#assertion/2" xlink:title="http://logtalk.org/library/assertions_1.html#assertion/2">
<ellipse fill="#00ff7f" stroke="#000000" cx="297" cy="-302.64" rx="71.3357" ry="21.4286"/>
<text text-anchor="start" x="255" y="-305.44" font-family="Courier,monospace" font-size="9.00" fill="#000000"> </text>
<text text-anchor="start" x="261" y="-304.84" font-family="Courier,monospace" font-size="11.00" fill="#000000">assertion/2</text>
<text text-anchor="start" x="334" y="-305.44" font-family="Courier,monospace" font-size="9.00" fill="#000000"> </text>
<text text-anchor="start" x="255" y="-294.44" font-family="Courier,monospace" font-size="9.00" fill="#000000"> </text>
<text text-anchor="start" x="284.5" y="-295.04" font-family="Courier,monospace" font-size="7.00" fill="#000000">public</text>
<text text-anchor="start" x="334" y="-294.44" font-family="Courier,monospace" font-size="9.00" fill="#000000"> </text>
</a>
</g>
</g>
<!-- assertion/2&#45;&gt;logtalk::print_message/3 -->
<g id="edge2" class="edge">
<title>assertion/2&#45;&gt;logtalk::print_message/3</title>
<g id="a_edge2"><a xlink:title="calls">
<path fill="none" stroke="#000000" d="M303.064,-281.422C314.769,-240.468 340.552,-150.255 354.535,-101.33"/>
<polygon fill="#000000" stroke="#000000" points="354.604,-101.089 352.407,-94.2212 357.901,-89.5514 354.604,-101.089"/>
</a>
</g>
<text text-anchor="start" x="331" y="-183.226" font-family="Courier,monospace" font-size="9.00" fill="#000000">calls</text>
</g>
<!-- goal_expansion/2 -->
<g id="node3" class="node">
<title>goal_expansion/2</title>
<ellipse fill="#f5f5dc" stroke="#000000" cx="113" cy="-302.64" rx="94.5053" ry="21.4286"/>
<text text-anchor="start" x="54" y="-305.44" font-family="Courier,monospace" font-size="9.00" fill="#000000"> </text>
<text text-anchor="start" x="60" y="-304.84" font-family="Courier,monospace" font-size="11.00" fill="#000000">goal_expansion/2</text>
<text text-anchor="start" x="166" y="-305.44" font-family="Courier,monospace" font-size="9.00" fill="#000000"> </text>
<text text-anchor="start" x="54" y="-294.44" font-family="Courier,monospace" font-size="9.00" fill="#000000"> </text>
<text text-anchor="start" x="102" y="-295.04" font-family="Courier,monospace" font-size="7.00" fill="#000000">local</text>
<text text-anchor="start" x="166" y="-294.44" font-family="Courier,monospace" font-size="9.00" fill="#000000"> </text>
</g>
</g>
</svg>
