<?xml version="1.0" encoding="UTF-8" standalone="no"?>
<!DOCTYPE svg PUBLIC "-//W3C//DTD SVG 1.1//EN"
 "http://www.w3.org/Graphics/SVG/1.1/DTD/svg11.dtd">
<!-- Generated by graphviz version 2.39.20161028.1504 (20161028.1504)
 -->
<!-- Title: assertions_messages_category Pages: 1 -->
<svg width="828pt" height="503pt"
 viewBox="72.00 72.00 756.00 430.85" xmlns="http://www.w3.org/2000/svg" xmlns:xlink="http://www.w3.org/1999/xlink">
<g id="graph0" class="graph" transform="scale(1 1) rotate(0) translate(76 426.853)">
<title>assertions_messages_category</title>
<polygon fill="#ffffff" stroke="transparent" points="-4,4 -4,-354.853 680,-354.853 680,4 -4,4"/>
<text text-anchor="start" x="8" y="-7" font-family="Courier,monospace" font-size="10.00" fill="#8b8989">Generated on 2016/11/04, 00:44</text>
<g id="clust1" class="cluster">
<title>cluster_assertions_messages_category</title>
<g id="a_clust1"><a xlink:href="https://github.com/LogtalkDotOrg/logtalk3/tree/master/tools/assertions/assertions_messages.lgt" xlink:title="https://github.com/LogtalkDotOrg/logtalk3/tree/master/tools/assertions/assertions_messages.lgt">
<path fill="#fffafa" stroke="#8b8989" d="M20,-27C20,-27 656,-27 656,-27 662,-27 668,-33 668,-39 668,-39 668,-330.853 668,-330.853 668,-336.853 662,-342.853 656,-342.853 656,-342.853 20,-342.853 20,-342.853 14,-342.853 8,-336.853 8,-330.853 8,-330.853 8,-39 8,-39 8,-33 14,-27 20,-27"/>
<text text-anchor="middle" x="73.5" y="-330.853" font-family="Courier,monospace" font-size="10.00" fill="#8b8989">assertions_messages</text>
</a>
</g>
</g>
<!-- message_prefix_stream/3 -->
<g id="node1" class="node">
<title>message_prefix_stream/3</title>
<ellipse fill="#f5f5dc" stroke="#000000" cx="488" cy="-58.2132" rx="127.059" ry="21.4286"/>
<text text-anchor="start" x="406" y="-61.0132" font-family="Courier,monospace" font-size="9.00" fill="#000000"> </text>
<text text-anchor="start" x="412" y="-60.4132" font-family="Courier,monospace" font-size="11.00" fill="#000000">message_prefix_stream/3</text>
<text text-anchor="start" x="564" y="-61.0132" font-family="Courier,monospace" font-size="9.00" fill="#000000"> </text>
<text text-anchor="start" x="406" y="-50.0132" font-family="Courier,monospace" font-size="9.00" fill="#000000"> </text>
<text text-anchor="start" x="477" y="-50.6132" font-family="Courier,monospace" font-size="7.00" fill="#000000">local</text>
<text text-anchor="start" x="564" y="-50.0132" font-family="Courier,monospace" font-size="9.00" fill="#000000"> </text>
</g>
<!-- message_tokens//1 -->
<g id="node2" class="node">
<title>message_tokens//1</title>
<ellipse fill="#f5f5dc" stroke="#000000" cx="159" cy="-58.2132" rx="99.9045" ry="21.4286"/>
<text text-anchor="start" x="97" y="-61.0132" font-family="Courier,monospace" font-size="9.00" fill="#000000"> </text>
<text text-anchor="start" x="103" y="-60.4132" font-family="Courier,monospace" font-size="11.00" fill="#000000">message_tokens//1</text>
<text text-anchor="start" x="216" y="-61.0132" font-family="Courier,monospace" font-size="9.00" fill="#000000"> </text>
<text text-anchor="start" x="97" y="-50.0132" font-family="Courier,monospace" font-size="9.00" fill="#000000"> </text>
<text text-anchor="start" x="148.5" y="-50.6132" font-family="Courier,monospace" font-size="7.00" fill="#000000">local</text>
<text text-anchor="start" x="216" y="-50.0132" font-family="Courier,monospace" font-size="9.00" fill="#000000"> </text>
</g>
<!-- logtalk::message_prefix_stream/4 -->
<g id="node3" class="node">
<title>logtalk::message_prefix_stream/4</title>
<g id="a_node3"><a xlink:href="http://logtalk.org/library/logtalk_0.html#message_prefix_stream/4" xlink:title="http://logtalk.org/library/logtalk_0.html#message_prefix_stream/4">
<ellipse fill="#87ceeb" stroke="#000000" cx="488" cy="-292.64" rx="169.912" ry="21.4286"/>
<text text-anchor="start" x="376" y="-295.44" font-family="Courier,monospace" font-size="9.00" fill="#000000"> </text>
<text text-anchor="start" x="382" y="-294.84" font-family="Courier,monospace" font-size="11.00" fill="#000000">logtalk::message_prefix_stream/4</text>
<text text-anchor="start" x="594" y="-295.44" font-family="Courier,monospace" font-size="9.00" fill="#000000"> </text>
<text text-anchor="start" x="376" y="-284.44" font-family="Courier,monospace" font-size="9.00" fill="#000000"> </text>
<text text-anchor="start" x="469" y="-285.04" font-family="Courier,monospace" font-size="7.00" fill="#000000">multifile</text>
<text text-anchor="start" x="594" y="-284.44" font-family="Courier,monospace" font-size="9.00" fill="#000000"> </text>
</a>
</g>
</g>
<!-- logtalk::message_prefix_stream/4&#45;&gt;message_prefix_stream/3 -->
<g id="edge1" class="edge">
<title>logtalk::message_prefix_stream/4&#45;&gt;message_prefix_stream/3</title>
<g id="a_edge1"><a xlink:title="calls">
<path fill="none" stroke="#000000" d="M488,-271.422C488,-230.555 488,-140.638 488,-91.642"/>
<polygon fill="#000000" stroke="#000000" points="488,-91.5514 484,-85.5514 488,-79.5514 488,-91.5514"/>
</a>
</g>
<text text-anchor="start" x="488" y="-173.226" font-family="Courier,monospace" font-size="9.00" fill="#000000">calls</text>
</g>
<!-- logtalk::message_tokens//2 -->
<g id="node4" class="node">
<title>logtalk::message_tokens//2</title>
<g id="a_node4"><a xlink:href="http://logtalk.org/library/logtalk_0.html#message_tokens//2" xlink:title="http://logtalk.org/library/logtalk_0.html#message_tokens//2">
<ellipse fill="#87ceeb" stroke="#000000" cx="159" cy="-292.64" rx="141.343" ry="21.4286"/>
<text text-anchor="start" x="67" y="-295.44" font-family="Courier,monospace" font-size="9.00" fill="#000000"> </text>
<text text-anchor="start" x="73" y="-294.84" font-family="Courier,monospace" font-size="11.00" fill="#000000">logtalk::message_tokens//2</text>
<text text-anchor="start" x="245" y="-295.44" font-family="Courier,monospace" font-size="9.00" fill="#000000"> </text>
<text text-anchor="start" x="67" y="-284.44" font-family="Courier,monospace" font-size="9.00" fill="#000000"> </text>
<text text-anchor="start" x="140" y="-285.04" font-family="Courier,monospace" font-size="7.00" fill="#000000">multifile</text>
<text text-anchor="start" x="245" y="-284.44" font-family="Courier,monospace" font-size="9.00" fill="#000000"> </text>
</a>
</g>
</g>
<!-- logtalk::message_tokens//2&#45;&gt;message_tokens//1 -->
<g id="edge2" class="edge">
<title>logtalk::message_tokens//2&#45;&gt;message_tokens//1</title>
<g id="a_edge2"><a xlink:title="calls">
<path fill="none" stroke="#000000" d="M159,-271.422C159,-230.555 159,-140.638 159,-91.642"/>
<polygon fill="#000000" stroke="#000000" points="159,-91.5514 155,-85.5514 159,-79.5514 159,-91.5514"/>
</a>
</g>
<text text-anchor="start" x="159" y="-173.226" font-family="Courier,monospace" font-size="9.00" fill="#000000">calls</text>
</g>
</g>
</svg>
