<?xml version="1.0" encoding="UTF-8" standalone="no"?>
<!DOCTYPE svg PUBLIC "-//W3C//DTD SVG 1.1//EN"
 "http://www.w3.org/Graphics/SVG/1.1/DTD/svg11.dtd">
<!-- Generated by graphviz version 2.39.20161028.1504 (20161028.1504)
 -->
<!-- Title: dead_code_scanner Pages: 1 -->
<svg width="590pt" height="645pt"
 viewBox="72.00 72.00 518.00 573.00" xmlns="http://www.w3.org/2000/svg" xmlns:xlink="http://www.w3.org/1999/xlink">
<g id="graph0" class="graph" transform="scale(1 1) rotate(0) translate(76 569)">
<title>dead_code_scanner</title>
<polygon fill="#ffffff" stroke="transparent" points="-4,4 -4,-497 442,-497 442,4 -4,4"/>
<text text-anchor="start" x="8" y="-18" font-family="Courier,monospace" font-size="10.00" fill="#8b8989">dead_code_scanner tool</text>
<text text-anchor="start" x="8" y="-7" font-family="Courier,monospace" font-size="10.00" fill="#8b8989">Generated on 2016/11/04, 00:44</text>
<g id="clust1" class="cluster">
<title>cluster_library_dead_code_scanner</title>
<g id="a_clust1"><a xlink:href="https://github.com/LogtalkDotOrg/logtalk3/tree/master/tools/dead_code_scanner/" xlink:title="https://github.com/LogtalkDotOrg/logtalk3/tree/master/tools/dead_code_scanner/">
<path fill="#eee9e9" stroke="#8b8989" d="M20,-38C20,-38 418,-38 418,-38 424,-38 430,-44 430,-50 430,-50 430,-473 430,-473 430,-479 424,-485 418,-485 418,-485 20,-485 20,-485 14,-485 8,-479 8,-473 8,-473 8,-50 8,-50 8,-44 14,-38 20,-38"/>
<text text-anchor="middle" x="67.5" y="-45" font-family="Courier,monospace" font-size="10.00" fill="#8b8989">dead_code_scanner</text>
</a>
</g>
</g>
<g id="clust3" class="cluster">
<title>cluster_file_/Users/pmoura/logtalk/tools/dead_code_scanner/dead_code_scanner.lgt</title>
<g id="a_clust3"><a xlink:href="https://github.com/LogtalkDotOrg/logtalk3/tree/master/tools/dead_code_scanner/dead_code_scanner.lgt" xlink:title="https://github.com/LogtalkDotOrg/logtalk3/tree/master/tools/dead_code_scanner/dead_code_scanner.lgt">
<path fill="#fffafa" stroke="#8b8989" d="M266,-67C266,-67 408,-67 408,-67 414,-67 420,-73 420,-79 420,-79 420,-235 420,-235 420,-241 414,-247 408,-247 408,-247 266,-247 266,-247 260,-247 254,-241 254,-235 254,-235 254,-79 254,-79 254,-73 260,-67 266,-67"/>
<text text-anchor="middle" x="325.5" y="-74" font-family="Courier,monospace" font-size="10.00" fill="#8b8989">dead_code_scanner.lgt</text>
</a>
</g>
</g>
<g id="clust4" class="cluster">
<title>cluster_file_/Users/pmoura/logtalk/tools/dead_code_scanner/dead_code_scanner_messages.lgt</title>
<g id="a_clust4"><a xlink:href="https://github.com/LogtalkDotOrg/logtalk3/tree/master/tools/dead_code_scanner/dead_code_scanner_messages.lgt" xlink:title="https://github.com/LogtalkDotOrg/logtalk3/tree/master/tools/dead_code_scanner/dead_code_scanner_messages.lgt">
<path fill="#fffafa" stroke="#8b8989" d="M30,-102C30,-102 232,-102 232,-102 238,-102 244,-108 244,-114 244,-114 244,-200 244,-200 244,-206 238,-212 232,-212 232,-212 30,-212 30,-212 24,-212 18,-206 18,-200 18,-200 18,-114 18,-114 18,-108 24,-102 30,-102"/>
<text text-anchor="middle" x="116.5" y="-109" font-family="Courier,monospace" font-size="10.00" fill="#8b8989">dead_code_scanner_messages.lgt</text>
</a>
</g>
</g>
<g id="clust5" class="cluster">
<title>cluster_other</title>
<g id="a_clust5"><a xlink:title="(external entities)">
<path fill="#ffffff" stroke="#8b8989" d="M130,-400C130,-400 398,-400 398,-400 404,-400 410,-406 410,-412 410,-412 410,-463 410,-463 410,-469 404,-475 398,-475 398,-475 130,-475 130,-475 124,-475 118,-469 118,-463 118,-463 118,-412 118,-412 118,-406 124,-400 130,-400"/>
<text text-anchor="middle" x="183.5" y="-407" font-family="Courier,monospace" font-size="10.00" fill="#8b8989">(external entities)</text>
</a>
</g>
</g>
<!-- dead_code_scanner -->
<g id="node1" class="node">
<title>dead_code_scanner</title>
<g id="a_node1"><a xlink:href="http://logtalk.org/library/dead_code_scanner_0.html" xlink:title="http://logtalk.org/library/dead_code_scanner_0.html">
<polygon fill="#f5f5dc" stroke="#000000" points="410,-237 264,-237 264,-96 410,-96 410,-237"/>
</a>
</g>
<g id="a_node1_0"><a xlink:href="dead_code_scanner_object_xref_diagram.svg" xlink:title="Zoom">
<image xlink:href="zoom.png" width="11px" height="11px" preserveAspectRatio="xMinYMin meet" x="272" y="-232.5"/>
</a>
</g>
<g><a xlink:href="http://logtalk.org/library/dead_code_scanner_0.html" xlink:title="http://logtalk.org/library/dead_code_scanner_0.html">
<text text-anchor="start" x="274.5" y="-213.3" font-family="Courier,monospace" font-size="9.00" fill="#000000"> </text>
<text text-anchor="start" x="283" y="-212.7" font-family="Courier,monospace" font-size="11.00" fill="#000000">dead_code_scanner</text>
<text text-anchor="start" x="396" y="-213.3" font-family="Courier,monospace" font-size="9.00" fill="#000000"> </text>
<text text-anchor="start" x="274.5" y="-202.3" font-family="Courier,monospace" font-size="9.00" fill="#000000"> </text>
<text text-anchor="start" x="320.5" y="-202.9" font-family="Courier,monospace" font-size="7.00" fill="#000000">prototype</text>
<text text-anchor="start" x="396" y="-202.3" font-family="Courier,monospace" font-size="9.00" fill="#000000"> </text>
<text text-anchor="start" x="274.5" y="-192.3" font-family="Courier,monospace" font-size="9.00" fill="#000000"> </text>
<text text-anchor="start" x="274.5" y="-182.3" font-family="Courier,monospace" font-size="9.00" fill="#000000"> </text>
<text text-anchor="start" x="317.5" y="-182.3" font-family="Courier,monospace" font-size="9.00" fill="#000000">entity/1</text>
<text text-anchor="start" x="396" y="-182.3" font-family="Courier,monospace" font-size="9.00" fill="#000000"> </text>
<text text-anchor="start" x="274.5" y="-172.3" font-family="Courier,monospace" font-size="9.00" fill="#000000"> </text>
<text text-anchor="start" x="323" y="-172.3" font-family="Courier,monospace" font-size="9.00" fill="#000000">file/1</text>
<text text-anchor="start" x="396" y="-172.3" font-family="Courier,monospace" font-size="9.00" fill="#000000"> </text>
<text text-anchor="start" x="274.5" y="-162.3" font-family="Courier,monospace" font-size="9.00" fill="#000000"> </text>
<text text-anchor="start" x="309.5" y="-162.3" font-family="Courier,monospace" font-size="9.00" fill="#000000">directory/1</text>
<text text-anchor="start" x="396" y="-162.3" font-family="Courier,monospace" font-size="9.00" fill="#000000"> </text>
<text text-anchor="start" x="274.5" y="-152.3" font-family="Courier,monospace" font-size="9.00" fill="#000000"> </text>
<text text-anchor="start" x="307" y="-152.3" font-family="Courier,monospace" font-size="9.00" fill="#000000">rdirectory/1</text>
<text text-anchor="start" x="396" y="-152.3" font-family="Courier,monospace" font-size="9.00" fill="#000000"> </text>
<text text-anchor="start" x="274.5" y="-142.3" font-family="Courier,monospace" font-size="9.00" fill="#000000"> </text>
<text text-anchor="start" x="315" y="-142.3" font-family="Courier,monospace" font-size="9.00" fill="#000000">library/1</text>
<text text-anchor="start" x="396" y="-142.3" font-family="Courier,monospace" font-size="9.00" fill="#000000"> </text>
<text text-anchor="start" x="274.5" y="-132.3" font-family="Courier,monospace" font-size="9.00" fill="#000000"> </text>
<text text-anchor="start" x="312" y="-132.3" font-family="Courier,monospace" font-size="9.00" fill="#000000">rlibrary/1</text>
<text text-anchor="start" x="396" y="-132.3" font-family="Courier,monospace" font-size="9.00" fill="#000000"> </text>
<text text-anchor="start" x="274.5" y="-122.3" font-family="Courier,monospace" font-size="9.00" fill="#000000"> </text>
<text text-anchor="start" x="325.5" y="-122.3" font-family="Courier,monospace" font-size="9.00" fill="#000000">all/0</text>
<text text-anchor="start" x="396" y="-122.3" font-family="Courier,monospace" font-size="9.00" fill="#000000"> </text>
<text text-anchor="start" x="274.5" y="-112.3" font-family="Courier,monospace" font-size="9.00" fill="#000000"> </text>
<text text-anchor="start" x="307" y="-112.3" font-family="Courier,monospace" font-size="9.00" fill="#000000">predicates/2</text>
<text text-anchor="start" x="396" y="-112.3" font-family="Courier,monospace" font-size="9.00" fill="#000000"> </text>
<text text-anchor="start" x="274.5" y="-102.3" font-family="Courier,monospace" font-size="9.00" fill="#000000"> </text>
<text text-anchor="start" x="309.5" y="-102.3" font-family="Courier,monospace" font-size="9.00" fill="#000000">predicate/2</text>
<text text-anchor="start" x="396" y="-102.3" font-family="Courier,monospace" font-size="9.00" fill="#000000"> </text>
</a>
</g>
</g>
<!-- list -->
<g id="node3" class="node">
<title>list</title>
<g id="a_node3"><a xlink:title="prototype">
<polygon fill="#f5f5dc" stroke="#000000" stroke-dasharray="5,2" points="400,-465 334,-465 334,-429 400,-429 400,-465"/>
<text text-anchor="start" x="342" y="-449.8" font-family="Courier,monospace" font-size="9.00" fill="#000000"> </text>
<text text-anchor="start" x="353.5" y="-449.2" font-family="Courier,monospace" font-size="11.00" fill="#000000">list</text>
<text text-anchor="start" x="386" y="-449.8" font-family="Courier,monospace" font-size="9.00" fill="#000000"> </text>
<text text-anchor="start" x="342" y="-438.8" font-family="Courier,monospace" font-size="9.00" fill="#000000"> </text>
<text text-anchor="start" x="348" y="-439.4" font-family="Courier,monospace" font-size="7.00" fill="#000000">prototype</text>
<text text-anchor="start" x="386" y="-438.8" font-family="Courier,monospace" font-size="9.00" fill="#000000"> </text>
</a>
</g>
</g>
<!-- dead_code_scanner&#45;&gt;list -->
<g id="edge1" class="edge">
<title>dead_code_scanner&#45;&gt;list</title>
<g id="a_edge1"><a xlink:title="uses">
<path fill="none" stroke="#000000" d="M344.57,-237.282C350.768,-295.232 359.23,-374.351 363.784,-416.929"/>
<polygon fill="#000000" stroke="#000000" points="363.789,-416.974 368.404,-422.515 365.065,-428.906 363.789,-416.974"/>
</a>
</g>
<text text-anchor="start" x="355" y="-330.8" font-family="Courier,monospace" font-size="9.00" fill="#000000">uses</text>
</g>
<!-- logtalk -->
<g id="node4" class="node">
<title>logtalk</title>
<g id="a_node4"><a xlink:title="built&#45;in prototype">
<polygon fill="#f5f5dc" stroke="#000000" stroke-dasharray="5,2" points="232,-465 128,-465 128,-429 232,-429 232,-465"/>
<text text-anchor="start" x="136" y="-449.8" font-family="Courier,monospace" font-size="9.00" fill="#000000"> </text>
<text text-anchor="start" x="156.5" y="-449.2" font-family="Courier,monospace" font-size="11.00" fill="#000000">logtalk</text>
<text text-anchor="start" x="218" y="-449.8" font-family="Courier,monospace" font-size="9.00" fill="#000000"> </text>
<text text-anchor="start" x="136" y="-438.8" font-family="Courier,monospace" font-size="9.00" fill="#000000"> </text>
<text text-anchor="start" x="142" y="-439.4" font-family="Courier,monospace" font-size="7.00" fill="#000000">built&#45;in prototype</text>
<text text-anchor="start" x="218" y="-438.8" font-family="Courier,monospace" font-size="9.00" fill="#000000"> </text>
</a>
</g>
</g>
<!-- dead_code_scanner&#45;&gt;logtalk -->
<g id="edge2" class="edge">
<title>dead_code_scanner&#45;&gt;logtalk</title>
<g id="a_edge2"><a xlink:title="uses">
<path fill="none" stroke="#000000" d="M297.382,-237.282C264.597,-295.856 219.707,-376.059 196.068,-418.293"/>
<polygon fill="#000000" stroke="#000000" points="195.989,-418.435 196.548,-425.624 190.128,-428.906 195.989,-418.435"/>
</a>
</g>
<text text-anchor="start" x="246" y="-330.8" font-family="Courier,monospace" font-size="9.00" fill="#000000">uses</text>
</g>
<!-- os -->
<g id="node5" class="node">
<title>os</title>
<g id="a_node5"><a xlink:title="prototype">
<polygon fill="#f5f5dc" stroke="#000000" stroke-dasharray="5,2" points="316,-465 250,-465 250,-429 316,-429 316,-465"/>
<text text-anchor="start" x="258" y="-449.8" font-family="Courier,monospace" font-size="9.00" fill="#000000"> </text>
<text text-anchor="start" x="276" y="-449.2" font-family="Courier,monospace" font-size="11.00" fill="#000000">os</text>
<text text-anchor="start" x="302" y="-449.8" font-family="Courier,monospace" font-size="9.00" fill="#000000"> </text>
<text text-anchor="start" x="258" y="-438.8" font-family="Courier,monospace" font-size="9.00" fill="#000000"> </text>
<text text-anchor="start" x="264" y="-439.4" font-family="Courier,monospace" font-size="7.00" fill="#000000">prototype</text>
<text text-anchor="start" x="302" y="-438.8" font-family="Courier,monospace" font-size="9.00" fill="#000000"> </text>
</a>
</g>
</g>
<!-- dead_code_scanner&#45;&gt;os -->
<g id="edge3" class="edge">
<title>dead_code_scanner&#45;&gt;os</title>
<g id="a_edge3"><a xlink:title="uses">
<path fill="none" stroke="#000000" d="M323.374,-237.282C312.217,-295.232 296.986,-374.351 288.789,-416.929"/>
<polygon fill="#000000" stroke="#000000" points="288.752,-417.122 291.546,-423.77 286.483,-428.906 288.752,-417.122"/>
</a>
</g>
<text text-anchor="start" x="305" y="-330.8" font-family="Courier,monospace" font-size="9.00" fill="#000000">uses</text>
</g>
<!-- dead_code_scanner_messages -->
<g id="node2" class="node">
<title>dead_code_scanner_messages</title>
<g id="a_node2"><a xlink:href="http://logtalk.org/library/dead_code_scanner_messages_0.html" xlink:title="http://logtalk.org/library/dead_code_scanner_messages_0.html">
<polygon fill="#e0ffff" stroke="#000000" points="234,-202 28,-202 28,-198 24,-198 24,-194 28,-194 28,-139 24,-139 24,-135 28,-135 28,-131 234,-131 234,-202"/>
<polyline fill="none" stroke="#000000" points="28,-198 32,-198 32,-194 28,-194 "/>
<polyline fill="none" stroke="#000000" points="28,-139 32,-139 32,-135 28,-135 "/>
</a>
</g>
<g id="a_node2_1"><a xlink:href="dead_code_scanner_messages_category_xref_diagram.svg" xlink:title="Zoom">
<image xlink:href="zoom.png" width="11px" height="11px" preserveAspectRatio="xMinYMin meet" x="36" y="-197.5"/>
</a>
</g>
<g><a xlink:href="http://logtalk.org/library/dead_code_scanner_messages_0.html" xlink:title="http://logtalk.org/library/dead_code_scanner_messages_0.html">
<text text-anchor="start" x="38.5" y="-178.3" font-family="Courier,monospace" font-size="9.00" fill="#000000"> </text>
<text text-anchor="start" x="47.5" y="-177.7" font-family="Courier,monospace" font-size="11.00" fill="#000000">dead_code_scanner_messages</text>
<text text-anchor="start" x="220" y="-178.3" font-family="Courier,monospace" font-size="9.00" fill="#000000"> </text>
<text text-anchor="start" x="38.5" y="-167.3" font-family="Courier,monospace" font-size="9.00" fill="#000000"> </text>
<text text-anchor="start" x="116.5" y="-167.9" font-family="Courier,monospace" font-size="7.00" fill="#000000">category</text>
<text text-anchor="start" x="220" y="-167.3" font-family="Courier,monospace" font-size="9.00" fill="#000000"> </text>
<text text-anchor="start" x="38.5" y="-157.3" font-family="Courier,monospace" font-size="9.00" fill="#000000"> </text>
<text text-anchor="start" x="38.5" y="-147.3" font-family="Courier,monospace" font-size="9.00" fill="#000000"> </text>
<text text-anchor="start" x="47" y="-147.3" font-family="Courier,monospace" font-size="9.00" fill="#000000">logtalk::message_prefix_stream/4</text>
<text text-anchor="start" x="220" y="-147.3" font-family="Courier,monospace" font-size="9.00" fill="#000000"> </text>
<text text-anchor="start" x="38.5" y="-137.3" font-family="Courier,monospace" font-size="9.00" fill="#000000"> </text>
<text text-anchor="start" x="63" y="-137.3" font-family="Courier,monospace" font-size="9.00" fill="#000000">logtalk::message_tokens//2</text>
<text text-anchor="start" x="220" y="-137.3" font-family="Courier,monospace" font-size="9.00" fill="#000000"> </text>
</a>
</g>
</g>
<!-- dead_code_scanner_messages&#45;&gt;logtalk -->
<g id="edge4" class="edge">
<title>dead_code_scanner_messages&#45;&gt;logtalk</title>
<g id="a_edge4"><a xlink:title="provides">
<path fill="none" stroke="#000000" d="M137.206,-202.026C147.063,-258.454 166.1,-367.429 175.082,-418.844"/>
<polygon fill="#000000" stroke="#000000" points="173.391,-429.505 175.118,-419.052 180.286,-428.3 173.391,-429.505"/>
</a>
</g>
<text text-anchor="start" x="160" y="-330.8" font-family="Courier,monospace" font-size="9.00" fill="#000000">provides</text>
</g>
</g>
</svg>
