<?xml version="1.0" encoding="UTF-8" standalone="no"?>
<!DOCTYPE svg PUBLIC "-//W3C//DTD SVG 1.1//EN"
 "http://www.w3.org/Graphics/SVG/1.1/DTD/svg11.dtd">
<!-- Generated by graphviz version 2.39.20161028.1504 (20161028.1504)
 -->
<!-- Title: debugger Pages: 1 -->
<svg width="662pt" height="749pt"
 viewBox="72.00 72.00 590.00 677.00" xmlns="http://www.w3.org/2000/svg" xmlns:xlink="http://www.w3.org/1999/xlink">
<g id="graph0" class="graph" transform="scale(1 1) rotate(0) translate(76 673)">
<title>debugger</title>
<polygon fill="#ffffff" stroke="transparent" points="-4,4 -4,-601 514,-601 514,4 -4,4"/>
<text text-anchor="start" x="8" y="-18" font-family="Courier,monospace" font-size="10.00" fill="#8b8989">debugger tool</text>
<text text-anchor="start" x="8" y="-7" font-family="Courier,monospace" font-size="10.00" fill="#8b8989">Generated on 2016/11/04, 00:44</text>
<g id="clust1" class="cluster">
<title>cluster_library_debugger</title>
<g id="a_clust1"><a xlink:href="https://github.com/LogtalkDotOrg/logtalk3/tree/master/tools/debugger/" xlink:title="https://github.com/LogtalkDotOrg/logtalk3/tree/master/tools/debugger/">
<path fill="#eee9e9" stroke="#8b8989" d="M20,-38C20,-38 490,-38 490,-38 496,-38 502,-44 502,-50 502,-50 502,-577 502,-577 502,-583 496,-589 490,-589 490,-589 20,-589 20,-589 14,-589 8,-583 8,-577 8,-577 8,-50 8,-50 8,-44 14,-38 20,-38"/>
<text text-anchor="middle" x="40.5" y="-45" font-family="Courier,monospace" font-size="10.00" fill="#8b8989">debugger</text>
</a>
</g>
</g>
<g id="clust3" class="cluster">
<title>cluster_file_/Users/pmoura/logtalk/tools/debugger/debuggerp.lgt</title>
<g id="a_clust3"><a xlink:href="https://github.com/LogtalkDotOrg/logtalk3/tree/master/tools/debugger/debuggerp.lgt" xlink:title="https://github.com/LogtalkDotOrg/logtalk3/tree/master/tools/debugger/debuggerp.lgt">
<path fill="#fffafa" stroke="#8b8989" d="M363,-340C363,-340 447,-340 447,-340 453,-340 459,-346 459,-352 459,-352 459,-567 459,-567 459,-573 453,-579 447,-579 447,-579 363,-579 363,-579 357,-579 351,-573 351,-567 351,-567 351,-352 351,-352 351,-346 357,-340 363,-340"/>
<text text-anchor="middle" x="398.5" y="-347" font-family="Courier,monospace" font-size="10.00" fill="#8b8989">debuggerp.lgt</text>
</a>
</g>
</g>
<g id="clust4" class="cluster">
<title>cluster_file_/Users/pmoura/logtalk/tools/debugger/debugger.lgt</title>
<g id="a_clust4"><a xlink:href="https://github.com/LogtalkDotOrg/logtalk3/tree/master/tools/debugger/debugger.lgt" xlink:title="https://github.com/LogtalkDotOrg/logtalk3/tree/master/tools/debugger/debugger.lgt">
<path fill="#fffafa" stroke="#8b8989" d="M272,-72C272,-72 480,-72 480,-72 486,-72 492,-78 492,-84 492,-84 492,-170 492,-170 492,-176 486,-182 480,-182 480,-182 272,-182 272,-182 266,-182 260,-176 260,-170 260,-170 260,-84 260,-84 260,-78 266,-72 272,-72"/>
<text text-anchor="middle" x="304.5" y="-79" font-family="Courier,monospace" font-size="10.00" fill="#8b8989">debugger.lgt</text>
</a>
</g>
</g>
<g id="clust5" class="cluster">
<title>cluster_file_/Users/pmoura/logtalk/tools/debugger/debugger_messages.lgt</title>
<g id="a_clust5"><a xlink:href="https://github.com/LogtalkDotOrg/logtalk3/tree/master/tools/debugger/debugger_messages.lgt" xlink:title="https://github.com/LogtalkDotOrg/logtalk3/tree/master/tools/debugger/debugger_messages.lgt">
<path fill="#fffafa" stroke="#8b8989" d="M30,-67C30,-67 238,-67 238,-67 244,-67 250,-73 250,-79 250,-79 250,-175 250,-175 250,-181 244,-187 238,-187 238,-187 30,-187 30,-187 24,-187 18,-181 18,-175 18,-175 18,-79 18,-79 18,-73 24,-67 30,-67"/>
<text text-anchor="middle" x="89.5" y="-74" font-family="Courier,monospace" font-size="10.00" fill="#8b8989">debugger_messages.lgt</text>
</a>
</g>
</g>
<g id="clust6" class="cluster">
<title>cluster_other</title>
<g id="a_clust6"><a xlink:title="(external entities)">
<path fill="#ffffff" stroke="#8b8989" d="M213,-422C213,-422 320,-422 320,-422 326,-422 332,-428 332,-434 332,-434 332,-485 332,-485 332,-491 326,-497 320,-497 320,-497 213,-497 213,-497 207,-497 201,-491 201,-485 201,-485 201,-434 201,-434 201,-428 207,-422 213,-422"/>
<text text-anchor="middle" x="266.5" y="-429" font-family="Courier,monospace" font-size="10.00" fill="#8b8989">(external entities)</text>
</a>
</g>
</g>
<!-- debuggerp -->
<g id="node1" class="node">
<title>debuggerp</title>
<g id="a_node1"><a xlink:href="http://logtalk.org/library/debuggerp_0.html" xlink:title="http://logtalk.org/library/debuggerp_0.html">
<polygon fill="#7fffd4" stroke="#000000" points="443,-569 361,-569 361,-369 449,-369 449,-563 443,-569"/>
<polyline fill="none" stroke="#000000" points="443,-569 443,-563 "/>
<polyline fill="none" stroke="#000000" points="449,-563 443,-563 "/>
<text text-anchor="start" x="369" y="-556.8" font-family="Courier,monospace" font-size="9.00" fill="#000000"> </text>
<text text-anchor="start" x="375" y="-556.2" font-family="Courier,monospace" font-size="11.00" fill="#000000">debuggerp</text>
<text text-anchor="start" x="435" y="-556.8" font-family="Courier,monospace" font-size="9.00" fill="#000000"> </text>
<text text-anchor="start" x="369" y="-545.8" font-family="Courier,monospace" font-size="9.00" fill="#000000"> </text>
<text text-anchor="start" x="388" y="-546.4" font-family="Courier,monospace" font-size="7.00" fill="#000000">protocol</text>
<text text-anchor="start" x="435" y="-545.8" font-family="Courier,monospace" font-size="9.00" fill="#000000"> </text>
<text text-anchor="start" x="369" y="-535.8" font-family="Courier,monospace" font-size="9.00" fill="#000000"> </text>
<text text-anchor="start" x="369" y="-525.8" font-family="Courier,monospace" font-size="9.00" fill="#000000"> </text>
<text text-anchor="start" x="386" y="-525.8" font-family="Courier,monospace" font-size="9.00" fill="#000000">reset/0</text>
<text text-anchor="start" x="435" y="-525.8" font-family="Courier,monospace" font-size="9.00" fill="#000000"> </text>
<text text-anchor="start" x="369" y="-515.8" font-family="Courier,monospace" font-size="9.00" fill="#000000"> </text>
<text text-anchor="start" x="386" y="-515.8" font-family="Courier,monospace" font-size="9.00" fill="#000000">debug/0</text>
<text text-anchor="start" x="435" y="-515.8" font-family="Courier,monospace" font-size="9.00" fill="#000000"> </text>
<text text-anchor="start" x="369" y="-505.8" font-family="Courier,monospace" font-size="9.00" fill="#000000"> </text>
<text text-anchor="start" x="380.5" y="-505.8" font-family="Courier,monospace" font-size="9.00" fill="#000000">nodebug/0</text>
<text text-anchor="start" x="435" y="-505.8" font-family="Courier,monospace" font-size="9.00" fill="#000000"> </text>
<text text-anchor="start" x="369" y="-495.8" font-family="Courier,monospace" font-size="9.00" fill="#000000"> </text>
<text text-anchor="start" x="375" y="-495.8" font-family="Courier,monospace" font-size="9.00" fill="#000000">debugging/0</text>
<text text-anchor="start" x="435" y="-495.8" font-family="Courier,monospace" font-size="9.00" fill="#000000"> </text>
<text text-anchor="start" x="369" y="-485.8" font-family="Courier,monospace" font-size="9.00" fill="#000000"> </text>
<text text-anchor="start" x="375" y="-485.8" font-family="Courier,monospace" font-size="9.00" fill="#000000">debugging/1</text>
<text text-anchor="start" x="435" y="-485.8" font-family="Courier,monospace" font-size="9.00" fill="#000000"> </text>
<text text-anchor="start" x="369" y="-475.8" font-family="Courier,monospace" font-size="9.00" fill="#000000"> </text>
<text text-anchor="start" x="386" y="-475.8" font-family="Courier,monospace" font-size="9.00" fill="#000000">trace/0</text>
<text text-anchor="start" x="435" y="-475.8" font-family="Courier,monospace" font-size="9.00" fill="#000000"> </text>
<text text-anchor="start" x="369" y="-465.8" font-family="Courier,monospace" font-size="9.00" fill="#000000"> </text>
<text text-anchor="start" x="380.5" y="-465.8" font-family="Courier,monospace" font-size="9.00" fill="#000000">notrace/0</text>
<text text-anchor="start" x="435" y="-465.8" font-family="Courier,monospace" font-size="9.00" fill="#000000"> </text>
<text text-anchor="start" x="369" y="-455.8" font-family="Courier,monospace" font-size="9.00" fill="#000000"> </text>
<text text-anchor="start" x="391" y="-455.8" font-family="Courier,monospace" font-size="9.00" fill="#000000">spy/1</text>
<text text-anchor="start" x="435" y="-455.8" font-family="Courier,monospace" font-size="9.00" fill="#000000"> </text>
<text text-anchor="start" x="369" y="-445.8" font-family="Courier,monospace" font-size="9.00" fill="#000000"> </text>
<text text-anchor="start" x="383" y="-445.8" font-family="Courier,monospace" font-size="9.00" fill="#000000">spying/1</text>
<text text-anchor="start" x="435" y="-445.8" font-family="Courier,monospace" font-size="9.00" fill="#000000"> </text>
<text text-anchor="start" x="369" y="-435.8" font-family="Courier,monospace" font-size="9.00" fill="#000000"> </text>
<text text-anchor="start" x="391" y="-435.8" font-family="Courier,monospace" font-size="9.00" fill="#000000">spy/4</text>
<text text-anchor="start" x="435" y="-435.8" font-family="Courier,monospace" font-size="9.00" fill="#000000"> </text>
<text text-anchor="start" x="369" y="-425.8" font-family="Courier,monospace" font-size="9.00" fill="#000000"> </text>
<text text-anchor="start" x="383" y="-425.8" font-family="Courier,monospace" font-size="9.00" fill="#000000">spying/4</text>
<text text-anchor="start" x="435" y="-425.8" font-family="Courier,monospace" font-size="9.00" fill="#000000"> </text>
<text text-anchor="start" x="369" y="-415.8" font-family="Courier,monospace" font-size="9.00" fill="#000000"> </text>
<text text-anchor="start" x="386" y="-415.8" font-family="Courier,monospace" font-size="9.00" fill="#000000">nospy/1</text>
<text text-anchor="start" x="435" y="-415.8" font-family="Courier,monospace" font-size="9.00" fill="#000000"> </text>
<text text-anchor="start" x="369" y="-405.8" font-family="Courier,monospace" font-size="9.00" fill="#000000"> </text>
<text text-anchor="start" x="386" y="-405.8" font-family="Courier,monospace" font-size="9.00" fill="#000000">nospy/4</text>
<text text-anchor="start" x="435" y="-405.8" font-family="Courier,monospace" font-size="9.00" fill="#000000"> </text>
<text text-anchor="start" x="369" y="-395.8" font-family="Courier,monospace" font-size="9.00" fill="#000000"> </text>
<text text-anchor="start" x="377.5" y="-395.8" font-family="Courier,monospace" font-size="9.00" fill="#000000">nospyall/0</text>
<text text-anchor="start" x="435" y="-395.8" font-family="Courier,monospace" font-size="9.00" fill="#000000"> </text>
<text text-anchor="start" x="369" y="-385.8" font-family="Courier,monospace" font-size="9.00" fill="#000000"> </text>
<text text-anchor="start" x="386" y="-385.8" font-family="Courier,monospace" font-size="9.00" fill="#000000">leash/1</text>
<text text-anchor="start" x="435" y="-385.8" font-family="Courier,monospace" font-size="9.00" fill="#000000"> </text>
<text text-anchor="start" x="369" y="-375.8" font-family="Courier,monospace" font-size="9.00" fill="#000000"> </text>
<text text-anchor="start" x="377.5" y="-375.8" font-family="Courier,monospace" font-size="9.00" fill="#000000">leashing/1</text>
<text text-anchor="start" x="435" y="-375.8" font-family="Courier,monospace" font-size="9.00" fill="#000000"> </text>
</a>
</g>
</g>
<!-- debugger -->
<g id="node2" class="node">
<title>debugger</title>
<g id="a_node2"><a xlink:href="http://logtalk.org/library/debugger_0.html" xlink:title="http://logtalk.org/library/debugger_0.html">
<polygon fill="#f5f5dc" stroke="#000000" points="482,-172 270,-172 270,-101 482,-101 482,-172"/>
</a>
</g>
<g id="a_node2_0"><a xlink:href="debugger_object_xref_diagram.svg" xlink:title="Zoom">
<image xlink:href="zoom.png" width="11px" height="11px" preserveAspectRatio="xMinYMin meet" x="278" y="-167.5"/>
</a>
</g>
<g><a xlink:href="http://logtalk.org/library/debugger_0.html" xlink:title="http://logtalk.org/library/debugger_0.html">
<text text-anchor="start" x="280.5" y="-148.3" font-family="Courier,monospace" font-size="9.00" fill="#000000"> </text>
<text text-anchor="start" x="352" y="-147.7" font-family="Courier,monospace" font-size="11.00" fill="#000000">debugger</text>
<text text-anchor="start" x="468" y="-148.3" font-family="Courier,monospace" font-size="9.00" fill="#000000"> </text>
<text text-anchor="start" x="280.5" y="-137.3" font-family="Courier,monospace" font-size="9.00" fill="#000000"> </text>
<text text-anchor="start" x="359.5" y="-137.9" font-family="Courier,monospace" font-size="7.00" fill="#000000">prototype</text>
<text text-anchor="start" x="468" y="-137.3" font-family="Courier,monospace" font-size="9.00" fill="#000000"> </text>
<text text-anchor="start" x="280.5" y="-127.3" font-family="Courier,monospace" font-size="9.00" fill="#000000"> </text>
<text text-anchor="start" x="280.5" y="-117.3" font-family="Courier,monospace" font-size="9.00" fill="#000000"> </text>
<text text-anchor="start" x="289" y="-117.3" font-family="Courier,monospace" font-size="9.00" fill="#000000">logtalk::debug_handler_provider/1</text>
<text text-anchor="start" x="468" y="-117.3" font-family="Courier,monospace" font-size="9.00" fill="#000000"> </text>
<text text-anchor="start" x="280.5" y="-107.3" font-family="Courier,monospace" font-size="9.00" fill="#000000"> </text>
<text text-anchor="start" x="313.5" y="-107.3" font-family="Courier,monospace" font-size="9.00" fill="#000000">logtalk::debug_handler/2</text>
<text text-anchor="start" x="468" y="-107.3" font-family="Courier,monospace" font-size="9.00" fill="#000000"> </text>
</a>
</g>
</g>
<!-- debugger&#45;&gt;debuggerp -->
<g id="edge1" class="edge">
<title>debugger&#45;&gt;debuggerp</title>
<g id="a_edge1"><a xlink:title="implements">
<path fill="none" stroke="#000000" d="M379.104,-172.083C382.999,-216.747 389.859,-295.4 395.54,-360.537"/>
<ellipse fill="#000000" stroke="#000000" cx="395.915" cy="-364.831" rx="4" ry="4"/>
</a>
</g>
<text text-anchor="start" x="388" y="-270.8" font-family="Courier,monospace" font-size="9.00" fill="#000000">implements</text>
</g>
<!-- logtalk -->
<g id="node4" class="node">
<title>logtalk</title>
<g id="a_node4"><a xlink:title="built&#45;in prototype">
<polygon fill="#f5f5dc" stroke="#000000" stroke-dasharray="5,2" points="319,-487 215,-487 215,-451 319,-451 319,-487"/>
<text text-anchor="start" x="223" y="-471.8" font-family="Courier,monospace" font-size="9.00" fill="#000000"> </text>
<text text-anchor="start" x="243.5" y="-471.2" font-family="Courier,monospace" font-size="11.00" fill="#000000">logtalk</text>
<text text-anchor="start" x="305" y="-471.8" font-family="Courier,monospace" font-size="9.00" fill="#000000"> </text>
<text text-anchor="start" x="223" y="-460.8" font-family="Courier,monospace" font-size="9.00" fill="#000000"> </text>
<text text-anchor="start" x="229" y="-461.4" font-family="Courier,monospace" font-size="7.00" fill="#000000">built&#45;in prototype</text>
<text text-anchor="start" x="305" y="-460.8" font-family="Courier,monospace" font-size="9.00" fill="#000000"> </text>
</a>
</g>
</g>
<!-- debugger&#45;&gt;logtalk -->
<g id="edge2" class="edge">
<title>debugger&#45;&gt;logtalk</title>
<g id="a_edge2"><a xlink:title="provides">
<path fill="none" stroke="#000000" d="M341.785,-172.082C320.234,-196.869 294.095,-231.855 281,-268 259.771,-326.596 261.31,-400.987 264.208,-440.806"/>
<polygon fill="#000000" stroke="#000000" points="261.535,-451.131 264.214,-440.881 268.512,-450.565 261.535,-451.131"/>
</a>
</g>
<text text-anchor="start" x="281" y="-270.8" font-family="Courier,monospace" font-size="9.00" fill="#000000">provides</text>
</g>
<!-- debugger&#45;&gt;logtalk -->
<g id="edge3" class="edge">
<title>debugger&#45;&gt;logtalk</title>
<g id="a_edge3"><a xlink:title="uses">
<path fill="none" stroke="#000000" d="M364.335,-172.083C342.704,-238.068 296.753,-378.24 276.7,-439.412"/>
<polygon fill="#000000" stroke="#000000" points="276.678,-439.477 278.61,-446.424 272.94,-450.88 276.678,-439.477"/>
</a>
</g>
<text text-anchor="start" x="332" y="-270.8" font-family="Courier,monospace" font-size="9.00" fill="#000000">uses</text>
</g>
<!-- debugger_messages -->
<g id="node3" class="node">
<title>debugger_messages</title>
<g id="a_node3"><a xlink:href="http://logtalk.org/library/debugger_messages_0.html" xlink:title="http://logtalk.org/library/debugger_messages_0.html">
<polygon fill="#e0ffff" stroke="#000000" points="240,-177 28,-177 28,-173 24,-173 24,-169 28,-169 28,-104 24,-104 24,-100 28,-100 28,-96 240,-96 240,-177"/>
<polyline fill="none" stroke="#000000" points="28,-173 32,-173 32,-169 28,-169 "/>
<polyline fill="none" stroke="#000000" points="28,-104 32,-104 32,-100 28,-100 "/>
</a>
</g>
<g id="a_node3_1"><a xlink:href="debugger_messages_category_xref_diagram.svg" xlink:title="Zoom">
<image xlink:href="zoom.png" width="11px" height="11px" preserveAspectRatio="xMinYMin meet" x="36" y="-172.5"/>
</a>
</g>
<g><a xlink:href="http://logtalk.org/library/debugger_messages_0.html" xlink:title="http://logtalk.org/library/debugger_messages_0.html">
<text text-anchor="start" x="38.5" y="-153.3" font-family="Courier,monospace" font-size="9.00" fill="#000000"> </text>
<text text-anchor="start" x="80" y="-152.7" font-family="Courier,monospace" font-size="11.00" fill="#000000">debugger_messages</text>
<text text-anchor="start" x="226" y="-153.3" font-family="Courier,monospace" font-size="9.00" fill="#000000"> </text>
<text text-anchor="start" x="38.5" y="-142.3" font-family="Courier,monospace" font-size="9.00" fill="#000000"> </text>
<text text-anchor="start" x="119.5" y="-142.9" font-family="Courier,monospace" font-size="7.00" fill="#000000">category</text>
<text text-anchor="start" x="226" y="-142.3" font-family="Courier,monospace" font-size="9.00" fill="#000000"> </text>
<text text-anchor="start" x="38.5" y="-132.3" font-family="Courier,monospace" font-size="9.00" fill="#000000"> </text>
<text text-anchor="start" x="38.5" y="-122.3" font-family="Courier,monospace" font-size="9.00" fill="#000000"> </text>
<text text-anchor="start" x="50" y="-122.3" font-family="Courier,monospace" font-size="9.00" fill="#000000">logtalk::message_prefix_stream/4</text>
<text text-anchor="start" x="226" y="-122.3" font-family="Courier,monospace" font-size="9.00" fill="#000000"> </text>
<text text-anchor="start" x="38.5" y="-112.3" font-family="Courier,monospace" font-size="9.00" fill="#000000"> </text>
<text text-anchor="start" x="47" y="-112.3" font-family="Courier,monospace" font-size="9.00" fill="#000000">logtalk::question_prompt_stream/4</text>
<text text-anchor="start" x="226" y="-112.3" font-family="Courier,monospace" font-size="9.00" fill="#000000"> </text>
<text text-anchor="start" x="38.5" y="-102.3" font-family="Courier,monospace" font-size="9.00" fill="#000000"> </text>
<text text-anchor="start" x="66" y="-102.3" font-family="Courier,monospace" font-size="9.00" fill="#000000">logtalk::message_tokens//2</text>
<text text-anchor="start" x="226" y="-102.3" font-family="Courier,monospace" font-size="9.00" fill="#000000"> </text>
</a>
</g>
</g>
<!-- debugger_messages&#45;&gt;logtalk -->
<g id="edge4" class="edge">
<title>debugger_messages&#45;&gt;logtalk</title>
<g id="a_edge4"><a xlink:title="provides">
<path fill="none" stroke="#000000" d="M150.308,-177.271C177.783,-245.957 232.584,-382.961 255.99,-441.474"/>
<polygon fill="#000000" stroke="#000000" points="256.476,-452.113 256.011,-441.528 262.975,-449.513 256.476,-452.113"/>
</a>
</g>
<text text-anchor="start" x="190" y="-270.8" font-family="Courier,monospace" font-size="9.00" fill="#000000">provides</text>
</g>
</g>
</svg>
