<?xml version="1.0" encoding="UTF-8" standalone="no"?>
<!DOCTYPE svg PUBLIC "-//W3C//DTD SVG 1.1//EN"
 "http://www.w3.org/Graphics/SVG/1.1/DTD/svg11.dtd">
<!-- Generated by graphviz version 2.39.20161028.1504 (20161028.1504)
 -->
<!-- Title: doclet_object Pages: 1 -->
<svg width="1156pt" height="747pt"
 viewBox="72.00 72.00 1084.00 675.28" xmlns="http://www.w3.org/2000/svg" xmlns:xlink="http://www.w3.org/1999/xlink">
<g id="graph0" class="graph" transform="scale(1 1) rotate(0) translate(76 671.279)">
<title>doclet_object</title>
<polygon fill="#ffffff" stroke="transparent" points="-4,4 -4,-599.279 1008,-599.279 1008,4 -4,4"/>
<text text-anchor="start" x="8" y="-7" font-family="Courier,monospace" font-size="10.00" fill="#8b8989">Generated on 2016/11/04, 00:44</text>
<g id="clust1" class="cluster">
<title>cluster_doclet_object</title>
<g id="a_clust1"><a xlink:href="https://github.com/LogtalkDotOrg/logtalk3/tree/master/tools/doclet/doclet.lgt" xlink:title="https://github.com/LogtalkDotOrg/logtalk3/tree/master/tools/doclet/doclet.lgt">
<path fill="#fffafa" stroke="#8b8989" d="M20,-27C20,-27 984,-27 984,-27 990,-27 996,-33 996,-39 996,-39 996,-575.279 996,-575.279 996,-581.279 990,-587.279 984,-587.279 984,-587.279 20,-587.279 20,-587.279 14,-587.279 8,-581.279 8,-575.279 8,-575.279 8,-39 8,-39 8,-33 14,-27 20,-27"/>
<text text-anchor="middle" x="34.5" y="-575.279" font-family="Courier,monospace" font-size="10.00" fill="#8b8989">doclet</text>
</a>
</g>
</g>
<g id="clust2" class="cluster">
<title>cluster_other</title>
<g id="a_clust2"><a xlink:title="(external predicates)">
<path fill="#ffffff" stroke="#8b8989" d="M548,-37C548,-37 969,-37 969,-37 975,-37 981,-43 981,-49 981,-49 981,-106.426 981,-106.426 981,-112.426 975,-118.426 969,-118.426 969,-118.426 548,-118.426 548,-118.426 542,-118.426 536,-112.426 536,-106.426 536,-106.426 536,-49 536,-49 536,-43 542,-37 548,-37"/>
<text text-anchor="middle" x="607.5" y="-106.426" font-family="Courier,monospace" font-size="10.00" fill="#8b8989">(external predicates)</text>
</a>
</g>
</g>
<!-- update/0 -->
<g id="node1" class="node">
<title>update/0</title>
<g id="a_node1"><a xlink:href="http://logtalk.org/library/doclet_0.html#update/0" xlink:title="http://logtalk.org/library/doclet_0.html#update/0">
<ellipse fill="#00ff7f" stroke="#000000" cx="602" cy="-537.066" rx="57.0522" ry="21.4286"/>
<text text-anchor="start" x="570" y="-539.866" font-family="Courier,monospace" font-size="9.00" fill="#000000"> </text>
<text text-anchor="start" x="576" y="-539.266" font-family="Courier,monospace" font-size="11.00" fill="#000000">update/0</text>
<text text-anchor="start" x="629" y="-539.866" font-family="Courier,monospace" font-size="9.00" fill="#000000"> </text>
<text text-anchor="start" x="570" y="-528.866" font-family="Courier,monospace" font-size="9.00" fill="#000000"> </text>
<text text-anchor="start" x="589.5" y="-529.466" font-family="Courier,monospace" font-size="7.00" fill="#000000">public</text>
<text text-anchor="start" x="629" y="-528.866" font-family="Courier,monospace" font-size="9.00" fill="#000000"> </text>
</a>
</g>
</g>
<!-- doc_goal/1 -->
<g id="node2" class="node">
<title>doc_goal/1</title>
<g id="a_node2"><a xlink:href="http://logtalk.org/library/doclet_0.html#doc_goal/1" xlink:title="http://logtalk.org/library/doclet_0.html#doc_goal/1">
<ellipse fill="#00ff7f" stroke="#000000" cx="303" cy="-302.64" rx="67.3507" ry="21.4286"/>
<text text-anchor="start" x="264" y="-305.44" font-family="Courier,monospace" font-size="9.00" fill="#000000"> </text>
<text text-anchor="start" x="270" y="-304.84" font-family="Courier,monospace" font-size="11.00" fill="#000000">doc_goal/1</text>
<text text-anchor="start" x="337" y="-305.44" font-family="Courier,monospace" font-size="9.00" fill="#000000"> </text>
<text text-anchor="start" x="264" y="-294.44" font-family="Courier,monospace" font-size="9.00" fill="#000000"> </text>
<text text-anchor="start" x="290.5" y="-295.04" font-family="Courier,monospace" font-size="7.00" fill="#000000">public</text>
<text text-anchor="start" x="337" y="-294.44" font-family="Courier,monospace" font-size="9.00" fill="#000000"> </text>
</a>
</g>
</g>
<!-- update/0&#45;&gt;doc_goal/1 -->
<g id="edge4" class="edge">
<title>update/0&#45;&gt;doc_goal/1</title>
<g id="a_edge4"><a xlink:title="calls in self">
<path fill="none" stroke="#000000" d="M577.532,-517.882C524.552,-476.344 399.077,-377.967 337.836,-329.952"/>
<polygon fill="none" stroke="#000000" points="337.672,-329.824 330.483,-329.27 328.229,-322.42 337.672,-329.824"/>
</a>
</g>
<text text-anchor="start" x="458" y="-417.653" font-family="Courier,monospace" font-size="9.00" fill="#000000">calls in self</text>
</g>
<!-- shell_command/1 -->
<g id="node3" class="node">
<title>shell_command/1</title>
<g id="a_node3"><a xlink:href="http://logtalk.org/library/doclet_0.html#shell_command/1" xlink:title="http://logtalk.org/library/doclet_0.html#shell_command/1">
<ellipse fill="#00ff7f" stroke="#000000" cx="479" cy="-302.64" rx="90.5193" ry="21.4286"/>
<text text-anchor="start" x="423" y="-305.44" font-family="Courier,monospace" font-size="9.00" fill="#000000"> </text>
<text text-anchor="start" x="429" y="-304.84" font-family="Courier,monospace" font-size="11.00" fill="#000000">shell_command/1</text>
<text text-anchor="start" x="529" y="-305.44" font-family="Courier,monospace" font-size="9.00" fill="#000000"> </text>
<text text-anchor="start" x="423" y="-294.44" font-family="Courier,monospace" font-size="9.00" fill="#000000"> </text>
<text text-anchor="start" x="466" y="-295.04" font-family="Courier,monospace" font-size="7.00" fill="#000000">public</text>
<text text-anchor="start" x="529" y="-294.44" font-family="Courier,monospace" font-size="9.00" fill="#000000"> </text>
</a>
</g>
</g>
<!-- update/0&#45;&gt;shell_command/1 -->
<g id="edge5" class="edge">
<title>update/0&#45;&gt;shell_command/1</title>
<g id="a_edge5"><a xlink:title="calls in self">
<path fill="none" stroke="#000000" d="M590.868,-515.849C569.243,-474.634 521.442,-383.53 495.888,-334.826"/>
<polygon fill="none" stroke="#000000" points="495.771,-334.604 489.441,-331.149 490.196,-323.978 495.771,-334.604"/>
</a>
</g>
<text text-anchor="start" x="543" y="-417.653" font-family="Courier,monospace" font-size="9.00" fill="#000000">calls in self</text>
</g>
<!-- call_doc_goal/1 -->
<g id="node4" class="node">
<title>call_doc_goal/1</title>
<ellipse fill="#f5f5dc" stroke="#000000" cx="678" cy="-302.64" rx="90.5193" ry="21.4286"/>
<text text-anchor="start" x="622" y="-305.44" font-family="Courier,monospace" font-size="9.00" fill="#000000"> </text>
<text text-anchor="start" x="628" y="-304.84" font-family="Courier,monospace" font-size="11.00" fill="#000000">call_doc_goal/1</text>
<text text-anchor="start" x="728" y="-305.44" font-family="Courier,monospace" font-size="9.00" fill="#000000"> </text>
<text text-anchor="start" x="622" y="-294.44" font-family="Courier,monospace" font-size="9.00" fill="#000000"> </text>
<text text-anchor="start" x="667" y="-295.04" font-family="Courier,monospace" font-size="7.00" fill="#000000">local</text>
<text text-anchor="start" x="728" y="-294.44" font-family="Courier,monospace" font-size="9.00" fill="#000000"> </text>
</g>
<!-- update/0&#45;&gt;call_doc_goal/1 -->
<g id="edge1" class="edge">
<title>update/0&#45;&gt;call_doc_goal/1</title>
<g id="a_edge1"><a xlink:title="calls">
<path fill="none" stroke="#000000" d="M608.879,-515.849C622.184,-474.807 651.527,-384.298 667.365,-335.445"/>
<polygon fill="#000000" stroke="#000000" points="667.381,-335.393 665.427,-328.452 671.082,-323.978 667.381,-335.393"/>
</a>
</g>
<text text-anchor="start" x="641" y="-417.653" font-family="Courier,monospace" font-size="9.00" fill="#000000">calls</text>
</g>
<!-- execute_command/1 -->
<g id="node5" class="node">
<title>execute_command/1</title>
<ellipse fill="#f5f5dc" stroke="#000000" cx="886" cy="-302.64" rx="99.9045" ry="21.4286"/>
<text text-anchor="start" x="824" y="-305.44" font-family="Courier,monospace" font-size="9.00" fill="#000000"> </text>
<text text-anchor="start" x="830" y="-304.84" font-family="Courier,monospace" font-size="11.00" fill="#000000">execute_command/1</text>
<text text-anchor="start" x="943" y="-305.44" font-family="Courier,monospace" font-size="9.00" fill="#000000"> </text>
<text text-anchor="start" x="824" y="-294.44" font-family="Courier,monospace" font-size="9.00" fill="#000000"> </text>
<text text-anchor="start" x="875.5" y="-295.04" font-family="Courier,monospace" font-size="7.00" fill="#000000">local</text>
<text text-anchor="start" x="943" y="-294.44" font-family="Courier,monospace" font-size="9.00" fill="#000000"> </text>
</g>
<!-- update/0&#45;&gt;execute_command/1 -->
<g id="edge2" class="edge">
<title>update/0&#45;&gt;execute_command/1</title>
<g id="a_edge2"><a xlink:title="calls">
<path fill="none" stroke="#000000" d="M625.725,-517.482C675.882,-476.08 792.868,-379.515 851.383,-331.214"/>
<polygon fill="#000000" stroke="#000000" points="851.673,-330.975 853.754,-324.07 860.927,-323.336 851.673,-330.975"/>
</a>
</g>
<text text-anchor="start" x="749" y="-417.653" font-family="Courier,monospace" font-size="9.00" fill="#000000">calls</text>
</g>
<!-- logtalk::print_message/3 -->
<g id="node8" class="node">
<title>logtalk::print_message/3</title>
<g id="a_node8"><a xlink:href="http://logtalk.org/library/logtalk_0.html#print_message/3" xlink:title="http://logtalk.org/library/logtalk_0.html#print_message/3">
<ellipse fill="#d3d3d3" stroke="#000000" stroke-dasharray="5,2" cx="678" cy="-68.2132" rx="132.458" ry="21.4286"/>
<text text-anchor="start" x="593" y="-71.0132" font-family="Courier,monospace" font-size="9.00" fill="#000000"> </text>
<text text-anchor="start" x="599" y="-70.4132" font-family="Courier,monospace" font-size="11.00" fill="#000000">logtalk::print_message/3</text>
<text text-anchor="start" x="758" y="-71.0132" font-family="Courier,monospace" font-size="9.00" fill="#000000"> </text>
<text text-anchor="start" x="593" y="-60.0132" font-family="Courier,monospace" font-size="9.00" fill="#000000"> </text>
<text text-anchor="start" x="661.5" y="-60.6132" font-family="Courier,monospace" font-size="7.00" fill="#000000">external</text>
<text text-anchor="start" x="758" y="-60.0132" font-family="Courier,monospace" font-size="9.00" fill="#000000"> </text>
</a>
</g>
</g>
<!-- call_doc_goal/1&#45;&gt;logtalk::print_message/3 -->
<g id="edge6" class="edge">
<title>call_doc_goal/1&#45;&gt;logtalk::print_message/3</title>
<g id="a_edge6"><a xlink:title="calls">
<path fill="none" stroke="#000000" d="M678,-281.422C678,-240.555 678,-150.638 678,-101.642"/>
<polygon fill="#000000" stroke="#000000" points="678,-101.551 674,-95.5514 678,-89.5514 678,-101.551"/>
</a>
</g>
<text text-anchor="start" x="678" y="-183.226" font-family="Courier,monospace" font-size="9.00" fill="#000000">calls</text>
</g>
<!-- execute_command/1&#45;&gt;logtalk::print_message/3 -->
<g id="edge7" class="edge">
<title>execute_command/1&#45;&gt;logtalk::print_message/3</title>
<g id="a_edge7"><a xlink:title="calls">
<path fill="none" stroke="#000000" d="M867.175,-281.422C830.142,-239.685 747.719,-146.79 704.936,-98.571"/>
<polygon fill="#000000" stroke="#000000" points="704.897,-98.5275 697.923,-96.6942 696.933,-89.5514 704.897,-98.5275"/>
</a>
</g>
<text text-anchor="start" x="786" y="-183.226" font-family="Courier,monospace" font-size="9.00" fill="#000000">calls</text>
</g>
<!-- os::shell/2 -->
<g id="node9" class="node">
<title>os::shell/2</title>
<g id="a_node9"><a xlink:href="http://logtalk.org/library/os_0.html#shell/2" xlink:title="http://logtalk.org/library/os_0.html#shell/2">
<ellipse fill="#d3d3d3" stroke="#000000" stroke-dasharray="5,2" cx="900" cy="-68.2132" rx="71.3357" ry="21.4286"/>
<text text-anchor="start" x="858" y="-71.0132" font-family="Courier,monospace" font-size="9.00" fill="#000000"> </text>
<text text-anchor="start" x="864" y="-70.4132" font-family="Courier,monospace" font-size="11.00" fill="#000000">os::shell/2</text>
<text text-anchor="start" x="937" y="-71.0132" font-family="Courier,monospace" font-size="9.00" fill="#000000"> </text>
<text text-anchor="start" x="858" y="-60.0132" font-family="Courier,monospace" font-size="9.00" fill="#000000"> </text>
<text text-anchor="start" x="883.5" y="-60.6132" font-family="Courier,monospace" font-size="7.00" fill="#000000">external</text>
<text text-anchor="start" x="937" y="-60.0132" font-family="Courier,monospace" font-size="9.00" fill="#000000"> </text>
</a>
</g>
</g>
<!-- execute_command/1&#45;&gt;os::shell/2 -->
<g id="edge8" class="edge">
<title>execute_command/1&#45;&gt;os::shell/2</title>
<g id="a_edge8"><a xlink:title="calls">
<path fill="none" stroke="#000000" d="M887.267,-281.422C889.708,-240.555 895.078,-150.638 898.004,-101.642"/>
<polygon fill="#000000" stroke="#000000" points="898.01,-101.53 894.375,-95.3022 898.726,-89.5514 898.01,-101.53"/>
</a>
</g>
<text text-anchor="start" x="893" y="-183.226" font-family="Courier,monospace" font-size="9.00" fill="#000000">calls</text>
</g>
<!-- message_tokens//1 -->
<g id="node6" class="node">
<title>message_tokens//1</title>
<ellipse fill="#f5f5dc" stroke="#000000" cx="118" cy="-302.64" rx="99.9045" ry="21.4286"/>
<text text-anchor="start" x="56" y="-305.44" font-family="Courier,monospace" font-size="9.00" fill="#000000"> </text>
<text text-anchor="start" x="62" y="-304.84" font-family="Courier,monospace" font-size="11.00" fill="#000000">message_tokens//1</text>
<text text-anchor="start" x="175" y="-305.44" font-family="Courier,monospace" font-size="9.00" fill="#000000"> </text>
<text text-anchor="start" x="56" y="-294.44" font-family="Courier,monospace" font-size="9.00" fill="#000000"> </text>
<text text-anchor="start" x="107.5" y="-295.04" font-family="Courier,monospace" font-size="7.00" fill="#000000">local</text>
<text text-anchor="start" x="175" y="-294.44" font-family="Courier,monospace" font-size="9.00" fill="#000000"> </text>
</g>
<!-- logtalk::message_tokens//2 -->
<g id="node7" class="node">
<title>logtalk::message_tokens//2</title>
<g id="a_node7"><a xlink:href="http://logtalk.org/library/logtalk_0.html#message_tokens//2" xlink:title="http://logtalk.org/library/logtalk_0.html#message_tokens//2">
<ellipse fill="#87ceeb" stroke="#000000" cx="159" cy="-537.066" rx="141.343" ry="21.4286"/>
<text text-anchor="start" x="67" y="-539.866" font-family="Courier,monospace" font-size="9.00" fill="#000000"> </text>
<text text-anchor="start" x="73" y="-539.266" font-family="Courier,monospace" font-size="11.00" fill="#000000">logtalk::message_tokens//2</text>
<text text-anchor="start" x="245" y="-539.866" font-family="Courier,monospace" font-size="9.00" fill="#000000"> </text>
<text text-anchor="start" x="67" y="-528.866" font-family="Courier,monospace" font-size="9.00" fill="#000000"> </text>
<text text-anchor="start" x="140" y="-529.466" font-family="Courier,monospace" font-size="7.00" fill="#000000">multifile</text>
<text text-anchor="start" x="245" y="-528.866" font-family="Courier,monospace" font-size="9.00" fill="#000000"> </text>
</a>
</g>
</g>
<!-- logtalk::message_tokens//2&#45;&gt;message_tokens//1 -->
<g id="edge3" class="edge">
<title>logtalk::message_tokens//2&#45;&gt;message_tokens//1</title>
<g id="a_edge3"><a xlink:title="calls">
<path fill="none" stroke="#000000" d="M155.289,-515.849C148.142,-474.981 132.416,-385.064 123.847,-336.068"/>
<polygon fill="#000000" stroke="#000000" points="123.799,-335.798 118.825,-330.577 121.732,-323.978 123.799,-335.798"/>
</a>
</g>
<text text-anchor="start" x="139" y="-417.653" font-family="Courier,monospace" font-size="9.00" fill="#000000">calls</text>
</g>
</g>
</svg>
