<?xml version="1.0" encoding="UTF-8" standalone="no"?>
<!DOCTYPE svg PUBLIC "-//W3C//DTD SVG 1.1//EN"
 "http://www.w3.org/Graphics/SVG/1.1/DTD/svg11.dtd">
<!-- Generated by graphviz version 2.39.20161028.1504 (20161028.1504)
 -->
<!-- Title: doclet Pages: 1 -->
<svg width="432pt" height="828pt"
 viewBox="72.00 72.00 360.00 756.00" xmlns="http://www.w3.org/2000/svg" xmlns:xlink="http://www.w3.org/1999/xlink">
<g id="graph0" class="graph" transform="scale(1 1) rotate(0) translate(76 752)">
<title>doclet</title>
<polygon fill="#ffffff" stroke="transparent" points="-4,4 -4,-680 284,-680 284,4 -4,4"/>
<text text-anchor="start" x="8" y="-18" font-family="Courier,monospace" font-size="10.00" fill="#8b8989">doclet tool</text>
<text text-anchor="start" x="8" y="-7" font-family="Courier,monospace" font-size="10.00" fill="#8b8989">Generated on 2016/11/04, 00:44</text>
<g id="clust1" class="cluster">
<title>cluster_library_doclet</title>
<g id="a_clust1"><a xlink:href="https://github.com/LogtalkDotOrg/logtalk3/tree/master/tools/doclet/" xlink:title="https://github.com/LogtalkDotOrg/logtalk3/tree/master/tools/doclet/">
<path fill="#eee9e9" stroke="#8b8989" d="M20,-38C20,-38 260,-38 260,-38 266,-38 272,-44 272,-50 272,-50 272,-656 272,-656 272,-662 266,-668 260,-668 260,-668 20,-668 20,-668 14,-668 8,-662 8,-656 8,-656 8,-50 8,-50 8,-44 14,-38 20,-38"/>
<text text-anchor="middle" x="34.5" y="-45" font-family="Courier,monospace" font-size="10.00" fill="#8b8989">doclet</text>
</a>
</g>
</g>
<g id="clust3" class="cluster">
<title>cluster_file_/Users/pmoura/logtalk/tools/doclet/doclet.lgt</title>
<g id="a_clust3"><a xlink:href="https://github.com/LogtalkDotOrg/logtalk3/tree/master/tools/doclet/doclet.lgt" xlink:title="https://github.com/LogtalkDotOrg/logtalk3/tree/master/tools/doclet/doclet.lgt">
<path fill="#fffafa" stroke="#8b8989" d="M30,-300C30,-300 200,-300 200,-300 206,-300 212,-306 212,-312 212,-312 212,-418 212,-418 212,-424 206,-430 200,-430 200,-430 30,-430 30,-430 24,-430 18,-424 18,-418 18,-418 18,-312 18,-312 18,-306 24,-300 30,-300"/>
<text text-anchor="middle" x="56.5" y="-307" font-family="Courier,monospace" font-size="10.00" fill="#8b8989">doclet.lgt</text>
</a>
</g>
</g>
<g id="clust4" class="cluster">
<title>cluster_file_/Users/pmoura/logtalk/tools/doclet/tools_doclet.lgt</title>
<g id="a_clust4"><a xlink:href="https://github.com/LogtalkDotOrg/logtalk3/tree/master/tools/doclet/tools_doclet.lgt" xlink:title="https://github.com/LogtalkDotOrg/logtalk3/tree/master/tools/doclet/tools_doclet.lgt">
<path fill="#fffafa" stroke="#8b8989" d="M120,-67C120,-67 230,-67 230,-67 236,-67 242,-73 242,-79 242,-79 242,-135 242,-135 242,-141 236,-147 230,-147 230,-147 120,-147 120,-147 114,-147 108,-141 108,-135 108,-135 108,-79 108,-79 108,-73 114,-67 120,-67"/>
<text text-anchor="middle" x="164.5" y="-74" font-family="Courier,monospace" font-size="10.00" fill="#8b8989">tools_doclet.lgt</text>
</a>
</g>
</g>
<g id="clust5" class="cluster">
<title>cluster_other</title>
<g id="a_clust5"><a xlink:title="(external entities)">
<path fill="#ffffff" stroke="#8b8989" d="M46,-583C46,-583 230,-583 230,-583 236,-583 242,-589 242,-595 242,-595 242,-646 242,-646 242,-652 236,-658 230,-658 230,-658 46,-658 46,-658 40,-658 34,-652 34,-646 34,-646 34,-595 34,-595 34,-589 40,-583 46,-583"/>
<text text-anchor="middle" x="99.5" y="-590" font-family="Courier,monospace" font-size="10.00" fill="#8b8989">(external entities)</text>
</a>
</g>
</g>
<!-- doclet -->
<g id="node1" class="node">
<title>doclet</title>
<g id="a_node1"><a xlink:href="http://logtalk.org/library/doclet_0.html" xlink:title="http://logtalk.org/library/doclet_0.html">
<polygon fill="#f5f5dc" stroke="#000000" points="202,-420 28,-420 28,-329 202,-329 202,-420"/>
</a>
</g>
<g id="a_node1_0"><a xlink:href="doclet_object_xref_diagram.svg" xlink:title="Zoom">
<image xlink:href="zoom.png" width="11px" height="11px" preserveAspectRatio="xMinYMin meet" x="36" y="-415.5"/>
</a>
</g>
<g><a xlink:href="http://logtalk.org/library/doclet_0.html" xlink:title="http://logtalk.org/library/doclet_0.html">
<text text-anchor="start" x="38.5" y="-396.3" font-family="Courier,monospace" font-size="9.00" fill="#000000"> </text>
<text text-anchor="start" x="97.5" y="-395.7" font-family="Courier,monospace" font-size="11.00" fill="#000000">doclet</text>
<text text-anchor="start" x="188" y="-396.3" font-family="Courier,monospace" font-size="9.00" fill="#000000"> </text>
<text text-anchor="start" x="38.5" y="-385.3" font-family="Courier,monospace" font-size="9.00" fill="#000000"> </text>
<text text-anchor="start" x="98.5" y="-385.9" font-family="Courier,monospace" font-size="7.00" fill="#000000">prototype</text>
<text text-anchor="start" x="188" y="-385.3" font-family="Courier,monospace" font-size="9.00" fill="#000000"> </text>
<text text-anchor="start" x="38.5" y="-375.3" font-family="Courier,monospace" font-size="9.00" fill="#000000"> </text>
<text text-anchor="start" x="38.5" y="-365.3" font-family="Courier,monospace" font-size="9.00" fill="#000000"> </text>
<text text-anchor="start" x="95.5" y="-365.3" font-family="Courier,monospace" font-size="9.00" fill="#000000">update/0</text>
<text text-anchor="start" x="188" y="-365.3" font-family="Courier,monospace" font-size="9.00" fill="#000000"> </text>
<text text-anchor="start" x="38.5" y="-355.3" font-family="Courier,monospace" font-size="9.00" fill="#000000"> </text>
<text text-anchor="start" x="90" y="-355.3" font-family="Courier,monospace" font-size="9.00" fill="#000000">doc_goal/1</text>
<text text-anchor="start" x="188" y="-355.3" font-family="Courier,monospace" font-size="9.00" fill="#000000"> </text>
<text text-anchor="start" x="38.5" y="-345.3" font-family="Courier,monospace" font-size="9.00" fill="#000000"> </text>
<text text-anchor="start" x="76.5" y="-345.3" font-family="Courier,monospace" font-size="9.00" fill="#000000">shell_command/1</text>
<text text-anchor="start" x="188" y="-345.3" font-family="Courier,monospace" font-size="9.00" fill="#000000"> </text>
<text text-anchor="start" x="38.5" y="-335.3" font-family="Courier,monospace" font-size="9.00" fill="#000000"> </text>
<text text-anchor="start" x="47" y="-335.3" font-family="Courier,monospace" font-size="9.00" fill="#000000">logtalk::message_tokens//2</text>
<text text-anchor="start" x="188" y="-335.3" font-family="Courier,monospace" font-size="9.00" fill="#000000"> </text>
</a>
</g>
</g>
<!-- logtalk -->
<g id="node3" class="node">
<title>logtalk</title>
<g id="a_node3"><a xlink:title="built&#45;in prototype">
<polygon fill="#f5f5dc" stroke="#000000" stroke-dasharray="5,2" points="232,-648 128,-648 128,-612 232,-612 232,-648"/>
<text text-anchor="start" x="136" y="-632.8" font-family="Courier,monospace" font-size="9.00" fill="#000000"> </text>
<text text-anchor="start" x="156.5" y="-632.2" font-family="Courier,monospace" font-size="11.00" fill="#000000">logtalk</text>
<text text-anchor="start" x="218" y="-632.8" font-family="Courier,monospace" font-size="9.00" fill="#000000"> </text>
<text text-anchor="start" x="136" y="-621.8" font-family="Courier,monospace" font-size="9.00" fill="#000000"> </text>
<text text-anchor="start" x="142" y="-622.4" font-family="Courier,monospace" font-size="7.00" fill="#000000">built&#45;in prototype</text>
<text text-anchor="start" x="218" y="-621.8" font-family="Courier,monospace" font-size="9.00" fill="#000000"> </text>
</a>
</g>
</g>
<!-- doclet&#45;&gt;logtalk -->
<g id="edge1" class="edge">
<title>doclet&#45;&gt;logtalk</title>
<g id="a_edge1"><a xlink:title="provides">
<path fill="none" stroke="#000000" d="M116.306,-420.064C118.038,-449.33 122,-487.918 131,-521 138.923,-550.124 153.664,-581.346 164.916,-602.877"/>
<polygon fill="#000000" stroke="#000000" points="166.56,-613.406 164.947,-602.935 172.738,-610.115 166.56,-613.406"/>
</a>
</g>
<text text-anchor="start" x="131" y="-513.8" font-family="Courier,monospace" font-size="9.00" fill="#000000">provides</text>
</g>
<!-- doclet&#45;&gt;logtalk -->
<g id="edge2" class="edge">
<title>doclet&#45;&gt;logtalk</title>
<g id="a_edge2"><a xlink:title="uses">
<path fill="none" stroke="#000000" d="M140.153,-420.079C153.092,-445.931 167.655,-479.354 175,-511 181.864,-540.572 182.499,-575.363 181.793,-599.661"/>
<polygon fill="#000000" stroke="#000000" points="181.78,-599.991 185.533,-606.148 181.294,-611.981 181.78,-599.991"/>
</a>
</g>
<text text-anchor="start" x="176" y="-513.8" font-family="Courier,monospace" font-size="9.00" fill="#000000">uses</text>
</g>
<!-- os -->
<g id="node4" class="node">
<title>os</title>
<g id="a_node4"><a xlink:title="prototype">
<polygon fill="#f5f5dc" stroke="#000000" stroke-dasharray="5,2" points="110,-648 44,-648 44,-612 110,-612 110,-648"/>
<text text-anchor="start" x="52" y="-632.8" font-family="Courier,monospace" font-size="9.00" fill="#000000"> </text>
<text text-anchor="start" x="70" y="-632.2" font-family="Courier,monospace" font-size="11.00" fill="#000000">os</text>
<text text-anchor="start" x="96" y="-632.8" font-family="Courier,monospace" font-size="9.00" fill="#000000"> </text>
<text text-anchor="start" x="52" y="-621.8" font-family="Courier,monospace" font-size="9.00" fill="#000000"> </text>
<text text-anchor="start" x="58" y="-622.4" font-family="Courier,monospace" font-size="7.00" fill="#000000">prototype</text>
<text text-anchor="start" x="96" y="-621.8" font-family="Courier,monospace" font-size="9.00" fill="#000000"> </text>
</a>
</g>
</g>
<!-- doclet&#45;&gt;os -->
<g id="edge3" class="edge">
<title>doclet&#45;&gt;os</title>
<g id="a_edge3"><a xlink:title="uses">
<path fill="none" stroke="#000000" d="M97.2112,-420.139C87.9738,-446.29 77.6638,-479.984 73,-511 72.3391,-515.395 72.9185,-516.556 73,-521 73.4883,-547.623 74.647,-577.884 75.5923,-599.755"/>
<polygon fill="#000000" stroke="#000000" points="75.5981,-599.888 79.8608,-605.705 76.1314,-611.876 75.5981,-599.888"/>
</a>
</g>
<text text-anchor="start" x="73" y="-513.8" font-family="Courier,monospace" font-size="9.00" fill="#000000">uses</text>
</g>
<!-- tools_doclet -->
<g id="node2" class="node">
<title>tools_doclet</title>
<g id="a_node2"><a xlink:href="http://logtalk.org/library/tools_doclet_0.html" xlink:title="http://logtalk.org/library/tools_doclet_0.html">
<polygon fill="#f5f5dc" stroke="#000000" points="231.5,-137 118.5,-137 118.5,-96 231.5,-96 231.5,-137"/>
</a>
</g>
<g id="a_node2_1"><a xlink:href="tools_doclet_object_xref_diagram.svg" xlink:title="Zoom">
<image xlink:href="zoom.png" width="11px" height="11px" preserveAspectRatio="xMinYMin meet" x="127" y="-132.5"/>
</a>
</g>
<g><a xlink:href="http://logtalk.org/library/tools_doclet_0.html" xlink:title="http://logtalk.org/library/tools_doclet_0.html">
<text text-anchor="start" x="129.5" y="-113.3" font-family="Courier,monospace" font-size="9.00" fill="#000000"> </text>
<text text-anchor="start" x="138" y="-112.7" font-family="Courier,monospace" font-size="11.00" fill="#000000">tools_doclet</text>
<text text-anchor="start" x="218" y="-113.3" font-family="Courier,monospace" font-size="9.00" fill="#000000"> </text>
<text text-anchor="start" x="129.5" y="-102.3" font-family="Courier,monospace" font-size="9.00" fill="#000000"> </text>
<text text-anchor="start" x="159" y="-102.9" font-family="Courier,monospace" font-size="7.00" fill="#000000">prototype</text>
<text text-anchor="start" x="218" y="-102.3" font-family="Courier,monospace" font-size="9.00" fill="#000000"> </text>
</a>
</g>
</g>
<!-- tools_doclet&#45;&gt;doclet -->
<g id="edge4" class="edge">
<title>tools_doclet&#45;&gt;doclet</title>
<g id="a_edge4"><a xlink:title="extends">
<path fill="none" stroke="#000000" d="M170.191,-137.177C161.115,-176.207 141.18,-261.924 127.921,-318.94"/>
<polygon fill="#000000" stroke="#000000" points="125.609,-328.883 123.491,-318.124 126.741,-324.013 127.874,-319.143 127.874,-319.143 127.874,-319.143 126.741,-324.013 132.257,-320.162 125.609,-328.883 125.609,-328.883"/>
</a>
</g>
<text text-anchor="start" x="148" y="-230.8" font-family="Courier,monospace" font-size="9.00" fill="#000000">extends</text>
</g>
<!-- tools_doclet&#45;&gt;logtalk -->
<g id="edge5" class="edge">
<title>tools_doclet&#45;&gt;logtalk</title>
<g id="a_edge5"><a xlink:title="uses">
<path fill="none" stroke="#000000" d="M195.21,-137.317C214.291,-159.246 240,-195.711 240,-233 240,-233 240,-233 240,-516 240,-548.244 220.971,-580.326 204.346,-602.202"/>
<polygon fill="#000000" stroke="#000000" points="204.188,-602.4 203.58,-609.586 196.713,-611.788 204.188,-602.4"/>
</a>
</g>
<text text-anchor="start" x="240" y="-372.3" font-family="Courier,monospace" font-size="9.00" fill="#000000">uses</text>
</g>
</g>
</svg>
