<?xml version="1.0" encoding="UTF-8" standalone="no"?>
<!DOCTYPE svg PUBLIC "-//W3C//DTD SVG 1.1//EN"
 "http://www.w3.org/Graphics/SVG/1.1/DTD/svg11.dtd">
<!-- Generated by graphviz version 2.39.20161028.1504 (20161028.1504)
 -->
<!-- Title: dot_graph_language_object Pages: 1 -->
<svg width="2786pt" height="972pt"
 viewBox="72.00 72.00 2714.00 899.71" xmlns="http://www.w3.org/2000/svg" xmlns:xlink="http://www.w3.org/1999/xlink">
<g id="graph0" class="graph" transform="scale(1 1) rotate(0) translate(76 895.706)">
<title>dot_graph_language_object</title>
<polygon fill="#ffffff" stroke="transparent" points="-4,4 -4,-823.706 2638,-823.706 2638,4 -4,4"/>
<text text-anchor="start" x="8" y="-7" font-family="Courier,monospace" font-size="10.00" fill="#8b8989">Generated on 2016/11/04, 00:44</text>
<g id="clust1" class="cluster">
<title>cluster_dot_graph_language_object</title>
<g id="a_clust1"><a xlink:href="https://github.com/LogtalkDotOrg/logtalk3/tree/master/tools/diagrams/dot_graph_language.lgt" xlink:title="https://github.com/LogtalkDotOrg/logtalk3/tree/master/tools/diagrams/dot_graph_language.lgt">
<path fill="#fffafa" stroke="#8b8989" d="M20,-27C20,-27 2614,-27 2614,-27 2620,-27 2626,-33 2626,-39 2626,-39 2626,-799.706 2626,-799.706 2626,-805.706 2620,-811.706 2614,-811.706 2614,-811.706 20,-811.706 20,-811.706 14,-811.706 8,-805.706 8,-799.706 8,-799.706 8,-39 8,-39 8,-33 14,-27 20,-27"/>
<text text-anchor="middle" x="70.5" y="-799.706" font-family="Courier,monospace" font-size="10.00" fill="#8b8989">dot_graph_language</text>
</a>
</g>
</g>
<g id="clust2" class="cluster">
<title>cluster_other</title>
<g id="a_clust2"><a xlink:title="(external predicates)">
<path fill="#ffffff" stroke="#8b8989" d="M1199,-261.426C1199,-261.426 1783,-261.426 1783,-261.426 1789,-261.426 1795,-267.426 1795,-273.426 1795,-273.426 1795,-330.853 1795,-330.853 1795,-336.853 1789,-342.853 1783,-342.853 1783,-342.853 1199,-342.853 1199,-342.853 1193,-342.853 1187,-336.853 1187,-330.853 1187,-330.853 1187,-273.426 1187,-273.426 1187,-267.426 1193,-261.426 1199,-261.426"/>
<text text-anchor="middle" x="1258.5" y="-330.853" font-family="Courier,monospace" font-size="10.00" fill="#8b8989">(external predicates)</text>
</a>
</g>
</g>
<!-- output_file_name/2 -->
<g id="node1" class="node">
<title>output_file_name/2</title>
<ellipse fill="#f5f5dc" stroke="#000000" cx="2350" cy="-761.492" rx="103.889" ry="21.4286"/>
<text text-anchor="start" x="2285" y="-764.292" font-family="Courier,monospace" font-size="9.00" fill="#000000"> </text>
<text text-anchor="start" x="2291" y="-763.692" font-family="Courier,monospace" font-size="11.00" fill="#000000">output_file_name/2</text>
<text text-anchor="start" x="2410" y="-764.292" font-family="Courier,monospace" font-size="9.00" fill="#000000"> </text>
<text text-anchor="start" x="2285" y="-753.292" font-family="Courier,monospace" font-size="9.00" fill="#000000"> </text>
<text text-anchor="start" x="2339.5" y="-753.892" font-family="Courier,monospace" font-size="7.00" fill="#000000">local</text>
<text text-anchor="start" x="2410" y="-753.292" font-family="Courier,monospace" font-size="9.00" fill="#000000"> </text>
</g>
<!-- file_header/3 -->
<g id="node2" class="node">
<title>file_header/3</title>
<ellipse fill="#f5f5dc" stroke="#000000" cx="1860" cy="-761.492" rx="80.7205" ry="21.4286"/>
<text text-anchor="start" x="1811" y="-764.292" font-family="Courier,monospace" font-size="9.00" fill="#000000"> </text>
<text text-anchor="start" x="1817" y="-763.692" font-family="Courier,monospace" font-size="11.00" fill="#000000">file_header/3</text>
<text text-anchor="start" x="1903" y="-764.292" font-family="Courier,monospace" font-size="9.00" fill="#000000"> </text>
<text text-anchor="start" x="1811" y="-753.292" font-family="Courier,monospace" font-size="9.00" fill="#000000"> </text>
<text text-anchor="start" x="1849" y="-753.892" font-family="Courier,monospace" font-size="7.00" fill="#000000">local</text>
<text text-anchor="start" x="1903" y="-753.292" font-family="Courier,monospace" font-size="9.00" fill="#000000"> </text>
</g>
<!-- convert_layout/2 -->
<g id="node3" class="node">
<title>convert_layout/2</title>
<ellipse fill="#f5f5dc" stroke="#000000" cx="1734" cy="-527.066" rx="94.5053" ry="21.4286"/>
<text text-anchor="start" x="1675" y="-529.866" font-family="Courier,monospace" font-size="9.00" fill="#000000"> </text>
<text text-anchor="start" x="1681" y="-529.266" font-family="Courier,monospace" font-size="11.00" fill="#000000">convert_layout/2</text>
<text text-anchor="start" x="1787" y="-529.866" font-family="Courier,monospace" font-size="9.00" fill="#000000"> </text>
<text text-anchor="start" x="1675" y="-518.866" font-family="Courier,monospace" font-size="9.00" fill="#000000"> </text>
<text text-anchor="start" x="1723" y="-519.466" font-family="Courier,monospace" font-size="7.00" fill="#000000">local</text>
<text text-anchor="start" x="1787" y="-518.866" font-family="Courier,monospace" font-size="9.00" fill="#000000"> </text>
</g>
<!-- file_header/3&#45;&gt;convert_layout/2 -->
<g id="edge1" class="edge">
<title>file_header/3&#45;&gt;convert_layout/2</title>
<g id="a_edge1"><a xlink:title="calls">
<path fill="none" stroke="#000000" d="M1848.6,-740.275C1826.44,-699.06 1777.48,-607.957 1751.3,-559.253"/>
<polygon fill="#000000" stroke="#000000" points="1751.15,-558.974 1744.79,-555.583 1745.47,-548.404 1751.15,-558.974"/>
</a>
</g>
<text text-anchor="start" x="1799" y="-642.079" font-family="Courier,monospace" font-size="9.00" fill="#000000">calls</text>
</g>
<!-- diagram_label/2 -->
<g id="node4" class="node">
<title>diagram_label/2</title>
<ellipse fill="#f5f5dc" stroke="#000000" cx="1937" cy="-527.066" rx="90.5193" ry="21.4286"/>
<text text-anchor="start" x="1881" y="-529.866" font-family="Courier,monospace" font-size="9.00" fill="#000000"> </text>
<text text-anchor="start" x="1887" y="-529.266" font-family="Courier,monospace" font-size="11.00" fill="#000000">diagram_label/2</text>
<text text-anchor="start" x="1987" y="-529.866" font-family="Courier,monospace" font-size="9.00" fill="#000000"> </text>
<text text-anchor="start" x="1881" y="-518.866" font-family="Courier,monospace" font-size="9.00" fill="#000000"> </text>
<text text-anchor="start" x="1926" y="-519.466" font-family="Courier,monospace" font-size="7.00" fill="#000000">local</text>
<text text-anchor="start" x="1987" y="-518.866" font-family="Courier,monospace" font-size="9.00" fill="#000000"> </text>
</g>
<!-- file_header/3&#45;&gt;diagram_label/2 -->
<g id="edge3" class="edge">
<title>file_header/3&#45;&gt;diagram_label/2</title>
<g id="a_edge3"><a xlink:title="calls">
<path fill="none" stroke="#000000" d="M1866.97,-740.275C1880.45,-699.234 1910.18,-608.725 1926.22,-559.872"/>
<polygon fill="#000000" stroke="#000000" points="1926.25,-559.805 1924.32,-552.856 1929.99,-548.404 1926.25,-559.805"/>
</a>
</g>
<text text-anchor="start" x="1900" y="-642.079" font-family="Courier,monospace" font-size="9.00" fill="#000000">calls</text>
</g>
<!-- write_key_value_nl/3 -->
<g id="node14" class="node">
<title>write_key_value_nl/3</title>
<ellipse fill="#f5f5dc" stroke="#000000" cx="2502" cy="-292.64" rx="113.689" ry="21.4286"/>
<text text-anchor="start" x="2430" y="-295.44" font-family="Courier,monospace" font-size="9.00" fill="#000000"> </text>
<text text-anchor="start" x="2436" y="-294.84" font-family="Courier,monospace" font-size="11.00" fill="#000000">write_key_value_nl/3</text>
<text text-anchor="start" x="2569" y="-295.44" font-family="Courier,monospace" font-size="9.00" fill="#000000"> </text>
<text text-anchor="start" x="2430" y="-284.44" font-family="Courier,monospace" font-size="9.00" fill="#000000"> </text>
<text text-anchor="start" x="2491.5" y="-285.04" font-family="Courier,monospace" font-size="7.00" fill="#000000">local</text>
<text text-anchor="start" x="2569" y="-284.44" font-family="Courier,monospace" font-size="9.00" fill="#000000"> </text>
</g>
<!-- file_header/3&#45;&gt;write_key_value_nl/3 -->
<g id="edge2" class="edge">
<title>file_header/3&#45;&gt;write_key_value_nl/3</title>
<g id="a_edge2"><a xlink:title="calls">
<path fill="none" stroke="#000000" d="M1939.25,-757.442C2070.34,-748.552 2318,-721.534 2318,-644.279 2318,-644.279 2318,-644.279 2318,-409.853 2318,-379.62 2389.56,-341.511 2443.42,-317.106"/>
<polygon fill="#000000" stroke="#000000" points="2443.66,-317.002 2447.51,-310.905 2454.62,-312.115 2443.66,-317.002"/>
</a>
</g>
<text text-anchor="start" x="2318" y="-524.866" font-family="Courier,monospace" font-size="9.00" fill="#000000">calls</text>
</g>
<!-- list::memberchk/2 -->
<g id="node20" class="node">
<title>list::memberchk/2</title>
<g id="a_node20"><a xlink:href="http://logtalk.org/library/list_0.html#memberchk/2" xlink:title="http://logtalk.org/library/list_0.html#memberchk/2">
<ellipse fill="#d3d3d3" stroke="#000000" stroke-dasharray="5,2" cx="1685" cy="-292.64" rx="99.9045" ry="21.4286"/>
<text text-anchor="start" x="1623" y="-295.44" font-family="Courier,monospace" font-size="9.00" fill="#000000"> </text>
<text text-anchor="start" x="1629" y="-294.84" font-family="Courier,monospace" font-size="11.00" fill="#000000">list::memberchk/2</text>
<text text-anchor="start" x="1742" y="-295.44" font-family="Courier,monospace" font-size="9.00" fill="#000000"> </text>
<text text-anchor="start" x="1623" y="-284.44" font-family="Courier,monospace" font-size="9.00" fill="#000000"> </text>
<text text-anchor="start" x="1668.5" y="-285.04" font-family="Courier,monospace" font-size="7.00" fill="#000000">external</text>
<text text-anchor="start" x="1742" y="-284.44" font-family="Courier,monospace" font-size="9.00" fill="#000000"> </text>
</a>
</g>
</g>
<!-- file_header/3&#45;&gt;list::memberchk/2 -->
<g id="edge15" class="edge">
<title>file_header/3&#45;&gt;list::memberchk/2</title>
<g id="a_edge15"><a xlink:title="calls">
<path fill="none" stroke="#000000" d="M1798.74,-747.527C1719.92,-727.744 1593,-688.955 1593,-644.279 1593,-644.279 1593,-644.279 1593,-409.853 1593,-373.61 1620.55,-341.93 1645.5,-320.674"/>
<polygon fill="#000000" stroke="#000000" points="1645.57,-320.623 1647.7,-313.734 1654.88,-313.05 1645.57,-320.623"/>
</a>
</g>
<text text-anchor="start" x="1593" y="-524.866" font-family="Courier,monospace" font-size="9.00" fill="#000000">calls</text>
</g>
<!-- integer_to_padded_atom/2 -->
<g id="node5" class="node">
<title>integer_to_padded_atom/2</title>
<ellipse fill="#f5f5dc" stroke="#000000" cx="1937" cy="-292.64" rx="132.458" ry="21.4286"/>
<text text-anchor="start" x="1852" y="-295.44" font-family="Courier,monospace" font-size="9.00" fill="#000000"> </text>
<text text-anchor="start" x="1858" y="-294.84" font-family="Courier,monospace" font-size="11.00" fill="#000000">integer_to_padded_atom/2</text>
<text text-anchor="start" x="2017" y="-295.44" font-family="Courier,monospace" font-size="9.00" fill="#000000"> </text>
<text text-anchor="start" x="1852" y="-284.44" font-family="Courier,monospace" font-size="9.00" fill="#000000"> </text>
<text text-anchor="start" x="1926.5" y="-285.04" font-family="Courier,monospace" font-size="7.00" fill="#000000">local</text>
<text text-anchor="start" x="2017" y="-284.44" font-family="Courier,monospace" font-size="9.00" fill="#000000"> </text>
</g>
<!-- diagram_label/2&#45;&gt;integer_to_padded_atom/2 -->
<g id="edge4" class="edge">
<title>diagram_label/2&#45;&gt;integer_to_padded_atom/2</title>
<g id="a_edge4"><a xlink:title="calls">
<path fill="none" stroke="#000000" d="M1937,-505.849C1937,-464.981 1937,-375.064 1937,-326.068"/>
<polygon fill="#000000" stroke="#000000" points="1937,-325.978 1933,-319.978 1937,-313.978 1937,-325.978"/>
</a>
</g>
<text text-anchor="start" x="1937" y="-407.653" font-family="Courier,monospace" font-size="9.00" fill="#000000">calls</text>
</g>
<!-- diagram_label/2&#45;&gt;list::memberchk/2 -->
<g id="edge16" class="edge">
<title>diagram_label/2&#45;&gt;list::memberchk/2</title>
<g id="a_edge16"><a xlink:title="calls">
<path fill="none" stroke="#000000" d="M1891.54,-508.553C1865.32,-496.81 1832.42,-480.203 1806,-460.853 1756.69,-424.731 1719.53,-362.451 1700.11,-324.653"/>
<polygon fill="#000000" stroke="#000000" points="1700.04,-324.496 1693.77,-320.92 1694.67,-313.764 1700.04,-324.496"/>
</a>
</g>
<text text-anchor="start" x="1758" y="-407.653" font-family="Courier,monospace" font-size="9.00" fill="#000000">calls</text>
</g>
<!-- os::date_time/7 -->
<g id="node21" class="node">
<title>os::date_time/7</title>
<g id="a_node21"><a xlink:href="http://logtalk.org/library/os_0.html#date_time/7" xlink:title="http://logtalk.org/library/os_0.html#date_time/7">
<ellipse fill="#d3d3d3" stroke="#000000" stroke-dasharray="5,2" cx="1477" cy="-292.64" rx="90.5193" ry="21.4286"/>
<text text-anchor="start" x="1421" y="-295.44" font-family="Courier,monospace" font-size="9.00" fill="#000000"> </text>
<text text-anchor="start" x="1427" y="-294.84" font-family="Courier,monospace" font-size="11.00" fill="#000000">os::date_time/7</text>
<text text-anchor="start" x="1527" y="-295.44" font-family="Courier,monospace" font-size="9.00" fill="#000000"> </text>
<text text-anchor="start" x="1421" y="-284.44" font-family="Courier,monospace" font-size="9.00" fill="#000000"> </text>
<text text-anchor="start" x="1460" y="-285.04" font-family="Courier,monospace" font-size="7.00" fill="#000000">external</text>
<text text-anchor="start" x="1527" y="-284.44" font-family="Courier,monospace" font-size="9.00" fill="#000000"> </text>
</a>
</g>
</g>
<!-- diagram_label/2&#45;&gt;os::date_time/7 -->
<g id="edge17" class="edge">
<title>diagram_label/2&#45;&gt;os::date_time/7</title>
<g id="a_edge17"><a xlink:title="calls">
<path fill="none" stroke="#000000" d="M1894.43,-508.294C1828.02,-478.648 1696.15,-418.327 1588,-359.853 1564.54,-347.171 1539.05,-331.847 1518.41,-319.035"/>
<polygon fill="#000000" stroke="#000000" points="1518.28,-318.952 1511.07,-319.164 1508.1,-312.592 1518.28,-318.952"/>
</a>
</g>
<text text-anchor="start" x="1694" y="-407.653" font-family="Courier,monospace" font-size="9.00" fill="#000000">calls</text>
</g>
<!-- file_footer/3 -->
<g id="node6" class="node">
<title>file_footer/3</title>
<ellipse fill="#f5f5dc" stroke="#000000" cx="1579" cy="-761.492" rx="80.7205" ry="21.4286"/>
<text text-anchor="start" x="1530" y="-764.292" font-family="Courier,monospace" font-size="9.00" fill="#000000"> </text>
<text text-anchor="start" x="1536" y="-763.692" font-family="Courier,monospace" font-size="11.00" fill="#000000">file_footer/3</text>
<text text-anchor="start" x="1622" y="-764.292" font-family="Courier,monospace" font-size="9.00" fill="#000000"> </text>
<text text-anchor="start" x="1530" y="-753.292" font-family="Courier,monospace" font-size="9.00" fill="#000000"> </text>
<text text-anchor="start" x="1568" y="-753.892" font-family="Courier,monospace" font-size="7.00" fill="#000000">local</text>
<text text-anchor="start" x="1622" y="-753.292" font-family="Courier,monospace" font-size="9.00" fill="#000000"> </text>
</g>
<!-- graph_header/5 -->
<g id="node7" class="node">
<title>graph_header/5</title>
<ellipse fill="#f5f5dc" stroke="#000000" cx="2174" cy="-527.066" rx="85.6199" ry="21.4286"/>
<text text-anchor="start" x="2122" y="-529.866" font-family="Courier,monospace" font-size="9.00" fill="#000000"> </text>
<text text-anchor="start" x="2128" y="-529.266" font-family="Courier,monospace" font-size="11.00" fill="#000000">graph_header/5</text>
<text text-anchor="start" x="2221" y="-529.866" font-family="Courier,monospace" font-size="9.00" fill="#000000"> </text>
<text text-anchor="start" x="2122" y="-518.866" font-family="Courier,monospace" font-size="9.00" fill="#000000"> </text>
<text text-anchor="start" x="2163.5" y="-519.466" font-family="Courier,monospace" font-size="7.00" fill="#000000">local</text>
<text text-anchor="start" x="2221" y="-518.866" font-family="Courier,monospace" font-size="9.00" fill="#000000"> </text>
</g>
<!-- graph_style_margin_color/4 -->
<g id="node9" class="node">
<title>graph_style_margin_color/4</title>
<ellipse fill="#f5f5dc" stroke="#000000" cx="2229" cy="-292.64" rx="141.343" ry="21.4286"/>
<text text-anchor="start" x="2137" y="-295.44" font-family="Courier,monospace" font-size="9.00" fill="#000000"> </text>
<text text-anchor="start" x="2143" y="-294.84" font-family="Courier,monospace" font-size="11.00" fill="#000000">graph_style_margin_color/4</text>
<text text-anchor="start" x="2315" y="-295.44" font-family="Courier,monospace" font-size="9.00" fill="#000000"> </text>
<text text-anchor="start" x="2137" y="-284.44" font-family="Courier,monospace" font-size="9.00" fill="#000000"> </text>
<text text-anchor="start" x="2218" y="-285.04" font-family="Courier,monospace" font-size="7.00" fill="#000000">local</text>
<text text-anchor="start" x="2315" y="-284.44" font-family="Courier,monospace" font-size="9.00" fill="#000000"> </text>
</g>
<!-- graph_header/5&#45;&gt;graph_style_margin_color/4 -->
<g id="edge5" class="edge">
<title>graph_header/5&#45;&gt;graph_style_margin_color/4</title>
<g id="a_edge5"><a xlink:title="calls">
<path fill="none" stroke="#000000" d="M2178.98,-505.849C2188.59,-464.894 2209.75,-374.682 2221.23,-325.756"/>
<polygon fill="#000000" stroke="#000000" points="2221.25,-325.661 2218.73,-318.906 2223.99,-313.978 2221.25,-325.661"/>
</a>
</g>
<text text-anchor="start" x="2202" y="-407.653" font-family="Courier,monospace" font-size="9.00" fill="#000000">calls</text>
</g>
<!-- graph_header/5&#45;&gt;write_key_value_nl/3 -->
<g id="edge6" class="edge">
<title>graph_header/5&#45;&gt;write_key_value_nl/3</title>
<g id="a_edge6"><a xlink:title="calls">
<path fill="none" stroke="#000000" d="M2185.43,-505.761C2205.96,-469.638 2252.62,-396.626 2313,-358.853 2338.59,-342.845 2350.28,-352.138 2379,-342.853 2401.68,-335.519 2426.1,-325.922 2447.15,-317.084"/>
<polygon fill="#000000" stroke="#000000" points="2447.43,-316.967 2451.39,-310.939 2458.47,-312.272 2447.43,-316.967"/>
</a>
</g>
<text text-anchor="start" x="2257" y="-407.653" font-family="Courier,monospace" font-size="9.00" fill="#000000">calls</text>
</g>
<!-- graph_header/5&#45;&gt;list::memberchk/2 -->
<g id="edge18" class="edge">
<title>graph_header/5&#45;&gt;list::memberchk/2</title>
<g id="a_edge18"><a xlink:title="calls">
<path fill="none" stroke="#000000" d="M2144.84,-507.051C2106.01,-481.023 2034.58,-435.3 1969,-404.853 1892.25,-369.223 1867.23,-375.081 1789,-342.853 1770.75,-335.335 1751.16,-326.175 1733.96,-317.746"/>
<polygon fill="#000000" stroke="#000000" points="1733.79,-317.663 1726.64,-318.585 1723.03,-312.338 1733.79,-317.663"/>
</a>
</g>
<text text-anchor="start" x="1988" y="-407.653" font-family="Courier,monospace" font-size="9.00" fill="#000000">calls</text>
</g>
<!-- list::member/2 -->
<g id="node22" class="node">
<title>list::member/2</title>
<g id="a_node22"><a xlink:href="http://logtalk.org/library/list_0.html#member/2" xlink:title="http://logtalk.org/library/list_0.html#member/2">
<ellipse fill="#d3d3d3" stroke="#000000" stroke-dasharray="5,2" cx="1283" cy="-292.64" rx="85.6199" ry="21.4286"/>
<text text-anchor="start" x="1231" y="-295.44" font-family="Courier,monospace" font-size="9.00" fill="#000000"> </text>
<text text-anchor="start" x="1237" y="-294.84" font-family="Courier,monospace" font-size="11.00" fill="#000000">list::member/2</text>
<text text-anchor="start" x="1330" y="-295.44" font-family="Courier,monospace" font-size="9.00" fill="#000000"> </text>
<text text-anchor="start" x="1231" y="-284.44" font-family="Courier,monospace" font-size="9.00" fill="#000000"> </text>
<text text-anchor="start" x="1266.5" y="-285.04" font-family="Courier,monospace" font-size="7.00" fill="#000000">external</text>
<text text-anchor="start" x="1330" y="-284.44" font-family="Courier,monospace" font-size="9.00" fill="#000000"> </text>
</a>
</g>
</g>
<!-- graph_header/5&#45;&gt;list::member/2 -->
<g id="edge19" class="edge">
<title>graph_header/5&#45;&gt;list::member/2</title>
<g id="a_edge19"><a xlink:title="calls">
<path fill="none" stroke="#000000" d="M2126.66,-509.361C2054.68,-483.056 1912.98,-433.668 1789,-404.853 1608.63,-362.931 1552.77,-401.101 1377,-342.853 1359.02,-336.895 1340.39,-327.672 1324.5,-318.748"/>
<polygon fill="#000000" stroke="#000000" points="1324.37,-318.672 1317.17,-319.129 1313.98,-312.662 1324.37,-318.672"/>
</a>
</g>
<text text-anchor="start" x="1824" y="-407.653" font-family="Courier,monospace" font-size="9.00" fill="#000000">calls</text>
</g>
<!-- graph_footer/5 -->
<g id="node8" class="node">
<title>graph_footer/5</title>
<ellipse fill="#f5f5dc" stroke="#000000" cx="1191" cy="-761.492" rx="85.6199" ry="21.4286"/>
<text text-anchor="start" x="1139" y="-764.292" font-family="Courier,monospace" font-size="9.00" fill="#000000"> </text>
<text text-anchor="start" x="1145" y="-763.692" font-family="Courier,monospace" font-size="11.00" fill="#000000">graph_footer/5</text>
<text text-anchor="start" x="1238" y="-764.292" font-family="Courier,monospace" font-size="9.00" fill="#000000"> </text>
<text text-anchor="start" x="1139" y="-753.292" font-family="Courier,monospace" font-size="9.00" fill="#000000"> </text>
<text text-anchor="start" x="1180.5" y="-753.892" font-family="Courier,monospace" font-size="7.00" fill="#000000">local</text>
<text text-anchor="start" x="1238" y="-753.292" font-family="Courier,monospace" font-size="9.00" fill="#000000"> </text>
</g>
<!-- node/7 -->
<g id="node10" class="node">
<title>node/7</title>
<ellipse fill="#f5f5dc" stroke="#000000" cx="873" cy="-527.066" rx="48.1667" ry="21.4286"/>
<text text-anchor="start" x="847" y="-529.866" font-family="Courier,monospace" font-size="9.00" fill="#000000"> </text>
<text text-anchor="start" x="853" y="-529.266" font-family="Courier,monospace" font-size="11.00" fill="#000000">node/7</text>
<text text-anchor="start" x="893" y="-529.866" font-family="Courier,monospace" font-size="9.00" fill="#000000"> </text>
<text text-anchor="start" x="847" y="-518.866" font-family="Courier,monospace" font-size="9.00" fill="#000000"> </text>
<text text-anchor="start" x="862" y="-519.466" font-family="Courier,monospace" font-size="7.00" fill="#000000">local</text>
<text text-anchor="start" x="893" y="-518.866" font-family="Courier,monospace" font-size="9.00" fill="#000000"> </text>
</g>
<!-- node_shape_style_color/4 -->
<g id="node11" class="node">
<title>node_shape_style_color/4</title>
<ellipse fill="#f5f5dc" stroke="#000000" cx="1045" cy="-292.64" rx="132.458" ry="21.4286"/>
<text text-anchor="start" x="960" y="-295.44" font-family="Courier,monospace" font-size="9.00" fill="#000000"> </text>
<text text-anchor="start" x="966" y="-294.84" font-family="Courier,monospace" font-size="11.00" fill="#000000">node_shape_style_color/4</text>
<text text-anchor="start" x="1125" y="-295.44" font-family="Courier,monospace" font-size="9.00" fill="#000000"> </text>
<text text-anchor="start" x="960" y="-284.44" font-family="Courier,monospace" font-size="9.00" fill="#000000"> </text>
<text text-anchor="start" x="1034.5" y="-285.04" font-family="Courier,monospace" font-size="7.00" fill="#000000">local</text>
<text text-anchor="start" x="1125" y="-284.44" font-family="Courier,monospace" font-size="9.00" fill="#000000"> </text>
</g>
<!-- node/7&#45;&gt;node_shape_style_color/4 -->
<g id="edge7" class="edge">
<title>node/7&#45;&gt;node_shape_style_color/4</title>
<g id="a_edge7"><a xlink:title="calls">
<path fill="none" stroke="#000000" d="M894.82,-507.945C908.596,-495.305 926.312,-477.966 940,-460.853 975.355,-416.652 1008.61,-359.843 1027.87,-324.852"/>
<polygon fill="#000000" stroke="#000000" points="1028.11,-324.41 1027.47,-317.228 1033.85,-313.872 1028.11,-324.41"/>
</a>
</g>
<text text-anchor="start" x="979" y="-407.653" font-family="Courier,monospace" font-size="9.00" fill="#000000">calls</text>
</g>
<!-- write_key_value_comma/3 -->
<g id="node15" class="node">
<title>write_key_value_comma/3</title>
<ellipse fill="#f5f5dc" stroke="#000000" cx="542" cy="-292.64" rx="127.059" ry="21.4286"/>
<text text-anchor="start" x="460" y="-295.44" font-family="Courier,monospace" font-size="9.00" fill="#000000"> </text>
<text text-anchor="start" x="466" y="-294.84" font-family="Courier,monospace" font-size="11.00" fill="#000000">write_key_value_comma/3</text>
<text text-anchor="start" x="618" y="-295.44" font-family="Courier,monospace" font-size="9.00" fill="#000000"> </text>
<text text-anchor="start" x="460" y="-284.44" font-family="Courier,monospace" font-size="9.00" fill="#000000"> </text>
<text text-anchor="start" x="531" y="-285.04" font-family="Courier,monospace" font-size="7.00" fill="#000000">local</text>
<text text-anchor="start" x="618" y="-284.44" font-family="Courier,monospace" font-size="9.00" fill="#000000"> </text>
</g>
<!-- node/7&#45;&gt;write_key_value_comma/3 -->
<g id="edge8" class="edge">
<title>node/7&#45;&gt;write_key_value_comma/3</title>
<g id="a_edge8"><a xlink:title="calls">
<path fill="none" stroke="#000000" d="M847.577,-509.06C790.124,-468.37 649.947,-369.092 581.251,-320.438"/>
<polygon fill="#000000" stroke="#000000" points="581.05,-320.296 573.842,-320.093 571.257,-313.361 581.05,-320.296"/>
</a>
</g>
<text text-anchor="start" x="714" y="-407.653" font-family="Courier,monospace" font-size="9.00" fill="#000000">calls</text>
</g>
<!-- write_node_lines/2 -->
<g id="node17" class="node">
<title>write_node_lines/2</title>
<ellipse fill="#f5f5dc" stroke="#000000" cx="791" cy="-292.64" rx="103.889" ry="21.4286"/>
<text text-anchor="start" x="726" y="-295.44" font-family="Courier,monospace" font-size="9.00" fill="#000000"> </text>
<text text-anchor="start" x="732" y="-294.84" font-family="Courier,monospace" font-size="11.00" fill="#000000">write_node_lines/2</text>
<text text-anchor="start" x="851" y="-295.44" font-family="Courier,monospace" font-size="9.00" fill="#000000"> </text>
<text text-anchor="start" x="726" y="-284.44" font-family="Courier,monospace" font-size="9.00" fill="#000000"> </text>
<text text-anchor="start" x="780.5" y="-285.04" font-family="Courier,monospace" font-size="7.00" fill="#000000">local</text>
<text text-anchor="start" x="851" y="-284.44" font-family="Courier,monospace" font-size="9.00" fill="#000000"> </text>
</g>
<!-- node/7&#45;&gt;write_node_lines/2 -->
<g id="edge9" class="edge">
<title>node/7&#45;&gt;write_node_lines/2</title>
<g id="a_edge9"><a xlink:title="calls">
<path fill="none" stroke="#000000" d="M865.578,-505.849C851.223,-464.807 819.563,-374.298 802.475,-325.445"/>
<polygon fill="#000000" stroke="#000000" points="802.426,-325.305 796.669,-320.962 798.464,-313.978 802.426,-325.305"/>
</a>
</g>
<text text-anchor="start" x="833" y="-407.653" font-family="Courier,monospace" font-size="9.00" fill="#000000">calls</text>
</g>
<!-- node/7&#45;&gt;list::member/2 -->
<g id="edge20" class="edge">
<title>node/7&#45;&gt;list::member/2</title>
<g id="a_edge20"><a xlink:title="calls">
<path fill="none" stroke="#000000" d="M902.486,-510.207C973.462,-469.624 1154.16,-366.305 1238.45,-318.112"/>
<polygon fill="#000000" stroke="#000000" points="1238.54,-318.059 1241.77,-311.609 1248.96,-312.103 1238.54,-318.059"/>
</a>
</g>
<text text-anchor="start" x="1086" y="-407.653" font-family="Courier,monospace" font-size="9.00" fill="#000000">calls</text>
</g>
<!-- edge/6 -->
<g id="node12" class="node">
<title>edge/6</title>
<ellipse fill="#f5f5dc" stroke="#000000" cx="471" cy="-527.066" rx="48.1667" ry="21.4286"/>
<text text-anchor="start" x="445" y="-529.866" font-family="Courier,monospace" font-size="9.00" fill="#000000"> </text>
<text text-anchor="start" x="451" y="-529.266" font-family="Courier,monospace" font-size="11.00" fill="#000000">edge/6</text>
<text text-anchor="start" x="491" y="-529.866" font-family="Courier,monospace" font-size="9.00" fill="#000000"> </text>
<text text-anchor="start" x="445" y="-518.866" font-family="Courier,monospace" font-size="9.00" fill="#000000"> </text>
<text text-anchor="start" x="460" y="-519.466" font-family="Courier,monospace" font-size="7.00" fill="#000000">local</text>
<text text-anchor="start" x="491" y="-518.866" font-family="Courier,monospace" font-size="9.00" fill="#000000"> </text>
</g>
<!-- edge_arrow/2 -->
<g id="node13" class="node">
<title>edge_arrow/2</title>
<ellipse fill="#f5f5dc" stroke="#000000" cx="320" cy="-292.64" rx="76.2353" ry="21.4286"/>
<text text-anchor="start" x="274" y="-295.44" font-family="Courier,monospace" font-size="9.00" fill="#000000"> </text>
<text text-anchor="start" x="280" y="-294.84" font-family="Courier,monospace" font-size="11.00" fill="#000000">edge_arrow/2</text>
<text text-anchor="start" x="360" y="-295.44" font-family="Courier,monospace" font-size="9.00" fill="#000000"> </text>
<text text-anchor="start" x="274" y="-284.44" font-family="Courier,monospace" font-size="9.00" fill="#000000"> </text>
<text text-anchor="start" x="309" y="-285.04" font-family="Courier,monospace" font-size="7.00" fill="#000000">local</text>
<text text-anchor="start" x="360" y="-284.44" font-family="Courier,monospace" font-size="9.00" fill="#000000"> </text>
</g>
<!-- edge/6&#45;&gt;edge_arrow/2 -->
<g id="edge10" class="edge">
<title>edge/6&#45;&gt;edge_arrow/2</title>
<g id="a_edge10"><a xlink:title="calls">
<path fill="none" stroke="#000000" d="M457.6,-506.262C431.027,-465.008 371.524,-372.63 340.187,-323.981"/>
<polygon fill="#000000" stroke="#000000" points="340.085,-323.822 333.474,-320.944 333.587,-313.734 340.085,-323.822"/>
</a>
</g>
<text text-anchor="start" x="398" y="-407.653" font-family="Courier,monospace" font-size="9.00" fill="#000000">calls</text>
</g>
<!-- edge/6&#45;&gt;write_key_value_comma/3 -->
<g id="edge11" class="edge">
<title>edge/6&#45;&gt;write_key_value_comma/3</title>
<g id="a_edge11"><a xlink:title="calls">
<path fill="none" stroke="#000000" d="M477.426,-505.849C489.83,-464.894 517.152,-374.682 531.97,-325.756"/>
<polygon fill="#000000" stroke="#000000" points="532.059,-325.463 529.97,-318.561 535.537,-313.978 532.059,-325.463"/>
</a>
</g>
<text text-anchor="start" x="507" y="-407.653" font-family="Courier,monospace" font-size="9.00" fill="#000000">calls</text>
</g>
<!-- write_edge_lines/2 -->
<g id="node18" class="node">
<title>write_edge_lines/2</title>
<ellipse fill="#f5f5dc" stroke="#000000" cx="122" cy="-292.64" rx="103.889" ry="21.4286"/>
<text text-anchor="start" x="57" y="-295.44" font-family="Courier,monospace" font-size="9.00" fill="#000000"> </text>
<text text-anchor="start" x="63" y="-294.84" font-family="Courier,monospace" font-size="11.00" fill="#000000">write_edge_lines/2</text>
<text text-anchor="start" x="182" y="-295.44" font-family="Courier,monospace" font-size="9.00" fill="#000000"> </text>
<text text-anchor="start" x="57" y="-284.44" font-family="Courier,monospace" font-size="9.00" fill="#000000"> </text>
<text text-anchor="start" x="111.5" y="-285.04" font-family="Courier,monospace" font-size="7.00" fill="#000000">local</text>
<text text-anchor="start" x="182" y="-284.44" font-family="Courier,monospace" font-size="9.00" fill="#000000"> </text>
</g>
<!-- edge/6&#45;&gt;write_edge_lines/2 -->
<g id="edge12" class="edge">
<title>edge/6&#45;&gt;write_edge_lines/2</title>
<g id="a_edge12"><a xlink:title="calls">
<path fill="none" stroke="#000000" d="M444.482,-509.254C383.836,-468.517 234.7,-368.341 162.485,-319.834"/>
<polygon fill="#000000" stroke="#000000" points="162.37,-319.756 155.159,-319.731 152.408,-313.065 162.37,-319.756"/>
</a>
</g>
<text text-anchor="start" x="303" y="-407.653" font-family="Courier,monospace" font-size="9.00" fill="#000000">calls</text>
</g>
<!-- edge/6&#45;&gt;list::member/2 -->
<g id="edge21" class="edge">
<title>edge/6&#45;&gt;list::member/2</title>
<g id="a_edge21"><a xlink:title="calls">
<path fill="none" stroke="#000000" d="M512.448,-516.093C594.283,-494.471 782.434,-444.973 941,-404.853 1052.82,-376.561 1085.68,-385.107 1193,-342.853 1209.48,-336.365 1226.67,-327.388 1241.56,-318.817"/>
<polygon fill="#000000" stroke="#000000" points="1241.61,-318.785 1244.75,-312.291 1251.95,-312.688 1241.61,-318.785"/>
</a>
</g>
<text text-anchor="start" x="941" y="-407.653" font-family="Courier,monospace" font-size="9.00" fill="#000000">calls</text>
</g>
<!-- write_key_value/3 -->
<g id="node16" class="node">
<title>write_key_value/3</title>
<ellipse fill="#f5f5dc" stroke="#000000" cx="1759" cy="-58.2132" rx="99.9045" ry="21.4286"/>
<text text-anchor="start" x="1697" y="-61.0132" font-family="Courier,monospace" font-size="9.00" fill="#000000"> </text>
<text text-anchor="start" x="1703" y="-60.4132" font-family="Courier,monospace" font-size="11.00" fill="#000000">write_key_value/3</text>
<text text-anchor="start" x="1816" y="-61.0132" font-family="Courier,monospace" font-size="9.00" fill="#000000"> </text>
<text text-anchor="start" x="1697" y="-50.0132" font-family="Courier,monospace" font-size="9.00" fill="#000000"> </text>
<text text-anchor="start" x="1748.5" y="-50.6132" font-family="Courier,monospace" font-size="7.00" fill="#000000">local</text>
<text text-anchor="start" x="1816" y="-50.0132" font-family="Courier,monospace" font-size="9.00" fill="#000000"> </text>
</g>
<!-- write_key_value_nl/3&#45;&gt;write_key_value/3 -->
<g id="edge13" class="edge">
<title>write_key_value_nl/3&#45;&gt;write_key_value/3</title>
<g id="a_edge13"><a xlink:title="calls">
<path fill="none" stroke="#000000" d="M2444.01,-274.342C2308.39,-231.553 1971.1,-125.135 1826.53,-79.5212"/>
<polygon fill="#000000" stroke="#000000" points="1826.25,-79.432 1819.33,-81.4413 1814.81,-75.8212 1826.25,-79.432"/>
</a>
</g>
<text text-anchor="start" x="2145" y="-173.226" font-family="Courier,monospace" font-size="9.00" fill="#000000">calls</text>
</g>
<!-- write_key_value_comma/3&#45;&gt;write_key_value/3 -->
<g id="edge14" class="edge">
<title>write_key_value_comma/3&#45;&gt;write_key_value/3</title>
<g id="a_edge14"><a xlink:title="calls">
<path fill="none" stroke="#000000" d="M615.287,-275.257C635.566,-270.601 657.606,-265.682 678,-261.426 1044.98,-184.852 1484.82,-106.218 1669.96,-73.7136"/>
<polygon fill="#000000" stroke="#000000" points="1669.97,-73.713 1675.19,-68.7365 1681.79,-71.6398 1669.97,-73.713"/>
</a>
</g>
<text text-anchor="start" x="1138" y="-173.226" font-family="Courier,monospace" font-size="9.00" fill="#000000">calls</text>
</g>
<!-- graph_language_registry::language_object/2 -->
<g id="node19" class="node">
<title>graph_language_registry::language_object/2</title>
<g id="a_node19"><a xlink:href="http://logtalk.org/library/graph_language_registry_0.html#language_object/2" xlink:title="http://logtalk.org/library/graph_language_registry_0.html#language_object/2">
<ellipse fill="#87ceeb" stroke="#000000" cx="463" cy="-761.492" rx="216.249" ry="21.4286"/>
<text text-anchor="start" x="318" y="-764.292" font-family="Courier,monospace" font-size="9.00" fill="#000000"> </text>
<text text-anchor="start" x="324" y="-763.692" font-family="Courier,monospace" font-size="11.00" fill="#000000">graph_language_registry::language_object/2</text>
<text text-anchor="start" x="602" y="-764.292" font-family="Courier,monospace" font-size="9.00" fill="#000000"> </text>
<text text-anchor="start" x="318" y="-753.292" font-family="Courier,monospace" font-size="9.00" fill="#000000"> </text>
<text text-anchor="start" x="444" y="-753.892" font-family="Courier,monospace" font-size="7.00" fill="#000000">multifile</text>
<text text-anchor="start" x="602" y="-753.292" font-family="Courier,monospace" font-size="9.00" fill="#000000"> </text>
</a>
</g>
</g>
</g>
</svg>
