<?xml version="1.0" encoding="UTF-8" standalone="no"?>
<!DOCTYPE svg PUBLIC "-//W3C//DTD SVG 1.1//EN"
 "http://www.w3.org/Graphics/SVG/1.1/DTD/svg11.dtd">
<!-- Generated by graphviz version 2.39.20161028.1504 (20161028.1504)
 -->
<!-- Title: file_load_diagram_1_object Pages: 1 -->
<svg width="1224pt" height="513pt"
 viewBox="72.00 72.00 1152.00 440.85" xmlns="http://www.w3.org/2000/svg" xmlns:xlink="http://www.w3.org/1999/xlink">
<g id="graph0" class="graph" transform="scale(1 1) rotate(0) translate(76 436.853)">
<title>file_load_diagram_1_object</title>
<polygon fill="#ffffff" stroke="transparent" points="-4,4 -4,-364.853 1076,-364.853 1076,4 -4,4"/>
<text text-anchor="start" x="8" y="-7" font-family="Courier,monospace" font-size="10.00" fill="#8b8989">Generated on 2016/11/04, 00:44</text>
<g id="clust1" class="cluster">
<title>cluster_file_load_diagram_1_object</title>
<g id="a_clust1"><a xlink:href="https://github.com/LogtalkDotOrg/logtalk3/tree/master/tools/diagrams/file_load_diagram.lgt" xlink:title="https://github.com/LogtalkDotOrg/logtalk3/tree/master/tools/diagrams/file_load_diagram.lgt">
<path fill="#fffafa" stroke="#8b8989" d="M20,-27C20,-27 1052,-27 1052,-27 1058,-27 1064,-33 1064,-39 1064,-39 1064,-340.853 1064,-340.853 1064,-346.853 1058,-352.853 1052,-352.853 1052,-352.853 20,-352.853 20,-352.853 14,-352.853 8,-346.853 8,-340.853 8,-340.853 8,-39 8,-39 8,-33 14,-27 20,-27"/>
<text text-anchor="middle" x="91.5" y="-340.853" font-family="Courier,monospace" font-size="10.00" fill="#8b8989">file_load_diagram(Format)</text>
</a>
</g>
</g>
<g id="clust2" class="cluster">
<title>cluster_other</title>
<g id="a_clust2"><a xlink:title="(external predicates)">
<path fill="#ffffff" stroke="#8b8989" d="M30,-37C30,-37 1042,-37 1042,-37 1048,-37 1054,-43 1054,-49 1054,-49 1054,-106.426 1054,-106.426 1054,-112.426 1048,-118.426 1042,-118.426 1042,-118.426 30,-118.426 30,-118.426 24,-118.426 18,-112.426 18,-106.426 18,-106.426 18,-49 18,-49 18,-43 24,-37 30,-37"/>
<text text-anchor="middle" x="89.5" y="-106.426" font-family="Courier,monospace" font-size="10.00" fill="#8b8989">(external predicates)</text>
</a>
</g>
</g>
<!-- output_file/4 -->
<g id="node1" class="node">
<title>output_file/4</title>
<ellipse fill="#f5f5dc" stroke="#000000" cx="560" cy="-302.64" rx="80.7205" ry="21.4286"/>
<text text-anchor="start" x="511" y="-305.44" font-family="Courier,monospace" font-size="9.00" fill="#000000"> </text>
<text text-anchor="start" x="517" y="-304.84" font-family="Courier,monospace" font-size="11.00" fill="#000000">output_file/4</text>
<text text-anchor="start" x="603" y="-305.44" font-family="Courier,monospace" font-size="9.00" fill="#000000"> </text>
<text text-anchor="start" x="511" y="-294.44" font-family="Courier,monospace" font-size="9.00" fill="#000000"> </text>
<text text-anchor="start" x="549" y="-295.04" font-family="Courier,monospace" font-size="7.00" fill="#000000">local</text>
<text text-anchor="start" x="603" y="-294.44" font-family="Courier,monospace" font-size="9.00" fill="#000000"> </text>
</g>
<!-- list::member/2 -->
<g id="node4" class="node">
<title>list::member/2</title>
<g id="a_node4"><a xlink:href="http://logtalk.org/library/list_0.html#member/2" xlink:title="http://logtalk.org/library/list_0.html#member/2">
<ellipse fill="#d3d3d3" stroke="#000000" stroke-dasharray="5,2" cx="114" cy="-68.2132" rx="85.6199" ry="21.4286"/>
<text text-anchor="start" x="62" y="-71.0132" font-family="Courier,monospace" font-size="9.00" fill="#000000"> </text>
<text text-anchor="start" x="68" y="-70.4132" font-family="Courier,monospace" font-size="11.00" fill="#000000">list::member/2</text>
<text text-anchor="start" x="161" y="-71.0132" font-family="Courier,monospace" font-size="9.00" fill="#000000"> </text>
<text text-anchor="start" x="62" y="-60.0132" font-family="Courier,monospace" font-size="9.00" fill="#000000"> </text>
<text text-anchor="start" x="97.5" y="-60.6132" font-family="Courier,monospace" font-size="7.00" fill="#000000">external</text>
<text text-anchor="start" x="161" y="-60.0132" font-family="Courier,monospace" font-size="9.00" fill="#000000"> </text>
</a>
</g>
</g>
<!-- output_file/4&#45;&gt;list::member/2 -->
<g id="edge1" class="edge">
<title>output_file/4&#45;&gt;list::member/2</title>
<g id="a_edge1"><a xlink:title="calls">
<path fill="none" stroke="#000000" d="M523.461,-283.648C459.459,-250.351 322.938,-179.199 208,-118.426 192.601,-110.284 175.815,-101.339 160.744,-93.2835"/>
<polygon fill="#000000" stroke="#000000" points="160.699,-93.2596 153.522,-93.9563 150.118,-87.599 160.699,-93.2596"/>
</a>
</g>
<text text-anchor="start" x="342" y="-183.226" font-family="Courier,monospace" font-size="9.00" fill="#000000">calls</text>
</g>
<!-- logtalk::loaded_file_property/2 -->
<g id="node5" class="node">
<title>logtalk::loaded_file_property/2</title>
<g id="a_node5"><a xlink:href="http://logtalk.org/library/logtalk_0.html#loaded_file_property/2" xlink:title="http://logtalk.org/library/logtalk_0.html#loaded_file_property/2">
<ellipse fill="#d3d3d3" stroke="#000000" stroke-dasharray="5,2" cx="382" cy="-68.2132" rx="164.512" ry="21.4286"/>
<text text-anchor="start" x="274" y="-71.0132" font-family="Courier,monospace" font-size="9.00" fill="#000000"> </text>
<text text-anchor="start" x="280" y="-70.4132" font-family="Courier,monospace" font-size="11.00" fill="#000000">logtalk::loaded_file_property/2</text>
<text text-anchor="start" x="485" y="-71.0132" font-family="Courier,monospace" font-size="9.00" fill="#000000"> </text>
<text text-anchor="start" x="274" y="-60.0132" font-family="Courier,monospace" font-size="9.00" fill="#000000"> </text>
<text text-anchor="start" x="365.5" y="-60.6132" font-family="Courier,monospace" font-size="7.00" fill="#000000">external</text>
<text text-anchor="start" x="485" y="-60.0132" font-family="Courier,monospace" font-size="9.00" fill="#000000"> </text>
</a>
</g>
</g>
<!-- output_file/4&#45;&gt;logtalk::loaded_file_property/2 -->
<g id="edge2" class="edge">
<title>output_file/4&#45;&gt;logtalk::loaded_file_property/2</title>
<g id="a_edge2"><a xlink:title="calls">
<path fill="none" stroke="#000000" d="M544.204,-281.836C512.827,-240.513 442.503,-147.896 405.613,-99.3114"/>
<polygon fill="#000000" stroke="#000000" points="405.531,-99.2038 398.717,-96.8441 398.274,-89.6466 405.531,-99.2038"/>
</a>
</g>
<text text-anchor="start" x="474" y="-183.226" font-family="Courier,monospace" font-size="9.00" fill="#000000">calls</text>
</g>
<!-- modules_diagram_support::loaded_file_property/2 -->
<g id="node6" class="node">
<title>modules_diagram_support::loaded_file_property/2</title>
<g id="a_node6"><a xlink:href="http://logtalk.org/library/modules_diagram_support_0.html#loaded_file_property/2" xlink:title="http://logtalk.org/library/modules_diagram_support_0.html#loaded_file_property/2">
<ellipse fill="#d3d3d3" stroke="#000000" stroke-dasharray="5,2" cx="804" cy="-68.2132" rx="239.919" ry="21.4286"/>
<text text-anchor="start" x="643" y="-71.0132" font-family="Courier,monospace" font-size="9.00" fill="#000000"> </text>
<text text-anchor="start" x="649" y="-70.4132" font-family="Courier,monospace" font-size="11.00" fill="#000000">modules_diagram_support::loaded_file_property/2</text>
<text text-anchor="start" x="960" y="-71.0132" font-family="Courier,monospace" font-size="9.00" fill="#000000"> </text>
<text text-anchor="start" x="643" y="-60.0132" font-family="Courier,monospace" font-size="9.00" fill="#000000"> </text>
<text text-anchor="start" x="787.5" y="-60.6132" font-family="Courier,monospace" font-size="7.00" fill="#000000">external</text>
<text text-anchor="start" x="960" y="-60.0132" font-family="Courier,monospace" font-size="9.00" fill="#000000"> </text>
</a>
</g>
</g>
<!-- output_file/4&#45;&gt;modules_diagram_support::loaded_file_property/2 -->
<g id="edge3" class="edge">
<title>output_file/4&#45;&gt;modules_diagram_support::loaded_file_property/2</title>
<g id="a_edge3"><a xlink:title="calls">
<path fill="none" stroke="#000000" d="M581.653,-281.836C625.024,-240.167 722.68,-146.342 772.892,-98.101"/>
<polygon fill="#000000" stroke="#000000" points="773.038,-97.9604 774.593,-90.9191 781.691,-89.6466 773.038,-97.9604"/>
</a>
</g>
<text text-anchor="start" x="687" y="-183.226" font-family="Courier,monospace" font-size="9.00" fill="#000000">calls</text>
</g>
<!-- default_option/1 -->
<g id="node2" class="node">
<title>default_option/1</title>
<ellipse fill="#f5f5dc" stroke="#000000" cx="367" cy="-302.64" rx="94.5053" ry="21.4286"/>
<text text-anchor="start" x="308" y="-305.44" font-family="Courier,monospace" font-size="9.00" fill="#000000"> </text>
<text text-anchor="start" x="314" y="-304.84" font-family="Courier,monospace" font-size="11.00" fill="#000000">default_option/1</text>
<text text-anchor="start" x="420" y="-305.44" font-family="Courier,monospace" font-size="9.00" fill="#000000"> </text>
<text text-anchor="start" x="308" y="-294.44" font-family="Courier,monospace" font-size="9.00" fill="#000000"> </text>
<text text-anchor="start" x="356" y="-295.04" font-family="Courier,monospace" font-size="7.00" fill="#000000">local</text>
<text text-anchor="start" x="420" y="-294.44" font-family="Courier,monospace" font-size="9.00" fill="#000000"> </text>
</g>
<!-- diagram_name_suffix/1 -->
<g id="node3" class="node">
<title>diagram_name_suffix/1</title>
<ellipse fill="#f5f5dc" stroke="#000000" cx="136" cy="-302.64" rx="118.174" ry="21.4286"/>
<text text-anchor="start" x="61" y="-305.44" font-family="Courier,monospace" font-size="9.00" fill="#000000"> </text>
<text text-anchor="start" x="67" y="-304.84" font-family="Courier,monospace" font-size="11.00" fill="#000000">diagram_name_suffix/1</text>
<text text-anchor="start" x="206" y="-305.44" font-family="Courier,monospace" font-size="9.00" fill="#000000"> </text>
<text text-anchor="start" x="61" y="-294.44" font-family="Courier,monospace" font-size="9.00" fill="#000000"> </text>
<text text-anchor="start" x="125.5" y="-295.04" font-family="Courier,monospace" font-size="7.00" fill="#000000">local</text>
<text text-anchor="start" x="206" y="-294.44" font-family="Courier,monospace" font-size="9.00" fill="#000000"> </text>
</g>
</g>
</svg>
