<?xml version="1.0" encoding="UTF-8" standalone="no"?>
<!DOCTYPE svg PUBLIC "-//W3C//DTD SVG 1.1//EN"
 "http://www.w3.org/Graphics/SVG/1.1/DTD/svg11.dtd">
<!-- Generated by graphviz version 2.39.20161028.1504 (20161028.1504)
 -->
<!-- Title: file_dependency_diagram_1_object Pages: 1 -->
<svg width="1432pt" height="982pt"
 viewBox="72.00 72.00 1360.00 909.71" xmlns="http://www.w3.org/2000/svg" xmlns:xlink="http://www.w3.org/1999/xlink">
<g id="graph0" class="graph" transform="scale(1 1) rotate(0) translate(76 905.706)">
<title>file_dependency_diagram_1_object</title>
<polygon fill="#ffffff" stroke="transparent" points="-4,4 -4,-833.706 1284,-833.706 1284,4 -4,4"/>
<text text-anchor="start" x="8" y="-7" font-family="Courier,monospace" font-size="10.00" fill="#8b8989">Generated on 2016/11/04, 00:44</text>
<g id="clust1" class="cluster">
<title>cluster_file_dependency_diagram_1_object</title>
<g id="a_clust1"><a xlink:href="https://github.com/LogtalkDotOrg/logtalk3/tree/master/tools/diagrams/file_dependency_diagram.lgt" xlink:title="https://github.com/LogtalkDotOrg/logtalk3/tree/master/tools/diagrams/file_dependency_diagram.lgt">
<path fill="#fffafa" stroke="#8b8989" d="M20,-27C20,-27 1260,-27 1260,-27 1266,-27 1272,-33 1272,-39 1272,-39 1272,-809.706 1272,-809.706 1272,-815.706 1266,-821.706 1260,-821.706 1260,-821.706 20,-821.706 20,-821.706 14,-821.706 8,-815.706 8,-809.706 8,-809.706 8,-39 8,-39 8,-33 14,-27 20,-27"/>
<text text-anchor="middle" x="109.5" y="-809.706" font-family="Courier,monospace" font-size="10.00" fill="#8b8989">file_dependency_diagram(Format)</text>
</a>
</g>
</g>
<g id="clust2" class="cluster">
<title>cluster_other</title>
<g id="a_clust2"><a xlink:title="(external predicates)">
<path fill="#ffffff" stroke="#8b8989" d="M632,-37C632,-37 1250,-37 1250,-37 1256,-37 1262,-43 1262,-49 1262,-49 1262,-106.426 1262,-106.426 1262,-112.426 1256,-118.426 1250,-118.426 1250,-118.426 632,-118.426 632,-118.426 626,-118.426 620,-112.426 620,-106.426 620,-106.426 620,-49 620,-49 620,-43 626,-37 632,-37"/>
<text text-anchor="middle" x="691.5" y="-106.426" font-family="Courier,monospace" font-size="10.00" fill="#8b8989">(external predicates)</text>
</a>
</g>
</g>
<!-- output_file/4 -->
<g id="node1" class="node">
<title>output_file/4</title>
<ellipse fill="#f5f5dc" stroke="#000000" cx="1103" cy="-771.492" rx="80.7205" ry="21.4286"/>
<text text-anchor="start" x="1054" y="-774.292" font-family="Courier,monospace" font-size="9.00" fill="#000000"> </text>
<text text-anchor="start" x="1060" y="-773.692" font-family="Courier,monospace" font-size="11.00" fill="#000000">output_file/4</text>
<text text-anchor="start" x="1146" y="-774.292" font-family="Courier,monospace" font-size="9.00" fill="#000000"> </text>
<text text-anchor="start" x="1054" y="-763.292" font-family="Courier,monospace" font-size="9.00" fill="#000000"> </text>
<text text-anchor="start" x="1092" y="-763.892" font-family="Courier,monospace" font-size="7.00" fill="#000000">local</text>
<text text-anchor="start" x="1146" y="-763.292" font-family="Courier,monospace" font-size="9.00" fill="#000000"> </text>
</g>
<!-- depends_file/4 -->
<g id="node2" class="node">
<title>depends_file/4</title>
<ellipse fill="#f5f5dc" stroke="#000000" cx="773" cy="-537.066" rx="85.6199" ry="21.4286"/>
<text text-anchor="start" x="721" y="-539.866" font-family="Courier,monospace" font-size="9.00" fill="#000000"> </text>
<text text-anchor="start" x="727" y="-539.266" font-family="Courier,monospace" font-size="11.00" fill="#000000">depends_file/4</text>
<text text-anchor="start" x="820" y="-539.866" font-family="Courier,monospace" font-size="9.00" fill="#000000"> </text>
<text text-anchor="start" x="721" y="-528.866" font-family="Courier,monospace" font-size="9.00" fill="#000000"> </text>
<text text-anchor="start" x="762.5" y="-529.466" font-family="Courier,monospace" font-size="7.00" fill="#000000">local</text>
<text text-anchor="start" x="820" y="-528.866" font-family="Courier,monospace" font-size="9.00" fill="#000000"> </text>
</g>
<!-- output_file/4&#45;&gt;depends_file/4 -->
<g id="edge1" class="edge">
<title>output_file/4&#45;&gt;depends_file/4</title>
<g id="a_edge1"><a xlink:title="calls">
<path fill="none" stroke="#000000" d="M1074.86,-751.505C1015.83,-709.57 878.958,-612.337 811.706,-564.562"/>
<polygon fill="#000000" stroke="#000000" points="811.316,-564.285 804.108,-564.071 801.533,-557.335 811.316,-564.285"/>
</a>
</g>
<text text-anchor="start" x="944" y="-652.079" font-family="Courier,monospace" font-size="9.00" fill="#000000">calls</text>
</g>
<!-- list::member/2 -->
<g id="node10" class="node">
<title>list::member/2</title>
<g id="a_node10"><a xlink:href="http://logtalk.org/library/list_0.html#member/2" xlink:title="http://logtalk.org/library/list_0.html#member/2">
<ellipse fill="#d3d3d3" stroke="#000000" stroke-dasharray="5,2" cx="1166" cy="-68.2132" rx="85.6199" ry="21.4286"/>
<text text-anchor="start" x="1114" y="-71.0132" font-family="Courier,monospace" font-size="9.00" fill="#000000"> </text>
<text text-anchor="start" x="1120" y="-70.4132" font-family="Courier,monospace" font-size="11.00" fill="#000000">list::member/2</text>
<text text-anchor="start" x="1213" y="-71.0132" font-family="Courier,monospace" font-size="9.00" fill="#000000"> </text>
<text text-anchor="start" x="1114" y="-60.0132" font-family="Courier,monospace" font-size="9.00" fill="#000000"> </text>
<text text-anchor="start" x="1149.5" y="-60.6132" font-family="Courier,monospace" font-size="7.00" fill="#000000">external</text>
<text text-anchor="start" x="1213" y="-60.0132" font-family="Courier,monospace" font-size="9.00" fill="#000000"> </text>
</a>
</g>
</g>
<!-- output_file/4&#45;&gt;list::member/2 -->
<g id="edge7" class="edge">
<title>output_file/4&#45;&gt;list::member/2</title>
<g id="a_edge7"><a xlink:title="calls">
<path fill="none" stroke="#000000" d="M1147.35,-753.603C1185.35,-734.999 1234,-701.887 1234,-654.279 1234,-654.279 1234,-654.279 1234,-470.353 1234,-386.384 1245.95,-364.39 1233,-281.426 1222.7,-215.48 1195.99,-141.89 1179.58,-100.704"/>
<polygon fill="#000000" stroke="#000000" points="1179.54,-100.617 1173.58,-96.5552 1175.04,-89.493 1179.54,-100.617"/>
</a>
</g>
<text text-anchor="start" x="1235" y="-417.653" font-family="Courier,monospace" font-size="9.00" fill="#000000">calls</text>
</g>
<!-- depends_object/3 -->
<g id="node3" class="node">
<title>depends_object/3</title>
<ellipse fill="#f5f5dc" stroke="#000000" cx="113" cy="-302.64" rx="94.5053" ry="21.4286"/>
<text text-anchor="start" x="54" y="-305.44" font-family="Courier,monospace" font-size="9.00" fill="#000000"> </text>
<text text-anchor="start" x="60" y="-304.84" font-family="Courier,monospace" font-size="11.00" fill="#000000">depends_object/3</text>
<text text-anchor="start" x="166" y="-305.44" font-family="Courier,monospace" font-size="9.00" fill="#000000"> </text>
<text text-anchor="start" x="54" y="-294.44" font-family="Courier,monospace" font-size="9.00" fill="#000000"> </text>
<text text-anchor="start" x="102" y="-295.04" font-family="Courier,monospace" font-size="7.00" fill="#000000">local</text>
<text text-anchor="start" x="166" y="-294.44" font-family="Courier,monospace" font-size="9.00" fill="#000000"> </text>
</g>
<!-- depends_file/4&#45;&gt;depends_object/3 -->
<g id="edge2" class="edge">
<title>depends_file/4&#45;&gt;depends_object/3</title>
<g id="a_edge2"><a xlink:title="calls">
<path fill="none" stroke="#000000" d="M723.932,-519.637C605.761,-477.664 305.529,-371.024 175.084,-324.691"/>
<polygon fill="#000000" stroke="#000000" points="175.055,-324.681 168.062,-326.442 163.747,-320.665 175.055,-324.681"/>
</a>
</g>
<text text-anchor="start" x="456" y="-417.653" font-family="Courier,monospace" font-size="9.00" fill="#000000">calls</text>
</g>
<!-- depends_protocol/3 -->
<g id="node4" class="node">
<title>depends_protocol/3</title>
<ellipse fill="#f5f5dc" stroke="#000000" cx="330" cy="-302.64" rx="103.889" ry="21.4286"/>
<text text-anchor="start" x="265" y="-305.44" font-family="Courier,monospace" font-size="9.00" fill="#000000"> </text>
<text text-anchor="start" x="271" y="-304.84" font-family="Courier,monospace" font-size="11.00" fill="#000000">depends_protocol/3</text>
<text text-anchor="start" x="390" y="-305.44" font-family="Courier,monospace" font-size="9.00" fill="#000000"> </text>
<text text-anchor="start" x="265" y="-294.44" font-family="Courier,monospace" font-size="9.00" fill="#000000"> </text>
<text text-anchor="start" x="319.5" y="-295.04" font-family="Courier,monospace" font-size="7.00" fill="#000000">local</text>
<text text-anchor="start" x="390" y="-294.44" font-family="Courier,monospace" font-size="9.00" fill="#000000"> </text>
</g>
<!-- depends_file/4&#45;&gt;depends_protocol/3 -->
<g id="edge3" class="edge">
<title>depends_file/4&#45;&gt;depends_protocol/3</title>
<g id="a_edge3"><a xlink:title="calls">
<path fill="none" stroke="#000000" d="M736.371,-517.682C656.671,-475.507 467.529,-375.417 378.246,-328.17"/>
<polygon fill="#000000" stroke="#000000" points="378.217,-328.155 371.043,-328.884 367.611,-322.542 378.217,-328.155"/>
</a>
</g>
<text text-anchor="start" x="560" y="-417.653" font-family="Courier,monospace" font-size="9.00" fill="#000000">calls</text>
</g>
<!-- depends_category/3 -->
<g id="node5" class="node">
<title>depends_category/3</title>
<ellipse fill="#f5f5dc" stroke="#000000" cx="556" cy="-302.64" rx="103.889" ry="21.4286"/>
<text text-anchor="start" x="491" y="-305.44" font-family="Courier,monospace" font-size="9.00" fill="#000000"> </text>
<text text-anchor="start" x="497" y="-304.84" font-family="Courier,monospace" font-size="11.00" fill="#000000">depends_category/3</text>
<text text-anchor="start" x="616" y="-305.44" font-family="Courier,monospace" font-size="9.00" fill="#000000"> </text>
<text text-anchor="start" x="491" y="-294.44" font-family="Courier,monospace" font-size="9.00" fill="#000000"> </text>
<text text-anchor="start" x="545.5" y="-295.04" font-family="Courier,monospace" font-size="7.00" fill="#000000">local</text>
<text text-anchor="start" x="616" y="-294.44" font-family="Courier,monospace" font-size="9.00" fill="#000000"> </text>
</g>
<!-- depends_file/4&#45;&gt;depends_category/3 -->
<g id="edge4" class="edge">
<title>depends_file/4&#45;&gt;depends_category/3</title>
<g id="a_edge4"><a xlink:title="calls">
<path fill="none" stroke="#000000" d="M753.743,-516.262C715.234,-474.661 628.604,-381.074 583.885,-332.763"/>
<polygon fill="#000000" stroke="#000000" points="583.678,-332.54 576.666,-330.854 575.526,-323.734 583.678,-332.54"/>
</a>
</g>
<text text-anchor="start" x="669" y="-417.653" font-family="Courier,monospace" font-size="9.00" fill="#000000">calls</text>
</g>
<!-- depends_module/3 -->
<g id="node6" class="node">
<title>depends_module/3</title>
<ellipse fill="#f5f5dc" stroke="#000000" cx="773" cy="-302.64" rx="94.5053" ry="21.4286"/>
<text text-anchor="start" x="714" y="-305.44" font-family="Courier,monospace" font-size="9.00" fill="#000000"> </text>
<text text-anchor="start" x="720" y="-304.84" font-family="Courier,monospace" font-size="11.00" fill="#000000">depends_module/3</text>
<text text-anchor="start" x="826" y="-305.44" font-family="Courier,monospace" font-size="9.00" fill="#000000"> </text>
<text text-anchor="start" x="714" y="-294.44" font-family="Courier,monospace" font-size="9.00" fill="#000000"> </text>
<text text-anchor="start" x="762" y="-295.04" font-family="Courier,monospace" font-size="7.00" fill="#000000">local</text>
<text text-anchor="start" x="826" y="-294.44" font-family="Courier,monospace" font-size="9.00" fill="#000000"> </text>
</g>
<!-- depends_file/4&#45;&gt;depends_module/3 -->
<g id="edge5" class="edge">
<title>depends_file/4&#45;&gt;depends_module/3</title>
<g id="a_edge5"><a xlink:title="calls">
<path fill="none" stroke="#000000" d="M773,-515.849C773,-474.981 773,-385.064 773,-336.068"/>
<polygon fill="#000000" stroke="#000000" points="773,-335.978 769,-329.978 773,-323.978 773,-335.978"/>
</a>
</g>
<text text-anchor="start" x="773" y="-417.653" font-family="Courier,monospace" font-size="9.00" fill="#000000">calls</text>
</g>
<!-- entity_basename_directory/4 -->
<g id="node7" class="node">
<title>entity_basename_directory/4</title>
<ellipse fill="#f5f5dc" stroke="#000000" cx="1032" cy="-302.64" rx="146.242" ry="21.4286"/>
<text text-anchor="start" x="937" y="-305.44" font-family="Courier,monospace" font-size="9.00" fill="#000000"> </text>
<text text-anchor="start" x="943" y="-304.84" font-family="Courier,monospace" font-size="11.00" fill="#000000">entity_basename_directory/4</text>
<text text-anchor="start" x="1122" y="-305.44" font-family="Courier,monospace" font-size="9.00" fill="#000000"> </text>
<text text-anchor="start" x="937" y="-294.44" font-family="Courier,monospace" font-size="9.00" fill="#000000"> </text>
<text text-anchor="start" x="1021.5" y="-295.04" font-family="Courier,monospace" font-size="7.00" fill="#000000">local</text>
<text text-anchor="start" x="1122" y="-294.44" font-family="Courier,monospace" font-size="9.00" fill="#000000"> </text>
</g>
<!-- depends_file/4&#45;&gt;entity_basename_directory/4 -->
<g id="edge6" class="edge">
<title>depends_file/4&#45;&gt;entity_basename_directory/4</title>
<g id="a_edge6"><a xlink:title="calls">
<path fill="none" stroke="#000000" d="M795.985,-516.262C842.234,-474.401 946.638,-379.902 999.713,-331.863"/>
<polygon fill="#000000" stroke="#000000" points="999.798,-331.787 1001.56,-324.795 1008.69,-323.734 999.798,-331.787"/>
</a>
</g>
<text text-anchor="start" x="907" y="-417.653" font-family="Courier,monospace" font-size="9.00" fill="#000000">calls</text>
</g>
<!-- modules_diagram_support::module_property/2 -->
<g id="node11" class="node">
<title>modules_diagram_support::module_property/2</title>
<g id="a_node11"><a xlink:href="http://logtalk.org/library/modules_diagram_support_0.html#module_property/2" xlink:title="http://logtalk.org/library/modules_diagram_support_0.html#module_property/2">
<ellipse fill="#d3d3d3" stroke="#000000" stroke-dasharray="5,2" cx="846" cy="-68.2132" rx="216.249" ry="21.4286"/>
<text text-anchor="start" x="701" y="-71.0132" font-family="Courier,monospace" font-size="9.00" fill="#000000"> </text>
<text text-anchor="start" x="707" y="-70.4132" font-family="Courier,monospace" font-size="11.00" fill="#000000">modules_diagram_support::module_property/2</text>
<text text-anchor="start" x="985" y="-71.0132" font-family="Courier,monospace" font-size="9.00" fill="#000000"> </text>
<text text-anchor="start" x="701" y="-60.0132" font-family="Courier,monospace" font-size="9.00" fill="#000000"> </text>
<text text-anchor="start" x="829" y="-60.6132" font-family="Courier,monospace" font-size="7.00" fill="#000000">external</text>
<text text-anchor="start" x="985" y="-60.0132" font-family="Courier,monospace" font-size="9.00" fill="#000000"> </text>
</a>
</g>
</g>
<!-- depends_file/4&#45;&gt;modules_diagram_support::module_property/2 -->
<g id="edge8" class="edge">
<title>depends_file/4&#45;&gt;modules_diagram_support::module_property/2</title>
<g id="a_edge8"><a xlink:title="calls">
<path fill="none" stroke="#000000" d="M841.977,-524.427C938.786,-502.573 1111.55,-447.58 1187,-323.853 1256.79,-209.415 1057.05,-128.926 934.292,-91.6439"/>
<polygon fill="#000000" stroke="#000000" points="934.162,-91.6053 927.268,-93.7209 922.664,-88.1712 934.162,-91.6053"/>
</a>
</g>
<text text-anchor="start" x="1201" y="-300.44" font-family="Courier,monospace" font-size="9.00" fill="#000000">calls</text>
</g>
<!-- depends_module/3&#45;&gt;modules_diagram_support::module_property/2 -->
<g id="edge9" class="edge">
<title>depends_module/3&#45;&gt;modules_diagram_support::module_property/2</title>
<g id="a_edge9"><a xlink:title="calls">
<path fill="none" stroke="#000000" d="M779.607,-281.422C792.387,-240.381 820.572,-149.872 835.784,-101.019"/>
<polygon fill="#000000" stroke="#000000" points="835.787,-101.009 833.752,-94.0908 839.355,-89.5514 835.787,-101.009"/>
</a>
</g>
<text text-anchor="start" x="811" y="-183.226" font-family="Courier,monospace" font-size="9.00" fill="#000000">calls</text>
</g>
<!-- entity_basename_directory/4&#45;&gt;modules_diagram_support::module_property/2 -->
<g id="edge10" class="edge">
<title>entity_basename_directory/4&#45;&gt;modules_diagram_support::module_property/2</title>
<g id="a_edge10"><a xlink:title="calls">
<path fill="none" stroke="#000000" d="M1015.17,-281.422C982.188,-239.859 908.958,-147.563 870.567,-99.1761"/>
<polygon fill="#000000" stroke="#000000" points="870.389,-98.9519 863.526,-96.7379 862.93,-89.5514 870.389,-98.9519"/>
</a>
</g>
<text text-anchor="start" x="942" y="-183.226" font-family="Courier,monospace" font-size="9.00" fill="#000000">calls</text>
</g>
<!-- default_option/1 -->
<g id="node8" class="node">
<title>default_option/1</title>
<ellipse fill="#f5f5dc" stroke="#000000" cx="755" cy="-771.492" rx="94.5053" ry="21.4286"/>
<text text-anchor="start" x="696" y="-774.292" font-family="Courier,monospace" font-size="9.00" fill="#000000"> </text>
<text text-anchor="start" x="702" y="-773.692" font-family="Courier,monospace" font-size="11.00" fill="#000000">default_option/1</text>
<text text-anchor="start" x="808" y="-774.292" font-family="Courier,monospace" font-size="9.00" fill="#000000"> </text>
<text text-anchor="start" x="696" y="-763.292" font-family="Courier,monospace" font-size="9.00" fill="#000000"> </text>
<text text-anchor="start" x="744" y="-763.892" font-family="Courier,monospace" font-size="7.00" fill="#000000">local</text>
<text text-anchor="start" x="808" y="-763.292" font-family="Courier,monospace" font-size="9.00" fill="#000000"> </text>
</g>
<!-- diagram_name_suffix/1 -->
<g id="node9" class="node">
<title>diagram_name_suffix/1</title>
<ellipse fill="#f5f5dc" stroke="#000000" cx="214" cy="-771.492" rx="118.174" ry="21.4286"/>
<text text-anchor="start" x="139" y="-774.292" font-family="Courier,monospace" font-size="9.00" fill="#000000"> </text>
<text text-anchor="start" x="145" y="-773.692" font-family="Courier,monospace" font-size="11.00" fill="#000000">diagram_name_suffix/1</text>
<text text-anchor="start" x="284" y="-774.292" font-family="Courier,monospace" font-size="9.00" fill="#000000"> </text>
<text text-anchor="start" x="139" y="-763.292" font-family="Courier,monospace" font-size="9.00" fill="#000000"> </text>
<text text-anchor="start" x="203.5" y="-763.892" font-family="Courier,monospace" font-size="7.00" fill="#000000">local</text>
<text text-anchor="start" x="284" y="-763.292" font-family="Courier,monospace" font-size="9.00" fill="#000000"> </text>
</g>
</g>
</svg>
