<?xml version="1.0" encoding="UTF-8" standalone="no"?>
<!DOCTYPE svg PUBLIC "-//W3C//DTD SVG 1.1//EN"
 "http://www.w3.org/Graphics/SVG/1.1/DTD/svg11.dtd">
<!-- Generated by graphviz version 2.39.20161028.1504 (20161028.1504)
 -->
<!-- Title: file_diagram_1_category Pages: 1 -->
<svg width="2873pt" height="513pt"
 viewBox="72.00 72.00 2801.00 440.85" xmlns="http://www.w3.org/2000/svg" xmlns:xlink="http://www.w3.org/1999/xlink">
<g id="graph0" class="graph" transform="scale(1 1) rotate(0) translate(76 436.853)">
<title>file_diagram_1_category</title>
<polygon fill="#ffffff" stroke="transparent" points="-4,4 -4,-364.853 2725,-364.853 2725,4 -4,4"/>
<text text-anchor="start" x="8" y="-7" font-family="Courier,monospace" font-size="10.00" fill="#8b8989">Generated on 2016/11/04, 00:44</text>
<g id="clust1" class="cluster">
<title>cluster_file_diagram_1_category</title>
<g id="a_clust1"><a xlink:href="https://github.com/LogtalkDotOrg/logtalk3/tree/master/tools/diagrams/file_diagram.lgt" xlink:title="https://github.com/LogtalkDotOrg/logtalk3/tree/master/tools/diagrams/file_diagram.lgt">
<path fill="#fffafa" stroke="#8b8989" d="M20,-27C20,-27 2701,-27 2701,-27 2707,-27 2713,-33 2713,-39 2713,-39 2713,-340.853 2713,-340.853 2713,-346.853 2707,-352.853 2701,-352.853 2701,-352.853 20,-352.853 20,-352.853 14,-352.853 8,-346.853 8,-340.853 8,-340.853 8,-39 8,-39 8,-33 14,-27 20,-27"/>
<text text-anchor="middle" x="76.5" y="-340.853" font-family="Courier,monospace" font-size="10.00" fill="#8b8989">file_diagram(Format)</text>
</a>
</g>
</g>
<g id="clust2" class="cluster">
<title>cluster_other</title>
<g id="a_clust2"><a xlink:title="(external predicates)">
<path fill="#ffffff" stroke="#8b8989" d="M30,-37C30,-37 1898,-37 1898,-37 1904,-37 1910,-43 1910,-49 1910,-49 1910,-106.426 1910,-106.426 1910,-112.426 1904,-118.426 1898,-118.426 1898,-118.426 30,-118.426 30,-118.426 24,-118.426 18,-112.426 18,-106.426 18,-106.426 18,-49 18,-49 18,-43 24,-37 30,-37"/>
<text text-anchor="middle" x="89.5" y="-106.426" font-family="Courier,monospace" font-size="10.00" fill="#8b8989">(external predicates)</text>
</a>
</g>
</g>
<!-- remember_included_file/1 -->
<g id="node1" class="node">
<title>remember_included_file/1</title>
<g id="a_node1"><a xlink:href="http://logtalk.org/library/file_diagram_1.html#remember_included_file/1" xlink:title="http://logtalk.org/library/file_diagram_1.html#remember_included_file/1">
<ellipse fill="#ffff00" stroke="#000000" cx="1686" cy="-302.64" rx="132.458" ry="21.4286"/>
<text text-anchor="start" x="1601" y="-305.44" font-family="Courier,monospace" font-size="9.00" fill="#000000"> </text>
<text text-anchor="start" x="1607" y="-304.84" font-family="Courier,monospace" font-size="11.00" fill="#000000">remember_included_file/1</text>
<text text-anchor="start" x="1766" y="-305.44" font-family="Courier,monospace" font-size="9.00" fill="#000000"> </text>
<text text-anchor="start" x="1601" y="-294.44" font-family="Courier,monospace" font-size="9.00" fill="#000000"> </text>
<text text-anchor="start" x="1667.5" y="-295.04" font-family="Courier,monospace" font-size="7.00" fill="#000000">protected</text>
<text text-anchor="start" x="1766" y="-294.44" font-family="Courier,monospace" font-size="9.00" fill="#000000"> </text>
</a>
</g>
</g>
<!-- included_file_/1 -->
<g id="node4" class="node">
<title>included_file_/1</title>
<g id="a_node4"><a xlink:href="http://logtalk.org/library/file_diagram_1.html#included_file_/1" xlink:title="http://logtalk.org/library/file_diagram_1.html#included_file_/1">
<ellipse fill="#ff6a6a" stroke="#000000" cx="2015" cy="-68.2132" rx="94.5053" ry="21.4286"/>
<text text-anchor="start" x="1956" y="-71.0132" font-family="Courier,monospace" font-size="9.00" fill="#000000"> </text>
<text text-anchor="start" x="1962" y="-70.4132" font-family="Courier,monospace" font-size="11.00" fill="#000000">included_file_/1</text>
<text text-anchor="start" x="2068" y="-71.0132" font-family="Courier,monospace" font-size="9.00" fill="#000000"> </text>
<text text-anchor="start" x="1956" y="-60.0132" font-family="Courier,monospace" font-size="9.00" fill="#000000"> </text>
<text text-anchor="start" x="1981" y="-60.6132" font-family="Courier,monospace" font-size="7.00" fill="#000000">private, dynamic</text>
<text text-anchor="start" x="2068" y="-60.0132" font-family="Courier,monospace" font-size="9.00" fill="#000000"> </text>
</a>
</g>
</g>
<!-- remember_included_file/1&#45;&gt;included_file_/1 -->
<g id="edge1" class="edge">
<title>remember_included_file/1&#45;&gt;included_file_/1</title>
<g id="a_edge1"><a xlink:title="calls in self">
<path fill="none" stroke="#000000" d="M1715.2,-281.836C1774.61,-239.502 1909.57,-143.335 1976.25,-95.8269"/>
<polygon fill="none" stroke="#000000" points="1976.57,-95.5993 1979.13,-88.8598 1986.34,-88.6356 1976.57,-95.5993"/>
</a>
</g>
<text text-anchor="start" x="1857" y="-183.226" font-family="Courier,monospace" font-size="9.00" fill="#000000">calls in self</text>
</g>
<!-- ::included_file_/1 -->
<g id="node12" class="node">
<title>::included_file_/1</title>
<ellipse fill="#d3d3d3" stroke="#000000" stroke-dasharray="5,2" cx="1166" cy="-68.2132" rx="103.889" ry="21.4286"/>
<text text-anchor="start" x="1101" y="-71.0132" font-family="Courier,monospace" font-size="9.00" fill="#000000"> </text>
<text text-anchor="start" x="1107" y="-70.4132" font-family="Courier,monospace" font-size="11.00" fill="#000000">::included_file_/1</text>
<text text-anchor="start" x="1226" y="-71.0132" font-family="Courier,monospace" font-size="9.00" fill="#000000"> </text>
<text text-anchor="start" x="1101" y="-60.0132" font-family="Courier,monospace" font-size="9.00" fill="#000000"> </text>
<text text-anchor="start" x="1149.5" y="-60.6132" font-family="Courier,monospace" font-size="7.00" fill="#000000">external</text>
<text text-anchor="start" x="1226" y="-60.0132" font-family="Courier,monospace" font-size="9.00" fill="#000000"> </text>
</g>
<!-- remember_included_file/1&#45;&gt;::included_file_/1 -->
<g id="edge7" class="edge">
<title>remember_included_file/1&#45;&gt;::included_file_/1</title>
<g id="a_edge7"><a xlink:title="updates in self">
<path fill="none" stroke="#000000" d="M1687.52,-281.018C1688.18,-253.458 1684.76,-206.296 1657,-180.426 1532.46,-64.3567 1442.12,-167.168 1279,-118.426 1255,-111.255 1229.41,-100.19 1208.65,-90.2707"/>
<polygon fill="#000000" stroke="#000000" points="1202.76,-92.98 1207.1,-83.9724 1208.9,-84.8411 1204.56,-93.8487 1202.76,-92.98"/>
<polyline fill="none" stroke="#000000" points="1204.03,-88.0419 1208.53,-90.2136 "/>
</a>
</g>
<text text-anchor="start" x="1665" y="-183.226" font-family="Courier,monospace" font-size="9.00" fill="#000000">updates in self</text>
</g>
<!-- remember_referenced_logtalk_file/1 -->
<g id="node2" class="node">
<title>remember_referenced_logtalk_file/1</title>
<g id="a_node2"><a xlink:href="http://logtalk.org/library/file_diagram_1.html#remember_referenced_logtalk_file/1" xlink:title="http://logtalk.org/library/file_diagram_1.html#remember_referenced_logtalk_file/1">
<ellipse fill="#ffff00" stroke="#000000" cx="2074" cy="-302.64" rx="178.796" ry="21.4286"/>
<text text-anchor="start" x="1956" y="-305.44" font-family="Courier,monospace" font-size="9.00" fill="#000000"> </text>
<text text-anchor="start" x="1962" y="-304.84" font-family="Courier,monospace" font-size="11.00" fill="#000000">remember_referenced_logtalk_file/1</text>
<text text-anchor="start" x="2187" y="-305.44" font-family="Courier,monospace" font-size="9.00" fill="#000000"> </text>
<text text-anchor="start" x="1956" y="-294.44" font-family="Courier,monospace" font-size="9.00" fill="#000000"> </text>
<text text-anchor="start" x="2055.5" y="-295.04" font-family="Courier,monospace" font-size="7.00" fill="#000000">protected</text>
<text text-anchor="start" x="2187" y="-294.44" font-family="Courier,monospace" font-size="9.00" fill="#000000"> </text>
</a>
</g>
</g>
<!-- referenced_logtalk_file_/1 -->
<g id="node5" class="node">
<title>referenced_logtalk_file_/1</title>
<g id="a_node5"><a xlink:href="http://logtalk.org/library/file_diagram_1.html#referenced_logtalk_file_/1" xlink:title="http://logtalk.org/library/file_diagram_1.html#referenced_logtalk_file_/1">
<ellipse fill="#ff6a6a" stroke="#000000" cx="2269" cy="-68.2132" rx="141.343" ry="21.4286"/>
<text text-anchor="start" x="2177" y="-71.0132" font-family="Courier,monospace" font-size="9.00" fill="#000000"> </text>
<text text-anchor="start" x="2183" y="-70.4132" font-family="Courier,monospace" font-size="11.00" fill="#000000">referenced_logtalk_file_/1</text>
<text text-anchor="start" x="2355" y="-71.0132" font-family="Courier,monospace" font-size="9.00" fill="#000000"> </text>
<text text-anchor="start" x="2177" y="-60.0132" font-family="Courier,monospace" font-size="9.00" fill="#000000"> </text>
<text text-anchor="start" x="2235" y="-60.6132" font-family="Courier,monospace" font-size="7.00" fill="#000000">private, dynamic</text>
<text text-anchor="start" x="2355" y="-60.0132" font-family="Courier,monospace" font-size="9.00" fill="#000000"> </text>
</a>
</g>
</g>
<!-- remember_referenced_logtalk_file/1&#45;&gt;referenced_logtalk_file_/1 -->
<g id="edge2" class="edge">
<title>remember_referenced_logtalk_file/1&#45;&gt;referenced_logtalk_file_/1</title>
<g id="a_edge2"><a xlink:title="calls in self">
<path fill="none" stroke="#000000" d="M2091.65,-281.422C2126.29,-239.772 2203.32,-147.176 2243.5,-98.873"/>
<polygon fill="none" stroke="#000000" points="2243.58,-98.777 2244.34,-91.6062 2251.25,-89.5514 2243.58,-98.777"/>
</a>
</g>
<text text-anchor="start" x="2175" y="-183.226" font-family="Courier,monospace" font-size="9.00" fill="#000000">calls in self</text>
</g>
<!-- ::referenced_logtalk_file_/1 -->
<g id="node13" class="node">
<title>::referenced_logtalk_file_/1</title>
<ellipse fill="#d3d3d3" stroke="#000000" stroke-dasharray="5,2" cx="1439" cy="-68.2132" rx="150.728" ry="21.4286"/>
<text text-anchor="start" x="1341" y="-71.0132" font-family="Courier,monospace" font-size="9.00" fill="#000000"> </text>
<text text-anchor="start" x="1347" y="-70.4132" font-family="Courier,monospace" font-size="11.00" fill="#000000">::referenced_logtalk_file_/1</text>
<text text-anchor="start" x="1532" y="-71.0132" font-family="Courier,monospace" font-size="9.00" fill="#000000"> </text>
<text text-anchor="start" x="1341" y="-60.0132" font-family="Courier,monospace" font-size="9.00" fill="#000000"> </text>
<text text-anchor="start" x="1422.5" y="-60.6132" font-family="Courier,monospace" font-size="7.00" fill="#000000">external</text>
<text text-anchor="start" x="1532" y="-60.0132" font-family="Courier,monospace" font-size="9.00" fill="#000000"> </text>
</g>
<!-- remember_referenced_logtalk_file/1&#45;&gt;::referenced_logtalk_file_/1 -->
<g id="edge8" class="edge">
<title>remember_referenced_logtalk_file/1&#45;&gt;::referenced_logtalk_file_/1</title>
<g id="a_edge8"><a xlink:title="updates in self">
<path fill="none" stroke="#000000" d="M2055.76,-281.072C2030.83,-253.119 1983.32,-205.05 1932,-180.426 1796.27,-115.303 1745.08,-154.809 1599,-118.426 1566.29,-110.279 1530.43,-99.2277 1500.97,-89.5671"/>
<polygon fill="#000000" stroke="#000000" points="1495.31,-92.9672 1498.43,-83.4688 1500.33,-84.0944 1497.21,-93.5927 1495.31,-92.9672"/>
<polyline fill="none" stroke="#000000" points="1495.92,-87.9053 1500.67,-89.4691 "/>
</a>
</g>
<text text-anchor="start" x="1950" y="-183.226" font-family="Courier,monospace" font-size="9.00" fill="#000000">updates in self</text>
</g>
<!-- remember_referenced_prolog_file/1 -->
<g id="node3" class="node">
<title>remember_referenced_prolog_file/1</title>
<g id="a_node3"><a xlink:href="http://logtalk.org/library/file_diagram_1.html#remember_referenced_prolog_file/1" xlink:title="http://logtalk.org/library/file_diagram_1.html#remember_referenced_prolog_file/1">
<ellipse fill="#ffff00" stroke="#000000" cx="2475" cy="-302.64" rx="173.897" ry="21.4286"/>
<text text-anchor="start" x="2360" y="-305.44" font-family="Courier,monospace" font-size="9.00" fill="#000000"> </text>
<text text-anchor="start" x="2366" y="-304.84" font-family="Courier,monospace" font-size="11.00" fill="#000000">remember_referenced_prolog_file/1</text>
<text text-anchor="start" x="2584" y="-305.44" font-family="Courier,monospace" font-size="9.00" fill="#000000"> </text>
<text text-anchor="start" x="2360" y="-294.44" font-family="Courier,monospace" font-size="9.00" fill="#000000"> </text>
<text text-anchor="start" x="2456" y="-295.04" font-family="Courier,monospace" font-size="7.00" fill="#000000">protected</text>
<text text-anchor="start" x="2584" y="-294.44" font-family="Courier,monospace" font-size="9.00" fill="#000000"> </text>
</a>
</g>
</g>
<!-- referenced_prolog_file_/1 -->
<g id="node6" class="node">
<title>referenced_prolog_file_/1</title>
<g id="a_node6"><a xlink:href="http://logtalk.org/library/file_diagram_1.html#referenced_prolog_file_/1" xlink:title="http://logtalk.org/library/file_diagram_1.html#referenced_prolog_file_/1">
<ellipse fill="#ff6a6a" stroke="#000000" cx="2566" cy="-68.2132" rx="137.358" ry="21.4286"/>
<text text-anchor="start" x="2477" y="-71.0132" font-family="Courier,monospace" font-size="9.00" fill="#000000"> </text>
<text text-anchor="start" x="2483" y="-70.4132" font-family="Courier,monospace" font-size="11.00" fill="#000000">referenced_prolog_file_/1</text>
<text text-anchor="start" x="2649" y="-71.0132" font-family="Courier,monospace" font-size="9.00" fill="#000000"> </text>
<text text-anchor="start" x="2477" y="-60.0132" font-family="Courier,monospace" font-size="9.00" fill="#000000"> </text>
<text text-anchor="start" x="2532" y="-60.6132" font-family="Courier,monospace" font-size="7.00" fill="#000000">private, dynamic</text>
<text text-anchor="start" x="2649" y="-60.0132" font-family="Courier,monospace" font-size="9.00" fill="#000000"> </text>
</a>
</g>
</g>
<!-- remember_referenced_prolog_file/1&#45;&gt;referenced_prolog_file_/1 -->
<g id="edge3" class="edge">
<title>remember_referenced_prolog_file/1&#45;&gt;referenced_prolog_file_/1</title>
<g id="a_edge3"><a xlink:title="calls in self">
<path fill="none" stroke="#000000" d="M2483.24,-281.422C2499.17,-240.381 2534.3,-149.872 2553.27,-101.019"/>
<polygon fill="none" stroke="#000000" points="2553.37,-100.738 2551.82,-93.6973 2557.72,-89.5514 2553.37,-100.738"/>
</a>
</g>
<text text-anchor="start" x="2522" y="-183.226" font-family="Courier,monospace" font-size="9.00" fill="#000000">calls in self</text>
</g>
<!-- ::referenced_prolog_file_/1 -->
<g id="node14" class="node">
<title>::referenced_prolog_file_/1</title>
<ellipse fill="#d3d3d3" stroke="#000000" stroke-dasharray="5,2" cx="1754" cy="-68.2132" rx="146.242" ry="21.4286"/>
<text text-anchor="start" x="1659" y="-71.0132" font-family="Courier,monospace" font-size="9.00" fill="#000000"> </text>
<text text-anchor="start" x="1665" y="-70.4132" font-family="Courier,monospace" font-size="11.00" fill="#000000">::referenced_prolog_file_/1</text>
<text text-anchor="start" x="1844" y="-71.0132" font-family="Courier,monospace" font-size="9.00" fill="#000000"> </text>
<text text-anchor="start" x="1659" y="-60.0132" font-family="Courier,monospace" font-size="9.00" fill="#000000"> </text>
<text text-anchor="start" x="1737.5" y="-60.6132" font-family="Courier,monospace" font-size="7.00" fill="#000000">external</text>
<text text-anchor="start" x="1844" y="-60.0132" font-family="Courier,monospace" font-size="9.00" fill="#000000"> </text>
</g>
<!-- remember_referenced_prolog_file/1&#45;&gt;::referenced_prolog_file_/1 -->
<g id="edge9" class="edge">
<title>remember_referenced_prolog_file/1&#45;&gt;::referenced_prolog_file_/1</title>
<g id="a_edge9"><a xlink:title="updates in self">
<path fill="none" stroke="#000000" d="M2444.08,-281.648C2402.04,-254.108 2323.62,-206.255 2250,-180.426 2102.58,-128.703 2055.36,-157.103 1904,-118.426 1873.06,-110.521 1839.28,-99.4385 1811.63,-89.6954"/>
<polygon fill="#000000" stroke="#000000" points="1806.17,-93.0659 1809.5,-83.639 1811.39,-84.3064 1808.05,-93.7333 1806.17,-93.0659"/>
<polyline fill="none" stroke="#000000" points="1806.89,-88.0188 1811.61,-89.6873 "/>
</a>
</g>
<text text-anchor="start" x="2275" y="-183.226" font-family="Courier,monospace" font-size="9.00" fill="#000000">updates in self</text>
</g>
<!-- reset/0 -->
<g id="node7" class="node">
<title>reset/0</title>
<ellipse fill="#f5f5dc" stroke="#000000" cx="1439" cy="-302.64" rx="53.066" ry="21.4286"/>
<text text-anchor="start" x="1410" y="-305.44" font-family="Courier,monospace" font-size="9.00" fill="#000000"> </text>
<text text-anchor="start" x="1416" y="-304.84" font-family="Courier,monospace" font-size="11.00" fill="#000000">reset/0</text>
<text text-anchor="start" x="1463" y="-305.44" font-family="Courier,monospace" font-size="9.00" fill="#000000"> </text>
<text text-anchor="start" x="1410" y="-294.44" font-family="Courier,monospace" font-size="9.00" fill="#000000"> </text>
<text text-anchor="start" x="1428.5" y="-295.04" font-family="Courier,monospace" font-size="7.00" fill="#000000">local</text>
<text text-anchor="start" x="1463" y="-294.44" font-family="Courier,monospace" font-size="9.00" fill="#000000"> </text>
</g>
<!-- reset/0&#45;&gt;::included_file_/1 -->
<g id="edge10" class="edge">
<title>reset/0&#45;&gt;::included_file_/1</title>
<g id="a_edge10"><a xlink:title="updates in self">
<path fill="none" stroke="#000000" d="M1416.19,-283.056C1366.49,-240.371 1248.49,-139.05 1194.21,-92.4389"/>
<polygon fill="#000000" stroke="#000000" points="1187.6,-93.3542 1194.12,-85.7674 1195.63,-87.0704 1189.12,-94.6572 1187.6,-93.3542"/>
<polyline fill="none" stroke="#000000" points="1190.1,-88.9093 1193.89,-92.1667 "/>
</a>
</g>
<text text-anchor="start" x="1308" y="-183.226" font-family="Courier,monospace" font-size="9.00" fill="#000000">updates in self</text>
</g>
<!-- reset/0&#45;&gt;::referenced_logtalk_file_/1 -->
<g id="edge11" class="edge">
<title>reset/0&#45;&gt;::referenced_logtalk_file_/1</title>
<g id="a_edge11"><a xlink:title="updates in self">
<path fill="none" stroke="#000000" d="M1439,-281.422C1439,-238.555 1439,-141.72 1439,-94.7535"/>
<polygon fill="#000000" stroke="#000000" points="1434,-90.5515 1444,-90.5513 1444,-92.5513 1434,-92.5515 1434,-90.5515"/>
<polyline fill="none" stroke="#000000" points="1439,-89.5514 1439,-94.5514 "/>
</a>
</g>
<text text-anchor="start" x="1439" y="-183.226" font-family="Courier,monospace" font-size="9.00" fill="#000000">updates in self</text>
</g>
<!-- reset/0&#45;&gt;::referenced_prolog_file_/1 -->
<g id="edge12" class="edge">
<title>reset/0&#45;&gt;::referenced_prolog_file_/1</title>
<g id="a_edge12"><a xlink:title="updates in self">
<path fill="none" stroke="#000000" d="M1458.79,-282.855C1484.46,-257.676 1531.15,-213.486 1575,-180.426 1620.03,-146.478 1675.54,-112.832 1712.69,-91.3701"/>
<polygon fill="#000000" stroke="#000000" points="1713.77,-84.9802 1718.76,-93.646 1717.03,-94.6441 1712.04,-85.9784 1713.77,-84.9802"/>
<polyline fill="none" stroke="#000000" points="1717.13,-88.814 1712.8,-91.3093 "/>
</a>
</g>
<text text-anchor="start" x="1575" y="-183.226" font-family="Courier,monospace" font-size="9.00" fill="#000000">updates in self</text>
</g>
<!-- output_externals/1 -->
<g id="node8" class="node">
<title>output_externals/1</title>
<ellipse fill="#f5f5dc" stroke="#000000" cx="849" cy="-302.64" rx="103.889" ry="21.4286"/>
<text text-anchor="start" x="784" y="-305.44" font-family="Courier,monospace" font-size="9.00" fill="#000000"> </text>
<text text-anchor="start" x="790" y="-304.84" font-family="Courier,monospace" font-size="11.00" fill="#000000">output_externals/1</text>
<text text-anchor="start" x="909" y="-305.44" font-family="Courier,monospace" font-size="9.00" fill="#000000"> </text>
<text text-anchor="start" x="784" y="-294.44" font-family="Courier,monospace" font-size="9.00" fill="#000000"> </text>
<text text-anchor="start" x="838.5" y="-295.04" font-family="Courier,monospace" font-size="7.00" fill="#000000">local</text>
<text text-anchor="start" x="909" y="-294.44" font-family="Courier,monospace" font-size="9.00" fill="#000000"> </text>
</g>
<!-- logtalk::loaded_file_property/2 -->
<g id="node9" class="node">
<title>logtalk::loaded_file_property/2</title>
<g id="a_node9"><a xlink:href="http://logtalk.org/library/logtalk_0.html#loaded_file_property/2" xlink:title="http://logtalk.org/library/logtalk_0.html#loaded_file_property/2">
<ellipse fill="#d3d3d3" stroke="#000000" stroke-dasharray="5,2" cx="193" cy="-68.2132" rx="164.512" ry="21.4286"/>
<text text-anchor="start" x="85" y="-71.0132" font-family="Courier,monospace" font-size="9.00" fill="#000000"> </text>
<text text-anchor="start" x="91" y="-70.4132" font-family="Courier,monospace" font-size="11.00" fill="#000000">logtalk::loaded_file_property/2</text>
<text text-anchor="start" x="296" y="-71.0132" font-family="Courier,monospace" font-size="9.00" fill="#000000"> </text>
<text text-anchor="start" x="85" y="-60.0132" font-family="Courier,monospace" font-size="9.00" fill="#000000"> </text>
<text text-anchor="start" x="176.5" y="-60.6132" font-family="Courier,monospace" font-size="7.00" fill="#000000">external</text>
<text text-anchor="start" x="296" y="-60.0132" font-family="Courier,monospace" font-size="9.00" fill="#000000"> </text>
</a>
</g>
</g>
<!-- output_externals/1&#45;&gt;logtalk::loaded_file_property/2 -->
<g id="edge4" class="edge">
<title>output_externals/1&#45;&gt;logtalk::loaded_file_property/2</title>
<g id="a_edge4"><a xlink:title="calls">
<path fill="none" stroke="#000000" d="M797.251,-284.147C679.632,-242.115 392.25,-139.417 260.724,-92.4147"/>
<polygon fill="#000000" stroke="#000000" points="260.55,-92.3526 253.554,-94.1002 249.25,-88.3144 260.55,-92.3526"/>
</a>
</g>
<text text-anchor="start" x="534" y="-183.226" font-family="Courier,monospace" font-size="9.00" fill="#000000">calls</text>
</g>
<!-- list::member/2 -->
<g id="node10" class="node">
<title>list::member/2</title>
<g id="a_node10"><a xlink:href="http://logtalk.org/library/list_0.html#member/2" xlink:title="http://logtalk.org/library/list_0.html#member/2">
<ellipse fill="#d3d3d3" stroke="#000000" stroke-dasharray="5,2" cx="461" cy="-68.2132" rx="85.6199" ry="21.4286"/>
<text text-anchor="start" x="409" y="-71.0132" font-family="Courier,monospace" font-size="9.00" fill="#000000"> </text>
<text text-anchor="start" x="415" y="-70.4132" font-family="Courier,monospace" font-size="11.00" fill="#000000">list::member/2</text>
<text text-anchor="start" x="508" y="-71.0132" font-family="Courier,monospace" font-size="9.00" fill="#000000"> </text>
<text text-anchor="start" x="409" y="-60.0132" font-family="Courier,monospace" font-size="9.00" fill="#000000"> </text>
<text text-anchor="start" x="444.5" y="-60.6132" font-family="Courier,monospace" font-size="7.00" fill="#000000">external</text>
<text text-anchor="start" x="508" y="-60.0132" font-family="Courier,monospace" font-size="9.00" fill="#000000"> </text>
</a>
</g>
</g>
<!-- output_externals/1&#45;&gt;list::member/2 -->
<g id="edge5" class="edge">
<title>output_externals/1&#45;&gt;list::member/2</title>
<g id="a_edge5"><a xlink:title="calls">
<path fill="none" stroke="#000000" d="M815.584,-282.45C745.272,-239.968 582.111,-141.387 504.078,-94.2403"/>
<polygon fill="#000000" stroke="#000000" points="503.921,-94.1458 496.717,-94.4666 493.65,-87.9402 503.921,-94.1458"/>
</a>
</g>
<text text-anchor="start" x="663" y="-183.226" font-family="Courier,monospace" font-size="9.00" fill="#000000">calls</text>
</g>
<!-- modules_diagram_support::loaded_file_property/2 -->
<g id="node11" class="node">
<title>modules_diagram_support::loaded_file_property/2</title>
<g id="a_node11"><a xlink:href="http://logtalk.org/library/modules_diagram_support_0.html#loaded_file_property/2" xlink:title="http://logtalk.org/library/modules_diagram_support_0.html#loaded_file_property/2">
<ellipse fill="#d3d3d3" stroke="#000000" stroke-dasharray="5,2" cx="804" cy="-68.2132" rx="239.919" ry="21.4286"/>
<text text-anchor="start" x="643" y="-71.0132" font-family="Courier,monospace" font-size="9.00" fill="#000000"> </text>
<text text-anchor="start" x="649" y="-70.4132" font-family="Courier,monospace" font-size="11.00" fill="#000000">modules_diagram_support::loaded_file_property/2</text>
<text text-anchor="start" x="960" y="-71.0132" font-family="Courier,monospace" font-size="9.00" fill="#000000"> </text>
<text text-anchor="start" x="643" y="-60.0132" font-family="Courier,monospace" font-size="9.00" fill="#000000"> </text>
<text text-anchor="start" x="787.5" y="-60.6132" font-family="Courier,monospace" font-size="7.00" fill="#000000">external</text>
<text text-anchor="start" x="960" y="-60.0132" font-family="Courier,monospace" font-size="9.00" fill="#000000"> </text>
</a>
</g>
</g>
<!-- output_externals/1&#45;&gt;modules_diagram_support::loaded_file_property/2 -->
<g id="edge6" class="edge">
<title>output_externals/1&#45;&gt;modules_diagram_support::loaded_file_property/2</title>
<g id="a_edge6"><a xlink:title="calls">
<path fill="none" stroke="#000000" d="M844.927,-281.422C837.082,-240.555 819.822,-150.638 810.417,-101.642"/>
<polygon fill="#000000" stroke="#000000" points="810.358,-101.336 805.299,-96.1979 808.096,-89.5514 810.358,-101.336"/>
</a>
</g>
<text text-anchor="start" x="827" y="-183.226" font-family="Courier,monospace" font-size="9.00" fill="#000000">calls</text>
</g>
<!-- output_externals/1&#45;&gt;::included_file_/1 -->
<g id="edge13" class="edge">
<title>output_externals/1&#45;&gt;::included_file_/1</title>
<g id="a_edge13"><a xlink:title="updates in self">
<path fill="none" stroke="#000000" d="M866.578,-281.426C888.704,-255.556 928.711,-211.448 969,-180.426 1016.9,-143.547 1078.23,-110.531 1119.63,-90.0156"/>
<polygon fill="#000000" stroke="#000000" points="1121.22,-83.6575 1125.65,-92.6266 1123.85,-93.5111 1119.43,-84.542 1121.22,-83.6575"/>
<polyline fill="none" stroke="#000000" points="1124.33,-87.6998 1119.85,-89.911 "/>
</a>
</g>
<text text-anchor="start" x="969" y="-183.226" font-family="Courier,monospace" font-size="9.00" fill="#000000">updates in self</text>
</g>
<!-- output_externals/1&#45;&gt;::referenced_logtalk_file_/1 -->
<g id="edge14" class="edge">
<title>output_externals/1&#45;&gt;::referenced_logtalk_file_/1</title>
<g id="a_edge14"><a xlink:title="updates in self">
<path fill="none" stroke="#000000" d="M885.97,-282.593C934.134,-256.938 1021.37,-212.041 1099,-180.426 1149.02,-160.054 1287.82,-115.628 1371.8,-89.1954"/>
<polygon fill="#000000" stroke="#000000" points="1374.3,-83.1679 1377.3,-92.7071 1375.4,-93.3073 1372.4,-83.7681 1374.3,-83.1679"/>
<polyline fill="none" stroke="#000000" points="1376.76,-87.6375 1371.99,-89.1378 "/>
</a>
</g>
<text text-anchor="start" x="1099" y="-183.226" font-family="Courier,monospace" font-size="9.00" fill="#000000">updates in self</text>
</g>
<!-- output_externals/1&#45;&gt;::referenced_prolog_file_/1 -->
<g id="edge15" class="edge">
<title>output_externals/1&#45;&gt;::referenced_prolog_file_/1</title>
<g id="a_edge15"><a xlink:title="updates in self">
<path fill="none" stroke="#000000" d="M903.089,-284.471C968.829,-262.363 1083.12,-223.845 1181,-190.426 1193.9,-186.021 1196.77,-183.734 1210,-180.426 1379.84,-137.952 1428.77,-159.305 1599,-118.426 1631.24,-110.684 1666.45,-99.5046 1695.16,-89.6585"/>
<polygon fill="#000000" stroke="#000000" points="1697.5,-83.563 1700.76,-93.0168 1698.87,-93.6688 1695.61,-84.215 1697.5,-83.563"/>
<polyline fill="none" stroke="#000000" points="1700.07,-87.964 1695.34,-89.5939 "/>
</a>
</g>
<text text-anchor="start" x="1210" y="-183.226" font-family="Courier,monospace" font-size="9.00" fill="#000000">updates in self</text>
</g>
</g>
</svg>
