<?xml version="1.0" encoding="UTF-8" standalone="no"?>
<!DOCTYPE svg PUBLIC "-//W3C//DTD SVG 1.1//EN"
 "http://www.w3.org/Graphics/SVG/1.1/DTD/svg11.dtd">
<!-- Generated by graphviz version 2.39.20161028.1504 (20161028.1504)
 -->
<!-- Title: graph_language_registry_object Pages: 1 -->
<svg width="388pt" height="268pt"
 viewBox="72.00 72.00 316.00 196.43" xmlns="http://www.w3.org/2000/svg" xmlns:xlink="http://www.w3.org/1999/xlink">
<g id="graph0" class="graph" transform="scale(1 1) rotate(0) translate(76 192.426)">
<title>graph_language_registry_object</title>
<polygon fill="#ffffff" stroke="transparent" points="-4,4 -4,-120.426 240,-120.426 240,4 -4,4"/>
<text text-anchor="start" x="8" y="-7" font-family="Courier,monospace" font-size="10.00" fill="#8b8989">Generated on 2016/11/04, 00:44</text>
<g id="clust1" class="cluster">
<title>cluster_graph_language_registry_object</title>
<g id="a_clust1"><a xlink:href="https://github.com/LogtalkDotOrg/logtalk3/tree/master/tools/diagrams/graph_language_registry.lgt" xlink:title="https://github.com/LogtalkDotOrg/logtalk3/tree/master/tools/diagrams/graph_language_registry.lgt">
<path fill="#fffafa" stroke="#8b8989" d="M20,-27C20,-27 216,-27 216,-27 222,-27 228,-33 228,-39 228,-39 228,-96.4264 228,-96.4264 228,-102.426 222,-108.426 216,-108.426 216,-108.426 20,-108.426 20,-108.426 14,-108.426 8,-102.426 8,-96.4264 8,-96.4264 8,-39 8,-39 8,-33 14,-27 20,-27"/>
<text text-anchor="middle" x="85.5" y="-96.4264" font-family="Courier,monospace" font-size="10.00" fill="#8b8989">graph_language_registry</text>
</a>
</g>
</g>
<!-- language_object/2 -->
<g id="node1" class="node">
<title>language_object/2</title>
<g id="a_node1"><a xlink:href="http://logtalk.org/library/graph_language_registry_0.html#language_object/2" xlink:title="http://logtalk.org/library/graph_language_registry_0.html#language_object/2">
<ellipse fill="#87ceeb" stroke="#000000" cx="118" cy="-58.2132" rx="99.9045" ry="21.4286"/>
<text text-anchor="start" x="56" y="-61.0132" font-family="Courier,monospace" font-size="9.00" fill="#000000"> </text>
<text text-anchor="start" x="62" y="-60.4132" font-family="Courier,monospace" font-size="11.00" fill="#000000">language_object/2</text>
<text text-anchor="start" x="175" y="-61.0132" font-family="Courier,monospace" font-size="9.00" fill="#000000"> </text>
<text text-anchor="start" x="56" y="-50.0132" font-family="Courier,monospace" font-size="9.00" fill="#000000"> </text>
<text text-anchor="start" x="82.5" y="-50.6132" font-family="Courier,monospace" font-size="7.00" fill="#000000">public, multifile</text>
<text text-anchor="start" x="175" y="-50.0132" font-family="Courier,monospace" font-size="9.00" fill="#000000"> </text>
</a>
</g>
</g>
</g>
</svg>
