<?xml version="1.0" encoding="UTF-8" standalone="no"?>
<!DOCTYPE svg PUBLIC "-//W3C//DTD SVG 1.1//EN"
 "http://www.w3.org/Graphics/SVG/1.1/DTD/svg11.dtd">
<!-- Generated by graphviz version 2.39.20161028.1504 (20161028.1504)
 -->
<!-- Title: help Pages: 1 -->
<svg width="392pt" height="685pt"
 viewBox="72.00 72.00 320.00 613.00" xmlns="http://www.w3.org/2000/svg" xmlns:xlink="http://www.w3.org/1999/xlink">
<g id="graph0" class="graph" transform="scale(1 1) rotate(0) translate(76 609)">
<title>help</title>
<polygon fill="#ffffff" stroke="transparent" points="-4,4 -4,-537 244,-537 244,4 -4,4"/>
<text text-anchor="start" x="8" y="-18" font-family="Courier,monospace" font-size="10.00" fill="#8b8989">help tool</text>
<text text-anchor="start" x="8" y="-7" font-family="Courier,monospace" font-size="10.00" fill="#8b8989">Generated on 2016/11/04, 00:44</text>
<g id="clust1" class="cluster">
<title>cluster_library_help</title>
<g id="a_clust1"><a xlink:href="https://github.com/LogtalkDotOrg/logtalk3/tree/master/tools/help/" xlink:title="https://github.com/LogtalkDotOrg/logtalk3/tree/master/tools/help/">
<path fill="#eee9e9" stroke="#8b8989" d="M20,-38C20,-38 220,-38 220,-38 226,-38 232,-44 232,-50 232,-50 232,-513 232,-513 232,-519 226,-525 220,-525 220,-525 20,-525 20,-525 14,-525 8,-519 8,-513 8,-513 8,-50 8,-50 8,-44 14,-38 20,-38"/>
<text text-anchor="middle" x="28.5" y="-45" font-family="Courier,monospace" font-size="10.00" fill="#8b8989">help</text>
</a>
</g>
</g>
<g id="clust3" class="cluster">
<title>cluster_file_/Users/pmoura/logtalk/tools/help/help.lgt</title>
<g id="a_clust3"><a xlink:href="https://github.com/LogtalkDotOrg/logtalk3/tree/master/tools/help/help.lgt" xlink:title="https://github.com/LogtalkDotOrg/logtalk3/tree/master/tools/help/help.lgt">
<path fill="#fffafa" stroke="#8b8989" d="M43,-67C43,-67 197,-67 197,-67 203,-67 209,-73 209,-79 209,-79 209,-275 209,-275 209,-281 203,-287 197,-287 197,-287 43,-287 43,-287 37,-287 31,-281 31,-275 31,-275 31,-79 31,-79 31,-73 37,-67 43,-67"/>
<text text-anchor="middle" x="63.5" y="-74" font-family="Courier,monospace" font-size="10.00" fill="#8b8989">help.lgt</text>
</a>
</g>
</g>
<g id="clust4" class="cluster">
<title>cluster_other</title>
<g id="a_clust4"><a xlink:title="(external entities)">
<path fill="#ffffff" stroke="#8b8989" d="M30,-440C30,-440 210,-440 210,-440 216,-440 222,-446 222,-452 222,-452 222,-503 222,-503 222,-509 216,-515 210,-515 210,-515 30,-515 30,-515 24,-515 18,-509 18,-503 18,-503 18,-452 18,-452 18,-446 24,-440 30,-440"/>
<text text-anchor="middle" x="83.5" y="-447" font-family="Courier,monospace" font-size="10.00" fill="#8b8989">(external entities)</text>
</a>
</g>
</g>
<!-- help -->
<g id="node1" class="node">
<title>help</title>
<g id="a_node1"><a xlink:href="http://logtalk.org/library/help_0.html" xlink:title="http://logtalk.org/library/help_0.html">
<polygon fill="#f5f5dc" stroke="#000000" points="199,-277 41,-277 41,-96 199,-96 199,-277"/>
</a>
</g>
<g id="a_node1_0"><a xlink:href="help_object_xref_diagram.svg" xlink:title="Zoom">
<image xlink:href="zoom.png" width="11px" height="11px" preserveAspectRatio="xMinYMin meet" x="49" y="-272.5"/>
</a>
</g>
<g><a xlink:href="http://logtalk.org/library/help_0.html" xlink:title="http://logtalk.org/library/help_0.html">
<text text-anchor="start" x="51.5" y="-253.3" font-family="Courier,monospace" font-size="9.00" fill="#000000"> </text>
<text text-anchor="start" x="109" y="-252.7" font-family="Courier,monospace" font-size="11.00" fill="#000000">help</text>
<text text-anchor="start" x="185" y="-253.3" font-family="Courier,monospace" font-size="9.00" fill="#000000"> </text>
<text text-anchor="start" x="51.5" y="-242.3" font-family="Courier,monospace" font-size="9.00" fill="#000000"> </text>
<text text-anchor="start" x="103.5" y="-242.9" font-family="Courier,monospace" font-size="7.00" fill="#000000">prototype</text>
<text text-anchor="start" x="185" y="-242.3" font-family="Courier,monospace" font-size="9.00" fill="#000000"> </text>
<text text-anchor="start" x="51.5" y="-232.3" font-family="Courier,monospace" font-size="9.00" fill="#000000"> </text>
<text text-anchor="start" x="51.5" y="-222.3" font-family="Courier,monospace" font-size="9.00" fill="#000000"> </text>
<text text-anchor="start" x="106" y="-222.3" font-family="Courier,monospace" font-size="9.00" fill="#000000">help/0</text>
<text text-anchor="start" x="185" y="-222.3" font-family="Courier,monospace" font-size="9.00" fill="#000000"> </text>
<text text-anchor="start" x="51.5" y="-212.3" font-family="Courier,monospace" font-size="9.00" fill="#000000"> </text>
<text text-anchor="start" x="108.5" y="-212.3" font-family="Courier,monospace" font-size="9.00" fill="#000000">(/)/2</text>
<text text-anchor="start" x="185" y="-212.3" font-family="Courier,monospace" font-size="9.00" fill="#000000"> </text>
<text text-anchor="start" x="51.5" y="-202.3" font-family="Courier,monospace" font-size="9.00" fill="#000000"> </text>
<text text-anchor="start" x="106" y="-202.3" font-family="Courier,monospace" font-size="9.00" fill="#000000">(//)/2</text>
<text text-anchor="start" x="185" y="-202.3" font-family="Courier,monospace" font-size="9.00" fill="#000000"> </text>
<text text-anchor="start" x="51.5" y="-192.3" font-family="Courier,monospace" font-size="9.00" fill="#000000"> </text>
<text text-anchor="start" x="90" y="-192.3" font-family="Courier,monospace" font-size="9.00" fill="#000000">completion/2</text>
<text text-anchor="start" x="185" y="-192.3" font-family="Courier,monospace" font-size="9.00" fill="#000000"> </text>
<text text-anchor="start" x="51.5" y="-182.3" font-family="Courier,monospace" font-size="9.00" fill="#000000"> </text>
<text text-anchor="start" x="87" y="-182.3" font-family="Courier,monospace" font-size="9.00" fill="#000000">completions/2</text>
<text text-anchor="start" x="185" y="-182.3" font-family="Courier,monospace" font-size="9.00" fill="#000000"> </text>
<text text-anchor="start" x="51.5" y="-172.3" font-family="Courier,monospace" font-size="9.00" fill="#000000"> </text>
<text text-anchor="start" x="68" y="-172.3" font-family="Courier,monospace" font-size="9.00" fill="#000000">built_in_directive/4</text>
<text text-anchor="start" x="185" y="-172.3" font-family="Courier,monospace" font-size="9.00" fill="#000000"> </text>
<text text-anchor="start" x="51.5" y="-162.3" font-family="Courier,monospace" font-size="9.00" fill="#000000"> </text>
<text text-anchor="start" x="68" y="-162.3" font-family="Courier,monospace" font-size="9.00" fill="#000000">built_in_predicate/4</text>
<text text-anchor="start" x="185" y="-162.3" font-family="Courier,monospace" font-size="9.00" fill="#000000"> </text>
<text text-anchor="start" x="51.5" y="-152.3" font-family="Courier,monospace" font-size="9.00" fill="#000000"> </text>
<text text-anchor="start" x="76.5" y="-152.3" font-family="Courier,monospace" font-size="9.00" fill="#000000">built_in_method/4</text>
<text text-anchor="start" x="185" y="-152.3" font-family="Courier,monospace" font-size="9.00" fill="#000000"> </text>
<text text-anchor="start" x="51.5" y="-142.3" font-family="Courier,monospace" font-size="9.00" fill="#000000"> </text>
<text text-anchor="start" x="98" y="-142.3" font-family="Courier,monospace" font-size="9.00" fill="#000000">control/4</text>
<text text-anchor="start" x="185" y="-142.3" font-family="Courier,monospace" font-size="9.00" fill="#000000"> </text>
<text text-anchor="start" x="51.5" y="-132.3" font-family="Courier,monospace" font-size="9.00" fill="#000000"> </text>
<text text-anchor="start" x="60" y="-132.3" font-family="Courier,monospace" font-size="9.00" fill="#000000">built_in_non_terminal/4</text>
<text text-anchor="start" x="185" y="-132.3" font-family="Courier,monospace" font-size="9.00" fill="#000000"> </text>
<text text-anchor="start" x="51.5" y="-122.3" font-family="Courier,monospace" font-size="9.00" fill="#000000"> </text>
<text text-anchor="start" x="98" y="-122.3" font-family="Courier,monospace" font-size="9.00" fill="#000000">library/0</text>
<text text-anchor="start" x="185" y="-122.3" font-family="Courier,monospace" font-size="9.00" fill="#000000"> </text>
<text text-anchor="start" x="51.5" y="-112.3" font-family="Courier,monospace" font-size="9.00" fill="#000000"> </text>
<text text-anchor="start" x="98" y="-112.3" font-family="Courier,monospace" font-size="9.00" fill="#000000">library/1</text>
<text text-anchor="start" x="185" y="-112.3" font-family="Courier,monospace" font-size="9.00" fill="#000000"> </text>
<text text-anchor="start" x="51.5" y="-102.3" font-family="Courier,monospace" font-size="9.00" fill="#000000"> </text>
<text text-anchor="start" x="98" y="-102.3" font-family="Courier,monospace" font-size="9.00" fill="#000000">manuals/0</text>
<text text-anchor="start" x="185" y="-102.3" font-family="Courier,monospace" font-size="9.00" fill="#000000"> </text>
</a>
</g>
</g>
<!-- forwarding -->
<g id="node2" class="node">
<title>forwarding</title>
<g id="a_node2"><a xlink:title="built&#45;in protocol">
<polygon fill="#7fffd4" stroke="#000000" stroke-dasharray="5,2" points="122,-505 28,-505 28,-469 128,-469 128,-499 122,-505"/>
<polyline fill="none" stroke="#000000" stroke-dasharray="5,2" points="122,-505 122,-499 "/>
<polyline fill="none" stroke="#000000" stroke-dasharray="5,2" points="128,-499 122,-499 "/>
<text text-anchor="start" x="36" y="-489.8" font-family="Courier,monospace" font-size="9.00" fill="#000000"> </text>
<text text-anchor="start" x="44.5" y="-489.2" font-family="Courier,monospace" font-size="11.00" fill="#000000">forwarding</text>
<text text-anchor="start" x="114" y="-489.8" font-family="Courier,monospace" font-size="9.00" fill="#000000"> </text>
<text text-anchor="start" x="36" y="-478.8" font-family="Courier,monospace" font-size="9.00" fill="#000000"> </text>
<text text-anchor="start" x="42" y="-479.4" font-family="Courier,monospace" font-size="7.00" fill="#000000">built&#45;in protocol</text>
<text text-anchor="start" x="114" y="-478.8" font-family="Courier,monospace" font-size="9.00" fill="#000000"> </text>
</a>
</g>
</g>
<!-- help&#45;&gt;forwarding -->
<g id="edge1" class="edge">
<title>help&#45;&gt;forwarding</title>
<g id="a_edge1"><a xlink:title="implements">
<path fill="none" stroke="#000000" d="M107.342,-277.067C98.5022,-340.311 87.3083,-420.402 81.6419,-460.943"/>
<ellipse fill="#000000" stroke="#000000" cx="81.0733" cy="-465.012" rx="4.00001" ry="4.00001"/>
</a>
</g>
<text text-anchor="start" x="94" y="-370.8" font-family="Courier,monospace" font-size="9.00" fill="#000000">implements</text>
</g>
<!-- os -->
<g id="node3" class="node">
<title>os</title>
<g id="a_node3"><a xlink:title="prototype">
<polygon fill="#f5f5dc" stroke="#000000" stroke-dasharray="5,2" points="212,-505 146,-505 146,-469 212,-469 212,-505"/>
<text text-anchor="start" x="154" y="-489.8" font-family="Courier,monospace" font-size="9.00" fill="#000000"> </text>
<text text-anchor="start" x="172" y="-489.2" font-family="Courier,monospace" font-size="11.00" fill="#000000">os</text>
<text text-anchor="start" x="198" y="-489.8" font-family="Courier,monospace" font-size="9.00" fill="#000000"> </text>
<text text-anchor="start" x="154" y="-478.8" font-family="Courier,monospace" font-size="9.00" fill="#000000"> </text>
<text text-anchor="start" x="160" y="-479.4" font-family="Courier,monospace" font-size="7.00" fill="#000000">prototype</text>
<text text-anchor="start" x="198" y="-478.8" font-family="Courier,monospace" font-size="9.00" fill="#000000"> </text>
</a>
</g>
</g>
<!-- help&#45;&gt;os -->
<g id="edge2" class="edge">
<title>help&#45;&gt;os</title>
<g id="a_edge2"><a xlink:title="uses">
<path fill="none" stroke="#000000" d="M137.782,-277.067C149.81,-338.327 164.94,-415.392 173.112,-457.011"/>
<polygon fill="#000000" stroke="#000000" points="173.149,-457.198 178.23,-462.315 175.461,-468.973 173.149,-457.198"/>
</a>
</g>
<text text-anchor="start" x="157" y="-370.8" font-family="Courier,monospace" font-size="9.00" fill="#000000">uses</text>
</g>
</g>
</svg>
