<?xml version="1.0" encoding="UTF-8" standalone="no"?>
<!DOCTYPE svg PUBLIC "-//W3C//DTD SVG 1.1//EN"
 "http://www.w3.org/Graphics/SVG/1.1/DTD/svg11.dtd">
<!-- Generated by graphviz version 2.39.20161028.1504 (20161028.1504)
 -->
<!-- Title: help_object Pages: 1 -->
<svg width="2232pt" height="1441pt"
 viewBox="72.00 72.00 2160.00 1368.56" xmlns="http://www.w3.org/2000/svg" xmlns:xlink="http://www.w3.org/1999/xlink">
<g id="graph0" class="graph" transform="scale(1 1) rotate(0) translate(76 1364.56)">
<title>help_object</title>
<polygon fill="#ffffff" stroke="transparent" points="-4,4 -4,-1292.56 2084,-1292.56 2084,4 -4,4"/>
<text text-anchor="start" x="8" y="-7" font-family="Courier,monospace" font-size="10.00" fill="#8b8989">Generated on 2016/11/04, 00:44</text>
<g id="clust1" class="cluster">
<title>cluster_help_object</title>
<g id="a_clust1"><a xlink:href="https://github.com/LogtalkDotOrg/logtalk3/tree/master/tools/help/help.lgt" xlink:title="https://github.com/LogtalkDotOrg/logtalk3/tree/master/tools/help/help.lgt">
<path fill="#fffafa" stroke="#8b8989" d="M20,-27C20,-27 2060,-27 2060,-27 2066,-27 2072,-33 2072,-39 2072,-39 2072,-1268.56 2072,-1268.56 2072,-1274.56 2066,-1280.56 2060,-1280.56 2060,-1280.56 20,-1280.56 20,-1280.56 14,-1280.56 8,-1274.56 8,-1268.56 8,-1268.56 8,-39 8,-39 8,-33 14,-27 20,-27"/>
<text text-anchor="middle" x="28.5" y="-1268.56" font-family="Courier,monospace" font-size="10.00" fill="#8b8989">help</text>
</a>
</g>
</g>
<g id="clust2" class="cluster">
<title>cluster_other</title>
<g id="a_clust2"><a xlink:title="(external predicates)">
<path fill="#ffffff" stroke="#8b8989" d="M30,-261.426C30,-261.426 687,-261.426 687,-261.426 693,-261.426 699,-267.426 699,-273.426 699,-273.426 699,-330.853 699,-330.853 699,-336.853 693,-342.853 687,-342.853 687,-342.853 30,-342.853 30,-342.853 24,-342.853 18,-336.853 18,-330.853 18,-330.853 18,-273.426 18,-273.426 18,-267.426 24,-261.426 30,-261.426"/>
<text text-anchor="middle" x="89.5" y="-330.853" font-family="Courier,monospace" font-size="10.00" fill="#8b8989">(external predicates)</text>
</a>
</g>
</g>
<!-- help/0 -->
<g id="node1" class="node">
<title>help/0</title>
<g id="a_node1"><a xlink:href="http://logtalk.org/library/help_0.html#help/0" xlink:title="http://logtalk.org/library/help_0.html#help/0">
<ellipse fill="#00ff7f" stroke="#000000" cx="462" cy="-995.919" rx="48.1667" ry="21.4286"/>
<text text-anchor="start" x="436" y="-998.719" font-family="Courier,monospace" font-size="9.00" fill="#000000"> </text>
<text text-anchor="start" x="442" y="-998.119" font-family="Courier,monospace" font-size="11.00" fill="#000000">help/0</text>
<text text-anchor="start" x="482" y="-998.719" font-family="Courier,monospace" font-size="9.00" fill="#000000"> </text>
<text text-anchor="start" x="436" y="-987.719" font-family="Courier,monospace" font-size="9.00" fill="#000000"> </text>
<text text-anchor="start" x="449" y="-988.319" font-family="Courier,monospace" font-size="7.00" fill="#000000">public</text>
<text text-anchor="start" x="482" y="-987.719" font-family="Courier,monospace" font-size="9.00" fill="#000000"> </text>
</a>
</g>
</g>
<!-- (/)/2 -->
<g id="node2" class="node">
<title>(/)/2</title>
<g id="a_node2"><a xlink:href="http://logtalk.org/library/help_0.html#//2" xlink:title="http://logtalk.org/library/help_0.html#//2">
<ellipse fill="#00ff7f" stroke="#000000" cx="1488" cy="-1230.35" rx="43.6818" ry="21.4286"/>
<text text-anchor="start" x="1465" y="-1233.15" font-family="Courier,monospace" font-size="9.00" fill="#000000"> </text>
<text text-anchor="start" x="1471" y="-1232.55" font-family="Courier,monospace" font-size="11.00" fill="#000000">(/)/2</text>
<text text-anchor="start" x="1505" y="-1233.15" font-family="Courier,monospace" font-size="9.00" fill="#000000"> </text>
<text text-anchor="start" x="1465" y="-1222.15" font-family="Courier,monospace" font-size="9.00" fill="#000000"> </text>
<text text-anchor="start" x="1475" y="-1222.75" font-family="Courier,monospace" font-size="7.00" fill="#000000">public</text>
<text text-anchor="start" x="1505" y="-1222.15" font-family="Courier,monospace" font-size="9.00" fill="#000000"> </text>
</a>
</g>
</g>
<!-- built_in_directive/4 -->
<g id="node6" class="node">
<title>built_in_directive/4</title>
<g id="a_node6"><a xlink:href="http://logtalk.org/library/help_0.html#built_in_directive/4" xlink:title="http://logtalk.org/library/help_0.html#built_in_directive/4">
<ellipse fill="#00ff7f" stroke="#000000" cx="1702" cy="-292.64" rx="113.689" ry="21.4286"/>
<text text-anchor="start" x="1630" y="-295.44" font-family="Courier,monospace" font-size="9.00" fill="#000000"> </text>
<text text-anchor="start" x="1636" y="-294.84" font-family="Courier,monospace" font-size="11.00" fill="#000000">built_in_directive/4</text>
<text text-anchor="start" x="1769" y="-295.44" font-family="Courier,monospace" font-size="9.00" fill="#000000"> </text>
<text text-anchor="start" x="1630" y="-284.44" font-family="Courier,monospace" font-size="9.00" fill="#000000"> </text>
<text text-anchor="start" x="1689.5" y="-285.04" font-family="Courier,monospace" font-size="7.00" fill="#000000">public</text>
<text text-anchor="start" x="1769" y="-284.44" font-family="Courier,monospace" font-size="9.00" fill="#000000"> </text>
</a>
</g>
</g>
<!-- (/)/2&#45;&gt;built_in_directive/4 -->
<g id="edge2" class="edge">
<title>(/)/2&#45;&gt;built_in_directive/4</title>
<g id="a_edge2"><a xlink:title="calls">
<path fill="none" stroke="#000000" d="M1530.31,-1224.1C1587.66,-1212.97 1683,-1183.84 1683,-1113.13 1683,-1113.13 1683,-1113.13 1683,-409.853 1683,-381.327 1688.55,-349.393 1693.65,-326.069"/>
<polygon fill="#000000" stroke="#000000" points="1693.72,-325.771 1691.16,-319.029 1696.4,-314.074 1693.72,-325.771"/>
</a>
</g>
<text text-anchor="start" x="1683" y="-759.292" font-family="Courier,monospace" font-size="9.00" fill="#000000">calls</text>
</g>
<!-- built_in_predicate/4 -->
<g id="node7" class="node">
<title>built_in_predicate/4</title>
<g id="a_node7"><a xlink:href="http://logtalk.org/library/help_0.html#built_in_predicate/4" xlink:title="http://logtalk.org/library/help_0.html#built_in_predicate/4">
<ellipse fill="#00ff7f" stroke="#000000" cx="1948" cy="-292.64" rx="113.689" ry="21.4286"/>
<text text-anchor="start" x="1876" y="-295.44" font-family="Courier,monospace" font-size="9.00" fill="#000000"> </text>
<text text-anchor="start" x="1882" y="-294.84" font-family="Courier,monospace" font-size="11.00" fill="#000000">built_in_predicate/4</text>
<text text-anchor="start" x="2015" y="-295.44" font-family="Courier,monospace" font-size="9.00" fill="#000000"> </text>
<text text-anchor="start" x="1876" y="-284.44" font-family="Courier,monospace" font-size="9.00" fill="#000000"> </text>
<text text-anchor="start" x="1935.5" y="-285.04" font-family="Courier,monospace" font-size="7.00" fill="#000000">public</text>
<text text-anchor="start" x="2015" y="-284.44" font-family="Courier,monospace" font-size="9.00" fill="#000000"> </text>
</a>
</g>
</g>
<!-- (/)/2&#45;&gt;built_in_predicate/4 -->
<g id="edge4" class="edge">
<title>(/)/2&#45;&gt;built_in_predicate/4</title>
<g id="a_edge4"><a xlink:title="calls">
<path fill="none" stroke="#000000" d="M1531.78,-1227.56C1640.11,-1219.49 1912,-1191.41 1912,-1113.13 1912,-1113.13 1912,-1113.13 1912,-409.853 1912,-380.305 1922.58,-348.34 1932.27,-325.265"/>
<polygon fill="#000000" stroke="#000000" points="1932.37,-325.054 1931.12,-317.951 1937.2,-314.069 1932.37,-325.054"/>
</a>
</g>
<text text-anchor="start" x="1912" y="-759.292" font-family="Courier,monospace" font-size="9.00" fill="#000000">calls</text>
</g>
<!-- built_in_method/4 -->
<g id="node8" class="node">
<title>built_in_method/4</title>
<g id="a_node8"><a xlink:href="http://logtalk.org/library/help_0.html#built_in_method/4" xlink:title="http://logtalk.org/library/help_0.html#built_in_method/4">
<ellipse fill="#00ff7f" stroke="#000000" cx="1470" cy="-292.64" rx="99.9045" ry="21.4286"/>
<text text-anchor="start" x="1408" y="-295.44" font-family="Courier,monospace" font-size="9.00" fill="#000000"> </text>
<text text-anchor="start" x="1414" y="-294.84" font-family="Courier,monospace" font-size="11.00" fill="#000000">built_in_method/4</text>
<text text-anchor="start" x="1527" y="-295.44" font-family="Courier,monospace" font-size="9.00" fill="#000000"> </text>
<text text-anchor="start" x="1408" y="-284.44" font-family="Courier,monospace" font-size="9.00" fill="#000000"> </text>
<text text-anchor="start" x="1457.5" y="-285.04" font-family="Courier,monospace" font-size="7.00" fill="#000000">public</text>
<text text-anchor="start" x="1527" y="-284.44" font-family="Courier,monospace" font-size="9.00" fill="#000000"> </text>
</a>
</g>
</g>
<!-- (/)/2&#45;&gt;built_in_method/4 -->
<g id="edge3" class="edge">
<title>(/)/2&#45;&gt;built_in_method/4</title>
<g id="a_edge3"><a xlink:title="calls">
<path fill="none" stroke="#000000" d="M1488,-1208.74C1488,-1185.22 1488,-1146.51 1488,-1113.13 1488,-1113.13 1488,-1113.13 1488,-409.853 1488,-381.364 1482.74,-349.427 1477.91,-326.093"/>
<polygon fill="#000000" stroke="#000000" points="1477.85,-325.818 1472.67,-320.803 1475.3,-314.091 1477.85,-325.818"/>
</a>
</g>
<text text-anchor="start" x="1488" y="-759.292" font-family="Courier,monospace" font-size="9.00" fill="#000000">calls</text>
</g>
<!-- control/4 -->
<g id="node9" class="node">
<title>control/4</title>
<g id="a_node9"><a xlink:href="http://logtalk.org/library/help_0.html#control/4" xlink:title="http://logtalk.org/library/help_0.html#control/4">
<ellipse fill="#00ff7f" stroke="#000000" cx="1290" cy="-292.64" rx="62.4516" ry="21.4286"/>
<text text-anchor="start" x="1254" y="-295.44" font-family="Courier,monospace" font-size="9.00" fill="#000000"> </text>
<text text-anchor="start" x="1260" y="-294.84" font-family="Courier,monospace" font-size="11.00" fill="#000000">control/4</text>
<text text-anchor="start" x="1320" y="-295.44" font-family="Courier,monospace" font-size="9.00" fill="#000000"> </text>
<text text-anchor="start" x="1254" y="-284.44" font-family="Courier,monospace" font-size="9.00" fill="#000000"> </text>
<text text-anchor="start" x="1277" y="-285.04" font-family="Courier,monospace" font-size="7.00" fill="#000000">public</text>
<text text-anchor="start" x="1320" y="-284.44" font-family="Courier,monospace" font-size="9.00" fill="#000000"> </text>
</a>
</g>
</g>
<!-- (/)/2&#45;&gt;control/4 -->
<g id="edge5" class="edge">
<title>(/)/2&#45;&gt;control/4</title>
<g id="a_edge5"><a xlink:title="calls">
<path fill="none" stroke="#000000" d="M1447.57,-1222C1370.91,-1205.01 1212,-1163.69 1212,-1113.13 1212,-1113.13 1212,-1113.13 1212,-409.853 1212,-375.05 1236.13,-342.702 1257.55,-320.844"/>
<polygon fill="#000000" stroke="#000000" points="1257.58,-320.807 1259.09,-313.754 1266.17,-312.428 1257.58,-320.807"/>
</a>
</g>
<text text-anchor="start" x="1212" y="-759.292" font-family="Courier,monospace" font-size="9.00" fill="#000000">calls</text>
</g>
<!-- show/2 -->
<g id="node15" class="node">
<title>show/2</title>
<ellipse fill="#f5f5dc" stroke="#000000" cx="999" cy="-995.919" rx="48.1667" ry="21.4286"/>
<text text-anchor="start" x="973" y="-998.719" font-family="Courier,monospace" font-size="9.00" fill="#000000"> </text>
<text text-anchor="start" x="979" y="-998.119" font-family="Courier,monospace" font-size="11.00" fill="#000000">show/2</text>
<text text-anchor="start" x="1019" y="-998.719" font-family="Courier,monospace" font-size="9.00" fill="#000000"> </text>
<text text-anchor="start" x="973" y="-987.719" font-family="Courier,monospace" font-size="9.00" fill="#000000"> </text>
<text text-anchor="start" x="988" y="-988.319" font-family="Courier,monospace" font-size="7.00" fill="#000000">local</text>
<text text-anchor="start" x="1019" y="-987.719" font-family="Courier,monospace" font-size="9.00" fill="#000000"> </text>
</g>
<!-- (/)/2&#45;&gt;show/2 -->
<g id="edge6" class="edge">
<title>(/)/2&#45;&gt;show/2</title>
<g id="a_edge6"><a xlink:title="calls">
<path fill="none" stroke="#000000" d="M1444.57,-1226.19C1387.57,-1219.41 1285.53,-1202.62 1207,-1164.13 1133.76,-1128.24 1063.12,-1062.43 1025.98,-1024.64"/>
<polygon fill="#000000" stroke="#000000" points="1025.64,-1024.28 1018.59,-1022.76 1017.28,-1015.67 1025.64,-1024.28"/>
</a>
</g>
<text text-anchor="start" x="1131" y="-1110.93" font-family="Courier,monospace" font-size="9.00" fill="#000000">calls</text>
</g>
<!-- (//)/2 -->
<g id="node3" class="node">
<title>(//)/2</title>
<g id="a_node3"><a xlink:href="http://logtalk.org/library/help_0.html#///2" xlink:title="http://logtalk.org/library/help_0.html#///2">
<ellipse fill="#00ff7f" stroke="#000000" cx="947" cy="-1230.35" rx="48.1667" ry="21.4286"/>
<text text-anchor="start" x="921" y="-1233.15" font-family="Courier,monospace" font-size="9.00" fill="#000000"> </text>
<text text-anchor="start" x="927" y="-1232.55" font-family="Courier,monospace" font-size="11.00" fill="#000000">(//)/2</text>
<text text-anchor="start" x="967" y="-1233.15" font-family="Courier,monospace" font-size="9.00" fill="#000000"> </text>
<text text-anchor="start" x="921" y="-1222.15" font-family="Courier,monospace" font-size="9.00" fill="#000000"> </text>
<text text-anchor="start" x="934" y="-1222.75" font-family="Courier,monospace" font-size="7.00" fill="#000000">public</text>
<text text-anchor="start" x="967" y="-1222.15" font-family="Courier,monospace" font-size="9.00" fill="#000000"> </text>
</a>
</g>
</g>
<!-- built_in_non_terminal/4 -->
<g id="node10" class="node">
<title>built_in_non_terminal/4</title>
<g id="a_node10"><a xlink:href="http://logtalk.org/library/help_0.html#built_in_non_terminal/4" xlink:title="http://logtalk.org/library/help_0.html#built_in_non_terminal/4">
<ellipse fill="#00ff7f" stroke="#000000" cx="1082" cy="-292.64" rx="127.059" ry="21.4286"/>
<text text-anchor="start" x="1000" y="-295.44" font-family="Courier,monospace" font-size="9.00" fill="#000000"> </text>
<text text-anchor="start" x="1006" y="-294.84" font-family="Courier,monospace" font-size="11.00" fill="#000000">built_in_non_terminal/4</text>
<text text-anchor="start" x="1158" y="-295.44" font-family="Courier,monospace" font-size="9.00" fill="#000000"> </text>
<text text-anchor="start" x="1000" y="-284.44" font-family="Courier,monospace" font-size="9.00" fill="#000000"> </text>
<text text-anchor="start" x="1069" y="-285.04" font-family="Courier,monospace" font-size="7.00" fill="#000000">public</text>
<text text-anchor="start" x="1158" y="-284.44" font-family="Courier,monospace" font-size="9.00" fill="#000000"> </text>
</a>
</g>
</g>
<!-- (//)/2&#45;&gt;built_in_non_terminal/4 -->
<g id="edge7" class="edge">
<title>(//)/2&#45;&gt;built_in_non_terminal/4</title>
<g id="a_edge7"><a xlink:title="calls">
<path fill="none" stroke="#000000" d="M937.277,-1209.24C927.543,-1186.16 914,-1147.8 914,-1113.13 914,-1113.13 914,-1113.13 914,-409.853 914,-362.578 959.297,-332.795 1002.85,-315.085"/>
<polygon fill="#000000" stroke="#000000" points="1002.95,-315.044 1007.12,-309.155 1014.15,-310.731 1002.95,-315.044"/>
</a>
</g>
<text text-anchor="start" x="914" y="-759.292" font-family="Courier,monospace" font-size="9.00" fill="#000000">calls</text>
</g>
<!-- (//)/2&#45;&gt;show/2 -->
<g id="edge8" class="edge">
<title>(//)/2&#45;&gt;show/2</title>
<g id="a_edge8"><a xlink:title="calls">
<path fill="none" stroke="#000000" d="M951.706,-1209.13C960.791,-1168.17 980.802,-1077.96 991.654,-1029.04"/>
<polygon fill="#000000" stroke="#000000" points="991.668,-1028.97 989.062,-1022.25 994.267,-1017.26 991.668,-1028.97"/>
</a>
</g>
<text text-anchor="start" x="974" y="-1110.93" font-family="Courier,monospace" font-size="9.00" fill="#000000">calls</text>
</g>
<!-- completion/2 -->
<g id="node4" class="node">
<title>completion/2</title>
<g id="a_node4"><a xlink:href="http://logtalk.org/library/help_0.html#completion/2" xlink:title="http://logtalk.org/library/help_0.html#completion/2">
<ellipse fill="#00ff7f" stroke="#000000" cx="1320" cy="-527.066" rx="76.2353" ry="21.4286"/>
<text text-anchor="start" x="1274" y="-529.866" font-family="Courier,monospace" font-size="9.00" fill="#000000"> </text>
<text text-anchor="start" x="1280" y="-529.266" font-family="Courier,monospace" font-size="11.00" fill="#000000">completion/2</text>
<text text-anchor="start" x="1360" y="-529.866" font-family="Courier,monospace" font-size="9.00" fill="#000000"> </text>
<text text-anchor="start" x="1274" y="-518.866" font-family="Courier,monospace" font-size="9.00" fill="#000000"> </text>
<text text-anchor="start" x="1307" y="-519.466" font-family="Courier,monospace" font-size="7.00" fill="#000000">public</text>
<text text-anchor="start" x="1360" y="-518.866" font-family="Courier,monospace" font-size="9.00" fill="#000000"> </text>
</a>
</g>
</g>
<!-- completion/2&#45;&gt;built_in_directive/4 -->
<g id="edge14" class="edge">
<title>completion/2&#45;&gt;built_in_directive/4</title>
<g id="a_edge14"><a xlink:title="calls">
<path fill="none" stroke="#000000" d="M1351.64,-507.633C1402.65,-476.308 1506.22,-412.707 1594,-358.853 1615.04,-345.947 1638.38,-331.632 1657.97,-319.624"/>
<polygon fill="#000000" stroke="#000000" points="1658.2,-319.485 1661.22,-312.939 1668.43,-313.214 1658.2,-319.485"/>
</a>
</g>
<text text-anchor="start" x="1518" y="-407.653" font-family="Courier,monospace" font-size="9.00" fill="#000000">calls</text>
</g>
<!-- completion/2&#45;&gt;built_in_predicate/4 -->
<g id="edge16" class="edge">
<title>completion/2&#45;&gt;built_in_predicate/4</title>
<g id="a_edge16"><a xlink:title="calls">
<path fill="none" stroke="#000000" d="M1367.57,-510.391C1457.37,-478.76 1657.86,-407.428 1825,-342.853 1846.42,-334.577 1869.78,-325.143 1890.34,-316.704"/>
<polygon fill="#000000" stroke="#000000" points="1890.34,-316.702 1894.37,-310.718 1901.44,-312.132 1890.34,-316.702"/>
</a>
</g>
<text text-anchor="start" x="1659" y="-407.653" font-family="Courier,monospace" font-size="9.00" fill="#000000">calls</text>
</g>
<!-- completion/2&#45;&gt;built_in_method/4 -->
<g id="edge15" class="edge">
<title>completion/2&#45;&gt;built_in_method/4</title>
<g id="a_edge15"><a xlink:title="calls">
<path fill="none" stroke="#000000" d="M1331.52,-505.975C1345.13,-481.349 1368.76,-439.563 1391,-404.853 1408.98,-376.798 1430.89,-345.907 1447.07,-323.651"/>
<polygon fill="#000000" stroke="#000000" points="1447.21,-323.461 1447.52,-316.257 1454.29,-313.772 1447.21,-323.461"/>
</a>
</g>
<text text-anchor="start" x="1391" y="-407.653" font-family="Courier,monospace" font-size="9.00" fill="#000000">calls</text>
</g>
<!-- completion/2&#45;&gt;control/4 -->
<g id="edge18" class="edge">
<title>completion/2&#45;&gt;control/4</title>
<g id="a_edge18"><a xlink:title="calls">
<path fill="none" stroke="#000000" d="M1317.28,-505.849C1312.05,-464.981 1300.55,-375.064 1294.28,-326.068"/>
<polygon fill="#000000" stroke="#000000" points="1294.25,-325.881 1289.52,-320.437 1292.73,-313.978 1294.25,-325.881"/>
</a>
</g>
<text text-anchor="start" x="1305" y="-407.653" font-family="Courier,monospace" font-size="9.00" fill="#000000">calls</text>
</g>
<!-- completion/2&#45;&gt;built_in_non_terminal/4 -->
<g id="edge17" class="edge">
<title>completion/2&#45;&gt;built_in_non_terminal/4</title>
<g id="a_edge17"><a xlink:title="calls">
<path fill="none" stroke="#000000" d="M1298.88,-506.262C1256.47,-464.488 1160.84,-370.293 1111.97,-322.162"/>
<polygon fill="#000000" stroke="#000000" points="1111.96,-322.155 1104.88,-320.794 1103.42,-313.734 1111.96,-322.155"/>
</a>
</g>
<text text-anchor="start" x="1205" y="-407.653" font-family="Courier,monospace" font-size="9.00" fill="#000000">calls</text>
</g>
<!-- os::expand_path/2 -->
<g id="node21" class="node">
<title>os::expand_path/2</title>
<g id="a_node21"><a xlink:href="http://logtalk.org/library/os_0.html#expand_path/2" xlink:title="http://logtalk.org/library/os_0.html#expand_path/2">
<ellipse fill="#d3d3d3" stroke="#000000" stroke-dasharray="5,2" cx="589" cy="-292.64" rx="99.9045" ry="21.4286"/>
<text text-anchor="start" x="527" y="-295.44" font-family="Courier,monospace" font-size="9.00" fill="#000000"> </text>
<text text-anchor="start" x="533" y="-294.84" font-family="Courier,monospace" font-size="11.00" fill="#000000">os::expand_path/2</text>
<text text-anchor="start" x="646" y="-295.44" font-family="Courier,monospace" font-size="9.00" fill="#000000"> </text>
<text text-anchor="start" x="527" y="-284.44" font-family="Courier,monospace" font-size="9.00" fill="#000000"> </text>
<text text-anchor="start" x="572.5" y="-285.04" font-family="Courier,monospace" font-size="7.00" fill="#000000">external</text>
<text text-anchor="start" x="646" y="-284.44" font-family="Courier,monospace" font-size="9.00" fill="#000000"> </text>
</a>
</g>
</g>
<!-- completion/2&#45;&gt;os::expand_path/2 -->
<g id="edge26" class="edge">
<title>completion/2&#45;&gt;os::expand_path/2</title>
<g id="a_edge26"><a xlink:title="calls">
<path fill="none" stroke="#000000" d="M1274.56,-509.948C1206.88,-484.828 1075.29,-437.436 961,-404.853 843.428,-371.333 808.316,-383.46 693,-342.853 673.918,-336.134 653.723,-326.911 636.255,-318.201"/>
<polygon fill="#000000" stroke="#000000" points="635.906,-318.024 628.745,-318.869 625.21,-312.584 635.906,-318.024"/>
</a>
</g>
<text text-anchor="start" x="993" y="-407.653" font-family="Courier,monospace" font-size="9.00" fill="#000000">calls</text>
</g>
<!-- completions/2 -->
<g id="node5" class="node">
<title>completions/2</title>
<g id="a_node5"><a xlink:href="http://logtalk.org/library/help_0.html#completions/2" xlink:title="http://logtalk.org/library/help_0.html#completions/2">
<ellipse fill="#00ff7f" stroke="#000000" cx="1339" cy="-761.492" rx="80.7205" ry="21.4286"/>
<text text-anchor="start" x="1290" y="-764.292" font-family="Courier,monospace" font-size="9.00" fill="#000000"> </text>
<text text-anchor="start" x="1296" y="-763.692" font-family="Courier,monospace" font-size="11.00" fill="#000000">completions/2</text>
<text text-anchor="start" x="1382" y="-764.292" font-family="Courier,monospace" font-size="9.00" fill="#000000"> </text>
<text text-anchor="start" x="1290" y="-753.292" font-family="Courier,monospace" font-size="9.00" fill="#000000"> </text>
<text text-anchor="start" x="1326" y="-753.892" font-family="Courier,monospace" font-size="7.00" fill="#000000">public</text>
<text text-anchor="start" x="1382" y="-753.292" font-family="Courier,monospace" font-size="9.00" fill="#000000"> </text>
</a>
</g>
</g>
<!-- completions/2&#45;&gt;completion/2 -->
<g id="edge19" class="edge">
<title>completions/2&#45;&gt;completion/2</title>
<g id="a_edge19"><a xlink:title="calls">
<path fill="none" stroke="#000000" d="M1337.28,-740.275C1333.97,-699.408 1326.68,-609.491 1322.71,-560.495"/>
<polygon fill="#000000" stroke="#000000" points="1322.7,-560.365 1318.23,-554.708 1321.73,-548.404 1322.7,-560.365"/>
</a>
</g>
<text text-anchor="start" x="1329" y="-642.079" font-family="Courier,monospace" font-size="9.00" fill="#000000">calls</text>
</g>
<!-- between/3 -->
<g id="node20" class="node">
<title>between/3</title>
<ellipse fill="#f5f5dc" stroke="#000000" cx="1470" cy="-58.2132" rx="62.4516" ry="21.4286"/>
<text text-anchor="start" x="1434" y="-61.0132" font-family="Courier,monospace" font-size="9.00" fill="#000000"> </text>
<text text-anchor="start" x="1440" y="-60.4132" font-family="Courier,monospace" font-size="11.00" fill="#000000">between/3</text>
<text text-anchor="start" x="1500" y="-61.0132" font-family="Courier,monospace" font-size="9.00" fill="#000000"> </text>
<text text-anchor="start" x="1434" y="-50.0132" font-family="Courier,monospace" font-size="9.00" fill="#000000"> </text>
<text text-anchor="start" x="1459" y="-50.6132" font-family="Courier,monospace" font-size="7.00" fill="#000000">local</text>
<text text-anchor="start" x="1500" y="-50.0132" font-family="Courier,monospace" font-size="9.00" fill="#000000"> </text>
</g>
<!-- built_in_directive/4&#45;&gt;between/3 -->
<g id="edge20" class="edge">
<title>built_in_directive/4&#45;&gt;between/3</title>
<g id="a_edge20"><a xlink:title="calls">
<path fill="none" stroke="#000000" d="M1681,-271.422C1639.3,-229.281 1545.98,-134.984 1498.67,-87.1814"/>
<polygon fill="#000000" stroke="#000000" points="1498.56,-87.0741 1491.5,-85.6231 1490.12,-78.5447 1498.56,-87.0741"/>
</a>
</g>
<text text-anchor="start" x="1590" y="-173.226" font-family="Courier,monospace" font-size="9.00" fill="#000000">calls</text>
</g>
<!-- built_in_method/4&#45;&gt;between/3 -->
<g id="edge21" class="edge">
<title>built_in_method/4&#45;&gt;between/3</title>
<g id="a_edge21"><a xlink:title="calls">
<path fill="none" stroke="#000000" d="M1470,-271.422C1470,-230.555 1470,-140.638 1470,-91.642"/>
<polygon fill="#000000" stroke="#000000" points="1470,-91.5514 1466,-85.5514 1470,-79.5514 1470,-91.5514"/>
</a>
</g>
<text text-anchor="start" x="1470" y="-173.226" font-family="Courier,monospace" font-size="9.00" fill="#000000">calls</text>
</g>
<!-- built_in_non_terminal/4&#45;&gt;between/3 -->
<g id="edge22" class="edge">
<title>built_in_non_terminal/4&#45;&gt;between/3</title>
<g id="a_edge22"><a xlink:title="calls">
<path fill="none" stroke="#000000" d="M1116.09,-272.041C1187.3,-229.019 1351.58,-129.764 1428.66,-83.1928"/>
<polygon fill="#000000" stroke="#000000" points="1429.1,-82.9225 1432.17,-76.396 1439.37,-76.7168 1429.1,-82.9225"/>
</a>
</g>
<text text-anchor="start" x="1284" y="-173.226" font-family="Courier,monospace" font-size="9.00" fill="#000000">calls</text>
</g>
<!-- library/0 -->
<g id="node11" class="node">
<title>library/0</title>
<g id="a_node11"><a xlink:href="http://logtalk.org/library/help_0.html#library/0" xlink:title="http://logtalk.org/library/help_0.html#library/0">
<ellipse fill="#00ff7f" stroke="#000000" cx="816" cy="-761.492" rx="62.4516" ry="21.4286"/>
<text text-anchor="start" x="780" y="-764.292" font-family="Courier,monospace" font-size="9.00" fill="#000000"> </text>
<text text-anchor="start" x="786" y="-763.692" font-family="Courier,monospace" font-size="11.00" fill="#000000">library/0</text>
<text text-anchor="start" x="846" y="-764.292" font-family="Courier,monospace" font-size="9.00" fill="#000000"> </text>
<text text-anchor="start" x="780" y="-753.292" font-family="Courier,monospace" font-size="9.00" fill="#000000"> </text>
<text text-anchor="start" x="803" y="-753.892" font-family="Courier,monospace" font-size="7.00" fill="#000000">public</text>
<text text-anchor="start" x="846" y="-753.292" font-family="Courier,monospace" font-size="9.00" fill="#000000"> </text>
</a>
</g>
</g>
<!-- open/2 -->
<g id="node19" class="node">
<title>open/2</title>
<ellipse fill="#f5f5dc" stroke="#000000" cx="396" cy="-527.066" rx="48.1667" ry="21.4286"/>
<text text-anchor="start" x="370" y="-529.866" font-family="Courier,monospace" font-size="9.00" fill="#000000"> </text>
<text text-anchor="start" x="376" y="-529.266" font-family="Courier,monospace" font-size="11.00" fill="#000000">open/2</text>
<text text-anchor="start" x="416" y="-529.866" font-family="Courier,monospace" font-size="9.00" fill="#000000"> </text>
<text text-anchor="start" x="370" y="-518.866" font-family="Courier,monospace" font-size="9.00" fill="#000000"> </text>
<text text-anchor="start" x="385" y="-519.466" font-family="Courier,monospace" font-size="7.00" fill="#000000">local</text>
<text text-anchor="start" x="416" y="-518.866" font-family="Courier,monospace" font-size="9.00" fill="#000000"> </text>
</g>
<!-- library/0&#45;&gt;open/2 -->
<g id="edge23" class="edge">
<title>library/0&#45;&gt;open/2</title>
<g id="a_edge23"><a xlink:title="calls">
<path fill="none" stroke="#000000" d="M809.3,-740.328C796.674,-704.083 765.772,-630.45 713,-593.279 672.096,-564.468 534.848,-543.714 454.988,-533.74"/>
<polygon fill="#000000" stroke="#000000" points="454.598,-533.692 448.156,-536.932 442.688,-532.232 454.598,-533.692"/>
</a>
</g>
<text text-anchor="start" x="764" y="-642.079" font-family="Courier,monospace" font-size="9.00" fill="#000000">calls</text>
</g>
<!-- library/1 -->
<g id="node12" class="node">
<title>library/1</title>
<g id="a_node12"><a xlink:href="http://logtalk.org/library/help_0.html#library/1" xlink:title="http://logtalk.org/library/help_0.html#library/1">
<ellipse fill="#00ff7f" stroke="#000000" cx="466" cy="-761.492" rx="62.4516" ry="21.4286"/>
<text text-anchor="start" x="430" y="-764.292" font-family="Courier,monospace" font-size="9.00" fill="#000000"> </text>
<text text-anchor="start" x="436" y="-763.692" font-family="Courier,monospace" font-size="11.00" fill="#000000">library/1</text>
<text text-anchor="start" x="496" y="-764.292" font-family="Courier,monospace" font-size="9.00" fill="#000000"> </text>
<text text-anchor="start" x="430" y="-753.292" font-family="Courier,monospace" font-size="9.00" fill="#000000"> </text>
<text text-anchor="start" x="453" y="-753.892" font-family="Courier,monospace" font-size="7.00" fill="#000000">public</text>
<text text-anchor="start" x="496" y="-753.292" font-family="Courier,monospace" font-size="9.00" fill="#000000"> </text>
</a>
</g>
</g>
<!-- library/1&#45;&gt;open/2 -->
<g id="edge24" class="edge">
<title>library/1&#45;&gt;open/2</title>
<g id="a_edge24"><a xlink:title="calls">
<path fill="none" stroke="#000000" d="M459.665,-740.275C447.435,-699.321 420.498,-609.108 405.889,-560.183"/>
<polygon fill="#000000" stroke="#000000" points="405.805,-559.903 400.256,-555.298 402.372,-548.404 405.805,-559.903"/>
</a>
</g>
<text text-anchor="start" x="432" y="-642.079" font-family="Courier,monospace" font-size="9.00" fill="#000000">calls</text>
</g>
<!-- manuals/0 -->
<g id="node13" class="node">
<title>manuals/0</title>
<g id="a_node13"><a xlink:href="http://logtalk.org/library/help_0.html#manuals/0" xlink:title="http://logtalk.org/library/help_0.html#manuals/0">
<ellipse fill="#00ff7f" stroke="#000000" cx="324" cy="-761.492" rx="62.4516" ry="21.4286"/>
<text text-anchor="start" x="288" y="-764.292" font-family="Courier,monospace" font-size="9.00" fill="#000000"> </text>
<text text-anchor="start" x="294" y="-763.692" font-family="Courier,monospace" font-size="11.00" fill="#000000">manuals/0</text>
<text text-anchor="start" x="354" y="-764.292" font-family="Courier,monospace" font-size="9.00" fill="#000000"> </text>
<text text-anchor="start" x="288" y="-753.292" font-family="Courier,monospace" font-size="9.00" fill="#000000"> </text>
<text text-anchor="start" x="311" y="-753.892" font-family="Courier,monospace" font-size="7.00" fill="#000000">public</text>
<text text-anchor="start" x="354" y="-753.292" font-family="Courier,monospace" font-size="9.00" fill="#000000"> </text>
</a>
</g>
</g>
<!-- manuals/0&#45;&gt;open/2 -->
<g id="edge25" class="edge">
<title>manuals/0&#45;&gt;open/2</title>
<g id="a_edge25"><a xlink:title="calls">
<path fill="none" stroke="#000000" d="M330.517,-740.275C343.095,-699.321 370.802,-609.108 385.829,-560.183"/>
<polygon fill="#000000" stroke="#000000" points="385.923,-559.875 383.861,-552.965 389.446,-548.404 385.923,-559.875"/>
</a>
</g>
<text text-anchor="start" x="361" y="-642.079" font-family="Courier,monospace" font-size="9.00" fill="#000000">calls</text>
</g>
<!-- forward/1 -->
<g id="node14" class="node">
<title>forward/1</title>
<ellipse fill="#f5f5dc" stroke="#000000" cx="462" cy="-1230.35" rx="62.4516" ry="21.4286"/>
<text text-anchor="start" x="426" y="-1233.15" font-family="Courier,monospace" font-size="9.00" fill="#000000"> </text>
<text text-anchor="start" x="432" y="-1232.55" font-family="Courier,monospace" font-size="11.00" fill="#000000">forward/1</text>
<text text-anchor="start" x="492" y="-1233.15" font-family="Courier,monospace" font-size="9.00" fill="#000000"> </text>
<text text-anchor="start" x="426" y="-1222.15" font-family="Courier,monospace" font-size="9.00" fill="#000000"> </text>
<text text-anchor="start" x="451" y="-1222.75" font-family="Courier,monospace" font-size="7.00" fill="#000000">local</text>
<text text-anchor="start" x="492" y="-1222.15" font-family="Courier,monospace" font-size="9.00" fill="#000000"> </text>
</g>
<!-- forward/1&#45;&gt;help/0 -->
<g id="edge1" class="edge">
<title>forward/1&#45;&gt;help/0</title>
<g id="a_edge1"><a xlink:title="calls">
<path fill="none" stroke="#000000" d="M462,-1209.13C462,-1168.26 462,-1078.34 462,-1029.35"/>
<polygon fill="#000000" stroke="#000000" points="462,-1029.26 458,-1023.26 462,-1017.26 462,-1029.26"/>
</a>
</g>
<text text-anchor="start" x="462" y="-1110.93" font-family="Courier,monospace" font-size="9.00" fill="#000000">calls</text>
</g>
<!-- fuzzy_matching/1 -->
<g id="node16" class="node">
<title>fuzzy_matching/1</title>
<ellipse fill="#f5f5dc" stroke="#000000" cx="1055" cy="-761.492" rx="94.5053" ry="21.4286"/>
<text text-anchor="start" x="996" y="-764.292" font-family="Courier,monospace" font-size="9.00" fill="#000000"> </text>
<text text-anchor="start" x="1002" y="-763.692" font-family="Courier,monospace" font-size="11.00" fill="#000000">fuzzy_matching/1</text>
<text text-anchor="start" x="1108" y="-764.292" font-family="Courier,monospace" font-size="9.00" fill="#000000"> </text>
<text text-anchor="start" x="996" y="-753.292" font-family="Courier,monospace" font-size="9.00" fill="#000000"> </text>
<text text-anchor="start" x="1044" y="-753.892" font-family="Courier,monospace" font-size="7.00" fill="#000000">local</text>
<text text-anchor="start" x="1108" y="-753.292" font-family="Courier,monospace" font-size="9.00" fill="#000000"> </text>
</g>
<!-- show/2&#45;&gt;fuzzy_matching/1 -->
<g id="edge9" class="edge">
<title>show/2&#45;&gt;fuzzy_matching/1</title>
<g id="a_edge9"><a xlink:title="calls">
<path fill="none" stroke="#000000" d="M1004.07,-974.702C1013.85,-933.747 1035.4,-843.534 1047.09,-794.609"/>
<polygon fill="#000000" stroke="#000000" points="1047.11,-794.502 1044.62,-787.737 1049.9,-782.831 1047.11,-794.502"/>
</a>
</g>
<text text-anchor="start" x="1028" y="-876.506" font-family="Courier,monospace" font-size="9.00" fill="#000000">calls</text>
</g>
<!-- show/2&#45;&gt;open/2 -->
<g id="edge10" class="edge">
<title>show/2&#45;&gt;open/2</title>
<g id="a_edge10"><a xlink:title="calls">
<path fill="none" stroke="#000000" d="M977.284,-976.936C961.39,-963.227 939.17,-944.434 919,-928.706 831.647,-860.588 805.239,-849.672 717,-782.706 609.707,-701.278 485.812,-600.692 428.356,-553.658"/>
<polygon fill="#000000" stroke="#000000" points="428.349,-553.653 421.173,-552.944 419.067,-546.047 428.349,-553.653"/>
</a>
</g>
<text text-anchor="start" x="717" y="-759.292" font-family="Courier,monospace" font-size="9.00" fill="#000000">calls</text>
</g>
<!-- fuzzy_matching/1&#45;&gt;completion/2 -->
<g id="edge11" class="edge">
<title>fuzzy_matching/1&#45;&gt;completion/2</title>
<g id="a_edge11"><a xlink:title="calls">
<path fill="none" stroke="#000000" d="M1078.52,-740.689C1126.08,-698.616 1233.74,-603.373 1287.78,-555.565"/>
<polygon fill="#000000" stroke="#000000" points="1287.93,-555.439 1289.77,-548.468 1296.91,-547.488 1287.93,-555.439"/>
</a>
</g>
<text text-anchor="start" x="1193" y="-642.079" font-family="Courier,monospace" font-size="9.00" fill="#000000">calls</text>
</g>
<!-- alternatives/2 -->
<g id="node17" class="node">
<title>alternatives/2</title>
<ellipse fill="#f5f5dc" stroke="#000000" cx="1028" cy="-527.066" rx="85.6199" ry="21.4286"/>
<text text-anchor="start" x="976" y="-529.866" font-family="Courier,monospace" font-size="9.00" fill="#000000"> </text>
<text text-anchor="start" x="982" y="-529.266" font-family="Courier,monospace" font-size="11.00" fill="#000000">alternatives/2</text>
<text text-anchor="start" x="1075" y="-529.866" font-family="Courier,monospace" font-size="9.00" fill="#000000"> </text>
<text text-anchor="start" x="976" y="-518.866" font-family="Courier,monospace" font-size="9.00" fill="#000000"> </text>
<text text-anchor="start" x="1017.5" y="-519.466" font-family="Courier,monospace" font-size="7.00" fill="#000000">local</text>
<text text-anchor="start" x="1075" y="-518.866" font-family="Courier,monospace" font-size="9.00" fill="#000000"> </text>
</g>
<!-- fuzzy_matching/1&#45;&gt;alternatives/2 -->
<g id="edge12" class="edge">
<title>fuzzy_matching/1&#45;&gt;alternatives/2</title>
<g id="a_edge12"><a xlink:title="calls">
<path fill="none" stroke="#000000" d="M1052.56,-740.275C1047.85,-699.408 1037.49,-609.491 1031.85,-560.495"/>
<polygon fill="#000000" stroke="#000000" points="1031.83,-560.325 1027.17,-554.823 1030.46,-548.404 1031.83,-560.325"/>
</a>
</g>
<text text-anchor="start" x="1042" y="-642.079" font-family="Courier,monospace" font-size="9.00" fill="#000000">calls</text>
</g>
<!-- write_alternatives/1 -->
<g id="node18" class="node">
<title>write_alternatives/1</title>
<ellipse fill="#f5f5dc" stroke="#000000" cx="823" cy="-292.64" rx="113.689" ry="21.4286"/>
<text text-anchor="start" x="751" y="-295.44" font-family="Courier,monospace" font-size="9.00" fill="#000000"> </text>
<text text-anchor="start" x="757" y="-294.84" font-family="Courier,monospace" font-size="11.00" fill="#000000">write_alternatives/1</text>
<text text-anchor="start" x="890" y="-295.44" font-family="Courier,monospace" font-size="9.00" fill="#000000"> </text>
<text text-anchor="start" x="751" y="-284.44" font-family="Courier,monospace" font-size="9.00" fill="#000000"> </text>
<text text-anchor="start" x="812.5" y="-285.04" font-family="Courier,monospace" font-size="7.00" fill="#000000">local</text>
<text text-anchor="start" x="890" y="-284.44" font-family="Courier,monospace" font-size="9.00" fill="#000000"> </text>
</g>
<!-- alternatives/2&#45;&gt;write_alternatives/1 -->
<g id="edge13" class="edge">
<title>alternatives/2&#45;&gt;write_alternatives/1</title>
<g id="a_edge13"><a xlink:title="calls">
<path fill="none" stroke="#000000" d="M1009.81,-506.262C973.504,-464.748 891.93,-371.464 849.607,-323.066"/>
<polygon fill="#000000" stroke="#000000" points="849.346,-322.767 842.385,-320.884 841.446,-313.734 849.346,-322.767"/>
</a>
</g>
<text text-anchor="start" x="929" y="-407.653" font-family="Courier,monospace" font-size="9.00" fill="#000000">calls</text>
</g>
<!-- os::environment_variable/2 -->
<g id="node22" class="node">
<title>os::environment_variable/2</title>
<g id="a_node22"><a xlink:href="http://logtalk.org/library/os_0.html#environment_variable/2" xlink:title="http://logtalk.org/library/os_0.html#environment_variable/2">
<ellipse fill="#d3d3d3" stroke="#000000" stroke-dasharray="5,2" cx="330" cy="-292.64" rx="141.343" ry="21.4286"/>
<text text-anchor="start" x="238" y="-295.44" font-family="Courier,monospace" font-size="9.00" fill="#000000"> </text>
<text text-anchor="start" x="244" y="-294.84" font-family="Courier,monospace" font-size="11.00" fill="#000000">os::environment_variable/2</text>
<text text-anchor="start" x="416" y="-295.44" font-family="Courier,monospace" font-size="9.00" fill="#000000"> </text>
<text text-anchor="start" x="238" y="-284.44" font-family="Courier,monospace" font-size="9.00" fill="#000000"> </text>
<text text-anchor="start" x="313" y="-285.04" font-family="Courier,monospace" font-size="7.00" fill="#000000">external</text>
<text text-anchor="start" x="416" y="-284.44" font-family="Courier,monospace" font-size="9.00" fill="#000000"> </text>
</a>
</g>
</g>
<!-- open/2&#45;&gt;os::environment_variable/2 -->
<g id="edge27" class="edge">
<title>open/2&#45;&gt;os::environment_variable/2</title>
<g id="a_edge27"><a xlink:title="calls">
<path fill="none" stroke="#000000" d="M390.027,-505.849C378.496,-464.894 353.098,-374.682 339.324,-325.756"/>
<polygon fill="#000000" stroke="#000000" points="339.26,-325.529 333.783,-320.837 336.008,-313.978 339.26,-325.529"/>
</a>
</g>
<text text-anchor="start" x="364" y="-407.653" font-family="Courier,monospace" font-size="9.00" fill="#000000">calls</text>
</g>
<!-- os::shell/1 -->
<g id="node23" class="node">
<title>os::shell/1</title>
<g id="a_node23"><a xlink:href="http://logtalk.org/library/os_0.html#shell/1" xlink:title="http://logtalk.org/library/os_0.html#shell/1">
<ellipse fill="#d3d3d3" stroke="#000000" stroke-dasharray="5,2" cx="99" cy="-292.64" rx="71.3357" ry="21.4286"/>
<text text-anchor="start" x="57" y="-295.44" font-family="Courier,monospace" font-size="9.00" fill="#000000"> </text>
<text text-anchor="start" x="63" y="-294.84" font-family="Courier,monospace" font-size="11.00" fill="#000000">os::shell/1</text>
<text text-anchor="start" x="136" y="-295.44" font-family="Courier,monospace" font-size="9.00" fill="#000000"> </text>
<text text-anchor="start" x="57" y="-284.44" font-family="Courier,monospace" font-size="9.00" fill="#000000"> </text>
<text text-anchor="start" x="82.5" y="-285.04" font-family="Courier,monospace" font-size="7.00" fill="#000000">external</text>
<text text-anchor="start" x="136" y="-284.44" font-family="Courier,monospace" font-size="9.00" fill="#000000"> </text>
</a>
</g>
</g>
<!-- open/2&#45;&gt;os::shell/1 -->
<g id="edge28" class="edge">
<title>open/2&#45;&gt;os::shell/1</title>
<g id="a_edge28"><a xlink:title="calls">
<path fill="none" stroke="#000000" d="M372.447,-508.475C320.33,-467.339 195.035,-368.441 133.829,-320.131"/>
<polygon fill="#000000" stroke="#000000" points="133.646,-319.986 126.458,-319.408 124.226,-312.551 133.646,-319.986"/>
</a>
</g>
<text text-anchor="start" x="253" y="-407.653" font-family="Courier,monospace" font-size="9.00" fill="#000000">calls</text>
</g>
</g>
</svg>
