<?xml version="1.0" encoding="UTF-8" standalone="no"?>
<!DOCTYPE svg PUBLIC "-//W3C//DTD SVG 1.1//EN"
 "http://www.w3.org/Graphics/SVG/1.1/DTD/svg11.dtd">
<!-- Generated by graphviz version 2.39.20161028.1504 (20161028.1504)
 -->
<!-- Title: inheritance_diagram_1_object Pages: 1 -->
<svg width="632pt" height="268pt"
 viewBox="72.00 72.00 560.00 196.43" xmlns="http://www.w3.org/2000/svg" xmlns:xlink="http://www.w3.org/1999/xlink">
<g id="graph0" class="graph" transform="scale(1 1) rotate(0) translate(76 192.426)">
<title>inheritance_diagram_1_object</title>
<polygon fill="#ffffff" stroke="transparent" points="-4,4 -4,-120.426 484,-120.426 484,4 -4,4"/>
<text text-anchor="start" x="8" y="-7" font-family="Courier,monospace" font-size="10.00" fill="#8b8989">Generated on 2016/11/04, 00:44</text>
<g id="clust1" class="cluster">
<title>cluster_inheritance_diagram_1_object</title>
<g id="a_clust1"><a xlink:href="https://github.com/LogtalkDotOrg/logtalk3/tree/master/tools/diagrams/inheritance_diagram.lgt" xlink:title="https://github.com/LogtalkDotOrg/logtalk3/tree/master/tools/diagrams/inheritance_diagram.lgt">
<path fill="#fffafa" stroke="#8b8989" d="M20,-27C20,-27 460,-27 460,-27 466,-27 472,-33 472,-39 472,-39 472,-96.4264 472,-96.4264 472,-102.426 466,-108.426 460,-108.426 460,-108.426 20,-108.426 20,-108.426 14,-108.426 8,-102.426 8,-96.4264 8,-96.4264 8,-39 8,-39 8,-33 14,-27 20,-27"/>
<text text-anchor="middle" x="97.5" y="-96.4264" font-family="Courier,monospace" font-size="10.00" fill="#8b8989">inheritance_diagram(Format)</text>
</a>
</g>
</g>
<!-- default_option/1 -->
<g id="node1" class="node">
<title>default_option/1</title>
<ellipse fill="#f5f5dc" stroke="#000000" cx="367" cy="-58.2132" rx="94.5053" ry="21.4286"/>
<text text-anchor="start" x="308" y="-61.0132" font-family="Courier,monospace" font-size="9.00" fill="#000000"> </text>
<text text-anchor="start" x="314" y="-60.4132" font-family="Courier,monospace" font-size="11.00" fill="#000000">default_option/1</text>
<text text-anchor="start" x="420" y="-61.0132" font-family="Courier,monospace" font-size="9.00" fill="#000000"> </text>
<text text-anchor="start" x="308" y="-50.0132" font-family="Courier,monospace" font-size="9.00" fill="#000000"> </text>
<text text-anchor="start" x="356" y="-50.6132" font-family="Courier,monospace" font-size="7.00" fill="#000000">local</text>
<text text-anchor="start" x="420" y="-50.0132" font-family="Courier,monospace" font-size="9.00" fill="#000000"> </text>
</g>
<!-- diagram_name_suffix/1 -->
<g id="node2" class="node">
<title>diagram_name_suffix/1</title>
<ellipse fill="#f5f5dc" stroke="#000000" cx="136" cy="-58.2132" rx="118.174" ry="21.4286"/>
<text text-anchor="start" x="61" y="-61.0132" font-family="Courier,monospace" font-size="9.00" fill="#000000"> </text>
<text text-anchor="start" x="67" y="-60.4132" font-family="Courier,monospace" font-size="11.00" fill="#000000">diagram_name_suffix/1</text>
<text text-anchor="start" x="206" y="-61.0132" font-family="Courier,monospace" font-size="9.00" fill="#000000"> </text>
<text text-anchor="start" x="61" y="-50.0132" font-family="Courier,monospace" font-size="9.00" fill="#000000"> </text>
<text text-anchor="start" x="125.5" y="-50.6132" font-family="Courier,monospace" font-size="7.00" fill="#000000">local</text>
<text text-anchor="start" x="206" y="-50.0132" font-family="Courier,monospace" font-size="9.00" fill="#000000"> </text>
</g>
</g>
</svg>
