<?xml version="1.0" encoding="UTF-8" standalone="no"?>
<!DOCTYPE svg PUBLIC "-//W3C//DTD SVG 1.1//EN"
 "http://www.w3.org/Graphics/SVG/1.1/DTD/svg11.dtd">
<!-- Generated by graphviz version 2.39.20161028.1504 (20161028.1504)
 -->
<!-- Title: lgtdoc Pages: 1 -->
<svg width="520pt" height="689pt"
 viewBox="72.00 72.00 448.00 617.00" xmlns="http://www.w3.org/2000/svg" xmlns:xlink="http://www.w3.org/1999/xlink">
<g id="graph0" class="graph" transform="scale(1 1) rotate(0) translate(76 613)">
<title>lgtdoc</title>
<polygon fill="#ffffff" stroke="transparent" points="-4,4 -4,-541 372,-541 372,4 -4,4"/>
<text text-anchor="start" x="8" y="-18" font-family="Courier,monospace" font-size="10.00" fill="#8b8989">lgtdoc tool</text>
<text text-anchor="start" x="8" y="-7" font-family="Courier,monospace" font-size="10.00" fill="#8b8989">Generated on 2016/11/04, 00:44</text>
<g id="clust1" class="cluster">
<title>cluster_library_lgtdoc</title>
<g id="a_clust1"><a xlink:href="https://github.com/LogtalkDotOrg/logtalk3/tree/master/tools/lgtdoc/" xlink:title="https://github.com/LogtalkDotOrg/logtalk3/tree/master/tools/lgtdoc/">
<path fill="#eee9e9" stroke="#8b8989" d="M20,-38C20,-38 348,-38 348,-38 354,-38 360,-44 360,-50 360,-50 360,-517 360,-517 360,-523 354,-529 348,-529 348,-529 20,-529 20,-529 14,-529 8,-523 8,-517 8,-517 8,-50 8,-50 8,-44 14,-38 20,-38"/>
<text text-anchor="middle" x="34.5" y="-45" font-family="Courier,monospace" font-size="10.00" fill="#8b8989">lgtdoc</text>
</a>
</g>
</g>
<g id="clust3" class="cluster">
<title>cluster_file_/Users/pmoura/logtalk/tools/lgtdoc/lgtdocp.lgt</title>
<g id="a_clust3"><a xlink:href="https://github.com/LogtalkDotOrg/logtalk3/tree/master/tools/lgtdoc/lgtdocp.lgt" xlink:title="https://github.com/LogtalkDotOrg/logtalk3/tree/master/tools/lgtdoc/lgtdocp.lgt">
<path fill="#fffafa" stroke="#8b8989" d="M30,-300C30,-300 120,-300 120,-300 126,-300 132,-306 132,-312 132,-312 132,-507 132,-507 132,-513 126,-519 120,-519 120,-519 30,-519 30,-519 24,-519 18,-513 18,-507 18,-507 18,-312 18,-312 18,-306 24,-300 30,-300"/>
<text text-anchor="middle" x="59.5" y="-307" font-family="Courier,monospace" font-size="10.00" fill="#8b8989">lgtdocp.lgt</text>
</a>
</g>
</g>
<g id="clust4" class="cluster">
<title>cluster_file_/Users/pmoura/logtalk/tools/lgtdoc/lgtdoc.lgt</title>
<g id="a_clust4"><a xlink:href="https://github.com/LogtalkDotOrg/logtalk3/tree/master/tools/lgtdoc/lgtdoc.lgt" xlink:title="https://github.com/LogtalkDotOrg/logtalk3/tree/master/tools/lgtdoc/lgtdoc.lgt">
<path fill="#fffafa" stroke="#8b8989" d="M169,-67C169,-67 239,-67 239,-67 245,-67 251,-73 251,-79 251,-79 251,-135 251,-135 251,-141 245,-147 239,-147 239,-147 169,-147 169,-147 163,-147 157,-141 157,-135 157,-135 157,-79 157,-79 157,-73 163,-67 169,-67"/>
<text text-anchor="middle" x="195.5" y="-74" font-family="Courier,monospace" font-size="10.00" fill="#8b8989">lgtdoc.lgt</text>
</a>
</g>
</g>
<g id="clust5" class="cluster">
<title>cluster_other</title>
<g id="a_clust5"><a xlink:title="(external entities)">
<path fill="#ffffff" stroke="#8b8989" d="M154,-372C154,-372 338,-372 338,-372 344,-372 350,-378 350,-384 350,-384 350,-435 350,-435 350,-441 344,-447 338,-447 338,-447 154,-447 154,-447 148,-447 142,-441 142,-435 142,-435 142,-384 142,-384 142,-378 148,-372 154,-372"/>
<text text-anchor="middle" x="207.5" y="-379" font-family="Courier,monospace" font-size="10.00" fill="#8b8989">(external entities)</text>
</a>
</g>
</g>
<!-- lgtdocp -->
<g id="node1" class="node">
<title>lgtdocp</title>
<g id="a_node1"><a xlink:href="http://logtalk.org/library/lgtdocp_0.html" xlink:title="http://logtalk.org/library/lgtdocp_0.html">
<polygon fill="#7fffd4" stroke="#000000" points="115.5,-509 28.5,-509 28.5,-329 121.5,-329 121.5,-503 115.5,-509"/>
<polyline fill="none" stroke="#000000" points="115.5,-509 115.5,-503 "/>
<polyline fill="none" stroke="#000000" points="121.5,-503 115.5,-503 "/>
<text text-anchor="start" x="37" y="-496.8" font-family="Courier,monospace" font-size="9.00" fill="#000000"> </text>
<text text-anchor="start" x="52" y="-496.2" font-family="Courier,monospace" font-size="11.00" fill="#000000">lgtdocp</text>
<text text-anchor="start" x="108" y="-496.8" font-family="Courier,monospace" font-size="9.00" fill="#000000"> </text>
<text text-anchor="start" x="37" y="-485.8" font-family="Courier,monospace" font-size="9.00" fill="#000000"> </text>
<text text-anchor="start" x="58.5" y="-486.4" font-family="Courier,monospace" font-size="7.00" fill="#000000">protocol</text>
<text text-anchor="start" x="108" y="-485.8" font-family="Courier,monospace" font-size="9.00" fill="#000000"> </text>
<text text-anchor="start" x="37" y="-475.8" font-family="Courier,monospace" font-size="9.00" fill="#000000"> </text>
<text text-anchor="start" x="37" y="-465.8" font-family="Courier,monospace" font-size="9.00" fill="#000000"> </text>
<text text-anchor="start" x="48" y="-465.8" font-family="Courier,monospace" font-size="9.00" fill="#000000">rlibrary/2</text>
<text text-anchor="start" x="108" y="-465.8" font-family="Courier,monospace" font-size="9.00" fill="#000000"> </text>
<text text-anchor="start" x="37" y="-455.8" font-family="Courier,monospace" font-size="9.00" fill="#000000"> </text>
<text text-anchor="start" x="48" y="-455.8" font-family="Courier,monospace" font-size="9.00" fill="#000000">rlibrary/1</text>
<text text-anchor="start" x="108" y="-455.8" font-family="Courier,monospace" font-size="9.00" fill="#000000"> </text>
<text text-anchor="start" x="37" y="-445.8" font-family="Courier,monospace" font-size="9.00" fill="#000000"> </text>
<text text-anchor="start" x="51" y="-445.8" font-family="Courier,monospace" font-size="9.00" fill="#000000">library/2</text>
<text text-anchor="start" x="108" y="-445.8" font-family="Courier,monospace" font-size="9.00" fill="#000000"> </text>
<text text-anchor="start" x="37" y="-435.8" font-family="Courier,monospace" font-size="9.00" fill="#000000"> </text>
<text text-anchor="start" x="51" y="-435.8" font-family="Courier,monospace" font-size="9.00" fill="#000000">library/1</text>
<text text-anchor="start" x="108" y="-435.8" font-family="Courier,monospace" font-size="9.00" fill="#000000"> </text>
<text text-anchor="start" x="37" y="-425.8" font-family="Courier,monospace" font-size="9.00" fill="#000000"> </text>
<text text-anchor="start" x="43" y="-425.8" font-family="Courier,monospace" font-size="9.00" fill="#000000">rdirectory/2</text>
<text text-anchor="start" x="108" y="-425.8" font-family="Courier,monospace" font-size="9.00" fill="#000000"> </text>
<text text-anchor="start" x="37" y="-415.8" font-family="Courier,monospace" font-size="9.00" fill="#000000"> </text>
<text text-anchor="start" x="43" y="-415.8" font-family="Courier,monospace" font-size="9.00" fill="#000000">rdirectory/1</text>
<text text-anchor="start" x="108" y="-415.8" font-family="Courier,monospace" font-size="9.00" fill="#000000"> </text>
<text text-anchor="start" x="37" y="-405.8" font-family="Courier,monospace" font-size="9.00" fill="#000000"> </text>
<text text-anchor="start" x="45.5" y="-405.8" font-family="Courier,monospace" font-size="9.00" fill="#000000">directory/2</text>
<text text-anchor="start" x="108" y="-405.8" font-family="Courier,monospace" font-size="9.00" fill="#000000"> </text>
<text text-anchor="start" x="37" y="-395.8" font-family="Courier,monospace" font-size="9.00" fill="#000000"> </text>
<text text-anchor="start" x="45.5" y="-395.8" font-family="Courier,monospace" font-size="9.00" fill="#000000">directory/1</text>
<text text-anchor="start" x="108" y="-395.8" font-family="Courier,monospace" font-size="9.00" fill="#000000"> </text>
<text text-anchor="start" x="37" y="-385.8" font-family="Courier,monospace" font-size="9.00" fill="#000000"> </text>
<text text-anchor="start" x="59" y="-385.8" font-family="Courier,monospace" font-size="9.00" fill="#000000">file/2</text>
<text text-anchor="start" x="108" y="-385.8" font-family="Courier,monospace" font-size="9.00" fill="#000000"> </text>
<text text-anchor="start" x="37" y="-375.8" font-family="Courier,monospace" font-size="9.00" fill="#000000"> </text>
<text text-anchor="start" x="59" y="-375.8" font-family="Courier,monospace" font-size="9.00" fill="#000000">file/1</text>
<text text-anchor="start" x="108" y="-375.8" font-family="Courier,monospace" font-size="9.00" fill="#000000"> </text>
<text text-anchor="start" x="37" y="-365.8" font-family="Courier,monospace" font-size="9.00" fill="#000000"> </text>
<text text-anchor="start" x="61.5" y="-365.8" font-family="Courier,monospace" font-size="9.00" fill="#000000">all/1</text>
<text text-anchor="start" x="108" y="-365.8" font-family="Courier,monospace" font-size="9.00" fill="#000000"> </text>
<text text-anchor="start" x="37" y="-355.8" font-family="Courier,monospace" font-size="9.00" fill="#000000"> </text>
<text text-anchor="start" x="61.5" y="-355.8" font-family="Courier,monospace" font-size="9.00" fill="#000000">all/0</text>
<text text-anchor="start" x="108" y="-355.8" font-family="Courier,monospace" font-size="9.00" fill="#000000"> </text>
<text text-anchor="start" x="37" y="-345.8" font-family="Courier,monospace" font-size="9.00" fill="#000000"> </text>
<text text-anchor="start" x="53.5" y="-345.8" font-family="Courier,monospace" font-size="9.00" fill="#000000">option/2</text>
<text text-anchor="start" x="108" y="-345.8" font-family="Courier,monospace" font-size="9.00" fill="#000000"> </text>
<text text-anchor="start" x="37" y="-335.8" font-family="Courier,monospace" font-size="9.00" fill="#000000"> </text>
<text text-anchor="start" x="43" y="-335.8" font-family="Courier,monospace" font-size="9.00" fill="#000000">set_option/2</text>
<text text-anchor="start" x="108" y="-335.8" font-family="Courier,monospace" font-size="9.00" fill="#000000"> </text>
</a>
</g>
</g>
<!-- lgtdoc -->
<g id="node2" class="node">
<title>lgtdoc</title>
<g id="a_node2"><a xlink:href="http://logtalk.org/library/lgtdoc_0.html" xlink:title="http://logtalk.org/library/lgtdoc_0.html">
<polygon fill="#f5f5dc" stroke="#000000" points="240.5,-137 167.5,-137 167.5,-96 240.5,-96 240.5,-137"/>
</a>
</g>
<g id="a_node2_0"><a xlink:href="lgtdoc_object_xref_diagram.svg" xlink:title="Zoom">
<image xlink:href="zoom.png" width="11px" height="11px" preserveAspectRatio="xMinYMin meet" x="176" y="-132.5"/>
</a>
</g>
<g><a xlink:href="http://logtalk.org/library/lgtdoc_0.html" xlink:title="http://logtalk.org/library/lgtdoc_0.html">
<text text-anchor="start" x="178.5" y="-113.3" font-family="Courier,monospace" font-size="9.00" fill="#000000"> </text>
<text text-anchor="start" x="187" y="-112.7" font-family="Courier,monospace" font-size="11.00" fill="#000000">lgtdoc</text>
<text text-anchor="start" x="227" y="-113.3" font-family="Courier,monospace" font-size="9.00" fill="#000000"> </text>
<text text-anchor="start" x="178.5" y="-102.3" font-family="Courier,monospace" font-size="9.00" fill="#000000"> </text>
<text text-anchor="start" x="188" y="-102.9" font-family="Courier,monospace" font-size="7.00" fill="#000000">prototype</text>
<text text-anchor="start" x="227" y="-102.3" font-family="Courier,monospace" font-size="9.00" fill="#000000"> </text>
</a>
</g>
</g>
<!-- lgtdoc&#45;&gt;lgtdocp -->
<g id="edge1" class="edge">
<title>lgtdoc&#45;&gt;lgtdocp</title>
<g id="a_edge1"><a xlink:title="implements">
<path fill="none" stroke="#000000" d="M192.048,-137.043C179.471,-159.103 159.523,-195.39 145,-228 131.754,-257.741 118.971,-290.831 108.035,-321"/>
<ellipse fill="#000000" stroke="#000000" cx="106.651" cy="-324.841" rx="4.00001" ry="4.00001"/>
</a>
</g>
<text text-anchor="start" x="145" y="-230.8" font-family="Courier,monospace" font-size="9.00" fill="#000000">implements</text>
</g>
<!-- logtalk -->
<g id="node3" class="node">
<title>logtalk</title>
<g id="a_node3"><a xlink:title="built&#45;in prototype">
<polygon fill="#f5f5dc" stroke="#000000" stroke-dasharray="5,2" points="256,-437 152,-437 152,-401 256,-401 256,-437"/>
<text text-anchor="start" x="160" y="-421.8" font-family="Courier,monospace" font-size="9.00" fill="#000000"> </text>
<text text-anchor="start" x="180.5" y="-421.2" font-family="Courier,monospace" font-size="11.00" fill="#000000">logtalk</text>
<text text-anchor="start" x="242" y="-421.8" font-family="Courier,monospace" font-size="9.00" fill="#000000"> </text>
<text text-anchor="start" x="160" y="-410.8" font-family="Courier,monospace" font-size="9.00" fill="#000000"> </text>
<text text-anchor="start" x="166" y="-411.4" font-family="Courier,monospace" font-size="7.00" fill="#000000">built&#45;in prototype</text>
<text text-anchor="start" x="242" y="-410.8" font-family="Courier,monospace" font-size="9.00" fill="#000000"> </text>
</a>
</g>
</g>
<!-- lgtdoc&#45;&gt;logtalk -->
<g id="edge2" class="edge">
<title>lgtdoc&#45;&gt;logtalk</title>
<g id="a_edge2"><a xlink:title="uses">
<path fill="none" stroke="#000000" d="M204,-137.292C204,-189.647 204,-327.106 204,-388.556"/>
<polygon fill="#000000" stroke="#000000" points="204,-388.792 208,-394.792 204,-400.792 204,-388.792"/>
</a>
</g>
<text text-anchor="start" x="204" y="-230.8" font-family="Courier,monospace" font-size="9.00" fill="#000000">uses</text>
</g>
<!-- os -->
<g id="node4" class="node">
<title>os</title>
<g id="a_node4"><a xlink:title="prototype">
<polygon fill="#f5f5dc" stroke="#000000" stroke-dasharray="5,2" points="340,-437 274,-437 274,-401 340,-401 340,-437"/>
<text text-anchor="start" x="282" y="-421.8" font-family="Courier,monospace" font-size="9.00" fill="#000000"> </text>
<text text-anchor="start" x="300" y="-421.2" font-family="Courier,monospace" font-size="11.00" fill="#000000">os</text>
<text text-anchor="start" x="326" y="-421.8" font-family="Courier,monospace" font-size="9.00" fill="#000000"> </text>
<text text-anchor="start" x="282" y="-410.8" font-family="Courier,monospace" font-size="9.00" fill="#000000"> </text>
<text text-anchor="start" x="288" y="-411.4" font-family="Courier,monospace" font-size="7.00" fill="#000000">prototype</text>
<text text-anchor="start" x="326" y="-410.8" font-family="Courier,monospace" font-size="9.00" fill="#000000"> </text>
</a>
</g>
</g>
<!-- lgtdoc&#45;&gt;os -->
<g id="edge3" class="edge">
<title>lgtdoc&#45;&gt;os</title>
<g id="a_edge3"><a xlink:title="uses">
<path fill="none" stroke="#000000" d="M211.08,-137.292C228.981,-189.866 276.104,-328.26 296.896,-389.325"/>
<polygon fill="#000000" stroke="#000000" points="296.932,-389.432 302.653,-393.823 300.8,-400.792 296.932,-389.432"/>
</a>
</g>
<text text-anchor="start" x="245" y="-230.8" font-family="Courier,monospace" font-size="9.00" fill="#000000">uses</text>
</g>
</g>
</svg>
