<?xml version="1.0" encoding="UTF-8" standalone="no"?>
<!DOCTYPE svg PUBLIC "-//W3C//DTD SVG 1.1//EN"
 "http://www.w3.org/Graphics/SVG/1.1/DTD/svg11.dtd">
<!-- Generated by graphviz version 2.39.20161028.1504 (20161028.1504)
 -->
<!-- Title: lgtunit Pages: 1 -->
<svg width="1348pt" height="715pt"
 viewBox="72.00 72.00 1276.00 643.00" xmlns="http://www.w3.org/2000/svg" xmlns:xlink="http://www.w3.org/1999/xlink">
<g id="graph0" class="graph" transform="scale(1 1) rotate(0) translate(76 639)">
<title>lgtunit</title>
<polygon fill="#ffffff" stroke="transparent" points="-4,4 -4,-567 1200,-567 1200,4 -4,4"/>
<text text-anchor="start" x="8" y="-18" font-family="Courier,monospace" font-size="10.00" fill="#8b8989">lgtunit tool</text>
<text text-anchor="start" x="8" y="-7" font-family="Courier,monospace" font-size="10.00" fill="#8b8989">Generated on 2016/11/04, 00:44</text>
<g id="clust1" class="cluster">
<title>cluster_library_lgtunit</title>
<g id="a_clust1"><a xlink:href="https://github.com/LogtalkDotOrg/logtalk3/tree/master/tools/lgtunit/" xlink:title="https://github.com/LogtalkDotOrg/logtalk3/tree/master/tools/lgtunit/">
<path fill="#eee9e9" stroke="#8b8989" d="M20,-38C20,-38 1176,-38 1176,-38 1182,-38 1188,-44 1188,-50 1188,-50 1188,-543 1188,-543 1188,-549 1182,-555 1176,-555 1176,-555 20,-555 20,-555 14,-555 8,-549 8,-543 8,-543 8,-50 8,-50 8,-44 14,-38 20,-38"/>
<text text-anchor="middle" x="37.5" y="-45" font-family="Courier,monospace" font-size="10.00" fill="#8b8989">lgtunit</text>
</a>
</g>
</g>
<g id="clust3" class="cluster">
<title>cluster_file_/Users/pmoura/logtalk/tools/lgtunit/lgtunit.lgt</title>
<g id="a_clust3"><a xlink:href="https://github.com/LogtalkDotOrg/logtalk3/tree/master/tools/lgtunit/lgtunit.lgt" xlink:title="https://github.com/LogtalkDotOrg/logtalk3/tree/master/tools/lgtunit/lgtunit.lgt">
<path fill="#fffafa" stroke="#8b8989" d="M1018,-67C1018,-67 1166,-67 1166,-67 1172,-67 1178,-73 1178,-79 1178,-79 1178,-305 1178,-305 1178,-311 1172,-317 1166,-317 1166,-317 1018,-317 1018,-317 1012,-317 1006,-311 1006,-305 1006,-305 1006,-79 1006,-79 1006,-73 1012,-67 1018,-67"/>
<text text-anchor="middle" x="1047.5" y="-74" font-family="Courier,monospace" font-size="10.00" fill="#8b8989">lgtunit.lgt</text>
</a>
</g>
</g>
<g id="clust4" class="cluster">
<title>cluster_file_/Users/pmoura/logtalk/tools/lgtunit/lgtunit_messages.lgt</title>
<g id="a_clust4"><a xlink:href="https://github.com/LogtalkDotOrg/logtalk3/tree/master/tools/lgtunit/lgtunit_messages.lgt" xlink:title="https://github.com/LogtalkDotOrg/logtalk3/tree/master/tools/lgtunit/lgtunit_messages.lgt">
<path fill="#fffafa" stroke="#8b8989" d="M782,-137C782,-137 984,-137 984,-137 990,-137 996,-143 996,-149 996,-149 996,-235 996,-235 996,-241 990,-247 984,-247 984,-247 782,-247 782,-247 776,-247 770,-241 770,-235 770,-235 770,-149 770,-149 770,-143 776,-137 782,-137"/>
<text text-anchor="middle" x="838.5" y="-144" font-family="Courier,monospace" font-size="10.00" fill="#8b8989">lgtunit_messages.lgt</text>
</a>
</g>
</g>
<g id="clust5" class="cluster">
<title>cluster_file_/Users/pmoura/logtalk/tools/lgtunit/tap_output.lgt</title>
<g id="a_clust5"><a xlink:href="https://github.com/LogtalkDotOrg/logtalk3/tree/master/tools/lgtunit/tap_output.lgt" xlink:title="https://github.com/LogtalkDotOrg/logtalk3/tree/master/tools/lgtunit/tap_output.lgt">
<path fill="#fffafa" stroke="#8b8989" d="M594,-142C594,-142 748,-142 748,-142 754,-142 760,-148 760,-154 760,-154 760,-230 760,-230 760,-236 754,-242 748,-242 748,-242 594,-242 594,-242 588,-242 582,-236 582,-230 582,-230 582,-154 582,-154 582,-148 588,-142 594,-142"/>
<text text-anchor="middle" x="632.5" y="-149" font-family="Courier,monospace" font-size="10.00" fill="#8b8989">tap_output.lgt</text>
</a>
</g>
</g>
<g id="clust6" class="cluster">
<title>cluster_file_/Users/pmoura/logtalk/tools/lgtunit/tap_report.lgt</title>
<g id="a_clust6"><a xlink:href="https://github.com/LogtalkDotOrg/logtalk3/tree/master/tools/lgtunit/tap_report.lgt" xlink:title="https://github.com/LogtalkDotOrg/logtalk3/tree/master/tools/lgtunit/tap_report.lgt">
<path fill="#fffafa" stroke="#8b8989" d="M406,-142C406,-142 560,-142 560,-142 566,-142 572,-148 572,-154 572,-154 572,-230 572,-230 572,-236 566,-242 560,-242 560,-242 406,-242 406,-242 400,-242 394,-236 394,-230 394,-230 394,-154 394,-154 394,-148 400,-142 406,-142"/>
<text text-anchor="middle" x="444.5" y="-149" font-family="Courier,monospace" font-size="10.00" fill="#8b8989">tap_report.lgt</text>
</a>
</g>
</g>
<g id="clust7" class="cluster">
<title>cluster_file_/Users/pmoura/logtalk/tools/lgtunit/xunit_output.lgt</title>
<g id="a_clust7"><a xlink:href="https://github.com/LogtalkDotOrg/logtalk3/tree/master/tools/lgtunit/xunit_output.lgt" xlink:title="https://github.com/LogtalkDotOrg/logtalk3/tree/master/tools/lgtunit/xunit_output.lgt">
<path fill="#fffafa" stroke="#8b8989" d="M218,-142C218,-142 372,-142 372,-142 378,-142 384,-148 384,-154 384,-154 384,-230 384,-230 384,-236 378,-242 372,-242 372,-242 218,-242 218,-242 212,-242 206,-236 206,-230 206,-230 206,-154 206,-154 206,-148 212,-142 218,-142"/>
<text text-anchor="middle" x="262.5" y="-149" font-family="Courier,monospace" font-size="10.00" fill="#8b8989">xunit_output.lgt</text>
</a>
</g>
</g>
<g id="clust8" class="cluster">
<title>cluster_file_/Users/pmoura/logtalk/tools/lgtunit/xunit_report.lgt</title>
<g id="a_clust8"><a xlink:href="https://github.com/LogtalkDotOrg/logtalk3/tree/master/tools/lgtunit/xunit_report.lgt" xlink:title="https://github.com/LogtalkDotOrg/logtalk3/tree/master/tools/lgtunit/xunit_report.lgt">
<path fill="#fffafa" stroke="#8b8989" d="M30,-142C30,-142 184,-142 184,-142 190,-142 196,-148 196,-154 196,-154 196,-230 196,-230 196,-236 190,-242 184,-242 184,-242 30,-242 30,-242 24,-242 18,-236 18,-230 18,-230 18,-154 18,-154 18,-148 24,-142 30,-142"/>
<text text-anchor="middle" x="74.5" y="-149" font-family="Courier,monospace" font-size="10.00" fill="#8b8989">xunit_report.lgt</text>
</a>
</g>
</g>
<g id="clust9" class="cluster">
<title>cluster_other</title>
<g id="a_clust9"><a xlink:title="(external entities)">
<path fill="#ffffff" stroke="#8b8989" d="M637,-470C637,-470 1107,-470 1107,-470 1113,-470 1119,-476 1119,-482 1119,-482 1119,-533 1119,-533 1119,-539 1113,-545 1107,-545 1107,-545 637,-545 637,-545 631,-545 625,-539 625,-533 625,-533 625,-482 625,-482 625,-476 631,-470 637,-470"/>
<text text-anchor="middle" x="690.5" y="-477" font-family="Courier,monospace" font-size="10.00" fill="#8b8989">(external entities)</text>
</a>
</g>
</g>
<!-- lgtunit -->
<g id="node1" class="node">
<title>lgtunit</title>
<g id="a_node1"><a xlink:href="http://logtalk.org/library/lgtunit_0.html" xlink:title="http://logtalk.org/library/lgtunit_0.html">
<polygon fill="#f5f5dc" stroke="#000000" points="1168,-307 1016,-307 1016,-96 1168,-96 1168,-307"/>
</a>
</g>
<g id="a_node1_0"><a xlink:href="lgtunit_object_xref_diagram.svg" xlink:title="Zoom">
<image xlink:href="zoom.png" width="11px" height="11px" preserveAspectRatio="xMinYMin meet" x="1024" y="-302.5"/>
</a>
</g>
<g><a xlink:href="http://logtalk.org/library/lgtunit_0.html" xlink:title="http://logtalk.org/library/lgtunit_0.html">
<text text-anchor="start" x="1026.5" y="-283.3" font-family="Courier,monospace" font-size="9.00" fill="#000000"> </text>
<text text-anchor="start" x="1071" y="-282.7" font-family="Courier,monospace" font-size="11.00" fill="#000000">lgtunit</text>
<text text-anchor="start" x="1154" y="-283.3" font-family="Courier,monospace" font-size="9.00" fill="#000000"> </text>
<text text-anchor="start" x="1026.5" y="-272.3" font-family="Courier,monospace" font-size="9.00" fill="#000000"> </text>
<text text-anchor="start" x="1075.5" y="-272.9" font-family="Courier,monospace" font-size="7.00" fill="#000000">prototype</text>
<text text-anchor="start" x="1154" y="-272.3" font-family="Courier,monospace" font-size="9.00" fill="#000000"> </text>
<text text-anchor="start" x="1026.5" y="-262.3" font-family="Courier,monospace" font-size="9.00" fill="#000000"> </text>
<text text-anchor="start" x="1026.5" y="-252.3" font-family="Courier,monospace" font-size="9.00" fill="#000000"> </text>
<text text-anchor="start" x="1075.5" y="-252.3" font-family="Courier,monospace" font-size="9.00" fill="#000000">cover/1</text>
<text text-anchor="start" x="1154" y="-252.3" font-family="Courier,monospace" font-size="9.00" fill="#000000"> </text>
<text text-anchor="start" x="1026.5" y="-242.3" font-family="Courier,monospace" font-size="9.00" fill="#000000"> </text>
<text text-anchor="start" x="1080.5" y="-242.3" font-family="Courier,monospace" font-size="9.00" fill="#000000">run/2</text>
<text text-anchor="start" x="1154" y="-242.3" font-family="Courier,monospace" font-size="9.00" fill="#000000"> </text>
<text text-anchor="start" x="1026.5" y="-232.3" font-family="Courier,monospace" font-size="9.00" fill="#000000"> </text>
<text text-anchor="start" x="1080.5" y="-232.3" font-family="Courier,monospace" font-size="9.00" fill="#000000">run/0</text>
<text text-anchor="start" x="1154" y="-232.3" font-family="Courier,monospace" font-size="9.00" fill="#000000"> </text>
<text text-anchor="start" x="1026.5" y="-222.3" font-family="Courier,monospace" font-size="9.00" fill="#000000"> </text>
<text text-anchor="start" x="1067" y="-222.3" font-family="Courier,monospace" font-size="9.00" fill="#000000">run_test/1</text>
<text text-anchor="start" x="1154" y="-222.3" font-family="Courier,monospace" font-size="9.00" fill="#000000"> </text>
<text text-anchor="start" x="1026.5" y="-212.3" font-family="Courier,monospace" font-size="9.00" fill="#000000"> </text>
<text text-anchor="start" x="1053.5" y="-212.3" font-family="Courier,monospace" font-size="9.00" fill="#000000">deterministic/1</text>
<text text-anchor="start" x="1154" y="-212.3" font-family="Courier,monospace" font-size="9.00" fill="#000000"> </text>
<text text-anchor="start" x="1026.5" y="-202.3" font-family="Courier,monospace" font-size="9.00" fill="#000000"> </text>
<text text-anchor="start" x="1059" y="-202.3" font-family="Courier,monospace" font-size="9.00" fill="#000000">quick_check/3</text>
<text text-anchor="start" x="1154" y="-202.3" font-family="Courier,monospace" font-size="9.00" fill="#000000"> </text>
<text text-anchor="start" x="1026.5" y="-192.3" font-family="Courier,monospace" font-size="9.00" fill="#000000"> </text>
<text text-anchor="start" x="1059" y="-192.3" font-family="Courier,monospace" font-size="9.00" fill="#000000">quick_check/2</text>
<text text-anchor="start" x="1154" y="-192.3" font-family="Courier,monospace" font-size="9.00" fill="#000000"> </text>
<text text-anchor="start" x="1026.5" y="-182.3" font-family="Courier,monospace" font-size="9.00" fill="#000000"> </text>
<text text-anchor="start" x="1059" y="-182.3" font-family="Courier,monospace" font-size="9.00" fill="#000000">quick_check/1</text>
<text text-anchor="start" x="1154" y="-182.3" font-family="Courier,monospace" font-size="9.00" fill="#000000"> </text>
<text text-anchor="start" x="1026.5" y="-172.3" font-family="Courier,monospace" font-size="9.00" fill="#000000"> </text>
<text text-anchor="start" x="1064.5" y="-172.3" font-family="Courier,monospace" font-size="9.00" fill="#000000">benchmark/2</text>
<text text-anchor="start" x="1154" y="-172.3" font-family="Courier,monospace" font-size="9.00" fill="#000000"> </text>
<text text-anchor="start" x="1026.5" y="-162.3" font-family="Courier,monospace" font-size="9.00" fill="#000000"> </text>
<text text-anchor="start" x="1064.5" y="-162.3" font-family="Courier,monospace" font-size="9.00" fill="#000000">benchmark/3</text>
<text text-anchor="start" x="1154" y="-162.3" font-family="Courier,monospace" font-size="9.00" fill="#000000"> </text>
<text text-anchor="start" x="1026.5" y="-152.3" font-family="Courier,monospace" font-size="9.00" fill="#000000"> </text>
<text text-anchor="start" x="1064.5" y="-152.3" font-family="Courier,monospace" font-size="9.00" fill="#000000">benchmark/4</text>
<text text-anchor="start" x="1154" y="-152.3" font-family="Courier,monospace" font-size="9.00" fill="#000000"> </text>
<text text-anchor="start" x="1026.5" y="-142.3" font-family="Courier,monospace" font-size="9.00" fill="#000000"> </text>
<text text-anchor="start" x="1070" y="-142.3" font-family="Courier,monospace" font-size="9.00" fill="#000000">variant/2</text>
<text text-anchor="start" x="1154" y="-142.3" font-family="Courier,monospace" font-size="9.00" fill="#000000"> </text>
<text text-anchor="start" x="1026.5" y="-132.3" font-family="Courier,monospace" font-size="9.00" fill="#000000"> </text>
<text text-anchor="start" x="1075.5" y="-132.3" font-family="Courier,monospace" font-size="9.00" fill="#000000">=~= / 2</text>
<text text-anchor="start" x="1154" y="-132.3" font-family="Courier,monospace" font-size="9.00" fill="#000000"> </text>
<text text-anchor="start" x="1026.5" y="-122.3" font-family="Courier,monospace" font-size="9.00" fill="#000000"> </text>
<text text-anchor="start" x="1070" y="-122.3" font-family="Courier,monospace" font-size="9.00" fill="#000000">epsilon/1</text>
<text text-anchor="start" x="1154" y="-122.3" font-family="Courier,monospace" font-size="9.00" fill="#000000"> </text>
<text text-anchor="start" x="1026.5" y="-112.3" font-family="Courier,monospace" font-size="9.00" fill="#000000"> </text>
<text text-anchor="start" x="1053.5" y="-112.3" font-family="Courier,monospace" font-size="9.00" fill="#000000">op(700,xfx,=~=)</text>
<text text-anchor="start" x="1154" y="-112.3" font-family="Courier,monospace" font-size="9.00" fill="#000000"> </text>
<text text-anchor="start" x="1026.5" y="-102.3" font-family="Courier,monospace" font-size="9.00" fill="#000000"> </text>
<text text-anchor="start" x="1035" y="-102.3" font-family="Courier,monospace" font-size="9.00" fill="#000000">logtalk::trace_event/2</text>
<text text-anchor="start" x="1154" y="-102.3" font-family="Courier,monospace" font-size="9.00" fill="#000000"> </text>
</a>
</g>
</g>
<!-- expanding -->
<g id="node7" class="node">
<title>expanding</title>
<g id="a_node7"><a xlink:title="built&#45;in protocol">
<polygon fill="#7fffd4" stroke="#000000" stroke-dasharray="5,2" points="1103,-535 1009,-535 1009,-499 1109,-499 1109,-529 1103,-535"/>
<polyline fill="none" stroke="#000000" stroke-dasharray="5,2" points="1103,-535 1103,-529 "/>
<polyline fill="none" stroke="#000000" stroke-dasharray="5,2" points="1109,-529 1103,-529 "/>
<text text-anchor="start" x="1017" y="-519.8" font-family="Courier,monospace" font-size="9.00" fill="#000000"> </text>
<text text-anchor="start" x="1029" y="-519.2" font-family="Courier,monospace" font-size="11.00" fill="#000000">expanding</text>
<text text-anchor="start" x="1095" y="-519.8" font-family="Courier,monospace" font-size="9.00" fill="#000000"> </text>
<text text-anchor="start" x="1017" y="-508.8" font-family="Courier,monospace" font-size="9.00" fill="#000000"> </text>
<text text-anchor="start" x="1023" y="-509.4" font-family="Courier,monospace" font-size="7.00" fill="#000000">built&#45;in protocol</text>
<text text-anchor="start" x="1095" y="-508.8" font-family="Courier,monospace" font-size="9.00" fill="#000000"> </text>
</a>
</g>
</g>
<!-- lgtunit&#45;&gt;expanding -->
<g id="edge1" class="edge">
<title>lgtunit&#45;&gt;expanding</title>
<g id="a_edge1"><a xlink:title="implements">
<path fill="none" stroke="#000000" d="M1094.05,-307.19C1093.44,-339.655 1091.52,-375.409 1087,-408 1083,-436.83 1074.17,-469.016 1067.49,-490.891"/>
<ellipse fill="#000000" stroke="#000000" cx="1066.24" cy="-494.921" rx="4.00001" ry="4.00001"/>
</a>
</g>
<text text-anchor="start" x="1088" y="-400.8" font-family="Courier,monospace" font-size="9.00" fill="#000000">implements</text>
</g>
<!-- logtalk -->
<g id="node8" class="node">
<title>logtalk</title>
<g id="a_node8"><a xlink:title="built&#45;in prototype">
<polygon fill="#f5f5dc" stroke="#000000" stroke-dasharray="5,2" points="739,-535 635,-535 635,-499 739,-499 739,-535"/>
<text text-anchor="start" x="643" y="-519.8" font-family="Courier,monospace" font-size="9.00" fill="#000000"> </text>
<text text-anchor="start" x="663.5" y="-519.2" font-family="Courier,monospace" font-size="11.00" fill="#000000">logtalk</text>
<text text-anchor="start" x="725" y="-519.8" font-family="Courier,monospace" font-size="9.00" fill="#000000"> </text>
<text text-anchor="start" x="643" y="-508.8" font-family="Courier,monospace" font-size="9.00" fill="#000000"> </text>
<text text-anchor="start" x="649" y="-509.4" font-family="Courier,monospace" font-size="7.00" fill="#000000">built&#45;in prototype</text>
<text text-anchor="start" x="725" y="-508.8" font-family="Courier,monospace" font-size="9.00" fill="#000000"> </text>
</a>
</g>
</g>
<!-- lgtunit&#45;&gt;logtalk -->
<g id="edge2" class="edge">
<title>lgtunit&#45;&gt;logtalk</title>
<g id="a_edge2"><a xlink:title="provides">
<path fill="none" stroke="#000000" d="M1015.9,-301.301C1010.69,-306.774 1005.38,-312.052 1000,-317 952.387,-360.829 930.789,-359.194 879,-398 847.942,-421.272 846.591,-436.403 812,-454 785.867,-467.294 774.392,-457.228 748,-470 736.06,-475.778 724.212,-484.138 714.179,-492.209"/>
<polygon fill="#000000" stroke="#000000" points="703.972,-496.172 713.891,-492.45 708.459,-501.546 703.972,-496.172"/>
</a>
</g>
<text text-anchor="start" x="879" y="-400.8" font-family="Courier,monospace" font-size="9.00" fill="#000000">provides</text>
</g>
<!-- lgtunit&#45;&gt;logtalk -->
<g id="edge3" class="edge">
<title>lgtunit&#45;&gt;logtalk</title>
<g id="a_edge3"><a xlink:title="uses">
<path fill="none" stroke="#000000" d="M1015.73,-302.908C1010.62,-307.884 1005.36,-312.623 1000,-317 938.566,-367.156 908.003,-355.569 841,-398 795.862,-426.585 747.731,-465.259 717.525,-490.652"/>
<polygon fill="#000000" stroke="#000000" points="717.156,-490.965 715.163,-497.895 707.999,-498.721 717.156,-490.965"/>
</a>
</g>
<text text-anchor="start" x="841" y="-400.8" font-family="Courier,monospace" font-size="9.00" fill="#000000">uses</text>
</g>
<!-- type -->
<g id="node9" class="node">
<title>type</title>
<g id="a_node9"><a xlink:title="prototype">
<polygon fill="#f5f5dc" stroke="#000000" stroke-dasharray="5,2" points="823,-535 757,-535 757,-499 823,-499 823,-535"/>
<text text-anchor="start" x="765" y="-519.8" font-family="Courier,monospace" font-size="9.00" fill="#000000"> </text>
<text text-anchor="start" x="776.5" y="-519.2" font-family="Courier,monospace" font-size="11.00" fill="#000000">type</text>
<text text-anchor="start" x="809" y="-519.8" font-family="Courier,monospace" font-size="9.00" fill="#000000"> </text>
<text text-anchor="start" x="765" y="-508.8" font-family="Courier,monospace" font-size="9.00" fill="#000000"> </text>
<text text-anchor="start" x="771" y="-509.4" font-family="Courier,monospace" font-size="7.00" fill="#000000">prototype</text>
<text text-anchor="start" x="809" y="-508.8" font-family="Courier,monospace" font-size="9.00" fill="#000000"> </text>
</a>
</g>
</g>
<!-- lgtunit&#45;&gt;type -->
<g id="edge4" class="edge">
<title>lgtunit&#45;&gt;type</title>
<g id="a_edge4"><a xlink:title="uses">
<path fill="none" stroke="#000000" d="M1018.4,-307.097C979.116,-357.151 927.129,-414.489 870,-454 854.928,-464.424 846.914,-459.352 832,-470 824.408,-475.421 817.214,-482.443 810.996,-489.399"/>
<polygon fill="#000000" stroke="#000000" points="810.905,-489.508 810.1,-496.674 803.176,-498.688 810.905,-489.508"/>
</a>
</g>
<text text-anchor="start" x="936" y="-400.8" font-family="Courier,monospace" font-size="9.00" fill="#000000">uses</text>
</g>
<!-- list -->
<g id="node10" class="node">
<title>list</title>
<g id="a_node10"><a xlink:title="prototype">
<polygon fill="#f5f5dc" stroke="#000000" stroke-dasharray="5,2" points="907,-535 841,-535 841,-499 907,-499 907,-535"/>
<text text-anchor="start" x="849" y="-519.8" font-family="Courier,monospace" font-size="9.00" fill="#000000"> </text>
<text text-anchor="start" x="860.5" y="-519.2" font-family="Courier,monospace" font-size="11.00" fill="#000000">list</text>
<text text-anchor="start" x="893" y="-519.8" font-family="Courier,monospace" font-size="9.00" fill="#000000"> </text>
<text text-anchor="start" x="849" y="-508.8" font-family="Courier,monospace" font-size="9.00" fill="#000000"> </text>
<text text-anchor="start" x="855" y="-509.4" font-family="Courier,monospace" font-size="7.00" fill="#000000">prototype</text>
<text text-anchor="start" x="893" y="-508.8" font-family="Courier,monospace" font-size="9.00" fill="#000000"> </text>
</a>
</g>
</g>
<!-- lgtunit&#45;&gt;list -->
<g id="edge5" class="edge">
<title>lgtunit&#45;&gt;list</title>
<g id="a_edge5"><a xlink:title="uses">
<path fill="none" stroke="#000000" d="M1050.58,-307.281C1027.02,-356.779 993.456,-413.583 950,-454 937.771,-465.374 929.389,-460.017 916,-470 908.521,-475.576 901.366,-482.651 895.148,-489.607"/>
<polygon fill="#000000" stroke="#000000" points="895.061,-489.709 894.237,-496.873 887.307,-498.868 895.061,-489.709"/>
</a>
</g>
<text text-anchor="start" x="997" y="-400.8" font-family="Courier,monospace" font-size="9.00" fill="#000000">uses</text>
</g>
<!-- os -->
<g id="node11" class="node">
<title>os</title>
<g id="a_node11"><a xlink:title="prototype">
<polygon fill="#f5f5dc" stroke="#000000" stroke-dasharray="5,2" points="991,-535 925,-535 925,-499 991,-499 991,-535"/>
<text text-anchor="start" x="933" y="-519.8" font-family="Courier,monospace" font-size="9.00" fill="#000000"> </text>
<text text-anchor="start" x="951" y="-519.2" font-family="Courier,monospace" font-size="11.00" fill="#000000">os</text>
<text text-anchor="start" x="977" y="-519.8" font-family="Courier,monospace" font-size="9.00" fill="#000000"> </text>
<text text-anchor="start" x="933" y="-508.8" font-family="Courier,monospace" font-size="9.00" fill="#000000"> </text>
<text text-anchor="start" x="939" y="-509.4" font-family="Courier,monospace" font-size="7.00" fill="#000000">prototype</text>
<text text-anchor="start" x="977" y="-508.8" font-family="Courier,monospace" font-size="9.00" fill="#000000"> </text>
</a>
</g>
</g>
<!-- lgtunit&#45;&gt;os -->
<g id="edge6" class="edge">
<title>lgtunit&#45;&gt;os</title>
<g id="a_edge6"><a xlink:title="uses">
<path fill="none" stroke="#000000" d="M1068.44,-307.236C1055.09,-354.346 1035.45,-409.187 1008,-454 1000.46,-466.307 990.86,-478.947 982.09,-489.643"/>
<polygon fill="#000000" stroke="#000000" points="982.07,-489.666 981.274,-496.833 974.352,-498.855 982.07,-489.666"/>
</a>
</g>
<text text-anchor="start" x="1036" y="-400.8" font-family="Courier,monospace" font-size="9.00" fill="#000000">uses</text>
</g>
<!-- lgtunit_messages -->
<g id="node2" class="node">
<title>lgtunit_messages</title>
<g id="a_node2"><a xlink:href="http://logtalk.org/library/lgtunit_messages_0.html" xlink:title="http://logtalk.org/library/lgtunit_messages_0.html">
<polygon fill="#e0ffff" stroke="#000000" points="986,-237 780,-237 780,-233 776,-233 776,-229 780,-229 780,-174 776,-174 776,-170 780,-170 780,-166 986,-166 986,-237"/>
<polyline fill="none" stroke="#000000" points="780,-233 784,-233 784,-229 780,-229 "/>
<polyline fill="none" stroke="#000000" points="780,-174 784,-174 784,-170 780,-170 "/>
</a>
</g>
<g id="a_node2_1"><a xlink:href="lgtunit_messages_category_xref_diagram.svg" xlink:title="Zoom">
<image xlink:href="zoom.png" width="11px" height="11px" preserveAspectRatio="xMinYMin meet" x="788" y="-232.5"/>
</a>
</g>
<g><a xlink:href="http://logtalk.org/library/lgtunit_messages_0.html" xlink:title="http://logtalk.org/library/lgtunit_messages_0.html">
<text text-anchor="start" x="790.5" y="-213.3" font-family="Courier,monospace" font-size="9.00" fill="#000000"> </text>
<text text-anchor="start" x="832.5" y="-212.7" font-family="Courier,monospace" font-size="11.00" fill="#000000">lgtunit_messages</text>
<text text-anchor="start" x="972" y="-213.3" font-family="Courier,monospace" font-size="9.00" fill="#000000"> </text>
<text text-anchor="start" x="790.5" y="-202.3" font-family="Courier,monospace" font-size="9.00" fill="#000000"> </text>
<text text-anchor="start" x="868.5" y="-202.9" font-family="Courier,monospace" font-size="7.00" fill="#000000">category</text>
<text text-anchor="start" x="972" y="-202.3" font-family="Courier,monospace" font-size="9.00" fill="#000000"> </text>
<text text-anchor="start" x="790.5" y="-192.3" font-family="Courier,monospace" font-size="9.00" fill="#000000"> </text>
<text text-anchor="start" x="790.5" y="-182.3" font-family="Courier,monospace" font-size="9.00" fill="#000000"> </text>
<text text-anchor="start" x="799" y="-182.3" font-family="Courier,monospace" font-size="9.00" fill="#000000">logtalk::message_prefix_stream/4</text>
<text text-anchor="start" x="972" y="-182.3" font-family="Courier,monospace" font-size="9.00" fill="#000000"> </text>
<text text-anchor="start" x="790.5" y="-172.3" font-family="Courier,monospace" font-size="9.00" fill="#000000"> </text>
<text text-anchor="start" x="815" y="-172.3" font-family="Courier,monospace" font-size="9.00" fill="#000000">logtalk::message_tokens//2</text>
<text text-anchor="start" x="972" y="-172.3" font-family="Courier,monospace" font-size="9.00" fill="#000000"> </text>
</a>
</g>
</g>
<!-- lgtunit_messages&#45;&gt;logtalk -->
<g id="edge7" class="edge">
<title>lgtunit_messages&#45;&gt;logtalk</title>
<g id="a_edge7"><a xlink:title="provides">
<path fill="none" stroke="#000000" d="M853.75,-237.317C823.295,-275.614 775.333,-338.845 741,-398 723.584,-428.008 707.705,-464.63 697.742,-489.256"/>
<polygon fill="#000000" stroke="#000000" points="690.722,-497.405 697.679,-489.415 697.223,-500 690.722,-497.405"/>
</a>
</g>
<text text-anchor="start" x="741" y="-400.8" font-family="Courier,monospace" font-size="9.00" fill="#000000">provides</text>
</g>
<!-- tap_output -->
<g id="node3" class="node">
<title>tap_output</title>
<g id="a_node3"><a xlink:href="http://logtalk.org/library/tap_output_0.html" xlink:title="http://logtalk.org/library/tap_output_0.html">
<polygon fill="#f5f5dc" stroke="#000000" points="750,-232 592,-232 592,-171 750,-171 750,-232"/>
</a>
</g>
<g id="a_node3_2"><a xlink:href="tap_output_object_xref_diagram.svg" xlink:title="Zoom">
<image xlink:href="zoom.png" width="11px" height="11px" preserveAspectRatio="xMinYMin meet" x="600" y="-227.5"/>
</a>
</g>
<g><a xlink:href="http://logtalk.org/library/tap_output_0.html" xlink:title="http://logtalk.org/library/tap_output_0.html">
<text text-anchor="start" x="602.5" y="-208.3" font-family="Courier,monospace" font-size="9.00" fill="#000000"> </text>
<text text-anchor="start" x="640" y="-207.7" font-family="Courier,monospace" font-size="11.00" fill="#000000">tap_output</text>
<text text-anchor="start" x="736" y="-208.3" font-family="Courier,monospace" font-size="9.00" fill="#000000"> </text>
<text text-anchor="start" x="602.5" y="-197.3" font-family="Courier,monospace" font-size="9.00" fill="#000000"> </text>
<text text-anchor="start" x="654.5" y="-197.9" font-family="Courier,monospace" font-size="7.00" fill="#000000">prototype</text>
<text text-anchor="start" x="736" y="-197.3" font-family="Courier,monospace" font-size="9.00" fill="#000000"> </text>
<text text-anchor="start" x="602.5" y="-187.3" font-family="Courier,monospace" font-size="9.00" fill="#000000"> </text>
<text text-anchor="start" x="602.5" y="-177.3" font-family="Courier,monospace" font-size="9.00" fill="#000000"> </text>
<text text-anchor="start" x="611" y="-177.3" font-family="Courier,monospace" font-size="9.00" fill="#000000">logtalk::message_hook/4</text>
<text text-anchor="start" x="736" y="-177.3" font-family="Courier,monospace" font-size="9.00" fill="#000000"> </text>
</a>
</g>
</g>
<!-- tap_output&#45;&gt;logtalk -->
<g id="edge8" class="edge">
<title>tap_output&#45;&gt;logtalk</title>
<g id="a_edge8"><a xlink:title="provides">
<path fill="none" stroke="#000000" d="M666.38,-232.048C660.988,-272.447 653.684,-345.796 661,-408 664.296,-436.022 672.202,-467.277 678.437,-489.109"/>
<polygon fill="#000000" stroke="#000000" points="677.89,-499.705 678.441,-489.124 684.608,-497.739 677.89,-499.705"/>
</a>
</g>
<text text-anchor="start" x="661" y="-400.8" font-family="Courier,monospace" font-size="9.00" fill="#000000">provides</text>
</g>
<!-- tap_report -->
<g id="node4" class="node">
<title>tap_report</title>
<g id="a_node4"><a xlink:href="http://logtalk.org/library/tap_report_0.html" xlink:title="http://logtalk.org/library/tap_report_0.html">
<polygon fill="#f5f5dc" stroke="#000000" points="562,-232 404,-232 404,-171 562,-171 562,-232"/>
</a>
</g>
<g id="a_node4_3"><a xlink:href="tap_report_object_xref_diagram.svg" xlink:title="Zoom">
<image xlink:href="zoom.png" width="11px" height="11px" preserveAspectRatio="xMinYMin meet" x="412" y="-227.5"/>
</a>
</g>
<g><a xlink:href="http://logtalk.org/library/tap_report_0.html" xlink:title="http://logtalk.org/library/tap_report_0.html">
<text text-anchor="start" x="414.5" y="-208.3" font-family="Courier,monospace" font-size="9.00" fill="#000000"> </text>
<text text-anchor="start" x="452" y="-207.7" font-family="Courier,monospace" font-size="11.00" fill="#000000">tap_report</text>
<text text-anchor="start" x="548" y="-208.3" font-family="Courier,monospace" font-size="9.00" fill="#000000"> </text>
<text text-anchor="start" x="414.5" y="-197.3" font-family="Courier,monospace" font-size="9.00" fill="#000000"> </text>
<text text-anchor="start" x="466.5" y="-197.9" font-family="Courier,monospace" font-size="7.00" fill="#000000">prototype</text>
<text text-anchor="start" x="548" y="-197.3" font-family="Courier,monospace" font-size="9.00" fill="#000000"> </text>
<text text-anchor="start" x="414.5" y="-187.3" font-family="Courier,monospace" font-size="9.00" fill="#000000"> </text>
<text text-anchor="start" x="414.5" y="-177.3" font-family="Courier,monospace" font-size="9.00" fill="#000000"> </text>
<text text-anchor="start" x="423" y="-177.3" font-family="Courier,monospace" font-size="9.00" fill="#000000">logtalk::message_hook/4</text>
<text text-anchor="start" x="548" y="-177.3" font-family="Courier,monospace" font-size="9.00" fill="#000000"> </text>
</a>
</g>
</g>
<!-- tap_report&#45;&gt;logtalk -->
<g id="edge9" class="edge">
<title>tap_report&#45;&gt;logtalk</title>
<g id="a_edge9"><a xlink:title="provides">
<path fill="none" stroke="#000000" d="M481.576,-232.296C481.033,-274.925 485.312,-352.885 519,-408 543.906,-448.748 590.452,-477.149 628.245,-494.722"/>
<polygon fill="#000000" stroke="#000000" points="636.208,-502.148 628.528,-494.85 639.084,-495.766 636.208,-502.148"/>
</a>
</g>
<text text-anchor="start" x="519" y="-400.8" font-family="Courier,monospace" font-size="9.00" fill="#000000">provides</text>
</g>
<!-- tap_report&#45;&gt;logtalk -->
<g id="edge10" class="edge">
<title>tap_report&#45;&gt;logtalk</title>
<g id="a_edge10"><a xlink:title="uses">
<path fill="none" stroke="#000000" d="M502.746,-232.038C542.282,-293.183 630.638,-429.832 668.833,-488.904"/>
<polygon fill="#000000" stroke="#000000" points="668.843,-488.919 675.46,-491.785 675.359,-498.996 668.843,-488.919"/>
</a>
</g>
<text text-anchor="start" x="616" y="-400.8" font-family="Courier,monospace" font-size="9.00" fill="#000000">uses</text>
</g>
<!-- xunit_output -->
<g id="node5" class="node">
<title>xunit_output</title>
<g id="a_node5"><a xlink:href="http://logtalk.org/library/xunit_output_0.html" xlink:title="http://logtalk.org/library/xunit_output_0.html">
<polygon fill="#f5f5dc" stroke="#000000" points="374,-232 216,-232 216,-171 374,-171 374,-232"/>
</a>
</g>
<g id="a_node5_4"><a xlink:href="xunit_output_object_xref_diagram.svg" xlink:title="Zoom">
<image xlink:href="zoom.png" width="11px" height="11px" preserveAspectRatio="xMinYMin meet" x="224" y="-227.5"/>
</a>
</g>
<g><a xlink:href="http://logtalk.org/library/xunit_output_0.html" xlink:title="http://logtalk.org/library/xunit_output_0.html">
<text text-anchor="start" x="226.5" y="-208.3" font-family="Courier,monospace" font-size="9.00" fill="#000000"> </text>
<text text-anchor="start" x="257.5" y="-207.7" font-family="Courier,monospace" font-size="11.00" fill="#000000">xunit_output</text>
<text text-anchor="start" x="360" y="-208.3" font-family="Courier,monospace" font-size="9.00" fill="#000000"> </text>
<text text-anchor="start" x="226.5" y="-197.3" font-family="Courier,monospace" font-size="9.00" fill="#000000"> </text>
<text text-anchor="start" x="278.5" y="-197.9" font-family="Courier,monospace" font-size="7.00" fill="#000000">prototype</text>
<text text-anchor="start" x="360" y="-197.3" font-family="Courier,monospace" font-size="9.00" fill="#000000"> </text>
<text text-anchor="start" x="226.5" y="-187.3" font-family="Courier,monospace" font-size="9.00" fill="#000000"> </text>
<text text-anchor="start" x="226.5" y="-177.3" font-family="Courier,monospace" font-size="9.00" fill="#000000"> </text>
<text text-anchor="start" x="235" y="-177.3" font-family="Courier,monospace" font-size="9.00" fill="#000000">logtalk::message_hook/4</text>
<text text-anchor="start" x="360" y="-177.3" font-family="Courier,monospace" font-size="9.00" fill="#000000"> </text>
</a>
</g>
</g>
<!-- xunit_output&#45;&gt;logtalk -->
<g id="edge11" class="edge">
<title>xunit_output&#45;&gt;logtalk</title>
<g id="a_edge11"><a xlink:title="provides">
<path fill="none" stroke="#000000" d="M299.889,-232.121C307.926,-274.891 327.18,-353.395 367,-408 387.007,-435.435 397.313,-439.464 428,-454 491.453,-484.056 570.667,-500.614 624.672,-509.117"/>
<polygon fill="#000000" stroke="#000000" points="634.261,-514.122 624.904,-509.153 635.318,-507.203 634.261,-514.122"/>
</a>
</g>
<text text-anchor="start" x="367" y="-400.8" font-family="Courier,monospace" font-size="9.00" fill="#000000">provides</text>
</g>
<!-- xunit_output&#45;&gt;logtalk -->
<g id="edge12" class="edge">
<title>xunit_output&#45;&gt;logtalk</title>
<g id="a_edge12"><a xlink:title="uses">
<path fill="none" stroke="#000000" d="M318.576,-232.317C337.202,-256.121 364.261,-289.526 390,-317 455.401,-386.809 472.897,-406.624 556,-454 581.267,-468.404 610.334,-482.608 634.658,-493.871"/>
<polygon fill="#000000" stroke="#000000" points="634.916,-493.99 642.038,-492.854 645.825,-498.991 634.916,-493.99"/>
</a>
</g>
<text text-anchor="start" x="483" y="-400.8" font-family="Courier,monospace" font-size="9.00" fill="#000000">uses</text>
</g>
<!-- xunit_report -->
<g id="node6" class="node">
<title>xunit_report</title>
<g id="a_node6"><a xlink:href="http://logtalk.org/library/xunit_report_0.html" xlink:title="http://logtalk.org/library/xunit_report_0.html">
<polygon fill="#f5f5dc" stroke="#000000" points="186,-232 28,-232 28,-171 186,-171 186,-232"/>
</a>
</g>
<g id="a_node6_5"><a xlink:href="xunit_report_object_xref_diagram.svg" xlink:title="Zoom">
<image xlink:href="zoom.png" width="11px" height="11px" preserveAspectRatio="xMinYMin meet" x="36" y="-227.5"/>
</a>
</g>
<g><a xlink:href="http://logtalk.org/library/xunit_report_0.html" xlink:title="http://logtalk.org/library/xunit_report_0.html">
<text text-anchor="start" x="38.5" y="-208.3" font-family="Courier,monospace" font-size="9.00" fill="#000000"> </text>
<text text-anchor="start" x="69.5" y="-207.7" font-family="Courier,monospace" font-size="11.00" fill="#000000">xunit_report</text>
<text text-anchor="start" x="172" y="-208.3" font-family="Courier,monospace" font-size="9.00" fill="#000000"> </text>
<text text-anchor="start" x="38.5" y="-197.3" font-family="Courier,monospace" font-size="9.00" fill="#000000"> </text>
<text text-anchor="start" x="90.5" y="-197.9" font-family="Courier,monospace" font-size="7.00" fill="#000000">prototype</text>
<text text-anchor="start" x="172" y="-197.3" font-family="Courier,monospace" font-size="9.00" fill="#000000"> </text>
<text text-anchor="start" x="38.5" y="-187.3" font-family="Courier,monospace" font-size="9.00" fill="#000000"> </text>
<text text-anchor="start" x="38.5" y="-177.3" font-family="Courier,monospace" font-size="9.00" fill="#000000"> </text>
<text text-anchor="start" x="47" y="-177.3" font-family="Courier,monospace" font-size="9.00" fill="#000000">logtalk::message_hook/4</text>
<text text-anchor="start" x="172" y="-177.3" font-family="Courier,monospace" font-size="9.00" fill="#000000"> </text>
</a>
</g>
</g>
<!-- xunit_report&#45;&gt;logtalk -->
<g id="edge13" class="edge">
<title>xunit_report&#45;&gt;logtalk</title>
<g id="a_edge13"><a xlink:title="provides">
<path fill="none" stroke="#000000" d="M113.092,-232.124C122.775,-274.896 144.922,-353.403 186,-408 206.415,-435.133 215.648,-440.96 247,-454 313.972,-481.856 519.854,-502.773 624.518,-511.921"/>
<polygon fill="#000000" stroke="#000000" points="634.326,-516.283 624.665,-511.934 634.93,-509.309 634.326,-516.283"/>
</a>
</g>
<text text-anchor="start" x="186" y="-400.8" font-family="Courier,monospace" font-size="9.00" fill="#000000">provides</text>
</g>
<!-- xunit_report&#45;&gt;logtalk -->
<g id="edge14" class="edge">
<title>xunit_report&#45;&gt;logtalk</title>
<g id="a_edge14"><a xlink:title="uses">
<path fill="none" stroke="#000000" d="M128.532,-232.194C146.557,-256.696 173.798,-291.092 202,-317 286.549,-394.671 313.528,-413.613 421,-454 487.908,-479.143 568.157,-496.508 622.891,-506.543"/>
<polygon fill="#000000" stroke="#000000" points="623.045,-506.571 629.658,-503.696 634.856,-508.695 623.045,-506.571"/>
</a>
</g>
<text text-anchor="start" x="316" y="-400.8" font-family="Courier,monospace" font-size="9.00" fill="#000000">uses</text>
</g>
</g>
</svg>
