<?xml version="1.0" encoding="UTF-8" standalone="no"?>
<!DOCTYPE svg PUBLIC "-//W3C//DTD SVG 1.1//EN"
 "http://www.w3.org/Graphics/SVG/1.1/DTD/svg11.dtd">
<!-- Generated by graphviz version 2.39.20161028.1504 (20161028.1504)
 -->
<!-- Title: library_dependency_diagram_1_object Pages: 1 -->
<svg width="1921pt" height="982pt"
 viewBox="72.00 72.00 1849.00 909.71" xmlns="http://www.w3.org/2000/svg" xmlns:xlink="http://www.w3.org/1999/xlink">
<g id="graph0" class="graph" transform="scale(1 1) rotate(0) translate(76 905.706)">
<title>library_dependency_diagram_1_object</title>
<polygon fill="#ffffff" stroke="transparent" points="-4,4 -4,-833.706 1773,-833.706 1773,4 -4,4"/>
<text text-anchor="start" x="8" y="-7" font-family="Courier,monospace" font-size="10.00" fill="#8b8989">Generated on 2016/11/04, 00:44</text>
<g id="clust1" class="cluster">
<title>cluster_library_dependency_diagram_1_object</title>
<g id="a_clust1"><a xlink:href="https://github.com/LogtalkDotOrg/logtalk3/tree/master/tools/diagrams/library_dependency_diagram.lgt" xlink:title="https://github.com/LogtalkDotOrg/logtalk3/tree/master/tools/diagrams/library_dependency_diagram.lgt">
<path fill="#fffafa" stroke="#8b8989" d="M20,-27C20,-27 1749,-27 1749,-27 1755,-27 1761,-33 1761,-39 1761,-39 1761,-809.706 1761,-809.706 1761,-815.706 1755,-821.706 1749,-821.706 1749,-821.706 20,-821.706 20,-821.706 14,-821.706 8,-815.706 8,-809.706 8,-809.706 8,-39 8,-39 8,-33 14,-27 20,-27"/>
<text text-anchor="middle" x="118.5" y="-809.706" font-family="Courier,monospace" font-size="10.00" fill="#8b8989">library_dependency_diagram(Format)</text>
</a>
</g>
</g>
<g id="clust2" class="cluster">
<title>cluster_other</title>
<g id="a_clust2"><a xlink:title="(external predicates)">
<path fill="#ffffff" stroke="#8b8989" d="M30,-37C30,-37 1739,-37 1739,-37 1745,-37 1751,-43 1751,-49 1751,-49 1751,-106.426 1751,-106.426 1751,-112.426 1745,-118.426 1739,-118.426 1739,-118.426 30,-118.426 30,-118.426 24,-118.426 18,-112.426 18,-106.426 18,-106.426 18,-49 18,-49 18,-43 24,-37 30,-37"/>
<text text-anchor="middle" x="89.5" y="-106.426" font-family="Courier,monospace" font-size="10.00" fill="#8b8989">(external predicates)</text>
</a>
</g>
</g>
<!-- output_library/3 -->
<g id="node1" class="node">
<title>output_library/3</title>
<ellipse fill="#f5f5dc" stroke="#000000" cx="1421" cy="-771.492" rx="94.5053" ry="21.4286"/>
<text text-anchor="start" x="1362" y="-774.292" font-family="Courier,monospace" font-size="9.00" fill="#000000"> </text>
<text text-anchor="start" x="1368" y="-773.692" font-family="Courier,monospace" font-size="11.00" fill="#000000">output_library/3</text>
<text text-anchor="start" x="1474" y="-774.292" font-family="Courier,monospace" font-size="9.00" fill="#000000"> </text>
<text text-anchor="start" x="1362" y="-763.292" font-family="Courier,monospace" font-size="9.00" fill="#000000"> </text>
<text text-anchor="start" x="1410" y="-763.892" font-family="Courier,monospace" font-size="7.00" fill="#000000">local</text>
<text text-anchor="start" x="1474" y="-763.292" font-family="Courier,monospace" font-size="9.00" fill="#000000"> </text>
</g>
<!-- depends_library/5 -->
<g id="node2" class="node">
<title>depends_library/5</title>
<ellipse fill="#f5f5dc" stroke="#000000" cx="888" cy="-537.066" rx="99.9045" ry="21.4286"/>
<text text-anchor="start" x="826" y="-539.866" font-family="Courier,monospace" font-size="9.00" fill="#000000"> </text>
<text text-anchor="start" x="832" y="-539.266" font-family="Courier,monospace" font-size="11.00" fill="#000000">depends_library/5</text>
<text text-anchor="start" x="945" y="-539.866" font-family="Courier,monospace" font-size="9.00" fill="#000000"> </text>
<text text-anchor="start" x="826" y="-528.866" font-family="Courier,monospace" font-size="9.00" fill="#000000"> </text>
<text text-anchor="start" x="877.5" y="-529.466" font-family="Courier,monospace" font-size="7.00" fill="#000000">local</text>
<text text-anchor="start" x="945" y="-528.866" font-family="Courier,monospace" font-size="9.00" fill="#000000"> </text>
</g>
<!-- output_library/3&#45;&gt;depends_library/5 -->
<g id="edge1" class="edge">
<title>output_library/3&#45;&gt;depends_library/5</title>
<g id="a_edge1"><a xlink:title="calls">
<path fill="none" stroke="#000000" d="M1377.83,-752.507C1281.47,-710.124 1048.96,-607.861 942.672,-561.112"/>
<polygon fill="#000000" stroke="#000000" points="942.554,-561.06 935.451,-562.306 931.569,-556.229 942.554,-561.06"/>
</a>
</g>
<text text-anchor="start" x="1165" y="-652.079" font-family="Courier,monospace" font-size="9.00" fill="#000000">calls</text>
</g>
<!-- logtalk::loaded_file_property/2 -->
<g id="node10" class="node">
<title>logtalk::loaded_file_property/2</title>
<g id="a_node10"><a xlink:href="http://logtalk.org/library/logtalk_0.html#loaded_file_property/2" xlink:title="http://logtalk.org/library/logtalk_0.html#loaded_file_property/2">
<ellipse fill="#d3d3d3" stroke="#000000" stroke-dasharray="5,2" cx="982" cy="-68.2132" rx="164.512" ry="21.4286"/>
<text text-anchor="start" x="874" y="-71.0132" font-family="Courier,monospace" font-size="9.00" fill="#000000"> </text>
<text text-anchor="start" x="880" y="-70.4132" font-family="Courier,monospace" font-size="11.00" fill="#000000">logtalk::loaded_file_property/2</text>
<text text-anchor="start" x="1085" y="-71.0132" font-family="Courier,monospace" font-size="9.00" fill="#000000"> </text>
<text text-anchor="start" x="874" y="-60.0132" font-family="Courier,monospace" font-size="9.00" fill="#000000"> </text>
<text text-anchor="start" x="965.5" y="-60.6132" font-family="Courier,monospace" font-size="7.00" fill="#000000">external</text>
<text text-anchor="start" x="1085" y="-60.0132" font-family="Courier,monospace" font-size="9.00" fill="#000000"> </text>
</a>
</g>
</g>
<!-- output_library/3&#45;&gt;logtalk::loaded_file_property/2 -->
<g id="edge7" class="edge">
<title>output_library/3&#45;&gt;logtalk::loaded_file_property/2</title>
<g id="a_edge7"><a xlink:title="calls">
<path fill="none" stroke="#000000" d="M1411.57,-750.362C1402.13,-727.248 1389,-688.874 1389,-654.279 1389,-654.279 1389,-654.279 1389,-185.426 1389,-77.6745 1259.54,-148.253 1156,-118.426 1124.93,-109.475 1090.74,-99.6119 1060.95,-91.0139"/>
<polygon fill="#000000" stroke="#000000" points="1060.87,-90.9902 1053.99,-93.1691 1049.34,-87.662 1060.87,-90.9902"/>
</a>
</g>
<text text-anchor="start" x="1389" y="-417.653" font-family="Courier,monospace" font-size="9.00" fill="#000000">calls</text>
</g>
<!-- entity_diagram::diagram_name_suffix/1 -->
<g id="node11" class="node">
<title>entity_diagram::diagram_name_suffix/1</title>
<g id="a_node11"><a xlink:href="http://logtalk.org/library/entity_diagram_0.html#diagram_name_suffix/1" xlink:title="http://logtalk.org/library/entity_diagram_0.html#diagram_name_suffix/1">
<ellipse fill="#d3d3d3" stroke="#000000" stroke-dasharray="5,2" cx="1358" cy="-68.2132" rx="193.08" ry="21.4286"/>
<text text-anchor="start" x="1230" y="-71.0132" font-family="Courier,monospace" font-size="9.00" fill="#000000"> </text>
<text text-anchor="start" x="1236" y="-70.4132" font-family="Courier,monospace" font-size="11.00" fill="#000000">entity_diagram::diagram_name_suffix/1</text>
<text text-anchor="start" x="1481" y="-71.0132" font-family="Courier,monospace" font-size="9.00" fill="#000000"> </text>
<text text-anchor="start" x="1230" y="-60.0132" font-family="Courier,monospace" font-size="9.00" fill="#000000"> </text>
<text text-anchor="start" x="1341.5" y="-60.6132" font-family="Courier,monospace" font-size="7.00" fill="#000000">external</text>
<text text-anchor="start" x="1481" y="-60.0132" font-family="Courier,monospace" font-size="9.00" fill="#000000"> </text>
</a>
</g>
</g>
<!-- output_library/3&#45;&gt;entity_diagram::diagram_name_suffix/1 -->
<g id="edge8" class="edge">
<title>output_library/3&#45;&gt;entity_diagram::diagram_name_suffix/1</title>
<g id="a_edge8"><a xlink:title="calls">
<path fill="none" stroke="#000000" d="M1430.43,-750.362C1439.87,-727.248 1453,-688.874 1453,-654.279 1453,-654.279 1453,-654.279 1453,-185.426 1453,-149.193 1425.26,-117.893 1399.76,-96.7752"/>
<polygon fill="#000000" stroke="#000000" points="1399.58,-96.6295 1392.39,-96.049 1390.16,-89.1908 1399.58,-96.6295"/>
</a>
</g>
<text text-anchor="start" x="1453" y="-417.653" font-family="Courier,monospace" font-size="9.00" fill="#000000">calls</text>
</g>
<!-- list::member/2 -->
<g id="node12" class="node">
<title>list::member/2</title>
<g id="a_node12"><a xlink:href="http://logtalk.org/library/list_0.html#member/2" xlink:title="http://logtalk.org/library/list_0.html#member/2">
<ellipse fill="#d3d3d3" stroke="#000000" stroke-dasharray="5,2" cx="1655" cy="-68.2132" rx="85.6199" ry="21.4286"/>
<text text-anchor="start" x="1603" y="-71.0132" font-family="Courier,monospace" font-size="9.00" fill="#000000"> </text>
<text text-anchor="start" x="1609" y="-70.4132" font-family="Courier,monospace" font-size="11.00" fill="#000000">list::member/2</text>
<text text-anchor="start" x="1702" y="-71.0132" font-family="Courier,monospace" font-size="9.00" fill="#000000"> </text>
<text text-anchor="start" x="1603" y="-60.0132" font-family="Courier,monospace" font-size="9.00" fill="#000000"> </text>
<text text-anchor="start" x="1638.5" y="-60.6132" font-family="Courier,monospace" font-size="7.00" fill="#000000">external</text>
<text text-anchor="start" x="1702" y="-60.0132" font-family="Courier,monospace" font-size="9.00" fill="#000000"> </text>
</a>
</g>
</g>
<!-- output_library/3&#45;&gt;list::member/2 -->
<g id="edge9" class="edge">
<title>output_library/3&#45;&gt;list::member/2</title>
<g id="a_edge9"><a xlink:title="calls">
<path fill="none" stroke="#000000" d="M1481.97,-755.124C1528.97,-738.377 1586,-707.162 1586,-654.279 1586,-654.279 1586,-654.279 1586,-185.426 1586,-152.309 1606.71,-120.299 1625.44,-98.1223"/>
<polygon fill="#000000" stroke="#000000" points="1625.6,-97.9405 1626.58,-90.796 1633.55,-88.9513 1625.6,-97.9405"/>
</a>
</g>
<text text-anchor="start" x="1586" y="-417.653" font-family="Courier,monospace" font-size="9.00" fill="#000000">calls</text>
</g>
<!-- depends_object/3 -->
<g id="node3" class="node">
<title>depends_object/3</title>
<ellipse fill="#f5f5dc" stroke="#000000" cx="1275" cy="-302.64" rx="94.5053" ry="21.4286"/>
<text text-anchor="start" x="1216" y="-305.44" font-family="Courier,monospace" font-size="9.00" fill="#000000"> </text>
<text text-anchor="start" x="1222" y="-304.84" font-family="Courier,monospace" font-size="11.00" fill="#000000">depends_object/3</text>
<text text-anchor="start" x="1328" y="-305.44" font-family="Courier,monospace" font-size="9.00" fill="#000000"> </text>
<text text-anchor="start" x="1216" y="-294.44" font-family="Courier,monospace" font-size="9.00" fill="#000000"> </text>
<text text-anchor="start" x="1264" y="-295.04" font-family="Courier,monospace" font-size="7.00" fill="#000000">local</text>
<text text-anchor="start" x="1328" y="-294.44" font-family="Courier,monospace" font-size="9.00" fill="#000000"> </text>
</g>
<!-- depends_library/5&#45;&gt;depends_object/3 -->
<g id="edge2" class="edge">
<title>depends_library/5&#45;&gt;depends_object/3</title>
<g id="a_edge2"><a xlink:title="calls">
<path fill="none" stroke="#000000" d="M977.179,-527.467C1027.82,-518.749 1090.57,-502.196 1139,-470.853 1192.95,-435.938 1235.54,-372.547 1257.85,-334.345"/>
<polygon fill="#000000" stroke="#000000" points="1257.91,-334.242 1257.41,-327.049 1263.86,-323.82 1257.91,-334.242"/>
</a>
</g>
<text text-anchor="start" x="1199" y="-417.653" font-family="Courier,monospace" font-size="9.00" fill="#000000">calls</text>
</g>
<!-- depends_protocol/3 -->
<g id="node4" class="node">
<title>depends_protocol/3</title>
<ellipse fill="#f5f5dc" stroke="#000000" cx="122" cy="-302.64" rx="103.889" ry="21.4286"/>
<text text-anchor="start" x="57" y="-305.44" font-family="Courier,monospace" font-size="9.00" fill="#000000"> </text>
<text text-anchor="start" x="63" y="-304.84" font-family="Courier,monospace" font-size="11.00" fill="#000000">depends_protocol/3</text>
<text text-anchor="start" x="182" y="-305.44" font-family="Courier,monospace" font-size="9.00" fill="#000000"> </text>
<text text-anchor="start" x="57" y="-294.44" font-family="Courier,monospace" font-size="9.00" fill="#000000"> </text>
<text text-anchor="start" x="111.5" y="-295.04" font-family="Courier,monospace" font-size="7.00" fill="#000000">local</text>
<text text-anchor="start" x="182" y="-294.44" font-family="Courier,monospace" font-size="9.00" fill="#000000"> </text>
</g>
<!-- depends_library/5&#45;&gt;depends_protocol/3 -->
<g id="edge3" class="edge">
<title>depends_library/5&#45;&gt;depends_protocol/3</title>
<g id="a_edge3"><a xlink:title="calls">
<path fill="none" stroke="#000000" d="M831.051,-519.637C693.149,-477.434 341.625,-369.854 191.584,-323.935"/>
<polygon fill="#000000" stroke="#000000" points="191.321,-323.855 184.413,-325.924 179.846,-320.343 191.321,-323.855"/>
</a>
</g>
<text text-anchor="start" x="520" y="-417.653" font-family="Courier,monospace" font-size="9.00" fill="#000000">calls</text>
</g>
<!-- depends_category/3 -->
<g id="node5" class="node">
<title>depends_category/3</title>
<ellipse fill="#f5f5dc" stroke="#000000" cx="348" cy="-302.64" rx="103.889" ry="21.4286"/>
<text text-anchor="start" x="283" y="-305.44" font-family="Courier,monospace" font-size="9.00" fill="#000000"> </text>
<text text-anchor="start" x="289" y="-304.84" font-family="Courier,monospace" font-size="11.00" fill="#000000">depends_category/3</text>
<text text-anchor="start" x="408" y="-305.44" font-family="Courier,monospace" font-size="9.00" fill="#000000"> </text>
<text text-anchor="start" x="283" y="-294.44" font-family="Courier,monospace" font-size="9.00" fill="#000000"> </text>
<text text-anchor="start" x="337.5" y="-295.04" font-family="Courier,monospace" font-size="7.00" fill="#000000">local</text>
<text text-anchor="start" x="408" y="-294.44" font-family="Courier,monospace" font-size="9.00" fill="#000000"> </text>
</g>
<!-- depends_library/5&#45;&gt;depends_category/3 -->
<g id="edge4" class="edge">
<title>depends_library/5&#45;&gt;depends_category/3</title>
<g id="a_edge4"><a xlink:title="calls">
<path fill="none" stroke="#000000" d="M828.094,-520.069C787.224,-507.857 732.161,-490.191 685,-470.853 578.049,-426.999 458.114,-363.502 394.122,-328.4"/>
<polygon fill="#000000" stroke="#000000" points="394.104,-328.39 386.918,-329 383.591,-322.602 394.104,-328.39"/>
</a>
</g>
<text text-anchor="start" x="581" y="-417.653" font-family="Courier,monospace" font-size="9.00" fill="#000000">calls</text>
</g>
<!-- depends_module/3 -->
<g id="node6" class="node">
<title>depends_module/3</title>
<ellipse fill="#f5f5dc" stroke="#000000" cx="565" cy="-302.64" rx="94.5053" ry="21.4286"/>
<text text-anchor="start" x="506" y="-305.44" font-family="Courier,monospace" font-size="9.00" fill="#000000"> </text>
<text text-anchor="start" x="512" y="-304.84" font-family="Courier,monospace" font-size="11.00" fill="#000000">depends_module/3</text>
<text text-anchor="start" x="618" y="-305.44" font-family="Courier,monospace" font-size="9.00" fill="#000000"> </text>
<text text-anchor="start" x="506" y="-294.44" font-family="Courier,monospace" font-size="9.00" fill="#000000"> </text>
<text text-anchor="start" x="554" y="-295.04" font-family="Courier,monospace" font-size="7.00" fill="#000000">local</text>
<text text-anchor="start" x="618" y="-294.44" font-family="Courier,monospace" font-size="9.00" fill="#000000"> </text>
</g>
<!-- depends_library/5&#45;&gt;depends_module/3 -->
<g id="edge5" class="edge">
<title>depends_library/5&#45;&gt;depends_module/3</title>
<g id="a_edge5"><a xlink:title="calls">
<path fill="none" stroke="#000000" d="M812.852,-523.078C773.845,-513.159 726.963,-496.858 691,-470.853 640.892,-434.619 601.909,-372.642 581.281,-334.884"/>
<polygon fill="#000000" stroke="#000000" points="581.123,-334.588 574.77,-331.175 575.476,-323.999 581.123,-334.588"/>
</a>
</g>
<text text-anchor="start" x="641" y="-417.653" font-family="Courier,monospace" font-size="9.00" fill="#000000">calls</text>
</g>
<!-- entity_basename_directory/4 -->
<g id="node7" class="node">
<title>entity_basename_directory/4</title>
<ellipse fill="#f5f5dc" stroke="#000000" cx="888" cy="-302.64" rx="146.242" ry="21.4286"/>
<text text-anchor="start" x="793" y="-305.44" font-family="Courier,monospace" font-size="9.00" fill="#000000"> </text>
<text text-anchor="start" x="799" y="-304.84" font-family="Courier,monospace" font-size="11.00" fill="#000000">entity_basename_directory/4</text>
<text text-anchor="start" x="978" y="-305.44" font-family="Courier,monospace" font-size="9.00" fill="#000000"> </text>
<text text-anchor="start" x="793" y="-294.44" font-family="Courier,monospace" font-size="9.00" fill="#000000"> </text>
<text text-anchor="start" x="877.5" y="-295.04" font-family="Courier,monospace" font-size="7.00" fill="#000000">local</text>
<text text-anchor="start" x="978" y="-294.44" font-family="Courier,monospace" font-size="9.00" fill="#000000"> </text>
</g>
<!-- depends_library/5&#45;&gt;entity_basename_directory/4 -->
<g id="edge6" class="edge">
<title>depends_library/5&#45;&gt;entity_basename_directory/4</title>
<g id="a_edge6"><a xlink:title="calls">
<path fill="none" stroke="#000000" d="M888,-515.849C888,-474.981 888,-385.064 888,-336.068"/>
<polygon fill="#000000" stroke="#000000" points="888,-335.978 884,-329.978 888,-323.978 888,-335.978"/>
</a>
</g>
<text text-anchor="start" x="888" y="-417.653" font-family="Courier,monospace" font-size="9.00" fill="#000000">calls</text>
</g>
<!-- depends_library/5&#45;&gt;logtalk::loaded_file_property/2 -->
<g id="edge11" class="edge">
<title>depends_library/5&#45;&gt;logtalk::loaded_file_property/2</title>
<g id="a_edge11"><a xlink:title="calls">
<path fill="none" stroke="#000000" d="M950.713,-520.444C1023.6,-499.238 1134,-460.42 1134,-419.853 1134,-419.853 1134,-419.853 1134,-185.426 1134,-141.259 1093.26,-111.407 1053.96,-92.8861"/>
<polygon fill="#000000" stroke="#000000" points="1053.9,-92.8607 1046.79,-94.0617 1042.95,-87.9602 1053.9,-92.8607"/>
</a>
</g>
<text text-anchor="start" x="1134" y="-300.44" font-family="Courier,monospace" font-size="9.00" fill="#000000">calls</text>
</g>
<!-- modules_diagram_support::module_property/2 -->
<g id="node13" class="node">
<title>modules_diagram_support::module_property/2</title>
<g id="a_node13"><a xlink:href="http://logtalk.org/library/modules_diagram_support_0.html#module_property/2" xlink:title="http://logtalk.org/library/modules_diagram_support_0.html#module_property/2">
<ellipse fill="#d3d3d3" stroke="#000000" stroke-dasharray="5,2" cx="244" cy="-68.2132" rx="216.249" ry="21.4286"/>
<text text-anchor="start" x="99" y="-71.0132" font-family="Courier,monospace" font-size="9.00" fill="#000000"> </text>
<text text-anchor="start" x="105" y="-70.4132" font-family="Courier,monospace" font-size="11.00" fill="#000000">modules_diagram_support::module_property/2</text>
<text text-anchor="start" x="383" y="-71.0132" font-family="Courier,monospace" font-size="9.00" fill="#000000"> </text>
<text text-anchor="start" x="99" y="-60.0132" font-family="Courier,monospace" font-size="9.00" fill="#000000"> </text>
<text text-anchor="start" x="227" y="-60.6132" font-family="Courier,monospace" font-size="7.00" fill="#000000">external</text>
<text text-anchor="start" x="383" y="-60.0132" font-family="Courier,monospace" font-size="9.00" fill="#000000"> </text>
</a>
</g>
</g>
<!-- depends_library/5&#45;&gt;modules_diagram_support::module_property/2 -->
<g id="edge10" class="edge">
<title>depends_library/5&#45;&gt;modules_diagram_support::module_property/2</title>
<g id="a_edge10"><a xlink:title="calls">
<path fill="none" stroke="#000000" d="M813.768,-522.791C759.739,-507.593 696,-477.457 696,-419.853 696,-419.853 696,-419.853 696,-185.426 696,-176.297 472.074,-121.95 339.445,-90.562"/>
<polygon fill="#000000" stroke="#000000" points="339.373,-90.545 332.613,-93.0576 327.694,-87.7846 339.373,-90.545"/>
</a>
</g>
<text text-anchor="start" x="696" y="-300.44" font-family="Courier,monospace" font-size="9.00" fill="#000000">calls</text>
</g>
<!-- logtalk::expand_library_path/2 -->
<g id="node14" class="node">
<title>logtalk::expand_library_path/2</title>
<g id="a_node14"><a xlink:href="http://logtalk.org/library/logtalk_0.html#expand_library_path/2" xlink:title="http://logtalk.org/library/logtalk_0.html#expand_library_path/2">
<ellipse fill="#d3d3d3" stroke="#000000" stroke-dasharray="5,2" cx="639" cy="-68.2132" rx="160.526" ry="21.4286"/>
<text text-anchor="start" x="534" y="-71.0132" font-family="Courier,monospace" font-size="9.00" fill="#000000"> </text>
<text text-anchor="start" x="540" y="-70.4132" font-family="Courier,monospace" font-size="11.00" fill="#000000">logtalk::expand_library_path/2</text>
<text text-anchor="start" x="739" y="-71.0132" font-family="Courier,monospace" font-size="9.00" fill="#000000"> </text>
<text text-anchor="start" x="534" y="-60.0132" font-family="Courier,monospace" font-size="9.00" fill="#000000"> </text>
<text text-anchor="start" x="622.5" y="-60.6132" font-family="Courier,monospace" font-size="7.00" fill="#000000">external</text>
<text text-anchor="start" x="739" y="-60.0132" font-family="Courier,monospace" font-size="9.00" fill="#000000"> </text>
</a>
</g>
</g>
<!-- depends_library/5&#45;&gt;logtalk::expand_library_path/2 -->
<g id="edge12" class="edge">
<title>depends_library/5&#45;&gt;logtalk::expand_library_path/2</title>
<g id="a_edge12"><a xlink:title="calls">
<path fill="none" stroke="#000000" d="M957.585,-521.863C1008.96,-506.064 1070,-475.57 1070,-419.853 1070,-419.853 1070,-419.853 1070,-185.426 1070,-65.2348 923.85,-150.437 808,-118.426 777.273,-109.936 743.576,-100.043 714.41,-91.2939"/>
<polygon fill="#000000" stroke="#000000" points="714.124,-91.2078 707.226,-93.3089 702.633,-87.7494 714.124,-91.2078"/>
</a>
</g>
<text text-anchor="start" x="1070" y="-300.44" font-family="Courier,monospace" font-size="9.00" fill="#000000">calls</text>
</g>
<!-- depends_module/3&#45;&gt;modules_diagram_support::module_property/2 -->
<g id="edge13" class="edge">
<title>depends_module/3&#45;&gt;modules_diagram_support::module_property/2</title>
<g id="a_edge13"><a xlink:title="calls">
<path fill="none" stroke="#000000" d="M537.075,-282.246C479.739,-240.373 348.625,-144.621 282.967,-96.671"/>
<polygon fill="#000000" stroke="#000000" points="282.704,-96.4785 275.499,-96.1702 273.013,-89.4013 282.704,-96.4785"/>
</a>
</g>
<text text-anchor="start" x="411" y="-183.226" font-family="Courier,monospace" font-size="9.00" fill="#000000">calls</text>
</g>
<!-- entity_basename_directory/4&#45;&gt;modules_diagram_support::module_property/2 -->
<g id="edge14" class="edge">
<title>entity_basename_directory/4&#45;&gt;modules_diagram_support::module_property/2</title>
<g id="a_edge14"><a xlink:title="calls">
<path fill="none" stroke="#000000" d="M872.354,-281.316C843.399,-243.773 777.396,-166.79 701,-134.426 653.416,-114.268 520.142,-125.853 469,-118.426 423.209,-111.777 372.89,-100.892 331.47,-90.9542"/>
<polygon fill="#000000" stroke="#000000" points="331.418,-90.9417 324.644,-93.4142 319.757,-88.1123 331.418,-90.9417"/>
</a>
</g>
<text text-anchor="start" x="786" y="-183.226" font-family="Courier,monospace" font-size="9.00" fill="#000000">calls</text>
</g>
<!-- default_option/1 -->
<g id="node8" class="node">
<title>default_option/1</title>
<ellipse fill="#f5f5dc" stroke="#000000" cx="1010" cy="-771.492" rx="94.5053" ry="21.4286"/>
<text text-anchor="start" x="951" y="-774.292" font-family="Courier,monospace" font-size="9.00" fill="#000000"> </text>
<text text-anchor="start" x="957" y="-773.692" font-family="Courier,monospace" font-size="11.00" fill="#000000">default_option/1</text>
<text text-anchor="start" x="1063" y="-774.292" font-family="Courier,monospace" font-size="9.00" fill="#000000"> </text>
<text text-anchor="start" x="951" y="-763.292" font-family="Courier,monospace" font-size="9.00" fill="#000000"> </text>
<text text-anchor="start" x="999" y="-763.892" font-family="Courier,monospace" font-size="7.00" fill="#000000">local</text>
<text text-anchor="start" x="1063" y="-763.292" font-family="Courier,monospace" font-size="9.00" fill="#000000"> </text>
</g>
<!-- diagram_name_suffix/1 -->
<g id="node9" class="node">
<title>diagram_name_suffix/1</title>
<ellipse fill="#f5f5dc" stroke="#000000" cx="372" cy="-771.492" rx="118.174" ry="21.4286"/>
<text text-anchor="start" x="297" y="-774.292" font-family="Courier,monospace" font-size="9.00" fill="#000000"> </text>
<text text-anchor="start" x="303" y="-773.692" font-family="Courier,monospace" font-size="11.00" fill="#000000">diagram_name_suffix/1</text>
<text text-anchor="start" x="442" y="-774.292" font-family="Courier,monospace" font-size="9.00" fill="#000000"> </text>
<text text-anchor="start" x="297" y="-763.292" font-family="Courier,monospace" font-size="9.00" fill="#000000"> </text>
<text text-anchor="start" x="361.5" y="-763.892" font-family="Courier,monospace" font-size="7.00" fill="#000000">local</text>
<text text-anchor="start" x="442" y="-763.292" font-family="Courier,monospace" font-size="9.00" fill="#000000"> </text>
</g>
</g>
</svg>
