<?xml version="1.0" encoding="UTF-8" standalone="no"?>
<!DOCTYPE svg PUBLIC "-//W3C//DTD SVG 1.1//EN"
 "http://www.w3.org/Graphics/SVG/1.1/DTD/svg11.dtd">
<!-- Generated by graphviz version 2.39.20161028.1504 (20161028.1504)
 -->
<!-- Title: library_diagram_1_category Pages: 1 -->
<svg width="2686pt" height="747pt"
 viewBox="72.00 72.00 2614.00 675.28" xmlns="http://www.w3.org/2000/svg" xmlns:xlink="http://www.w3.org/1999/xlink">
<g id="graph0" class="graph" transform="scale(1 1) rotate(0) translate(76 671.279)">
<title>library_diagram_1_category</title>
<polygon fill="#ffffff" stroke="transparent" points="-4,4 -4,-599.279 2538,-599.279 2538,4 -4,4"/>
<text text-anchor="start" x="8" y="-7" font-family="Courier,monospace" font-size="10.00" fill="#8b8989">Generated on 2016/11/04, 00:44</text>
<g id="clust1" class="cluster">
<title>cluster_library_diagram_1_category</title>
<g id="a_clust1"><a xlink:href="https://github.com/LogtalkDotOrg/logtalk3/tree/master/tools/diagrams/library_diagram.lgt" xlink:title="https://github.com/LogtalkDotOrg/logtalk3/tree/master/tools/diagrams/library_diagram.lgt">
<path fill="#fffafa" stroke="#8b8989" d="M20,-27C20,-27 2514,-27 2514,-27 2520,-27 2526,-33 2526,-39 2526,-39 2526,-575.279 2526,-575.279 2526,-581.279 2520,-587.279 2514,-587.279 2514,-587.279 20,-587.279 20,-587.279 14,-587.279 8,-581.279 8,-575.279 8,-575.279 8,-39 8,-39 8,-33 14,-27 20,-27"/>
<text text-anchor="middle" x="85.5" y="-575.279" font-family="Courier,monospace" font-size="10.00" fill="#8b8989">library_diagram(Format)</text>
</a>
</g>
</g>
<g id="clust2" class="cluster">
<title>cluster_other</title>
<g id="a_clust2"><a xlink:title="(external predicates)">
<path fill="#ffffff" stroke="#8b8989" d="M30,-37C30,-37 1355,-37 1355,-37 1361,-37 1367,-43 1367,-49 1367,-49 1367,-106.426 1367,-106.426 1367,-112.426 1361,-118.426 1355,-118.426 1355,-118.426 30,-118.426 30,-118.426 24,-118.426 18,-112.426 18,-106.426 18,-106.426 18,-49 18,-49 18,-43 24,-37 30,-37"/>
<text text-anchor="middle" x="89.5" y="-106.426" font-family="Courier,monospace" font-size="10.00" fill="#8b8989">(external predicates)</text>
</a>
</g>
</g>
<!-- add_library_documentation_url/4 -->
<g id="node1" class="node">
<title>add_library_documentation_url/4</title>
<g id="a_node1"><a xlink:href="http://logtalk.org/library/library_diagram_1.html#add_library_documentation_url/4" xlink:title="http://logtalk.org/library/library_diagram_1.html#add_library_documentation_url/4">
<ellipse fill="#ffff00" stroke="#000000" cx="300" cy="-302.64" rx="164.512" ry="21.4286"/>
<text text-anchor="start" x="192" y="-305.44" font-family="Courier,monospace" font-size="9.00" fill="#000000"> </text>
<text text-anchor="start" x="198" y="-304.84" font-family="Courier,monospace" font-size="11.00" fill="#000000">add_library_documentation_url/4</text>
<text text-anchor="start" x="403" y="-305.44" font-family="Courier,monospace" font-size="9.00" fill="#000000"> </text>
<text text-anchor="start" x="192" y="-294.44" font-family="Courier,monospace" font-size="9.00" fill="#000000"> </text>
<text text-anchor="start" x="281.5" y="-295.04" font-family="Courier,monospace" font-size="7.00" fill="#000000">protected</text>
<text text-anchor="start" x="403" y="-294.44" font-family="Courier,monospace" font-size="9.00" fill="#000000"> </text>
</a>
</g>
</g>
<!-- list::memberchk/2 -->
<g id="node14" class="node">
<title>list::memberchk/2</title>
<g id="a_node14"><a xlink:href="http://logtalk.org/library/list_0.html#memberchk/2" xlink:title="http://logtalk.org/library/list_0.html#memberchk/2">
<ellipse fill="#d3d3d3" stroke="#000000" stroke-dasharray="5,2" cx="317" cy="-68.2132" rx="99.9045" ry="21.4286"/>
<text text-anchor="start" x="255" y="-71.0132" font-family="Courier,monospace" font-size="9.00" fill="#000000"> </text>
<text text-anchor="start" x="261" y="-70.4132" font-family="Courier,monospace" font-size="11.00" fill="#000000">list::memberchk/2</text>
<text text-anchor="start" x="374" y="-71.0132" font-family="Courier,monospace" font-size="9.00" fill="#000000"> </text>
<text text-anchor="start" x="255" y="-60.0132" font-family="Courier,monospace" font-size="9.00" fill="#000000"> </text>
<text text-anchor="start" x="300.5" y="-60.6132" font-family="Courier,monospace" font-size="7.00" fill="#000000">external</text>
<text text-anchor="start" x="374" y="-60.0132" font-family="Courier,monospace" font-size="9.00" fill="#000000"> </text>
</a>
</g>
</g>
<!-- add_library_documentation_url/4&#45;&gt;list::memberchk/2 -->
<g id="edge10" class="edge">
<title>add_library_documentation_url/4&#45;&gt;list::memberchk/2</title>
<g id="a_edge10"><a xlink:title="calls">
<path fill="none" stroke="#000000" d="M301.539,-281.422C304.502,-240.555 311.023,-150.638 314.576,-101.642"/>
<polygon fill="#000000" stroke="#000000" points="314.585,-101.52 311.029,-95.2463 315.453,-89.5514 314.585,-101.52"/>
</a>
</g>
<text text-anchor="start" x="308" y="-183.226" font-family="Courier,monospace" font-size="9.00" fill="#000000">calls</text>
</g>
<!-- list::member/2 -->
<g id="node15" class="node">
<title>list::member/2</title>
<g id="a_node15"><a xlink:href="http://logtalk.org/library/list_0.html#member/2" xlink:title="http://logtalk.org/library/list_0.html#member/2">
<ellipse fill="#d3d3d3" stroke="#000000" stroke-dasharray="5,2" cx="114" cy="-68.2132" rx="85.6199" ry="21.4286"/>
<text text-anchor="start" x="62" y="-71.0132" font-family="Courier,monospace" font-size="9.00" fill="#000000"> </text>
<text text-anchor="start" x="68" y="-70.4132" font-family="Courier,monospace" font-size="11.00" fill="#000000">list::member/2</text>
<text text-anchor="start" x="161" y="-71.0132" font-family="Courier,monospace" font-size="9.00" fill="#000000"> </text>
<text text-anchor="start" x="62" y="-60.0132" font-family="Courier,monospace" font-size="9.00" fill="#000000"> </text>
<text text-anchor="start" x="97.5" y="-60.6132" font-family="Courier,monospace" font-size="7.00" fill="#000000">external</text>
<text text-anchor="start" x="161" y="-60.0132" font-family="Courier,monospace" font-size="9.00" fill="#000000"> </text>
</a>
</g>
</g>
<!-- add_library_documentation_url/4&#45;&gt;list::member/2 -->
<g id="edge9" class="edge">
<title>add_library_documentation_url/4&#45;&gt;list::member/2</title>
<g id="a_edge9"><a xlink:title="calls">
<path fill="none" stroke="#000000" d="M283.166,-281.422C250.105,-239.754 176.587,-147.095 138.276,-98.8094"/>
<polygon fill="#000000" stroke="#000000" points="138.121,-98.6141 131.258,-96.4001 130.662,-89.2136 138.121,-98.6141"/>
</a>
</g>
<text text-anchor="start" x="210" y="-183.226" font-family="Courier,monospace" font-size="9.00" fill="#000000">calls</text>
</g>
<!-- remember_included_library/2 -->
<g id="node2" class="node">
<title>remember_included_library/2</title>
<g id="a_node2"><a xlink:href="http://logtalk.org/library/library_diagram_1.html#remember_included_library/2" xlink:title="http://logtalk.org/library/library_diagram_1.html#remember_included_library/2">
<ellipse fill="#ffff00" stroke="#000000" cx="1974" cy="-302.64" rx="146.242" ry="21.4286"/>
<text text-anchor="start" x="1879" y="-305.44" font-family="Courier,monospace" font-size="9.00" fill="#000000"> </text>
<text text-anchor="start" x="1885" y="-304.84" font-family="Courier,monospace" font-size="11.00" fill="#000000">remember_included_library/2</text>
<text text-anchor="start" x="2064" y="-305.44" font-family="Courier,monospace" font-size="9.00" fill="#000000"> </text>
<text text-anchor="start" x="1879" y="-294.44" font-family="Courier,monospace" font-size="9.00" fill="#000000"> </text>
<text text-anchor="start" x="1955.5" y="-295.04" font-family="Courier,monospace" font-size="7.00" fill="#000000">protected</text>
<text text-anchor="start" x="2064" y="-294.44" font-family="Courier,monospace" font-size="9.00" fill="#000000"> </text>
</a>
</g>
</g>
<!-- included_library_/2 -->
<g id="node5" class="node">
<title>included_library_/2</title>
<g id="a_node5"><a xlink:href="http://logtalk.org/library/library_diagram_1.html#included_library_/2" xlink:title="http://logtalk.org/library/library_diagram_1.html#included_library_/2">
<ellipse fill="#ff6a6a" stroke="#000000" cx="2135" cy="-68.2132" rx="108.789" ry="21.4286"/>
<text text-anchor="start" x="2066" y="-71.0132" font-family="Courier,monospace" font-size="9.00" fill="#000000"> </text>
<text text-anchor="start" x="2072" y="-70.4132" font-family="Courier,monospace" font-size="11.00" fill="#000000">included_library_/2</text>
<text text-anchor="start" x="2198" y="-71.0132" font-family="Courier,monospace" font-size="9.00" fill="#000000"> </text>
<text text-anchor="start" x="2066" y="-60.0132" font-family="Courier,monospace" font-size="9.00" fill="#000000"> </text>
<text text-anchor="start" x="2101" y="-60.6132" font-family="Courier,monospace" font-size="7.00" fill="#000000">private, dynamic</text>
<text text-anchor="start" x="2198" y="-60.0132" font-family="Courier,monospace" font-size="9.00" fill="#000000"> </text>
</a>
</g>
</g>
<!-- remember_included_library/2&#45;&gt;included_library_/2 -->
<g id="edge5" class="edge">
<title>remember_included_library/2&#45;&gt;included_library_/2</title>
<g id="a_edge5"><a xlink:title="calls in self">
<path fill="none" stroke="#000000" d="M1988.57,-281.422C2017.06,-239.946 2080.24,-147.949 2113.53,-99.4803"/>
<polygon fill="none" stroke="#000000" points="2113.55,-99.4432 2113.65,-92.2328 2120.35,-89.5514 2113.55,-99.4432"/>
</a>
</g>
<text text-anchor="start" x="2057" y="-183.226" font-family="Courier,monospace" font-size="9.00" fill="#000000">calls in self</text>
</g>
<!-- ::included_library_/2 -->
<g id="node16" class="node">
<title>::included_library_/2</title>
<ellipse fill="#d3d3d3" stroke="#000000" stroke-dasharray="5,2" cx="1239" cy="-68.2132" rx="118.174" ry="21.4286"/>
<text text-anchor="start" x="1164" y="-71.0132" font-family="Courier,monospace" font-size="9.00" fill="#000000"> </text>
<text text-anchor="start" x="1170" y="-70.4132" font-family="Courier,monospace" font-size="11.00" fill="#000000">::included_library_/2</text>
<text text-anchor="start" x="1309" y="-71.0132" font-family="Courier,monospace" font-size="9.00" fill="#000000"> </text>
<text text-anchor="start" x="1164" y="-60.0132" font-family="Courier,monospace" font-size="9.00" fill="#000000"> </text>
<text text-anchor="start" x="1222.5" y="-60.6132" font-family="Courier,monospace" font-size="7.00" fill="#000000">external</text>
<text text-anchor="start" x="1309" y="-60.0132" font-family="Courier,monospace" font-size="9.00" fill="#000000"> </text>
</g>
<!-- remember_included_library/2&#45;&gt;::included_library_/2 -->
<g id="edge11" class="edge">
<title>remember_included_library/2&#45;&gt;::included_library_/2</title>
<g id="a_edge11"><a xlink:title="updates in self">
<path fill="none" stroke="#000000" d="M1952.83,-281.356C1913.57,-243.511 1825.08,-165.572 1733,-134.426 1654.62,-107.914 1441.81,-136.218 1361,-118.426 1334.06,-112.495 1305.47,-101.031 1282.74,-90.5534"/>
<polygon fill="#000000" stroke="#000000" points="1276.77,-93.289 1281,-84.2257 1282.81,-85.0709 1278.59,-94.1342 1276.77,-93.289"/>
<polyline fill="none" stroke="#000000" points="1277.98,-88.3348 1282.51,-90.4477 "/>
</a>
</g>
<text text-anchor="start" x="1839" y="-183.226" font-family="Courier,monospace" font-size="9.00" fill="#000000">updates in self</text>
</g>
<!-- remember_referenced_logtalk_library/2 -->
<g id="node3" class="node">
<title>remember_referenced_logtalk_library/2</title>
<g id="a_node3"><a xlink:href="http://logtalk.org/library/library_diagram_1.html#remember_referenced_logtalk_library/2" xlink:title="http://logtalk.org/library/library_diagram_1.html#remember_referenced_logtalk_library/2">
<ellipse fill="#ffff00" stroke="#000000" cx="1105" cy="-302.64" rx="193.08" ry="21.4286"/>
<text text-anchor="start" x="977" y="-305.44" font-family="Courier,monospace" font-size="9.00" fill="#000000"> </text>
<text text-anchor="start" x="983" y="-304.84" font-family="Courier,monospace" font-size="11.00" fill="#000000">remember_referenced_logtalk_library/2</text>
<text text-anchor="start" x="1228" y="-305.44" font-family="Courier,monospace" font-size="9.00" fill="#000000"> </text>
<text text-anchor="start" x="977" y="-294.44" font-family="Courier,monospace" font-size="9.00" fill="#000000"> </text>
<text text-anchor="start" x="1086.5" y="-295.04" font-family="Courier,monospace" font-size="7.00" fill="#000000">protected</text>
<text text-anchor="start" x="1228" y="-294.44" font-family="Courier,monospace" font-size="9.00" fill="#000000"> </text>
</a>
</g>
</g>
<!-- referenced_logtalk_library_/2 -->
<g id="node6" class="node">
<title>referenced_logtalk_library_/2</title>
<g id="a_node6"><a xlink:href="http://logtalk.org/library/library_diagram_1.html#referenced_logtalk_library_/2" xlink:title="http://logtalk.org/library/library_diagram_1.html#referenced_logtalk_library_/2">
<ellipse fill="#ff6a6a" stroke="#000000" cx="1533" cy="-68.2132" rx="155.627" ry="21.4286"/>
<text text-anchor="start" x="1431" y="-71.0132" font-family="Courier,monospace" font-size="9.00" fill="#000000"> </text>
<text text-anchor="start" x="1437" y="-70.4132" font-family="Courier,monospace" font-size="11.00" fill="#000000">referenced_logtalk_library_/2</text>
<text text-anchor="start" x="1629" y="-71.0132" font-family="Courier,monospace" font-size="9.00" fill="#000000"> </text>
<text text-anchor="start" x="1431" y="-60.0132" font-family="Courier,monospace" font-size="9.00" fill="#000000"> </text>
<text text-anchor="start" x="1499" y="-60.6132" font-family="Courier,monospace" font-size="7.00" fill="#000000">private, dynamic</text>
<text text-anchor="start" x="1629" y="-60.0132" font-family="Courier,monospace" font-size="9.00" fill="#000000"> </text>
</a>
</g>
</g>
<!-- remember_referenced_logtalk_library/2&#45;&gt;referenced_logtalk_library_/2 -->
<g id="edge6" class="edge">
<title>remember_referenced_logtalk_library/2&#45;&gt;referenced_logtalk_library_/2</title>
<g id="a_edge6"><a xlink:title="calls in self">
<path fill="none" stroke="#000000" d="M1128.57,-281.523C1158.62,-255.35 1212.96,-210.529 1265,-180.426 1328.9,-143.466 1407.32,-112.093 1462.78,-91.9978"/>
<polygon fill="none" stroke="#000000" points="1462.95,-91.9344 1467.25,-86.1435 1474.25,-87.8829 1462.95,-91.9344"/>
</a>
</g>
<text text-anchor="start" x="1265" y="-183.226" font-family="Courier,monospace" font-size="9.00" fill="#000000">calls in self</text>
</g>
<!-- ::referenced_logtalk_library_/2 -->
<g id="node17" class="node">
<title>::referenced_logtalk_library_/2</title>
<ellipse fill="#d3d3d3" stroke="#000000" stroke-dasharray="5,2" cx="599" cy="-68.2132" rx="164.512" ry="21.4286"/>
<text text-anchor="start" x="491" y="-71.0132" font-family="Courier,monospace" font-size="9.00" fill="#000000"> </text>
<text text-anchor="start" x="497" y="-70.4132" font-family="Courier,monospace" font-size="11.00" fill="#000000">::referenced_logtalk_library_/2</text>
<text text-anchor="start" x="702" y="-71.0132" font-family="Courier,monospace" font-size="9.00" fill="#000000"> </text>
<text text-anchor="start" x="491" y="-60.0132" font-family="Courier,monospace" font-size="9.00" fill="#000000"> </text>
<text text-anchor="start" x="582.5" y="-60.6132" font-family="Courier,monospace" font-size="7.00" fill="#000000">external</text>
<text text-anchor="start" x="702" y="-60.0132" font-family="Courier,monospace" font-size="9.00" fill="#000000"> </text>
</g>
<!-- remember_referenced_logtalk_library/2&#45;&gt;::referenced_logtalk_library_/2 -->
<g id="edge12" class="edge">
<title>remember_referenced_logtalk_library/2&#45;&gt;::referenced_logtalk_library_/2</title>
<g id="a_edge12"><a xlink:title="updates in self">
<path fill="none" stroke="#000000" d="M1078.47,-281.442C1044.35,-254.98 982.514,-209.649 924,-180.426 843.067,-140.008 744.058,-108.118 676.739,-88.8244"/>
<polygon fill="#000000" stroke="#000000" points="671.133,-92.4247 673.876,-82.8083 675.8,-83.357 673.056,-92.9734 671.133,-92.4247"/>
<polyline fill="none" stroke="#000000" points="671.543,-87.3422 676.351,-88.7139 "/>
</a>
</g>
<text text-anchor="start" x="942" y="-183.226" font-family="Courier,monospace" font-size="9.00" fill="#000000">updates in self</text>
</g>
<!-- remember_referenced_prolog_library/2 -->
<g id="node4" class="node">
<title>remember_referenced_prolog_library/2</title>
<g id="a_node4"><a xlink:href="http://logtalk.org/library/library_diagram_1.html#remember_referenced_prolog_library/2" xlink:title="http://logtalk.org/library/library_diagram_1.html#remember_referenced_prolog_library/2">
<ellipse fill="#ffff00" stroke="#000000" cx="1504" cy="-302.64" rx="188.181" ry="21.4286"/>
<text text-anchor="start" x="1379" y="-305.44" font-family="Courier,monospace" font-size="9.00" fill="#000000"> </text>
<text text-anchor="start" x="1385" y="-304.84" font-family="Courier,monospace" font-size="11.00" fill="#000000">remember_referenced_prolog_library/2</text>
<text text-anchor="start" x="1623" y="-305.44" font-family="Courier,monospace" font-size="9.00" fill="#000000"> </text>
<text text-anchor="start" x="1379" y="-294.44" font-family="Courier,monospace" font-size="9.00" fill="#000000"> </text>
<text text-anchor="start" x="1485" y="-295.04" font-family="Courier,monospace" font-size="7.00" fill="#000000">protected</text>
<text text-anchor="start" x="1623" y="-294.44" font-family="Courier,monospace" font-size="9.00" fill="#000000"> </text>
</a>
</g>
</g>
<!-- referenced_prolog_library_/2 -->
<g id="node7" class="node">
<title>referenced_prolog_library_/2</title>
<g id="a_node7"><a xlink:href="http://logtalk.org/library/library_diagram_1.html#referenced_prolog_library_/2" xlink:title="http://logtalk.org/library/library_diagram_1.html#referenced_prolog_library_/2">
<ellipse fill="#ff6a6a" stroke="#000000" cx="1857" cy="-68.2132" rx="150.728" ry="21.4286"/>
<text text-anchor="start" x="1759" y="-71.0132" font-family="Courier,monospace" font-size="9.00" fill="#000000"> </text>
<text text-anchor="start" x="1765" y="-70.4132" font-family="Courier,monospace" font-size="11.00" fill="#000000">referenced_prolog_library_/2</text>
<text text-anchor="start" x="1950" y="-71.0132" font-family="Courier,monospace" font-size="9.00" fill="#000000"> </text>
<text text-anchor="start" x="1759" y="-60.0132" font-family="Courier,monospace" font-size="9.00" fill="#000000"> </text>
<text text-anchor="start" x="1823.5" y="-60.6132" font-family="Courier,monospace" font-size="7.00" fill="#000000">private, dynamic</text>
<text text-anchor="start" x="1950" y="-60.0132" font-family="Courier,monospace" font-size="9.00" fill="#000000"> </text>
</a>
</g>
</g>
<!-- remember_referenced_prolog_library/2&#45;&gt;referenced_prolog_library_/2 -->
<g id="edge7" class="edge">
<title>remember_referenced_prolog_library/2&#45;&gt;referenced_prolog_library_/2</title>
<g id="a_edge7"><a xlink:title="calls in self">
<path fill="none" stroke="#000000" d="M1531.44,-281.587C1564.29,-256.637 1621.25,-214.191 1672,-180.426 1718.11,-149.746 1772.48,-117.183 1810.29,-95.0828"/>
<polygon fill="none" stroke="#000000" points="1810.61,-94.8958 1813.78,-88.4195 1820.98,-88.856 1810.61,-94.8958"/>
</a>
</g>
<text text-anchor="start" x="1672" y="-183.226" font-family="Courier,monospace" font-size="9.00" fill="#000000">calls in self</text>
</g>
<!-- ::referenced_prolog_library_/2 -->
<g id="node18" class="node">
<title>::referenced_prolog_library_/2</title>
<ellipse fill="#d3d3d3" stroke="#000000" stroke-dasharray="5,2" cx="942" cy="-68.2132" rx="160.526" ry="21.4286"/>
<text text-anchor="start" x="837" y="-71.0132" font-family="Courier,monospace" font-size="9.00" fill="#000000"> </text>
<text text-anchor="start" x="843" y="-70.4132" font-family="Courier,monospace" font-size="11.00" fill="#000000">::referenced_prolog_library_/2</text>
<text text-anchor="start" x="1042" y="-71.0132" font-family="Courier,monospace" font-size="9.00" fill="#000000"> </text>
<text text-anchor="start" x="837" y="-60.0132" font-family="Courier,monospace" font-size="9.00" fill="#000000"> </text>
<text text-anchor="start" x="925.5" y="-60.6132" font-family="Courier,monospace" font-size="7.00" fill="#000000">external</text>
<text text-anchor="start" x="1042" y="-60.0132" font-family="Courier,monospace" font-size="9.00" fill="#000000"> </text>
</g>
<!-- remember_referenced_prolog_library/2&#45;&gt;::referenced_prolog_library_/2 -->
<g id="edge13" class="edge">
<title>remember_referenced_prolog_library/2&#45;&gt;::referenced_prolog_library_/2</title>
<g id="a_edge13"><a xlink:title="updates in self">
<path fill="none" stroke="#000000" d="M1480.73,-281.448C1449.82,-254.354 1392.52,-207.694 1336,-180.426 1242.96,-135.544 1211.32,-146.836 1112,-118.426 1079,-108.987 1042.49,-98.241 1011.78,-89.1192"/>
<polygon fill="#000000" stroke="#000000" points="1006.44,-92.7473 1009.29,-83.1619 1011.21,-83.7318 1008.36,-93.3172 1006.44,-92.7473"/>
<polyline fill="none" stroke="#000000" points="1006.91,-87.6696 1011.7,-89.0945 "/>
</a>
</g>
<text text-anchor="start" x="1354" y="-183.226" font-family="Courier,monospace" font-size="9.00" fill="#000000">updates in self</text>
</g>
<!-- files/3 -->
<g id="node8" class="node">
<title>files/3</title>
<ellipse fill="#f5f5dc" stroke="#000000" cx="2327" cy="-537.066" rx="53.066" ry="21.4286"/>
<text text-anchor="start" x="2298" y="-539.866" font-family="Courier,monospace" font-size="9.00" fill="#000000"> </text>
<text text-anchor="start" x="2304" y="-539.266" font-family="Courier,monospace" font-size="11.00" fill="#000000">files/3</text>
<text text-anchor="start" x="2351" y="-539.866" font-family="Courier,monospace" font-size="9.00" fill="#000000"> </text>
<text text-anchor="start" x="2298" y="-528.866" font-family="Courier,monospace" font-size="9.00" fill="#000000"> </text>
<text text-anchor="start" x="2316.5" y="-529.466" font-family="Courier,monospace" font-size="7.00" fill="#000000">local</text>
<text text-anchor="start" x="2351" y="-528.866" font-family="Courier,monospace" font-size="9.00" fill="#000000"> </text>
</g>
<!-- files_directories/2 -->
<g id="node9" class="node">
<title>files_directories/2</title>
<ellipse fill="#f5f5dc" stroke="#000000" cx="2402" cy="-302.64" rx="108.789" ry="21.4286"/>
<text text-anchor="start" x="2333" y="-305.44" font-family="Courier,monospace" font-size="9.00" fill="#000000"> </text>
<text text-anchor="start" x="2339" y="-304.84" font-family="Courier,monospace" font-size="11.00" fill="#000000">files_directories/2</text>
<text text-anchor="start" x="2465" y="-305.44" font-family="Courier,monospace" font-size="9.00" fill="#000000"> </text>
<text text-anchor="start" x="2333" y="-294.44" font-family="Courier,monospace" font-size="9.00" fill="#000000"> </text>
<text text-anchor="start" x="2391" y="-295.04" font-family="Courier,monospace" font-size="7.00" fill="#000000">local</text>
<text text-anchor="start" x="2465" y="-294.44" font-family="Courier,monospace" font-size="9.00" fill="#000000"> </text>
</g>
<!-- files/3&#45;&gt;files_directories/2 -->
<g id="edge1" class="edge">
<title>files/3&#45;&gt;files_directories/2</title>
<g id="a_edge1"><a xlink:title="calls">
<path fill="none" stroke="#000000" d="M2333.79,-515.849C2346.92,-474.807 2375.87,-384.298 2391.5,-335.445"/>
<polygon fill="#000000" stroke="#000000" points="2391.52,-335.407 2389.54,-328.474 2395.17,-323.978 2391.52,-335.407"/>
</a>
</g>
<text text-anchor="start" x="2366" y="-417.653" font-family="Courier,monospace" font-size="9.00" fill="#000000">calls</text>
</g>
<!-- directories/3 -->
<g id="node13" class="node">
<title>directories/3</title>
<ellipse fill="#f5f5dc" stroke="#000000" cx="2207" cy="-302.64" rx="68.6051" ry="18"/>
<text text-anchor="start" x="2158" y="-300.44" font-family="Courier,monospace" font-size="9.00" fill="#000000"> </text>
<text text-anchor="start" x="2164" y="-299.84" font-family="Courier,monospace" font-size="11.00" fill="#000000">directories/3</text>
<text text-anchor="start" x="2250" y="-300.44" font-family="Courier,monospace" font-size="9.00" fill="#000000"> </text>
</g>
<!-- files/3&#45;&gt;directories/3 -->
<g id="edge4" class="edge">
<title>files/3&#45;&gt;directories/3</title>
<g id="a_edge4"><a xlink:title="calls in self">
<path fill="none" stroke="#000000" d="M2316.35,-516.262C2294.89,-474.336 2246.4,-379.609 2221.84,-331.639"/>
<polygon fill="none" stroke="#000000" points="2221.76,-331.465 2215.46,-327.947 2216.29,-320.783 2221.76,-331.465"/>
</a>
</g>
<text text-anchor="start" x="2269" y="-417.653" font-family="Courier,monospace" font-size="9.00" fill="#000000">calls in self</text>
</g>
<!-- files_directories_bag/2 -->
<g id="node10" class="node">
<title>files_directories_bag/2</title>
<ellipse fill="#f5f5dc" stroke="#000000" cx="2389" cy="-68.2132" rx="127.059" ry="21.4286"/>
<text text-anchor="start" x="2307" y="-71.0132" font-family="Courier,monospace" font-size="9.00" fill="#000000"> </text>
<text text-anchor="start" x="2313" y="-70.4132" font-family="Courier,monospace" font-size="11.00" fill="#000000">files_directories_bag/2</text>
<text text-anchor="start" x="2465" y="-71.0132" font-family="Courier,monospace" font-size="9.00" fill="#000000"> </text>
<text text-anchor="start" x="2307" y="-60.0132" font-family="Courier,monospace" font-size="9.00" fill="#000000"> </text>
<text text-anchor="start" x="2378" y="-60.6132" font-family="Courier,monospace" font-size="7.00" fill="#000000">local</text>
<text text-anchor="start" x="2465" y="-60.0132" font-family="Courier,monospace" font-size="9.00" fill="#000000"> </text>
</g>
<!-- files_directories/2&#45;&gt;files_directories_bag/2 -->
<g id="edge2" class="edge">
<title>files_directories/2&#45;&gt;files_directories_bag/2</title>
<g id="a_edge2"><a xlink:title="calls">
<path fill="none" stroke="#000000" d="M2400.82,-281.422C2398.56,-240.555 2393.57,-150.638 2390.85,-101.642"/>
<polygon fill="#000000" stroke="#000000" points="2390.85,-101.533 2386.52,-95.7637 2390.18,-89.5514 2390.85,-101.533"/>
</a>
</g>
<text text-anchor="start" x="2395" y="-183.226" font-family="Courier,monospace" font-size="9.00" fill="#000000">calls</text>
</g>
<!-- reset/0 -->
<g id="node11" class="node">
<title>reset/0</title>
<ellipse fill="#f5f5dc" stroke="#000000" cx="720" cy="-302.64" rx="53.066" ry="21.4286"/>
<text text-anchor="start" x="691" y="-305.44" font-family="Courier,monospace" font-size="9.00" fill="#000000"> </text>
<text text-anchor="start" x="697" y="-304.84" font-family="Courier,monospace" font-size="11.00" fill="#000000">reset/0</text>
<text text-anchor="start" x="744" y="-305.44" font-family="Courier,monospace" font-size="9.00" fill="#000000"> </text>
<text text-anchor="start" x="691" y="-294.44" font-family="Courier,monospace" font-size="9.00" fill="#000000"> </text>
<text text-anchor="start" x="709.5" y="-295.04" font-family="Courier,monospace" font-size="7.00" fill="#000000">local</text>
<text text-anchor="start" x="744" y="-294.44" font-family="Courier,monospace" font-size="9.00" fill="#000000"> </text>
</g>
<!-- reset/0&#45;&gt;::included_library_/2 -->
<g id="edge14" class="edge">
<title>reset/0&#45;&gt;::included_library_/2</title>
<g id="a_edge14"><a xlink:title="updates in self">
<path fill="none" stroke="#000000" d="M734.116,-281.755C753.956,-254.106 792.767,-205.891 838,-180.426 946.801,-119.177 992.702,-155.267 1112,-118.426 1137.91,-110.426 1166.01,-99.552 1189.18,-89.9692"/>
<polygon fill="#000000" stroke="#000000" points="1191.21,-83.7126 1195.05,-92.9461 1193.2,-93.7141 1189.36,-84.4806 1191.21,-83.7126"/>
<polyline fill="none" stroke="#000000" points="1194.05,-87.9454 1189.43,-89.8653 "/>
</a>
</g>
<text text-anchor="start" x="838" y="-183.226" font-family="Courier,monospace" font-size="9.00" fill="#000000">updates in self</text>
</g>
<!-- reset/0&#45;&gt;::referenced_logtalk_library_/2 -->
<g id="edge15" class="edge">
<title>reset/0&#45;&gt;::referenced_logtalk_library_/2</title>
<g id="a_edge15"><a xlink:title="updates in self">
<path fill="none" stroke="#000000" d="M695.234,-283.713C670.734,-263.487 634.324,-229.066 616,-190.426 601.518,-159.888 598.429,-120.57 598.191,-94.8941"/>
<polygon fill="#000000" stroke="#000000" points="593.183,-90.6405 603.183,-90.6202 603.187,-92.6202 593.187,-92.6405 593.183,-90.6405"/>
<polyline fill="none" stroke="#000000" points="598.181,-89.6303 598.191,-94.6303 "/>
</a>
</g>
<text text-anchor="start" x="616" y="-183.226" font-family="Courier,monospace" font-size="9.00" fill="#000000">updates in self</text>
</g>
<!-- reset/0&#45;&gt;::referenced_prolog_library_/2 -->
<g id="edge16" class="edge">
<title>reset/0&#45;&gt;::referenced_prolog_library_/2</title>
<g id="a_edge16"><a xlink:title="updates in self">
<path fill="none" stroke="#000000" d="M716.835,-281.169C714.159,-255.038 713.529,-210.669 734,-180.426 765.02,-134.6 821.086,-105.915 867.198,-89.0282"/>
<polygon fill="#000000" stroke="#000000" points="869.277,-82.9648 872.666,-92.373 870.784,-93.0508 867.395,-83.6427 869.277,-82.9648"/>
<polyline fill="none" stroke="#000000" points="871.912,-87.3299 867.208,-89.0246 "/>
</a>
</g>
<text text-anchor="start" x="734" y="-183.226" font-family="Courier,monospace" font-size="9.00" fill="#000000">updates in self</text>
</g>
<!-- output_externals/1 -->
<g id="node12" class="node">
<title>output_externals/1</title>
<ellipse fill="#f5f5dc" stroke="#000000" cx="565" cy="-537.066" rx="103.889" ry="21.4286"/>
<text text-anchor="start" x="500" y="-539.866" font-family="Courier,monospace" font-size="9.00" fill="#000000"> </text>
<text text-anchor="start" x="506" y="-539.266" font-family="Courier,monospace" font-size="11.00" fill="#000000">output_externals/1</text>
<text text-anchor="start" x="625" y="-539.866" font-family="Courier,monospace" font-size="9.00" fill="#000000"> </text>
<text text-anchor="start" x="500" y="-528.866" font-family="Courier,monospace" font-size="9.00" fill="#000000"> </text>
<text text-anchor="start" x="554.5" y="-529.466" font-family="Courier,monospace" font-size="7.00" fill="#000000">local</text>
<text text-anchor="start" x="625" y="-528.866" font-family="Courier,monospace" font-size="9.00" fill="#000000"> </text>
</g>
<!-- output_externals/1&#45;&gt;add_library_documentation_url/4 -->
<g id="edge3" class="edge">
<title>output_externals/1&#45;&gt;add_library_documentation_url/4</title>
<g id="a_edge3"><a xlink:title="calls">
<path fill="none" stroke="#000000" d="M541.483,-516.262C494.163,-474.401 387.339,-379.902 333.035,-331.863"/>
<polygon fill="#000000" stroke="#000000" points="332.833,-331.685 325.689,-330.705 323.845,-323.734 332.833,-331.685"/>
</a>
</g>
<text text-anchor="start" x="438" y="-417.653" font-family="Courier,monospace" font-size="9.00" fill="#000000">calls</text>
</g>
<!-- output_externals/1&#45;&gt;list::memberchk/2 -->
<g id="edge8" class="edge">
<title>output_externals/1&#45;&gt;list::memberchk/2</title>
<g id="a_edge8"><a xlink:title="calls">
<path fill="none" stroke="#000000" d="M545.101,-516.043C526.313,-493.918 501,-457.181 501,-419.853 501,-419.853 501,-419.853 501,-185.426 501,-169.392 420.494,-123.286 365.986,-93.9056"/>
<polygon fill="#000000" stroke="#000000" points="365.702,-93.7539 358.525,-94.4462 355.125,-88.0868 365.702,-93.7539"/>
</a>
</g>
<text text-anchor="start" x="501" y="-300.44" font-family="Courier,monospace" font-size="9.00" fill="#000000">calls</text>
</g>
<!-- output_externals/1&#45;&gt;::included_library_/2 -->
<g id="edge17" class="edge">
<title>output_externals/1&#45;&gt;::included_library_/2</title>
<g id="a_edge17"><a xlink:title="updates in self">
<path fill="none" stroke="#000000" d="M666.174,-532.129C949.125,-517.658 1728,-472.996 1728,-419.853 1728,-419.853 1728,-419.853 1728,-185.426 1728,-102.523 1440.67,-141.34 1361,-118.426 1335.41,-111.068 1307.91,-100.04 1285.51,-90.1923"/>
<polygon fill="#000000" stroke="#000000" points="1279.7,-93.0871 1283.75,-83.9436 1285.58,-84.7535 1281.53,-93.897 1279.7,-93.0871"/>
<polyline fill="none" stroke="#000000" points="1280.81,-88.1104 1285.38,-90.1351 "/>
</a>
</g>
<text text-anchor="start" x="1728" y="-300.44" font-family="Courier,monospace" font-size="9.00" fill="#000000">updates in self</text>
</g>
<!-- output_externals/1&#45;&gt;::referenced_logtalk_library_/2 -->
<g id="edge18" class="edge">
<title>output_externals/1&#45;&gt;::referenced_logtalk_library_/2</title>
<g id="a_edge18"><a xlink:title="updates in self">
<path fill="none" stroke="#000000" d="M565,-515.463C565,-491.944 565,-453.226 565,-419.853 565,-419.853 565,-419.853 565,-185.426 565,-153.183 577.014,-117.855 586.759,-94.503"/>
<polygon fill="#000000" stroke="#000000" points="583.806,-88.6703 593.009,-92.5845 592.226,-94.4249 583.024,-90.5107 583.806,-88.6703"/>
<polyline fill="none" stroke="#000000" points="588.799,-89.7072 586.842,-94.3082 "/>
</a>
</g>
<text text-anchor="start" x="565" y="-300.44" font-family="Courier,monospace" font-size="9.00" fill="#000000">updates in self</text>
</g>
<!-- output_externals/1&#45;&gt;::referenced_prolog_library_/2 -->
<g id="edge19" class="edge">
<title>output_externals/1&#45;&gt;::referenced_prolog_library_/2</title>
<g id="a_edge19"><a xlink:title="updates in self">
<path fill="none" stroke="#000000" d="M586.921,-516.241C626.493,-478.491 712.231,-395.981 782,-323.853 799.807,-305.443 802.712,-299.358 821,-281.426 864.617,-238.661 894.891,-244.13 924,-190.426 940.22,-160.502 943.247,-120.708 943.205,-94.7841"/>
<polygon fill="#000000" stroke="#000000" points="938.163,-90.5202 948.162,-90.4223 948.182,-92.4222 938.182,-92.5201 938.163,-90.5202"/>
<polyline fill="none" stroke="#000000" points="943.153,-89.4713 943.202,-94.471 "/>
</a>
</g>
<text text-anchor="start" x="821" y="-300.44" font-family="Courier,monospace" font-size="9.00" fill="#000000">updates in self</text>
</g>
</g>
</svg>
