<?xml version="1.0" encoding="UTF-8" standalone="no"?>
<!DOCTYPE svg PUBLIC "-//W3C//DTD SVG 1.1//EN"
 "http://www.w3.org/Graphics/SVG/1.1/DTD/svg11.dtd">
<!-- Generated by graphviz version 2.39.20161028.1504 (20161028.1504)
 -->
<!-- Title: ports Pages: 1 -->
<svg width="420pt" height="615pt"
 viewBox="72.00 72.00 348.00 543.00" xmlns="http://www.w3.org/2000/svg" xmlns:xlink="http://www.w3.org/1999/xlink">
<g id="graph0" class="graph" transform="scale(1 1) rotate(0) translate(76 539)">
<title>ports</title>
<polygon fill="#ffffff" stroke="transparent" points="-4,4 -4,-467 272,-467 272,4 -4,4"/>
<text text-anchor="start" x="8" y="-18" font-family="Courier,monospace" font-size="10.00" fill="#8b8989">ports tool</text>
<text text-anchor="start" x="8" y="-7" font-family="Courier,monospace" font-size="10.00" fill="#8b8989">Generated on 2016/11/04, 00:44</text>
<g id="clust1" class="cluster">
<title>cluster_library_ports</title>
<g id="a_clust1"><a xlink:href="https://github.com/LogtalkDotOrg/logtalk3/tree/master/tools/ports/" xlink:title="https://github.com/LogtalkDotOrg/logtalk3/tree/master/tools/ports/">
<path fill="#eee9e9" stroke="#8b8989" d="M20,-38C20,-38 248,-38 248,-38 254,-38 260,-44 260,-50 260,-50 260,-443 260,-443 260,-449 254,-455 248,-455 248,-455 20,-455 20,-455 14,-455 8,-449 8,-443 8,-443 8,-50 8,-50 8,-44 14,-38 20,-38"/>
<text text-anchor="middle" x="31.5" y="-45" font-family="Courier,monospace" font-size="10.00" fill="#8b8989">ports</text>
</a>
</g>
</g>
<g id="clust3" class="cluster">
<title>cluster_file_/Users/pmoura/logtalk/tools/ports/ports.lgt</title>
<g id="a_clust3"><a xlink:href="https://github.com/LogtalkDotOrg/logtalk3/tree/master/tools/ports/ports.lgt" xlink:title="https://github.com/LogtalkDotOrg/logtalk3/tree/master/tools/ports/ports.lgt">
<path fill="#fffafa" stroke="#8b8989" d="M30,-67C30,-67 238,-67 238,-67 244,-67 250,-73 250,-79 250,-79 250,-205 250,-205 250,-211 244,-217 238,-217 238,-217 30,-217 30,-217 24,-217 18,-211 18,-205 18,-205 18,-79 18,-79 18,-73 24,-67 30,-67"/>
<text text-anchor="middle" x="53.5" y="-74" font-family="Courier,monospace" font-size="10.00" fill="#8b8989">ports.lgt</text>
</a>
</g>
</g>
<g id="clust4" class="cluster">
<title>cluster_other</title>
<g id="a_clust4"><a xlink:title="(external entities)">
<path fill="#ffffff" stroke="#8b8989" d="M63,-370C63,-370 170,-370 170,-370 176,-370 182,-376 182,-382 182,-382 182,-433 182,-433 182,-439 176,-445 170,-445 170,-445 63,-445 63,-445 57,-445 51,-439 51,-433 51,-433 51,-382 51,-382 51,-376 57,-370 63,-370"/>
<text text-anchor="middle" x="116.5" y="-377" font-family="Courier,monospace" font-size="10.00" fill="#8b8989">(external entities)</text>
</a>
</g>
</g>
<!-- ports -->
<g id="node1" class="node">
<title>ports</title>
<g id="a_node1"><a xlink:href="http://logtalk.org/library/ports_0.html" xlink:title="http://logtalk.org/library/ports_0.html">
<polygon fill="#f5f5dc" stroke="#000000" points="240,-207 28,-207 28,-96 240,-96 240,-207"/>
</a>
</g>
<g id="a_node1_0"><a xlink:href="ports_object_xref_diagram.svg" xlink:title="Zoom">
<image xlink:href="zoom.png" width="11px" height="11px" preserveAspectRatio="xMinYMin meet" x="36" y="-202.5"/>
</a>
</g>
<g><a xlink:href="http://logtalk.org/library/ports_0.html" xlink:title="http://logtalk.org/library/ports_0.html">
<text text-anchor="start" x="38.5" y="-183.3" font-family="Courier,monospace" font-size="9.00" fill="#000000"> </text>
<text text-anchor="start" x="119.5" y="-182.7" font-family="Courier,monospace" font-size="11.00" fill="#000000">ports</text>
<text text-anchor="start" x="226" y="-183.3" font-family="Courier,monospace" font-size="9.00" fill="#000000"> </text>
<text text-anchor="start" x="38.5" y="-172.3" font-family="Courier,monospace" font-size="9.00" fill="#000000"> </text>
<text text-anchor="start" x="117.5" y="-172.9" font-family="Courier,monospace" font-size="7.00" fill="#000000">prototype</text>
<text text-anchor="start" x="226" y="-172.3" font-family="Courier,monospace" font-size="9.00" fill="#000000"> </text>
<text text-anchor="start" x="38.5" y="-162.3" font-family="Courier,monospace" font-size="9.00" fill="#000000"> </text>
<text text-anchor="start" x="38.5" y="-152.3" font-family="Courier,monospace" font-size="9.00" fill="#000000"> </text>
<text text-anchor="start" x="120" y="-152.3" font-family="Courier,monospace" font-size="9.00" fill="#000000">data/0</text>
<text text-anchor="start" x="226" y="-152.3" font-family="Courier,monospace" font-size="9.00" fill="#000000"> </text>
<text text-anchor="start" x="38.5" y="-142.3" font-family="Courier,monospace" font-size="9.00" fill="#000000"> </text>
<text text-anchor="start" x="120" y="-142.3" font-family="Courier,monospace" font-size="9.00" fill="#000000">data/1</text>
<text text-anchor="start" x="226" y="-142.3" font-family="Courier,monospace" font-size="9.00" fill="#000000"> </text>
<text text-anchor="start" x="38.5" y="-132.3" font-family="Courier,monospace" font-size="9.00" fill="#000000"> </text>
<text text-anchor="start" x="117.5" y="-132.3" font-family="Courier,monospace" font-size="9.00" fill="#000000">reset/0</text>
<text text-anchor="start" x="226" y="-132.3" font-family="Courier,monospace" font-size="9.00" fill="#000000"> </text>
<text text-anchor="start" x="38.5" y="-122.3" font-family="Courier,monospace" font-size="9.00" fill="#000000"> </text>
<text text-anchor="start" x="117.5" y="-122.3" font-family="Courier,monospace" font-size="9.00" fill="#000000">reset/1</text>
<text text-anchor="start" x="226" y="-122.3" font-family="Courier,monospace" font-size="9.00" fill="#000000"> </text>
<text text-anchor="start" x="38.5" y="-112.3" font-family="Courier,monospace" font-size="9.00" fill="#000000"> </text>
<text text-anchor="start" x="47" y="-112.3" font-family="Courier,monospace" font-size="9.00" fill="#000000">logtalk::debug_handler_provider/1</text>
<text text-anchor="start" x="226" y="-112.3" font-family="Courier,monospace" font-size="9.00" fill="#000000"> </text>
<text text-anchor="start" x="38.5" y="-102.3" font-family="Courier,monospace" font-size="9.00" fill="#000000"> </text>
<text text-anchor="start" x="71.5" y="-102.3" font-family="Courier,monospace" font-size="9.00" fill="#000000">logtalk::debug_handler/2</text>
<text text-anchor="start" x="226" y="-102.3" font-family="Courier,monospace" font-size="9.00" fill="#000000"> </text>
</a>
</g>
</g>
<!-- logtalk -->
<g id="node2" class="node">
<title>logtalk</title>
<g id="a_node2"><a xlink:title="built&#45;in prototype">
<polygon fill="#f5f5dc" stroke="#000000" stroke-dasharray="5,2" points="168,-435 64,-435 64,-399 168,-399 168,-435"/>
<text text-anchor="start" x="72" y="-419.8" font-family="Courier,monospace" font-size="9.00" fill="#000000"> </text>
<text text-anchor="start" x="92.5" y="-419.2" font-family="Courier,monospace" font-size="11.00" fill="#000000">logtalk</text>
<text text-anchor="start" x="154" y="-419.8" font-family="Courier,monospace" font-size="9.00" fill="#000000"> </text>
<text text-anchor="start" x="72" y="-408.8" font-family="Courier,monospace" font-size="9.00" fill="#000000"> </text>
<text text-anchor="start" x="78" y="-409.4" font-family="Courier,monospace" font-size="7.00" fill="#000000">built&#45;in prototype</text>
<text text-anchor="start" x="154" y="-408.8" font-family="Courier,monospace" font-size="9.00" fill="#000000"> </text>
</a>
</g>
</g>
<!-- ports&#45;&gt;logtalk -->
<g id="edge1" class="edge">
<title>ports&#45;&gt;logtalk</title>
<g id="a_edge1"><a xlink:title="provides">
<path fill="none" stroke="#000000" d="M101.017,-207.191C87.2719,-236.565 75.6073,-273.566 81,-308 85.46,-336.478 96.1,-367.673 104.486,-389.366"/>
<polygon fill="#000000" stroke="#000000" points="105.014,-400.199 104.584,-389.613 111.521,-397.62 105.014,-400.199"/>
</a>
</g>
<text text-anchor="start" x="81" y="-300.8" font-family="Courier,monospace" font-size="9.00" fill="#000000">provides</text>
</g>
<!-- ports&#45;&gt;logtalk -->
<g id="edge2" class="edge">
<title>ports&#45;&gt;logtalk</title>
<g id="a_edge2"><a xlink:title="uses">
<path fill="none" stroke="#000000" d="M131.13,-207.293C129.507,-237.175 127.338,-274.607 125,-308 123.135,-334.634 120.603,-364.895 118.7,-386.763"/>
<polygon fill="#000000" stroke="#000000" points="118.686,-386.927 122.145,-393.255 117.635,-398.881 118.686,-386.927"/>
</a>
</g>
<text text-anchor="start" x="125" y="-300.8" font-family="Courier,monospace" font-size="9.00" fill="#000000">uses</text>
</g>
</g>
</svg>
