<?xml version="1.0" encoding="UTF-8" standalone="no"?>
<!DOCTYPE svg PUBLIC "-//W3C//DTD SVG 1.1//EN"
 "http://www.w3.org/Graphics/SVG/1.1/DTD/svg11.dtd">
<!-- Generated by graphviz version 2.39.20161028.1504 (20161028.1504)
 -->
<!-- Title: tap_report_object Pages: 1 -->
<svg width="1097pt" height="1206pt"
 viewBox="72.00 72.00 1025.00 1134.13" xmlns="http://www.w3.org/2000/svg" xmlns:xlink="http://www.w3.org/1999/xlink">
<g id="graph0" class="graph" transform="scale(1 1) rotate(0) translate(76 1130.13)">
<title>tap_report_object</title>
<polygon fill="#ffffff" stroke="transparent" points="-4,4 -4,-1058.13 949,-1058.13 949,4 -4,4"/>
<text text-anchor="start" x="8" y="-7" font-family="Courier,monospace" font-size="10.00" fill="#8b8989">Generated on 2016/11/04, 00:44</text>
<g id="clust1" class="cluster">
<title>cluster_tap_report_object</title>
<g id="a_clust1"><a xlink:href="https://github.com/LogtalkDotOrg/logtalk3/tree/master/tools/lgtunit/tap_report.lgt" xlink:title="https://github.com/LogtalkDotOrg/logtalk3/tree/master/tools/lgtunit/tap_report.lgt">
<path fill="#fffafa" stroke="#8b8989" d="M20,-27C20,-27 925,-27 925,-27 931,-27 937,-33 937,-39 937,-39 937,-1034.13 937,-1034.13 937,-1040.13 931,-1046.13 925,-1046.13 925,-1046.13 20,-1046.13 20,-1046.13 14,-1046.13 8,-1040.13 8,-1034.13 8,-1034.13 8,-39 8,-39 8,-33 14,-27 20,-27"/>
<text text-anchor="middle" x="46.5" y="-1034.13" font-family="Courier,monospace" font-size="10.00" fill="#8b8989">tap_report</text>
</a>
</g>
</g>
<g id="clust2" class="cluster">
<title>cluster_other</title>
<g id="a_clust2"><a xlink:title="(external predicates)">
<path fill="#ffffff" stroke="#8b8989" d="M589,-495.853C589,-495.853 915,-495.853 915,-495.853 921,-495.853 927,-501.853 927,-507.853 927,-507.853 927,-565.279 927,-565.279 927,-571.279 921,-577.279 915,-577.279 915,-577.279 589,-577.279 589,-577.279 583,-577.279 577,-571.279 577,-565.279 577,-565.279 577,-507.853 577,-507.853 577,-501.853 583,-495.853 589,-495.853"/>
<text text-anchor="middle" x="648.5" y="-565.279" font-family="Courier,monospace" font-size="10.00" fill="#8b8989">(external predicates)</text>
</a>
</g>
</g>
<!-- message_hook/1 -->
<g id="node1" class="node">
<title>message_hook/1</title>
<ellipse fill="#f5f5dc" stroke="#000000" cx="536" cy="-761.492" rx="85.6199" ry="21.4286"/>
<text text-anchor="start" x="484" y="-764.292" font-family="Courier,monospace" font-size="9.00" fill="#000000"> </text>
<text text-anchor="start" x="490" y="-763.692" font-family="Courier,monospace" font-size="11.00" fill="#000000">message_hook/1</text>
<text text-anchor="start" x="583" y="-764.292" font-family="Courier,monospace" font-size="9.00" fill="#000000"> </text>
<text text-anchor="start" x="484" y="-753.292" font-family="Courier,monospace" font-size="9.00" fill="#000000"> </text>
<text text-anchor="start" x="525.5" y="-753.892" font-family="Courier,monospace" font-size="7.00" fill="#000000">local</text>
<text text-anchor="start" x="583" y="-753.292" font-family="Courier,monospace" font-size="9.00" fill="#000000"> </text>
</g>
<!-- write_failed_reason_message/1 -->
<g id="node2" class="node">
<title>write_failed_reason_message/1</title>
<ellipse fill="#f5f5dc" stroke="#000000" cx="174" cy="-527.066" rx="155.627" ry="21.4286"/>
<text text-anchor="start" x="72" y="-529.866" font-family="Courier,monospace" font-size="9.00" fill="#000000"> </text>
<text text-anchor="start" x="78" y="-529.266" font-family="Courier,monospace" font-size="11.00" fill="#000000">write_failed_reason_message/1</text>
<text text-anchor="start" x="270" y="-529.866" font-family="Courier,monospace" font-size="9.00" fill="#000000"> </text>
<text text-anchor="start" x="72" y="-518.866" font-family="Courier,monospace" font-size="9.00" fill="#000000"> </text>
<text text-anchor="start" x="163" y="-519.466" font-family="Courier,monospace" font-size="7.00" fill="#000000">local</text>
<text text-anchor="start" x="270" y="-518.866" font-family="Courier,monospace" font-size="9.00" fill="#000000"> </text>
</g>
<!-- message_hook/1&#45;&gt;write_failed_reason_message/1 -->
<g id="edge4" class="edge">
<title>message_hook/1&#45;&gt;write_failed_reason_message/1</title>
<g id="a_edge4"><a xlink:title="calls">
<path fill="none" stroke="#000000" d="M505.136,-741.505C440.357,-699.556 290.13,-602.27 216.384,-554.513"/>
<polygon fill="#000000" stroke="#000000" points="216.15,-554.362 208.94,-554.458 206.078,-547.839 216.15,-554.362"/>
</a>
</g>
<text text-anchor="start" x="362" y="-642.079" font-family="Courier,monospace" font-size="9.00" fill="#000000">calls</text>
</g>
<!-- write_test_note/2 -->
<g id="node4" class="node">
<title>write_test_note/2</title>
<ellipse fill="#f5f5dc" stroke="#000000" cx="447" cy="-527.066" rx="99.9045" ry="21.4286"/>
<text text-anchor="start" x="385" y="-529.866" font-family="Courier,monospace" font-size="9.00" fill="#000000"> </text>
<text text-anchor="start" x="391" y="-529.266" font-family="Courier,monospace" font-size="11.00" fill="#000000">write_test_note/2</text>
<text text-anchor="start" x="504" y="-529.866" font-family="Courier,monospace" font-size="9.00" fill="#000000"> </text>
<text text-anchor="start" x="385" y="-518.866" font-family="Courier,monospace" font-size="9.00" fill="#000000"> </text>
<text text-anchor="start" x="436.5" y="-519.466" font-family="Courier,monospace" font-size="7.00" fill="#000000">local</text>
<text text-anchor="start" x="504" y="-518.866" font-family="Courier,monospace" font-size="9.00" fill="#000000"> </text>
</g>
<!-- message_hook/1&#45;&gt;write_test_note/2 -->
<g id="edge3" class="edge">
<title>message_hook/1&#45;&gt;write_test_note/2</title>
<g id="a_edge3"><a xlink:title="calls">
<path fill="none" stroke="#000000" d="M527.945,-740.275C512.364,-699.234 478.002,-608.725 459.455,-559.872"/>
<polygon fill="#000000" stroke="#000000" points="459.36,-559.623 453.491,-555.433 455.101,-548.404 459.36,-559.623"/>
</a>
</g>
<text text-anchor="start" x="493" y="-642.079" font-family="Courier,monospace" font-size="9.00" fill="#000000">calls</text>
</g>
<!-- pretty_print_term/1 -->
<g id="node5" class="node">
<title>pretty_print_term/1</title>
<ellipse fill="#f5f5dc" stroke="#000000" cx="493" cy="-58.2132" rx="108.789" ry="21.4286"/>
<text text-anchor="start" x="424" y="-61.0132" font-family="Courier,monospace" font-size="9.00" fill="#000000"> </text>
<text text-anchor="start" x="430" y="-60.4132" font-family="Courier,monospace" font-size="11.00" fill="#000000">pretty_print_term/1</text>
<text text-anchor="start" x="556" y="-61.0132" font-family="Courier,monospace" font-size="9.00" fill="#000000"> </text>
<text text-anchor="start" x="424" y="-50.0132" font-family="Courier,monospace" font-size="9.00" fill="#000000"> </text>
<text text-anchor="start" x="482" y="-50.6132" font-family="Courier,monospace" font-size="7.00" fill="#000000">local</text>
<text text-anchor="start" x="556" y="-50.0132" font-family="Courier,monospace" font-size="9.00" fill="#000000"> </text>
</g>
<!-- message_hook/1&#45;&gt;pretty_print_term/1 -->
<g id="edge2" class="edge">
<title>message_hook/1&#45;&gt;pretty_print_term/1</title>
<g id="a_edge2"><a xlink:title="calls">
<path fill="none" stroke="#000000" d="M544.839,-740.306C553.688,-717.144 566,-678.728 566,-644.279 566,-644.279 566,-644.279 566,-175.426 566,-141.864 544.168,-109.955 524.382,-87.9289"/>
<polygon fill="#000000" stroke="#000000" points="524.318,-87.8605 517.294,-86.2294 516.098,-79.1182 524.318,-87.8605"/>
</a>
</g>
<text text-anchor="start" x="566" y="-407.653" font-family="Courier,monospace" font-size="9.00" fill="#000000">calls</text>
</g>
<!-- logtalk::loaded_file_property/2 -->
<g id="node7" class="node">
<title>logtalk::loaded_file_property/2</title>
<g id="a_node7"><a xlink:href="http://logtalk.org/library/logtalk_0.html#loaded_file_property/2" xlink:title="http://logtalk.org/library/logtalk_0.html#loaded_file_property/2">
<ellipse fill="#d3d3d3" stroke="#000000" stroke-dasharray="5,2" cx="752" cy="-527.066" rx="164.512" ry="21.4286"/>
<text text-anchor="start" x="644" y="-529.866" font-family="Courier,monospace" font-size="9.00" fill="#000000"> </text>
<text text-anchor="start" x="650" y="-529.266" font-family="Courier,monospace" font-size="11.00" fill="#000000">logtalk::loaded_file_property/2</text>
<text text-anchor="start" x="855" y="-529.866" font-family="Courier,monospace" font-size="9.00" fill="#000000"> </text>
<text text-anchor="start" x="644" y="-518.866" font-family="Courier,monospace" font-size="9.00" fill="#000000"> </text>
<text text-anchor="start" x="735.5" y="-519.466" font-family="Courier,monospace" font-size="7.00" fill="#000000">external</text>
<text text-anchor="start" x="855" y="-518.866" font-family="Courier,monospace" font-size="9.00" fill="#000000"> </text>
</a>
</g>
</g>
<!-- message_hook/1&#45;&gt;logtalk::loaded_file_property/2 -->
<g id="edge7" class="edge">
<title>message_hook/1&#45;&gt;logtalk::loaded_file_property/2</title>
<g id="a_edge7"><a xlink:title="calls">
<path fill="none" stroke="#000000" d="M555.169,-740.689C593.5,-699.088 679.731,-605.501 724.244,-557.19"/>
<polygon fill="#000000" stroke="#000000" points="724.433,-556.985 725.557,-549.862 732.564,-548.16 724.433,-556.985"/>
</a>
</g>
<text text-anchor="start" x="648" y="-642.079" font-family="Courier,monospace" font-size="9.00" fill="#000000">calls</text>
</g>
<!-- write_failed_reason_message_data/1 -->
<g id="node3" class="node">
<title>write_failed_reason_message_data/1</title>
<ellipse fill="#f5f5dc" stroke="#000000" cx="320" cy="-292.64" rx="178.796" ry="21.4286"/>
<text text-anchor="start" x="202" y="-295.44" font-family="Courier,monospace" font-size="9.00" fill="#000000"> </text>
<text text-anchor="start" x="208" y="-294.84" font-family="Courier,monospace" font-size="11.00" fill="#000000">write_failed_reason_message_data/1</text>
<text text-anchor="start" x="433" y="-295.44" font-family="Courier,monospace" font-size="9.00" fill="#000000"> </text>
<text text-anchor="start" x="202" y="-284.44" font-family="Courier,monospace" font-size="9.00" fill="#000000"> </text>
<text text-anchor="start" x="309.5" y="-285.04" font-family="Courier,monospace" font-size="7.00" fill="#000000">local</text>
<text text-anchor="start" x="433" y="-284.44" font-family="Courier,monospace" font-size="9.00" fill="#000000"> </text>
</g>
<!-- write_failed_reason_message/1&#45;&gt;write_failed_reason_message_data/1 -->
<g id="edge5" class="edge">
<title>write_failed_reason_message/1&#45;&gt;write_failed_reason_message_data/1</title>
<g id="a_edge5"><a xlink:title="calls">
<path fill="none" stroke="#000000" d="M187.214,-505.849C212.991,-464.46 270.101,-372.761 300.337,-324.212"/>
<polygon fill="#000000" stroke="#000000" points="300.367,-324.164 300.143,-316.956 306.711,-313.978 300.367,-324.164"/>
</a>
</g>
<text text-anchor="start" x="250" y="-407.653" font-family="Courier,monospace" font-size="9.00" fill="#000000">calls</text>
</g>
<!-- write_failed_reason_message_data/1&#45;&gt;pretty_print_term/1 -->
<g id="edge6" class="edge">
<title>write_failed_reason_message_data/1&#45;&gt;pretty_print_term/1</title>
<g id="a_edge6"><a xlink:title="calls">
<path fill="none" stroke="#000000" d="M335.658,-271.422C366.343,-229.841 434.501,-137.483 470.197,-89.113"/>
<polygon fill="#000000" stroke="#000000" points="470.377,-88.8691 470.721,-81.6662 477.502,-79.2136 470.377,-88.8691"/>
</a>
</g>
<text text-anchor="start" x="410" y="-173.226" font-family="Courier,monospace" font-size="9.00" fill="#000000">calls</text>
</g>
<!-- logtalk::message_hook/4 -->
<g id="node6" class="node">
<title>logtalk::message_hook/4</title>
<g id="a_node6"><a xlink:href="http://logtalk.org/library/logtalk_0.html#message_hook/4" xlink:title="http://logtalk.org/library/logtalk_0.html#message_hook/4">
<ellipse fill="#87ceeb" stroke="#000000" cx="536" cy="-995.919" rx="127.059" ry="21.4286"/>
<text text-anchor="start" x="454" y="-998.719" font-family="Courier,monospace" font-size="9.00" fill="#000000"> </text>
<text text-anchor="start" x="460" y="-998.119" font-family="Courier,monospace" font-size="11.00" fill="#000000">logtalk::message_hook/4</text>
<text text-anchor="start" x="612" y="-998.719" font-family="Courier,monospace" font-size="9.00" fill="#000000"> </text>
<text text-anchor="start" x="454" y="-987.719" font-family="Courier,monospace" font-size="9.00" fill="#000000"> </text>
<text text-anchor="start" x="517" y="-988.319" font-family="Courier,monospace" font-size="7.00" fill="#000000">multifile</text>
<text text-anchor="start" x="612" y="-987.719" font-family="Courier,monospace" font-size="9.00" fill="#000000"> </text>
</a>
</g>
</g>
<!-- logtalk::message_hook/4&#45;&gt;message_hook/1 -->
<g id="edge1" class="edge">
<title>logtalk::message_hook/4&#45;&gt;message_hook/1</title>
<g id="a_edge1"><a xlink:title="calls">
<path fill="none" stroke="#000000" d="M536,-974.702C536,-933.834 536,-843.917 536,-794.921"/>
<polygon fill="#000000" stroke="#000000" points="536,-794.831 532,-788.831 536,-782.831 536,-794.831"/>
</a>
</g>
<text text-anchor="start" x="536" y="-876.506" font-family="Courier,monospace" font-size="9.00" fill="#000000">calls</text>
</g>
</g>
</svg>
