<?xml version="1.0" encoding="UTF-8" standalone="no"?>
<!DOCTYPE svg PUBLIC "-//W3C//DTD SVG 1.1//EN"
 "http://www.w3.org/Graphics/SVG/1.1/DTD/svg11.dtd">
<!-- Generated by graphviz version 2.39.20161028.1504 (20161028.1504)
 -->
<!-- Title: tap_output_object Pages: 1 -->
<svg width="737pt" height="1206pt"
 viewBox="72.00 72.00 665.00 1134.13" xmlns="http://www.w3.org/2000/svg" xmlns:xlink="http://www.w3.org/1999/xlink">
<g id="graph0" class="graph" transform="scale(1 1) rotate(0) translate(76 1130.13)">
<title>tap_output_object</title>
<polygon fill="#ffffff" stroke="transparent" points="-4,4 -4,-1058.13 589,-1058.13 589,4 -4,4"/>
<text text-anchor="start" x="8" y="-7" font-family="Courier,monospace" font-size="10.00" fill="#8b8989">Generated on 2016/11/04, 00:44</text>
<g id="clust1" class="cluster">
<title>cluster_tap_output_object</title>
<g id="a_clust1"><a xlink:href="https://github.com/LogtalkDotOrg/logtalk3/tree/master/tools/lgtunit/tap_output.lgt" xlink:title="https://github.com/LogtalkDotOrg/logtalk3/tree/master/tools/lgtunit/tap_output.lgt">
<path fill="#fffafa" stroke="#8b8989" d="M20,-27C20,-27 565,-27 565,-27 571,-27 577,-33 577,-39 577,-39 577,-1034.13 577,-1034.13 577,-1040.13 571,-1046.13 565,-1046.13 565,-1046.13 20,-1046.13 20,-1046.13 14,-1046.13 8,-1040.13 8,-1034.13 8,-1034.13 8,-39 8,-39 8,-33 14,-27 20,-27"/>
<text text-anchor="middle" x="46.5" y="-1034.13" font-family="Courier,monospace" font-size="10.00" fill="#8b8989">tap_output</text>
</a>
</g>
</g>
<!-- message_hook/1 -->
<g id="node1" class="node">
<title>message_hook/1</title>
<ellipse fill="#f5f5dc" stroke="#000000" cx="444" cy="-761.492" rx="85.6199" ry="21.4286"/>
<text text-anchor="start" x="392" y="-764.292" font-family="Courier,monospace" font-size="9.00" fill="#000000"> </text>
<text text-anchor="start" x="398" y="-763.692" font-family="Courier,monospace" font-size="11.00" fill="#000000">message_hook/1</text>
<text text-anchor="start" x="491" y="-764.292" font-family="Courier,monospace" font-size="9.00" fill="#000000"> </text>
<text text-anchor="start" x="392" y="-753.292" font-family="Courier,monospace" font-size="9.00" fill="#000000"> </text>
<text text-anchor="start" x="433.5" y="-753.892" font-family="Courier,monospace" font-size="7.00" fill="#000000">local</text>
<text text-anchor="start" x="491" y="-753.292" font-family="Courier,monospace" font-size="9.00" fill="#000000"> </text>
</g>
<!-- write_failed_reason_message/1 -->
<g id="node2" class="node">
<title>write_failed_reason_message/1</title>
<ellipse fill="#f5f5dc" stroke="#000000" cx="174" cy="-527.066" rx="155.627" ry="21.4286"/>
<text text-anchor="start" x="72" y="-529.866" font-family="Courier,monospace" font-size="9.00" fill="#000000"> </text>
<text text-anchor="start" x="78" y="-529.266" font-family="Courier,monospace" font-size="11.00" fill="#000000">write_failed_reason_message/1</text>
<text text-anchor="start" x="270" y="-529.866" font-family="Courier,monospace" font-size="9.00" fill="#000000"> </text>
<text text-anchor="start" x="72" y="-518.866" font-family="Courier,monospace" font-size="9.00" fill="#000000"> </text>
<text text-anchor="start" x="163" y="-519.466" font-family="Courier,monospace" font-size="7.00" fill="#000000">local</text>
<text text-anchor="start" x="270" y="-518.866" font-family="Courier,monospace" font-size="9.00" fill="#000000"> </text>
</g>
<!-- message_hook/1&#45;&gt;write_failed_reason_message/1 -->
<g id="edge4" class="edge">
<title>message_hook/1&#45;&gt;write_failed_reason_message/1</title>
<g id="a_edge4"><a xlink:title="calls">
<path fill="none" stroke="#000000" d="M420.039,-740.689C371.826,-698.828 262.987,-604.329 207.658,-556.289"/>
<polygon fill="#000000" stroke="#000000" points="207.356,-556.028 200.203,-555.114 198.295,-548.16 207.356,-556.028"/>
</a>
</g>
<text text-anchor="start" x="314" y="-642.079" font-family="Courier,monospace" font-size="9.00" fill="#000000">calls</text>
</g>
<!-- write_test_note/2 -->
<g id="node4" class="node">
<title>write_test_note/2</title>
<ellipse fill="#f5f5dc" stroke="#000000" cx="447" cy="-527.066" rx="99.9045" ry="21.4286"/>
<text text-anchor="start" x="385" y="-529.866" font-family="Courier,monospace" font-size="9.00" fill="#000000"> </text>
<text text-anchor="start" x="391" y="-529.266" font-family="Courier,monospace" font-size="11.00" fill="#000000">write_test_note/2</text>
<text text-anchor="start" x="504" y="-529.866" font-family="Courier,monospace" font-size="9.00" fill="#000000"> </text>
<text text-anchor="start" x="385" y="-518.866" font-family="Courier,monospace" font-size="9.00" fill="#000000"> </text>
<text text-anchor="start" x="436.5" y="-519.466" font-family="Courier,monospace" font-size="7.00" fill="#000000">local</text>
<text text-anchor="start" x="504" y="-518.866" font-family="Courier,monospace" font-size="9.00" fill="#000000"> </text>
</g>
<!-- message_hook/1&#45;&gt;write_test_note/2 -->
<g id="edge3" class="edge">
<title>message_hook/1&#45;&gt;write_test_note/2</title>
<g id="a_edge3"><a xlink:title="calls">
<path fill="none" stroke="#000000" d="M444.272,-740.275C444.795,-699.408 445.945,-609.491 446.572,-560.495"/>
<polygon fill="#000000" stroke="#000000" points="446.573,-560.403 442.65,-554.353 446.727,-548.404 446.573,-560.403"/>
</a>
</g>
<text text-anchor="start" x="445" y="-642.079" font-family="Courier,monospace" font-size="9.00" fill="#000000">calls</text>
</g>
<!-- pretty_print_term/1 -->
<g id="node5" class="node">
<title>pretty_print_term/1</title>
<ellipse fill="#f5f5dc" stroke="#000000" cx="379" cy="-58.2132" rx="108.789" ry="21.4286"/>
<text text-anchor="start" x="310" y="-61.0132" font-family="Courier,monospace" font-size="9.00" fill="#000000"> </text>
<text text-anchor="start" x="316" y="-60.4132" font-family="Courier,monospace" font-size="11.00" fill="#000000">pretty_print_term/1</text>
<text text-anchor="start" x="442" y="-61.0132" font-family="Courier,monospace" font-size="9.00" fill="#000000"> </text>
<text text-anchor="start" x="310" y="-50.0132" font-family="Courier,monospace" font-size="9.00" fill="#000000"> </text>
<text text-anchor="start" x="368" y="-50.6132" font-family="Courier,monospace" font-size="7.00" fill="#000000">local</text>
<text text-anchor="start" x="442" y="-50.0132" font-family="Courier,monospace" font-size="9.00" fill="#000000"> </text>
</g>
<!-- message_hook/1&#45;&gt;pretty_print_term/1 -->
<g id="edge2" class="edge">
<title>message_hook/1&#45;&gt;pretty_print_term/1</title>
<g id="a_edge2"><a xlink:title="calls">
<path fill="none" stroke="#000000" d="M459.524,-740.508C485.597,-703.811 537.174,-624.599 556,-548.279 560.516,-529.972 557.089,-524.678 556,-505.853 552.216,-440.414 539,-424.901 539,-359.353 539,-359.353 539,-359.353 539,-175.426 539,-128.486 493.632,-98.3012 451.213,-80.3369"/>
<polygon fill="#000000" stroke="#000000" points="451.081,-80.2839 444.022,-81.7589 439.946,-75.8105 451.081,-80.2839"/>
</a>
</g>
<text text-anchor="start" x="542" y="-407.653" font-family="Courier,monospace" font-size="9.00" fill="#000000">calls</text>
</g>
<!-- write_failed_reason_message_data/1 -->
<g id="node3" class="node">
<title>write_failed_reason_message_data/1</title>
<ellipse fill="#f5f5dc" stroke="#000000" cx="299" cy="-292.64" rx="178.796" ry="21.4286"/>
<text text-anchor="start" x="181" y="-295.44" font-family="Courier,monospace" font-size="9.00" fill="#000000"> </text>
<text text-anchor="start" x="187" y="-294.84" font-family="Courier,monospace" font-size="11.00" fill="#000000">write_failed_reason_message_data/1</text>
<text text-anchor="start" x="412" y="-295.44" font-family="Courier,monospace" font-size="9.00" fill="#000000"> </text>
<text text-anchor="start" x="181" y="-284.44" font-family="Courier,monospace" font-size="9.00" fill="#000000"> </text>
<text text-anchor="start" x="288.5" y="-285.04" font-family="Courier,monospace" font-size="7.00" fill="#000000">local</text>
<text text-anchor="start" x="412" y="-284.44" font-family="Courier,monospace" font-size="9.00" fill="#000000"> </text>
</g>
<!-- write_failed_reason_message/1&#45;&gt;write_failed_reason_message_data/1 -->
<g id="edge5" class="edge">
<title>write_failed_reason_message/1&#45;&gt;write_failed_reason_message_data/1</title>
<g id="a_edge5"><a xlink:title="calls">
<path fill="none" stroke="#000000" d="M185.313,-505.849C207.29,-464.634 255.868,-373.53 281.837,-324.826"/>
<polygon fill="#000000" stroke="#000000" points="281.976,-324.567 281.269,-317.39 287.622,-313.978 281.976,-324.567"/>
</a>
</g>
<text text-anchor="start" x="239" y="-407.653" font-family="Courier,monospace" font-size="9.00" fill="#000000">calls</text>
</g>
<!-- write_failed_reason_message_data/1&#45;&gt;pretty_print_term/1 -->
<g id="edge6" class="edge">
<title>write_failed_reason_message_data/1&#45;&gt;pretty_print_term/1</title>
<g id="a_edge6"><a xlink:title="calls">
<path fill="none" stroke="#000000" d="M306.241,-271.422C320.246,-230.381 351.133,-139.872 367.805,-91.0187"/>
<polygon fill="#000000" stroke="#000000" points="367.842,-90.9083 365.995,-83.938 371.718,-79.5514 367.842,-90.9083"/>
</a>
</g>
<text text-anchor="start" x="340" y="-173.226" font-family="Courier,monospace" font-size="9.00" fill="#000000">calls</text>
</g>
<!-- logtalk::message_hook/4 -->
<g id="node6" class="node">
<title>logtalk::message_hook/4</title>
<g id="a_node6"><a xlink:href="http://logtalk.org/library/logtalk_0.html#message_hook/4" xlink:title="http://logtalk.org/library/logtalk_0.html#message_hook/4">
<ellipse fill="#87ceeb" stroke="#000000" cx="440" cy="-995.919" rx="127.059" ry="21.4286"/>
<text text-anchor="start" x="358" y="-998.719" font-family="Courier,monospace" font-size="9.00" fill="#000000"> </text>
<text text-anchor="start" x="364" y="-998.119" font-family="Courier,monospace" font-size="11.00" fill="#000000">logtalk::message_hook/4</text>
<text text-anchor="start" x="516" y="-998.719" font-family="Courier,monospace" font-size="9.00" fill="#000000"> </text>
<text text-anchor="start" x="358" y="-987.719" font-family="Courier,monospace" font-size="9.00" fill="#000000"> </text>
<text text-anchor="start" x="421" y="-988.319" font-family="Courier,monospace" font-size="7.00" fill="#000000">multifile</text>
<text text-anchor="start" x="516" y="-987.719" font-family="Courier,monospace" font-size="9.00" fill="#000000"> </text>
</a>
</g>
</g>
<!-- logtalk::message_hook/4&#45;&gt;message_hook/1 -->
<g id="edge1" class="edge">
<title>logtalk::message_hook/4&#45;&gt;message_hook/1</title>
<g id="a_edge1"><a xlink:title="calls">
<path fill="none" stroke="#000000" d="M440.362,-974.702C441.059,-933.834 442.594,-843.917 443.43,-794.921"/>
<polygon fill="#000000" stroke="#000000" points="443.431,-794.829 439.534,-788.761 443.636,-782.831 443.431,-794.829"/>
</a>
</g>
<text text-anchor="start" x="442" y="-876.506" font-family="Courier,monospace" font-size="9.00" fill="#000000">calls</text>
</g>
</g>
</svg>
