<?xml version="1.0" encoding="UTF-8" standalone="no"?>
<!DOCTYPE svg PUBLIC "-//W3C//DTD SVG 1.1//EN"
 "http://www.w3.org/Graphics/SVG/1.1/DTD/svg11.dtd">
<!-- Generated by graphviz version 2.39.20161028.1504 (20161028.1504)
 -->
<!-- Title: tools Pages: 1 -->
<svg width="1448pt" height="773pt"
 viewBox="72.00 72.00 1376.00 701.00" xmlns="http://www.w3.org/2000/svg" xmlns:xlink="http://www.w3.org/1999/xlink">
<g id="graph0" class="graph" transform="scale(1 1) rotate(0) translate(76 697)">
<title>tools</title>
<polygon fill="#ffffff" stroke="transparent" points="-4,4 -4,-625 1300,-625 1300,4 -4,4"/>
<text text-anchor="start" x="8" y="-18" font-family="Courier,monospace" font-size="10.00" fill="#8b8989">Developer tools</text>
<text text-anchor="start" x="8" y="-7" font-family="Courier,monospace" font-size="10.00" fill="#8b8989">Generated on 2016/11/04, 00:44</text>
<g id="clust1" class="cluster">
<title>cluster_rlibrary_tools</title>
<g id="a_clust1"><a xlink:href="https://github.com/LogtalkDotOrg/logtalk3/tree/master/tools/" xlink:title="https://github.com/LogtalkDotOrg/logtalk3/tree/master/tools/">
<path fill="#cdc9c9" stroke="#8b8989" d="M20,-38C20,-38 1276,-38 1276,-38 1282,-38 1288,-44 1288,-50 1288,-50 1288,-601 1288,-601 1288,-607 1282,-613 1276,-613 1276,-613 20,-613 20,-613 14,-613 8,-607 8,-601 8,-601 8,-50 8,-50 8,-44 14,-38 20,-38"/>
<text text-anchor="middle" x="31.5" y="-601" font-family="Courier,monospace" font-size="10.00" fill="#8b8989">tools</text>
</a>
</g>
</g>
<g id="clust2" class="cluster">
<title>cluster_library_tools</title>
<g id="a_clust2"><a xlink:href="https://github.com/LogtalkDotOrg/logtalk3/tree/master/tools/" xlink:title="https://github.com/LogtalkDotOrg/logtalk3/tree/master/tools/">
<path fill="#eee9e9" stroke="#8b8989" d="M673,-509C673,-509 731,-509 731,-509 737,-509 743,-515 743,-521 743,-521 743,-572 743,-572 743,-578 737,-584 731,-584 731,-584 673,-584 673,-584 667,-584 661,-578 661,-572 661,-572 661,-521 661,-521 661,-515 667,-509 673,-509"/>
<text text-anchor="middle" x="684.5" y="-572" font-family="Courier,monospace" font-size="10.00" fill="#8b8989">tools</text>
</a>
</g>
</g>
<g id="clust3" class="cluster">
<title>cluster_library_assertions</title>
<g id="a_clust3"><a xlink:href="https://github.com/LogtalkDotOrg/logtalk3/tree/master/tools/assertions/" xlink:title="https://github.com/LogtalkDotOrg/logtalk3/tree/master/tools/assertions/">
<path fill="#eee9e9" stroke="#8b8989" d="M30,-276C30,-276 126,-276 126,-276 132,-276 138,-282 138,-288 138,-288 138,-344 138,-344 138,-350 132,-356 126,-356 126,-356 30,-356 30,-356 24,-356 18,-350 18,-344 18,-344 18,-288 18,-288 18,-282 24,-276 30,-276"/>
<text text-anchor="middle" x="56.5" y="-344" font-family="Courier,monospace" font-size="10.00" fill="#8b8989">assertions</text>
</a>
</g>
</g>
<g id="clust4" class="cluster">
<title>cluster_library_dead_code_scanner</title>
<g id="a_clust4"><a xlink:href="https://github.com/LogtalkDotOrg/logtalk3/tree/master/tools/dead_code_scanner/" xlink:title="https://github.com/LogtalkDotOrg/logtalk3/tree/master/tools/dead_code_scanner/">
<path fill="#eee9e9" stroke="#8b8989" d="M160,-276C160,-276 302,-276 302,-276 308,-276 314,-282 314,-288 314,-288 314,-344 314,-344 314,-350 308,-356 302,-356 302,-356 160,-356 160,-356 154,-356 148,-350 148,-344 148,-344 148,-288 148,-288 148,-282 154,-276 160,-276"/>
<text text-anchor="middle" x="207.5" y="-344" font-family="Courier,monospace" font-size="10.00" fill="#8b8989">dead_code_scanner</text>
</a>
</g>
</g>
<g id="clust5" class="cluster">
<title>cluster_library_debugger</title>
<g id="a_clust5"><a xlink:href="https://github.com/LogtalkDotOrg/logtalk3/tree/master/tools/debugger/" xlink:title="https://github.com/LogtalkDotOrg/logtalk3/tree/master/tools/debugger/">
<path fill="#eee9e9" stroke="#8b8989" d="M336,-276C336,-276 418,-276 418,-276 424,-276 430,-282 430,-288 430,-288 430,-344 430,-344 430,-350 424,-356 418,-356 418,-356 336,-356 336,-356 330,-356 324,-350 324,-344 324,-344 324,-288 324,-288 324,-282 330,-276 336,-276"/>
<text text-anchor="middle" x="356.5" y="-344" font-family="Courier,monospace" font-size="10.00" fill="#8b8989">debugger</text>
</a>
</g>
</g>
<g id="clust6" class="cluster">
<title>cluster_library_diagrams</title>
<g id="a_clust6"><a xlink:href="https://github.com/LogtalkDotOrg/logtalk3/tree/master/tools/diagrams/" xlink:title="https://github.com/LogtalkDotOrg/logtalk3/tree/master/tools/diagrams/">
<path fill="#eee9e9" stroke="#8b8989" d="M452,-276C452,-276 534,-276 534,-276 540,-276 546,-282 546,-288 546,-288 546,-344 546,-344 546,-350 540,-356 534,-356 534,-356 452,-356 452,-356 446,-356 440,-350 440,-344 440,-344 440,-288 440,-288 440,-282 446,-276 452,-276"/>
<text text-anchor="middle" x="472.5" y="-344" font-family="Courier,monospace" font-size="10.00" fill="#8b8989">diagrams</text>
</a>
</g>
</g>
<g id="clust7" class="cluster">
<title>cluster_library_doclet</title>
<g id="a_clust7"><a xlink:href="https://github.com/LogtalkDotOrg/logtalk3/tree/master/tools/doclet/" xlink:title="https://github.com/LogtalkDotOrg/logtalk3/tree/master/tools/doclet/">
<path fill="#eee9e9" stroke="#8b8989" d="M568,-276C568,-276 638,-276 638,-276 644,-276 650,-282 650,-288 650,-288 650,-344 650,-344 650,-350 644,-356 638,-356 638,-356 568,-356 568,-356 562,-356 556,-350 556,-344 556,-344 556,-288 556,-288 556,-282 562,-276 568,-276"/>
<text text-anchor="middle" x="582.5" y="-344" font-family="Courier,monospace" font-size="10.00" fill="#8b8989">doclet</text>
</a>
</g>
</g>
<g id="clust8" class="cluster">
<title>cluster_library_help</title>
<g id="a_clust8"><a xlink:href="https://github.com/LogtalkDotOrg/logtalk3/tree/master/tools/help/" xlink:title="https://github.com/LogtalkDotOrg/logtalk3/tree/master/tools/help/">
<path fill="#eee9e9" stroke="#8b8989" d="M672,-276C672,-276 732,-276 732,-276 738,-276 744,-282 744,-288 744,-288 744,-344 744,-344 744,-350 738,-356 732,-356 732,-356 672,-356 672,-356 666,-356 660,-350 660,-344 660,-344 660,-288 660,-288 660,-282 666,-276 672,-276"/>
<text text-anchor="middle" x="680.5" y="-344" font-family="Courier,monospace" font-size="10.00" fill="#8b8989">help</text>
</a>
</g>
</g>
<g id="clust9" class="cluster">
<title>cluster_library_lgtdoc</title>
<g id="a_clust9"><a xlink:href="https://github.com/LogtalkDotOrg/logtalk3/tree/master/tools/lgtdoc/" xlink:title="https://github.com/LogtalkDotOrg/logtalk3/tree/master/tools/lgtdoc/">
<path fill="#eee9e9" stroke="#8b8989" d="M766,-276C766,-276 836,-276 836,-276 842,-276 848,-282 848,-288 848,-288 848,-344 848,-344 848,-350 842,-356 836,-356 836,-356 766,-356 766,-356 760,-356 754,-350 754,-344 754,-344 754,-288 754,-288 754,-282 760,-276 766,-276"/>
<text text-anchor="middle" x="780.5" y="-344" font-family="Courier,monospace" font-size="10.00" fill="#8b8989">lgtdoc</text>
</a>
</g>
</g>
<g id="clust10" class="cluster">
<title>cluster_library_lgtunit</title>
<g id="a_clust10"><a xlink:href="https://github.com/LogtalkDotOrg/logtalk3/tree/master/tools/lgtunit/" xlink:title="https://github.com/LogtalkDotOrg/logtalk3/tree/master/tools/lgtunit/">
<path fill="#eee9e9" stroke="#8b8989" d="M870,-276C870,-276 946,-276 946,-276 952,-276 958,-282 958,-288 958,-288 958,-344 958,-344 958,-350 952,-356 946,-356 946,-356 870,-356 870,-356 864,-356 858,-350 858,-344 858,-344 858,-288 858,-288 858,-282 864,-276 870,-276"/>
<text text-anchor="middle" x="887.5" y="-344" font-family="Courier,monospace" font-size="10.00" fill="#8b8989">lgtunit</text>
</a>
</g>
</g>
<g id="clust11" class="cluster">
<title>cluster_library_ports</title>
<g id="a_clust11"><a xlink:href="https://github.com/LogtalkDotOrg/logtalk3/tree/master/tools/ports/" xlink:title="https://github.com/LogtalkDotOrg/logtalk3/tree/master/tools/ports/">
<path fill="#eee9e9" stroke="#8b8989" d="M980,-276C980,-276 1044,-276 1044,-276 1050,-276 1056,-282 1056,-288 1056,-288 1056,-344 1056,-344 1056,-350 1050,-356 1044,-356 1044,-356 980,-356 980,-356 974,-356 968,-350 968,-344 968,-344 968,-288 968,-288 968,-282 974,-276 980,-276"/>
<text text-anchor="middle" x="991.5" y="-344" font-family="Courier,monospace" font-size="10.00" fill="#8b8989">ports</text>
</a>
</g>
</g>
<g id="clust12" class="cluster">
<title>cluster_library_profiler</title>
<g id="a_clust12"><a xlink:href="https://github.com/LogtalkDotOrg/logtalk3/tree/master/tools/profiler/" xlink:title="https://github.com/LogtalkDotOrg/logtalk3/tree/master/tools/profiler/">
<path fill="#eee9e9" stroke="#8b8989" d="M1078,-278.5C1078,-278.5 1156,-278.5 1156,-278.5 1162,-278.5 1168,-284.5 1168,-290.5 1168,-290.5 1168,-341.5 1168,-341.5 1168,-347.5 1162,-353.5 1156,-353.5 1156,-353.5 1078,-353.5 1078,-353.5 1072,-353.5 1066,-347.5 1066,-341.5 1066,-341.5 1066,-290.5 1066,-290.5 1066,-284.5 1072,-278.5 1078,-278.5"/>
<text text-anchor="middle" x="1098.5" y="-341.5" font-family="Courier,monospace" font-size="10.00" fill="#8b8989">profiler</text>
</a>
</g>
</g>
<g id="clust13" class="cluster">
<title>cluster_library_wrapper</title>
<g id="a_clust13"><a xlink:href="https://github.com/LogtalkDotOrg/logtalk3/tree/master/tools/wrapper/" xlink:title="https://github.com/LogtalkDotOrg/logtalk3/tree/master/tools/wrapper/">
<path fill="#eee9e9" stroke="#8b8989" d="M1190,-276C1190,-276 1266,-276 1266,-276 1272,-276 1278,-282 1278,-288 1278,-288 1278,-344 1278,-344 1278,-350 1272,-356 1266,-356 1266,-356 1190,-356 1190,-356 1184,-356 1178,-350 1178,-344 1178,-344 1178,-288 1178,-288 1178,-282 1184,-276 1190,-276"/>
<text text-anchor="middle" x="1207.5" y="-344" font-family="Courier,monospace" font-size="10.00" fill="#8b8989">wrapper</text>
</a>
</g>
</g>
<g id="clust14" class="cluster">
<title>cluster_other</title>
<g id="a_clust14"><a xlink:title="(external libraries)">
<path fill="#ffffff" stroke="#8b8989" d="M610,-48C610,-48 758,-48 758,-48 764,-48 770,-54 770,-60 770,-60 770,-111 770,-111 770,-117 764,-123 758,-123 758,-123 610,-123 610,-123 604,-123 598,-117 598,-111 598,-111 598,-60 598,-60 598,-54 604,-48 610,-48"/>
<text text-anchor="middle" x="666.5" y="-111" font-family="Courier,monospace" font-size="10.00" fill="#8b8989">(external libraries)</text>
</a>
</g>
</g>
<!-- tools/ -->
<g id="node1" class="node">
<title>tools/</title>
<g id="a_node1"><a xlink:href="http://logtalk.org/library/directory_index.html#tools/" xlink:title="http://logtalk.org/library/directory_index.html#tools/">
<polygon fill="#ffffe0" stroke="#000000" points="733,-555 675,-555 671,-551 671,-519 729,-519 733,-523 733,-555"/>
<polyline fill="none" stroke="#000000" points="729,-551 671,-551 "/>
<polyline fill="none" stroke="#000000" points="729,-551 729,-519 "/>
<polyline fill="none" stroke="#000000" points="729,-551 733,-555 "/>
<text text-anchor="start" x="679" y="-539.8" font-family="Courier,monospace" font-size="9.00" fill="#000000"> </text>
<text text-anchor="start" x="685" y="-539.2" font-family="Courier,monospace" font-size="11.00" fill="#000000">tools</text>
<text text-anchor="start" x="719" y="-539.8" font-family="Courier,monospace" font-size="9.00" fill="#000000"> </text>
<text text-anchor="start" x="679" y="-528.8" font-family="Courier,monospace" font-size="9.00" fill="#000000"> </text>
<text text-anchor="start" x="687" y="-529.4" font-family="Courier,monospace" font-size="7.00" fill="#000000">library</text>
<text text-anchor="start" x="719" y="-528.8" font-family="Courier,monospace" font-size="9.00" fill="#000000"> </text>
</a>
</g>
</g>
<!-- tools/assertions/ -->
<g id="node2" class="node">
<title>tools/assertions/</title>
<g id="a_node2"><a xlink:href="http://logtalk.org/library/directory_index.html#tools/assertions/" xlink:title="http://logtalk.org/library/directory_index.html#tools/assertions/">
<polygon fill="#ffffe0" stroke="#000000" points="128,-327 32,-327 28,-323 28,-286 124,-286 128,-290 128,-327"/>
<polyline fill="none" stroke="#000000" points="124,-323 28,-323 "/>
<polyline fill="none" stroke="#000000" points="124,-323 124,-286 "/>
<polyline fill="none" stroke="#000000" points="124,-323 128,-327 "/>
</a>
</g>
<g id="a_node2_0"><a xlink:href="assertions_entity_diagram.svg" xlink:title="Zoom">
<image xlink:href="zoom.png" width="11px" height="11px" preserveAspectRatio="xMinYMin meet" x="36" y="-322.5"/>
</a>
</g>
<g><a xlink:href="http://logtalk.org/library/directory_index.html#tools/assertions/" xlink:title="http://logtalk.org/library/directory_index.html#tools/assertions/">
<text text-anchor="start" x="38.5" y="-303.3" font-family="Courier,monospace" font-size="9.00" fill="#000000"> </text>
<text text-anchor="start" x="47" y="-302.7" font-family="Courier,monospace" font-size="11.00" fill="#000000">assertions</text>
<text text-anchor="start" x="114" y="-303.3" font-family="Courier,monospace" font-size="9.00" fill="#000000"> </text>
<text text-anchor="start" x="38.5" y="-292.3" font-family="Courier,monospace" font-size="9.00" fill="#000000"> </text>
<text text-anchor="start" x="65.5" y="-292.9" font-family="Courier,monospace" font-size="7.00" fill="#000000">library</text>
<text text-anchor="start" x="114" y="-292.3" font-family="Courier,monospace" font-size="9.00" fill="#000000"> </text>
</a>
</g>
</g>
<!-- tools/&#45;&gt;tools/assertions/ -->
<g id="edge1" class="edge">
<title>tools/&#45;&gt;tools/assertions/</title>
<g id="a_edge1"><a xlink:title="depends">
<path fill="none" stroke="#000000" d="M670.965,-530.718C584.087,-512.352 332.488,-453.789 144,-356 132.062,-349.806 120.002,-341.497 109.516,-333.457"/>
<polygon fill="#000000" stroke="#000000" points="111.494,-330.559 101.476,-327.112 107.158,-336.055 111.494,-330.559"/>
</a>
</g>
<text text-anchor="start" x="307" y="-420.8" font-family="Courier,monospace" font-size="9.00" fill="#000000">depends</text>
</g>
<!-- tools/dead_code_scanner/ -->
<g id="node3" class="node">
<title>tools/dead_code_scanner/</title>
<g id="a_node3"><a xlink:href="http://logtalk.org/library/directory_index.html#tools/dead_code_scanner/" xlink:title="http://logtalk.org/library/directory_index.html#tools/dead_code_scanner/">
<polygon fill="#ffffe0" stroke="#000000" points="304,-327 162,-327 158,-323 158,-286 300,-286 304,-290 304,-327"/>
<polyline fill="none" stroke="#000000" points="300,-323 158,-323 "/>
<polyline fill="none" stroke="#000000" points="300,-323 300,-286 "/>
<polyline fill="none" stroke="#000000" points="300,-323 304,-327 "/>
</a>
</g>
<g id="a_node3_1"><a xlink:href="dead_code_scanner_entity_diagram.svg" xlink:title="Zoom">
<image xlink:href="zoom.png" width="11px" height="11px" preserveAspectRatio="xMinYMin meet" x="166" y="-322.5"/>
</a>
</g>
<g><a xlink:href="http://logtalk.org/library/directory_index.html#tools/dead_code_scanner/" xlink:title="http://logtalk.org/library/directory_index.html#tools/dead_code_scanner/">
<text text-anchor="start" x="168.5" y="-303.3" font-family="Courier,monospace" font-size="9.00" fill="#000000"> </text>
<text text-anchor="start" x="177" y="-302.7" font-family="Courier,monospace" font-size="11.00" fill="#000000">dead_code_scanner</text>
<text text-anchor="start" x="290" y="-303.3" font-family="Courier,monospace" font-size="9.00" fill="#000000"> </text>
<text text-anchor="start" x="168.5" y="-292.3" font-family="Courier,monospace" font-size="9.00" fill="#000000"> </text>
<text text-anchor="start" x="218.5" y="-292.9" font-family="Courier,monospace" font-size="7.00" fill="#000000">library</text>
<text text-anchor="start" x="290" y="-292.3" font-family="Courier,monospace" font-size="9.00" fill="#000000"> </text>
</a>
</g>
</g>
<!-- tools/&#45;&gt;tools/dead_code_scanner/ -->
<g id="edge2" class="edge">
<title>tools/&#45;&gt;tools/dead_code_scanner/</title>
<g id="a_edge2"><a xlink:title="depends">
<path fill="none" stroke="#000000" d="M670.968,-523.126C605.473,-493.663 448.566,-422.123 320,-356 305.426,-348.504 289.737,-339.947 275.652,-332.079"/>
<polygon fill="#000000" stroke="#000000" points="277.088,-328.872 266.655,-327.027 273.661,-334.975 277.088,-328.872"/>
</a>
</g>
<text text-anchor="start" x="464" y="-420.8" font-family="Courier,monospace" font-size="9.00" fill="#000000">depends</text>
</g>
<!-- tools/debugger/ -->
<g id="node4" class="node">
<title>tools/debugger/</title>
<g id="a_node4"><a xlink:href="http://logtalk.org/library/directory_index.html#tools/debugger/" xlink:title="http://logtalk.org/library/directory_index.html#tools/debugger/">
<polygon fill="#ffffe0" stroke="#000000" points="420,-327 338,-327 334,-323 334,-286 416,-286 420,-290 420,-327"/>
<polyline fill="none" stroke="#000000" points="416,-323 334,-323 "/>
<polyline fill="none" stroke="#000000" points="416,-323 416,-286 "/>
<polyline fill="none" stroke="#000000" points="416,-323 420,-327 "/>
</a>
</g>
<g id="a_node4_2"><a xlink:href="debugger_entity_diagram.svg" xlink:title="Zoom">
<image xlink:href="zoom.png" width="11px" height="11px" preserveAspectRatio="xMinYMin meet" x="342" y="-322.5"/>
</a>
</g>
<g><a xlink:href="http://logtalk.org/library/directory_index.html#tools/debugger/" xlink:title="http://logtalk.org/library/directory_index.html#tools/debugger/">
<text text-anchor="start" x="344.5" y="-303.3" font-family="Courier,monospace" font-size="9.00" fill="#000000"> </text>
<text text-anchor="start" x="353" y="-302.7" font-family="Courier,monospace" font-size="11.00" fill="#000000">debugger</text>
<text text-anchor="start" x="406" y="-303.3" font-family="Courier,monospace" font-size="9.00" fill="#000000"> </text>
<text text-anchor="start" x="344.5" y="-292.3" font-family="Courier,monospace" font-size="9.00" fill="#000000"> </text>
<text text-anchor="start" x="364.5" y="-292.9" font-family="Courier,monospace" font-size="7.00" fill="#000000">library</text>
<text text-anchor="start" x="406" y="-292.3" font-family="Courier,monospace" font-size="9.00" fill="#000000"> </text>
</a>
</g>
</g>
<!-- tools/&#45;&gt;tools/debugger/ -->
<g id="edge3" class="edge">
<title>tools/&#45;&gt;tools/debugger/</title>
<g id="a_edge3"><a xlink:title="depends">
<path fill="none" stroke="#000000" d="M673.392,-518.885C623.942,-487.278 519.74,-419.366 436,-356 426.776,-349.02 417.048,-341.104 408.21,-333.683"/>
<polygon fill="#000000" stroke="#000000" points="410.275,-330.844 400.384,-327.047 405.747,-336.183 410.275,-330.844"/>
</a>
</g>
<text text-anchor="start" x="535" y="-420.8" font-family="Courier,monospace" font-size="9.00" fill="#000000">depends</text>
</g>
<!-- tools/diagrams/ -->
<g id="node5" class="node">
<title>tools/diagrams/</title>
<g id="a_node5"><a xlink:href="http://logtalk.org/library/directory_index.html#tools/diagrams/" xlink:title="http://logtalk.org/library/directory_index.html#tools/diagrams/">
<polygon fill="#ffffe0" stroke="#000000" points="536,-327 454,-327 450,-323 450,-286 532,-286 536,-290 536,-327"/>
<polyline fill="none" stroke="#000000" points="532,-323 450,-323 "/>
<polyline fill="none" stroke="#000000" points="532,-323 532,-286 "/>
<polyline fill="none" stroke="#000000" points="532,-323 536,-327 "/>
</a>
</g>
<g id="a_node5_3"><a xlink:href="diagrams_entity_diagram.svg" xlink:title="Zoom">
<image xlink:href="zoom.png" width="11px" height="11px" preserveAspectRatio="xMinYMin meet" x="458" y="-322.5"/>
</a>
</g>
<g><a xlink:href="http://logtalk.org/library/directory_index.html#tools/diagrams/" xlink:title="http://logtalk.org/library/directory_index.html#tools/diagrams/">
<text text-anchor="start" x="460.5" y="-303.3" font-family="Courier,monospace" font-size="9.00" fill="#000000"> </text>
<text text-anchor="start" x="469" y="-302.7" font-family="Courier,monospace" font-size="11.00" fill="#000000">diagrams</text>
<text text-anchor="start" x="522" y="-303.3" font-family="Courier,monospace" font-size="9.00" fill="#000000"> </text>
<text text-anchor="start" x="460.5" y="-292.3" font-family="Courier,monospace" font-size="9.00" fill="#000000"> </text>
<text text-anchor="start" x="480.5" y="-292.9" font-family="Courier,monospace" font-size="7.00" fill="#000000">library</text>
<text text-anchor="start" x="522" y="-292.3" font-family="Courier,monospace" font-size="9.00" fill="#000000"> </text>
</a>
</g>
</g>
<!-- tools/&#45;&gt;tools/diagrams/ -->
<g id="edge4" class="edge">
<title>tools/&#45;&gt;tools/diagrams/</title>
<g id="a_edge4"><a xlink:title="depends">
<path fill="none" stroke="#000000" d="M685.6,-518.913C649.32,-478.901 562.04,-382.642 518.538,-334.666"/>
<polygon fill="#000000" stroke="#000000" points="521.007,-332.177 511.697,-327.12 515.821,-336.879 521.007,-332.177"/>
</a>
</g>
<text text-anchor="start" x="602" y="-420.8" font-family="Courier,monospace" font-size="9.00" fill="#000000">depends</text>
</g>
<!-- tools/doclet/ -->
<g id="node6" class="node">
<title>tools/doclet/</title>
<g id="a_node6"><a xlink:href="http://logtalk.org/library/directory_index.html#tools/doclet/" xlink:title="http://logtalk.org/library/directory_index.html#tools/doclet/">
<polygon fill="#ffffe0" stroke="#000000" points="639.5,-327 570.5,-327 566.5,-323 566.5,-286 635.5,-286 639.5,-290 639.5,-327"/>
<polyline fill="none" stroke="#000000" points="635.5,-323 566.5,-323 "/>
<polyline fill="none" stroke="#000000" points="635.5,-323 635.5,-286 "/>
<polyline fill="none" stroke="#000000" points="635.5,-323 639.5,-327 "/>
</a>
</g>
<g id="a_node6_4"><a xlink:href="doclet_entity_diagram.svg" xlink:title="Zoom">
<image xlink:href="zoom.png" width="11px" height="11px" preserveAspectRatio="xMinYMin meet" x="575" y="-322.5"/>
</a>
</g>
<g><a xlink:href="http://logtalk.org/library/directory_index.html#tools/doclet/" xlink:title="http://logtalk.org/library/directory_index.html#tools/doclet/">
<text text-anchor="start" x="577.5" y="-303.3" font-family="Courier,monospace" font-size="9.00" fill="#000000"> </text>
<text text-anchor="start" x="586" y="-302.7" font-family="Courier,monospace" font-size="11.00" fill="#000000">doclet</text>
<text text-anchor="start" x="626" y="-303.3" font-family="Courier,monospace" font-size="9.00" fill="#000000"> </text>
<text text-anchor="start" x="577.5" y="-292.3" font-family="Courier,monospace" font-size="9.00" fill="#000000"> </text>
<text text-anchor="start" x="591" y="-292.9" font-family="Courier,monospace" font-size="7.00" fill="#000000">library</text>
<text text-anchor="start" x="626" y="-292.3" font-family="Courier,monospace" font-size="9.00" fill="#000000"> </text>
</a>
</g>
</g>
<!-- tools/&#45;&gt;tools/doclet/ -->
<g id="edge5" class="edge">
<title>tools/&#45;&gt;tools/doclet/</title>
<g id="a_edge5"><a xlink:title="depends">
<path fill="none" stroke="#000000" d="M694.232,-518.913C677.259,-479.396 636.722,-385.015 615.871,-336.468"/>
<polygon fill="#000000" stroke="#000000" points="619.019,-334.927 611.856,-327.12 612.587,-337.69 619.019,-334.927"/>
</a>
</g>
<text text-anchor="start" x="654" y="-420.8" font-family="Courier,monospace" font-size="9.00" fill="#000000">depends</text>
</g>
<!-- tools/help/ -->
<g id="node7" class="node">
<title>tools/help/</title>
<g id="a_node7"><a xlink:href="http://logtalk.org/library/directory_index.html#tools/help/" xlink:title="http://logtalk.org/library/directory_index.html#tools/help/">
<polygon fill="#ffffe0" stroke="#000000" points="733.5,-327 674.5,-327 670.5,-323 670.5,-286 729.5,-286 733.5,-290 733.5,-327"/>
<polyline fill="none" stroke="#000000" points="729.5,-323 670.5,-323 "/>
<polyline fill="none" stroke="#000000" points="729.5,-323 729.5,-286 "/>
<polyline fill="none" stroke="#000000" points="729.5,-323 733.5,-327 "/>
</a>
</g>
<g id="a_node7_5"><a xlink:href="help_entity_diagram.svg" xlink:title="Zoom">
<image xlink:href="zoom.png" width="11px" height="11px" preserveAspectRatio="xMinYMin meet" x="679" y="-322.5"/>
</a>
</g>
<g><a xlink:href="http://logtalk.org/library/directory_index.html#tools/help/" xlink:title="http://logtalk.org/library/directory_index.html#tools/help/">
<text text-anchor="start" x="681.5" y="-303.3" font-family="Courier,monospace" font-size="9.00" fill="#000000"> </text>
<text text-anchor="start" x="691.5" y="-302.7" font-family="Courier,monospace" font-size="11.00" fill="#000000">help</text>
<text text-anchor="start" x="720" y="-303.3" font-family="Courier,monospace" font-size="9.00" fill="#000000"> </text>
<text text-anchor="start" x="681.5" y="-292.3" font-family="Courier,monospace" font-size="9.00" fill="#000000"> </text>
<text text-anchor="start" x="690" y="-292.9" font-family="Courier,monospace" font-size="7.00" fill="#000000">library</text>
<text text-anchor="start" x="720" y="-292.3" font-family="Courier,monospace" font-size="9.00" fill="#000000"> </text>
</a>
</g>
</g>
<!-- tools/&#45;&gt;tools/help/ -->
<g id="edge6" class="edge">
<title>tools/&#45;&gt;tools/help/</title>
<g id="a_edge6"><a xlink:title="depends">
<path fill="none" stroke="#000000" d="M702,-518.913C702,-479.644 702,-386.195 702,-337.386"/>
<polygon fill="#000000" stroke="#000000" points="705.5,-337.12 702,-327.12 698.5,-337.12 705.5,-337.12"/>
</a>
</g>
<text text-anchor="start" x="702" y="-420.8" font-family="Courier,monospace" font-size="9.00" fill="#000000">depends</text>
</g>
<!-- tools/lgtdoc/ -->
<g id="node8" class="node">
<title>tools/lgtdoc/</title>
<g id="a_node8"><a xlink:href="http://logtalk.org/library/directory_index.html#tools/lgtdoc/" xlink:title="http://logtalk.org/library/directory_index.html#tools/lgtdoc/">
<polygon fill="#ffffe0" stroke="#000000" points="837.5,-327 768.5,-327 764.5,-323 764.5,-286 833.5,-286 837.5,-290 837.5,-327"/>
<polyline fill="none" stroke="#000000" points="833.5,-323 764.5,-323 "/>
<polyline fill="none" stroke="#000000" points="833.5,-323 833.5,-286 "/>
<polyline fill="none" stroke="#000000" points="833.5,-323 837.5,-327 "/>
</a>
</g>
<g id="a_node8_6"><a xlink:href="lgtdoc_entity_diagram.svg" xlink:title="Zoom">
<image xlink:href="zoom.png" width="11px" height="11px" preserveAspectRatio="xMinYMin meet" x="773" y="-322.5"/>
</a>
</g>
<g><a xlink:href="http://logtalk.org/library/directory_index.html#tools/lgtdoc/" xlink:title="http://logtalk.org/library/directory_index.html#tools/lgtdoc/">
<text text-anchor="start" x="775.5" y="-303.3" font-family="Courier,monospace" font-size="9.00" fill="#000000"> </text>
<text text-anchor="start" x="784" y="-302.7" font-family="Courier,monospace" font-size="11.00" fill="#000000">lgtdoc</text>
<text text-anchor="start" x="824" y="-303.3" font-family="Courier,monospace" font-size="9.00" fill="#000000"> </text>
<text text-anchor="start" x="775.5" y="-292.3" font-family="Courier,monospace" font-size="9.00" fill="#000000"> </text>
<text text-anchor="start" x="789" y="-292.9" font-family="Courier,monospace" font-size="7.00" fill="#000000">library</text>
<text text-anchor="start" x="824" y="-292.3" font-family="Courier,monospace" font-size="9.00" fill="#000000"> </text>
</a>
</g>
</g>
<!-- tools/&#45;&gt;tools/lgtdoc/ -->
<g id="edge7" class="edge">
<title>tools/&#45;&gt;tools/lgtdoc/</title>
<g id="a_edge7"><a xlink:title="depends">
<path fill="none" stroke="#000000" d="M709.768,-518.913C726.741,-479.396 767.278,-385.015 788.129,-336.468"/>
<polygon fill="#000000" stroke="#000000" points="791.413,-337.69 792.144,-327.12 784.981,-334.927 791.413,-337.69"/>
</a>
</g>
<text text-anchor="start" x="752" y="-420.8" font-family="Courier,monospace" font-size="9.00" fill="#000000">depends</text>
</g>
<!-- tools/lgtunit/ -->
<g id="node9" class="node">
<title>tools/lgtunit/</title>
<g id="a_node9"><a xlink:href="http://logtalk.org/library/directory_index.html#tools/lgtunit/" xlink:title="http://logtalk.org/library/directory_index.html#tools/lgtunit/">
<polygon fill="#ffffe0" stroke="#000000" points="948,-327 872,-327 868,-323 868,-286 944,-286 948,-290 948,-327"/>
<polyline fill="none" stroke="#000000" points="944,-323 868,-323 "/>
<polyline fill="none" stroke="#000000" points="944,-323 944,-286 "/>
<polyline fill="none" stroke="#000000" points="944,-323 948,-327 "/>
</a>
</g>
<g id="a_node9_7"><a xlink:href="lgtunit_entity_diagram.svg" xlink:title="Zoom">
<image xlink:href="zoom.png" width="11px" height="11px" preserveAspectRatio="xMinYMin meet" x="876" y="-322.5"/>
</a>
</g>
<g><a xlink:href="http://logtalk.org/library/directory_index.html#tools/lgtunit/" xlink:title="http://logtalk.org/library/directory_index.html#tools/lgtunit/">
<text text-anchor="start" x="878.5" y="-303.3" font-family="Courier,monospace" font-size="9.00" fill="#000000"> </text>
<text text-anchor="start" x="887" y="-302.7" font-family="Courier,monospace" font-size="11.00" fill="#000000">lgtunit</text>
<text text-anchor="start" x="934" y="-303.3" font-family="Courier,monospace" font-size="9.00" fill="#000000"> </text>
<text text-anchor="start" x="878.5" y="-292.3" font-family="Courier,monospace" font-size="9.00" fill="#000000"> </text>
<text text-anchor="start" x="895.5" y="-292.9" font-family="Courier,monospace" font-size="7.00" fill="#000000">library</text>
<text text-anchor="start" x="934" y="-292.3" font-family="Courier,monospace" font-size="9.00" fill="#000000"> </text>
</a>
</g>
</g>
<!-- tools/&#45;&gt;tools/lgtunit/ -->
<g id="edge8" class="edge">
<title>tools/&#45;&gt;tools/lgtunit/</title>
<g id="a_edge8"><a xlink:title="depends">
<path fill="none" stroke="#000000" d="M718.164,-518.913C753.924,-478.901 839.951,-382.642 882.828,-334.666"/>
<polygon fill="#000000" stroke="#000000" points="885.518,-336.909 889.572,-327.12 880.298,-332.244 885.518,-336.909"/>
</a>
</g>
<text text-anchor="start" x="807" y="-420.8" font-family="Courier,monospace" font-size="9.00" fill="#000000">depends</text>
</g>
<!-- tools/ports/ -->
<g id="node10" class="node">
<title>tools/ports/</title>
<g id="a_node10"><a xlink:href="http://logtalk.org/library/directory_index.html#tools/ports/" xlink:title="http://logtalk.org/library/directory_index.html#tools/ports/">
<polygon fill="#ffffe0" stroke="#000000" points="1045.5,-327 982.5,-327 978.5,-323 978.5,-286 1041.5,-286 1045.5,-290 1045.5,-327"/>
<polyline fill="none" stroke="#000000" points="1041.5,-323 978.5,-323 "/>
<polyline fill="none" stroke="#000000" points="1041.5,-323 1041.5,-286 "/>
<polyline fill="none" stroke="#000000" points="1041.5,-323 1045.5,-327 "/>
</a>
</g>
<g id="a_node10_8"><a xlink:href="ports_entity_diagram.svg" xlink:title="Zoom">
<image xlink:href="zoom.png" width="11px" height="11px" preserveAspectRatio="xMinYMin meet" x="987" y="-322.5"/>
</a>
</g>
<g><a xlink:href="http://logtalk.org/library/directory_index.html#tools/ports/" xlink:title="http://logtalk.org/library/directory_index.html#tools/ports/">
<text text-anchor="start" x="989.5" y="-303.3" font-family="Courier,monospace" font-size="9.00" fill="#000000"> </text>
<text text-anchor="start" x="998" y="-302.7" font-family="Courier,monospace" font-size="11.00" fill="#000000">ports</text>
<text text-anchor="start" x="1032" y="-303.3" font-family="Courier,monospace" font-size="9.00" fill="#000000"> </text>
<text text-anchor="start" x="989.5" y="-292.3" font-family="Courier,monospace" font-size="9.00" fill="#000000"> </text>
<text text-anchor="start" x="1000" y="-292.9" font-family="Courier,monospace" font-size="7.00" fill="#000000">library</text>
<text text-anchor="start" x="1032" y="-292.3" font-family="Courier,monospace" font-size="9.00" fill="#000000"> </text>
</a>
</g>
</g>
<!-- tools/&#45;&gt;tools/ports/ -->
<g id="edge9" class="edge">
<title>tools/&#45;&gt;tools/ports/</title>
<g id="a_edge9"><a xlink:title="depends">
<path fill="none" stroke="#000000" d="M731.256,-518.982C780.659,-488.052 882.957,-421.804 962,-356 970.026,-349.318 978.269,-341.578 985.687,-334.232"/>
<polygon fill="#000000" stroke="#000000" points="988.234,-336.634 992.793,-327.071 983.265,-331.704 988.234,-336.634"/>
</a>
</g>
<text text-anchor="start" x="881" y="-420.8" font-family="Courier,monospace" font-size="9.00" fill="#000000">depends</text>
</g>
<!-- tools/profiler/ -->
<g id="node11" class="node">
<title>tools/profiler/</title>
<g id="a_node11"><a xlink:href="http://logtalk.org/library/directory_index.html#tools/profiler/" xlink:title="http://logtalk.org/library/directory_index.html#tools/profiler/">
<polygon fill="#ffffe0" stroke="#000000" points="1157.5,-324.5 1080.5,-324.5 1076.5,-320.5 1076.5,-288.5 1153.5,-288.5 1157.5,-292.5 1157.5,-324.5"/>
<polyline fill="none" stroke="#000000" points="1153.5,-320.5 1076.5,-320.5 "/>
<polyline fill="none" stroke="#000000" points="1153.5,-320.5 1153.5,-288.5 "/>
<polyline fill="none" stroke="#000000" points="1153.5,-320.5 1157.5,-324.5 "/>
<text text-anchor="start" x="1085" y="-309.3" font-family="Courier,monospace" font-size="9.00" fill="#000000"> </text>
<text text-anchor="start" x="1091" y="-308.7" font-family="Courier,monospace" font-size="11.00" fill="#000000">profiler</text>
<text text-anchor="start" x="1144" y="-309.3" font-family="Courier,monospace" font-size="9.00" fill="#000000"> </text>
<text text-anchor="start" x="1085" y="-298.3" font-family="Courier,monospace" font-size="9.00" fill="#000000"> </text>
<text text-anchor="start" x="1102.5" y="-298.9" font-family="Courier,monospace" font-size="7.00" fill="#000000">library</text>
<text text-anchor="start" x="1144" y="-298.3" font-family="Courier,monospace" font-size="9.00" fill="#000000"> </text>
</a>
</g>
</g>
<!-- tools/&#45;&gt;tools/profiler/ -->
<g id="edge10" class="edge">
<title>tools/&#45;&gt;tools/profiler/</title>
<g id="a_edge10"><a xlink:title="depends">
<path fill="none" stroke="#000000" d="M733.206,-524.525C797.318,-498.201 947.299,-433.018 1060,-356 1070.65,-348.721 1081.54,-339.721 1090.91,-331.399"/>
<polygon fill="#000000" stroke="#000000" points="1093.32,-333.933 1098.38,-324.622 1088.62,-328.747 1093.32,-333.933"/>
</a>
</g>
<text text-anchor="start" x="956" y="-420.8" font-family="Courier,monospace" font-size="9.00" fill="#000000">depends</text>
</g>
<!-- tools/wrapper/ -->
<g id="node12" class="node">
<title>tools/wrapper/</title>
<g id="a_node12"><a xlink:href="http://logtalk.org/library/directory_index.html#tools/wrapper/" xlink:title="http://logtalk.org/library/directory_index.html#tools/wrapper/">
<polygon fill="#ffffe0" stroke="#000000" points="1268,-327 1192,-327 1188,-323 1188,-286 1264,-286 1268,-290 1268,-327"/>
<polyline fill="none" stroke="#000000" points="1264,-323 1188,-323 "/>
<polyline fill="none" stroke="#000000" points="1264,-323 1264,-286 "/>
<polyline fill="none" stroke="#000000" points="1264,-323 1268,-327 "/>
</a>
</g>
<g id="a_node12_9"><a xlink:href="wrapper_entity_diagram.svg" xlink:title="Zoom">
<image xlink:href="zoom.png" width="11px" height="11px" preserveAspectRatio="xMinYMin meet" x="1196" y="-322.5"/>
</a>
</g>
<g><a xlink:href="http://logtalk.org/library/directory_index.html#tools/wrapper/" xlink:title="http://logtalk.org/library/directory_index.html#tools/wrapper/">
<text text-anchor="start" x="1198.5" y="-303.3" font-family="Courier,monospace" font-size="9.00" fill="#000000"> </text>
<text text-anchor="start" x="1207" y="-302.7" font-family="Courier,monospace" font-size="11.00" fill="#000000">wrapper</text>
<text text-anchor="start" x="1254" y="-303.3" font-family="Courier,monospace" font-size="9.00" fill="#000000"> </text>
<text text-anchor="start" x="1198.5" y="-292.3" font-family="Courier,monospace" font-size="9.00" fill="#000000"> </text>
<text text-anchor="start" x="1215.5" y="-292.9" font-family="Courier,monospace" font-size="7.00" fill="#000000">library</text>
<text text-anchor="start" x="1254" y="-292.3" font-family="Courier,monospace" font-size="9.00" fill="#000000"> </text>
</a>
</g>
</g>
<!-- tools/&#45;&gt;tools/wrapper/ -->
<g id="edge11" class="edge">
<title>tools/&#45;&gt;tools/wrapper/</title>
<g id="a_edge11"><a xlink:title="depends">
<path fill="none" stroke="#000000" d="M733.281,-529.396C811.565,-509.457 1020.51,-450.579 1172,-356 1181.94,-349.792 1191.84,-341.801 1200.49,-334.058"/>
<polygon fill="#000000" stroke="#000000" points="1203.08,-336.433 1208.05,-327.076 1198.33,-331.292 1203.08,-336.433"/>
</a>
</g>
<text text-anchor="start" x="1053" y="-420.8" font-family="Courier,monospace" font-size="9.00" fill="#000000">depends</text>
</g>
<!-- core/ -->
<g id="node13" class="node">
<title>core/</title>
<g id="a_node13"><a xlink:href="http://logtalk.org/library/directory_index.html#core/" xlink:title="http://logtalk.org/library/directory_index.html#core/">
<polygon fill="#ffffe0" stroke="#000000" stroke-dasharray="5,2" points="666,-94 612,-94 608,-90 608,-58 662,-58 666,-62 666,-94"/>
<polyline fill="none" stroke="#000000" stroke-dasharray="5,2" points="662,-90 608,-90 "/>
<polyline fill="none" stroke="#000000" stroke-dasharray="5,2" points="662,-90 662,-58 "/>
<polyline fill="none" stroke="#000000" stroke-dasharray="5,2" points="662,-90 666,-94 "/>
<text text-anchor="start" x="616" y="-78.8" font-family="Courier,monospace" font-size="9.00" fill="#000000"> </text>
<text text-anchor="start" x="623.5" y="-78.2" font-family="Courier,monospace" font-size="11.00" fill="#000000">core</text>
<text text-anchor="start" x="652" y="-78.8" font-family="Courier,monospace" font-size="9.00" fill="#000000"> </text>
<text text-anchor="start" x="616" y="-67.8" font-family="Courier,monospace" font-size="9.00" fill="#000000"> </text>
<text text-anchor="start" x="622" y="-68.4" font-family="Courier,monospace" font-size="7.00" fill="#000000">library</text>
<text text-anchor="start" x="652" y="-67.8" font-family="Courier,monospace" font-size="9.00" fill="#000000"> </text>
</a>
</g>
</g>
<!-- tools/assertions/&#45;&gt;core/ -->
<g id="edge12" class="edge">
<title>tools/assertions/&#45;&gt;core/</title>
<g id="a_edge12"><a xlink:title="depends">
<path fill="none" stroke="#000000" d="M90.3705,-285.689C107.167,-259.031 139.544,-212.943 178,-185 223.202,-152.155 241.276,-154.354 295,-139 402.502,-108.275 533.442,-89.0347 597.652,-80.7415"/>
<polygon fill="#000000" stroke="#000000" points="598.262,-84.1923 607.74,-79.4581 597.378,-77.2482 598.262,-84.1923"/>
</a>
</g>
<text text-anchor="start" x="178" y="-187.8" font-family="Courier,monospace" font-size="9.00" fill="#000000">depends</text>
</g>
<!-- tools/dead_code_scanner/&#45;&gt;core/ -->
<g id="edge14" class="edge">
<title>tools/dead_code_scanner/&#45;&gt;core/</title>
<g id="a_edge14"><a xlink:title="depends">
<path fill="none" stroke="#000000" d="M223.279,-285.985C214.948,-260.058 205.435,-215.183 226,-185 268.318,-122.891 503.328,-90.6258 597.732,-80.0222"/>
<polygon fill="#000000" stroke="#000000" points="598.182,-83.4939 607.739,-78.9206 597.416,-76.536 598.182,-83.4939"/>
</a>
</g>
<text text-anchor="start" x="226" y="-187.8" font-family="Courier,monospace" font-size="9.00" fill="#000000">depends</text>
</g>
<!-- library/ -->
<g id="node14" class="node">
<title>library/</title>
<g id="a_node14"><a xlink:href="http://logtalk.org/library/directory_index.html#library/" xlink:title="http://logtalk.org/library/directory_index.html#library/">
<polygon fill="#ffffe0" stroke="#000000" stroke-dasharray="5,2" points="759.5,-94 688.5,-94 684.5,-90 684.5,-58 755.5,-58 759.5,-62 759.5,-94"/>
<polyline fill="none" stroke="#000000" stroke-dasharray="5,2" points="755.5,-90 684.5,-90 "/>
<polyline fill="none" stroke="#000000" stroke-dasharray="5,2" points="755.5,-90 755.5,-58 "/>
<polyline fill="none" stroke="#000000" stroke-dasharray="5,2" points="755.5,-90 759.5,-94 "/>
<text text-anchor="start" x="693" y="-78.8" font-family="Courier,monospace" font-size="9.00" fill="#000000"> </text>
<text text-anchor="start" x="699" y="-78.2" font-family="Courier,monospace" font-size="11.00" fill="#000000">library</text>
<text text-anchor="start" x="746" y="-78.8" font-family="Courier,monospace" font-size="9.00" fill="#000000"> </text>
<text text-anchor="start" x="693" y="-67.8" font-family="Courier,monospace" font-size="9.00" fill="#000000"> </text>
<text text-anchor="start" x="707.5" y="-68.4" font-family="Courier,monospace" font-size="7.00" fill="#000000">library</text>
<text text-anchor="start" x="746" y="-67.8" font-family="Courier,monospace" font-size="9.00" fill="#000000"> </text>
</a>
</g>
</g>
<!-- tools/dead_code_scanner/&#45;&gt;library/ -->
<g id="edge13" class="edge">
<title>tools/dead_code_scanner/&#45;&gt;library/</title>
<g id="a_edge13"><a xlink:title="depends">
<path fill="none" stroke="#000000" d="M287.657,-285.948C298.331,-282.4 309.453,-278.92 320,-276 486.423,-229.926 579.567,-318.755 700,-195 723.181,-171.18 726.113,-131.354 724.97,-104.402"/>
<polygon fill="#000000" stroke="#000000" points="728.441,-103.826 724.308,-94.0709 721.455,-104.274 728.441,-103.826"/>
</a>
</g>
<text text-anchor="start" x="707" y="-187.8" font-family="Courier,monospace" font-size="9.00" fill="#000000">depends</text>
</g>
<!-- tools/debugger/&#45;&gt;core/ -->
<g id="edge15" class="edge">
<title>tools/debugger/&#45;&gt;core/</title>
<g id="a_edge15"><a xlink:title="depends">
<path fill="none" stroke="#000000" d="M337.582,-285.979C298.333,-262.739 247.354,-223.13 273,-185 309.838,-130.231 511.507,-94.4829 597.801,-81.4853"/>
<polygon fill="#000000" stroke="#000000" points="598.355,-84.9415 607.734,-80.0132 597.329,-78.0171 598.355,-84.9415"/>
</a>
</g>
<text text-anchor="start" x="273" y="-187.8" font-family="Courier,monospace" font-size="9.00" fill="#000000">depends</text>
</g>
<!-- tools/diagrams/&#45;&gt;core/ -->
<g id="edge17" class="edge">
<title>tools/diagrams/&#45;&gt;core/</title>
<g id="a_edge17"><a xlink:title="depends">
<path fill="none" stroke="#000000" d="M454.186,-285.975C431.747,-273.675 403.247,-257.3 379,-241 348.996,-220.83 300.798,-215.632 320,-185 350.285,-136.688 519.936,-98.473 597.857,-83.2036"/>
<polygon fill="#000000" stroke="#000000" points="598.623,-86.6205 607.777,-81.2869 597.295,-79.7477 598.623,-86.6205"/>
</a>
</g>
<text text-anchor="start" x="320" y="-187.8" font-family="Courier,monospace" font-size="9.00" fill="#000000">depends</text>
</g>
<!-- tools/diagrams/&#45;&gt;library/ -->
<g id="edge16" class="edge">
<title>tools/diagrams/&#45;&gt;library/</title>
<g id="a_edge16"><a xlink:title="depends">
<path fill="none" stroke="#000000" d="M528.799,-285.981C536.296,-282.261 544.274,-278.709 552,-276 626.85,-249.754 659.19,-282.147 727,-241 752.503,-225.525 769.455,-214.328 764,-185 758.63,-156.126 745.894,-125.038 735.846,-103.481"/>
<polygon fill="#000000" stroke="#000000" points="738.923,-101.803 731.454,-94.2895 732.607,-104.821 738.923,-101.803"/>
</a>
</g>
<text text-anchor="start" x="765" y="-187.8" font-family="Courier,monospace" font-size="9.00" fill="#000000">depends</text>
</g>
<!-- tools/doclet/&#45;&gt;core/ -->
<g id="edge18" class="edge">
<title>tools/doclet/&#45;&gt;core/</title>
<g id="a_edge18"><a xlink:title="depends">
<path fill="none" stroke="#000000" d="M570.305,-285.949C563.734,-282.32 556.765,-278.809 550,-276 465.742,-241.014 327.377,-267.654 366,-185 379.491,-156.13 392.885,-154.002 421,-139 478.711,-108.206 553.343,-90.7418 598.067,-82.3449"/>
<polygon fill="#000000" stroke="#000000" points="598.74,-85.78 607.951,-80.5457 597.486,-78.8931 598.74,-85.78"/>
</a>
</g>
<text text-anchor="start" x="366" y="-187.8" font-family="Courier,monospace" font-size="9.00" fill="#000000">depends</text>
</g>
<!-- tools/doclet/&#45;&gt;library/ -->
<g id="edge19" class="edge">
<title>tools/doclet/&#45;&gt;library/</title>
<g id="a_edge19"><a xlink:title="depends">
<path fill="none" stroke="#000000" d="M635.348,-285.954C642.007,-282.281 649.097,-278.753 656,-276 738.238,-243.199 808.583,-278.508 838,-195 852.865,-152.802 807.159,-118.063 768.808,-97.2294"/>
<polygon fill="#000000" stroke="#000000" points="770.244,-94.0302 759.761,-92.4902 766.995,-100.231 770.244,-94.0302"/>
</a>
</g>
<text text-anchor="start" x="840" y="-187.8" font-family="Courier,monospace" font-size="9.00" fill="#000000">depends</text>
</g>
<!-- tools/help/&#45;&gt;core/ -->
<g id="edge21" class="edge">
<title>tools/help/&#45;&gt;core/</title>
<g id="a_edge21"><a xlink:title="depends">
<path fill="none" stroke="#000000" d="M673.181,-285.926C667.058,-282.211 660.48,-278.674 654,-276 559.993,-237.208 483.053,-287.134 440,-195 407.887,-126.277 531.74,-94.0384 597.897,-81.9654"/>
<polygon fill="#000000" stroke="#000000" points="598.741,-85.3711 607.987,-80.1985 597.533,-78.476 598.741,-85.3711"/>
</a>
</g>
<text text-anchor="start" x="440" y="-187.8" font-family="Courier,monospace" font-size="9.00" fill="#000000">depends</text>
</g>
<!-- tools/help/&#45;&gt;library/ -->
<g id="edge20" class="edge">
<title>tools/help/&#45;&gt;library/</title>
<g id="a_edge20"><a xlink:title="depends">
<path fill="none" stroke="#000000" d="M731.459,-285.895C737.423,-282.27 743.778,-278.775 750,-276 823.518,-243.21 885.254,-270.925 912,-195 935.139,-129.314 833.115,-97.316 769.587,-84.0026"/>
<polygon fill="#000000" stroke="#000000" points="770.24,-80.564 759.746,-82.024 768.86,-87.4266 770.24,-80.564"/>
</a>
</g>
<text text-anchor="start" x="914" y="-187.8" font-family="Courier,monospace" font-size="9.00" fill="#000000">depends</text>
</g>
<!-- tools/lgtdoc/&#45;&gt;core/ -->
<g id="edge22" class="edge">
<title>tools/lgtdoc/&#45;&gt;core/</title>
<g id="a_edge22"><a xlink:title="depends">
<path fill="none" stroke="#000000" d="M769.031,-285.871C762.281,-282.16 755.061,-278.639 748,-276 644.909,-237.474 560.591,-294.706 514,-195 492.437,-148.856 554.904,-111.152 598.533,-91.2745"/>
<polygon fill="#000000" stroke="#000000" points="600.055,-94.4286 607.792,-87.1907 597.23,-88.0239 600.055,-94.4286"/>
</a>
</g>
<text text-anchor="start" x="514" y="-187.8" font-family="Courier,monospace" font-size="9.00" fill="#000000">depends</text>
</g>
<!-- tools/lgtdoc/&#45;&gt;library/ -->
<g id="edge23" class="edge">
<title>tools/lgtdoc/&#45;&gt;library/</title>
<g id="a_edge23"><a xlink:title="depends">
<path fill="none" stroke="#000000" d="M837.007,-285.912C878.636,-261.258 943.111,-220.149 956,-195 958.027,-191.045 957.826,-189.052 956,-185 924.134,-114.267 828.369,-89.3533 769.692,-80.6355"/>
<polygon fill="#000000" stroke="#000000" points="769.93,-77.1353 759.545,-79.2339 768.972,-84.0694 769.93,-77.1353"/>
</a>
</g>
<text text-anchor="start" x="957" y="-187.8" font-family="Courier,monospace" font-size="9.00" fill="#000000">depends</text>
</g>
<!-- tools/lgtunit/&#45;&gt;core/ -->
<g id="edge24" class="edge">
<title>tools/lgtunit/&#45;&gt;core/</title>
<g id="a_edge24"><a xlink:title="depends">
<path fill="none" stroke="#000000" d="M874.475,-285.911C867.261,-282.151 859.535,-278.6 852,-276 735.983,-235.96 639.958,-306.191 588,-195 573.362,-163.675 594.328,-126.736 613.201,-102.418"/>
<polygon fill="#000000" stroke="#000000" points="616.146,-104.344 619.727,-94.3727 610.709,-99.9338 616.146,-104.344"/>
</a>
</g>
<text text-anchor="start" x="588" y="-187.8" font-family="Courier,monospace" font-size="9.00" fill="#000000">depends</text>
</g>
<!-- tools/lgtunit/&#45;&gt;library/ -->
<g id="edge25" class="edge">
<title>tools/lgtunit/&#45;&gt;library/</title>
<g id="a_edge25"><a xlink:title="depends">
<path fill="none" stroke="#000000" d="M942.022,-285.976C975.949,-262.734 1020.19,-223.123 999,-185 975.86,-143.368 842.431,-105.178 769.535,-87.0571"/>
<polygon fill="#000000" stroke="#000000" points="770.214,-83.6201 759.668,-84.6351 768.546,-90.4183 770.214,-83.6201"/>
</a>
</g>
<text text-anchor="start" x="1003" y="-187.8" font-family="Courier,monospace" font-size="9.00" fill="#000000">depends</text>
</g>
<!-- tools/ports/&#45;&gt;core/ -->
<g id="edge26" class="edge">
<title>tools/ports/&#45;&gt;core/</title>
<g id="a_edge26"><a xlink:title="depends">
<path fill="none" stroke="#000000" d="M981.258,-285.885C975.05,-282.261 968.446,-278.769 962,-276 835.104,-221.491 756.853,-295.383 662,-195 639.19,-170.86 634.974,-131.448 635.113,-104.651"/>
<polygon fill="#000000" stroke="#000000" points="638.619,-104.455 635.381,-94.3667 631.621,-104.272 638.619,-104.455"/>
</a>
</g>
<text text-anchor="start" x="662" y="-187.8" font-family="Courier,monospace" font-size="9.00" fill="#000000">depends</text>
</g>
<!-- tools/wrapper/&#45;&gt;core/ -->
<g id="edge27" class="edge">
<title>tools/wrapper/&#45;&gt;core/</title>
<g id="a_edge27"><a xlink:title="depends">
<path fill="none" stroke="#000000" d="M1204.13,-285.782C1170.87,-258.117 1107.6,-209.734 1045,-185 890.336,-123.89 820.126,-205.964 676,-123 667.362,-118.028 659.809,-110.37 653.71,-102.67"/>
<polygon fill="#000000" stroke="#000000" points="656.406,-100.428 647.678,-94.4219 650.756,-104.56 656.406,-100.428"/>
</a>
</g>
<text text-anchor="start" x="1067" y="-187.8" font-family="Courier,monospace" font-size="9.00" fill="#000000">depends</text>
</g>
<!-- tools/wrapper/&#45;&gt;library/ -->
<g id="edge28" class="edge">
<title>tools/wrapper/&#45;&gt;library/</title>
<g id="a_edge28"><a xlink:title="depends">
<path fill="none" stroke="#000000" d="M1228.71,-285.788C1228.71,-247.779 1222.29,-168.121 1171,-139 1103.15,-100.477 871.15,-83.8385 769.903,-78.2912"/>
<polygon fill="#000000" stroke="#000000" points="769.831,-74.7824 759.659,-77.7434 769.458,-81.7724 769.831,-74.7824"/>
</a>
</g>
<text text-anchor="start" x="1214" y="-187.8" font-family="Courier,monospace" font-size="9.00" fill="#000000">depends</text>
</g>
</g>
</svg>
