<?xml version="1.0" encoding="UTF-8" standalone="no"?>
<!DOCTYPE svg PUBLIC "-//W3C//DTD SVG 1.1//EN"
 "http://www.w3.org/Graphics/SVG/1.1/DTD/svg11.dtd">
<!-- Generated by graphviz version 2.39.20161028.1504 (20161028.1504)
 -->
<!-- Title: tools_doclet_object Pages: 1 -->
<svg width="1142pt" height="982pt"
 viewBox="72.00 72.00 1070.00 909.71" xmlns="http://www.w3.org/2000/svg" xmlns:xlink="http://www.w3.org/1999/xlink">
<g id="graph0" class="graph" transform="scale(1 1) rotate(0) translate(76 905.706)">
<title>tools_doclet_object</title>
<polygon fill="#ffffff" stroke="transparent" points="-4,4 -4,-833.706 994,-833.706 994,4 -4,4"/>
<text text-anchor="start" x="8" y="-7" font-family="Courier,monospace" font-size="10.00" fill="#8b8989">Generated on 2016/11/04, 00:44</text>
<g id="clust1" class="cluster">
<title>cluster_tools_doclet_object</title>
<g id="a_clust1"><a xlink:href="https://github.com/LogtalkDotOrg/logtalk3/tree/master/tools/doclet/tools_doclet.lgt" xlink:title="https://github.com/LogtalkDotOrg/logtalk3/tree/master/tools/doclet/tools_doclet.lgt">
<path fill="#fffafa" stroke="#8b8989" d="M20,-27C20,-27 970,-27 970,-27 976,-27 982,-33 982,-39 982,-39 982,-809.706 982,-809.706 982,-815.706 976,-821.706 970,-821.706 970,-821.706 20,-821.706 20,-821.706 14,-821.706 8,-815.706 8,-809.706 8,-809.706 8,-39 8,-39 8,-33 14,-27 20,-27"/>
<text text-anchor="middle" x="52.5" y="-809.706" font-family="Courier,monospace" font-size="10.00" fill="#8b8989">tools_doclet</text>
</a>
</g>
</g>
<g id="clust2" class="cluster">
<title>cluster_other</title>
<g id="a_clust2"><a xlink:title="(external predicates)">
<path fill="#ffffff" stroke="#8b8989" d="M30,-37C30,-37 960,-37 960,-37 966,-37 972,-43 972,-49 972,-49 972,-106.426 972,-106.426 972,-112.426 966,-118.426 960,-118.426 960,-118.426 30,-118.426 30,-118.426 24,-118.426 18,-112.426 18,-106.426 18,-106.426 18,-49 18,-49 18,-43 24,-37 30,-37"/>
<text text-anchor="middle" x="89.5" y="-106.426" font-family="Courier,monospace" font-size="10.00" fill="#8b8989">(external predicates)</text>
</a>
</g>
</g>
<!-- doc_goal/1 -->
<g id="node1" class="node">
<title>doc_goal/1</title>
<ellipse fill="#f5f5dc" stroke="#000000" cx="386" cy="-771.492" rx="67.3507" ry="21.4286"/>
<text text-anchor="start" x="347" y="-774.292" font-family="Courier,monospace" font-size="9.00" fill="#000000"> </text>
<text text-anchor="start" x="353" y="-773.692" font-family="Courier,monospace" font-size="11.00" fill="#000000">doc_goal/1</text>
<text text-anchor="start" x="420" y="-774.292" font-family="Courier,monospace" font-size="9.00" fill="#000000"> </text>
<text text-anchor="start" x="347" y="-763.292" font-family="Courier,monospace" font-size="9.00" fill="#000000"> </text>
<text text-anchor="start" x="375.5" y="-763.892" font-family="Courier,monospace" font-size="7.00" fill="#000000">local</text>
<text text-anchor="start" x="420" y="-763.292" font-family="Courier,monospace" font-size="9.00" fill="#000000"> </text>
</g>
<!-- common_options/1 -->
<g id="node3" class="node">
<title>common_options/1</title>
<ellipse fill="#f5f5dc" stroke="#000000" cx="228" cy="-537.066" rx="94.5053" ry="21.4286"/>
<text text-anchor="start" x="169" y="-539.866" font-family="Courier,monospace" font-size="9.00" fill="#000000"> </text>
<text text-anchor="start" x="175" y="-539.266" font-family="Courier,monospace" font-size="11.00" fill="#000000">common_options/1</text>
<text text-anchor="start" x="281" y="-539.866" font-family="Courier,monospace" font-size="9.00" fill="#000000"> </text>
<text text-anchor="start" x="169" y="-528.866" font-family="Courier,monospace" font-size="9.00" fill="#000000"> </text>
<text text-anchor="start" x="217" y="-529.466" font-family="Courier,monospace" font-size="7.00" fill="#000000">local</text>
<text text-anchor="start" x="281" y="-528.866" font-family="Courier,monospace" font-size="9.00" fill="#000000"> </text>
</g>
<!-- doc_goal/1&#45;&gt;common_options/1 -->
<g id="edge1" class="edge">
<title>doc_goal/1&#45;&gt;common_options/1</title>
<g id="a_edge1"><a xlink:title="calls">
<path fill="none" stroke="#000000" d="M371.979,-750.689C344.174,-709.434 281.913,-617.057 249.123,-568.407"/>
<polygon fill="#000000" stroke="#000000" points="248.924,-568.111 242.254,-565.371 242.217,-558.16 248.924,-568.111"/>
</a>
</g>
<text text-anchor="start" x="310" y="-652.079" font-family="Courier,monospace" font-size="9.00" fill="#000000">calls</text>
</g>
<!-- tool/1 -->
<g id="node4" class="node">
<title>tool/1</title>
<ellipse fill="#f5f5dc" stroke="#000000" cx="359" cy="-302.64" rx="48.1667" ry="21.4286"/>
<text text-anchor="start" x="333" y="-305.44" font-family="Courier,monospace" font-size="9.00" fill="#000000"> </text>
<text text-anchor="start" x="339" y="-304.84" font-family="Courier,monospace" font-size="11.00" fill="#000000">tool/1</text>
<text text-anchor="start" x="379" y="-305.44" font-family="Courier,monospace" font-size="9.00" fill="#000000"> </text>
<text text-anchor="start" x="333" y="-294.44" font-family="Courier,monospace" font-size="9.00" fill="#000000"> </text>
<text text-anchor="start" x="348" y="-295.04" font-family="Courier,monospace" font-size="7.00" fill="#000000">local</text>
<text text-anchor="start" x="379" y="-294.44" font-family="Courier,monospace" font-size="9.00" fill="#000000"> </text>
</g>
<!-- doc_goal/1&#45;&gt;tool/1 -->
<g id="edge2" class="edge">
<title>doc_goal/1&#45;&gt;tool/1</title>
<g id="a_edge2"><a xlink:title="calls">
<path fill="none" stroke="#000000" d="M378.045,-750.228C370.081,-726.999 359,-688.526 359,-654.279 359,-654.279 359,-654.279 359,-419.853 359,-391.694 359,-359.73 359,-336.302"/>
<polygon fill="#000000" stroke="#000000" points="359,-336.243 355,-330.243 359,-324.243 359,-336.243"/>
</a>
</g>
<text text-anchor="start" x="359" y="-534.866" font-family="Courier,monospace" font-size="9.00" fill="#000000">calls</text>
</g>
<!-- tool_entity/2 -->
<g id="node5" class="node">
<title>tool_entity/2</title>
<ellipse fill="#f5f5dc" stroke="#000000" cx="486" cy="-537.066" rx="80.7205" ry="21.4286"/>
<text text-anchor="start" x="437" y="-539.866" font-family="Courier,monospace" font-size="9.00" fill="#000000"> </text>
<text text-anchor="start" x="443" y="-539.266" font-family="Courier,monospace" font-size="11.00" fill="#000000">tool_entity/2</text>
<text text-anchor="start" x="529" y="-539.866" font-family="Courier,monospace" font-size="9.00" fill="#000000"> </text>
<text text-anchor="start" x="437" y="-528.866" font-family="Courier,monospace" font-size="9.00" fill="#000000"> </text>
<text text-anchor="start" x="475" y="-529.466" font-family="Courier,monospace" font-size="7.00" fill="#000000">local</text>
<text text-anchor="start" x="529" y="-528.866" font-family="Courier,monospace" font-size="9.00" fill="#000000"> </text>
</g>
<!-- doc_goal/1&#45;&gt;tool_entity/2 -->
<g id="edge3" class="edge">
<title>doc_goal/1&#45;&gt;tool_entity/2</title>
<g id="a_edge3"><a xlink:title="calls">
<path fill="none" stroke="#000000" d="M395.051,-750.275C412.595,-709.147 451.33,-618.341 472.138,-569.562"/>
<polygon fill="#000000" stroke="#000000" points="472.189,-569.442 470.864,-562.354 476.898,-558.404 472.189,-569.442"/>
</a>
</g>
<text text-anchor="start" x="438" y="-652.079" font-family="Courier,monospace" font-size="9.00" fill="#000000">calls</text>
</g>
<!-- shell_command/1 -->
<g id="node2" class="node">
<title>shell_command/1</title>
<ellipse fill="#f5f5dc" stroke="#000000" cx="210" cy="-771.492" rx="90.5193" ry="21.4286"/>
<text text-anchor="start" x="154" y="-774.292" font-family="Courier,monospace" font-size="9.00" fill="#000000"> </text>
<text text-anchor="start" x="160" y="-773.692" font-family="Courier,monospace" font-size="11.00" fill="#000000">shell_command/1</text>
<text text-anchor="start" x="260" y="-774.292" font-family="Courier,monospace" font-size="9.00" fill="#000000"> </text>
<text text-anchor="start" x="154" y="-763.292" font-family="Courier,monospace" font-size="9.00" fill="#000000"> </text>
<text text-anchor="start" x="199" y="-763.892" font-family="Courier,monospace" font-size="7.00" fill="#000000">local</text>
<text text-anchor="start" x="260" y="-763.292" font-family="Courier,monospace" font-size="9.00" fill="#000000"> </text>
</g>
<!-- logtalk::expand_library_path/2 -->
<g id="node8" class="node">
<title>logtalk::expand_library_path/2</title>
<g id="a_node8"><a xlink:href="http://logtalk.org/library/logtalk_0.html#expand_library_path/2" xlink:title="http://logtalk.org/library/logtalk_0.html#expand_library_path/2">
<ellipse fill="#d3d3d3" stroke="#000000" stroke-dasharray="5,2" cx="189" cy="-68.2132" rx="160.526" ry="21.4286"/>
<text text-anchor="start" x="84" y="-71.0132" font-family="Courier,monospace" font-size="9.00" fill="#000000"> </text>
<text text-anchor="start" x="90" y="-70.4132" font-family="Courier,monospace" font-size="11.00" fill="#000000">logtalk::expand_library_path/2</text>
<text text-anchor="start" x="289" y="-71.0132" font-family="Courier,monospace" font-size="9.00" fill="#000000"> </text>
<text text-anchor="start" x="84" y="-60.0132" font-family="Courier,monospace" font-size="9.00" fill="#000000"> </text>
<text text-anchor="start" x="172.5" y="-60.6132" font-family="Courier,monospace" font-size="7.00" fill="#000000">external</text>
<text text-anchor="start" x="289" y="-60.0132" font-family="Courier,monospace" font-size="9.00" fill="#000000"> </text>
</a>
</g>
</g>
<!-- tool/1&#45;&gt;logtalk::expand_library_path/2 -->
<g id="edge6" class="edge">
<title>tool/1&#45;&gt;logtalk::expand_library_path/2</title>
<g id="a_edge6"><a xlink:title="calls">
<path fill="none" stroke="#000000" d="M344.211,-282.246C314.408,-241.149 246.967,-148.149 211.604,-99.3834"/>
<polygon fill="#000000" stroke="#000000" points="211.41,-99.1158 204.649,-96.6068 204.365,-89.4013 211.41,-99.1158"/>
</a>
</g>
<text text-anchor="start" x="277" y="-183.226" font-family="Courier,monospace" font-size="9.00" fill="#000000">calls</text>
</g>
<!-- tool_entity/2&#45;&gt;tool/1 -->
<g id="edge4" class="edge">
<title>tool_entity/2&#45;&gt;tool/1</title>
<g id="a_edge4"><a xlink:title="calls">
<path fill="none" stroke="#000000" d="M470.212,-516.199C460.63,-503.314 448.302,-486.339 438,-470.853 424.743,-450.926 420.862,-446.18 410,-424.853 394.936,-395.275 380.642,-360.188 371.041,-335.213"/>
<polygon fill="#000000" stroke="#000000" points="370.98,-335.053 365.111,-330.863 366.722,-323.834 370.98,-335.053"/>
</a>
</g>
<text text-anchor="start" x="410" y="-417.653" font-family="Courier,monospace" font-size="9.00" fill="#000000">calls</text>
</g>
<!-- tool_entity/2&#45;&gt;logtalk::expand_library_path/2 -->
<g id="edge7" class="edge">
<title>tool_entity/2&#45;&gt;logtalk::expand_library_path/2</title>
<g id="a_edge7"><a xlink:title="calls">
<path fill="none" stroke="#000000" d="M473.099,-515.887C460.433,-493.043 443,-455.184 443,-419.853 443,-419.853 443,-419.853 443,-185.426 443,-147.509 348.503,-112.24 274.785,-90.4942"/>
<polygon fill="#000000" stroke="#000000" points="274.676,-90.4625 267.799,-92.6342 263.15,-87.122 274.676,-90.4625"/>
</a>
</g>
<text text-anchor="start" x="443" y="-300.44" font-family="Courier,monospace" font-size="9.00" fill="#000000">calls</text>
</g>
<!-- logtalk::loaded_file/1 -->
<g id="node9" class="node">
<title>logtalk::loaded_file/1</title>
<g id="a_node9"><a xlink:href="http://logtalk.org/library/logtalk_0.html#loaded_file/1" xlink:title="http://logtalk.org/library/logtalk_0.html#loaded_file/1">
<ellipse fill="#d3d3d3" stroke="#000000" stroke-dasharray="5,2" cx="491" cy="-68.2132" rx="123.073" ry="21.4286"/>
<text text-anchor="start" x="412" y="-71.0132" font-family="Courier,monospace" font-size="9.00" fill="#000000"> </text>
<text text-anchor="start" x="418" y="-70.4132" font-family="Courier,monospace" font-size="11.00" fill="#000000">logtalk::loaded_file/1</text>
<text text-anchor="start" x="564" y="-71.0132" font-family="Courier,monospace" font-size="9.00" fill="#000000"> </text>
<text text-anchor="start" x="412" y="-60.0132" font-family="Courier,monospace" font-size="9.00" fill="#000000"> </text>
<text text-anchor="start" x="474" y="-60.6132" font-family="Courier,monospace" font-size="7.00" fill="#000000">external</text>
<text text-anchor="start" x="564" y="-60.0132" font-family="Courier,monospace" font-size="9.00" fill="#000000"> </text>
</a>
</g>
</g>
<!-- tool_entity/2&#45;&gt;logtalk::loaded_file/1 -->
<g id="edge8" class="edge">
<title>tool_entity/2&#45;&gt;logtalk::loaded_file/1</title>
<g id="a_edge8"><a xlink:title="calls">
<path fill="none" stroke="#000000" d="M492.187,-515.669C498.382,-492.326 507,-453.757 507,-419.853 507,-419.853 507,-419.853 507,-185.426 507,-157.007 502.325,-125.064 498.029,-101.71"/>
<polygon fill="#000000" stroke="#000000" points="497.985,-101.48 492.922,-96.3453 495.714,-89.6967 497.985,-101.48"/>
</a>
</g>
<text text-anchor="start" x="507" y="-300.44" font-family="Courier,monospace" font-size="9.00" fill="#000000">calls</text>
</g>
<!-- logtalk::loaded_file_property/2 -->
<g id="node10" class="node">
<title>logtalk::loaded_file_property/2</title>
<g id="a_node10"><a xlink:href="http://logtalk.org/library/logtalk_0.html#loaded_file_property/2" xlink:title="http://logtalk.org/library/logtalk_0.html#loaded_file_property/2">
<ellipse fill="#d3d3d3" stroke="#000000" stroke-dasharray="5,2" cx="797" cy="-68.2132" rx="164.512" ry="21.4286"/>
<text text-anchor="start" x="689" y="-71.0132" font-family="Courier,monospace" font-size="9.00" fill="#000000"> </text>
<text text-anchor="start" x="695" y="-70.4132" font-family="Courier,monospace" font-size="11.00" fill="#000000">logtalk::loaded_file_property/2</text>
<text text-anchor="start" x="900" y="-71.0132" font-family="Courier,monospace" font-size="9.00" fill="#000000"> </text>
<text text-anchor="start" x="689" y="-60.0132" font-family="Courier,monospace" font-size="9.00" fill="#000000"> </text>
<text text-anchor="start" x="780.5" y="-60.6132" font-family="Courier,monospace" font-size="7.00" fill="#000000">external</text>
<text text-anchor="start" x="900" y="-60.0132" font-family="Courier,monospace" font-size="9.00" fill="#000000"> </text>
</a>
</g>
</g>
<!-- tool_entity/2&#45;&gt;logtalk::loaded_file_property/2 -->
<g id="edge9" class="edge">
<title>tool_entity/2&#45;&gt;logtalk::loaded_file_property/2</title>
<g id="a_edge9"><a xlink:title="calls">
<path fill="none" stroke="#000000" d="M554.14,-525.641C611.415,-511.679 684,-481.77 684,-419.853 684,-419.853 684,-419.853 684,-185.426 684,-146.741 716.298,-115.917 746.359,-95.6069"/>
<polygon fill="#000000" stroke="#000000" points="746.749,-95.3562 749.632,-88.7465 756.842,-88.8656 746.749,-95.3562"/>
</a>
</g>
<text text-anchor="start" x="684" y="-300.44" font-family="Courier,monospace" font-size="9.00" fill="#000000">calls</text>
</g>
<!-- (:&#45;)/1 -->
<g id="node6" class="node">
<title>(:&#45;)/1</title>
<ellipse fill="#f5f5dc" stroke="#000000" cx="61" cy="-771.492" rx="40.7822" ry="18"/>
<text text-anchor="start" x="35" y="-769.292" font-family="Courier,monospace" font-size="9.00" fill="#000000"> </text>
<text text-anchor="start" x="41" y="-768.692" font-family="Courier,monospace" font-size="11.00" fill="#000000">(:&#45;)/1</text>
<text text-anchor="start" x="81" y="-769.292" font-family="Courier,monospace" font-size="9.00" fill="#000000"> </text>
</g>
<!-- update/0 -->
<g id="node7" class="node">
<title>update/0</title>
<ellipse fill="#f5f5dc" stroke="#000000" cx="67" cy="-537.066" rx="48.9176" ry="18"/>
<text text-anchor="start" x="35" y="-534.866" font-family="Courier,monospace" font-size="9.00" fill="#000000"> </text>
<text text-anchor="start" x="41" y="-534.266" font-family="Courier,monospace" font-size="11.00" fill="#000000">update/0</text>
<text text-anchor="start" x="94" y="-534.866" font-family="Courier,monospace" font-size="9.00" fill="#000000"> </text>
</g>
<!-- (:&#45;)/1&#45;&gt;update/0 -->
<g id="edge5" class="edge">
<title>(:&#45;)/1&#45;&gt;update/0</title>
<g id="a_edge5"><a xlink:title="calls in self">
<path fill="none" stroke="#000000" d="M61.4608,-753.487C62.4861,-713.43 64.9646,-616.593 66.2295,-567.172"/>
<polygon fill="none" stroke="#000000" points="66.2305,-567.129 62.3853,-561.029 66.5376,-555.133 66.2305,-567.129"/>
</a>
</g>
<text text-anchor="start" x="64" y="-652.079" font-family="Courier,monospace" font-size="9.00" fill="#000000">calls in self</text>
</g>
</g>
</svg>
