<?xml version="1.0" encoding="UTF-8" standalone="no"?>
<!DOCTYPE svg PUBLIC "-//W3C//DTD SVG 1.1//EN"
 "http://www.w3.org/Graphics/SVG/1.1/DTD/svg11.dtd">
<!-- Generated by graphviz version 2.39.20161028.1504 (20161028.1504)
 -->
<!-- Title: wrapper Pages: 1 -->
<svg width="514pt" height="725pt"
 viewBox="72.00 72.00 442.00 653.00" xmlns="http://www.w3.org/2000/svg" xmlns:xlink="http://www.w3.org/1999/xlink">
<g id="graph0" class="graph" transform="scale(1 1) rotate(0) translate(76 649)">
<title>wrapper</title>
<polygon fill="#ffffff" stroke="transparent" points="-4,4 -4,-577 366,-577 366,4 -4,4"/>
<text text-anchor="start" x="8" y="-18" font-family="Courier,monospace" font-size="10.00" fill="#8b8989">wrapper tool</text>
<text text-anchor="start" x="8" y="-7" font-family="Courier,monospace" font-size="10.00" fill="#8b8989">Generated on 2016/11/04, 00:44</text>
<g id="clust1" class="cluster">
<title>cluster_library_wrapper</title>
<g id="a_clust1"><a xlink:href="https://github.com/LogtalkDotOrg/logtalk3/tree/master/tools/wrapper/" xlink:title="https://github.com/LogtalkDotOrg/logtalk3/tree/master/tools/wrapper/">
<path fill="#eee9e9" stroke="#8b8989" d="M20,-38C20,-38 342,-38 342,-38 348,-38 354,-44 354,-50 354,-50 354,-553 354,-553 354,-559 348,-565 342,-565 342,-565 20,-565 20,-565 14,-565 8,-559 8,-553 8,-553 8,-50 8,-50 8,-44 14,-38 20,-38"/>
<text text-anchor="middle" x="37.5" y="-45" font-family="Courier,monospace" font-size="10.00" fill="#8b8989">wrapper</text>
</a>
</g>
</g>
<g id="clust3" class="cluster">
<title>cluster_file_/Users/pmoura/logtalk/tools/wrapper/wrapper.lgt</title>
<g id="a_clust3"><a xlink:href="https://github.com/LogtalkDotOrg/logtalk3/tree/master/tools/wrapper/wrapper.lgt" xlink:title="https://github.com/LogtalkDotOrg/logtalk3/tree/master/tools/wrapper/wrapper.lgt">
<path fill="#fffafa" stroke="#8b8989" d="M99,-67C99,-67 301,-67 301,-67 307,-67 313,-73 313,-79 313,-79 313,-315 313,-315 313,-321 307,-327 301,-327 301,-327 99,-327 99,-327 93,-327 87,-321 87,-315 87,-315 87,-79 87,-79 87,-73 93,-67 99,-67"/>
<text text-anchor="middle" x="128.5" y="-74" font-family="Courier,monospace" font-size="10.00" fill="#8b8989">wrapper.lgt</text>
</a>
</g>
</g>
<g id="clust4" class="cluster">
<title>cluster_other</title>
<g id="a_clust4"><a xlink:title="(external entities)">
<path fill="#ffffff" stroke="#8b8989" d="M30,-480C30,-480 332,-480 332,-480 338,-480 344,-486 344,-492 344,-492 344,-543 344,-543 344,-549 338,-555 332,-555 332,-555 30,-555 30,-555 24,-555 18,-549 18,-543 18,-543 18,-492 18,-492 18,-486 24,-480 30,-480"/>
<text text-anchor="middle" x="83.5" y="-487" font-family="Courier,monospace" font-size="10.00" fill="#8b8989">(external entities)</text>
</a>
</g>
</g>
<!-- wrapper -->
<g id="node1" class="node">
<title>wrapper</title>
<g id="a_node1"><a xlink:href="http://logtalk.org/library/wrapper_0.html" xlink:title="http://logtalk.org/library/wrapper_0.html">
<polygon fill="#f5f5dc" stroke="#000000" points="303,-317 97,-317 97,-96 303,-96 303,-317"/>
</a>
</g>
<g id="a_node1_0"><a xlink:href="wrapper_object_xref_diagram.svg" xlink:title="Zoom">
<image xlink:href="zoom.png" width="11px" height="11px" preserveAspectRatio="xMinYMin meet" x="105" y="-312.5"/>
</a>
</g>
<g><a xlink:href="http://logtalk.org/library/wrapper_0.html" xlink:title="http://logtalk.org/library/wrapper_0.html">
<text text-anchor="start" x="107.5" y="-293.3" font-family="Courier,monospace" font-size="9.00" fill="#000000"> </text>
<text text-anchor="start" x="179" y="-292.7" font-family="Courier,monospace" font-size="11.00" fill="#000000">wrapper</text>
<text text-anchor="start" x="289" y="-293.3" font-family="Courier,monospace" font-size="9.00" fill="#000000"> </text>
<text text-anchor="start" x="107.5" y="-282.3" font-family="Courier,monospace" font-size="9.00" fill="#000000"> </text>
<text text-anchor="start" x="183.5" y="-282.9" font-family="Courier,monospace" font-size="7.00" fill="#000000">prototype</text>
<text text-anchor="start" x="289" y="-282.3" font-family="Courier,monospace" font-size="9.00" fill="#000000"> </text>
<text text-anchor="start" x="107.5" y="-272.3" font-family="Courier,monospace" font-size="9.00" fill="#000000"> </text>
<text text-anchor="start" x="107.5" y="-262.3" font-family="Courier,monospace" font-size="9.00" fill="#000000"> </text>
<text text-anchor="start" x="170" y="-262.3" font-family="Courier,monospace" font-size="9.00" fill="#000000">rdirectory/2</text>
<text text-anchor="start" x="289" y="-262.3" font-family="Courier,monospace" font-size="9.00" fill="#000000"> </text>
<text text-anchor="start" x="107.5" y="-252.3" font-family="Courier,monospace" font-size="9.00" fill="#000000"> </text>
<text text-anchor="start" x="170" y="-252.3" font-family="Courier,monospace" font-size="9.00" fill="#000000">rdirectory/1</text>
<text text-anchor="start" x="289" y="-252.3" font-family="Courier,monospace" font-size="9.00" fill="#000000"> </text>
<text text-anchor="start" x="107.5" y="-242.3" font-family="Courier,monospace" font-size="9.00" fill="#000000"> </text>
<text text-anchor="start" x="172.5" y="-242.3" font-family="Courier,monospace" font-size="9.00" fill="#000000">directory/2</text>
<text text-anchor="start" x="289" y="-242.3" font-family="Courier,monospace" font-size="9.00" fill="#000000"> </text>
<text text-anchor="start" x="107.5" y="-232.3" font-family="Courier,monospace" font-size="9.00" fill="#000000"> </text>
<text text-anchor="start" x="172.5" y="-232.3" font-family="Courier,monospace" font-size="9.00" fill="#000000">directory/1</text>
<text text-anchor="start" x="289" y="-232.3" font-family="Courier,monospace" font-size="9.00" fill="#000000"> </text>
<text text-anchor="start" x="107.5" y="-222.3" font-family="Courier,monospace" font-size="9.00" fill="#000000"> </text>
<text text-anchor="start" x="167" y="-222.3" font-family="Courier,monospace" font-size="9.00" fill="#000000">directories/2</text>
<text text-anchor="start" x="289" y="-222.3" font-family="Courier,monospace" font-size="9.00" fill="#000000"> </text>
<text text-anchor="start" x="107.5" y="-212.3" font-family="Courier,monospace" font-size="9.00" fill="#000000"> </text>
<text text-anchor="start" x="167" y="-212.3" font-family="Courier,monospace" font-size="9.00" fill="#000000">directories/1</text>
<text text-anchor="start" x="289" y="-212.3" font-family="Courier,monospace" font-size="9.00" fill="#000000"> </text>
<text text-anchor="start" x="107.5" y="-202.3" font-family="Courier,monospace" font-size="9.00" fill="#000000"> </text>
<text text-anchor="start" x="183.5" y="-202.3" font-family="Courier,monospace" font-size="9.00" fill="#000000">files/2</text>
<text text-anchor="start" x="289" y="-202.3" font-family="Courier,monospace" font-size="9.00" fill="#000000"> </text>
<text text-anchor="start" x="107.5" y="-192.3" font-family="Courier,monospace" font-size="9.00" fill="#000000"> </text>
<text text-anchor="start" x="183.5" y="-192.3" font-family="Courier,monospace" font-size="9.00" fill="#000000">files/1</text>
<text text-anchor="start" x="289" y="-192.3" font-family="Courier,monospace" font-size="9.00" fill="#000000"> </text>
<text text-anchor="start" x="107.5" y="-182.3" font-family="Courier,monospace" font-size="9.00" fill="#000000"> </text>
<text text-anchor="start" x="186" y="-182.3" font-family="Courier,monospace" font-size="9.00" fill="#000000">file/2</text>
<text text-anchor="start" x="289" y="-182.3" font-family="Courier,monospace" font-size="9.00" fill="#000000"> </text>
<text text-anchor="start" x="107.5" y="-172.3" font-family="Courier,monospace" font-size="9.00" fill="#000000"> </text>
<text text-anchor="start" x="186" y="-172.3" font-family="Courier,monospace" font-size="9.00" fill="#000000">file/1</text>
<text text-anchor="start" x="289" y="-172.3" font-family="Courier,monospace" font-size="9.00" fill="#000000"> </text>
<text text-anchor="start" x="107.5" y="-162.3" font-family="Courier,monospace" font-size="9.00" fill="#000000"> </text>
<text text-anchor="start" x="186" y="-162.3" font-family="Courier,monospace" font-size="9.00" fill="#000000">save/1</text>
<text text-anchor="start" x="289" y="-162.3" font-family="Courier,monospace" font-size="9.00" fill="#000000"> </text>
<text text-anchor="start" x="107.5" y="-152.3" font-family="Courier,monospace" font-size="9.00" fill="#000000"> </text>
<text text-anchor="start" x="186" y="-152.3" font-family="Courier,monospace" font-size="9.00" fill="#000000">save/0</text>
<text text-anchor="start" x="289" y="-152.3" font-family="Courier,monospace" font-size="9.00" fill="#000000"> </text>
<text text-anchor="start" x="107.5" y="-142.3" font-family="Courier,monospace" font-size="9.00" fill="#000000"> </text>
<text text-anchor="start" x="159" y="-142.3" font-family="Courier,monospace" font-size="9.00" fill="#000000">default_option/1</text>
<text text-anchor="start" x="289" y="-142.3" font-family="Courier,monospace" font-size="9.00" fill="#000000"> </text>
<text text-anchor="start" x="107.5" y="-132.3" font-family="Courier,monospace" font-size="9.00" fill="#000000"> </text>
<text text-anchor="start" x="156.5" y="-132.3" font-family="Courier,monospace" font-size="9.00" fill="#000000">default_options/1</text>
<text text-anchor="start" x="289" y="-132.3" font-family="Courier,monospace" font-size="9.00" fill="#000000"> </text>
<text text-anchor="start" x="107.5" y="-122.3" font-family="Courier,monospace" font-size="9.00" fill="#000000"> </text>
<text text-anchor="start" x="140" y="-122.3" font-family="Courier,monospace" font-size="9.00" fill="#000000">logtalk::message_hook/4</text>
<text text-anchor="start" x="289" y="-122.3" font-family="Courier,monospace" font-size="9.00" fill="#000000"> </text>
<text text-anchor="start" x="107.5" y="-112.3" font-family="Courier,monospace" font-size="9.00" fill="#000000"> </text>
<text text-anchor="start" x="116" y="-112.3" font-family="Courier,monospace" font-size="9.00" fill="#000000">logtalk::message_prefix_stream/4</text>
<text text-anchor="start" x="289" y="-112.3" font-family="Courier,monospace" font-size="9.00" fill="#000000"> </text>
<text text-anchor="start" x="107.5" y="-102.3" font-family="Courier,monospace" font-size="9.00" fill="#000000"> </text>
<text text-anchor="start" x="132" y="-102.3" font-family="Courier,monospace" font-size="9.00" fill="#000000">logtalk::message_tokens//2</text>
<text text-anchor="start" x="289" y="-102.3" font-family="Courier,monospace" font-size="9.00" fill="#000000"> </text>
</a>
</g>
</g>
<!-- expanding -->
<g id="node2" class="node">
<title>expanding</title>
<g id="a_node2"><a xlink:title="built&#45;in protocol">
<polygon fill="#7fffd4" stroke="#000000" stroke-dasharray="5,2" points="122,-545 28,-545 28,-509 128,-509 128,-539 122,-545"/>
<polyline fill="none" stroke="#000000" stroke-dasharray="5,2" points="122,-545 122,-539 "/>
<polyline fill="none" stroke="#000000" stroke-dasharray="5,2" points="128,-539 122,-539 "/>
<text text-anchor="start" x="36" y="-529.8" font-family="Courier,monospace" font-size="9.00" fill="#000000"> </text>
<text text-anchor="start" x="48" y="-529.2" font-family="Courier,monospace" font-size="11.00" fill="#000000">expanding</text>
<text text-anchor="start" x="114" y="-529.8" font-family="Courier,monospace" font-size="9.00" fill="#000000"> </text>
<text text-anchor="start" x="36" y="-518.8" font-family="Courier,monospace" font-size="9.00" fill="#000000"> </text>
<text text-anchor="start" x="42" y="-519.4" font-family="Courier,monospace" font-size="7.00" fill="#000000">built&#45;in protocol</text>
<text text-anchor="start" x="114" y="-518.8" font-family="Courier,monospace" font-size="9.00" fill="#000000"> </text>
</a>
</g>
</g>
<!-- wrapper&#45;&gt;expanding -->
<g id="edge1" class="edge">
<title>wrapper&#45;&gt;expanding</title>
<g id="a_edge1"><a xlink:title="implements">
<path fill="none" stroke="#000000" d="M155.215,-317.06C143.525,-346.523 131.097,-378.395 120,-408 108.048,-439.886 95.1271,-476.92 86.8194,-501.096"/>
<ellipse fill="#000000" stroke="#000000" cx="85.484" cy="-504.993" rx="4.00001" ry="4.00001"/>
</a>
</g>
<text text-anchor="start" x="120" y="-410.8" font-family="Courier,monospace" font-size="9.00" fill="#000000">implements</text>
</g>
<!-- logtalk -->
<g id="node3" class="node">
<title>logtalk</title>
<g id="a_node3"><a xlink:title="built&#45;in prototype">
<polygon fill="#f5f5dc" stroke="#000000" stroke-dasharray="5,2" points="250,-545 146,-545 146,-509 250,-509 250,-545"/>
<text text-anchor="start" x="154" y="-529.8" font-family="Courier,monospace" font-size="9.00" fill="#000000"> </text>
<text text-anchor="start" x="174.5" y="-529.2" font-family="Courier,monospace" font-size="11.00" fill="#000000">logtalk</text>
<text text-anchor="start" x="236" y="-529.8" font-family="Courier,monospace" font-size="9.00" fill="#000000"> </text>
<text text-anchor="start" x="154" y="-518.8" font-family="Courier,monospace" font-size="9.00" fill="#000000"> </text>
<text text-anchor="start" x="160" y="-519.4" font-family="Courier,monospace" font-size="7.00" fill="#000000">built&#45;in prototype</text>
<text text-anchor="start" x="236" y="-518.8" font-family="Courier,monospace" font-size="9.00" fill="#000000"> </text>
</a>
</g>
</g>
<!-- wrapper&#45;&gt;logtalk -->
<g id="edge2" class="edge">
<title>wrapper&#45;&gt;logtalk</title>
<g id="a_edge2"><a xlink:title="provides">
<path fill="none" stroke="#000000" d="M182.173,-317.046C178.926,-349.554 177.309,-385.192 180,-418 182.277,-445.763 187.764,-477.107 192.085,-499.033"/>
<polygon fill="#000000" stroke="#000000" points="190.664,-509.676 192.115,-499.181 197.525,-508.291 190.664,-509.676"/>
</a>
</g>
<text text-anchor="start" x="180" y="-410.8" font-family="Courier,monospace" font-size="9.00" fill="#000000">provides</text>
</g>
<!-- wrapper&#45;&gt;logtalk -->
<g id="edge3" class="edge">
<title>wrapper&#45;&gt;logtalk</title>
<g id="a_edge3"><a xlink:title="uses">
<path fill="none" stroke="#000000" d="M222.187,-317.111C226.102,-349.621 227.853,-385.244 224,-418 220.809,-445.134 213.294,-475.301 207.16,-497.007"/>
<polygon fill="#000000" stroke="#000000" points="207.104,-497.2 209.268,-504.079 203.751,-508.722 207.104,-497.2"/>
</a>
</g>
<text text-anchor="start" x="224" y="-410.8" font-family="Courier,monospace" font-size="9.00" fill="#000000">uses</text>
</g>
<!-- os -->
<g id="node4" class="node">
<title>os</title>
<g id="a_node4"><a xlink:title="prototype">
<polygon fill="#f5f5dc" stroke="#000000" stroke-dasharray="5,2" points="334,-545 268,-545 268,-509 334,-509 334,-545"/>
<text text-anchor="start" x="276" y="-529.8" font-family="Courier,monospace" font-size="9.00" fill="#000000"> </text>
<text text-anchor="start" x="294" y="-529.2" font-family="Courier,monospace" font-size="11.00" fill="#000000">os</text>
<text text-anchor="start" x="320" y="-529.8" font-family="Courier,monospace" font-size="9.00" fill="#000000"> </text>
<text text-anchor="start" x="276" y="-518.8" font-family="Courier,monospace" font-size="9.00" fill="#000000"> </text>
<text text-anchor="start" x="282" y="-519.4" font-family="Courier,monospace" font-size="7.00" fill="#000000">prototype</text>
<text text-anchor="start" x="320" y="-518.8" font-family="Courier,monospace" font-size="9.00" fill="#000000"> </text>
</a>
</g>
</g>
<!-- wrapper&#45;&gt;os -->
<g id="edge4" class="edge">
<title>wrapper&#45;&gt;os</title>
<g id="a_edge4"><a xlink:title="uses">
<path fill="none" stroke="#000000" d="M234.9,-317.247C255.052,-381.196 278.88,-456.809 291.706,-497.509"/>
<polygon fill="#000000" stroke="#000000" points="291.71,-497.522 297.329,-502.042 295.317,-508.967 291.71,-497.522"/>
</a>
</g>
<text text-anchor="start" x="266" y="-410.8" font-family="Courier,monospace" font-size="9.00" fill="#000000">uses</text>
</g>
</g>
</svg>
