<?xml version="1.0" encoding="UTF-8" standalone="no"?>
<!DOCTYPE svg PUBLIC "-//W3C//DTD SVG 1.1//EN"
 "http://www.w3.org/Graphics/SVG/1.1/DTD/svg11.dtd">
<!-- Generated by graphviz version 2.39.20161014.1928 (20161014.1928)
 -->
<!-- Title: dead_code_scanner Pages: 1 -->
<svg width="566pt" height="690pt"
 viewBox="72.00 72.00 494.00 618.00" xmlns="http://www.w3.org/2000/svg" xmlns:xlink="http://www.w3.org/1999/xlink">
<g id="graph0" class="graph" transform="scale(1 1) rotate(0) translate(76 614)">
<title>dead_code_scanner</title>
<polygon fill="#ffffff" stroke="transparent" points="-4,4 -4,-542 418,-542 418,4 -4,4"/>
<text text-anchor="start" x="8" y="-18" font-family="Courier,monospace" font-size="10.00" fill="#8b8989">Dead code scanner tool</text>
<text text-anchor="start" x="8" y="-7" font-family="Courier,monospace" font-size="10.00" fill="#8b8989">Generated on 2016/10/29, 19:39</text>
<g id="clust1" class="cluster">
<title>cluster_library_dead_code_scanner</title>
<g id="a_clust1"><a xlink:href="https://github.com/LogtalkDotOrg/logtalk3/tree/master/tools/dead_code_scanner/" xlink:title="https://github.com/LogtalkDotOrg/logtalk3/tree/master/tools/dead_code_scanner/">
<path fill="#eee9e9" stroke="#8b8989" d="M20,-38C20,-38 394,-38 394,-38 400,-38 406,-44 406,-50 406,-50 406,-518 406,-518 406,-524 400,-530 394,-530 394,-530 20,-530 20,-530 14,-530 8,-524 8,-518 8,-518 8,-50 8,-50 8,-44 14,-38 20,-38"/>
<text text-anchor="middle" x="67.5" y="-45" font-family="Courier,monospace" font-size="10.00" fill="#8b8989">dead_code_scanner</text>
</a>
</g>
</g>
<g id="clust3" class="cluster">
<title>cluster_file_/Users/pmoura/logtalk/tools/dead_code_scanner/dead_code_scanner.lgt</title>
<g id="a_clust3"><a xlink:href="https://github.com/LogtalkDotOrg/logtalk3/tree/master/tools/dead_code_scanner/dead_code_scanner.lgt" xlink:title="https://github.com/LogtalkDotOrg/logtalk3/tree/master/tools/dead_code_scanner/dead_code_scanner.lgt">
<path fill="#fffafa" stroke="#8b8989" d="M254,-67C254,-67 384,-67 384,-67 390,-67 396,-73 396,-79 396,-79 396,-280 396,-280 396,-286 390,-292 384,-292 384,-292 254,-292 254,-292 248,-292 242,-286 242,-280 242,-280 242,-79 242,-79 242,-73 248,-67 254,-67"/>
<text text-anchor="middle" x="313.5" y="-74" font-family="Courier,monospace" font-size="10.00" fill="#8b8989">dead_code_scanner.lgt</text>
</a>
</g>
</g>
<g id="clust4" class="cluster">
<title>cluster_file_/Users/pmoura/logtalk/tools/dead_code_scanner/dead_code_scanner_messages.lgt</title>
<g id="a_clust4"><a xlink:href="https://github.com/LogtalkDotOrg/logtalk3/tree/master/tools/dead_code_scanner/dead_code_scanner_messages.lgt" xlink:title="https://github.com/LogtalkDotOrg/logtalk3/tree/master/tools/dead_code_scanner/dead_code_scanner_messages.lgt">
<path fill="#fffafa" stroke="#8b8989" d="M30,-116C30,-116 220,-116 220,-116 226,-116 232,-122 232,-128 232,-128 232,-231 232,-231 232,-237 226,-243 220,-243 220,-243 30,-243 30,-243 24,-243 18,-237 18,-231 18,-231 18,-128 18,-128 18,-122 24,-116 30,-116"/>
<text text-anchor="middle" x="116.5" y="-123" font-family="Courier,monospace" font-size="10.00" fill="#8b8989">dead_code_scanner_messages.lgt</text>
</a>
</g>
</g>
<g id="clust5" class="cluster">
<title>cluster_other</title>
<g id="a_clust5"><a xlink:title="(external entities)">
<path fill="#ffffff" stroke="#8b8989" d="M138,-445C138,-445 382,-445 382,-445 388,-445 394,-451 394,-457 394,-457 394,-508 394,-508 394,-514 388,-520 382,-520 382,-520 138,-520 138,-520 132,-520 126,-514 126,-508 126,-508 126,-457 126,-457 126,-451 132,-445 138,-445"/>
<text text-anchor="middle" x="191.5" y="-452" font-family="Courier,monospace" font-size="10.00" fill="#8b8989">(external entities)</text>
</a>
</g>
</g>
<!-- dead_code_scanner -->
<g id="node1" class="node">
<title>dead_code_scanner</title>
<g id="a_node1"><a xlink:href="http://logtalk.org/library/dead_code_scanner_0.html" xlink:title="http://logtalk.org/library/dead_code_scanner_0.html">
<polygon fill="#f5f5dc" stroke="#000000" points="385.5,-282 252.5,-282 252.5,-96 385.5,-96 385.5,-282"/>
</a>
</g>
<g id="a_node1_0"><a xlink:href="dead_code_scanner_object_xref_diagram.svg" xlink:title="Zoom">
<image xlink:href="zoom.png" width="6px" height="6px" preserveAspectRatio="xMinYMin meet" x="263" y="-276"/>
</a>
</g>
<g><a xlink:href="http://logtalk.org/library/dead_code_scanner_0.html" xlink:title="http://logtalk.org/library/dead_code_scanner_0.html">
<text text-anchor="start" x="263" y="-257.2" font-family="Courier,monospace" font-size="11.00" fill="#000000">dead_code_scanner</text>
<text text-anchor="start" x="300.5" y="-244.4" font-family="Courier,monospace" font-size="7.00" fill="#000000">prototype</text>
<text text-anchor="start" x="316.5" y="-230.8" font-family="Courier,monospace" font-size="9.00" fill="#000000"> </text>
<text text-anchor="start" x="297.5" y="-216.8" font-family="Courier,monospace" font-size="9.00" fill="#000000">entity/1</text>
<text text-anchor="start" x="303" y="-202.8" font-family="Courier,monospace" font-size="9.00" fill="#000000">file/1</text>
<text text-anchor="start" x="289.5" y="-188.8" font-family="Courier,monospace" font-size="9.00" fill="#000000">directory/1</text>
<text text-anchor="start" x="287" y="-174.8" font-family="Courier,monospace" font-size="9.00" fill="#000000">rdirectory/1</text>
<text text-anchor="start" x="295" y="-160.8" font-family="Courier,monospace" font-size="9.00" fill="#000000">library/1</text>
<text text-anchor="start" x="292" y="-146.8" font-family="Courier,monospace" font-size="9.00" fill="#000000">rlibrary/1</text>
<text text-anchor="start" x="305.5" y="-132.8" font-family="Courier,monospace" font-size="9.00" fill="#000000">all/0</text>
<text text-anchor="start" x="287" y="-118.8" font-family="Courier,monospace" font-size="9.00" fill="#000000">predicates/2</text>
<text text-anchor="start" x="289.5" y="-104.8" font-family="Courier,monospace" font-size="9.00" fill="#000000">predicate/2</text>
</a>
</g>
</g>
<!-- list -->
<g id="node3" class="node">
<title>list</title>
<g id="a_node3"><a xlink:title="prototype">
<polygon fill="#f5f5dc" stroke="#000000" stroke-dasharray="5,2" points="384,-510 326,-510 326,-474 384,-474 384,-510"/>
<text text-anchor="start" x="341.5" y="-495.2" font-family="Courier,monospace" font-size="11.00" fill="#000000">list</text>
<text text-anchor="start" x="336" y="-482.4" font-family="Courier,monospace" font-size="7.00" fill="#000000">prototype</text>
</a>
</g>
</g>
<!-- dead_code_scanner&#45;&gt;list -->
<g id="edge1" class="edge">
<title>dead_code_scanner&#45;&gt;list</title>
<g id="a_edge1"><a xlink:title="uses">
<path fill="none" stroke="#000000" d="M330.095,-282.382C337.4,-343.864 346.493,-420.398 351.421,-461.873"/>
<polygon fill="#000000" stroke="#000000" points="351.422,-461.887 356.102,-467.373 352.838,-473.803 351.422,-461.887"/>
</a>
</g>
<text text-anchor="start" x="342" y="-375.8" font-family="Courier,monospace" font-size="9.00" fill="#000000">uses</text>
</g>
<!-- logtalk -->
<g id="node4" class="node">
<title>logtalk</title>
<g id="a_node4"><a xlink:title="built&#45;in prototype">
<polygon fill="#f5f5dc" stroke="#000000" stroke-dasharray="5,2" points="232,-510 136,-510 136,-474 232,-474 232,-510"/>
<text text-anchor="start" x="160.5" y="-495.2" font-family="Courier,monospace" font-size="11.00" fill="#000000">logtalk</text>
<text text-anchor="start" x="146" y="-482.4" font-family="Courier,monospace" font-size="7.00" fill="#000000">built&#45;in prototype</text>
</a>
</g>
</g>
<!-- dead_code_scanner&#45;&gt;logtalk -->
<g id="edge2" class="edge">
<title>dead_code_scanner&#45;&gt;logtalk</title>
<g id="a_edge2"><a xlink:title="uses">
<path fill="none" stroke="#000000" d="M277.394,-282.382C249.824,-344.263 215.46,-421.39 197.066,-462.674"/>
<polygon fill="#000000" stroke="#000000" points="196.991,-462.842 198.203,-469.95 192.107,-473.803 196.991,-462.842"/>
</a>
</g>
<text text-anchor="start" x="236" y="-375.8" font-family="Courier,monospace" font-size="9.00" fill="#000000">uses</text>
</g>
<!-- os -->
<g id="node5" class="node">
<title>os</title>
<g id="a_node5"><a xlink:title="prototype">
<polygon fill="#f5f5dc" stroke="#000000" stroke-dasharray="5,2" points="308,-510 250,-510 250,-474 308,-474 308,-510"/>
<text text-anchor="start" x="272" y="-495.2" font-family="Courier,monospace" font-size="11.00" fill="#000000">os</text>
<text text-anchor="start" x="260" y="-482.4" font-family="Courier,monospace" font-size="7.00" fill="#000000">prototype</text>
</a>
</g>
</g>
<!-- dead_code_scanner&#45;&gt;os -->
<g id="edge3" class="edge">
<title>dead_code_scanner&#45;&gt;os</title>
<g id="a_edge3"><a xlink:title="uses">
<path fill="none" stroke="#000000" d="M306.672,-282.382C298.556,-343.864 288.452,-420.398 282.977,-461.873"/>
<polygon fill="#000000" stroke="#000000" points="282.973,-461.906 286.153,-468.378 281.402,-473.803 282.973,-461.906"/>
</a>
</g>
<text text-anchor="start" x="294" y="-375.8" font-family="Courier,monospace" font-size="9.00" fill="#000000">uses</text>
</g>
<!-- dead_code_scanner_messages -->
<g id="node2" class="node">
<title>dead_code_scanner_messages</title>
<g id="a_node2"><a xlink:href="http://logtalk.org/library/dead_code_scanner_messages_0.html" xlink:title="http://logtalk.org/library/dead_code_scanner_messages_0.html">
<polygon fill="#e0ffff" stroke="#000000" points="221.5,-233 28.5,-233 28.5,-229 24.5,-229 24.5,-225 28.5,-225 28.5,-153 24.5,-153 24.5,-149 28.5,-149 28.5,-145 221.5,-145 221.5,-233"/>
<polyline fill="none" stroke="#000000" points="28.5,-229 32.5,-229 32.5,-225 28.5,-225 "/>
<polyline fill="none" stroke="#000000" points="28.5,-153 32.5,-153 32.5,-149 28.5,-149 "/>
</a>
</g>
<g id="a_node2_1"><a xlink:href="dead_code_scanner_messages_category_xref_diagram.svg" xlink:title="Zoom">
<image xlink:href="zoom.png" width="6px" height="6px" preserveAspectRatio="xMinYMin meet" x="39" y="-227"/>
</a>
</g>
<g><a xlink:href="http://logtalk.org/library/dead_code_scanner_messages_0.html" xlink:title="http://logtalk.org/library/dead_code_scanner_messages_0.html">
<text text-anchor="start" x="39.5" y="-208.2" font-family="Courier,monospace" font-size="11.00" fill="#000000">dead_code_scanner_messages</text>
<text text-anchor="start" x="108.5" y="-195.4" font-family="Courier,monospace" font-size="7.00" fill="#000000">category</text>
<text text-anchor="start" x="122.5" y="-181.8" font-family="Courier,monospace" font-size="9.00" fill="#000000"> </text>
<text text-anchor="start" x="39" y="-167.8" font-family="Courier,monospace" font-size="9.00" fill="#000000">logtalk::message_prefix_stream/4</text>
<text text-anchor="start" x="55" y="-153.8" font-family="Courier,monospace" font-size="9.00" fill="#000000">logtalk::message_tokens//2</text>
</a>
</g>
</g>
<!-- dead_code_scanner_messages&#45;&gt;logtalk -->
<g id="edge4" class="edge">
<title>dead_code_scanner_messages&#45;&gt;logtalk</title>
<g id="a_edge4"><a xlink:title="provides">
<path fill="none" stroke="#000000" d="M132.913,-233.363C140.01,-272.722 150.841,-331.758 161,-383 166.462,-410.553 173.13,-441.925 177.876,-463.915"/>
<polygon fill="#000000" stroke="#000000" points="176.618,-474.639 177.922,-464.125 183.459,-473.158 176.618,-474.639"/>
</a>
</g>
<text text-anchor="start" x="161" y="-375.8" font-family="Courier,monospace" font-size="9.00" fill="#000000">provides</text>
</g>
</g>
</svg>
