<?xml version="1.0" encoding="UTF-8" standalone="no"?>
<!DOCTYPE svg PUBLIC "-//W3C//DTD SVG 1.1//EN"
 "http://www.w3.org/Graphics/SVG/1.1/DTD/svg11.dtd">
<!-- Generated by graphviz version 2.39.20161014.1928 (20161014.1928)
 -->
<!-- Title: dead_code_scanner_messages_category Pages: 1 -->
<svg width="798pt" height="774pt"
 viewBox="72.00 72.00 726.00 701.74" xmlns="http://www.w3.org/2000/svg" xmlns:xlink="http://www.w3.org/1999/xlink">
<g id="graph0" class="graph" transform="scale(1 1) rotate(0) translate(76 697.735)">
<title>dead_code_scanner_messages_category</title>
<polygon fill="#ffffff" stroke="transparent" points="-4,4 -4,-625.735 650,-625.735 650,4 -4,4"/>
<text text-anchor="start" x="8" y="-18" font-family="Courier,monospace" font-size="10.00" fill="#8b8989">Dead code scanner messages</text>
<text text-anchor="start" x="8" y="-7" font-family="Courier,monospace" font-size="10.00" fill="#8b8989">Generated on 2016/10/29, 19:39</text>
<g id="clust1" class="cluster">
<title>cluster_dead_code_scanner_messages_category</title>
<g id="a_clust1"><a xlink:href="https://github.com/LogtalkDotOrg/logtalk3/tree/master/tools/dead_code_scanner/dead_code_scanner_messages.lgt" xlink:title="https://github.com/LogtalkDotOrg/logtalk3/tree/master/tools/dead_code_scanner/dead_code_scanner_messages.lgt">
<path fill="#fffafa" stroke="#8b8989" d="M20,-38C20,-38 626,-38 626,-38 632,-38 638,-44 638,-50 638,-50 638,-601.735 638,-601.735 638,-607.735 632,-613.735 626,-613.735 626,-613.735 20,-613.735 20,-613.735 14,-613.735 8,-607.735 8,-601.735 8,-601.735 8,-50 8,-50 8,-44 14,-38 20,-38"/>
<text text-anchor="middle" x="94.5" y="-601.735" font-family="Courier,monospace" font-size="10.00" fill="#8b8989">dead_code_scanner_messages</text>
</a>
</g>
</g>
<!-- message_prefix_stream/3 -->
<g id="node1" class="node">
<title>message_prefix_stream/3</title>
<ellipse fill="#f5f5dc" stroke="#000000" cx="464" cy="-316.368" rx="121.745" ry="25.4118"/>
<text text-anchor="start" x="388" y="-319.568" font-family="Courier,monospace" font-size="11.00" fill="#000000">message_prefix_stream/3</text>
<text text-anchor="start" x="453" y="-306.768" font-family="Courier,monospace" font-size="7.00" fill="#000000">local</text>
</g>
<!-- message_tokens//1 -->
<g id="node2" class="node">
<title>message_tokens//1</title>
<ellipse fill="#f5f5dc" stroke="#000000" cx="150" cy="-316.368" rx="94.0904" ry="25.4118"/>
<text text-anchor="start" x="94" y="-319.568" font-family="Courier,monospace" font-size="11.00" fill="#000000">message_tokens//1</text>
<text text-anchor="start" x="139.5" y="-306.768" font-family="Courier,monospace" font-size="7.00" fill="#000000">local</text>
</g>
<!-- likely_dead_predicate//1 -->
<g id="node3" class="node">
<title>likely_dead_predicate//1</title>
<ellipse fill="#f5f5dc" stroke="#000000" cx="146" cy="-73.4558" rx="126.644" ry="25.4118"/>
<text text-anchor="start" x="67" y="-76.6558" font-family="Courier,monospace" font-size="11.00" fill="#000000">likely_dead_predicate//1</text>
<text text-anchor="start" x="135.5" y="-63.8558" font-family="Courier,monospace" font-size="7.00" fill="#000000">local</text>
</g>
<!-- message_tokens//1&#45;&gt;likely_dead_predicate//1 -->
<g id="edge4" class="edge">
<title>message_tokens//1&#45;&gt;likely_dead_predicate//1</title>
<g id="a_edge4"><a xlink:title="calls">
<path fill="none" stroke="#000000" d="M149.579,-290.831C148.873,-247.914 147.444,-161.126 146.621,-111.17"/>
<polygon fill="#000000" stroke="#000000" points="146.619,-111.013 142.52,-105.08 146.421,-99.0149 146.619,-111.013"/>
</a>
</g>
<text text-anchor="start" x="148" y="-192.712" font-family="Courier,monospace" font-size="9.00" fill="#000000">calls</text>
</g>
<!-- ground_term_copy/2 -->
<g id="node4" class="node">
<title>ground_term_copy/2</title>
<ellipse fill="#f5f5dc" stroke="#000000" cx="389" cy="-73.4558" rx="98.0761" ry="25.4118"/>
<text text-anchor="start" x="330" y="-76.6558" font-family="Courier,monospace" font-size="11.00" fill="#000000">ground_term_copy/2</text>
<text text-anchor="start" x="378.5" y="-63.8558" font-family="Courier,monospace" font-size="7.00" fill="#000000">local</text>
</g>
<!-- message_tokens//1&#45;&gt;ground_term_copy/2 -->
<g id="edge3" class="edge">
<title>message_tokens//1&#45;&gt;ground_term_copy/2</title>
<g id="a_edge3"><a xlink:title="calls">
<path fill="none" stroke="#000000" d="M174.232,-291.739C217.356,-247.909 307.45,-156.341 356.119,-106.875"/>
<polygon fill="#000000" stroke="#000000" points="356.288,-106.703 357.645,-99.621 364.704,-98.1495 356.288,-106.703"/>
</a>
</g>
<text text-anchor="start" x="273" y="-192.712" font-family="Courier,monospace" font-size="9.00" fill="#000000">calls</text>
</g>
<!-- logtalk::message_prefix_stream/4 -->
<g id="node5" class="node">
<title>logtalk::message_prefix_stream/4</title>
<g id="a_node5"><a xlink:href="http://logtalk.org/library/logtalk_0.html#message_prefix_stream/4" xlink:title="http://logtalk.org/library/logtalk_0.html#message_prefix_stream/4">
<ellipse fill="#87ceeb" stroke="#000000" cx="464" cy="-559.279" rx="164.098" ry="25.4118"/>
<text text-anchor="start" x="358" y="-562.479" font-family="Courier,monospace" font-size="11.00" fill="#000000">logtalk::message_prefix_stream/4</text>
<text text-anchor="start" x="445" y="-549.679" font-family="Courier,monospace" font-size="7.00" fill="#000000">multifile</text>
</a>
</g>
</g>
<!-- logtalk::message_prefix_stream/4&#45;&gt;message_prefix_stream/3 -->
<g id="edge1" class="edge">
<title>logtalk::message_prefix_stream/4&#45;&gt;message_prefix_stream/3</title>
<g id="a_edge1"><a xlink:title="calls">
<path fill="none" stroke="#000000" d="M464,-533.743C464,-490.825 464,-404.038 464,-354.082"/>
<polygon fill="#000000" stroke="#000000" points="464,-353.927 460,-347.927 464,-341.927 464,-353.927"/>
</a>
</g>
<text text-anchor="start" x="464" y="-435.623" font-family="Courier,monospace" font-size="9.00" fill="#000000">calls</text>
</g>
<!-- logtalk::message_tokens/4 -->
<g id="node6" class="node">
<title>logtalk::message_tokens/4</title>
<g id="a_node6"><a xlink:href="http://logtalk.org/library/logtalk_0.html#message_tokens/4" xlink:title="http://logtalk.org/library/logtalk_0.html#message_tokens/4">
<ellipse fill="#87ceeb" stroke="#000000" cx="150" cy="-559.279" rx="131.544" ry="25.4118"/>
<text text-anchor="start" x="67" y="-562.479" font-family="Courier,monospace" font-size="11.00" fill="#000000">logtalk::message_tokens/4</text>
<text text-anchor="start" x="131" y="-549.679" font-family="Courier,monospace" font-size="7.00" fill="#000000">multifile</text>
</a>
</g>
</g>
<!-- logtalk::message_tokens/4&#45;&gt;message_tokens//1 -->
<g id="edge2" class="edge">
<title>logtalk::message_tokens/4&#45;&gt;message_tokens//1</title>
<g id="a_edge2"><a xlink:title="calls">
<path fill="none" stroke="#000000" d="M150,-533.743C150,-490.825 150,-404.038 150,-354.082"/>
<polygon fill="#000000" stroke="#000000" points="150,-353.927 146,-347.927 150,-341.927 150,-353.927"/>
</a>
</g>
<text text-anchor="start" x="150" y="-435.623" font-family="Courier,monospace" font-size="9.00" fill="#000000">calls</text>
</g>
</g>
</svg>
